<?xml version="1.0" standalone="no"?>
<!DOCTYPE svg PUBLIC "-//W3C//DTD SVG 1.1//EN" "http://www.w3.org/Graphics/SVG/1.1/DTD/svg11.dtd" >
<svg>
<metadata>
Created by FontForge 20090914 at Fri Dec 12 22:14:07 2014
 By www-data
Copyright (c) 2014 by Jeremy Dooley. All rights reserved.
</metadata>
<defs>
<font id="CabritoSans-NorThi" horiz-adv-x="551" >
  <font-face 
    font-family="CabritoSans-NorThi"
    font-weight="400"
    font-stretch="normal"
    units-per-em="1000"
    panose-1="2 0 5 3 4 0 0 2 0 4"
    ascent="756"
    descent="-244"
    x-height="532"
    cap-height="722"
    bbox="-160.048 -307 1219 956.001"
    underline-thickness="50"
    underline-position="-50"
    unicode-range="U+0020-U+FB04"
  />
<missing-glyph horiz-adv-x="280" 
 />
    <glyph glyph-name=".notdef" horiz-adv-x="280" 
 />
    <glyph glyph-name="space" unicode=" " horiz-adv-x="280" 
 />
    <glyph glyph-name="exclam" unicode="!" horiz-adv-x="235" 
d="M140 714c0 -18.667 -0.5 -79 -1.5 -181s-1.5 -227 -1.5 -375c0 -6.66699 -6.66699 -10 -20 -10s-20 3.33301 -20 10c0 148 -0.5 273 -1.5 375s-1.5 162.333 -1.5 181c0 23.333 7.66699 35 23 35s23 -11.667 23 -35zM79 22c0 10.667 3.33301 19.5 10 26.5
s14.667 10.5 24 10.5c8.66699 0 16.167 -3.16699 22.5 -9.5s9.5 -14.5 9.5 -24.5s-3.33301 -18.333 -10 -25s-15 -10 -25 -10c-9.33301 0 -16.833 2.83301 -22.5 8.5s-8.5 13.5 -8.5 23.5z" />
    <glyph glyph-name="quotedbl" unicode="&#x22;" horiz-adv-x="381" 
d="M260 558l-5 164c-0.666992 4 0.5 6.83301 3.5 8.5s9.16699 2.5 18.5 2.5s15.333 -0.833008 18 -2.5s4 -4.5 4 -8.5l-6 -164c0 -8.66699 -5.33301 -13 -16 -13c-11.333 0 -17 4.33301 -17 13zM90 558l-6 164c-0.666992 4 0.5 6.83301 3.5 8.5s9.16699 2.5 18.5 2.5
s15.333 -0.833008 18 -2.5s3.66699 -4.5 3 -8.5l-5 -164c0 -8.66699 -5.33301 -13 -16 -13s-16 4.33301 -16 13z" />
    <glyph glyph-name="numbersign" unicode="#" horiz-adv-x="798" 
d="M389 35l75.9971 184.002h-256l-89 -213c-5.33301 -11.333 -12.333 -17 -21 -17c-10.667 0 -16 5.33301 -16 16c0 11.333 2 21.333 6 30l76 184h-112c-8.66699 0 -14.667 1.33301 -18 4s-5 7.66699 -5 15c0 10.667 7.33301 16 22 16h128l102 245h-139
c-8.66699 0 -14.667 1.33301 -18 4s-5 7.66699 -5 15c0 10.667 7.33301 16 22 16h154l68 161c4.66699 10 7.83398 16.667 9.50098 20s4.83398 6.66602 9.50098 9.99902s10.667 5 18 5c13.333 0 16.333 -10 9 -30l-14 -36l-55 -130h255l68 161l9.5 20
c1.66699 3.33301 4.83398 6.66602 9.50098 9.99902s10.667 5 18 5c13.333 0 16.333 -10 9 -30l-14 -36l-55 -130h115c8 0 12 -6.33301 12 -19c0 -10.667 -5.33301 -16 -16 -16h-125l-103 -245h142c8 0 12 -6.33301 12 -19c0 -10.667 -5.33301 -16 -16 -16h-153l-89 -213
c-5.33301 -11.333 -12.333 -17 -21 -17c-10.667 0 -16 5.33301 -16 16c0 11.333 2 21.333 6 30zM326.997 499.002l-103 -245h256l102 245h-255z" />
    <glyph glyph-name="dollar" unicode="$" horiz-adv-x="495" 
d="M440 687l0.00390625 -14.002c0 -10 -6 -12.667 -18 -8c-46.667 19.333 -101.667 29 -165 29c-54 0 -95.167 -9.5 -123.5 -28.5s-42.5 -51.5 -42.5 -97.5c0 -29.333 6.83301 -53.666 20.5 -72.999s31.5 -34 53.5 -44s46.167 -18.833 72.5 -26.5s52.666 -16.5 78.999 -26.5
s50.5 -22.5 72.5 -37.5s39.833 -37.167 53.5 -66.5s20.5 -64.666 20.5 -105.999c0 -122 -63 -187 -189 -195v-104c0 -11.333 -5 -17.333 -15 -18h-11c-9.33301 0 -14 5.66699 -14 17v103c-78 0.666992 -140.667 13.667 -188 39c-6.66699 3.33301 -10 9 -10 17v16
c0 8.66699 4.33301 11.334 13 8.00098c58.667 -28 122 -42 190 -42c57.333 0 102.333 11.5 135 34.5s49 63.5 49 121.5c0 37.333 -6.83301 68.833 -20.5 94.5s-31.334 45.167 -53.001 58.5s-45.667 24.5 -72 33.5l-79.5 26c-26.667 8.33301 -50.834 18.5 -72.501 30.5
s-39.334 29.333 -53.001 52s-20.5 51 -20.5 85c0 107.333 63.333 162.666 190 165.999v85c0 11.333 5 17.333 15 18h11c9.33301 0 14 -5.66699 14 -17v-86c56 -2 105.667 -11.667 149 -29c6 -2.66699 9 -7.66699 9 -15z" />
    <glyph glyph-name="percent" unicode="%" horiz-adv-x="831" 
d="M240 21l293.999 684c2.66699 7.33301 5.16699 12 7.5 14s5.5 3 9.5 3h22c8 0 8.66699 -7.33301 2 -22l-297 -686c-3.33301 -6.66699 -5.66602 -10.667 -6.99902 -12s-5 -2 -11 -2h-14c-10 0 -12 7 -6 21zM31.999 529c0 61.333 12.833 111.333 38.5 150s65.5 58 119.5 58
s94 -19.333 120 -58s39 -88.667 39 -150s-13 -111.5 -39 -150.5s-66 -58.5 -120 -58.5s-93.833 19.5 -119.5 58.5s-38.5 89.167 -38.5 150.5zM189.999 702c-38 0 -67.167 -16.6689 -87.5 -50.002s-30.5 -74.666 -30.5 -123.999c0 -50.667 9.5 -92.167 28.5 -124.5
s48.833 -48.5 89.5 -48.5c79.333 0 119 57.667 119 173c0 50.667 -9.66699 92.334 -29 125.001s-49.333 49 -90 49zM481.999 199.998c0 61.333 12.833 111.333 38.5 150s65.5 58 119.5 58s94 -19.333 120 -58s39 -88.667 39 -150s-13 -111.5 -39 -150.5
s-66 -58.5 -120 -58.5s-93.833 19.5 -119.5 58.5s-38.5 89.167 -38.5 150.5zM639.999 372.998c-38 0 -67.167 -16.6689 -87.5 -50.002s-30.5 -74.666 -30.5 -123.999c0 -50.667 9.5 -92.167 28.5 -124.5s48.833 -48.5 89.5 -48.5c79.333 0 119 57.667 119 173
c0 50.667 -9.66699 92.334 -29 125.001s-49.333 49 -90 49z" />
    <glyph glyph-name="ampersand" unicode="&#x26;" horiz-adv-x="621" 
d="M105 547c0 -98 60.668 -146.998 182.001 -146.998h305c6.66699 0 11.167 -0.666992 13.5 -2s3.5 -4.66602 3.5 -9.99902v-14c0 -8 -5 -12 -15 -12h-115v-349c0 -8.66699 -4.33301 -13 -13 -13h-187c-74 0 -133 16.5 -177 49.5s-66 81.5 -66 145.5
c0 54.667 15.333 98.667 46 132s69.667 51.666 117 54.999c-18 4 -33.5 9 -46.5 15s-26.833 15 -41.5 27s-26 28.667 -34 50s-12 46.666 -12 75.999c0 56 18 100.333 54 133s88 49 156 49c71.333 0 131.666 -8.66699 180.999 -26c7.33301 -2.66699 11 -8.66699 11 -18v-15
c0 -8.66699 -4.66699 -11 -14 -7c-49.333 18.667 -108 28 -176 28c-56.667 0 -99.5 -12.833 -128.5 -38.5s-43.5 -61.834 -43.5 -108.501zM279.001 38.002h159.001v324h-152c-62 0 -112.667 -13.5 -152 -40.5s-59 -69.833 -59 -128.5c0 -50.667 17.667 -89.167 53 -115.5
s85.666 -39.5 150.999 -39.5z" />
    <glyph glyph-name="quotesingle" unicode="'" horiz-adv-x="210" 
d="M90 558l-6 164c-0.666992 4 0.5 6.83301 3.5 8.5s9.16699 2.5 18.5 2.5s15.333 -0.833008 18 -2.5s3.66699 -4.5 3 -8.5l-5 -164c0 -8.66699 -5.33301 -13 -16 -13s-16 4.33301 -16 13z" />
    <glyph glyph-name="parenleft" unicode="(" horiz-adv-x="316" 
d="M241 -104c-57.333 46.667 -101 105.669 -131 177.002s-45 149.666 -45 234.999s15 163.666 45 234.999s73.667 130.333 131 177c8.66699 7.33301 16 6 22 -4s5.66699 -18 -1 -24c-104.667 -98.667 -157 -226.667 -157 -384c0 -158 52.333 -286.333 157 -385
c6.66699 -5.33301 7 -13 1 -23s-13.333 -11.333 -22 -4z" />
    <glyph glyph-name="parenright" unicode=")" horiz-adv-x="316" 
d="M86 -105c-10 -5.33301 -17.667 -3.66992 -23 4.99707c-6.66699 10.667 -6.33398 18.334 0.999023 23.001c104.667 100.667 157 229 157 385s-52.333 284.333 -157 385c-7.33301 4.66699 -7.66602 12.334 -0.999023 23.001c5.33301 8.66699 13 10.334 23 5.00098
c56.667 -48 100 -107.667 130 -179s45 -149.333 45 -234s-15 -162.667 -45 -234s-73.333 -131 -130 -179z" />
    <glyph glyph-name="asterisk" unicode="*" horiz-adv-x="411" 
d="M236 545l-1.00195 -0.998047c14.667 -8.66699 35.167 -19.334 61.5 -32.001s47.5 -24.334 63.5 -35.001c18 -12 23.333 -24 16 -36c-7.33301 -11.333 -19.666 -11.333 -36.999 0c-15.333 10 -34.333 24.333 -57 43s-41.667 33 -57 43c0.666992 -16 2.66699 -38.5 6 -67.5
s5 -52.833 5 -71.5c0 -8.66699 -2 -16.167 -6 -22.5s-9.33301 -9.5 -16 -9.5c-6 0 -10.833 3 -14.5 9s-5.5 13.333 -5.5 22c0 18.667 1.66699 42.667 5 72s5.33301 51.666 6 66.999c-14 -8.66699 -32.667 -21.667 -56 -39s-42.666 -30.666 -57.999 -39.999
c-18 -10.667 -30.667 -10 -38 2c-7.33301 11.333 -2 22.333 16 33c16 9.33301 37.5 20 64.5 32s48.167 22.333 63.5 31c-15.333 9.33301 -36.333 20.5 -63 33.5s-47.667 24.5 -63 34.5c-17.333 12 -22.666 23.333 -15.999 34s19.334 10.334 38.001 -0.999023
c15.333 -10 34.5 -23.833 57.5 -41.5s41.167 -31.167 54.5 -40.5c0 17.333 -1.83301 40.666 -5.5 69.999s-5.5 53.333 -5.5 72c0 8.66699 1.83301 16 5.5 22s8.5 9 14.5 9c13.333 0 20 -10.667 20 -32c0 -19.333 -1.33301 -43.833 -4 -73.5
s-4.33398 -52.834 -5.00098 -69.501c16 9.33301 36 22.833 60 40.5s43.667 31.167 59 40.5c18 10.667 30.333 10.334 37 -0.999023c5.33301 -11.333 -1 -22.333 -19 -33c-16.667 -10 -38.334 -21.167 -65.001 -33.5s-47 -22.5 -61 -30.5z" />
    <glyph glyph-name="plus" unicode="+" horiz-adv-x="482" 
d="M257 515v-160h171c14.667 0 22 -4.66699 22 -14c0 -8 -1.66699 -13.5 -5 -16.5s-10.333 -4.5 -21 -4.5h-167v-174c0 -15.333 -6 -23 -18 -23c-14.667 0 -22 7.33301 -22 22v175h-162c-15.333 0 -23 6 -23 18c0 7.33301 1.66699 12 5 14s9 3 17 3h163v164
c0 14.667 6.33301 22 19 22c8 0 13.5 -1.66699 16.5 -5s4.5 -10.333 4.5 -21z" />
    <glyph glyph-name="comma" unicode="," horiz-adv-x="241" 
d="M90 26c0 12 3.33301 21.666 10 28.999s15 11 25 11s18.5 -3.66699 25.5 -11s10.5 -17.333 10.5 -30c0 -40.667 -25.667 -83 -77 -127c-6.66699 -5.33301 -11.667 -6 -15 -2l-4 6c-2.66699 4 -1 8.66699 5 14c30 26.667 47.333 51.334 52 74.001
c-21.333 1.33301 -32 13.333 -32 36z" />
    <glyph glyph-name="hyphen" unicode="-" horiz-adv-x="442" 
d="M98 333h247.001c5.33301 0 8.66602 -0.833008 9.99902 -2.5s2 -5.16699 2 -10.5v-12c0 -8.66699 -4 -13 -12 -13h-247c-5.33301 0 -8.83301 0.833008 -10.5 2.5s-2.5 5.16699 -2.5 10.5v12c0 5.33301 0.833008 8.83301 2.5 10.5s5.16699 2.5 10.5 2.5z" />
    <glyph glyph-name="period" unicode="." horiz-adv-x="231" 
d="M82 30c0 10.667 3.33301 19.5 10 26.5s14.667 10.5 24 10.5c8.66699 0 16.167 -3.16699 22.5 -9.5s9.5 -14.5 9.5 -24.5s-3.33301 -18.333 -10 -25s-15 -10 -25 -10c-9.33301 0 -16.833 2.83301 -22.5 8.5s-8.5 13.5 -8.5 23.5z" />
    <glyph glyph-name="slash" unicode="/" horiz-adv-x="412" 
d="M39 -8l307.999 736.001c3.33301 8 6 13 8 15s5 2.66699 9 2l22 -5c6 -2 6.66699 -9.33301 2 -22l-311 -740c-3.33301 -7.33301 -5.66602 -11.833 -6.99902 -13.5s-4 -1.83398 -8 -0.500977l-22 7c-6 2 -6.33301 9 -1 21z" />
    <glyph glyph-name="zero" unicode="0" horiz-adv-x="630" 
d="M315 -10c-88 0 -156.333 35 -205 105s-73 160 -73 270s24.167 199 72.5 267s117.166 102 206.499 102c88.667 0 156.834 -33.833 204.501 -101.5s71.5 -156.5 71.5 -266.5c0 -111.333 -24.167 -201.833 -72.5 -271.5s-116.5 -104.5 -204.5 -104.5zM552 365
c0 46.667 -4.49805 89.501 -13.498 128.501s-22.833 73.833 -41.5 104.5s-43.334 54.667 -74.001 72s-66.334 26 -107.001 26c-79.333 0 -139 -30.833 -179 -92.5s-60 -141.5 -60 -239.5c0 -102.667 21.167 -184.334 63.5 -245.001s100.5 -91 174.5 -91s132 30.333 174 91
s63 142.667 63 246z" />
    <glyph glyph-name="one" unicode="1" horiz-adv-x="210" 
d="M101 685l-83 -36c-9.33301 -4 -14 -1.66699 -14 7v12c0 8 3.66699 13.667 11 17l82 37c7.33301 3.33301 15.333 5 24 5c13.333 0 20 -6 20 -18v-697c0 -8 -4.33301 -12 -13 -12h-14c-8.66699 0 -13 4 -13 12v673z" />
    <glyph glyph-name="two" unicode="2" horiz-adv-x="498" 
d="M416 560c0 88.667 -54 133.001 -162 133.001c-65.333 0 -134.666 -13 -207.999 -39c-9.33301 -4 -14 -1 -14 9v12c0 8.66699 3.33301 14.334 10 17.001c58 26 128.667 39 212 39c68.667 0 119.5 -15.5 152.5 -46.5s49.5 -71.833 49.5 -122.5
c0 -46.667 -13.333 -90.334 -40 -131.001s-79.667 -102.667 -159 -186l-197 -207h395c7.33301 0 11 -4.66699 11 -14v-13c0 -7.33301 -4.33301 -11 -13 -11h-417c-8.66699 0 -14.334 0.666992 -17.001 2s-4 5 -4 11v12c0 11.333 8 25.666 24 42.999l187 200
c79.333 85.333 130.833 145.5 154.5 180.5s35.5 72.167 35.5 111.5z" />
    <glyph glyph-name="three" unicode="3" horiz-adv-x="531" 
d="M231 25c148.667 0 222.999 55.667 222.999 167c0 59.333 -18.833 102.333 -56.5 129s-86.5 40 -146.5 40h-48c-5.33301 0 -8 3.66699 -8 11v17c0 6.66699 2.66699 10 8 10h47c117.333 0 176 51.667 176 155c0 50.667 -14 86.667 -42 108s-69.667 32 -125 32
c-60 0 -124 -12.667 -192 -38c-6.66699 -2 -10 0 -10 6v20c0 5.33301 1.66699 9 5 11c10.667 7.33301 36 15.666 76 24.999s81 14 123 14c136.667 0 205 -59.333 205 -178c0 -93.333 -43.333 -150.666 -130 -171.999c17.333 -1.33301 34.5 -5.33301 51.5 -12
s33.833 -16.834 50.5 -30.501s30.167 -33.167 40.5 -58.5s15.5 -54.666 15.5 -87.999c0 -68 -22.167 -119.333 -66.5 -154s-109.166 -52 -194.499 -52c-39.333 0 -79 3.33301 -119 10s-65.667 13 -77 19c-4 2 -6 6.33301 -6 13v16c0 6 2.66699 9 8 9
c1.33301 0 11.666 -2.66699 30.999 -8c48.667 -14 102.334 -21 161.001 -21z" />
    <glyph glyph-name="four" unicode="4" horiz-adv-x="501" 
d="M371 12v137.001h-353c-4.66699 0 -7.66699 0.666992 -9 2s-2 4 -2 8v14c0 3.33301 0.666992 5.66602 2 6.99902l363 532c5.33301 6.66699 13.333 10 24 10h10c16 0 17.667 -8.66699 5 -26l-352 -512h312v174c0 10 5 15 15 15h11c9.33301 0 14 -4.66699 14 -14v-175h66
c7.33301 0 11 -3 11 -9v-16c0 -6.66699 -3.33301 -10 -10 -10h-67v-137c0 -8 -2.66699 -12 -8 -12h-23c-6 0 -9 4 -9 12z" />
    <glyph glyph-name="five" unicode="5" horiz-adv-x="502" 
d="M426 687h-282l-40 -246c23.333 2.66699 71.666 4 144.999 4c32 0 60.667 -3.16699 86 -9.5s48.833 -17 70.5 -32s38.5 -37 50.5 -66s18 -64.5 18 -106.5c0 -162.667 -84 -244 -252 -244c-73.333 0 -132 7 -176 21c-7.33301 2 -11.666 4.33301 -12.999 7s-2 7 -2 13v8
c0 6 0.5 9.66699 1.5 11s3.16699 2 6.5 2c2.66699 0 12.667 -2.66699 30 -8c44.667 -12.667 95.667 -19 153 -19c141.333 0 212 69.667 212 209c0 64.667 -15.833 110.5 -47.5 137.5s-78.167 40.5 -139.5 40.5c-11.333 0 -34 -0.833008 -68 -2.5s-58.667 -2.5 -74 -2.5h-10
c-6.66699 -0.666992 -12.334 -1 -17.001 -1c-14.667 0 -20.667 7.66699 -18 23l45 279c2 11.333 9.33301 17 22 17h295c6.66699 0 10.834 -0.666992 12.501 -2s2.5 -4.33301 2.5 -9v-11c0 -8.66699 -3.66699 -13 -11 -13z" />
    <glyph glyph-name="six" unicode="6" 
d="M283 -11c-46.667 0 -86.334 8.33398 -119.001 25.001s-57.834 40.834 -75.501 72.501s-30.167 66.5 -37.5 104.5s-11 82 -11 132c0 138 25.5 240.833 76.5 308.5s122.833 101.5 215.5 101.5c53.333 0 96 -8 128 -24c8.66699 -4 13 -10.333 13 -19v-12
c0 -10.667 -5.66699 -13.334 -17 -8.00098c-38.667 16.667 -78.667 25 -120 25c-171.333 0 -257 -124 -257 -372c15.333 52.667 43.5 90.5 84.5 113.5s85.833 34.5 134.5 34.5c66.667 0 121.334 -20.333 164.001 -61s64 -100.334 64 -179.001
c0 -80 -22.167 -140.333 -66.5 -181s-103.166 -61 -176.499 -61zM287 27.001c58 0 105.666 17.001 142.999 51.001s56 84.667 56 152c0 63.333 -16.833 113 -50.5 149s-80.167 54 -139.5 54c-61.333 0 -110.166 -18.833 -146.499 -56.5s-54.5 -87.834 -54.5 -150.501
c0 -58.667 16.5 -106.5 49.5 -143.5s80.5 -55.5 142.5 -55.5z" />
    <glyph glyph-name="seven" unicode="7" horiz-adv-x="452" 
d="M24 722h418c8 0 12 -3.66699 12 -11v-10c0 -8.66699 -3.66699 -20.667 -11 -36l-310 -652c-4 -8.66699 -9.33301 -13 -16 -13h-24c-6.66699 -0 -8 4.33301 -4 13l320 671h-385c-7.33301 0 -11 4 -11 12v16c0 6.66699 3.66699 10 11 10z" />
    <glyph glyph-name="eight" unicode="8" horiz-adv-x="576" 
d="M288 732c64 0 114.167 -15 150.5 -45s54.5 -73 54.5 -129c0 -82 -38.333 -133.667 -115 -155c17.333 -2.66699 34.5 -8 51.5 -16s34.5 -19.5 52.5 -34.5s32.5 -35.667 43.5 -62s16.5 -56.833 16.5 -91.5c0 -141.333 -84.667 -212 -254 -212s-254 70.667 -254 212
c0 34.667 5.5 65.167 16.5 91.5s25.333 47 43 62s35 26.5 52 34.5s34.167 13.333 51.5 16c-76 22 -114 73.667 -114 155c0 56 18.167 99 54.5 129s86.5 45 150.5 45zM74 199c0 -116 71.333 -174 214 -174s214 58 214 174c0 52.667 -16.667 96 -50 130s-84.333 52 -153 54
h-23c-68 -2 -118.667 -20 -152 -54s-50 -77.333 -50 -130zM288 694c-51.333 0 -91.667 -11.167 -121 -33.5s-44 -56.833 -44 -103.5c0 -47.333 14.833 -82.333 44.5 -105s69.834 -34 120.501 -34c48 0 87.5 11.5 118.5 34.5s46.5 58.167 46.5 105.5
c0 46 -14.833 80.167 -44.5 102.5s-69.834 33.5 -120.501 33.5z" />
    <glyph glyph-name="nine" unicode="9" horiz-adv-x="561" 
d="M273 733c40.667 0 76.166 -6.50195 106.499 -19.502s54.333 -29.667 72 -50s31.834 -45.5 42.501 -75.5s17.834 -59.833 21.501 -89.5s5.5 -62.5 5.5 -98.5c0 -143.333 -24.833 -247.666 -74.5 -312.999s-127.167 -98 -232.5 -98c-51.333 0 -104.333 8 -159 24
c-6 2 -9 5.66699 -9 11v18c0 8.66699 4.66699 11.334 14 8.00098c53.333 -15.333 104.666 -23 153.999 -23c93.333 0 161.333 29.333 204 88s64 150.334 64 275.001c-18 -49.333 -46.667 -84.833 -86 -106.5s-81.333 -32.5 -126 -32.5c-67.333 0 -123 21.667 -167 65
s-66 101.666 -66 174.999c0 70 20.667 127.833 62 173.5s99.333 68.5 174 68.5zM272.999 697.998c-62.667 0 -111 -19.001 -145 -57.001s-51 -87.333 -51 -148c0 -63.333 18.333 -113.666 55 -150.999s83.667 -56 141 -56c58 0 105.333 18.333 142 55s55 85 55 145
c0 65.333 -17.167 117 -51.5 155s-82.833 57 -145.5 57z" />
    <glyph glyph-name="colon" unicode=":" horiz-adv-x="250" 
d="M85 22c0 10.667 3.33301 19.5 10 26.5s14.667 10.5 24 10.5c8.66699 0 16.167 -3.16699 22.5 -9.5s9.5 -14.5 9.5 -24.5s-3.33301 -18.333 -10 -25s-15 -10 -25 -10c-9.33301 0 -16.833 2.83301 -22.5 8.5s-8.5 13.5 -8.5 23.5zM85 476c0 10.667 3.33301 19.5 10 26.5
s14.667 10.5 24 10.5c8.66699 0 16.167 -3.16699 22.5 -9.5s9.5 -14.5 9.5 -24.5s-3.33301 -18.333 -10 -25s-15 -10 -25 -10c-9.33301 0 -16.833 2.83301 -22.5 8.5s-8.5 13.5 -8.5 23.5z" />
    <glyph glyph-name="semicolon" unicode=";" horiz-adv-x="273" 
d="M114 23c0 11.333 3.33301 20.499 10 27.499s15 10.5 25 10.5c9.33301 0 17.166 -3.16699 23.499 -9.5s9.5 -14.833 9.5 -25.5v-3c-2 -52.667 -29.333 -104 -82 -154c-5.33301 -5.33301 -9.66602 -6.66602 -12.999 -3.99902l-9 8c-3.33301 3.33301 -1 8 7 14
c31.333 26.667 51.333 61 60 103c-20.667 1.33301 -31 12.333 -31 33zM112 475.999c0 10.667 3.33301 19.5 10 26.5s14.667 10.5 24 10.5c8.66699 0 16.167 -3.16699 22.5 -9.5s9.5 -14.5 9.5 -24.5s-3.33301 -18.333 -10 -25s-15 -10 -25 -10
c-9.33301 0 -16.833 2.83301 -22.5 8.5s-8.5 13.5 -8.5 23.5z" />
    <glyph glyph-name="less" unicode="&#x3c;" horiz-adv-x="577" 
d="M60 279l458 -207c6 -2.66699 9.66699 -5.33398 11 -8.00098s2 -9 2 -19c0 -7.33301 -1 -12.166 -3 -14.499s-5.5 -3 -10.5 -2s-13.5 4.16699 -25.5 9.5l-439 198c-16 6.66699 -24 17.667 -24 33v10h31zM518 485l-458.001 -205.999h-31v10c0 14.667 8 25.667 24 33
l439 197c16.667 8 27.334 11.667 32.001 11s7 -6.33398 7 -17.001c0 -10 -0.666992 -16.333 -2 -19s-5 -5.66699 -11 -9z" />
    <glyph glyph-name="equal" unicode="=" horiz-adv-x="526" 
d="M456 360h-389c-8.66699 0 -13 5.33301 -13 16c0 12.667 4 19 12 19h394c8 0 12 -5.33301 12 -16c0 -12.667 -5.33301 -19 -16 -19zM456 235h-389c-8.66699 0 -13 5.33301 -13 16c0 12.667 4 19 12 19h394c8 0 12 -5.33301 12 -16c0 -12.667 -5.33301 -19 -16 -19z" />
    <glyph glyph-name="greater" unicode="&#x3e;" horiz-adv-x="577" 
d="M516 279l-457 -207c-6 -2.66699 -9.66699 -5.33398 -11 -8.00098s-2 -9 -2 -19c0 -7.33301 1 -12.166 3 -14.499s5.5 -3 10.5 -2s13.5 4.16699 25.5 9.5l438 198c16.667 6.66699 25 17.667 25 33v10h-32zM516 279l-457.001 205.999c-6 3.33301 -9.66699 6.33301 -11 9
s-2 9 -2 19c0 10.667 2.33301 16.334 7 17.001s15.334 -3 32.001 -11l438 -197c16.667 -8 25 -19 25 -33v-10h-32z" />
    <glyph glyph-name="question" unicode="?" horiz-adv-x="459" 
d="M162 24c0 10 3.66797 18.002 11.001 24.002s15.666 9 24.999 9c10 0 18.333 -2.83301 25 -8.5s10 -13.834 10 -24.501s-3.5 -18.834 -10.5 -24.501s-15.5 -8.5 -25.5 -8.5c-23.333 0 -35 11 -35 33zM388.001 551.002c0 94.667 -57.666 142 -172.999 142
c-59.333 0 -116.333 -12.667 -171 -38c-8.66699 -4 -13 -1 -13 9v15c0 8 3.33301 13.333 10 16c53.333 24 113.333 36 180 36c70 0 122 -16 156 -48s51 -75.333 51 -130c0 -29.333 -5.16699 -57.333 -15.5 -84s-23.333 -49.5 -39 -68.5s-32.667 -38.333 -51 -58l-51 -53.5
c-15.667 -16 -28.667 -34.167 -39 -54.5s-15.5 -40.5 -15.5 -60.5v-20c0 -9.33301 -5 -14 -15 -14h-4c-8.66699 0 -14.334 2.16699 -17.001 6.5s-4 11.5 -4 21.5v10c0 26.667 7.16699 52.5 21.5 77.5s31.833 47.833 52.5 68.5l62.5 63.5c21 21.667 38.667 46.5 53 74.5
s21.5 57.667 21.5 89z" />
    <glyph glyph-name="at" unicode="@" horiz-adv-x="796" 
d="M764 398c0 -72.667 -16.334 -135.002 -49.001 -187.002s-72 -78 -118 -78c-24 0 -43.5 7.5 -58.5 22.5s-22.833 35.167 -23.5 60.5c-18 -25.333 -41.667 -45.5 -71 -60.5s-59.333 -22.5 -90 -22.5c-41.333 0 -76.166 14.167 -104.499 42.5s-42.5 69.5 -42.5 123.5
c0 68 21.5 127.833 64.5 179.5s99.167 77.5 168.5 77.5c49.333 0 85.166 -13.5 107.499 -40.5s34.166 -61.5 35.499 -103.5c0.666992 -34.667 -9 -81 -29 -139c-2.66699 -13.333 -4 -26.666 -4 -39.999c0 -43.333 16.333 -65 49 -65c34 0 64.167 23.333 90.5 70
s39.5 100.334 39.5 161.001c0 90.667 -30.667 161.834 -92 213.501s-135.333 77.5 -222 77.5c-100.667 0 -181.667 -34.667 -243 -104s-92 -153 -92 -251c0 -98.667 31.333 -177.834 94 -237.501s141.667 -89.5 237 -89.5c80.667 0 149.667 14.333 207 43
c12.667 6.66699 20.834 10 24.501 10s5.5 -3.66699 5.5 -11v-6c0 -10.667 -5.33301 -19 -16 -25c-18 -10.667 -48.5 -21 -91.5 -31s-86.167 -15 -129.5 -15c-108.667 0 -197.667 33.667 -267 101s-104 155.666 -104 264.999c0 110 34.833 201.833 104.5 275.5
s160.834 110.5 273.501 110.5c99.333 0 181.833 -29.167 247.5 -87.5s98.5 -138.166 98.5 -239.499zM352.999 167.998c48.667 0 92.501 22 131.501 66s58.5 99 58.5 165c0 81.333 -34.667 122 -104 122c-56.667 0 -102.834 -23.333 -138.501 -70s-53.5 -98.667 -53.5 -156
c0 -40.667 9.66699 -72 29 -94s45 -33 77 -33z" />
    <glyph glyph-name="A" unicode="A" horiz-adv-x="609" 
d="M529 12l-69.001 209.001h-303l-69 -209c-2.66699 -8 -8.66699 -12 -18 -12h-11c-10.667 0 -14.667 4.33301 -12 13l234 701c2 5.33301 5.33301 8 10 8h35c4.66699 0 8 -2.66699 10 -8l233 -701c1.33301 -4.66699 1.33301 -8 0 -10s-5 -3 -11 -3h-10
c-6.66699 0 -11.167 0.666992 -13.5 2s-4.16602 4.66602 -5.49902 9.99902zM307.999 679.001l-139 -420h278z" />
    <glyph glyph-name="B" unicode="B" horiz-adv-x="613" 
d="M500 552c0 -48.667 -9.66797 -86.667 -29.001 -114s-42 -44 -68 -50v-1c42.667 -8 77.334 -28.167 104.001 -60.5s40 -76.833 40 -133.5c0 -128.667 -76 -193 -228 -193h-193c-8.66699 0 -13 4 -13 12v698c0 8 4.33301 12 13 12h172c66.667 0 117 -13.333 151 -40
s51 -70 51 -130zM152.999 367l-0.000976562 -329.001h163c24.667 0 46.5 1.66699 65.5 5s38.833 9.83301 59.5 19.5s36.834 25.5 48.501 47.5s17.5 49.667 17.5 83c0 56.667 -17 99.834 -51 129.501s-80.333 44.5 -139 44.5h-164zM152.998 683.999v-280.001h167
c93.333 0 140 48.333 140 145c0 52.667 -13.833 88.334 -41.5 107.001s-68.167 28 -121.5 28h-144z" />
    <glyph glyph-name="C" unicode="C" horiz-adv-x="637" 
d="M112 349c0 -102 20.833 -181.166 62.5 -237.499s110.834 -84.5 207.501 -84.5c56 0 116.667 12 182 36c10.667 4 16 1.33301 16 -8v-15c0 -6 -3.66699 -11 -11 -15c-16 -8.66699 -41.333 -16.834 -76 -24.501s-72 -11.5 -112 -11.5c-106.667 0 -185 31.5 -235 94.5
s-75 150.5 -75 262.5c0 117.333 26.167 210.833 78.5 280.5s131.5 104.5 237.5 104.5c33.333 0 67.5 -3.33301 102.5 -10s61.5 -15.334 79.5 -26.001c7.33301 -4 11 -10.667 11 -20v-9c0 -10.667 -5 -13.667 -15 -9c-6 2.66699 -15.167 6.33398 -27.5 11.001
s-33.333 10 -63 16s-58.834 9 -87.501 9c-51.333 0 -95.333 -9 -132 -27s-65.167 -43.5 -85.5 -76.5s-35 -69.167 -44 -108.5s-13.5 -83.333 -13.5 -132z" />
    <glyph glyph-name="D" unicode="D" horiz-adv-x="697" 
d="M113 710c0 8 4.33398 11.999 13.001 11.999h119c129.333 0 225.166 -30 287.499 -90s93.5 -150.667 93.5 -272s-31 -211.666 -93 -270.999s-157.667 -89 -287 -89h-120c-8.66699 0 -13 4 -13 12v698zM245.001 683.999h-92v-646h92c118.667 0 205.167 25.833 259.5 77.5
s81.5 133.167 81.5 244.5c0 112 -27.333 194 -82 246s-141 78 -259 78z" />
    <glyph glyph-name="E" unicode="E" 
d="M113 710c0 8 4.33301 12 13 12h337c8 0 12 -4.33301 12 -13v-12c0 -8.66699 -4 -13 -12 -13h-310v-291h265c8 0 12 -4.33301 12 -13v-12c0 -8.66699 -4 -13 -12 -13h-265v-317h335c8 0 12 -4.33301 12 -13v-12c0 -8.66699 -4 -13 -12 -13h-362c-8.66699 0 -13 4 -13 12
v698z" />
    <glyph glyph-name="F" unicode="F" horiz-adv-x="526" 
d="M113 710c0 8 4.33301 12 13 12h347c8 0 12 -4.33301 12 -13v-12c0 -8.66699 -4 -13 -12 -13h-320v-308h215c8 0 12 -4.33301 12 -13v-12c0 -8.66699 -4 -13 -12 -13h-215v-326c0 -8 -4.33301 -12 -13 -12h-14c-8.66699 0 -13 4 -13 12v698z" />
    <glyph glyph-name="G" unicode="G" horiz-adv-x="722" 
d="M428 312v19.999c0 6 3.33301 9 10 9h185c10 0 15 -4.33301 15 -13v-279c0 -8.66699 -3.66699 -15 -11 -19c-18.667 -10 -47.834 -19.667 -87.501 -29s-82.5 -14 -128.5 -14c-103.333 0 -186.166 30.5 -248.499 91.5s-93.5 151.833 -93.5 272.5
c0 115.333 29.5 207.5 88.5 276.5s143.833 103.5 254.5 103.5c48 0 92.5 -5.83301 133.5 -17.5s68.833 -23.167 83.5 -34.5c6 -4.66699 9 -11 9 -19v-11c0 -12 -6.66699 -14.333 -20 -7c-61.333 34 -128.666 51 -201.999 51c-102.667 0 -179.5 -31.667 -230.5 -95
s-76.5 -145.666 -76.5 -246.999c0 -104.667 26.5 -185.167 79.5 -241.5s127.167 -84.5 222.5 -84.5c63.333 0 125.666 11.667 186.999 35v243h-160c-6.66699 0 -10 3 -10 9z" />
    <glyph glyph-name="H" unicode="H" horiz-adv-x="679" 
d="M152 378h373v332c0 8 4.33301 12 13 12h14c8.66699 0 13 -4 13 -12v-698c0 -8 -4.33301 -12 -13 -12h-14c-8.66699 0 -13 4 -13 12v328h-373v-328c0 -8 -4.33301 -12 -13 -12h-14c-8.66699 0 -13 4 -13 12v698c0 8 4.33301 12 13 12h14c8.66699 0 13 -4 13 -12v-332z" />
    <glyph glyph-name="I" unicode="I" horiz-adv-x="266" 
d="M113 710c0 8 4.33301 12 13 12h14c8.66699 0 13 -4 13 -12v-698c0 -8 -4.33301 -12 -13 -12h-14c-8.66699 0 -13 4 -13 12v698z" />
    <glyph glyph-name="J" unicode="J" horiz-adv-x="456" 
d="M32 20v17c0 8 3.33301 11 10 9c47.333 -11.333 90 -17 128 -17c92.667 0 139 55.333 139 166v515c0 8 4.33301 12 13 12h14c8.66699 0 13 -4 13 -12v-519c0 -133.333 -59 -200 -177 -200c-50.667 0 -94 5 -130 15c-6.66699 1.33301 -10 6 -10 14z" />
    <glyph glyph-name="K" unicode="K" horiz-adv-x="626" 
d="M267 382l-14 0.00195312l-101 -115v-255c0 -8 -4.33301 -12 -13 -12h-14c-8.66699 0 -13 4 -13 12v698c0 8 4.33301 12 13 12h14c8.66699 0 13 -4 13 -12v-387l341 388c6.66699 7.33301 13.334 11 20.001 11h23c3.33301 0 5.83301 -1.16699 7.5 -3.5
s0.833984 -5.5 -2.49902 -9.5l-257 -292c20 0 38.5 -4 55.5 -12s32.167 -19.833 45.5 -35.5s25.166 -31.334 35.499 -47.001s20.333 -35.834 30 -60.501s17.334 -45.167 23.001 -61.5s12.5 -37.5 20.5 -63.5s13.667 -44 17 -54c10.667 -34 26.667 -51 48 -51
c8 0 20.667 2.66699 38 8c10.667 4.66699 16 2 16 -8v-8c0 -6 -0.833008 -10 -2.5 -12s-6.5 -4.66699 -14.5 -8c-12.667 -4.66699 -24 -7 -34 -7c-12.667 0 -23.5 1.33301 -32.5 4s-19 10.167 -30 22.5s-20.5 30.166 -28.5 53.499c-4.66699 12.667 -10.834 32 -18.501 58
l-20 67.5c-5.66699 19 -14 40.5 -25 64.5s-22.333 43.833 -34 59.5s-26.834 28.834 -45.501 39.501s-39 16 -61 16z" />
    <glyph glyph-name="L" unicode="L" horiz-adv-x="541" 
d="M113 710c0 8 4.33301 12 13 12h14c8.66699 0 13 -4 13 -12v-672h345c8 0 12 -4.33301 12 -13v-12c0 -8.66699 -4 -13 -12 -13h-375c-6.66699 0 -10 4 -10 12v698z" />
    <glyph glyph-name="M" unicode="M" horiz-adv-x="876" 
d="M178 714l260 -680l260 680c2 5.33301 5.66699 8 11 8h44c6.66699 0 10 -3.33301 10 -10v-700c0 -8 -4.33301 -12 -13 -12h-13c-8.66699 0 -13 4 -13 12v554c0 60 1.33301 102 4 126c-14 -44 -24.667 -75.333 -32 -94l-223 -584c-2.66699 -6 -5 -9.83301 -7 -11.5
s-7 -2.5 -15 -2.5h-26c-8 -0 -13.167 0.833008 -15.5 2.5s-4.5 5.5 -6.5 11.5l-223 584c-7.33301 18.667 -18 50 -32 94c2.66699 -24 4 -66 4 -126v-554c0 -8 -4.33301 -12 -13 -12h-13c-8.66699 0 -13 4 -13 12v700c0 6.66699 3.33301 10 10 10h44
c5.33301 0 9 -2.66699 11 -8z" />
    <glyph glyph-name="N" unicode="N" horiz-adv-x="708" 
d="M578 0h-11c-8 0 -15.333 5 -22 15l-362 586c-19.333 32 -31 55.333 -35 70c3.33301 -25.333 5 -49.333 5 -72v-587c0 -8 -4.33301 -12 -13 -12h-14c-8.66699 0 -13 4 -13 12v698c0 5.33301 1 8.66602 3 9.99902s6.66699 2 14 2h11c8 0 15.333 -5 22 -15l373 -608
c16 -26.667 25.667 -45 29 -55c-6.66699 28 -10 58 -10 90v576c0 8 4.33301 12 13 12h14c8.66699 0 13 -4 13 -12v-698c0 -5.33301 -1 -8.66602 -3 -9.99902s-6.66699 -2 -14 -2z" />
    <glyph glyph-name="O" unicode="O" horiz-adv-x="802" 
d="M69 356c0 37.333 3.16602 72.999 9.49902 106.999s17.333 67.667 33 101s35.667 62.333 60 87s56 44.5 95 59.5s83.5 22.5 133.5 22.5c59.333 0 111.333 -10.333 156 -31s79.334 -48.834 104.001 -84.501s43 -74.667 55 -117s18 -87.833 18 -136.5
c0 -36.667 -3 -72 -9 -106s-17 -67.833 -33 -101.5s-36 -62.667 -60 -87s-55.667 -44.166 -95 -59.499s-84 -23 -134 -23c-60 0 -112.167 10.333 -156.5 31s-79 48.834 -104 84.501s-43.333 74.667 -55 117s-17.5 87.833 -17.5 136.5zM398.999 697.999
c-43.333 0 -82.333 -6.83594 -117 -20.5029s-62.5 -31.5 -83.5 -53.5s-38.5 -48 -52.5 -78s-23.667 -60 -29 -90s-8 -61.333 -8 -94c0 -41.333 4.83301 -80.833 14.5 -118.5s25 -73.667 46 -108s51.667 -61.833 92 -82.5s87.833 -31 142.5 -31
c45.333 0 85.5 7.33301 120.5 22s62.833 33.167 83.5 55.5s37.667 49 51 80s22.333 60.833 27 89.5s7 58.334 7 89.001c0 32 -2.66699 62.833 -8 92.5s-15 59.834 -29 90.501s-31.667 57.334 -53 80.001s-49.5 41.167 -84.5 55.5s-74.833 21.5 -119.5 21.5z" />
    <glyph glyph-name="P" unicode="P" horiz-adv-x="571" 
d="M259 269l-106 -0.000976562v-257c0 -8 -4.33301 -12 -13 -12h-14c-8.66699 0 -13 4 -13 12v698c0 8 4.33301 12 13 12h115c90.667 0 158.5 -17.5 203.5 -52.5s67.5 -91.5 67.5 -169.5c0 -75.333 -22.5 -132.666 -67.5 -171.999s-106.833 -59 -185.5 -59zM153 306.999h102
c144.667 0 217 64.333 217 193c0 67.333 -17.833 114.833 -53.5 142.5s-92.5 41.5 -170.5 41.5h-95v-377z" />
    <glyph glyph-name="Q" unicode="Q" horiz-adv-x="802" 
d="M69 356c0 37.333 3.16406 73.002 9.49707 107.002s17.333 67.667 33 101s35.667 62.333 60 87s56 44.5 95 59.5s83.5 22.5 133.5 22.5c59.333 0 111.333 -10.333 156 -31s79.334 -48.834 104.001 -84.501s43 -74.667 55 -117s18 -87.833 18 -136.5
c0 -38 -3.5 -74.5 -10.5 -109.5s-18.167 -69.5 -33.5 -103.5s-37.166 -63.833 -65.499 -89.5s-62.166 -44.834 -101.499 -57.501c22 -8 46.667 -22 74 -42c61.333 -44.667 105.333 -67 132 -67c20.667 0 40.667 4.33301 60 13c11.333 4.66699 17 2.66699 17 -6v-14
c0 -6.66699 -5.33301 -12.334 -16 -17.001c-17.333 -7.33301 -37.666 -11 -60.999 -11c-42.667 0 -92.334 22 -149.001 66c-34.667 26.667 -63.5 43.5 -86.5 50.5s-53.167 10.5 -90.5 10.5c-60 0 -112.167 10.333 -156.5 31s-79 48.834 -104 84.501s-43.333 74.667 -55 117
s-17.5 87.833 -17.5 136.5zM398.997 698.002c-43.333 0 -82.333 -6.83594 -117 -20.5029s-62.5 -31.5 -83.5 -53.5s-38.5 -48 -52.5 -78s-23.667 -60 -29 -90s-8 -61.333 -8 -94c0 -41.333 4.83301 -80.833 14.5 -118.5s25 -73.667 46 -108s51.667 -61.833 92 -82.5
s87.833 -31 142.5 -31c45.333 0 85.5 7.33301 120.5 22s62.833 33.167 83.5 55.5s37.667 49 51 80s22.333 60.833 27 89.5s7 58.334 7 89.001c0 32 -2.66699 62.833 -8 92.5s-15 59.834 -29 90.501s-31.667 57.334 -53 80.001s-49.5 41.167 -84.5 55.5
s-74.833 21.5 -119.5 21.5z" />
    <glyph glyph-name="R" unicode="R" horiz-adv-x="623" 
d="M256 292l-104 -0.000976562v-280c0 -8 -4.33301 -12 -13 -12h-14c-8.66699 0 -13 4 -13 12v698c0 8 4.33301 12 13 12h123c169.333 0 254 -70.667 254 -212c0 -117.333 -54 -187.666 -162 -210.999c26 -12.667 48.5 -34.334 67.5 -65.001s44.167 -81.667 75.5 -153
c8.66699 -19.333 17.167 -32.166 25.5 -38.499s19.5 -9.5 33.5 -9.5c17.333 0 34.666 5 51.999 15c9.33301 5.33301 14 3.33301 14 -6v-13c0 -8.66699 -6.33301 -16 -19 -22c-15.333 -7.33301 -31 -11 -47 -11c-20.667 0 -38.667 5 -54 15s-30 31.667 -44 65l-14 34.5
c-8 19.667 -14 33.667 -18 42l-19.5 39c-9 17.667 -17.667 31 -26 40s-18.166 19 -29.499 30s-23.833 18.833 -37.5 23.5s-28.167 7 -43.5 7zM152 329.999l111 -0.000976562c66.667 0 116.167 14 148.5 42s48.5 74 48.5 138c0 60.667 -17 104.834 -51 132.501
s-85.333 41.5 -154 41.5h-103v-354z" />
    <glyph glyph-name="S" unicode="S" 
d="M465 687l0.00390625 -14.0029c0 -10 -6 -12.667 -18 -8c-46.667 19.333 -101.667 29 -165 29c-54 0 -95.167 -9.5 -123.5 -28.5s-42.5 -51.5 -42.5 -97.5c0 -29.333 6.83301 -53.666 20.5 -72.999s31.5 -34 53.5 -44s46.167 -18.833 72.5 -26.5
s52.666 -16.5 78.999 -26.5s50.5 -22.5 72.5 -37.5s39.833 -37.167 53.5 -66.5s20.5 -64.666 20.5 -105.999c0 -131.333 -74.667 -197 -224 -197c-80 0 -144.333 13 -193 39c-6.66699 3.33301 -10 9 -10 17v16c0 8.66699 4.33301 11.334 13 8.00098
c58.667 -28 122 -42 190 -42c57.333 0 102.333 11.5 135 34.5s49 63.5 49 121.5c0 37.333 -6.83301 68.833 -20.5 94.5s-31.334 45.167 -53.001 58.5s-45.667 24.5 -72 33.5l-79.5 26c-26.667 8.33301 -50.834 18.5 -72.501 30.5s-39.334 29.333 -53.001 52
s-20.5 51 -20.5 85c0 111.333 68.333 167 205 167c72 0 130 -10 174 -30c6 -2.66699 9 -7.66699 9 -15z" />
    <glyph glyph-name="T" unicode="T" horiz-adv-x="546" 
d="M253 684h-211c-8 0 -12 4.33301 -12 13v12c0 8.66699 4 13 12 13h462c8 0 12 -4.33301 12 -13v-12c0 -8.66699 -4 -13 -12 -13h-211v-672c0 -8 -4.33301 -12 -13 -12h-14c-8.66699 0 -13 4 -13 12v672z" />
    <glyph glyph-name="U" unicode="U" horiz-adv-x="696" 
d="M348 32c69.333 0 120.502 19.833 153.502 59.5s49.5 100.834 49.5 183.501v435c0 8 4.33301 12 13 12h14c8.66699 0 13 -4 13 -12v-437c0 -90.667 -18.833 -160 -56.5 -208s-99.834 -72 -186.501 -72s-148.834 24 -186.501 72s-56.5 117.333 -56.5 208v437
c0 8 4.33301 12 13 12h14c8.66699 0 13 -4 13 -12v-435c0 -82.667 16.5 -143.834 49.5 -183.501s84.167 -59.5 153.5 -59.5z" />
    <glyph glyph-name="V" unicode="V" horiz-adv-x="594" 
d="M302 43l208.996 667c2.66699 8 8.33398 12 17.001 12h15c8.66699 0 11.334 -5.33301 8.00098 -16l-220 -696c-1.33301 -6.66699 -7 -10 -17 -10h-24c-10 -0 -15.667 3.33301 -17 10l-220 696c-3.33301 10.667 -0.666016 16 8.00098 16h15c8.66699 0 14.334 -4 17.001 -12
z" />
    <glyph glyph-name="W" unicode="W" horiz-adv-x="882" 
d="M452 722c8 0 12.666 -4.00098 13.999 -12.001l165 -673l166 673c1.33301 8 6.33301 12 15 12h16c10 0 13.667 -4.33301 11 -13l-177 -697c-2 -8 -7.33301 -12 -16 -12h-27c-9.33301 0 -14.666 4 -15.999 12l-159 649l-159 -649
c-1.33301 -5.33301 -3 -8.66602 -5 -9.99902s-5.66699 -2 -11 -2h-27c-8.66699 0 -14 4 -16 12l-177 697c-2.66699 8.66699 1 13 11 13h16c8.66699 0 13.667 -4 15 -12l166 -673l164 673c1.33301 8 6.33301 12 15 12h16z" />
    <glyph glyph-name="X" unicode="X" horiz-adv-x="584" 
d="M319 365l225.999 -348c7.33301 -11.333 5.33301 -17 -6 -17h-20c-8 0 -13.667 2.66699 -17 8l-205 319l-206 -319c-4 -5.33301 -10.333 -8 -19 -8h-19c-4.66699 -0 -7.5 1.83301 -8.5 5.5s-0.166992 7.5 2.5 11.5l227 348l-224 340
c-7.33301 11.333 -5.66602 17 5.00098 17h17c8.66699 0 15.667 -3.66699 21 -11l202 -308l205 308c4.66699 7.33301 11 11 19 11h18c11.333 0 13.333 -5.66699 6 -17z" />
    <glyph glyph-name="Y" unicode="Y" horiz-adv-x="573" 
d="M275 294l-227.002 412c-5.33301 10.667 -3.33301 16 6 16h18c6 0 9.83301 -0.666992 11.5 -2s3.83398 -4.66602 6.50098 -9.99902l204 -372l205 372c2.66699 5.33301 4.83398 8.66602 6.50098 9.99902s5.16699 2 10.5 2h19c9.33301 0 11.333 -5.33301 6 -16l-227 -412
v-282c0 -8 -4.33301 -12 -13 -12h-13c-8.66699 0 -13 4 -13 12v282z" />
    <glyph glyph-name="Z" unicode="Z" horiz-adv-x="503" 
d="M69 684c-7.33301 0 -11 4.33398 -11 13.001v12c0 8.66699 3.66699 13 11 13h370c8.66699 0 13 -4 13 -12v-9c0 -12 -3.33301 -24 -10 -36l-349 -627h345c4.66699 0 7.66699 -0.833008 9 -2.5s2 -5.16699 2 -10.5v-12c0 -5.33301 -0.666992 -8.83301 -2 -10.5
s-4.33301 -2.5 -9 -2.5h-377c-8.66699 0 -13 5 -13 15v10c0 9.33301 1.33301 15.666 4 18.999l353 640h-336z" />
    <glyph glyph-name="bracketleft" unicode="[" horiz-adv-x="268" 
d="M119 747l80 -0.00195312c12 0 18 -4 18 -12v-6c0 -7.33301 -1.16699 -12 -3.5 -14s-6.5 -3 -12.5 -3h-71v-836h71c10.667 0 16 -5.33301 16 -16v-6c0 -8.66699 -6 -13 -18 -13h-80c-10.667 0 -18.167 2.33301 -22.5 7s-6.5 13.334 -6.5 26.001v840
c0 12.667 2.16699 21.334 6.5 26.001s11.833 7 22.5 7z" />
    <glyph glyph-name="backslash" unicode="\" horiz-adv-x="393" 
d="M90 705l294.001 -684c5.33301 -14 3.33301 -21 -6 -21h-14c-6 0 -9.83301 0.666992 -11.5 2s-3.83398 5.33301 -6.50098 12l-297 686c-6.66699 14.667 -6 22 2 22h22c4 0 7 -1 9 -3s4.66699 -6.66699 8 -14z" />
    <glyph glyph-name="bracketright" unicode="]" horiz-adv-x="268" 
d="M79 747l70 0.00195312c10.667 0 18.167 -2.33301 22.5 -7s6.5 -13.334 6.5 -26.001v-840c0 -12.667 -2.16699 -21.334 -6.5 -26.001s-11.833 -7 -22.5 -7h-70c-18.667 0 -28 4.33301 -28 13v6c0 10.667 8.66699 16 26 16h61v836h-61c-10.667 0 -17.667 1 -21 3
s-5 6.66699 -5 14v6c0 8 9.33301 12 28 12z" />
    <glyph glyph-name="asciicircum" unicode="^" horiz-adv-x="530" 
d="M268 701l-182 -267.001c-1.33301 -1.33301 -2.66602 -3.16602 -3.99902 -5.49902s-2.5 -4 -3.5 -5s-2 -2.33301 -3 -4s-2 -2.83398 -3 -3.50098l-3 -2c-1 -0.666992 -2.16699 -1.16699 -3.5 -1.5s-3 -0.666016 -5 -0.999023s-4 -0.5 -6 -0.5
c-8.66699 0 -14.334 2.33301 -17.001 7s-1.33398 11.667 3.99902 21l197 296c4.66699 10.667 14.334 16 29.001 16v-50zM268 700.999l182.002 -267.001c1.33301 -1.33301 2.66602 -3.16602 3.99902 -5.49902s2.5 -4 3.5 -5s2 -2.33301 3 -4s2 -2.83398 3 -3.50098l3 -2
c1 -0.666992 2.16699 -1.16699 3.5 -1.5s3 -0.666016 5 -0.999023s4 -0.5 6 -0.5c8.66699 0 14.167 2.33301 16.5 7s0.833008 11.667 -4.5 21l-196 296c-4.66699 10.667 -14.334 16 -29.001 16v-50z" />
    <glyph glyph-name="underscore" unicode="_" horiz-adv-x="863" 
d="M774 -59h-689c-8.66699 0 -13 6.33301 -13 19c0 13.333 7.33301 20 22 20h684c8 0 12 -6 12 -18c0 -8 -1 -13.5 -3 -16.5s-6.33301 -4.5 -13 -4.5z" />
    <glyph glyph-name="grave" unicode="`" horiz-adv-x="273" 
d="M236 640l-2 -5.99902c-2.66699 -4.66699 -10.667 -4.66699 -24 0l-153 57c-9.33301 4 -12 10.333 -8 19l7 13c4 7.33301 10.667 8.66602 20 3.99902l153 -70c8.66699 -4 11 -9.66699 7 -17z" />
    <glyph glyph-name="a" unicode="a" horiz-adv-x="545" 
d="M437 361l-0.00195312 -286.999c0 -26.667 10.667 -40 32 -40c9.33301 0 22 2 38 6c5.33301 2 9.33301 2.5 12 1.5s4 -4.16699 4 -9.5v-14c0 -7.33301 -4 -12.333 -12 -15c-16.667 -4.66699 -32 -7 -46 -7c-45.333 0 -68 25 -68 75v16c-39.333 -62 -101.333 -93 -186 -93
c-51.333 0 -90.166 11.833 -116.499 35.5s-39.5 57.834 -39.5 102.501c0 58.667 23 101.5 69 128.5s117 40.5 213 40.5h60v60c0 56.667 -12.333 95 -37 115s-62 30 -112 30c-50.667 0 -99 -7.66699 -145 -23c-9.33301 -3.33301 -14 -0.333008 -14 9v15
c0 4.66699 0.666992 7.66699 2 9s5.33301 3.33301 12 6c40 14.667 88.333 22 145 22c26.667 0 49.667 -2.16699 69 -6.5s38.833 -12.333 58.5 -24s34.834 -30.334 45.501 -56.001s16 -57.834 16 -96.501zM94.998 132.001c0 -66.667 38.666 -100 115.999 -100
c54.667 0 99.334 16 134.001 48s52 76.667 52 134v49h-60c-84 0 -145.333 -10.5 -184 -31.5s-58 -54.167 -58 -99.5z" />
    <glyph glyph-name="b" unicode="b" horiz-adv-x="573" 
d="M91 33v717.999c0 8 4.33301 12 13 12h14c8.66699 0 13 -4 13 -12v-343c32 90.667 91.333 136 178 136c64 0 113 -22.667 147 -68s51 -112.666 51 -201.999c0 -191.333 -77.333 -287 -232 -287c-66 0 -122.667 8.33301 -170 25c-9.33301 3.33301 -14 10.333 -14 21z
M306 505.999c-102 0 -160.332 -78.333 -174.999 -235v-226c43.333 -13.333 89.666 -20 138.999 -20c130 0 195 83 195 249c0 154.667 -53 232 -159 232z" />
    <glyph glyph-name="c" unicode="c" horiz-adv-x="509" 
d="M107 268c0 -158.667 63.3311 -237.999 189.998 -237.999c41.333 0 87 9.66699 137 29c10.667 4 16 1.66699 16 -7v-13c0 -8.66699 -3 -14.667 -9 -18c-34.667 -19.333 -82 -29 -142 -29c-80 0 -139 24.5 -177 73.5s-57 116.167 -57 201.5c0 86.667 19.333 154.5 58 203.5
s98.334 73.5 179.001 73.5c56.667 0 101.667 -10 135 -30c8.66699 -5.33301 13 -11 13 -17v-18c0 -8 -4 -10.333 -12 -7c-0.666992 0 -4.66699 2 -12 6s-14.166 7.16699 -20.499 9.5s-14.833 5.16602 -25.5 8.49902s-22.5 5.83301 -35.5 7.5s-26.833 2.5 -41.5 2.5
c-130.667 0 -196 -79.333 -196 -238z" />
    <glyph glyph-name="d" unicode="d" horiz-adv-x="575" 
d="M482 113l5.00098 -99c0.666992 -9.33301 -2.33301 -14 -9 -14h-18c-7.33301 -0 -11.333 5.33301 -12 16l-6 100v7c-10 -41.333 -31.5 -74.333 -64.5 -99s-72.5 -37 -118.5 -37c-61.333 0 -109 22.5 -143 67.5s-51 108.167 -51 189.5c0 88 20.167 160 60.5 216
s99.5 84 177.5 84c55.333 0 101.666 -15 138.999 -45v252c0 8 4.33301 12 13 12h14c8.66699 0 13 -4 13 -12v-638zM265.001 25c103.333 0 162.334 78.335 177.001 235.002v196c-34.667 33.333 -81.334 50 -140.001 50c-35.333 0 -66.333 -7.66699 -93 -23
s-47.167 -36 -61.5 -62s-25 -53.833 -32 -83.5s-10.5 -60.834 -10.5 -93.501c0 -62.667 12.833 -114.834 38.5 -156.501s66.167 -62.5 121.5 -62.5z" />
    <glyph glyph-name="e" unicode="e" horiz-adv-x="549" 
d="M289 544c62 0 109.5 -14.502 142.5 -43.502s49.5 -70.167 49.5 -123.5s-16.833 -94.5 -50.5 -123.5s-84.834 -43.5 -153.501 -43.5c-66 0 -123.333 11 -172 33c2 -77.333 19.667 -132.166 53 -164.499s82.333 -48.5 147 -48.5c49.333 0 94 8.33301 134 25
c24.667 10.667 37.334 16 38.001 16c4.66699 0 7 -2.33301 7 -7v-22c0 -6 -6.66699 -12 -20 -18c-46 -21.333 -99.333 -32 -160 -32c-159.333 0 -239 89 -239 267c0 88.667 19.333 158.334 58 209.001s94 76 166 76zM289 505.998c-57.333 0 -101.5 -19.5 -132.5 -58.5
s-48.167 -94.833 -51.5 -167.5c54.667 -21.333 112 -32 172 -32c109.333 0 164 43.667 164 131c0 84.667 -50.667 127 -152 127z" />
    <glyph glyph-name="f" unicode="f" horiz-adv-x="347" 
d="M124 494h-77c-4.66699 0 -7.66699 0.666992 -9 2s-2 4 -2 8v17c0 7.33301 3.66699 11 11 11h77v87c0 54 10 93.167 30 117.5s50.667 36.5 92 36.5c26 0 47.667 -4.33301 65 -13c7.33301 -3.33301 11 -8.66602 11 -15.999v-14c0 -8.66699 -4 -11.334 -12 -8.00098
c-16 8.66699 -37 13 -63 13c-27.333 0 -48 -8.5 -62 -25.5s-21 -44.833 -21 -83.5v-94h143c7.33301 0 11 -3 11 -9v-19c0 -6.66699 -3.33301 -10 -10 -10h-144v-482c0 -8 -4.33301 -12 -13 -12h-14c-8.66699 0 -13 4 -13 12v482z" />
    <glyph glyph-name="g" unicode="g" horiz-adv-x="574" 
d="M251 -211c63.333 0 111.001 15.667 143.001 47s48 81.333 48 150v129c-11.333 -38.667 -33.5 -69.667 -66.5 -93s-71.833 -35 -116.5 -35c-61.333 0 -109 22.5 -143 67.5s-51 108.167 -51 189.5c0 77.333 15.833 142.833 47.5 196.5s78.167 86.5 139.5 98.5
c18 3.33301 35 5 51 5c55.333 0 101.666 -15 138.999 -45v21c0 8 4.33301 12 13 12h14c8.66699 0 13 -4 13 -12v-532c0 -158 -77.667 -237 -233 -237c-50.667 0 -101 8 -151 24c-7.33301 2.66699 -11 7 -11 13v21c0 6 3.33301 7.66699 10 5c50.667 -16.667 102 -25 154 -25z
M265.001 25c103.333 0 162.334 78.335 177.001 235.002v196c-34.667 33.333 -81.334 50 -140.001 50c-35.333 0 -66.333 -7.66699 -93 -23s-47.167 -36 -61.5 -62s-25 -53.833 -32 -83.5s-10.5 -60.834 -10.5 -93.501c0 -62.667 12.833 -114.834 38.5 -156.501
s66.167 -62.5 121.5 -62.5z" />
    <glyph glyph-name="h" unicode="h" horiz-adv-x="556" 
d="M92 751c0 8 4.33203 12 12.999 12h14c8.66699 0 13 -4 13 -12v-316c14.667 36.667 37 64 67 82s63.667 27 101 27c50.667 0 91.334 -16.167 122.001 -48.5s46 -77.833 46 -136.5v-347c0 -8 -4.33301 -12 -13 -12h-14c-8.66699 0 -13 4 -13 12v337
c0 104.667 -44.333 157 -133 157c-50 0 -89.333 -18.5 -118 -55.5s-43.667 -89.167 -45 -156.5v-282c0 -8 -4.33301 -12 -13 -12h-14c-8.66699 0 -13 4 -13 12v739z" />
    <glyph glyph-name="i" unicode="i" horiz-adv-x="224" 
d="M92 520c0 8 4.33301 12 13 12h14c8.66699 0 13 -4 13 -12v-508c0 -8 -4.33301 -12 -13 -12h-14c-8.66699 0 -13 4 -13 12v508zM81 713c0 24 10.665 36.001 31.998 36.001c8.66699 0 15.834 -3.16699 21.501 -9.5s8.5 -14.166 8.5 -23.499
c0 -10.667 -3.16699 -18.834 -9.5 -24.501s-14.166 -8.5 -23.499 -8.5c-8 0 -14.833 2.66699 -20.5 8s-8.5 12.666 -8.5 21.999z" />
    <glyph glyph-name="j" unicode="j" horiz-adv-x="224" 
d="M-39 -226l0.00195312 17c0 7.33301 4 10 12 8c23.333 -6.66699 42.666 -10 57.999 -10c40.667 0 61 31.333 61 94v637c0 8 4.33301 12 13 12h14c8.66699 0 13 -4 13 -12v-641c0 -85.333 -33.667 -128 -101 -128c-24.667 0 -45.334 3.33301 -62.001 10
c-5.33301 2 -8 6.33301 -8 13zM81.002 713c0 24 10.665 36.001 31.998 36.001c8.66699 0 15.834 -3.16699 21.501 -9.5s8.5 -14.166 8.5 -23.499c0 -10.667 -3.16699 -18.834 -9.5 -24.501s-14.166 -8.5 -23.499 -8.5c-8 0 -14.833 2.66699 -20.5 8s-8.5 12.666 -8.5 21.999
z" />
    <glyph glyph-name="k" unicode="k" horiz-adv-x="480" 
d="M432 514l-254.999 -234.999l261 -266c7.33301 -8.66699 5 -13 -7 -13h-17c-10 0 -18.333 2.66699 -25 8l-257 264v-260c0 -2.66699 -0.333008 -4.66699 -1 -6c-0.666992 -2.66699 -2.66699 -4.66699 -6 -6h-20c-4.66699 0 -7.66699 0.333008 -9 1
c-1.33301 0 -2 0.666992 -2 2c-1.33301 1.33301 -2 3 -2 5v748l2 4l1 1c0.666992 0 1 0.333008 1 1h2c1.33301 0.666992 3.66602 1 6.99902 1h14c4 0 6.66699 -0.333008 8 -1c3.33301 -1.33301 5 -5 5 -11v-464l256 235c6.66699 6.66699 14.667 10 24 10h20
c2.66699 0 4.66699 -0.833008 6 -2.5s1.5 -3.83398 0.5 -6.50098s-3.16699 -5.66699 -6.5 -9z" />
    <glyph glyph-name="l" unicode="l" horiz-adv-x="224" 
d="M132 751v-739c0 -8 -4.33301 -12 -13 -12h-14c-8.66699 0 -13 4 -13 12v739c0 8 4.33301 12 13 12h14c8.66699 0 13 -4 13 -12z" />
    <glyph glyph-name="m" unicode="m" horiz-adv-x="858" 
d="M288 504c-104 0 -156 -60 -156 -180v-312c0 -8 -4.33301 -12 -13 -12h-14c-8.66699 0 -13 4 -13 12v508c0 8 4.33301 12 13 12h14c8.66699 0 13 -4 13 -12v-72c30 64 82.667 96 158 96c36 0 67 -8.66699 93 -26s44.667 -42 56 -74c32 66.667 88.667 100 170 100
c48.667 0 87.667 -15.333 117 -46s44 -73.667 44 -129v-357c0 -8 -4.33301 -12 -13 -12h-14c-8.66699 0 -13 4 -13 12v347c0 45.333 -10 80.833 -30 106.5s-51 38.5 -93 38.5c-104 0 -156 -60 -156 -180v-312c0 -8 -4.33301 -12 -13 -12h-14c-8.66699 0 -13 4 -13 12v347
c0 45.333 -10 80.833 -30 106.5s-51 38.5 -93 38.5z" />
    <glyph glyph-name="n" unicode="n" horiz-adv-x="556" 
d="M295 506c-51.333 0 -91.334 -19.5 -120.001 -58.5s-43 -93.5 -43 -163.5v-272c0 -8 -4.33301 -12 -13 -12h-14c-8.66699 0 -13 4 -13 12v508c0 8 4.33301 12 13 12h14c8.66699 0 13 -4 13 -12v-85c14.667 36.667 37 64 67 82s63.667 27 101 27
c50.667 0 91.334 -16.167 122.001 -48.5s46 -77.833 46 -136.5v-347c0 -8 -4.33301 -12 -13 -12h-14c-8.66699 0 -13 4 -13 12v337c0 104.667 -44.333 157 -133 157z" />
    <glyph glyph-name="o" unicode="o" horiz-adv-x="568" 
d="M66 266c0 85.333 17.5 153.002 52.5 203.002s90.167 75 165.5 75c74.667 0 129.667 -25 165 -75s53 -117.667 53 -203c0 -84.667 -17.667 -152.334 -53 -203.001s-90.333 -76 -165 -76c-75.333 0 -130.5 25.167 -165.5 75.5s-52.5 118.166 -52.5 203.499zM284 506.002
c-118.667 0 -178 -80 -178 -240c0 -160.667 59.333 -241 178 -241s178 80.333 178 241c0 160 -59.333 240 -178 240z" />
    <glyph glyph-name="p" unicode="p" horiz-adv-x="575" 
d="M132 398c11.333 48.667 33.5 85.167 66.5 109.5s72.833 36.5 119.5 36.5c126.667 0 190 -90.333 190 -271c0 -190.667 -74.333 -286 -223 -286c-49.333 0 -100.333 14.333 -153 43v-267c0 -8 -4.33301 -12 -13 -12h-14c-8.66699 0 -13 4 -13 12v757c0 8 4.33301 12 13 12
h14c8.66699 0 13 -4 13 -12v-122zM313 506c-105.333 0 -165.667 -78.333 -181 -235v-196c40 -33.333 91.667 -50 155 -50c120.667 0 181 83 181 249c0 154.667 -51.667 232 -155 232z" />
    <glyph glyph-name="q" unicode="q" horiz-adv-x="574" 
d="M442 123c-10 -41.333 -31.499 -74.333 -64.499 -99s-72.5 -37 -118.5 -37c-61.333 0 -109 22.5 -143 67.5s-51 108.167 -51 189.5c0 88 20.167 160 60.5 216s99.5 84 177.5 84c55.333 0 101.666 -15 138.999 -45v21c0 8 4.33301 12 13 12h14c8.66699 0 13 -4 13 -12v-757
c0 -8 -4.33301 -12 -13 -12h-14c-8.66699 0 -13 4 -13 12v360zM265.001 25c103.333 0 162.334 78.335 177.001 235.002v196c-34.667 33.333 -81.334 50 -140.001 50c-35.333 0 -66.333 -7.66699 -93 -23s-47.167 -36 -61.5 -62s-25 -53.833 -32 -83.5
s-10.5 -60.834 -10.5 -93.501c0 -62.667 12.833 -114.834 38.5 -156.501s66.167 -62.5 121.5 -62.5z" />
    <glyph glyph-name="r" unicode="r" horiz-adv-x="393" 
d="M92 520c0 8 4.33203 12.002 12.999 12.002h14c8.66699 0 13 -4 13 -12v-128c4 16 9.33301 31.5 16 46.5s16.334 31.167 29.001 48.5s29.667 31.166 51 41.499s45.666 15.5 72.999 15.5c22.667 0 40.334 -2.33301 53.001 -7c8 -2.66699 12 -7.33398 12 -14.001v-21
c0 -6.66699 -3.66699 -8.66699 -11 -6c-18 6.66699 -36 10 -54 10c-37.333 0 -69.5 -14.667 -96.5 -44s-45.833 -61.833 -56.5 -97.5s-16 -70.5 -16 -104.5v-248c0 -8 -4.33301 -12 -13 -12h-14c-8.66699 0 -13 4 -13 12v508z" />
    <glyph glyph-name="s" unicode="s" horiz-adv-x="482" 
d="M403 512l0.000976562 -19c0 -6.66699 -4 -9 -12 -7c-42 14 -87.333 21 -136 21c-92.667 0 -139 -32 -139 -96c0 -22 5.66699 -40.333 17 -55s26 -25.667 44 -33s37.833 -13.5 59.5 -18.5s43.5 -10.833 65.5 -17.5s42 -15 60 -25s32.667 -25 44 -45s17 -44.667 17 -74
c0 -100 -63 -150 -189 -150c-68 0 -125.333 8.33301 -172 25c-5.33301 2 -8 6.33301 -8 13v20c0 6 3.66699 8 11 6c65.333 -17.333 122.333 -26 171 -26c98 0 147 36.333 147 109c0 28 -7.5 51 -22.5 69s-34 30.5 -57 37.5l-74 22c-26.333 7.66699 -51 15.5 -74 23.5
s-42 22 -57 42s-22.5 45.667 -22.5 77c0 88.667 60.667 133 182 133c55.333 0 100.666 -6.33301 135.999 -19c6 -2 9 -6.33301 9 -13z" />
    <glyph glyph-name="t" unicode="t" horiz-adv-x="351" 
d="M45 532l73 -0.000976562v139c0 6 1.33301 10.167 4 12.5s8.33398 3.5 17.001 3.5s14 -1 16 -3s3 -6.33301 3 -13v-139h137c7.33301 0 11 -3 11 -9v-17c0 -6.66699 -3.33301 -10 -10 -10h-138v-338c0 -51.333 7.16699 -85.166 21.5 -101.499s34.833 -24.5 61.5 -24.5
c27.333 0 50.666 4.33301 69.999 13c10.667 5.33301 16 3.33301 16 -6v-17c0 -6 -4.33301 -11 -13 -15c-22 -8.66699 -47 -13 -75 -13c-38.667 0 -68.5 11 -89.5 33s-31.5 62.667 -31.5 122v347h-73c-4.66699 0 -7.66699 0.666992 -9 2s-2 4 -2 8v15
c0 7.33301 3.66699 11 11 11z" />
    <glyph glyph-name="u" unicode="u" horiz-adv-x="557" 
d="M251 28c56 0 98.833 17.168 128.5 51.501s44.5 82.166 44.5 143.499v297c0 8 4.33301 12 13 12h14c8.66699 0 13 -4 13 -12v-407l5 -99c0.666992 -9.33301 -2.33301 -14 -9 -14h-18c-7.33301 -0 -11.333 5.33301 -12 16l-4 69c-19.333 -33.333 -42.833 -57 -70.5 -71
s-62.5 -21 -104.5 -21c-56.667 0 -98 14.333 -124 43s-39 76 -39 142v342c0 8 4.33301 12 13 12h14c8.66699 0 13 -4 13 -12v-352c0 -93.333 41 -140 123 -140z" />
    <glyph glyph-name="v" unicode="v" horiz-adv-x="502" 
d="M254 37l163 485c2 6.66699 6.66699 10 14 10h18c7.33301 0 10 -4 8 -12l-171 -506c-3.33301 -9.33301 -10 -14 -20 -14h-24c-10 0 -16.667 4.66699 -20 14l-171 506c-2 8 0.666992 12 8 12h18c7.33301 0 12 -3.33301 14 -10z" />
    <glyph glyph-name="w" unicode="w" horiz-adv-x="805" 
d="M93 522l143.998 -486l143 479c2.66699 8 4.83398 12.833 6.50098 14.5s5.16699 2.5 10.5 2.5h17c5.33301 0 8.83301 -0.833008 10.5 -2.5s3.83398 -6.5 6.50098 -14.5l142 -479l145 486c2 6.66699 6 10 12 10h20c8.66699 0 12 -4 10 -12l-156 -506
c-2.66699 -9.33301 -9.33398 -14 -20.001 -14h-19c-8 0 -13.333 1 -16 3s-4.66699 6 -6 12l-138 463l-138 -463c-1.33301 -6 -3.16602 -10 -5.49902 -12s-7.5 -3 -15.5 -3h-19c-11.333 0 -18.333 5 -21 15l-155 505c-2 8 1.33301 12 10 12h20c6 0 10 -3.33301 12 -10z" />
    <glyph glyph-name="x" unicode="x" horiz-adv-x="482" 
d="M270 269l171.999 -255c6.66699 -9.33301 5 -14 -5 -14h-22c-7.33301 0 -13 2.66699 -17 8l-151 228l-151 -228c-4 -5.33301 -9.66699 -8 -17 -8h-20c-4.66699 0 -7.66699 1.5 -9 4.5s-0.666016 6.16699 2.00098 9.5l172 255l-169 248c-7.33301 10 -5.33301 15 6 15h20
c7.33301 0 13 -3 17 -9l149 -220l149 220c3.33301 6 9 9 17 9h22c10 0 11.333 -5 4 -15z" />
    <glyph glyph-name="y" unicode="y" horiz-adv-x="527" 
d="M56 -229l0.000976562 17c0 6.66699 5.66699 8.66699 17 6c11.333 -3.33301 23 -5 35 -5c28.667 0 51.5 8 68.5 24s33.5 46.667 49.5 92l27 76l-204 539c-3.33301 8 -0.333008 12 9 12h18c7.33301 0 12.666 -4.33301 15.999 -13l181 -480l170 480
c2 5.33301 4.16699 8.83301 6.5 10.5s6.83301 2.5 13.5 2.5h12c10 0 13 -6 9 -18l-223 -621c-20.667 -57.333 -42.667 -95.333 -66 -114s-51 -28 -83 -28c-20.667 0 -36 1.66699 -46 5c-6.66699 2 -10 7 -10 15z" />
    <glyph glyph-name="z" unicode="z" horiz-adv-x="480" 
d="M74 532l334 0.00195312c8.66699 0 13 -3.66699 13 -11v-13c0 -6.66699 -6.33301 -19.334 -19 -38.001l-308 -432h320c9.33301 0 14 -4.66699 14 -14v-12c0 -8 -7 -12 -21 -12h-347c-8 0 -12 4 -12 12v12c0 9.33301 1.33301 15.666 4 18.999l318 451h-296
c-7.33301 0 -11 5 -11 15v10c0 8.66699 3.66699 13 11 13z" />
    <glyph glyph-name="braceleft" unicode="{" horiz-adv-x="336" 
d="M54 297v12.002h47v-1c47.333 -11.333 71 -50.333 71 -117v-166c0 -70.667 32 -106 96 -106c6.66699 0 11.167 -0.5 13.5 -1.5s3.5 -4.16699 3.5 -9.5v-12c0 -4.66699 -1.16699 -7.83398 -3.5 -9.50098s-7.16602 -2.5 -14.499 -2.5h-6
c-38.667 0 -69.834 11.333 -93.501 34s-35.5 58.667 -35.5 108v167c0 26 -4.5 46 -13.5 60s-26.167 24.333 -51.5 31c-8 5.33301 -12.333 9.66602 -13 12.999zM54 309.002v12.001c0 6.66699 3.33301 10.667 10 12c1.33301 0.666992 2.33301 1 3 1
c25.333 6.66699 42.5 17 51.5 31s13.5 34 13.5 60v167c0 49.333 11.833 85.333 35.5 108s54.834 34 93.501 34h6c7.33301 0 12.166 -0.833008 14.499 -2.5s3.5 -4.83398 3.5 -9.50098v-12c0 -5.33301 -1.16699 -8.5 -3.5 -9.5s-6.83301 -1.5 -13.5 -1.5
c-64 0 -96 -35.333 -96 -106v-166c0 -66.667 -23.667 -105.667 -71 -117v-1h-47z" />
    <glyph glyph-name="bar" unicode="|" horiz-adv-x="220" 
d="M130 -101c0 -11.333 -5 -17.333 -15 -18h-11c-9.33301 0 -14 5.66699 -14 17v826c0 11.333 5 17.333 15 18h11c9.33301 0 14 -5.66699 14 -17v-826z" />
    <glyph glyph-name="braceright" unicode="}" horiz-adv-x="336" 
d="M282 297l-0.000976562 12.001h-47v-1c-47.333 -11.333 -71 -50.333 -71 -117v-166c0 -70.667 -32 -106 -96 -106c-6.66699 0 -11.167 -0.5 -13.5 -1.5s-3.5 -4.16699 -3.5 -9.5v-12c0 -4.66699 1.16699 -7.83398 3.5 -9.50098s7.16602 -2.5 14.499 -2.5h6
c38.667 0 69.834 11.333 93.501 34s35.5 58.667 35.5 108v167c0 26 4.33301 46 13 60s26 24.333 52 31c0.666992 0 1.83398 0.333008 3.50098 1s2.83398 1.16699 3.50098 1.5s1.66699 1 3 2s2.16602 2.16699 2.49902 3.5s0.5 3 0.5 5zM281.999 321.001l-0.000976562 -12.001
h-47v1c-47.333 11.333 -71 50.333 -71 117v166c0 70.667 -32 106 -96 106c-6.66699 0 -11.167 0.5 -13.5 1.5s-3.5 4.16699 -3.5 9.5v12c0 4.66699 1.16699 7.83398 3.5 9.50098s7.16602 2.5 14.499 2.5h6c38.667 0 69.834 -11.333 93.501 -34s35.5 -58.667 35.5 -108v-167
c0 -26 4.33301 -46 13 -60s26 -24.333 52 -31c0.666992 0 1.83398 -0.333008 3.50098 -1s2.83398 -1.16699 3.50098 -1.5s1.66699 -1 3 -2s2.16602 -2.16699 2.49902 -3.5s0.5 -3 0.5 -5z" />
    <glyph glyph-name="asciitilde" unicode="~" horiz-adv-x="435" 
d="M290 273c39.333 0 59.001 19.6641 59.001 58.9971c0 4 2.33301 6 7 6h19c4 0 6 -2.33301 6 -7c0 -60.667 -31.667 -91 -95 -91c-43.333 0 -72 16.333 -86 49c-0.666992 0.666992 -1.83398 3.16699 -3.50098 7.5s-2.83398 7 -3.50098 8s-2 3.16699 -4 6.5
s-3.66699 5.5 -5 6.5l-6.5 5c-3 2.33301 -5.83301 3.83301 -8.5 4.5s-6.16699 1.33398 -10.5 2.00098s-8.83301 1 -13.5 1c-18 0 -32.167 -5.16699 -42.5 -15.5s-15.5 -24.833 -15.5 -43.5c0 -4.66699 -2.33301 -7 -7 -7h-18c-2.66699 0 -4.5 0.333008 -5.5 1s-1.5 3 -1.5 7
c0 28.667 8.5 50.834 25.5 66.501s40.5 23.5 70.5 23.5c24.667 0 42.5 -4.66699 53.5 -14s20.167 -22.333 27.5 -39c4 -8.66699 7.66699 -15.167 11 -19.5s8.83301 -8.16602 16.5 -11.499s17.834 -5 30.501 -5z" />
    <glyph glyph-name="nonbreakingspace" unicode="&#xa0;" horiz-adv-x="280" 
 />
    <glyph glyph-name="exclamdown" unicode="&#xa1;" horiz-adv-x="233" 
d="M93 -163c0 18.667 0.5 79 1.5 181s1.5 227 1.5 375c0 6.66699 6.66699 10 20 10s20 -3.33301 20 -10c0 -148 0.5 -273 1.5 -375s1.5 -162.333 1.5 -181c0 -23.333 -7.66699 -35 -23 -35s-23 11.667 -23 35zM78 493c0 10.667 3.33301 19.5 10 26.5s14.667 10.5 24 10.5
c8.66699 0 16.167 -3.16699 22.5 -9.5s9.5 -14.5 9.5 -24.5s-3.33301 -18.333 -10 -25s-15 -10 -25 -10c-9.33301 0 -16.833 2.83301 -22.5 8.5s-8.5 13.5 -8.5 23.5z" />
    <glyph glyph-name="cent" unicode="&#xa2;" horiz-adv-x="488" 
d="M423 463c-39.333 30.667 -89.668 46 -151.001 46c-64.667 0 -113.5 -21.833 -146.5 -65.5s-49.5 -104.834 -49.5 -183.501c0 -154 64.333 -233.333 193 -238h22c29.333 1.33301 56.333 5.33301 81 12c16.667 4.66699 38.334 12.667 65.001 24
c6.66699 2.66699 10 0.666992 10 -6v-15c0 -4.66699 -0.833008 -8 -2.5 -10s-6.16699 -4.66699 -13.5 -8c-43.333 -19.333 -87.333 -30 -132 -32v-48c0 -11.333 -5 -17.333 -15 -18h-11c-9.33301 0 -14 5.66699 -14 17v50c-148.667 10 -223 100.667 -223 272
c0 86 19.167 154.167 57.5 204.5s93.5 76.833 165.5 79.5v60c0 11.333 5 17.333 15 18h11c9.33301 0 14 -5.66699 14 -17v-62c58.667 -4.66699 102 -18 130 -40c6 -5.33301 9 -11.666 9 -18.999v-17c0 -2.66699 -0.833008 -4.66699 -2.5 -6s-3.66699 -1.83301 -6 -1.5
s-4.5 1.5 -6.5 3.5z" />
    <glyph glyph-name="sterling" unicode="&#xa3;" horiz-adv-x="568" 
d="M287 732c74 -0.666992 135.997 -25.3291 185.997 -73.9961c5.33301 -5.33301 8 -11.666 8 -18.999v-20c0 -3.33301 -0.833008 -5.5 -2.5 -6.5s-3.66699 -1 -6 0s-4.16602 2.16699 -5.49902 3.5c-55.333 52.667 -115.333 79.667 -180 81c-54 0 -96.833 -16.333 -128.5 -49
s-47.5 -82.334 -47.5 -149.001c0 -10 0.5 -19.667 1.5 -29s2.83301 -19 5.5 -29l6.5 -24c1.66699 -6 5 -14.167 10 -24.5s8.16699 -17.166 9.5 -20.499s5.33301 -11 12 -23s10.334 -18.667 11.001 -20h191c4.66699 0 7 -2.33301 7 -7v-21c0 -4.66699 -2.66699 -7 -8 -7h-174
c12 -28.667 18 -57.334 18 -86.001c0 -37.333 -8.16699 -70.666 -24.5 -99.999s-36.5 -52.666 -60.5 -69.999h408c8 0 12 -4.33301 12 -13v-12c0 -8.66699 -4 -13 -12 -13h-461c-8.66699 0 -14 0.666992 -16 2s-3 4.66602 -3 9.99902v16c0 6.66699 5.33301 10 16 10h8
c1.33301 1.33301 6.33301 5.33301 15 12s14.334 11.167 17.001 13.5s7.66699 7 15 14s12.5 12.833 15.5 17.5l12.5 20c5.33301 8.66699 9 17.167 11 25.5s4 18.166 6 29.499s3 23.333 3 36c0 27.333 -6.66699 56.666 -20 87.999h-96c-5.33301 0 -8 2.33301 -8 7v21
c0 4.66699 2.33301 7 7 7h79c-13.333 23.333 -22.5 40.166 -27.5 50.499s-10.833 27.166 -17.5 50.499s-10 46.666 -10 69.999c0 75.333 19.167 132.833 57.5 172.5s91.5 59.5 159.5 59.5z" />
    <glyph glyph-name="currency" unicode="&#xa4;" horiz-adv-x="577" 
d="M307 177c-70 0 -125.002 20.999 -165.002 62.999l-48 -48c-7.33301 -7.33301 -15 -8 -23 -2l-7 8c-7.33301 7.33301 -6.66602 14.666 2.00098 21.999l52 52c-21.333 36.667 -32 79.667 -32 129c0 60.667 16 110.334 48 149.001l-54 54
c-8.66699 8.66699 -9.66699 16.334 -3 23.001l9 8c6 6 13.333 5.33301 22 -2l54 -55c36.667 29.333 85 44 145 44c52.667 0 96.667 -12 132 -36l54 54c8 8 15.333 8.66699 22 2l9 -8c6 -6.66699 5 -14 -3 -22l-51 -51c37.333 -40.667 56 -93.667 56 -159
c0 -60 -15 -109.333 -45 -148l47 -46c8.66699 -8 9.33398 -15.667 2.00098 -23l-8 -8c-6 -6 -13.333 -5.33301 -22 2l-46 46c-38.667 -32 -87.667 -48 -147 -48zM485.998 405.999c0 52 -16.333 95.167 -49 129.5s-76 51.5 -130 51.5s-97.667 -17.333 -131 -52
s-50 -78 -50 -130c0 -59.333 16 -106.333 48 -141s76.333 -52 133 -52c56 0 99.833 17.5 131.5 52.5s47.5 82.167 47.5 141.5z" />
    <glyph glyph-name="yen" unicode="&#xa5;" horiz-adv-x="530" 
d="M429 199h-136.002v-187c0 -8 -4.33301 -12 -13 -12h-13c-8.66699 0 -13 4 -13 12v187h-135c-5.33301 0 -8 2.33301 -8 7v21c0 4.66699 2.33301 7 7 7h136v30h-135c-5.33301 0 -8 2.33301 -8 7v21c0 4.66699 2.33301 7 7 7h133l-224 407c-5.33301 10.667 -3.33301 16 6 16
h18c6 0 9.83301 -0.666992 11.5 -2s3.83398 -4.66602 6.50098 -9.99902l204 -372l205 372c2.66699 5.33301 4.83398 8.66602 6.50098 9.99902s5.16699 2 10.5 2h19c9.33301 0 11.333 -5.33301 6 -16l-224 -407h134c4.66699 0 7 -2.33301 7 -7v-21
c0 -4.66699 -2.66699 -7 -8 -7h-136v-30h137c4.66699 0 7 -2.33301 7 -7v-21c0 -4.66699 -2.66699 -7 -8 -7z" />
    <glyph glyph-name="brokenbar" unicode="&#xa6;" horiz-adv-x="232" 
d="M135 389c0 -11.333 -5 -17.333 -15 -18h-11c-9.33301 0 -14 5.66699 -14 17v336c0 11.333 5 17.333 15 18h11c9.33301 0 14 -5.66699 14 -17v-336zM135 185v-326c0 -11.333 -5 -17.333 -15 -18h-11c-9.33301 0 -14 5.66699 -14 17v326c0 11.333 5 17.333 15 18h11
c9.33301 0 14 -5.66699 14 -17z" />
    <glyph glyph-name="section" unicode="&#xa7;" horiz-adv-x="449" 
d="M383 694l0.00195312 -16.999c0 -6 -4 -7.33301 -12 -4c-46 19.333 -91.667 29 -137 29c-83.333 0 -125 -31.667 -125 -95c0 -24.667 10.5 -43.834 31.5 -57.501s46.5 -23.5 76.5 -29.5s59.833 -12.833 89.5 -20.5s55 -21.334 76 -41.001s31.5 -46.167 31.5 -79.5
c0 -35.333 -7.33301 -65.333 -22 -90s-32.334 -43 -53.001 -55c40 -22 60 -55 60 -99c0 -49.333 -17.333 -86.5 -52 -111.5s-79.667 -37.5 -135 -37.5c-64.667 0 -120.667 15 -168 45c-5.33301 3.33301 -8 7 -8 11v18c0 5.33301 1 8.5 3 9.5s4 0.833008 6 -0.5
c66 -32 121.667 -48 167 -48c42.667 0 77.834 9.5 105.501 28.5s41.5 47.167 41.5 84.5c0 26 -10.5 45.833 -31.5 59.5s-46.333 23.334 -76 29.001s-59.5 12 -89.5 19s-55.5 20.333 -76.5 40s-31.5 46.5 -31.5 80.5c0 72 34 116.667 102 134c-58 21.333 -87 58 -87 110
c0 43.333 14.667 76 44 98s69.666 33 120.999 33s98.666 -9.66699 141.999 -29c4.66699 -2 7 -6.66699 7 -14zM372.002 397.001c-5.33301 18.667 -18.6689 33.9961 -40.002 45.9961c-34 18 -71.667 27 -113 27c-83.333 0 -125 -35.667 -125 -107
c0 -13.333 2.83301 -25.166 8.5 -35.499s12.334 -18.666 20.001 -24.999s18.667 -12.166 33 -17.499s26.833 -9.16602 37.5 -11.499s25.334 -5.33301 44.001 -9s33 -6.83398 43 -9.50098c22 0.666992 43.167 10.667 63.5 30s30.5 50.333 30.5 93
c0 4.66699 -0.666992 10.334 -2 17.001v2z" />
    <glyph glyph-name="dieresis" unicode="&#xa8;" horiz-adv-x="528" 
d="M55 644c0 11.333 3.66602 20.832 10.999 28.499s16 11.5 26 11.5c10.667 0 19.334 -3.33301 26.001 -10s10 -16 10 -28c0 -10.667 -3.83301 -19.667 -11.5 -27s-16.5 -11 -26.5 -11c-10.667 0 -19.167 3.33301 -25.5 10s-9.5 15.334 -9.5 26.001zM198.999 643.999
c0 11.333 3.83301 20.832 11.5 28.499s16.5 11.5 26.5 11.5s18.333 -3.5 25 -10.5s10 -16.167 10 -27.5c0 -10.667 -3.83301 -19.667 -11.5 -27s-16.5 -11 -26.5 -11s-18.333 3.33301 -25 10s-10 15.334 -10 26.001z" />
    <glyph glyph-name="copyright" unicode="&#xa9;" horiz-adv-x="805" 
d="M403 -13c-118 0 -208.831 35.3311 -272.498 105.998s-95.5 161.334 -95.5 272.001c0 108.667 33.167 197.834 99.5 267.501s156.166 104.5 269.499 104.5s202.666 -34.667 267.999 -104s98 -158.333 98 -267c0 -112 -31.667 -203.167 -95 -273.5s-154 -105.5 -272 -105.5
zM730.002 369.998c0 98 -29.833 177.835 -89.5 239.502s-138.5 92.5 -236.5 92.5c-98.667 0 -178.167 -30.833 -238.5 -92.5s-90.5 -141.834 -90.5 -240.501c0 -104.667 29.5 -188.667 88.5 -252s139.167 -95 240.5 -95c100 0 179.333 31.667 238 95s88 147.666 88 252.999z
M541.002 487c-12.667 9.33301 -30.333 18.333 -53 27s-44.667 13 -66 13c-52 0 -92.667 -15.5 -122 -46.5s-44 -69.167 -44 -114.5c0 -46 13.833 -82.667 41.5 -110s70.167 -41 127.5 -41c42 0 86.333 10.667 133 32c7.33301 3.33301 11 0.666016 11 -8.00098v-8
c0 -10 -5 -17.333 -15 -22c-36.667 -19.333 -81 -29 -133 -29c-64.667 0 -115 16.833 -151 50.5s-54 77.167 -54 130.5c0 58.667 18.5 106.834 55.5 144.501s87.167 56.5 150.5 56.5c50.667 0 91.667 -12.333 123 -37c7.33301 -5.33301 11 -11.666 11 -18.999v-17
c0 -8.66699 -5 -9.33398 -15 -2.00098z" />
    <glyph glyph-name="ordfeminine" unicode="&#xaa;" horiz-adv-x="466" 
d="M358 399c-29.333 0 -46.998 17.668 -52.998 53.001c-22 -35.333 -60 -53 -114 -53c-39.333 0 -69.666 9.5 -90.999 28.5s-32 46.167 -32 81.5c0 78 78.333 117 235 117v15c0 24 -6.83301 42.667 -20.5 56s-31.834 20 -54.501 20c-48 0 -90 -11 -126 -33
c-6 -4 -9 -2.33301 -9 5v20c0 6.66699 2.33301 10.667 7 12c1.33301 0.666992 6.16602 2.66699 14.499 6s14.333 5.66602 18 6.99902s10 3.5 19 6.5s16.833 5.16699 23.5 6.5s14.667 2.5 24 3.5s18.666 1.5 27.999 1.5c38.667 0 67.667 -9.16699 87 -27.5s29 -51.5 29 -99.5
v-163c0 -6 2 -11.333 6 -16s9 -7 15 -7c4 0 12.667 3.66699 26 11c4.66699 2 7.66699 2.16699 9 0.5s2 -5.83398 2 -12.501v-11c0 -7.33301 -4.33301 -13.666 -13 -18.999c-10.667 -6 -20.667 -9 -30 -9zM108.002 510.001c0 -47.333 26.667 -71 80 -71
c36 0 64.167 10 84.5 30s30.5 48 30.5 84v38c-130 0 -195 -27 -195 -81z" />
    <glyph glyph-name="guillemotleft" unicode="&#xab;" horiz-adv-x="754" 
d="M373 60c11.333 -8.66699 17 -16 17 -22c0 -7.33301 -5.66699 -11 -17 -11h-10c-6 0 -12 2.33301 -18 7l-267 202c-21.333 16 -32 29.667 -32 41s10.667 25 32 41l267 202c6 4.66699 12 7 18 7h10c11.333 0 17 -3.66699 17 -11c0 -6 -5.66699 -13.333 -17 -22l-287 -217z
M673 60c11.333 -8.66699 17 -16 17 -22c0 -7.33301 -5.66699 -11 -17 -11h-10c-6 0 -12 2.33301 -18 7l-267 202c-21.333 16 -32 29.667 -32 41s10.667 25 32 41l267 202c6 4.66699 12 7 18 7h10c11.333 0 17 -3.66699 17 -11c0 -6 -5.66699 -13.333 -17 -22l-287 -217z" />
    <glyph glyph-name="logicalnot" unicode="&#xac;" horiz-adv-x="523" 
d="M75 439l375 0.00195312c12 0 18 -5.33301 18 -16v-218c0 -7.33301 -3.66699 -11 -11 -11h-17c-8 0 -12 3.66699 -12 11v199h-353h-8c-1.33301 0 -3.33301 0.5 -6 1.5s-4.5 2.83301 -5.5 5.5s-1.5 6 -1.5 10v2c0 5.33301 1.16699 9.16602 3.5 11.499
s4.5 3.66602 6.5 3.99902s5.66699 0.5 11 0.5z" />
    <glyph glyph-name="softhyphen" unicode="&#xad;" horiz-adv-x="442" 
d="M98 333h247.001c5.33301 0 8.66602 -0.833008 9.99902 -2.5s2 -5.16699 2 -10.5v-12c0 -8.66699 -4 -13 -12 -13h-247c-5.33301 0 -8.83301 0.833008 -10.5 2.5s-2.5 5.16699 -2.5 10.5v12c0 5.33301 0.833008 8.83301 2.5 10.5s5.16699 2.5 10.5 2.5z" />
    <glyph glyph-name="registered" unicode="&#xae;" horiz-adv-x="805" 
d="M403 -13c-118 0 -208.831 35.3311 -272.498 105.998s-95.5 161.334 -95.5 272.001c0 108.667 33.167 197.834 99.5 267.501s156.166 104.5 269.499 104.5s202.666 -34.667 267.999 -104s98 -158.333 98 -267c0 -112 -31.667 -203.167 -95 -273.5s-154 -105.5 -272 -105.5
zM730.002 369.998c0 98 -29.833 177.835 -89.5 239.502s-138.5 92.5 -236.5 92.5c-98.667 0 -178.167 -30.833 -238.5 -92.5s-90.5 -141.834 -90.5 -240.501c0 -104.667 29.5 -188.667 88.5 -252s139.167 -95 240.5 -95c100 0 179.333 31.667 238 95s88 147.666 88 252.999z
M299.002 184v370.999c0 8 4.33301 12 13 12h64c58.667 0 101 -8.33301 127 -25s39 -47 39 -91c0 -58.667 -27 -96 -81 -112c30.667 -18 54 -55 70 -111c3.33301 -14.667 12 -22 26 -22c8 0 16.667 2.33301 26 7c2 1.33301 3.83301 1.33301 5.5 0s2.5 -4.66602 2.5 -9.99902
v-13c0 -16 -12.333 -24 -37 -24c-34 0 -54 15.667 -60 47c-8 28.667 -21.5 55.167 -40.5 79.5s-41.5 37.5 -67.5 39.5h-47v-148c0 -8 -4.33301 -12 -13 -12h-14c-8.66699 0 -13 4 -13 12zM339.002 365.999h41c81.333 0 122 28.333 122 85c0 30 -9.66699 51 -29 63
s-50.333 18 -93 18h-41v-166z" />
    <glyph glyph-name="macron" unicode="&#xaf;" horiz-adv-x="315" 
d="M245 647h-215c-6.66699 0 -10 5.33301 -10 16c0 12.667 3 19 9 19h217c6 0 9 -4.66699 9 -14c0 -14 -3.33301 -21 -10 -21z" />
    <glyph glyph-name="degree" unicode="&#xb0;" horiz-adv-x="447" 
d="M223 431c-46.667 0 -84.332 14.999 -112.999 44.999s-43 68 -43 114c0 45.333 14.5 82.833 43.5 112.5s66.833 44.5 113.5 44.5c47.333 0 85.166 -14.667 113.499 -44s42.5 -66.666 42.5 -111.999c0 -46.667 -14.5 -85 -43.5 -115s-66.833 -45 -113.5 -45z
M340.002 589.999c0 37.333 -10.167 67 -30.5 89s-48.833 33 -85.5 33s-65.334 -11 -86.001 -33s-31 -51.667 -31 -89s10.333 -67.333 31 -90s49.334 -34 86.001 -34c34.667 0 62.667 11.667 84 35s32 53 32 89z" />
    <glyph glyph-name="plusminus" unicode="&#xb1;" horiz-adv-x="503" 
d="M273 515v-160h171c14.667 0 22 -4.66699 22 -14c0 -8 -1.66699 -13.5 -5 -16.5s-10.333 -4.5 -21 -4.5h-167v-174c0 -15.333 -6 -23 -18 -23c-14.667 0 -22 7.33301 -22 22v175h-162c-15.333 0 -23 6 -23 18c0 7.33301 1.66699 12 5 14s9 3 17 3h163v164
c0 14.667 6.33301 22 19 22c8 0 13.5 -1.66699 16.5 -5s4.5 -10.333 4.5 -21zM426 -1h-370c-5.33301 0 -8 2.33301 -8 7v24c0 4.66699 2.33301 7 7 7h372c4.66699 0 7 -2.33301 7 -7v-24c0 -4.66699 -2.66699 -7 -8 -7z" />
    <glyph glyph-name="twosuperior" unicode="&#xb2;" horiz-adv-x="309" 
d="M237 714c0 22 -7 40.167 -21 54.5s-35.333 21.5 -64 21.5c-45.333 0 -84.333 -10 -117 -30c-1.33301 -1.33301 -3.16602 -1.66602 -5.49902 -0.999023s-3.5 2.33398 -3.5 5.00098v17c0 6 1.66699 9.66699 5 11c28.667 20 69.667 30 123 30c40 0 71 -10.167 93 -30.5
s33 -45.833 33 -76.5c0 -38 -20.333 -77.333 -61 -118l-145 -146h198c8 0 12 -3 12 -9v-13c0 -4 -1 -6.5 -3 -7.5s-6.33301 -1.5 -13 -1.5h-231c-4.66699 0 -7.83398 0.666992 -9.50098 2s-2.5 4.66602 -2.5 9.99902v9c0 8 6.66699 18.667 20 32l148 150
c29.333 29.333 44 59.666 44 90.999z" />
    <glyph glyph-name="threesuperior" unicode="&#xb3;" horiz-adv-x="318" 
d="M139 448c34.667 0 61.501 6.99805 80.501 20.998s28.5 34 28.5 60c0 28.667 -9.5 49.667 -28.5 63s-43.167 20 -72.5 20h-13c-4.66699 0 -7.66699 0.5 -9 1.5s-2 3.83301 -2 8.5v16c0 5.33301 3.66699 8 11 8h13c56.667 0 85 24 85 72s-27 72 -81 72
c-32 0 -68 -10 -108 -30c-4.66699 -2.66699 -7 -1.66699 -7 3v21c0 5.33301 2 9 6 11c31.333 18.667 68.666 28 111.999 28c38 0 67.333 -9.16699 88 -27.5s31 -43.166 31 -74.499c0 -51.333 -23.333 -81.666 -70 -90.999c26 -2 47.333 -11.833 64 -29.5s25 -41.5 25 -71.5
c0 -38 -13.333 -66.833 -40 -86.5s-62.667 -29.5 -108 -29.5c-46.667 0 -85 6 -115 18c-3.33301 2 -5 5.33301 -5 10v19c0 4.66699 1.66699 7 5 7c1.33301 0 7 -1.66699 17 -5c29.333 -9.33301 60.333 -14 93 -14z" />
    <glyph glyph-name="acute" unicode="&#xb4;" horiz-adv-x="279" 
d="M32 642l-5.00195 9.99805c-3.33301 6.66699 -2.66602 11.334 2.00098 14.001l150 80c8 4.66699 14 3.33398 18 -3.99902l9 -15c4.66699 -8.66699 2.66699 -15 -6 -19l-152 -69c-7.33301 -3.33301 -12.666 -2.33301 -15.999 3z" />
    <glyph glyph-name="mu" unicode="&#xb5;" horiz-adv-x="550" 
d="M435 74c0 -26.667 10.667 -39.999 32 -39.999c9.33301 0 22 2 38 6c5.33301 2 9.33301 2.5 12 1.5s4 -4.16699 4 -9.5v-14c0 -7.33301 -4 -12.333 -12 -15c-16.667 -4.66699 -32 -7 -46 -7c-45.333 0 -68 25 -68 75v5c-40 -55.333 -97.667 -83 -173 -83
c-56 0 -97 14 -123 42v-239c0 -4.66699 -2 -7 -6 -7h-27c-4.66699 0 -7 2.33301 -7 7v719c0 8 4.33301 12 13 12h14c8.66699 0 13 -4 13 -12v-359c3.33301 -85.333 44.333 -128 123 -128c56 0 98.833 17.167 128.5 51.5s44.5 82.166 44.5 143.499v292c0 8 4.33301 12 13 12
h14c8.66699 0 13 -4 13 -12v-441z" />
    <glyph glyph-name="paragraph" unicode="&#xb6;" horiz-adv-x="443" 
d="M200 -84l-0.00292969 442.001c-49.333 1.33301 -90.166 17.833 -122.499 49.5s-48.5 73.5 -48.5 125.5c0 54.667 15.833 99.5 47.5 134.5s72.834 53.167 123.501 54.5h159c10.667 0 16 -5.33301 16 -16v-790c0 -8 -5.33301 -12 -16 -12h-7c-11.333 0 -17 4 -17 12v771
h-95v-770c0 -8.66699 -4.66699 -13 -14 -13h-11c-4.66699 0 -8.16699 0.5 -10.5 1.5s-3.66602 2.16699 -3.99902 3.5s-0.5 3.66602 -0.5 6.99902z" />
    <glyph glyph-name="periodcentered" unicode="&#xb7;" horiz-adv-x="250" 
d="M85 239c0 10.667 3.33301 19.5 10 26.5s14.667 10.5 24 10.5c8.66699 0 16.167 -3.16699 22.5 -9.5s9.5 -14.5 9.5 -24.5s-3.33301 -18.333 -10 -25s-15 -10 -25 -10c-9.33301 0 -16.833 2.83301 -22.5 8.5s-8.5 13.5 -8.5 23.5z" />
    <glyph glyph-name="cedilla" unicode="&#xb8;" horiz-adv-x="290" 
d="M65 -62l36.001 71.001h40l-24 -48c29.333 4.66699 54.166 0.833984 74.499 -11.499s30.5 -33.5 30.5 -63.5c0 -57.333 -38 -86 -114 -86c-34.667 0 -57 1.33301 -67 4c-4.66699 1.33301 -7 5.33301 -7 12v12c0 5.33301 0.5 8.66602 1.5 9.99902s3.5 1.66602 7.5 0.999023
c23.333 -2.66699 45 -4 65 -4c52 0 78 17 78 51c0 29.333 -18 44 -54 44c-7.33301 0 -18 -0.666992 -32 -2s-22.333 -2 -25 -2c-10.667 0 -14 4 -10 12z" />
    <glyph glyph-name="onesuperior" unicode="&#xb9;" horiz-adv-x="151" 
d="M65 767c0 6 -0.832031 9.33301 -2.49902 10s-5.83398 -0.333008 -12.501 -3l-33 -13c-6 -2 -9 0 -9 6v16c0 5.33301 3.33301 9.33301 10 12l59 22c6 2 11.667 3 17 3c8 0 12 -5.33301 12 -16v-372c0 -8 -4.33301 -12 -13 -12h-15c-8.66699 0 -13 4 -13 12v335z" />
    <glyph glyph-name="ordmasculine" unicode="&#xba;" horiz-adv-x="431" 
d="M70 534c0 52.667 12 96.3359 36 131.003s60.667 52 110 52c48.667 0 85 -17.333 109 -52s36 -78.334 36 -131.001s-12 -96.334 -36 -131.001s-60.333 -52 -109 -52c-49.333 0 -86 17.167 -110 51.5s-36 78.166 -36 131.499zM216 682.002
c-70.667 0 -106 -49.667 -106 -149c0 -44 8.5 -79.5 25.5 -106.5s43.833 -40.5 80.5 -40.5c36 0 62.5 13.5 79.5 40.5s25.5 62.5 25.5 106.5c0 45.333 -8.5 81.5 -25.5 108.5s-43.5 40.5 -79.5 40.5z" />
    <glyph glyph-name="guillemotright" unicode="&#xbb;" horiz-adv-x="753" 
d="M81 60l287 217l-287 217c-11.333 8.66699 -17 16 -17 22c0 7.33301 5.66699 11 17 11h10c6 0 12 -2.33301 18 -7l267 -202c21.333 -16 32 -29.667 32 -41s-10.667 -25 -32 -41l-267 -202c-6 -4.66699 -12 -7 -18 -7h-10c-11.333 0 -17 3.66699 -17 11
c0 6 5.66699 13.333 17 22zM381 60l287 217l-287 217c-11.333 8.66699 -17 16 -17 22c0 7.33301 5.66699 11 17 11h10c6 0 12 -2.33301 18 -7l267 -202c21.333 -16 32 -29.667 32 -41s-10.667 -25 -32 -41l-267 -202c-6 -4.66699 -12 -7 -18 -7h-10
c-11.333 0 -17 3.66699 -17 11c0 6 5.66699 13.333 17 22z" />
    <glyph glyph-name="onequarter" unicode="&#xbc;" horiz-adv-x="621" 
d="M45 37l485.999 701.001c4.66699 7.33301 8.33398 11.5 11.001 12.5s6 0.5 10 -1.5c1.33301 -0.666992 7 -4.66699 17 -12c4.66699 -4 2.66699 -12.667 -6 -26l-485 -700c-8.66699 -12.667 -17.667 -15.334 -27 -8.00098c-6.66699 4.66699 -10.334 8 -11.001 10
c-5.33301 5.33301 -3.66602 13.333 5.00098 24zM311.999 113.001l196 279.001c3.33301 4.66699 8.33301 7 15 7h24c10 0 11.333 -5.33301 4 -16l-189 -268h126v84c0 5.33301 3 8 9 8h25c5.33301 0 8 -2.66699 8 -8v-84h50c6 0 9 -2.33301 9 -7v-16
c0 -4.66699 -2.66699 -7 -8 -7h-51v-75c0 -5.33301 -3 -8 -9 -8h-25c-5.33301 0 -8 2.66699 -8 8v75h-168c-4 0 -6.5 0.5 -7.5 1.5s-1.5 3.16699 -1.5 6.5v13c0 3.33301 0.666992 5.66602 2 6.99902h-1zM127.999 767.002c0 6 -0.667969 9.33301 -2.00098 10
s-5.66602 -0.333008 -12.999 -3l-33 -13c-6 -2 -9 0 -9 6v16c0 5.33301 3.33301 9.33301 10 12l59 22c6 2 11.667 3 17 3c8 0 12 -5.33301 12 -16v-372c0 -8 -4.33301 -12 -13 -12h-15c-8.66699 0 -13 4 -13 12v335z" />
    <glyph glyph-name="onehalf" unicode="&#xbd;" horiz-adv-x="688" 
d="M128 767c0 6 -0.667969 9.33301 -2.00098 10s-5.66602 -0.333008 -12.999 -3l-33 -13c-6 -2 -9 0 -9 6v16c0 5.33301 3.33301 9.33301 10 12l59 22c6 2 11.667 3 17 3c8 0 12 -5.33301 12 -16v-372c0 -8 -4.33301 -12 -13 -12h-15c-8.66699 0 -13 4 -13 12v335z
M610.999 294c0 22 -7 40.167 -21 54.5s-35.333 21.5 -64 21.5c-45.333 0 -84.333 -10 -117 -30c-1.33301 -1.33301 -3.16602 -1.66602 -5.49902 -0.999023s-3.5 2.33398 -3.5 5.00098v17c0 6 1.66699 9.66699 5 11c28.667 20 69.667 30 123 30c40 0 71 -10.167 93 -30.5
s33 -45.833 33 -76.5c0 -38 -20.333 -77.333 -61 -118l-145 -146h198c8 0 12 -3 12 -9v-13c0 -4 -1 -6.5 -3 -7.5s-6.33301 -1.5 -13 -1.5h-231c-4.66699 0 -7.83398 0.666992 -9.50098 2s-2.5 4.66602 -2.5 9.99902v9c0 8 6.66699 18.667 20 32l148 150
c29.333 29.333 44 59.666 44 90.999zM44.999 37l485.999 701.001c4.66699 7.33301 8.33398 11.5 11.001 12.5s6 0.5 10 -1.5c1.33301 -0.666992 7 -4.66699 17 -12c4.66699 -4 2.66699 -12.667 -6 -26l-485 -700c-8.66699 -12.667 -17.667 -15.334 -27 -8.00098
c-6.66699 4.66699 -10.334 8 -11.001 10c-5.33301 5.33301 -3.66602 13.333 5.00098 24z" />
    <glyph glyph-name="threequarters" unicode="&#xbe;" horiz-adv-x="714" 
d="M118 37l485.999 701.001c4.66699 7.33301 8.33398 11.5 11.001 12.5s6 0.5 10 -1.5c1.33301 -0.666992 7 -4.66699 17 -12c4.66699 -4 2.66699 -12.667 -6 -26l-485 -700c-8.66699 -12.667 -17.667 -15.334 -27 -8.00098c-6.66699 4.66699 -10.334 8 -11.001 10
c-5.33301 5.33301 -3.66602 13.333 5.00098 24zM404.999 111.001l196 279.001c3.33301 4.66699 8.33301 7 15 7h24c10 0 11.333 -5.33301 4 -16l-189 -268h126v84c0 5.33301 3 8 9 8h25c5.33301 0 8 -2.66699 8 -8v-84h50c6 0 9 -2.33301 9 -7v-16
c0 -4.66699 -2.66699 -7 -8 -7h-51v-75c0 -5.33301 -3 -8 -9 -8h-25c-5.33301 0 -8 2.66699 -8 8v75h-168c-4 0 -6.5 0.5 -7.5 1.5s-1.5 3.16699 -1.5 6.5v13c0 3.33301 0.666992 5.66602 2 6.99902h-1zM150.999 448.002c34.667 0 61.501 6.99805 80.501 20.998
s28.5 34 28.5 60c0 28.667 -9.5 49.667 -28.5 63s-43.167 20 -72.5 20h-13c-4.66699 0 -7.66699 0.5 -9 1.5s-2 3.83301 -2 8.5v16c0 5.33301 3.66699 8 11 8h13c56.667 0 85 24 85 72s-27 72 -81 72c-32 0 -68 -10 -108 -30c-4.66699 -2.66699 -7 -1.66699 -7 3v21
c0 5.33301 2 9 6 11c31.333 18.667 68.666 28 111.999 28c38 0 67.333 -9.16699 88 -27.5s31 -43.166 31 -74.499c0 -51.333 -23.333 -81.666 -70 -90.999c26 -2 47.333 -11.833 64 -29.5s25 -41.5 25 -71.5c0 -38 -13.333 -66.833 -40 -86.5s-62.667 -29.5 -108 -29.5
c-46.667 0 -85 6 -115 18c-3.33301 2 -5 5.33301 -5 10v19c0 4.66699 1.66699 7 5 7c1.33301 0 7 -1.66699 17 -5c29.333 -9.33301 60.333 -14 93 -14z" />
    <glyph glyph-name="questiondown" unicode="&#xbf;" horiz-adv-x="452" 
d="M215 499c0 10 3.66797 18.002 11.001 24.002s15.666 9 24.999 9c10 0 18.333 -2.83301 25 -8.5s10 -13.834 10 -24.501s-3.5 -18.834 -10.5 -24.501s-15.5 -8.5 -25.5 -8.5c-23.333 0 -35 11 -35 33zM68.001 -54.998c0 -94.667 57.666 -142.001 172.999 -142.001
c59.333 0 116.333 12.667 171 38c8.66699 4 13 1 13 -9v-15c0 -7.33301 -3.33301 -12.666 -10 -15.999c-53.333 -24 -113.333 -36 -180 -36c-70 0 -122 16 -156 48s-51 75.333 -51 130c0 29.333 5.16699 57.333 15.5 84s23.333 49.5 39 68.5s32.667 38.333 51 58l51 53.5
c15.667 16 28.667 34.167 39 54.5s15.5 40.5 15.5 60.5v20c0 9.33301 5 14 15 14h4c8.66699 0 14.334 -2.16699 17.001 -6.5s4 -11.5 4 -21.5v-10c0 -26.667 -7.16699 -52.5 -21.5 -77.5s-31.833 -47.833 -52.5 -68.5l-62.5 -63.5c-21 -21.667 -38.667 -46.5 -53 -74.5
s-21.5 -57.667 -21.5 -89z" />
    <glyph glyph-name="Agrave" unicode="&#xc0;" horiz-adv-x="609" 
d="M529 12l-69.001 209.001h-303l-69 -209c-2.66699 -8 -8.66699 -12 -18 -12h-11c-10.667 0 -14.667 4.33301 -12 13l234 701c2 5.33301 5.33301 8 10 8h35c4.66699 0 8 -2.66699 10 -8l233 -701c1.33301 -4.66699 1.33301 -8 0 -10s-5 -3 -11 -3h-10
c-6.66699 0 -11.167 0.666992 -13.5 2s-4.16602 4.66602 -5.49902 9.99902zM307.999 679.001l-139 -420h278zM355.999 805.001l-2 -5.99902c-2.66699 -4.66699 -10.667 -4.66699 -24 0l-153 57c-9.33301 4 -12 10.333 -8 19l7 13c4 7.33301 10.667 8.66602 20 3.99902
l153 -70c8.66699 -4 11 -9.66699 7 -17z" />
    <glyph glyph-name="Aacute" unicode="&#xc1;" horiz-adv-x="609" 
d="M529 12l-69.001 209.001h-303l-69 -209c-2.66699 -8 -8.66699 -12 -18 -12h-11c-10.667 0 -14.667 4.33301 -12 13l234 701c2 5.33301 5.33301 8 10 8h35c4.66699 0 8 -2.66699 10 -8l233 -701c1.33301 -4.66699 1.33301 -8 0 -10s-5 -3 -11 -3h-10
c-6.66699 0 -11.167 0.666992 -13.5 2s-4.16602 4.66602 -5.49902 9.99902zM307.999 679.001l-139 -420h278zM269.999 801.001l-5.00195 9.99805c-3.33301 6.66699 -2.66602 11.334 2.00098 14.001l150 80c8 4.66699 14 3.33398 18 -3.99902l9 -15
c4.66699 -8.66699 2.66699 -15 -6 -19l-152 -69c-7.33301 -3.33301 -12.666 -2.33301 -15.999 3z" />
    <glyph glyph-name="Acircumflex" unicode="&#xc2;" horiz-adv-x="609" 
d="M529 12l-69.001 209.001h-303l-69 -209c-2.66699 -8 -8.66699 -12 -18 -12h-11c-10.667 0 -14.667 4.33301 -12 13l234 701c2 5.33301 5.33301 8 10 8h35c4.66699 0 8 -2.66699 10 -8l233 -701c1.33301 -4.66699 1.33301 -8 0 -10s-5 -3 -11 -3h-10
c-6.66699 0 -11.167 0.666992 -13.5 2s-4.16602 4.66602 -5.49902 9.99902zM307.999 679.001l-139 -420h278zM392.999 802.001l-83.998 83l-84 -83c-8.66699 -8.66699 -16.334 -13 -23.001 -13h-21c-9.33301 0 -10.333 4.66699 -3 14c1.33301 2 2.66602 3.66699 3.99902 5
l97 100c8.66699 9.33301 18.334 14 29.001 14c10 0 20 -5 30 -15l98 -99c8.66699 -10.667 9 -17 1 -19h-21c-6.66699 0 -14.334 4.33301 -23.001 13z" />
    <glyph glyph-name="Atilde" unicode="&#xc3;" horiz-adv-x="609" 
d="M529 12l-69.001 209.001h-303l-69 -209c-2.66699 -8 -8.66699 -12 -18 -12h-11c-10.667 0 -14.667 4.33301 -12 13l234 701c2 5.33301 5.33301 8 10 8h35c4.66699 0 8 -2.66699 10 -8l233 -701c1.33301 -4.66699 1.33301 -8 0 -10s-5 -3 -11 -3h-10
c-6.66699 0 -11.167 0.666992 -13.5 2s-4.16602 4.66602 -5.49902 9.99902zM307.999 679.001l-139 -420h278zM352.999 834.001c9.33301 0 17.3291 3.32812 23.9961 9.99512s10 16.334 10 29.001c0 4 2.33301 6 7 6h19c4 0 6 -2.33301 6 -7c0 -22.667 -6 -40.167 -18 -52.5
s-28 -18.5 -48 -18.5c-31.333 0 -51 9.66699 -59 29c-0.666992 0.666992 -1.5 2.33398 -2.5 5.00098s-1.83301 4.33398 -2.5 5.00098s-1.66699 2 -3 4s-2.66602 3.33301 -3.99902 4s-3.16602 1.33398 -5.49902 2.00098s-5.16602 1 -8.49902 1
c-9.33301 0 -17.166 -3.5 -23.499 -10.5s-9.5 -16.5 -9.5 -28.5c0 -4.66699 -2.33301 -7 -7 -7h-18c-2.66699 0 -4.5 0.333008 -5.5 1s-1.5 3 -1.5 7c0 22 6.16699 39.167 18.5 51.5s27.833 18.5 46.5 18.5c12.667 0 23 -2 31 -6s13.333 -7.66699 16 -11
s6 -8.66602 10 -15.999c4.66699 -10.667 14 -16 28 -16z" />
    <glyph glyph-name="Adieresis" unicode="&#xc4;" horiz-adv-x="609" 
d="M529 12l-69.001 209.001h-303l-69 -209c-2.66699 -8 -8.66699 -12 -18 -12h-11c-10.667 0 -14.667 4.33301 -12 13l234 701c2 5.33301 5.33301 8 10 8h35c4.66699 0 8 -2.66699 10 -8l233 -701c1.33301 -4.66699 1.33301 -8 0 -10s-5 -3 -11 -3h-10
c-6.66699 0 -11.167 0.666992 -13.5 2s-4.16602 4.66602 -5.49902 9.99902zM307.999 679.001l-139 -420h278zM200.999 835.001c0 11.333 3.66602 20.832 10.999 28.499s16 11.5 26 11.5c10.667 0 19.334 -3.5 26.001 -10.5s10 -16.167 10 -27.5
c0 -10.667 -3.83301 -19.667 -11.5 -27s-16.5 -11 -26.5 -11c-10.667 0 -19.167 3.33301 -25.5 10s-9.5 15.334 -9.5 26.001zM344.998 835c0 11.333 3.83301 20.832 11.5 28.499s16.5 11.5 26.5 11.5s18.333 -3.5 25 -10.5s10 -16.167 10 -27.5
c0 -10.667 -3.83301 -19.667 -11.5 -27s-16.5 -11 -26.5 -11s-18.333 3.33301 -25 10s-10 15.334 -10 26.001z" />
    <glyph glyph-name="Aring" unicode="&#xc5;" horiz-adv-x="609" 
d="M529 12l-69.001 209.001h-303l-69 -209c-2.66699 -8 -8.66699 -12 -18 -12h-11c-10.667 0 -14.667 4.33301 -12 13l234 701c2 5.33301 5.33301 8 10 8h35c4.66699 0 8 -2.66699 10 -8l233 -701c1.33301 -4.66699 1.33301 -8 0 -10s-5 -3 -11 -3h-10
c-6.66699 0 -11.167 0.666992 -13.5 2s-4.16602 4.66602 -5.49902 9.99902zM307.999 679.001l-139 -420h278zM307.999 792.001c-28.667 0 -52 7.5 -70 22.5s-27 34.833 -27 59.5s8.83301 44.5 26.5 59.5s41.167 22.5 70.5 22.5s53 -7.5 71 -22.5s27 -34.833 27 -59.5
s-9 -44.5 -27 -59.5s-41.667 -22.5 -71 -22.5zM307.999 821.001c16.667 0 31 4.83301 43 14.5s18 22.5 18 38.5s-5.83301 28.833 -17.5 38.5s-26.167 14.5 -43.5 14.5s-31.833 -4.83301 -43.5 -14.5s-17.5 -22.5 -17.5 -38.5s6 -28.833 18 -38.5s26.333 -14.5 43 -14.5z" />
    <glyph glyph-name="AE" unicode="&#xc6;" horiz-adv-x="841" 
d="M405 251h-238.999l-98 -236c-4 -10 -10 -15 -18 -15h-15c-12 -0 -16.333 4.33301 -13 13l277 659c10 24.667 18.167 39.167 24.5 43.5s21.166 6.5 44.499 6.5h390c8 0 12 -4.33301 12 -13v-12c0 -8.66699 -4 -13 -12 -13h-313v-291h268c8 0 12 -4.33301 12 -13v-12
c0 -8.66699 -4 -13 -12 -13h-268v-317h338c8 0 12 -4.33301 12 -13v-12c0 -8.66699 -4 -13 -12 -13h-365c-8.66699 0 -13 4 -13 12v239zM405.001 286v401h-39c-12 0 -20.333 -6.33301 -25 -19l-160 -382h224z" />
    <glyph glyph-name="Ccedilla" unicode="&#xc7;" horiz-adv-x="636" 
d="M112 349c0 -102 20.833 -181.166 62.5 -237.499s110.834 -84.5 207.501 -84.5c56 0 116.667 12 182 36c10.667 4 16 1.33301 16 -8v-15c0 -6 -3.66699 -11 -11 -15c-39.333 -20.667 -94.666 -32.334 -165.999 -35.001l-16 -33
c29.333 4.66699 54.166 0.833984 74.499 -11.499s30.5 -33.5 30.5 -63.5c0 -57.333 -38 -86 -114 -86c-34.667 0 -57 1.33301 -67 4c-4.66699 1.33301 -7 5.33301 -7 12v12c0 5.33301 0.5 8.66602 1.5 9.99902s3.5 1.66602 7.5 0.999023c23.333 -2.66699 45 -4 65 -4
c52 0 78 17 78 51c0 29.333 -18 44 -54 44c-7.33301 0 -18 -0.666992 -32 -2s-22.333 -2 -25 -2c-10.667 0 -14 4 -10 12l28 56c-194.667 6.66699 -292 125.334 -292 356.001c0 117.333 26.167 210.833 78.5 280.5s131.5 104.5 237.5 104.5
c33.333 0 67.5 -3.33301 102.5 -10s61.5 -15.334 79.5 -26.001c7.33301 -4 11 -10.667 11 -20v-9c0 -10.667 -5 -13.667 -15 -9c-6 2.66699 -15.167 6.33398 -27.5 11.001s-33.333 10 -63 16s-58.834 9 -87.501 9c-51.333 0 -95.333 -9 -132 -27s-65.167 -43.5 -85.5 -76.5
s-35 -69.167 -44 -108.5s-13.5 -83.333 -13.5 -132z" />
    <glyph glyph-name="Egrave" unicode="&#xc8;" 
d="M113 710c0 8 4.33301 12 13 12h337c8 0 12 -4.33301 12 -13v-12c0 -8.66699 -4 -13 -12 -13h-310v-291h265c8 0 12 -4.33301 12 -13v-12c0 -8.66699 -4 -13 -12 -13h-265v-317h335c8 0 12 -4.33301 12 -13v-12c0 -8.66699 -4 -13 -12 -13h-362c-8.66699 0 -13 4 -13 12
v698zM345 805l-2 -5.99902c-2.66699 -4.66699 -10.667 -4.66699 -24 0l-153 57c-9.33301 4 -12 10.333 -8 19l7 13c4 7.33301 10.667 8.66602 20 3.99902l153 -70c8.66699 -4 11 -9.66699 7 -17z" />
    <glyph glyph-name="Eacute" unicode="&#xc9;" 
d="M113 710c0 8 4.33301 12 13 12h337c8 0 12 -4.33301 12 -13v-12c0 -8.66699 -4 -13 -12 -13h-310v-291h265c8 0 12 -4.33301 12 -13v-12c0 -8.66699 -4 -13 -12 -13h-265v-317h335c8 0 12 -4.33301 12 -13v-12c0 -8.66699 -4 -13 -12 -13h-362c-8.66699 0 -13 4 -13 12
v698zM259 801l-5.00195 9.99805c-3.33301 6.66699 -2.66602 11.334 2.00098 14.001l150 80c8 4.66699 14 3.33398 18 -3.99902l9 -15c4.66699 -8.66699 2.66699 -15 -6 -19l-152 -69c-7.33301 -3.33301 -12.666 -2.33301 -15.999 3z" />
    <glyph glyph-name="Ecircumflex" unicode="&#xca;" 
d="M113 710c0 8 4.33301 12 13 12h337c8 0 12 -4.33301 12 -13v-12c0 -8.66699 -4 -13 -12 -13h-310v-291h265c8 0 12 -4.33301 12 -13v-12c0 -8.66699 -4 -13 -12 -13h-265v-317h335c8 0 12 -4.33301 12 -13v-12c0 -8.66699 -4 -13 -12 -13h-362c-8.66699 0 -13 4 -13 12
v698zM382 802l-83.998 83l-84 -83c-8.66699 -8.66699 -16.334 -13 -23.001 -13h-21c-9.33301 0 -10.333 4.66699 -3 14c1.33301 2 2.66602 3.66699 3.99902 5l97 100c8.66699 9.33301 18.334 14 29.001 14c10 0 20 -5 30 -15l98 -99c8.66699 -10.667 9 -17 1 -19h-21
c-6.66699 0 -14.334 4.33301 -23.001 13z" />
    <glyph glyph-name="Edieresis" unicode="&#xcb;" 
d="M113 710c0 8 4.33301 12 13 12h337c8 0 12 -4.33301 12 -13v-12c0 -8.66699 -4 -13 -12 -13h-310v-291h265c8 0 12 -4.33301 12 -13v-12c0 -8.66699 -4 -13 -12 -13h-265v-317h335c8 0 12 -4.33301 12 -13v-12c0 -8.66699 -4 -13 -12 -13h-362c-8.66699 0 -13 4 -13 12
v698zM190 835c0 11.333 3.66699 20.832 11 28.499s16 11.5 26 11.5s18.5 -3.5 25.5 -10.5s10.5 -16.167 10.5 -27.5c0 -10.667 -3.83301 -19.667 -11.5 -27s-16.5 -11 -26.5 -11c-10.667 0 -19.167 3.33301 -25.5 10s-9.5 15.334 -9.5 26.001zM334 834.999
c0 11.333 3.83301 20.832 11.5 28.499s16.5 11.5 26.5 11.5s18.333 -3.5 25 -10.5s10 -16.167 10 -27.5c0 -10.667 -3.83301 -19.667 -11.5 -27s-16.5 -11 -26.5 -11s-18.333 3.33301 -25 10s-10 15.334 -10 26.001z" />
    <glyph glyph-name="Igrave" unicode="&#xcc;" horiz-adv-x="266" 
d="M119 710c0 8 4.33301 12 13 12h14c8.66699 0 13 -4 13 -12v-698c0 -8 -4.33301 -12 -13 -12h-14c-8.66699 0 -13 4 -13 12v698zM188 805l-2 -5.99902c-2.66699 -4.66699 -10.667 -4.66699 -24 0l-153 57c-9.33301 4 -12 10.333 -8 19l7 13
c4 7.33301 10.667 8.66602 20 3.99902l153 -70c8.66699 -4 11 -9.66699 7 -17z" />
    <glyph glyph-name="Iacute" unicode="&#xcd;" horiz-adv-x="266" 
d="M118 710c0 8 4.33301 12 13 12h14c8.66699 0 13 -4 13 -12v-698c0 -8 -4.33301 -12 -13 -12h-14c-8.66699 0 -13 4 -13 12v698zM101 801l-5.00195 9.99805c-3.33301 6.66699 -2.66602 11.334 2.00098 14.001l150 80c8 4.66699 14 3.33398 18 -3.99902l9 -15
c4.66699 -8.66699 2.66699 -15 -6 -19l-152 -69c-7.33301 -3.33301 -12.666 -2.33301 -15.999 3z" />
    <glyph glyph-name="Icircumflex" unicode="&#xce;" horiz-adv-x="266" 
d="M123 710c0 8 4.33301 12 13 12h14c8.66699 0 13 -4 13 -12v-698c0 -8 -4.33301 -12 -13 -12h-14c-8.66699 0 -13 4 -13 12v698zM231 802l-83.998 83l-84 -83c-8.66699 -8.66699 -16.334 -13 -23.001 -13h-21c-9.33301 0 -10.333 4.66699 -3 14
c1.33301 2 2.66602 3.66699 3.99902 5l97 100c8.66699 9.33301 18.334 14 29.001 14c10 0 20 -5 30 -15l98 -99c8.66699 -10.667 9 -17 1 -19h-21c-6.66699 0 -14.334 4.33301 -23.001 13z" />
    <glyph glyph-name="Idieresis" unicode="&#xcf;" horiz-adv-x="266" 
d="M113 710c0 8 4.33301 12 13 12h14c8.66699 0 13 -4 13 -12v-698c0 -8 -4.33301 -12 -13 -12h-14c-8.66699 0 -13 4 -13 12v698zM27 835c0 11.333 3.66602 20.832 10.999 28.499s16 11.5 26 11.5c10.667 0 19.334 -3.5 26.001 -10.5s10 -16.167 10 -27.5
c0 -10.667 -3.83301 -19.667 -11.5 -27s-16.5 -11 -26.5 -11c-10.667 0 -19.167 3.33301 -25.5 10s-9.5 15.334 -9.5 26.001zM170.999 834.999c0 11.333 3.83301 20.832 11.5 28.499s16.5 11.5 26.5 11.5s18.333 -3.5 25 -10.5s10 -16.167 10 -27.5
c0 -10.667 -3.83301 -19.667 -11.5 -27s-16.5 -11 -26.5 -11s-18.333 3.33301 -25 10s-10 15.334 -10 26.001z" />
    <glyph glyph-name="Eth" unicode="&#xd0;" horiz-adv-x="712" 
d="M128 336l-105.999 -0.000976562c-5.33301 0 -8 2.33301 -8 7v24c0 4.66699 2.33301 7 7 7h107v336c0 8 4.33301 12 13 12h119c129.333 0 225.166 -30 287.499 -90s93.5 -150.667 93.5 -272s-31 -211.666 -93 -270.999s-157.667 -89 -287 -89h-120
c-8.66699 0 -13 4 -13 12v324zM392.001 335.999h-224v-298h92c118.667 0 205.167 25.833 259.5 77.5s81.5 133.167 81.5 244.5c0 112 -27.333 194 -82 246s-141 78 -259 78h-92v-310h225c4.66699 0 7 -2.33301 7 -7v-24c0 -4.66699 -2.66699 -7 -8 -7z" />
    <glyph glyph-name="Ntilde" unicode="&#xd1;" horiz-adv-x="708" 
d="M578 0h-11c-8 0 -15.333 5 -22 15l-362 586c-19.333 32 -31 55.333 -35 70c3.33301 -25.333 5 -49.333 5 -72v-587c0 -8 -4.33301 -12 -13 -12h-14c-8.66699 0 -13 4 -13 12v698c0 5.33301 1 8.66602 3 9.99902s6.66699 2 14 2h11c8 0 15.333 -5 22 -15l373 -608
c16 -26.667 25.667 -45 29 -55c-6.66699 28 -10 58 -10 90v576c0 8 4.33301 12 13 12h14c8.66699 0 13 -4 13 -12v-698c0 -5.33301 -1 -8.66602 -3 -9.99902s-6.66699 -2 -14 -2zM398 834c9.33301 0 17.3291 3.32812 23.9961 9.99512s10 16.334 10 29.001c0 4 2.33301 6 7 6
h19c4 0 6 -2.33301 6 -7c0 -22.667 -6 -40.167 -18 -52.5s-28 -18.5 -48 -18.5c-31.333 0 -51 9.66699 -59 29c-0.666992 0.666992 -1.5 2.33398 -2.5 5.00098s-1.83301 4.33398 -2.5 5.00098s-1.66699 2 -3 4s-2.66602 3.33301 -3.99902 4
s-3.16602 1.33398 -5.49902 2.00098s-5.16602 1 -8.49902 1c-9.33301 0 -17.166 -3.5 -23.499 -10.5s-9.5 -16.5 -9.5 -28.5c0 -4.66699 -2.33301 -7 -7 -7h-18c-2.66699 0 -4.5 0.333008 -5.5 1s-1.5 3 -1.5 7c0 22 6.16699 39.167 18.5 51.5s27.833 18.5 46.5 18.5
c12.667 0 23 -2 31 -6s13.333 -7.66699 16 -11s6 -8.66602 10 -15.999c4.66699 -10.667 14 -16 28 -16z" />
    <glyph glyph-name="Ograve" unicode="&#xd2;" horiz-adv-x="802" 
d="M69 356c0 37.333 3.16602 72.999 9.49902 106.999s17.333 67.667 33 101s35.667 62.333 60 87s56 44.5 95 59.5s83.5 22.5 133.5 22.5c59.333 0 111.333 -10.333 156 -31s79.334 -48.834 104.001 -84.501s43 -74.667 55 -117s18 -87.833 18 -136.5
c0 -36.667 -3 -72 -9 -106s-17 -67.833 -33 -101.5s-36 -62.667 -60 -87s-55.667 -44.166 -95 -59.499s-84 -23 -134 -23c-60 0 -112.167 10.333 -156.5 31s-79 48.834 -104 84.501s-43.333 74.667 -55 117s-17.5 87.833 -17.5 136.5zM398.999 697.999
c-43.333 0 -82.333 -6.83594 -117 -20.5029s-62.5 -31.5 -83.5 -53.5s-38.5 -48 -52.5 -78s-23.667 -60 -29 -90s-8 -61.333 -8 -94c0 -41.333 4.83301 -80.833 14.5 -118.5s25 -73.667 46 -108s51.667 -61.833 92 -82.5s87.833 -31 142.5 -31
c45.333 0 85.5 7.33301 120.5 22s62.833 33.167 83.5 55.5s37.667 49 51 80s22.333 60.833 27 89.5s7 58.334 7 89.001c0 32 -2.66699 62.833 -8 92.5s-15 59.834 -29 90.501s-31.667 57.334 -53 80.001s-49.5 41.167 -84.5 55.5s-74.833 21.5 -119.5 21.5zM445.999 804.996
l-2 -5.99902c-2.66699 -4.66699 -10.667 -4.66699 -24 0l-153 57c-9.33301 4 -12 10.333 -8 19l7 13c4 7.33301 10.667 8.66602 20 3.99902l153 -70c8.66699 -4 11 -9.66699 7 -17z" />
    <glyph glyph-name="Oacute" unicode="&#xd3;" horiz-adv-x="802" 
d="M69 356c0 37.333 3.16602 72.999 9.49902 106.999s17.333 67.667 33 101s35.667 62.333 60 87s56 44.5 95 59.5s83.5 22.5 133.5 22.5c59.333 0 111.333 -10.333 156 -31s79.334 -48.834 104.001 -84.501s43 -74.667 55 -117s18 -87.833 18 -136.5
c0 -36.667 -3 -72 -9 -106s-17 -67.833 -33 -101.5s-36 -62.667 -60 -87s-55.667 -44.166 -95 -59.499s-84 -23 -134 -23c-60 0 -112.167 10.333 -156.5 31s-79 48.834 -104 84.501s-43.333 74.667 -55 117s-17.5 87.833 -17.5 136.5zM398.999 697.999
c-43.333 0 -82.333 -6.83594 -117 -20.5029s-62.5 -31.5 -83.5 -53.5s-38.5 -48 -52.5 -78s-23.667 -60 -29 -90s-8 -61.333 -8 -94c0 -41.333 4.83301 -80.833 14.5 -118.5s25 -73.667 46 -108s51.667 -61.833 92 -82.5s87.833 -31 142.5 -31
c45.333 0 85.5 7.33301 120.5 22s62.833 33.167 83.5 55.5s37.667 49 51 80s22.333 60.833 27 89.5s7 58.334 7 89.001c0 32 -2.66699 62.833 -8 92.5s-15 59.834 -29 90.501s-31.667 57.334 -53 80.001s-49.5 41.167 -84.5 55.5s-74.833 21.5 -119.5 21.5zM359.999 800.996
l-5.00195 9.99805c-3.33301 6.66699 -2.66602 11.334 2.00098 14.001l150 80c8 4.66699 14 3.33398 18 -3.99902l9 -15c4.66699 -8.66699 2.66699 -15 -6 -19l-152 -69c-7.33301 -3.33301 -12.666 -2.33301 -15.999 3z" />
    <glyph glyph-name="Ocircumflex" unicode="&#xd4;" horiz-adv-x="802" 
d="M69 356c0 37.333 3.16602 72.999 9.49902 106.999s17.333 67.667 33 101s35.667 62.333 60 87s56 44.5 95 59.5s83.5 22.5 133.5 22.5c59.333 0 111.333 -10.333 156 -31s79.334 -48.834 104.001 -84.501s43 -74.667 55 -117s18 -87.833 18 -136.5
c0 -36.667 -3 -72 -9 -106s-17 -67.833 -33 -101.5s-36 -62.667 -60 -87s-55.667 -44.166 -95 -59.499s-84 -23 -134 -23c-60 0 -112.167 10.333 -156.5 31s-79 48.834 -104 84.501s-43.333 74.667 -55 117s-17.5 87.833 -17.5 136.5zM398.999 697.999
c-43.333 0 -82.333 -6.83594 -117 -20.5029s-62.5 -31.5 -83.5 -53.5s-38.5 -48 -52.5 -78s-23.667 -60 -29 -90s-8 -61.333 -8 -94c0 -41.333 4.83301 -80.833 14.5 -118.5s25 -73.667 46 -108s51.667 -61.833 92 -82.5s87.833 -31 142.5 -31
c45.333 0 85.5 7.33301 120.5 22s62.833 33.167 83.5 55.5s37.667 49 51 80s22.333 60.833 27 89.5s7 58.334 7 89.001c0 32 -2.66699 62.833 -8 92.5s-15 59.834 -29 90.501s-31.667 57.334 -53 80.001s-49.5 41.167 -84.5 55.5s-74.833 21.5 -119.5 21.5zM482.999 801.996
l-83.998 83l-84 -83c-8.66699 -8.66699 -16.334 -13 -23.001 -13h-21c-9.33301 0 -10.333 4.66699 -3 14c1.33301 2 2.66602 3.66699 3.99902 5l97 100c8.66699 9.33301 18.334 14 29.001 14c10 0 20 -5 30 -15l98 -99c8.66699 -10.667 9 -17 1 -19h-21
c-6.66699 0 -14.334 4.33301 -23.001 13z" />
    <glyph glyph-name="Otilde" unicode="&#xd5;" horiz-adv-x="802" 
d="M69 356c0 37.333 3.16602 72.999 9.49902 106.999s17.333 67.667 33 101s35.667 62.333 60 87s56 44.5 95 59.5s83.5 22.5 133.5 22.5c59.333 0 111.333 -10.333 156 -31s79.334 -48.834 104.001 -84.501s43 -74.667 55 -117s18 -87.833 18 -136.5
c0 -36.667 -3 -72 -9 -106s-17 -67.833 -33 -101.5s-36 -62.667 -60 -87s-55.667 -44.166 -95 -59.499s-84 -23 -134 -23c-60 0 -112.167 10.333 -156.5 31s-79 48.834 -104 84.501s-43.333 74.667 -55 117s-17.5 87.833 -17.5 136.5zM398.999 697.999
c-43.333 0 -82.333 -6.83594 -117 -20.5029s-62.5 -31.5 -83.5 -53.5s-38.5 -48 -52.5 -78s-23.667 -60 -29 -90s-8 -61.333 -8 -94c0 -41.333 4.83301 -80.833 14.5 -118.5s25 -73.667 46 -108s51.667 -61.833 92 -82.5s87.833 -31 142.5 -31
c45.333 0 85.5 7.33301 120.5 22s62.833 33.167 83.5 55.5s37.667 49 51 80s22.333 60.833 27 89.5s7 58.334 7 89.001c0 32 -2.66699 62.833 -8 92.5s-15 59.834 -29 90.501s-31.667 57.334 -53 80.001s-49.5 41.167 -84.5 55.5s-74.833 21.5 -119.5 21.5zM442.999 833.996
c9.33301 0 17.3291 3.32812 23.9961 9.99512s10 16.334 10 29.001c0 4 2.33301 6 7 6h19c4 0 6 -2.33301 6 -7c0 -22.667 -6 -40.167 -18 -52.5s-28 -18.5 -48 -18.5c-31.333 0 -51 9.66699 -59 29c-0.666992 0.666992 -1.5 2.33398 -2.5 5.00098
s-1.83301 4.33398 -2.5 5.00098s-1.66699 2 -3 4s-2.66602 3.33301 -3.99902 4s-3.16602 1.33398 -5.49902 2.00098s-5.16602 1 -8.49902 1c-9.33301 0 -17.166 -3.5 -23.499 -10.5s-9.5 -16.5 -9.5 -28.5c0 -4.66699 -2.33301 -7 -7 -7h-18
c-2.66699 0 -4.5 0.333008 -5.5 1s-1.5 3 -1.5 7c0 22 6.16699 39.167 18.5 51.5s27.833 18.5 46.5 18.5c12.667 0 23 -2 31 -6s13.333 -7.66699 16 -11s6 -8.66602 10 -15.999c4.66699 -10.667 14 -16 28 -16z" />
    <glyph glyph-name="Odieresis" unicode="&#xd6;" horiz-adv-x="802" 
d="M69 356c0 37.333 3.16602 72.999 9.49902 106.999s17.333 67.667 33 101s35.667 62.333 60 87s56 44.5 95 59.5s83.5 22.5 133.5 22.5c59.333 0 111.333 -10.333 156 -31s79.334 -48.834 104.001 -84.501s43 -74.667 55 -117s18 -87.833 18 -136.5
c0 -36.667 -3 -72 -9 -106s-17 -67.833 -33 -101.5s-36 -62.667 -60 -87s-55.667 -44.166 -95 -59.499s-84 -23 -134 -23c-60 0 -112.167 10.333 -156.5 31s-79 48.834 -104 84.501s-43.333 74.667 -55 117s-17.5 87.833 -17.5 136.5zM398.999 697.999
c-43.333 0 -82.333 -6.83594 -117 -20.5029s-62.5 -31.5 -83.5 -53.5s-38.5 -48 -52.5 -78s-23.667 -60 -29 -90s-8 -61.333 -8 -94c0 -41.333 4.83301 -80.833 14.5 -118.5s25 -73.667 46 -108s51.667 -61.833 92 -82.5s87.833 -31 142.5 -31
c45.333 0 85.5 7.33301 120.5 22s62.833 33.167 83.5 55.5s37.667 49 51 80s22.333 60.833 27 89.5s7 58.334 7 89.001c0 32 -2.66699 62.833 -8 92.5s-15 59.834 -29 90.501s-31.667 57.334 -53 80.001s-49.5 41.167 -84.5 55.5s-74.833 21.5 -119.5 21.5zM290.999 834.996
c0 11.333 3.66602 20.832 10.999 28.499s16 11.5 26 11.5c10.667 0 19.334 -3.5 26.001 -10.5s10 -16.167 10 -27.5c0 -10.667 -3.83301 -19.667 -11.5 -27s-16.5 -11 -26.5 -11c-10.667 0 -19.167 3.33301 -25.5 10s-9.5 15.334 -9.5 26.001zM434.998 834.995
c0 11.333 3.83301 20.832 11.5 28.499s16.5 11.5 26.5 11.5s18.333 -3.5 25 -10.5s10 -16.167 10 -27.5c0 -10.667 -3.83301 -19.667 -11.5 -27s-16.5 -11 -26.5 -11s-18.333 3.33301 -25 10s-10 15.334 -10 26.001z" />
    <glyph glyph-name="multiply" unicode="&#xd7;" horiz-adv-x="500" 
d="M256 243l0.00488281 1.99902l-163 -166c-8.66699 -9.33301 -14.834 -14.833 -18.501 -16.5s-9.83398 0.5 -18.501 6.5c-6 6.66699 -2.33301 16.667 11 30l170 172l-170 172c-13.333 13.333 -17 23.333 -11 30c4.66699 4.66699 9.16699 6.83398 13.5 6.50098
s7.66602 -1.5 9.99902 -3.5s6.83301 -6.33301 13.5 -13l163 -166v2l4 -4l4 4v-2l162 166l10 10c1.33301 1.33301 4 3.16602 8 5.49902s7.33301 2.83301 10 1.5s5.66699 -3.66602 9 -6.99902c6 -6.66699 2.66699 -16.667 -10 -30l-170 -172l170 -172
c12.667 -13.333 16 -23.333 10 -30c-8.66699 -6 -14.834 -8.16699 -18.501 -6.5s-9.83398 7.16699 -18.501 16.5l-162 166v-2l-4 4z" />
    <glyph glyph-name="Oslash" unicode="&#xd8;" horiz-adv-x="802" 
d="M225 -8l12 29.999c-58 29.333 -100.5 73.833 -127.5 133.5s-40.5 126.5 -40.5 200.5c0 37.333 3.16699 73 9.5 107s17.333 67.667 33 101s35.667 62.333 60 87s56 44.5 95 59.5s83.5 22.5 133.5 22.5c46.667 0 89 -6.66699 127 -20l6 15c3.33301 8 6 13 8 15
s5 2.66699 9 2l22 -5c6 -2 6.66699 -9.33301 2 -22l-9 -21c57.333 -30 99.666 -74.667 126.999 -134s41 -125.666 41 -198.999c0 -36.667 -3 -72 -9 -106s-17 -67.833 -33 -101.5s-36 -62.667 -60 -87s-55.667 -44.166 -95 -59.499s-84 -23 -134 -23
c-46.667 0 -89 6.33301 -127 19l-12 -28c-3.33301 -7.33301 -5.66602 -11.833 -6.99902 -13.5s-4 -1.83398 -8 -0.500977l-22 7c-6 2 -6.33301 9 -1 21zM399 697.999c-43.333 0 -82.333 -6.83301 -117 -20.5s-62.5 -31.5 -83.5 -53.5s-38.5 -48 -52.5 -78
s-23.667 -60 -29 -90s-8 -61.333 -8 -94c0 -40.667 4.16699 -79.167 12.5 -115.5s23.5 -72 45.5 -107s50.333 -62.167 85 -81.5l260 621c-34 12.667 -71.667 19 -113 19zM693 357.999c0 62 -11.333 120.667 -34 176s-59 97.666 -109 126.999l-261 -620
c34.667 -12.667 73 -19 115 -19c45.333 0 85.5 7.33301 120.5 22s62.833 33.167 83.5 55.5s37.667 49 51 80s22.333 60.833 27 89.5s7 58.334 7 89.001z" />
    <glyph glyph-name="Ugrave" unicode="&#xd9;" horiz-adv-x="696" 
d="M348 32c69.333 0 120.502 19.833 153.502 59.5s49.5 100.834 49.5 183.501v435c0 8 4.33301 12 13 12h14c8.66699 0 13 -4 13 -12v-437c0 -90.667 -18.833 -160 -56.5 -208s-99.834 -72 -186.501 -72s-148.834 24 -186.501 72s-56.5 117.333 -56.5 208v437
c0 8 4.33301 12 13 12h14c8.66699 0 13 -4 13 -12v-435c0 -82.667 16.5 -143.834 49.5 -183.501s84.167 -59.5 153.5 -59.5zM395.002 805l-2 -5.99902c-2.66699 -4.66699 -10.667 -4.66699 -24 0l-153 57c-9.33301 4 -12 10.333 -8 19l7 13
c4 7.33301 10.667 8.66602 20 3.99902l153 -70c8.66699 -4 11 -9.66699 7 -17z" />
    <glyph glyph-name="Uacute" unicode="&#xda;" horiz-adv-x="696" 
d="M348 32c69.333 0 120.502 19.833 153.502 59.5s49.5 100.834 49.5 183.501v435c0 8 4.33301 12 13 12h14c8.66699 0 13 -4 13 -12v-437c0 -90.667 -18.833 -160 -56.5 -208s-99.834 -72 -186.501 -72s-148.834 24 -186.501 72s-56.5 117.333 -56.5 208v437
c0 8 4.33301 12 13 12h14c8.66699 0 13 -4 13 -12v-435c0 -82.667 16.5 -143.834 49.5 -183.501s84.167 -59.5 153.5 -59.5zM309.002 801l-5.00195 9.99805c-3.33301 6.66699 -2.66602 11.334 2.00098 14.001l150 80c8 4.66699 14 3.33398 18 -3.99902l9 -15
c4.66699 -8.66699 2.66699 -15 -6 -19l-152 -69c-7.33301 -3.33301 -12.666 -2.33301 -15.999 3z" />
    <glyph glyph-name="Ucircumflex" unicode="&#xdb;" horiz-adv-x="696" 
d="M348 32c69.333 0 120.502 19.833 153.502 59.5s49.5 100.834 49.5 183.501v435c0 8 4.33301 12 13 12h14c8.66699 0 13 -4 13 -12v-437c0 -90.667 -18.833 -160 -56.5 -208s-99.834 -72 -186.501 -72s-148.834 24 -186.501 72s-56.5 117.333 -56.5 208v437
c0 8 4.33301 12 13 12h14c8.66699 0 13 -4 13 -12v-435c0 -82.667 16.5 -143.834 49.5 -183.501s84.167 -59.5 153.5 -59.5zM432.002 802l-83.998 83l-84 -83c-8.66699 -8.66699 -16.334 -13 -23.001 -13h-21c-9.33301 0 -10.333 4.66699 -3 14
c1.33301 2 2.66602 3.66699 3.99902 5l97 100c8.66699 9.33301 18.334 14 29.001 14c10 0 20 -5 30 -15l98 -99c8.66699 -10.667 9 -17 1 -19h-21c-6.66699 0 -14.334 4.33301 -23.001 13z" />
    <glyph glyph-name="Udieresis" unicode="&#xdc;" horiz-adv-x="696" 
d="M348 32c69.333 0 120.502 19.833 153.502 59.5s49.5 100.834 49.5 183.501v435c0 8 4.33301 12 13 12h14c8.66699 0 13 -4 13 -12v-437c0 -90.667 -18.833 -160 -56.5 -208s-99.834 -72 -186.501 -72s-148.834 24 -186.501 72s-56.5 117.333 -56.5 208v437
c0 8 4.33301 12 13 12h14c8.66699 0 13 -4 13 -12v-435c0 -82.667 16.5 -143.834 49.5 -183.501s84.167 -59.5 153.5 -59.5zM240.002 835c0 11.333 3.66699 20.832 11 28.499s16 11.5 26 11.5s18.5 -3.5 25.5 -10.5s10.5 -16.167 10.5 -27.5
c0 -10.667 -3.83301 -19.667 -11.5 -27s-16.5 -11 -26.5 -11c-10.667 0 -19.167 3.33301 -25.5 10s-9.5 15.334 -9.5 26.001zM384.002 834.999c0 11.333 3.83301 20.832 11.5 28.499s16.5 11.5 26.5 11.5s18.333 -3.5 25 -10.5s10 -16.167 10 -27.5
c0 -10.667 -3.83301 -19.667 -11.5 -27s-16.5 -11 -26.5 -11s-18.333 3.33301 -25 10s-10 15.334 -10 26.001z" />
    <glyph glyph-name="Yacute" unicode="&#xdd;" horiz-adv-x="573" 
d="M275 294l-227.002 412c-5.33301 10.667 -3.33301 16 6 16h18c6 0 9.83301 -0.666992 11.5 -2s3.83398 -4.66602 6.50098 -9.99902l204 -372l205 372c2.66699 5.33301 4.83398 8.66602 6.50098 9.99902s5.16699 2 10.5 2h19c9.33301 0 11.333 -5.33301 6 -16l-227 -412
v-282c0 -8 -4.33301 -12 -13 -12h-13c-8.66699 0 -13 4 -13 12v282zM254.998 801l-5.00195 9.99805c-3.33301 6.66699 -2.66602 11.334 2.00098 14.001l150 80c8 4.66699 14 3.33398 18 -3.99902l9 -15c4.66699 -8.66699 2.66699 -15 -6 -19l-152 -69
c-7.33301 -3.33301 -12.666 -2.33301 -15.999 3z" />
    <glyph glyph-name="Thorn" unicode="&#xde;" horiz-adv-x="591" 
d="M153 -141c0 -11.333 -4.99902 -17.3311 -14.999 -17.998h-11c-9.33301 0 -14 5.66699 -14 17v866c0 11.333 5 17.333 15 18h11c9.33301 0 14 -5.66699 14 -17v-201c40 4.66699 79.333 7 118 7c75.333 0 137.666 -21 186.999 -63s74 -98 74 -168
c0 -50.667 -12.833 -94.334 -38.5 -131.001s-57.167 -63.334 -94.5 -80.001s-77.333 -25 -120 -25c-44.667 0 -86.667 5.33301 -126 16v-221zM153.001 488.002v-370c39.333 -12.667 80 -19 122 -19c58 0 108.667 17 152 51s65 84 65 150c0 62.667 -21 111 -63 145
s-93.667 51 -155 51c-54.667 0 -95 -2.66699 -121 -8z" />
    <glyph glyph-name="germandbls" unicode="&#xdf;" horiz-adv-x="591" 
d="M314 30c50 0 91.166 14.4971 123.499 43.4971s48.5 70.167 48.5 123.5c0 58 -18.333 101.667 -55 131s-78 44 -124 44h-76c-4 0 -6 3 -6 9v16c0 6.66699 2.66699 10 8 10h74c11.333 0 23.833 2 37.5 6s28.334 10.833 44.001 20.5s28.834 24.5 39.501 44.5
s16 43.667 16 71c0 45.333 -14.167 80.833 -42.5 106.5s-65.166 38.5 -110.499 38.5c-48 0 -86.5 -13.667 -115.5 -41s-43.5 -62.666 -43.5 -105.999v-766c0 -5.33301 -3 -8 -9 -8h-24c-4.66699 0 -7 2.66699 -7 8v765c0 54 17.167 98.5 51.5 133.5s82.833 52.5 145.5 52.5
c59.333 0 106.666 -16.167 141.999 -48.5s53 -76.166 53 -131.499c0 -44 -10.667 -80.333 -32 -109s-47.666 -45.667 -78.999 -51c15.333 -2.66699 30.666 -7.33398 45.999 -14.001s32 -17 50 -31s32.5 -34 43.5 -60s16.5 -56.333 16.5 -91
c0 -65.333 -19.333 -115.166 -58 -149.499s-91.334 -51.5 -158.001 -51.5c-52 0 -97.667 7.66699 -137 23c-6.66699 2.66699 -10 8 -10 16v9c0 6 0.5 9.66699 1.5 11s3.5 2 7.5 2c0.666992 0 8.16699 -2.16699 22.5 -6.5s32.5 -8.66602 54.5 -12.999s42.667 -6.5 62 -6.5z
" />
    <glyph glyph-name="agrave" unicode="&#xe0;" horiz-adv-x="545" 
d="M437 361l-0.00195312 -286.999c0 -26.667 10.667 -40 32 -40c9.33301 0 22 2 38 6c5.33301 2 9.33301 2.5 12 1.5s4 -4.16699 4 -9.5v-14c0 -7.33301 -4 -12.333 -12 -15c-16.667 -4.66699 -32 -7 -46 -7c-45.333 0 -68 25 -68 75v16c-39.333 -62 -101.333 -93 -186 -93
c-51.333 0 -90.166 11.833 -116.499 35.5s-39.5 57.834 -39.5 102.501c0 58.667 23 101.5 69 128.5s117 40.5 213 40.5h60v60c0 56.667 -12.333 95 -37 115s-62 30 -112 30c-50.667 0 -99 -7.66699 -145 -23c-9.33301 -3.33301 -14 -0.333008 -14 9v15
c0 4.66699 0.666992 7.66699 2 9s5.33301 3.33301 12 6c40 14.667 88.333 22 145 22c26.667 0 49.667 -2.16699 69 -6.5s38.833 -12.333 58.5 -24s34.834 -30.334 45.501 -56.001s16 -57.834 16 -96.501zM94.998 132.001c0 -66.667 38.666 -100 115.999 -100
c54.667 0 99.334 16 134.001 48s52 76.667 52 134v49h-60c-84 0 -145.333 -10.5 -184 -31.5s-58 -54.167 -58 -99.5zM313.997 637.001l-2 -5.99902c-2.66699 -4.66699 -10.667 -4.66699 -24 0l-153 57c-9.33301 4 -12 10.333 -8 19l7 13
c4 7.33301 10.667 8.66602 20 3.99902l153 -70c8.66699 -4 11 -9.66699 7 -17z" />
    <glyph glyph-name="aacute" unicode="&#xe1;" horiz-adv-x="545" 
d="M437 361l-0.00195312 -286.999c0 -26.667 10.667 -40 32 -40c9.33301 0 22 2 38 6c5.33301 2 9.33301 2.5 12 1.5s4 -4.16699 4 -9.5v-14c0 -7.33301 -4 -12.333 -12 -15c-16.667 -4.66699 -32 -7 -46 -7c-45.333 0 -68 25 -68 75v16c-39.333 -62 -101.333 -93 -186 -93
c-51.333 0 -90.166 11.833 -116.499 35.5s-39.5 57.834 -39.5 102.501c0 58.667 23 101.5 69 128.5s117 40.5 213 40.5h60v60c0 56.667 -12.333 95 -37 115s-62 30 -112 30c-50.667 0 -99 -7.66699 -145 -23c-9.33301 -3.33301 -14 -0.333008 -14 9v15
c0 4.66699 0.666992 7.66699 2 9s5.33301 3.33301 12 6c40 14.667 88.333 22 145 22c26.667 0 49.667 -2.16699 69 -6.5s38.833 -12.333 58.5 -24s34.834 -30.334 45.501 -56.001s16 -57.834 16 -96.501zM94.998 132.001c0 -66.667 38.666 -100 115.999 -100
c54.667 0 99.334 16 134.001 48s52 76.667 52 134v49h-60c-84 0 -145.333 -10.5 -184 -31.5s-58 -54.167 -58 -99.5zM217.997 638.001l-5.00195 9.99805c-3.33301 6.66699 -2.66602 11.334 2.00098 14.001l150 80c8 4.66699 14 3.33398 18 -3.99902l9 -15
c4.66699 -8.66699 2.66699 -15 -6 -19l-152 -69c-7.33301 -3.33301 -12.666 -2.33301 -15.999 3z" />
    <glyph glyph-name="acircumflex" unicode="&#xe2;" horiz-adv-x="545" 
d="M437 361l-0.00195312 -286.999c0 -26.667 10.667 -40 32 -40c9.33301 0 22 2 38 6c5.33301 2 9.33301 2.5 12 1.5s4 -4.16699 4 -9.5v-14c0 -7.33301 -4 -12.333 -12 -15c-16.667 -4.66699 -32 -7 -46 -7c-45.333 0 -68 25 -68 75v16c-39.333 -62 -101.333 -93 -186 -93
c-51.333 0 -90.166 11.833 -116.499 35.5s-39.5 57.834 -39.5 102.501c0 58.667 23 101.5 69 128.5s117 40.5 213 40.5h60v60c0 56.667 -12.333 95 -37 115s-62 30 -112 30c-50.667 0 -99 -7.66699 -145 -23c-9.33301 -3.33301 -14 -0.333008 -14 9v15
c0 4.66699 0.666992 7.66699 2 9s5.33301 3.33301 12 6c40 14.667 88.333 22 145 22c26.667 0 49.667 -2.16699 69 -6.5s38.833 -12.333 58.5 -24s34.834 -30.334 45.501 -56.001s16 -57.834 16 -96.501zM94.998 132.001c0 -66.667 38.666 -100 115.999 -100
c54.667 0 99.334 16 134.001 48s52 76.667 52 134v49h-60c-84 0 -145.333 -10.5 -184 -31.5s-58 -54.167 -58 -99.5zM340.997 634.001l-83.998 83l-84 -83c-8.66699 -8.66699 -16.334 -13 -23.001 -13h-21c-9.33301 0 -10.333 4.66699 -3 14
c1.33301 2 2.66602 3.66699 3.99902 5l97 100c8.66699 9.33301 18.334 14 29.001 14c10 0 20 -5 30 -15l98 -99c8.66699 -10.667 9 -17 1 -19h-21c-6.66699 0 -14.334 4.33301 -23.001 13z" />
    <glyph glyph-name="atilde" unicode="&#xe3;" horiz-adv-x="545" 
d="M437 361l-0.00195312 -286.999c0 -26.667 10.667 -40 32 -40c9.33301 0 22 2 38 6c5.33301 2 9.33301 2.5 12 1.5s4 -4.16699 4 -9.5v-14c0 -7.33301 -4 -12.333 -12 -15c-16.667 -4.66699 -32 -7 -46 -7c-45.333 0 -68 25 -68 75v16c-39.333 -62 -101.333 -93 -186 -93
c-51.333 0 -90.166 11.833 -116.499 35.5s-39.5 57.834 -39.5 102.501c0 58.667 23 101.5 69 128.5s117 40.5 213 40.5h60v60c0 56.667 -12.333 95 -37 115s-62 30 -112 30c-50.667 0 -99 -7.66699 -145 -23c-9.33301 -3.33301 -14 -0.333008 -14 9v15
c0 4.66699 0.666992 7.66699 2 9s5.33301 3.33301 12 6c40 14.667 88.333 22 145 22c26.667 0 49.667 -2.16699 69 -6.5s38.833 -12.333 58.5 -24s34.834 -30.334 45.501 -56.001s16 -57.834 16 -96.501zM94.998 132.001c0 -66.667 38.666 -100 115.999 -100
c54.667 0 99.334 16 134.001 48s52 76.667 52 134v49h-60c-84 0 -145.333 -10.5 -184 -31.5s-58 -54.167 -58 -99.5zM300.997 666.001c9.33301 0 17.3291 3.32812 23.9961 9.99512s10 16.334 10 29.001c0 4 2.33301 6 7 6h19c4 0 6 -2.33301 6 -7
c0 -22.667 -6 -40.167 -18 -52.5s-28 -18.5 -48 -18.5c-31.333 0 -51 9.66699 -59 29c-0.666992 0.666992 -1.5 2.33398 -2.5 5.00098s-1.83301 4.33398 -2.5 5.00098s-1.66699 2 -3 4s-2.66602 3.33301 -3.99902 4s-3.16602 1.33398 -5.49902 2.00098
s-5.16602 1 -8.49902 1c-9.33301 0 -17.166 -3.5 -23.499 -10.5s-9.5 -16.5 -9.5 -28.5c0 -4.66699 -2.33301 -7 -7 -7h-18c-2.66699 0 -4.5 0.333008 -5.5 1s-1.5 3 -1.5 7c0 22 6.16699 39.167 18.5 51.5s27.833 18.5 46.5 18.5c12.667 0 23 -2 31 -6
s13.333 -7.66699 16 -11s6 -8.66602 10 -15.999c4.66699 -10.667 14 -16 28 -16z" />
    <glyph glyph-name="adieresis" unicode="&#xe4;" horiz-adv-x="545" 
d="M437 361l-0.00195312 -286.999c0 -26.667 10.667 -40 32 -40c9.33301 0 22 2 38 6c5.33301 2 9.33301 2.5 12 1.5s4 -4.16699 4 -9.5v-14c0 -7.33301 -4 -12.333 -12 -15c-16.667 -4.66699 -32 -7 -46 -7c-45.333 0 -68 25 -68 75v16c-39.333 -62 -101.333 -93 -186 -93
c-51.333 0 -90.166 11.833 -116.499 35.5s-39.5 57.834 -39.5 102.501c0 58.667 23 101.5 69 128.5s117 40.5 213 40.5h60v60c0 56.667 -12.333 95 -37 115s-62 30 -112 30c-50.667 0 -99 -7.66699 -145 -23c-9.33301 -3.33301 -14 -0.333008 -14 9v15
c0 4.66699 0.666992 7.66699 2 9s5.33301 3.33301 12 6c40 14.667 88.333 22 145 22c26.667 0 49.667 -2.16699 69 -6.5s38.833 -12.333 58.5 -24s34.834 -30.334 45.501 -56.001s16 -57.834 16 -96.501zM94.998 132.001c0 -66.667 38.666 -100 115.999 -100
c54.667 0 99.334 16 134.001 48s52 76.667 52 134v49h-60c-84 0 -145.333 -10.5 -184 -31.5s-58 -54.167 -58 -99.5zM148.997 667.001c0 11.333 3.66602 20.832 10.999 28.499s16 11.5 26 11.5c10.667 0 19.334 -3.5 26.001 -10.5s10 -16.167 10 -27.5
c0 -10.667 -3.83301 -19.667 -11.5 -27s-16.5 -11 -26.5 -11c-10.667 0 -19.167 3.33301 -25.5 10s-9.5 15.334 -9.5 26.001zM292.996 667c0 11.333 3.83301 20.832 11.5 28.499s16.5 11.5 26.5 11.5s18.333 -3.5 25 -10.5s10 -16.167 10 -27.5
c0 -10.667 -3.83301 -19.667 -11.5 -27s-16.5 -11 -26.5 -11s-18.333 3.33301 -25 10s-10 15.334 -10 26.001z" />
    <glyph glyph-name="aring" unicode="&#xe5;" horiz-adv-x="545" 
d="M437 361l-0.00195312 -286.999c0 -26.667 10.667 -40 32 -40c9.33301 0 22 2 38 6c5.33301 2 9.33301 2.5 12 1.5s4 -4.16699 4 -9.5v-14c0 -7.33301 -4 -12.333 -12 -15c-16.667 -4.66699 -32 -7 -46 -7c-45.333 0 -68 25 -68 75v16c-39.333 -62 -101.333 -93 -186 -93
c-51.333 0 -90.166 11.833 -116.499 35.5s-39.5 57.834 -39.5 102.501c0 58.667 23 101.5 69 128.5s117 40.5 213 40.5h60v60c0 56.667 -12.333 95 -37 115s-62 30 -112 30c-50.667 0 -99 -7.66699 -145 -23c-9.33301 -3.33301 -14 -0.333008 -14 9v15
c0 4.66699 0.666992 7.66699 2 9s5.33301 3.33301 12 6c40 14.667 88.333 22 145 22c26.667 0 49.667 -2.16699 69 -6.5s38.833 -12.333 58.5 -24s34.834 -30.334 45.501 -56.001s16 -57.834 16 -96.501zM94.998 132.001c0 -66.667 38.666 -100 115.999 -100
c54.667 0 99.334 16 134.001 48s52 76.667 52 134v49h-60c-84 0 -145.333 -10.5 -184 -31.5s-58 -54.167 -58 -99.5zM255.997 624.001c-28.667 0 -52 7.5 -70 22.5s-27 34.833 -27 59.5s8.83301 44.5 26.5 59.5s41.167 22.5 70.5 22.5s53 -7.5 71 -22.5s27 -34.833 27 -59.5
s-9 -44.5 -27 -59.5s-41.667 -22.5 -71 -22.5zM255.997 653.001c16.667 0 31 4.83301 43 14.5s18 22.5 18 38.5s-5.83301 28.833 -17.5 38.5s-26.167 14.5 -43.5 14.5s-31.833 -4.83301 -43.5 -14.5s-17.5 -22.5 -17.5 -38.5s6 -28.833 18 -38.5s26.333 -14.5 43 -14.5z" />
    <glyph glyph-name="ae" unicode="&#xe6;" horiz-adv-x="905" 
d="M635 544c68.667 0 121.663 -16.501 158.996 -49.501s56 -78.833 56 -137.5c0 -52.667 -18.333 -93.667 -55 -123s-92.334 -44 -167.001 -44c-72 0 -134.667 11 -188 33c10 -134 78 -201 204 -201c32.667 0 63 4 91 12c16.667 4.66699 38.334 12.667 65.001 24
c6.66699 2.66699 10 0.666992 10 -6v-15c0 -4.66699 -0.833008 -8 -2.5 -10s-6.16699 -4.66699 -13.5 -8c-46.667 -21.333 -95.667 -32 -147 -32c-118 0 -194.333 47.667 -229 143c-34 -90.667 -103 -136 -207 -136c-51.333 0 -90.166 11.833 -116.499 35.5
s-39.5 57.834 -39.5 102.501c0 58.667 23 101.5 69 128.5s117 40.5 213 40.5h60v60c0 56.667 -12.333 95 -37 115s-62 30 -112 30c-50.667 0 -99 -7.66699 -145 -23c-9.33301 -3.33301 -14 -0.333008 -14 9v15c0 4.66699 0.666992 7.66699 2 9s5.33301 3.33301 12 6
c40 14.667 88.333 22 145 22c30.667 0 56.834 -2.5 78.501 -7.5s42.834 -17 63.501 -36s34.334 -45.167 41.001 -78.5c39.333 81.333 107.333 122 204 122zM634.996 508.999c-64.667 0 -113.501 -21.832 -146.501 -65.499s-49.5 -104.834 -49.5 -183.501v-2
c56.667 -22 116.334 -33 179.001 -33c128 0 192 45.667 192 137c0 46 -15.667 82 -47 108s-74 39 -128 39zM94.9951 132c0 -66.667 38.666 -100 115.999 -100c54.667 0 99.334 16 134.001 48s52 76.667 52 134v49h-60c-84 0 -145.333 -10.5 -184 -31.5
s-58 -54.167 -58 -99.5z" />
    <glyph glyph-name="ccedilla" unicode="&#xe7;" horiz-adv-x="508" 
d="M252 -62l26.999 55.002c-73.333 4 -127.333 30.167 -162 78.5s-52 113.5 -52 195.5c0 86.667 19.333 154.5 58 203.5s98.334 73.5 179.001 73.5c56.667 0 101.667 -10 135 -30c8.66699 -5.33301 13 -11 13 -17v-18c0 -8 -4 -10.333 -12 -7c-0.666992 0 -4.66699 2 -12 6
s-14.166 7.16699 -20.499 9.5s-14.833 5.16602 -25.5 8.49902s-22.5 5.83301 -35.5 7.5s-26.833 2.5 -41.5 2.5c-130.667 0 -196 -79.333 -196 -238s63.333 -238 190 -238c41.333 0 87 9.66699 137 29c10.667 4 16 1.66699 16 -7v-13c0 -8.66699 -3 -14.667 -9 -18
c-28.667 -16 -69 -25.333 -121 -28l-16 -32c29.333 4.66699 54.166 0.833984 74.499 -11.499s30.5 -33.5 30.5 -63.5c0 -57.333 -38 -86 -114 -86c-34.667 0 -57 1.33301 -67 4c-4.66699 1.33301 -7 5.33301 -7 12v12c0 5.33301 0.5 8.66602 1.5 9.99902
s3.5 1.66602 7.5 0.999023c23.333 -2.66699 45 -4 65 -4c52 0 78 17 78 51c0 29.333 -18 44 -54 44c-7.33301 0 -18 -0.666992 -32 -2s-22.333 -2 -25 -2c-10.667 0 -14 4 -10 12z" />
    <glyph glyph-name="egrave" unicode="&#xe8;" horiz-adv-x="549" 
d="M289 544c62 0 109.5 -14.502 142.5 -43.502s49.5 -70.167 49.5 -123.5s-16.833 -94.5 -50.5 -123.5s-84.834 -43.5 -153.501 -43.5c-66 0 -123.333 11 -172 33c2 -77.333 19.667 -132.166 53 -164.499s82.333 -48.5 147 -48.5c49.333 0 94 8.33301 134 25
c24.667 10.667 37.334 16 38.001 16c4.66699 0 7 -2.33301 7 -7v-22c0 -6 -6.66699 -12 -20 -18c-46 -21.333 -99.333 -32 -160 -32c-159.333 0 -239 89 -239 267c0 88.667 19.333 158.334 58 209.001s94 76 166 76zM289 505.998c-57.333 0 -101.5 -19.5 -132.5 -58.5
s-48.167 -94.833 -51.5 -167.5c54.667 -21.333 112 -32 172 -32c109.333 0 164 43.667 164 131c0 84.667 -50.667 127 -152 127zM336 636.998l-2 -5.99902c-2.66699 -4.66699 -10.667 -4.66699 -24 0l-153 57c-9.33301 4 -12 10.333 -8 19l7 13
c4 7.33301 10.667 8.66602 20 3.99902l153 -70c8.66699 -4 11 -9.66699 7 -17z" />
    <glyph glyph-name="eacute" unicode="&#xe9;" horiz-adv-x="549" 
d="M289 544c62 0 109.5 -14.502 142.5 -43.502s49.5 -70.167 49.5 -123.5s-16.833 -94.5 -50.5 -123.5s-84.834 -43.5 -153.501 -43.5c-66 0 -123.333 11 -172 33c2 -77.333 19.667 -132.166 53 -164.499s82.333 -48.5 147 -48.5c49.333 0 94 8.33301 134 25
c24.667 10.667 37.334 16 38.001 16c4.66699 0 7 -2.33301 7 -7v-22c0 -6 -6.66699 -12 -20 -18c-46 -21.333 -99.333 -32 -160 -32c-159.333 0 -239 89 -239 267c0 88.667 19.333 158.334 58 209.001s94 76 166 76zM289 505.998c-57.333 0 -101.5 -19.5 -132.5 -58.5
s-48.167 -94.833 -51.5 -167.5c54.667 -21.333 112 -32 172 -32c109.333 0 164 43.667 164 131c0 84.667 -50.667 127 -152 127zM250 632.998l-5.00195 9.99805c-3.33301 6.66699 -2.66602 11.334 2.00098 14.001l150 80c8 4.66699 14 3.33398 18 -3.99902l9 -15
c4.66699 -8.66699 2.66699 -15 -6 -19l-152 -69c-7.33301 -3.33301 -12.666 -2.33301 -15.999 3z" />
    <glyph glyph-name="ecircumflex" unicode="&#xea;" horiz-adv-x="549" 
d="M289 544c62 0 109.5 -14.502 142.5 -43.502s49.5 -70.167 49.5 -123.5s-16.833 -94.5 -50.5 -123.5s-84.834 -43.5 -153.501 -43.5c-66 0 -123.333 11 -172 33c2 -77.333 19.667 -132.166 53 -164.499s82.333 -48.5 147 -48.5c49.333 0 94 8.33301 134 25
c24.667 10.667 37.334 16 38.001 16c4.66699 0 7 -2.33301 7 -7v-22c0 -6 -6.66699 -12 -20 -18c-46 -21.333 -99.333 -32 -160 -32c-159.333 0 -239 89 -239 267c0 88.667 19.333 158.334 58 209.001s94 76 166 76zM289 505.998c-57.333 0 -101.5 -19.5 -132.5 -58.5
s-48.167 -94.833 -51.5 -167.5c54.667 -21.333 112 -32 172 -32c109.333 0 164 43.667 164 131c0 84.667 -50.667 127 -152 127zM373 633.998l-83.998 83l-84 -83c-8.66699 -8.66699 -16.334 -13 -23.001 -13h-21c-9.33301 0 -10.333 4.66699 -3 14
c1.33301 2 2.66602 3.66699 3.99902 5l97 100c8.66699 9.33301 18.334 14 29.001 14c10 0 20 -5 30 -15l98 -99c8.66699 -10.667 9 -17 1 -19h-21c-6.66699 0 -14.334 4.33301 -23.001 13z" />
    <glyph glyph-name="edieresis" unicode="&#xeb;" horiz-adv-x="549" 
d="M289 544c62 0 109.5 -14.502 142.5 -43.502s49.5 -70.167 49.5 -123.5s-16.833 -94.5 -50.5 -123.5s-84.834 -43.5 -153.501 -43.5c-66 0 -123.333 11 -172 33c2 -77.333 19.667 -132.166 53 -164.499s82.333 -48.5 147 -48.5c49.333 0 94 8.33301 134 25
c24.667 10.667 37.334 16 38.001 16c4.66699 0 7 -2.33301 7 -7v-22c0 -6 -6.66699 -12 -20 -18c-46 -21.333 -99.333 -32 -160 -32c-159.333 0 -239 89 -239 267c0 88.667 19.333 158.334 58 209.001s94 76 166 76zM289 505.998c-57.333 0 -101.5 -19.5 -132.5 -58.5
s-48.167 -94.833 -51.5 -167.5c54.667 -21.333 112 -32 172 -32c109.333 0 164 43.667 164 131c0 84.667 -50.667 127 -152 127zM181 666.998c0 11.333 3.66602 20.832 10.999 28.499s16 11.5 26 11.5c10.667 0 19.334 -3.5 26.001 -10.5s10 -16.167 10 -27.5
c0 -10.667 -3.83301 -19.667 -11.5 -27s-16.5 -11 -26.5 -11c-10.667 0 -19.167 3.33301 -25.5 10s-9.5 15.334 -9.5 26.001zM324.999 666.997c0 11.333 3.83301 20.832 11.5 28.499s16.5 11.5 26.5 11.5s18.333 -3.5 25 -10.5s10 -16.167 10 -27.5
c0 -10.667 -3.83301 -19.667 -11.5 -27s-16.5 -11 -26.5 -11s-18.333 3.33301 -25 10s-10 15.334 -10 26.001z" />
    <glyph glyph-name="igrave" unicode="&#xec;" horiz-adv-x="225" 
d="M139 520v-508c0 -8 -4.33301 -12 -13 -12h-14c-8.66699 0 -13 4 -13 12v508c0 8 4.33301 12 13 12h14c8.66699 0 13 -4 13 -12zM165 637l-2 -5.99902c-2.66699 -4.66699 -10.667 -4.66699 -24 0l-153 57c-9.33301 4 -12 10.333 -8 19l7 13
c4 7.33301 10.667 8.66602 20 3.99902l153 -70c8.66699 -4 11 -9.66699 7 -17z" />
    <glyph glyph-name="iacute" unicode="&#xed;" horiz-adv-x="225" 
d="M137 520v-508c0 -8 -4.33301 -12 -13 -12h-14c-8.66699 0 -13 4 -13 12v508c0 8 4.33301 12 13 12h14c8.66699 0 13 -4 13 -12zM77 633l-5.00195 9.99805c-3.33301 6.66699 -2.66602 11.334 2.00098 14.001l150 80c8 4.66699 14 3.33398 18 -3.99902l9 -15
c4.66699 -8.66699 2.66699 -15 -6 -19l-152 -69c-7.33301 -3.33301 -12.666 -2.33301 -15.999 3z" />
    <glyph glyph-name="icircumflex" unicode="&#xee;" horiz-adv-x="226" 
d="M144 520v-508c0 -8 -4.33301 -12 -13 -12h-14c-8.66699 0 -13 4 -13 12v508c0 8 4.33301 12 13 12h14c8.66699 0 13 -4 13 -12zM207 634l-83.998 83l-84 -83c-8.66699 -8.66699 -16.334 -13 -23.001 -13h-21c-9.33301 0 -10.333 4.66699 -3 14
c1.33301 2 2.66602 3.66699 3.99902 5l97 100c8.66699 9.33301 18.334 14 29.001 14c10 0 20 -5 30 -15l98 -99c8.66699 -10.667 9 -17 1 -19h-21c-6.66699 0 -14.334 4.33301 -23.001 13z" />
    <glyph glyph-name="idieresis" unicode="&#xef;" horiz-adv-x="226" 
d="M133 520v-508c0 -8 -4.33301 -12 -13 -12h-14c-8.66699 0 -13 4 -13 12v508c0 8 4.33301 12 13 12h14c8.66699 0 13 -4 13 -12zM4 667c0 11.333 3.66699 20.832 11 28.499s16 11.5 26 11.5s18.5 -3.5 25.5 -10.5s10.5 -16.167 10.5 -27.5
c0 -10.667 -3.83301 -19.667 -11.5 -27s-16.5 -11 -26.5 -11c-10.667 0 -19.167 3.33301 -25.5 10s-9.5 15.334 -9.5 26.001zM148 666.999c0 11.333 3.83301 20.832 11.5 28.499s16.5 11.5 26.5 11.5s18.333 -3.5 25 -10.5s10 -16.167 10 -27.5
c0 -10.667 -3.83301 -19.667 -11.5 -27s-16.5 -11 -26.5 -11s-18.333 3.33301 -25 10s-10 15.334 -10 26.001z" />
    <glyph glyph-name="eth" unicode="&#xf0;" horiz-adv-x="597" 
d="M536 638l-117.004 -46.0029c75.333 -96.667 113 -194 113 -292c0 -23.333 -2 -47.5 -6 -72.5s-11.667 -52.167 -23 -81.5s-25.833 -55.333 -43.5 -78s-42 -41.5 -73 -56.5s-66.167 -22.5 -105.5 -22.5c-73.333 0 -129.666 22.833 -168.999 68.5s-59 99.167 -59 160.5
c0 65.333 21.667 120.5 65 165.5s100.333 67.5 171 67.5c96 0 163.333 -48.333 202 -145c-9.33301 108 -45.333 198.667 -108 272l-137 -54c-17.333 -6.66699 -28 -4 -32 8c-3.33301 8.66699 -4 14.834 -2 18.501s7.66699 7.5 17 11.5l123 48
c-25.333 24.667 -67.666 60.334 -126.999 107.001c-6 4.66699 -9 9.33398 -9 14.001c0 4 1.33301 7.33301 4 10l4 3c5.33301 4.66699 10 7 14 7c4.66699 0 10 -1.66699 16 -5c44.667 -28.667 90.334 -69 137.001 -121l135 53c12.667 5.33301 21.334 2 26.001 -10
c5.33301 -14 0 -24 -16 -30zM281.996 29.9971c63.333 0 111.168 19.999 143.501 59.999s48.5 85.333 48.5 136c0 54 -17.833 99.167 -53.5 135.5s-80.5 54.5 -134.5 54.5c-54.667 0 -100.334 -18.833 -137.001 -56.5s-55 -84.5 -55 -140.5
c0 -51.333 16.167 -95.666 48.5 -132.999s78.833 -56 139.5 -56z" />
    <glyph glyph-name="ntilde" unicode="&#xf1;" horiz-adv-x="556" 
d="M295 506c-51.333 0 -91.334 -19.5 -120.001 -58.5s-43 -93.5 -43 -163.5v-272c0 -8 -4.33301 -12 -13 -12h-14c-8.66699 0 -13 4 -13 12v508c0 8 4.33301 12 13 12h14c8.66699 0 13 -4 13 -12v-85c14.667 36.667 37 64 67 82s63.667 27 101 27
c50.667 0 91.334 -16.167 122.001 -48.5s46 -77.833 46 -136.5v-347c0 -8 -4.33301 -12 -13 -12h-14c-8.66699 0 -13 4 -13 12v337c0 104.667 -44.333 157 -133 157zM326.999 666c9.33301 0 17.3291 3.32812 23.9961 9.99512s10 16.334 10 29.001c0 4 2.33301 6 7 6h19
c4 0 6 -2.33301 6 -7c0 -22.667 -6 -40.167 -18 -52.5s-28 -18.5 -48 -18.5c-31.333 0 -51 9.66699 -59 29c-0.666992 0.666992 -1.5 2.33398 -2.5 5.00098s-1.83301 4.33398 -2.5 5.00098s-1.66699 2 -3 4s-2.66602 3.33301 -3.99902 4s-3.16602 1.33398 -5.49902 2.00098
s-5.16602 1 -8.49902 1c-9.33301 0 -17.166 -3.5 -23.499 -10.5s-9.5 -16.5 -9.5 -28.5c0 -4.66699 -2.33301 -7 -7 -7h-18c-2.66699 0 -4.5 0.333008 -5.5 1s-1.5 3 -1.5 7c0 22 6.16699 39.167 18.5 51.5s27.833 18.5 46.5 18.5c12.667 0 23 -2 31 -6
s13.333 -7.66699 16 -11s6 -8.66602 10 -15.999c4.66699 -10.667 14 -16 28 -16z" />
    <glyph glyph-name="ograve" unicode="&#xf2;" horiz-adv-x="568" 
d="M66 266c0 85.333 17.5 153.002 52.5 203.002s90.167 75 165.5 75c74.667 0 129.667 -25 165 -75s53 -117.667 53 -203c0 -84.667 -17.667 -152.334 -53 -203.001s-90.333 -76 -165 -76c-75.333 0 -130.5 25.167 -165.5 75.5s-52.5 118.166 -52.5 203.499zM284 506.002
c-118.667 0 -178 -80 -178 -240c0 -160.667 59.333 -241 178 -241s178 80.333 178 241c0 160 -59.333 240 -178 240zM331 637.002l-2 -5.99902c-2.66699 -4.66699 -10.667 -4.66699 -24 0l-153 57c-9.33301 4 -12 10.333 -8 19l7 13c4 7.33301 10.667 8.66602 20 3.99902
l153 -70c8.66699 -4 11 -9.66699 7 -17z" />
    <glyph glyph-name="oacute" unicode="&#xf3;" horiz-adv-x="568" 
d="M66 266c0 85.333 17.5 153.002 52.5 203.002s90.167 75 165.5 75c74.667 0 129.667 -25 165 -75s53 -117.667 53 -203c0 -84.667 -17.667 -152.334 -53 -203.001s-90.333 -76 -165 -76c-75.333 0 -130.5 25.167 -165.5 75.5s-52.5 118.166 -52.5 203.499zM284 506.002
c-118.667 0 -178 -80 -178 -240c0 -160.667 59.333 -241 178 -241s178 80.333 178 241c0 160 -59.333 240 -178 240zM245 633.002l-5.00195 9.99805c-3.33301 6.66699 -2.66602 11.334 2.00098 14.001l150 80c8 4.66699 14 3.33398 18 -3.99902l9 -15
c4.66699 -8.66699 2.66699 -15 -6 -19l-152 -69c-7.33301 -3.33301 -12.666 -2.33301 -15.999 3z" />
    <glyph glyph-name="ocircumflex" unicode="&#xf4;" horiz-adv-x="568" 
d="M66 266c0 85.333 17.5 153.002 52.5 203.002s90.167 75 165.5 75c74.667 0 129.667 -25 165 -75s53 -117.667 53 -203c0 -84.667 -17.667 -152.334 -53 -203.001s-90.333 -76 -165 -76c-75.333 0 -130.5 25.167 -165.5 75.5s-52.5 118.166 -52.5 203.499zM284 506.002
c-118.667 0 -178 -80 -178 -240c0 -160.667 59.333 -241 178 -241s178 80.333 178 241c0 160 -59.333 240 -178 240zM368 634.002l-83.998 83l-84 -83c-8.66699 -8.66699 -16.334 -13 -23.001 -13h-21c-9.33301 0 -10.333 4.66699 -3 14
c1.33301 2 2.66602 3.66699 3.99902 5l97 100c8.66699 9.33301 18.334 14 29.001 14c10 0 20 -5 30 -15l98 -99c8.66699 -10.667 9 -17 1 -19h-21c-6.66699 0 -14.334 4.33301 -23.001 13z" />
    <glyph glyph-name="otilde" unicode="&#xf5;" horiz-adv-x="568" 
d="M66 266c0 85.333 17.5 153.002 52.5 203.002s90.167 75 165.5 75c74.667 0 129.667 -25 165 -75s53 -117.667 53 -203c0 -84.667 -17.667 -152.334 -53 -203.001s-90.333 -76 -165 -76c-75.333 0 -130.5 25.167 -165.5 75.5s-52.5 118.166 -52.5 203.499zM284 506.002
c-118.667 0 -178 -80 -178 -240c0 -160.667 59.333 -241 178 -241s178 80.333 178 241c0 160 -59.333 240 -178 240zM328 666.002c9.33301 0 17.3291 3.32812 23.9961 9.99512s10 16.334 10 29.001c0 4 2.33301 6 7 6h19c4 0 6 -2.33301 6 -7
c0 -22.667 -6 -40.167 -18 -52.5s-28 -18.5 -48 -18.5c-31.333 0 -51 9.66699 -59 29c-0.666992 0.666992 -1.5 2.33398 -2.5 5.00098s-1.83301 4.33398 -2.5 5.00098s-1.66699 2 -3 4s-2.66602 3.33301 -3.99902 4s-3.16602 1.33398 -5.49902 2.00098
s-5.16602 1 -8.49902 1c-9.33301 0 -17.166 -3.5 -23.499 -10.5s-9.5 -16.5 -9.5 -28.5c0 -4.66699 -2.33301 -7 -7 -7h-18c-2.66699 0 -4.5 0.333008 -5.5 1s-1.5 3 -1.5 7c0 22 6.16699 39.167 18.5 51.5s27.833 18.5 46.5 18.5c12.667 0 23 -2 31 -6
s13.333 -7.66699 16 -11s6 -8.66602 10 -15.999c4.66699 -10.667 14 -16 28 -16z" />
    <glyph glyph-name="odieresis" unicode="&#xf6;" horiz-adv-x="568" 
d="M66 266c0 85.333 17.5 153.002 52.5 203.002s90.167 75 165.5 75c74.667 0 129.667 -25 165 -75s53 -117.667 53 -203c0 -84.667 -17.667 -152.334 -53 -203.001s-90.333 -76 -165 -76c-75.333 0 -130.5 25.167 -165.5 75.5s-52.5 118.166 -52.5 203.499zM284 506.002
c-118.667 0 -178 -80 -178 -240c0 -160.667 59.333 -241 178 -241s178 80.333 178 241c0 160 -59.333 240 -178 240zM176 667.002c0 11.333 3.66699 20.832 11 28.499s16 11.5 26 11.5s18.5 -3.5 25.5 -10.5s10.5 -16.167 10.5 -27.5c0 -10.667 -3.83301 -19.667 -11.5 -27
s-16.5 -11 -26.5 -11c-10.667 0 -19.167 3.33301 -25.5 10s-9.5 15.334 -9.5 26.001zM320 667.001c0 11.333 3.83301 20.832 11.5 28.499s16.5 11.5 26.5 11.5s18.333 -3.5 25 -10.5s10 -16.167 10 -27.5c0 -10.667 -3.83301 -19.667 -11.5 -27s-16.5 -11 -26.5 -11
s-18.333 3.33301 -25 10s-10 15.334 -10 26.001z" />
    <glyph glyph-name="divide" unicode="&#xf7;" horiz-adv-x="536" 
d="M474 316h-411c-5.33301 0 -8 2.33301 -8 7v24c0 4.66699 2.33301 7 7 7h413c4.66699 0 7 -2.33301 7 -7v-24c0 -4.66699 -2.66699 -7 -8 -7zM239 526c0 10.667 3.33301 19.5 10 26.5s14.667 10.5 24 10.5c8.66699 0 16.167 -3.16699 22.5 -9.5s9.5 -14.5 9.5 -24.5
s-3.33301 -18.333 -10 -25s-15 -10 -25 -10c-9.33301 0 -16.833 2.83301 -22.5 8.5s-8.5 13.5 -8.5 23.5zM239 116c0 10.667 3.33301 19.5 10 26.5s14.667 10.5 24 10.5c8.66699 0 16.167 -3.16699 22.5 -9.5s9.5 -14.5 9.5 -24.5s-3.33301 -18.333 -10 -25s-15 -10 -25 -10
c-9.33301 0 -16.833 2.83301 -22.5 8.5s-8.5 13.5 -8.5 23.5z" />
    <glyph glyph-name="oslash" unicode="&#xf8;" horiz-adv-x="568" 
d="M120 -92l45.999 109.002c-66.667 43.333 -100 126.333 -100 249c0 85.333 17.5 153 52.5 203s90.167 75 165.5 75c36.667 0 68 -6 94 -18l50 118c3.33301 8 6 13 8 15s5 2.66699 9 2l22 -5c6 -2 6.66699 -9.33301 2 -22l-55 -130c58.667 -44.667 88 -124 88 -238
c0 -84.667 -17.667 -152.334 -53 -203.001s-90.333 -76 -165 -76c-28.667 0 -56 4.33301 -82 13l-44 -106c-3.33301 -7.33301 -5.66602 -11.833 -6.99902 -13.5s-4 -1.83398 -8 -0.500977l-22 7c-6 2 -6.33301 9 -1 21zM283.999 506.002
c-118.667 0 -178.001 -79.999 -178.001 -239.999c0 -104.667 25 -175.334 75 -212.001l182 436c-23.333 10.667 -49.666 16 -78.999 16zM461.998 266.003c0 94.667 -21 161.667 -63 201l-182 -432c18 -6.66699 40.333 -10 67 -10c118.667 0 178 80.333 178 241z" />
    <glyph glyph-name="ugrave" unicode="&#xf9;" horiz-adv-x="557" 
d="M251 28c56 0 98.833 17.168 128.5 51.501s44.5 82.166 44.5 143.499v297c0 8 4.33301 12 13 12h14c8.66699 0 13 -4 13 -12v-407l5 -99c0.666992 -9.33301 -2.33301 -14 -9 -14h-18c-7.33301 -0 -11.333 5.33301 -12 16l-4 69c-19.333 -33.333 -42.833 -57 -70.5 -71
s-62.5 -21 -104.5 -21c-56.667 0 -98 14.333 -124 43s-39 76 -39 142v342c0 8 4.33301 12 13 12h14c8.66699 0 13 -4 13 -12v-352c0 -93.333 41 -140 123 -140zM324 637.001l-2 -5.99902c-2.66699 -4.66699 -10.667 -4.66699 -24 0l-153 57c-9.33301 4 -12 10.333 -8 19
l7 13c4 7.33301 10.667 8.66602 20 3.99902l153 -70c8.66699 -4 11 -9.66699 7 -17z" />
    <glyph glyph-name="uacute" unicode="&#xfa;" horiz-adv-x="557" 
d="M251 28c56 0 98.833 17.168 128.5 51.501s44.5 82.166 44.5 143.499v297c0 8 4.33301 12 13 12h14c8.66699 0 13 -4 13 -12v-407l5 -99c0.666992 -9.33301 -2.33301 -14 -9 -14h-18c-7.33301 -0 -11.333 5.33301 -12 16l-4 69c-19.333 -33.333 -42.833 -57 -70.5 -71
s-62.5 -21 -104.5 -21c-56.667 0 -98 14.333 -124 43s-39 76 -39 142v342c0 8 4.33301 12 13 12h14c8.66699 0 13 -4 13 -12v-352c0 -93.333 41 -140 123 -140zM238 633.001l-5.00195 9.99805c-3.33301 6.66699 -2.66602 11.334 2.00098 14.001l150 80
c8 4.66699 14 3.33398 18 -3.99902l9 -15c4.66699 -8.66699 2.66699 -15 -6 -19l-152 -69c-7.33301 -3.33301 -12.666 -2.33301 -15.999 3z" />
    <glyph glyph-name="ucircumflex" unicode="&#xfb;" horiz-adv-x="557" 
d="M251 28c56 0 98.833 17.168 128.5 51.501s44.5 82.166 44.5 143.499v297c0 8 4.33301 12 13 12h14c8.66699 0 13 -4 13 -12v-407l5 -99c0.666992 -9.33301 -2.33301 -14 -9 -14h-18c-7.33301 -0 -11.333 5.33301 -12 16l-4 69c-19.333 -33.333 -42.833 -57 -70.5 -71
s-62.5 -21 -104.5 -21c-56.667 0 -98 14.333 -124 43s-39 76 -39 142v342c0 8 4.33301 12 13 12h14c8.66699 0 13 -4 13 -12v-352c0 -93.333 41 -140 123 -140zM361 634.001l-83.998 83l-84 -83c-8.66699 -8.66699 -16.334 -13 -23.001 -13h-21
c-9.33301 0 -10.333 4.66699 -3 14c1.33301 2 2.66602 3.66699 3.99902 5l97 100c8.66699 9.33301 18.334 14 29.001 14c10 0 20 -5 30 -15l98 -99c8.66699 -10.667 9 -17 1 -19h-21c-6.66699 0 -14.334 4.33301 -23.001 13z" />
    <glyph glyph-name="udieresis" unicode="&#xfc;" horiz-adv-x="557" 
d="M251 28c56 0 98.833 17.168 128.5 51.501s44.5 82.166 44.5 143.499v297c0 8 4.33301 12 13 12h14c8.66699 0 13 -4 13 -12v-407l5 -99c0.666992 -9.33301 -2.33301 -14 -9 -14h-18c-7.33301 -0 -11.333 5.33301 -12 16l-4 69c-19.333 -33.333 -42.833 -57 -70.5 -71
s-62.5 -21 -104.5 -21c-56.667 0 -98 14.333 -124 43s-39 76 -39 142v342c0 8 4.33301 12 13 12h14c8.66699 0 13 -4 13 -12v-352c0 -93.333 41 -140 123 -140zM169 667.001c0 11.333 3.66602 20.832 10.999 28.499s16 11.5 26 11.5c10.667 0 19.334 -3.5 26.001 -10.5
s10 -16.167 10 -27.5c0 -10.667 -3.83301 -19.667 -11.5 -27s-16.5 -11 -26.5 -11c-10.667 0 -19.167 3.33301 -25.5 10s-9.5 15.334 -9.5 26.001zM312.999 667c0 11.333 3.83301 20.832 11.5 28.499s16.5 11.5 26.5 11.5s18.333 -3.5 25 -10.5s10 -16.167 10 -27.5
c0 -10.667 -3.83301 -19.667 -11.5 -27s-16.5 -11 -26.5 -11s-18.333 3.33301 -25 10s-10 15.334 -10 26.001z" />
    <glyph glyph-name="yacute" unicode="&#xfd;" horiz-adv-x="527" 
d="M56 -229l0.000976562 17c0 6.66699 5.66699 8.66699 17 6c11.333 -3.33301 23 -5 35 -5c28.667 0 51.5 8 68.5 24s33.5 46.667 49.5 92l27 76l-204 539c-3.33301 8 -0.333008 12 9 12h18c7.33301 0 12.666 -4.33301 15.999 -13l181 -480l170 480
c2 5.33301 4.16699 8.83301 6.5 10.5s6.83301 2.5 13.5 2.5h12c10 0 13 -6 9 -18l-223 -621c-20.667 -57.333 -42.667 -95.333 -66 -114s-51 -28 -83 -28c-20.667 0 -36 1.66699 -46 5c-6.66699 2 -10 7 -10 15zM231.001 633l-5.00195 9.99805
c-3.33301 6.66699 -2.66602 11.334 2.00098 14.001l150 80c8 4.66699 14 3.33398 18 -3.99902l9 -15c4.66699 -8.66699 2.66699 -15 -6 -19l-152 -69c-7.33301 -3.33301 -12.666 -2.33301 -15.999 3z" />
    <glyph glyph-name="thorn" unicode="&#xfe;" horiz-adv-x="576" 
d="M133 398c11.333 48.667 33.499 85.167 66.499 109.5s72.833 36.5 119.5 36.5c126.667 0 190 -90.333 190 -271c0 -190.667 -74.333 -286 -223 -286c-51.333 0 -102.666 14.667 -153.999 44v-172c0 -11.333 -5 -17.333 -15 -18h-11c-9.33301 0 -14 5.66699 -14 17v866
c0 11.333 5 17.333 15 18h11c9.33301 0 14 -5.66699 14 -17v-327h1zM313.999 506c-105.333 0 -165.667 -78.333 -181 -235v-196c40 -33.333 91.667 -50 155 -50c120.667 0 181 83 181 249c0 154.667 -51.667 232 -155 232z" />
    <glyph glyph-name="ydieresis" unicode="&#xff;" horiz-adv-x="527" 
d="M56 -229l0.000976562 17c0 6.66699 5.66699 8.66699 17 6c11.333 -3.33301 23 -5 35 -5c28.667 0 51.5 8 68.5 24s33.5 46.667 49.5 92l27 76l-204 539c-3.33301 8 -0.333008 12 9 12h18c7.33301 0 12.666 -4.33301 15.999 -13l181 -480l170 480
c2 5.33301 4.16699 8.83301 6.5 10.5s6.83301 2.5 13.5 2.5h12c10 0 13 -6 9 -18l-223 -621c-20.667 -57.333 -42.667 -95.333 -66 -114s-51 -28 -83 -28c-20.667 0 -36 1.66699 -46 5c-6.66699 2 -10 7 -10 15zM162.001 667c0 11.333 3.66602 20.832 10.999 28.499
s16 11.5 26 11.5c10.667 0 19.334 -3.5 26.001 -10.5s10 -16.167 10 -27.5c0 -10.667 -3.83301 -19.667 -11.5 -27s-16.5 -11 -26.5 -11c-10.667 0 -19.167 3.33301 -25.5 10s-9.5 15.334 -9.5 26.001zM306 666.999c0 11.333 3.83301 20.832 11.5 28.499
s16.5 11.5 26.5 11.5s18.333 -3.5 25 -10.5s10 -16.167 10 -27.5c0 -10.667 -3.83301 -19.667 -11.5 -27s-16.5 -11 -26.5 -11s-18.333 3.33301 -25 10s-10 15.334 -10 26.001z" />
    <glyph glyph-name="Amacron" unicode="&#x100;" horiz-adv-x="609" 
d="M529 12l-69.001 209.001h-303l-69 -209c-2.66699 -8 -8.66699 -12 -18 -12h-11c-10.667 0 -14.667 4.33301 -12 13l234 701c2 5.33301 5.33301 8 10 8h35c4.66699 0 8 -2.66699 10 -8l233 -701c1.33301 -4.66699 1.33301 -8 0 -10s-5 -3 -11 -3h-10
c-6.66699 0 -11.167 0.666992 -13.5 2s-4.16602 4.66602 -5.49902 9.99902zM307.999 679.001l-139 -420h278zM421.999 805.001h-215c-6.66699 0 -10 5.33301 -10 16c0 12.667 3 19 9 19h217c6 0 9 -4.66699 9 -14c0 -14 -3.33301 -21 -10 -21z" />
    <glyph glyph-name="amacron" unicode="&#x101;" horiz-adv-x="545" 
d="M437 361l-0.00195312 -286.999c0 -26.667 10.667 -40 32 -40c9.33301 0 22 2 38 6c5.33301 2 9.33301 2.5 12 1.5s4 -4.16699 4 -9.5v-14c0 -7.33301 -4 -12.333 -12 -15c-16.667 -4.66699 -32 -7 -46 -7c-45.333 0 -68 25 -68 75v16c-39.333 -62 -101.333 -93 -186 -93
c-51.333 0 -90.166 11.833 -116.499 35.5s-39.5 57.834 -39.5 102.501c0 58.667 23 101.5 69 128.5s117 40.5 213 40.5h60v60c0 56.667 -12.333 95 -37 115s-62 30 -112 30c-50.667 0 -99 -7.66699 -145 -23c-9.33301 -3.33301 -14 -0.333008 -14 9v15
c0 4.66699 0.666992 7.66699 2 9s5.33301 3.33301 12 6c40 14.667 88.333 22 145 22c26.667 0 49.667 -2.16699 69 -6.5s38.833 -12.333 58.5 -24s34.834 -30.334 45.501 -56.001s16 -57.834 16 -96.501zM94.998 132.001c0 -66.667 38.666 -100 115.999 -100
c54.667 0 99.334 16 134.001 48s52 76.667 52 134v49h-60c-84 0 -145.333 -10.5 -184 -31.5s-58 -54.167 -58 -99.5zM369.997 637.001h-215c-6.66699 0 -10 5.33301 -10 16c0 12.667 3 19 9 19h217c6 0 9 -4.66699 9 -14c0 -14 -3.33301 -21 -10 -21z" />
    <glyph glyph-name="Abreve" unicode="&#x102;" horiz-adv-x="609" 
d="M529 12l-69.001 209.001h-303l-69 -209c-2.66699 -8 -8.66699 -12 -18 -12h-11c-10.667 0 -14.667 4.33301 -12 13l234 701c2 5.33301 5.33301 8 10 8h35c4.66699 0 8 -2.66699 10 -8l233 -701c1.33301 -4.66699 1.33301 -8 0 -10s-5 -3 -11 -3h-10
c-6.66699 0 -11.167 0.666992 -13.5 2s-4.16602 4.66602 -5.49902 9.99902zM307.999 679.001l-139 -420h278zM308.999 822.001c50.667 0 76 19.333 76 58c0 6 3 9 9 9h23c5.33301 0 8 -3.33301 8 -10c0 -29.333 -11 -52.5 -33 -69.5s-49.667 -25.5 -83 -25.5
c-36 0 -64 8.5 -84 25.5s-30 40.5 -30 70.5c0 6 2.66699 9 8 9h24c5.33301 0 8 -2.66699 8 -8c0 -39.333 24.667 -59 74 -59z" />
    <glyph glyph-name="abreve" unicode="&#x103;" horiz-adv-x="545" 
d="M437 361l-0.00195312 -286.999c0 -26.667 10.667 -40 32 -40c9.33301 0 22 2 38 6c5.33301 2 9.33301 2.5 12 1.5s4 -4.16699 4 -9.5v-14c0 -7.33301 -4 -12.333 -12 -15c-16.667 -4.66699 -32 -7 -46 -7c-45.333 0 -68 25 -68 75v16c-39.333 -62 -101.333 -93 -186 -93
c-51.333 0 -90.166 11.833 -116.499 35.5s-39.5 57.834 -39.5 102.501c0 58.667 23 101.5 69 128.5s117 40.5 213 40.5h60v60c0 56.667 -12.333 95 -37 115s-62 30 -112 30c-50.667 0 -99 -7.66699 -145 -23c-9.33301 -3.33301 -14 -0.333008 -14 9v15
c0 4.66699 0.666992 7.66699 2 9s5.33301 3.33301 12 6c40 14.667 88.333 22 145 22c26.667 0 49.667 -2.16699 69 -6.5s38.833 -12.333 58.5 -24s34.834 -30.334 45.501 -56.001s16 -57.834 16 -96.501zM94.998 132.001c0 -66.667 38.666 -100 115.999 -100
c54.667 0 99.334 16 134.001 48s52 76.667 52 134v49h-60c-84 0 -145.333 -10.5 -184 -31.5s-58 -54.167 -58 -99.5zM256.997 654.001c50.667 0 76 19.333 76 58c0 6 3 9 9 9h23c5.33301 0 8 -3.33301 8 -10c0 -29.333 -11 -52.5 -33 -69.5s-49.667 -25.5 -83 -25.5
c-36 0 -64 8.5 -84 25.5s-30 40.5 -30 70.5c0 6 2.66699 9 8 9h24c5.33301 0 8 -2.66699 8 -8c0 -39.333 24.667 -59 74 -59z" />
    <glyph glyph-name="Aogonek" unicode="&#x104;" horiz-adv-x="610" 
d="M529 12l-68.999 209h-303l-69 -209c-2.66699 -8 -8.66699 -12 -18 -12h-11c-10.667 -0 -14.667 4.33301 -12 13l234 701c2 5.33301 5.33301 8 10 8h35c4.66699 0 8 -2.66699 10 -8l233 -701c2 -6.66699 0.666992 -11 -4 -13c-50.667 -27.333 -76 -61 -76 -101
c0 -16 5.83301 -27.167 17.5 -33.5s23.5 -9.5 35.5 -9.5c19.333 0 36.333 3.66699 51 11c13.333 6.66699 21.333 6.33398 24 -0.999023l3 -11c2 -8.66699 -1 -15.334 -9 -20.001c-19.333 -11.333 -42.333 -17 -69 -17c-28.667 0 -51.334 6.66699 -68.001 20
s-25 33.333 -25 60c0 44.667 26.667 82 80 112v2zM308.001 679l-139 -420h278z" />
    <glyph glyph-name="aogonek" unicode="&#x105;" horiz-adv-x="545" 
d="M510 3c-21.333 -4.66699 -32.334 -6.99609 -33.001 -6.99609c-46 -26.667 -69 -59.334 -69 -98.001c0 -12 2.66699 -21.333 8 -28s11.333 -10.834 18 -12.501s15.667 -2.5 27 -2.5c19.333 0 36.333 3.66699 51 11c13.333 6.66699 21.333 6.33398 24 -0.999023l3 -11
c2 -8.66699 -1 -15.334 -9 -20.001c-19.333 -11.333 -42.333 -17 -69 -17c-28.667 0 -51.334 6.66699 -68.001 20s-25 33.333 -25 60c0 41.333 22 75.666 66 102.999c-25.333 10 -38 33.667 -38 71v16c-39.333 -62 -101.333 -93 -186 -93
c-51.333 0 -90.166 11.833 -116.499 35.5s-39.5 57.834 -39.5 102.501c0 58.667 23 101.5 69 128.5s117 40.5 213 40.5h60v60c0 56.667 -12.333 95 -37 115s-62 30 -112 30c-50.667 0 -99 -7.66699 -145 -23c-9.33301 -3.33301 -14 -0.333008 -14 9v15
c0 4.66699 0.666992 7.66699 2 9s5.33301 3.33301 12 6c40.667 14.667 89 22 145 22c26.667 0 49.667 -2.16699 69 -6.5s38.833 -12.333 58.5 -24s34.834 -30.334 45.501 -56.001s16 -57.834 16 -96.501v-287c0 -26.667 10.667 -40 32 -40c9.33301 0 22 2 38 6
c5.33301 2 9.33301 2.5 12 1.5s4 -4.16699 4 -9.5v-14c0 -7.33301 -4 -12.333 -12 -15zM93.999 132.004c0 -66.667 38.666 -100 115.999 -100c54.667 0 99.334 16 134.001 48s52 76.667 52 134v49h-60c-84 0 -145.333 -10.5 -184 -31.5s-58 -54.167 -58 -99.5z" />
    <glyph glyph-name="Cacute" unicode="&#x106;" horiz-adv-x="636" 
d="M323 777l-5.00195 9.99805c-3.33301 6.66699 -2.66602 11.334 2.00098 14.001l150 80c8 4.66699 14 3.33398 18 -3.99902l9 -15c4.66699 -8.66699 2.66699 -15 -6 -19l-152 -69c-7.33301 -3.33301 -12.666 -2.33301 -15.999 3zM111.998 348.998
c0 -102 20.833 -181.166 62.5 -237.499s110.834 -84.5 207.501 -84.5c56 0 116.667 12 182 36c10.667 4 16 1.33301 16 -8v-15c0 -6 -3.66699 -11 -11 -15c-16 -8.66699 -41.333 -16.834 -76 -24.501s-72 -11.5 -112 -11.5c-106.667 0 -185 31.5 -235 94.5
s-75 150.5 -75 262.5c0 117.333 26.167 210.833 78.5 280.5s131.5 104.5 237.5 104.5c33.333 0 67.5 -3.33301 102.5 -10s61.5 -15.334 79.5 -26.001c7.33301 -4 11 -10.667 11 -20v-9c0 -10.667 -5 -13.667 -15 -9c-6 2.66699 -15.167 6.33398 -27.5 11.001
s-33.333 10 -63 16s-58.834 9 -87.501 9c-51.333 0 -95.333 -9 -132 -27s-65.167 -43.5 -85.5 -76.5s-35 -69.167 -44 -108.5s-13.5 -83.333 -13.5 -132z" />
    <glyph glyph-name="cacute" unicode="&#x107;" horiz-adv-x="509" 
d="M107 268c0 -158.667 63.3311 -237.999 189.998 -237.999c41.333 0 87 9.66699 137 29c10.667 4 16 1.66699 16 -7v-13c0 -8.66699 -3 -14.667 -9 -18c-34.667 -19.333 -82 -29 -142 -29c-80 0 -139 24.5 -177 73.5s-57 116.167 -57 201.5c0 86.667 19.333 154.5 58 203.5
s98.334 73.5 179.001 73.5c56.667 0 101.667 -10 135 -30c8.66699 -5.33301 13 -11 13 -17v-18c0 -8 -4 -10.333 -12 -7c-0.666992 0 -4.66699 2 -12 6s-14.166 7.16699 -20.499 9.5s-14.833 5.16602 -25.5 8.49902s-22.5 5.83301 -35.5 7.5s-26.833 2.5 -41.5 2.5
c-130.667 0 -196 -79.333 -196 -238zM262.998 633.001l-5.00195 9.99805c-3.33301 6.66699 -2.66602 11.334 2.00098 14.001l150 80c8 4.66699 14 3.33398 18 -3.99902l9 -15c4.66699 -8.66699 2.66699 -15 -6 -19l-152 -69c-7.33301 -3.33301 -12.666 -2.33301 -15.999 3z
" />
    <glyph glyph-name="Ccircumflex" unicode="&#x108;" horiz-adv-x="636" 
d="M486 768l-83.998 83l-84 -83c-8.66699 -8.66699 -16.334 -13 -23.001 -13h-21c-9.33301 0 -10.333 4.66699 -3 14c1.33301 2 2.66602 3.66699 3.99902 5l97 100c8.66699 9.33301 18.334 14 29.001 14c10 0 20 -5 30 -15l98 -99c8.66699 -10.667 9 -17 1 -19h-21
c-6.66699 0 -14.334 4.33301 -23.001 13zM112.002 349c0 -102 20.833 -181.166 62.5 -237.499s110.834 -84.5 207.501 -84.5c56 0 116.667 12 182 36c10.667 4 16 1.33301 16 -8v-15c0 -6 -3.66699 -11 -11 -15c-16 -8.66699 -41.333 -16.834 -76 -24.501
s-72 -11.5 -112 -11.5c-106.667 0 -185 31.5 -235 94.5s-75 150.5 -75 262.5c0 117.333 26.167 210.833 78.5 280.5s131.5 104.5 237.5 104.5c33.333 0 67.5 -3.33301 102.5 -10s61.5 -15.334 79.5 -26.001c7.33301 -4 11 -10.667 11 -20v-9c0 -10.667 -5 -13.667 -15 -9
c-6 2.66699 -15.167 6.33398 -27.5 11.001s-33.333 10 -63 16s-58.834 9 -87.501 9c-51.333 0 -95.333 -9 -132 -27s-65.167 -43.5 -85.5 -76.5s-35 -69.167 -44 -108.5s-13.5 -83.333 -13.5 -132z" />
    <glyph glyph-name="ccircumflex" unicode="&#x109;" horiz-adv-x="509" 
d="M107 268c0 -158.667 63.3311 -237.999 189.998 -237.999c41.333 0 87 9.66699 137 29c10.667 4 16 1.66699 16 -7v-13c0 -8.66699 -3 -14.667 -9 -18c-34.667 -19.333 -82 -29 -142 -29c-80 0 -139 24.5 -177 73.5s-57 116.167 -57 201.5c0 86.667 19.333 154.5 58 203.5
s98.334 73.5 179.001 73.5c56.667 0 101.667 -10 135 -30c8.66699 -5.33301 13 -11 13 -17v-18c0 -8 -4 -10.333 -12 -7c-0.666992 0 -4.66699 2 -12 6s-14.166 7.16699 -20.499 9.5s-14.833 5.16602 -25.5 8.49902s-22.5 5.83301 -35.5 7.5s-26.833 2.5 -41.5 2.5
c-130.667 0 -196 -79.333 -196 -238zM385.998 634.001l-83.998 83l-84 -83c-8.66699 -8.66699 -16.334 -13 -23.001 -13h-21c-9.33301 0 -10.333 4.66699 -3 14c1.33301 2 2.66602 3.66699 3.99902 5l97 100c8.66699 9.33301 18.334 14 29.001 14c10 0 20 -5 30 -15l98 -99
c8.66699 -10.667 9 -17 1 -19h-21c-6.66699 0 -14.334 4.33301 -23.001 13z" />
    <glyph glyph-name="Cdotaccent" unicode="&#x10a;" horiz-adv-x="636" 
d="M363 808c0 10.667 3.33301 19.5 10 26.5s14.667 10.5 24 10.5c8.66699 0 16.167 -3.16699 22.5 -9.5s9.5 -14.5 9.5 -24.5s-3.33301 -18.333 -10 -25s-15 -10 -25 -10c-9.33301 0 -16.833 2.83301 -22.5 8.5s-8.5 13.5 -8.5 23.5zM112 349
c0 -102 20.833 -181.166 62.5 -237.499s110.834 -84.5 207.501 -84.5c56 0 116.667 12 182 36c10.667 4 16 1.33301 16 -8v-15c0 -6 -3.66699 -11 -11 -15c-16 -8.66699 -41.333 -16.834 -76 -24.501s-72 -11.5 -112 -11.5c-106.667 0 -185 31.5 -235 94.5
s-75 150.5 -75 262.5c0 117.333 26.167 210.833 78.5 280.5s131.5 104.5 237.5 104.5c33.333 0 67.5 -3.33301 102.5 -10s61.5 -15.334 79.5 -26.001c7.33301 -4 11 -10.667 11 -20v-9c0 -10.667 -5 -13.667 -15 -9c-6 2.66699 -15.167 6.33398 -27.5 11.001
s-33.333 10 -63 16s-58.834 9 -87.501 9c-51.333 0 -95.333 -9 -132 -27s-65.167 -43.5 -85.5 -76.5s-35 -69.167 -44 -108.5s-13.5 -83.333 -13.5 -132z" />
    <glyph glyph-name="cdotaccent" unicode="&#x10b;" horiz-adv-x="509" 
d="M107 268c0 -158.667 63.3311 -237.999 189.998 -237.999c41.333 0 87 9.66699 137 29c10.667 4 16 1.66699 16 -7v-13c0 -8.66699 -3 -14.667 -9 -18c-34.667 -19.333 -82 -29 -142 -29c-80 0 -139 24.5 -177 73.5s-57 116.167 -57 201.5c0 86.667 19.333 154.5 58 203.5
s98.334 73.5 179.001 73.5c56.667 0 101.667 -10 135 -30c8.66699 -5.33301 13 -11 13 -17v-18c0 -8 -4 -10.333 -12 -7c-0.666992 0 -4.66699 2 -12 6s-14.166 7.16699 -20.499 9.5s-14.833 5.16602 -25.5 8.49902s-22.5 5.83301 -35.5 7.5s-26.833 2.5 -41.5 2.5
c-130.667 0 -196 -79.333 -196 -238zM262.998 671.001c0 12.667 3.99805 23.167 11.998 31.5s17.667 12.5 29 12.5c10.667 0 19.834 -3.66699 27.501 -11s11.5 -17.333 11.5 -30c0 -12 -4.16699 -22 -12.5 -30s-18.166 -12 -29.499 -12s-20.5 3.5 -27.5 10.5
s-10.5 16.5 -10.5 28.5z" />
    <glyph glyph-name="Ccaron" unicode="&#x10c;" horiz-adv-x="636" 
d="M317 882l84.998 -83l83 83c8.66699 8.66699 16.334 13 23.001 13h21c4.66699 0 7.16699 -1.83301 7.5 -5.5s-1.5 -7.16699 -5.5 -10.5l-101 -103c-8.66699 -9.33301 -18 -14 -28 -14c-10.667 0 -20.667 4.66699 -30 14l-101 103c-4 3.33301 -5.83301 6.83301 -5.5 10.5
s2.83301 5.5 7.5 5.5h21c6.66699 0 14.334 -4.33301 23.001 -13zM111.998 349c0 -102 20.833 -181.166 62.5 -237.499s110.834 -84.5 207.501 -84.5c56 0 116.667 12 182 36c10.667 4 16 1.33301 16 -8v-15c0 -6 -3.66699 -11 -11 -15
c-16 -8.66699 -41.333 -16.834 -76 -24.501s-72 -11.5 -112 -11.5c-106.667 0 -185 31.5 -235 94.5s-75 150.5 -75 262.5c0 117.333 26.167 210.833 78.5 280.5s131.5 104.5 237.5 104.5c33.333 0 67.5 -3.33301 102.5 -10s61.5 -15.334 79.5 -26.001
c7.33301 -4 11 -10.667 11 -20v-9c0 -10.667 -5 -13.667 -15 -9c-6 2.66699 -15.167 6.33398 -27.5 11.001s-33.333 10 -63 16s-58.834 9 -87.501 9c-51.333 0 -95.333 -9 -132 -27s-65.167 -43.5 -85.5 -76.5s-35 -69.167 -44 -108.5s-13.5 -83.333 -13.5 -132z" />
    <glyph glyph-name="ccaron" unicode="&#x10d;" horiz-adv-x="509" 
d="M107 268c0 -158.667 63.3311 -237.999 189.998 -237.999c41.333 0 87 9.66699 137 29c10.667 4 16 1.66699 16 -7v-13c0 -8.66699 -3 -14.667 -9 -18c-34.667 -19.333 -82 -29 -142 -29c-80 0 -139 24.5 -177 73.5s-57 116.167 -57 201.5c0 86.667 19.333 154.5 58 203.5
s98.334 73.5 179.001 73.5c56.667 0 101.667 -10 135 -30c8.66699 -5.33301 13 -11 13 -17v-18c0 -8 -4 -10.333 -12 -7c-0.666992 0 -4.66699 2 -12 6s-14.166 7.16699 -20.499 9.5s-14.833 5.16602 -25.5 8.49902s-22.5 5.83301 -35.5 7.5s-26.833 2.5 -41.5 2.5
c-130.667 0 -196 -79.333 -196 -238zM216.998 748.001l84.998 -83l83 83c8.66699 8.66699 16.334 13 23.001 13h21c4.66699 0 7.16699 -1.83301 7.5 -5.5s-1.5 -7.16699 -5.5 -10.5l-101 -103c-8.66699 -9.33301 -18 -14 -28 -14c-10.667 0 -20.667 4.66699 -30 14l-101 103
c-4 3.33301 -5.83301 6.83301 -5.5 10.5s2.83301 5.5 7.5 5.5h21c6.66699 0 14.334 -4.33301 23.001 -13z" />
    <glyph glyph-name="Dcaron" unicode="&#x10e;" horiz-adv-x="697" 
d="M113 710c0 8 4.33398 11.999 13.001 11.999h119c129.333 0 225.166 -30 287.499 -90s93.5 -150.667 93.5 -272s-31 -211.666 -93 -270.999s-157.667 -89 -287 -89h-120c-8.66699 0 -13 4 -13 12v698zM245.001 683.999h-92v-646h92c118.667 0 205.167 25.833 259.5 77.5
s81.5 133.167 81.5 244.5c0 112 -27.333 194 -82 246s-141 78 -259 78zM246.001 872.999l84.998 -83l83 83c8.66699 8.66699 16.334 13 23.001 13h21c4.66699 0 7.16699 -1.83301 7.5 -5.5s-1.5 -7.16699 -5.5 -10.5l-101 -103c-8.66699 -9.33301 -18 -14 -28 -14
c-10.667 0 -20.667 4.66699 -30 14l-101 103c-4 3.33301 -5.83301 6.83301 -5.5 10.5s2.83301 5.5 7.5 5.5h21c6.66699 0 14.334 -4.33301 23.001 -13z" />
    <glyph glyph-name="dcaron" unicode="&#x10f;" horiz-adv-x="576" 
d="M442 116l0.000976562 7c-10 -41.333 -31.5 -74.333 -64.5 -99s-72.5 -37 -118.5 -37c-61.333 0 -109 22.5 -143 67.5s-51 108.167 -51 189.5c0 88 20.167 160 60.5 216s99.5 84 177.5 84c55.333 0 101.666 -15 138.999 -45v252c0 8 4.33301 12 13 12h14
c8.66699 0 13 -4 13 -12v-638l5 -99c0.666992 -9.33301 -2.33301 -14 -9 -14h-18c-7.33301 -0 -11.333 5.33301 -12 16zM265.001 25c103.333 0 162.334 78.335 177.001 235.002v196c-34.667 33.333 -81.334 50 -140.001 50c-35.333 0 -66.333 -7.66699 -93 -23
s-47.167 -36 -61.5 -62s-25 -53.833 -32 -83.5s-10.5 -60.834 -10.5 -93.501c0 -62.667 12.833 -114.834 38.5 -156.501s66.167 -62.5 121.5 -62.5zM581.002 590.002l-6 164c-0.666992 4 0.5 6.83301 3.5 8.5s9.16699 2.5 18.5 2.5s15.333 -0.833008 18 -2.5s4 -4.5 4 -8.5
l-6 -164c0 -8.66699 -5.33301 -13 -16 -13s-16 4.33301 -16 13z" />
    <glyph glyph-name="Dcroat" unicode="&#x110;" horiz-adv-x="701" 
d="M117 367l-76.999 -0.000976562c-6.66699 0 -10 5.33301 -10 16c0 12.667 3 19 9 19h78v308c0 8 4.33301 12 13 12h119c129.333 0 225.166 -30 287.499 -90s93.5 -150.667 93.5 -272s-31 -211.666 -93 -270.999s-157.667 -89 -287 -89h-120c-8.66699 0 -13 4 -13 12v355z
M157.001 401.999h159c6 0 9 -4.66699 9 -14c0 -14 -3.33301 -21 -10 -21h-158v-329h92c118.667 0 205.167 25.833 259.5 77.5s81.5 133.167 81.5 244.5c0 112 -27.333 194 -82 246s-141 78 -259 78h-92v-282z" />
    <glyph glyph-name="dcroat" unicode="&#x111;" horiz-adv-x="576" 
d="M319 676l123.002 -0.000976562v59c0 18.667 4.33301 28 13 28h14c4.66699 0.666992 8 -1.16602 10 -5.49902s3 -11.833 3 -22.5v-59h84c5.33301 0 8.66602 -0.833008 9.99902 -2.5s2 -5.16699 2 -10.5v-12c0 -8.66699 -4 -13 -12 -13h-84v-525l5 -99
c0.666992 -9.33301 -2.33301 -14 -9 -14h-18c-7.33301 -0 -11.333 5.33301 -12 16l-6 100v7c-10 -41.333 -31.5 -74.333 -64.5 -99s-72.5 -37 -118.5 -37c-61.333 0 -109 22.5 -143 67.5s-51 108.167 -51 189.5c0 88 20.167 160 60.5 216s99.5 84 177.5 84
c55.333 0 101.666 -15 138.999 -45v139h-123c-5.33301 0 -8.83301 0.833008 -10.5 2.5s-2.5 5.16699 -2.5 10.5v12c0 5.33301 0.833008 8.83301 2.5 10.5s5.16699 2.5 10.5 2.5zM265.002 24.999c103.333 0 162.334 78.335 177.001 235.002v196
c-34.667 33.333 -81.334 50 -140.001 50c-35.333 0 -66.333 -7.66699 -93 -23s-47.167 -36 -61.5 -62s-25 -53.833 -32 -83.5s-10.5 -60.834 -10.5 -93.501c0 -62.667 12.833 -114.834 38.5 -156.501s66.167 -62.5 121.5 -62.5z" />
    <glyph glyph-name="Emacron" unicode="&#x112;" 
d="M113 710c0 8 4.33301 12 13 12h337c8 0 12 -4.33301 12 -13v-12c0 -8.66699 -4 -13 -12 -13h-310v-291h265c8 0 12 -4.33301 12 -13v-12c0 -8.66699 -4 -13 -12 -13h-265v-317h335c8 0 12 -4.33301 12 -13v-12c0 -8.66699 -4 -13 -12 -13h-362c-8.66699 0 -13 4 -13 12
v698zM411 805h-215c-6.66699 0 -10 5.33301 -10 16c0 12.667 3 19 9 19h217c6 0 9 -4.66699 9 -14c0 -14 -3.33301 -21 -10 -21z" />
    <glyph glyph-name="emacron" unicode="&#x113;" horiz-adv-x="549" 
d="M289 544c62 0 109.5 -14.502 142.5 -43.502s49.5 -70.167 49.5 -123.5s-16.833 -94.5 -50.5 -123.5s-84.834 -43.5 -153.501 -43.5c-66 0 -123.333 11 -172 33c2 -77.333 19.667 -132.166 53 -164.499s82.333 -48.5 147 -48.5c49.333 0 94 8.33301 134 25
c24.667 10.667 37.334 16 38.001 16c4.66699 0 7 -2.33301 7 -7v-22c0 -6 -6.66699 -12 -20 -18c-46 -21.333 -99.333 -32 -160 -32c-159.333 0 -239 89 -239 267c0 88.667 19.333 158.334 58 209.001s94 76 166 76zM289 505.998c-57.333 0 -101.5 -19.5 -132.5 -58.5
s-48.167 -94.833 -51.5 -167.5c54.667 -21.333 112 -32 172 -32c109.333 0 164 43.667 164 131c0 84.667 -50.667 127 -152 127zM402 636.998h-215c-6.66699 0 -10 5.33301 -10 16c0 12.667 3 19 9 19h217c6 0 9 -4.66699 9 -14c0 -14 -3.33301 -21 -10 -21z" />
    <glyph glyph-name="Ebreve" unicode="&#x114;" 
d="M113 710c0 8 4.33301 12 13 12h337c8 0 12 -4.33301 12 -13v-12c0 -8.66699 -4 -13 -12 -13h-310v-291h265c8 0 12 -4.33301 12 -13v-12c0 -8.66699 -4 -13 -12 -13h-265v-317h335c8 0 12 -4.33301 12 -13v-12c0 -8.66699 -4 -13 -12 -13h-362c-8.66699 0 -13 4 -13 12
v698zM298 822c50.667 0 76 19.333 76 58c0 6 3 9 9 9h23c5.33301 0 8 -3.33301 8 -10c0 -29.333 -11 -52.5 -33 -69.5s-49.667 -25.5 -83 -25.5c-36 0 -64 8.5 -84 25.5s-30 40.5 -30 70.5c0 6 2.66699 9 8 9h24c5.33301 0 8 -2.66699 8 -8c0 -39.333 24.667 -59 74 -59z
" />
    <glyph glyph-name="ebreve" unicode="&#x115;" horiz-adv-x="549" 
d="M289 544c62 0 109.5 -14.502 142.5 -43.502s49.5 -70.167 49.5 -123.5s-16.833 -94.5 -50.5 -123.5s-84.834 -43.5 -153.501 -43.5c-66 0 -123.333 11 -172 33c2 -77.333 19.667 -132.166 53 -164.499s82.333 -48.5 147 -48.5c49.333 0 94 8.33301 134 25
c24.667 10.667 37.334 16 38.001 16c4.66699 0 7 -2.33301 7 -7v-22c0 -6 -6.66699 -12 -20 -18c-46 -21.333 -99.333 -32 -160 -32c-159.333 0 -239 89 -239 267c0 88.667 19.333 158.334 58 209.001s94 76 166 76zM289 505.998c-57.333 0 -101.5 -19.5 -132.5 -58.5
s-48.167 -94.833 -51.5 -167.5c54.667 -21.333 112 -32 172 -32c109.333 0 164 43.667 164 131c0 84.667 -50.667 127 -152 127zM289 653.998c50.667 0 76 19.333 76 58c0 6 3 9 9 9h23c5.33301 0 8 -3.33301 8 -10c0 -29.333 -11 -52.5 -33 -69.5s-49.667 -25.5 -83 -25.5
c-36 0 -64 8.5 -84 25.5s-30 40.5 -30 70.5c0 6 2.66699 9 8 9h24c5.33301 0 8 -2.66699 8 -8c0 -39.333 24.667 -59 74 -59z" />
    <glyph glyph-name="Edotaccent" unicode="&#x116;" 
d="M113 710c0 8 4.33301 12 13 12h337c8 0 12 -4.33301 12 -13v-12c0 -8.66699 -4 -13 -12 -13h-310v-291h265c8 0 12 -4.33301 12 -13v-12c0 -8.66699 -4 -13 -12 -13h-265v-317h335c8 0 12 -4.33301 12 -13v-12c0 -8.66699 -4 -13 -12 -13h-362c-8.66699 0 -13 4 -13 12
v698zM259 839c0 12.667 3.99805 23.167 11.998 31.5s17.667 12.5 29 12.5c10.667 0 19.834 -3.66699 27.501 -11s11.5 -17.333 11.5 -30c0 -12 -4.16699 -22 -12.5 -30s-18.166 -12 -29.499 -12s-20.5 3.5 -27.5 10.5s-10.5 16.5 -10.5 28.5z" />
    <glyph glyph-name="edotaccent" unicode="&#x117;" horiz-adv-x="549" 
d="M289 544c62 0 109.5 -14.502 142.5 -43.502s49.5 -70.167 49.5 -123.5s-16.833 -94.5 -50.5 -123.5s-84.834 -43.5 -153.501 -43.5c-66 0 -123.333 11 -172 33c2 -77.333 19.667 -132.166 53 -164.499s82.333 -48.5 147 -48.5c49.333 0 94 8.33301 134 25
c24.667 10.667 37.334 16 38.001 16c4.66699 0 7 -2.33301 7 -7v-22c0 -6 -6.66699 -12 -20 -18c-46 -21.333 -99.333 -32 -160 -32c-159.333 0 -239 89 -239 267c0 88.667 19.333 158.334 58 209.001s94 76 166 76zM289 505.998c-57.333 0 -101.5 -19.5 -132.5 -58.5
s-48.167 -94.833 -51.5 -167.5c54.667 -21.333 112 -32 172 -32c109.333 0 164 43.667 164 131c0 84.667 -50.667 127 -152 127zM250 670.998c0 12.667 3.99805 23.167 11.998 31.5s17.667 12.5 29 12.5c10.667 0 19.834 -3.66699 27.501 -11s11.5 -17.333 11.5 -30
c0 -12 -4.16699 -22 -12.5 -30s-18.166 -12 -29.499 -12s-20.5 3.5 -27.5 10.5s-10.5 16.5 -10.5 28.5z" />
    <glyph glyph-name="Eogonek" unicode="&#x118;" horiz-adv-x="550" 
d="M112 710c0 8 4.33398 12.002 13.001 12.002h337c8 0 12 -4.33301 12 -13v-12c0 -8.66699 -4 -13 -12 -13h-310v-291h265c8 0 12 -4.33301 12 -13v-12c0 -8.66699 -4 -13 -12 -13h-265v-317h335c8 0 12 -4.33301 12 -13v-12c0 -8.66699 -4 -13 -12 -13
c-57.333 -28.667 -86 -64.334 -86 -107.001c0 -12 2.66699 -21.333 8 -28s11.333 -10.834 18 -12.501s15.667 -2.5 27 -2.5c19.333 0 36.333 3.66699 51 11c13.333 6.66699 21.333 6.33398 24 -0.999023l3 -11c2 -8.66699 -1 -15.334 -9 -20.001
c-19.333 -11.333 -42.333 -17 -69 -17c-28.667 0 -51.334 6.66699 -68.001 20s-25 33.333 -25 60c0 42.667 24.667 78.667 74 108h-310c-8.66699 0 -13 4 -13 12v698z" />
    <glyph glyph-name="eogonek" unicode="&#x119;" horiz-adv-x="549" 
d="M289 544c62 0 109.501 -14.501 142.501 -43.501s49.5 -70.167 49.5 -123.5s-16.833 -94.5 -50.5 -123.5s-84.834 -43.5 -153.501 -43.5c-66 0 -123.333 11 -172 33c2 -77.333 19.667 -132.166 53 -164.499s82.333 -48.5 147 -48.5c49.333 0 94 8.33301 134 25
c24.667 10.667 37.334 16 38.001 16c4.66699 0 7 -2.33301 7 -7v-22c0 -6 -6.66699 -12 -20 -18c-44 -20.667 -95.667 -31.334 -155 -32.001c-35.333 -25.333 -53 -54.666 -53 -87.999c0 -12 2.66699 -21.333 8 -28s11.333 -10.834 18 -12.501s15.667 -2.5 27 -2.5
c19.333 0 36.333 3.66699 51 11c13.333 6.66699 21.333 6.33398 24 -0.999023l3 -11c2 -8.66699 -1 -15.334 -9 -20.001c-19.333 -11.333 -42.333 -17 -69 -17c-28.667 0 -51.334 6.66699 -68.001 20s-25 33.333 -25 60c0 36 16 66.333 48 91
c-132.667 14.667 -199 103 -199 265c0 88.667 19.333 158.334 58 209.001s94 76 166 76zM289.001 505.999c-57.333 0 -101.5 -19.5 -132.5 -58.5s-48.167 -94.833 -51.5 -167.5c54.667 -21.333 112 -32 172 -32c109.333 0 164 43.667 164 131c0 84.667 -50.667 127 -152 127
z" />
    <glyph glyph-name="Ecaron" unicode="&#x11a;" 
d="M113 710c0 8 4.33301 12 13 12h337c8 0 12 -4.33301 12 -13v-12c0 -8.66699 -4 -13 -12 -13h-310v-291h265c8 0 12 -4.33301 12 -13v-12c0 -8.66699 -4 -13 -12 -13h-265v-317h335c8 0 12 -4.33301 12 -13v-12c0 -8.66699 -4 -13 -12 -13h-362c-8.66699 0 -13 4 -13 12
v698zM213 916l84.998 -83l83 83c8.66699 8.66699 16.334 13 23.001 13h21c4.66699 0 7.16699 -1.83301 7.5 -5.5s-1.5 -7.16699 -5.5 -10.5l-101 -103c-8.66699 -9.33301 -18 -14 -28 -14c-10.667 0 -20.667 4.66699 -30 14l-101 103c-4 3.33301 -5.83301 6.83301 -5.5 10.5
s2.83301 5.5 7.5 5.5h21c6.66699 0 14.334 -4.33301 23.001 -13z" />
    <glyph glyph-name="ecaron" unicode="&#x11b;" horiz-adv-x="549" 
d="M289 544c62 0 109.5 -14.502 142.5 -43.502s49.5 -70.167 49.5 -123.5s-16.833 -94.5 -50.5 -123.5s-84.834 -43.5 -153.501 -43.5c-66 0 -123.333 11 -172 33c2 -77.333 19.667 -132.166 53 -164.499s82.333 -48.5 147 -48.5c49.333 0 94 8.33301 134 25
c24.667 10.667 37.334 16 38.001 16c4.66699 0 7 -2.33301 7 -7v-22c0 -6 -6.66699 -12 -20 -18c-46 -21.333 -99.333 -32 -160 -32c-159.333 0 -239 89 -239 267c0 88.667 19.333 158.334 58 209.001s94 76 166 76zM289 505.998c-57.333 0 -101.5 -19.5 -132.5 -58.5
s-48.167 -94.833 -51.5 -167.5c54.667 -21.333 112 -32 172 -32c109.333 0 164 43.667 164 131c0 84.667 -50.667 127 -152 127zM204 747.998l84.998 -83l83 83c8.66699 8.66699 16.334 13 23.001 13h21c4.66699 0 7.16699 -1.83301 7.5 -5.5s-1.5 -7.16699 -5.5 -10.5
l-101 -103c-8.66699 -9.33301 -18 -14 -28 -14c-10.667 0 -20.667 4.66699 -30 14l-101 103c-4 3.33301 -5.83301 6.83301 -5.5 10.5s2.83301 5.5 7.5 5.5h21c6.66699 0 14.334 -4.33301 23.001 -13z" />
    <glyph glyph-name="Gcircumflex" unicode="&#x11c;" horiz-adv-x="722" 
d="M428 312v19.999c0 6 3.33301 9 10 9h185c10 0 15 -4.33301 15 -13v-279c0 -8.66699 -3.66699 -15 -11 -19c-18.667 -10 -47.834 -19.667 -87.501 -29s-82.5 -14 -128.5 -14c-103.333 0 -186.166 30.5 -248.499 91.5s-93.5 151.833 -93.5 272.5
c0 115.333 29.5 207.5 88.5 276.5s143.833 103.5 254.5 103.5c48 0 92.5 -5.83301 133.5 -17.5s68.833 -23.167 83.5 -34.5c6 -4.66699 9 -11 9 -19v-11c0 -12 -6.66699 -14.333 -20 -7c-61.333 34 -128.666 51 -201.999 51c-102.667 0 -179.5 -31.667 -230.5 -95
s-76.5 -145.666 -76.5 -246.999c0 -104.667 26.5 -185.167 79.5 -241.5s127.167 -84.5 222.5 -84.5c63.333 0 125.666 11.667 186.999 35v243h-160c-6.66699 0 -10 3 -10 9zM485 801.999l-83.998 83l-84 -83c-8.66699 -8.66699 -16.334 -13 -23.001 -13h-21
c-9.33301 0 -10.333 4.66699 -3 14c1.33301 2 2.66602 3.66699 3.99902 5l97 100c8.66699 9.33301 18.334 14 29.001 14c10 0 20 -5 30 -15l98 -99c8.66699 -10.667 9 -17 1 -19h-21c-6.66699 0 -14.334 4.33301 -23.001 13z" />
    <glyph glyph-name="gcircumflex" unicode="&#x11d;" horiz-adv-x="574" 
d="M251 -211c63.333 0 111.001 15.667 143.001 47s48 81.333 48 150v129c-11.333 -38.667 -33.5 -69.667 -66.5 -93s-71.833 -35 -116.5 -35c-61.333 0 -109 22.5 -143 67.5s-51 108.167 -51 189.5c0 77.333 15.833 142.833 47.5 196.5s78.167 86.5 139.5 98.5
c18 3.33301 35 5 51 5c55.333 0 101.666 -15 138.999 -45v21c0 8 4.33301 12 13 12h14c8.66699 0 13 -4 13 -12v-532c0 -158 -77.667 -237 -233 -237c-50.667 0 -101 8 -151 24c-7.33301 2.66699 -11 7 -11 13v21c0 6 3.33301 7.66699 10 5c50.667 -16.667 102 -25 154 -25z
M265.001 25c103.333 0 162.334 78.335 177.001 235.002v196c-34.667 33.333 -81.334 50 -140.001 50c-35.333 0 -66.333 -7.66699 -93 -23s-47.167 -36 -61.5 -62s-25 -53.833 -32 -83.5s-10.5 -60.834 -10.5 -93.501c0 -62.667 12.833 -114.834 38.5 -156.501
s66.167 -62.5 121.5 -62.5zM383.002 634.002l-83.998 83l-84 -83c-8.66699 -8.66699 -16.334 -13 -23.001 -13h-21c-9.33301 0 -10.333 4.66699 -3 14c1.33301 2 2.66602 3.66699 3.99902 5l97 100c8.66699 9.33301 18.334 14 29.001 14c10 0 20 -5 30 -15l98 -99
c8.66699 -10.667 9 -17 1 -19h-21c-6.66699 0 -14.334 4.33301 -23.001 13z" />
    <glyph glyph-name="Gbreve" unicode="&#x11e;" horiz-adv-x="722" 
d="M428 312v19.999c0 6 3.33301 9 10 9h185c10 0 15 -4.33301 15 -13v-279c0 -8.66699 -3.66699 -15 -11 -19c-18.667 -10 -47.834 -19.667 -87.501 -29s-82.5 -14 -128.5 -14c-103.333 0 -186.166 30.5 -248.499 91.5s-93.5 151.833 -93.5 272.5
c0 115.333 29.5 207.5 88.5 276.5s143.833 103.5 254.5 103.5c48 0 92.5 -5.83301 133.5 -17.5s68.833 -23.167 83.5 -34.5c6 -4.66699 9 -11 9 -19v-11c0 -12 -6.66699 -14.333 -20 -7c-61.333 34 -128.666 51 -201.999 51c-102.667 0 -179.5 -31.667 -230.5 -95
s-76.5 -145.666 -76.5 -246.999c0 -104.667 26.5 -185.167 79.5 -241.5s127.167 -84.5 222.5 -84.5c63.333 0 125.666 11.667 186.999 35v243h-160c-6.66699 0 -10 3 -10 9zM401 821.999c50.667 0 76 19.333 76 58c0 6 3 9 9 9h23c5.33301 0 8 -3.33301 8 -10
c0 -29.333 -11 -52.5 -33 -69.5s-49.667 -25.5 -83 -25.5c-36 0 -64 8.5 -84 25.5s-30 40.5 -30 70.5c0 6 2.66699 9 8 9h24c5.33301 0 8 -2.66699 8 -8c0 -39.333 24.667 -59 74 -59z" />
    <glyph glyph-name="gbreve" unicode="&#x11f;" horiz-adv-x="574" 
d="M251 -211c63.333 0 111.001 15.667 143.001 47s48 81.333 48 150v129c-11.333 -38.667 -33.5 -69.667 -66.5 -93s-71.833 -35 -116.5 -35c-61.333 0 -109 22.5 -143 67.5s-51 108.167 -51 189.5c0 77.333 15.833 142.833 47.5 196.5s78.167 86.5 139.5 98.5
c18 3.33301 35 5 51 5c55.333 0 101.666 -15 138.999 -45v21c0 8 4.33301 12 13 12h14c8.66699 0 13 -4 13 -12v-532c0 -158 -77.667 -237 -233 -237c-50.667 0 -101 8 -151 24c-7.33301 2.66699 -11 7 -11 13v21c0 6 3.33301 7.66699 10 5c50.667 -16.667 102 -25 154 -25z
M265.001 25c103.333 0 162.334 78.335 177.001 235.002v196c-34.667 33.333 -81.334 50 -140.001 50c-35.333 0 -66.333 -7.66699 -93 -23s-47.167 -36 -61.5 -62s-25 -53.833 -32 -83.5s-10.5 -60.834 -10.5 -93.501c0 -62.667 12.833 -114.834 38.5 -156.501
s66.167 -62.5 121.5 -62.5zM299.002 654.002c50.667 0 76 19.333 76 58c0 6 3 9 9 9h23c5.33301 0 8 -3.33301 8 -10c0 -29.333 -11 -52.5 -33 -69.5s-49.667 -25.5 -83 -25.5c-36 0 -64 8.5 -84 25.5s-30 40.5 -30 70.5c0 6 2.66699 9 8 9h24c5.33301 0 8 -2.66699 8 -8
c0 -39.333 24.667 -59 74 -59z" />
    <glyph glyph-name="Gdotaccent" unicode="&#x120;" horiz-adv-x="722" 
d="M363 842c0 10.667 3.33301 19.5 10 26.5s14.667 10.5 24 10.5c8.66699 0 16.167 -3.16699 22.5 -9.5s9.5 -14.5 9.5 -24.5s-3.33301 -18.333 -10 -25s-15 -10 -25 -10c-9.33301 0 -16.833 2.83301 -22.5 8.5s-8.5 13.5 -8.5 23.5zM428 312v19.999c0 6 3.33301 9 10 9h185
c10 0 15 -4.33301 15 -13v-279c0 -8.66699 -3.66699 -15 -11 -19c-18.667 -10 -47.834 -19.667 -87.501 -29s-82.5 -14 -128.5 -14c-103.333 0 -186.166 30.5 -248.499 91.5s-93.5 151.833 -93.5 272.5c0 115.333 29.5 207.5 88.5 276.5s143.833 103.5 254.5 103.5
c48 0 92.5 -5.83301 133.5 -17.5s68.833 -23.167 83.5 -34.5c6 -4.66699 9 -11 9 -19v-11c0 -12 -6.66699 -14.333 -20 -7c-61.333 34 -128.666 51 -201.999 51c-102.667 0 -179.5 -31.667 -230.5 -95s-76.5 -145.666 -76.5 -246.999c0 -104.667 26.5 -185.167 79.5 -241.5
s127.167 -84.5 222.5 -84.5c63.333 0 125.666 11.667 186.999 35v243h-160c-6.66699 0 -10 3 -10 9z" />
    <glyph glyph-name="gdotaccent" unicode="&#x121;" horiz-adv-x="574" 
d="M251 -211c63.333 0 111.001 15.667 143.001 47s48 81.333 48 150v129c-11.333 -38.667 -33.5 -69.667 -66.5 -93s-71.833 -35 -116.5 -35c-61.333 0 -109 22.5 -143 67.5s-51 108.167 -51 189.5c0 77.333 15.833 142.833 47.5 196.5s78.167 86.5 139.5 98.5
c18 3.33301 35 5 51 5c55.333 0 101.666 -15 138.999 -45v21c0 8 4.33301 12 13 12h14c8.66699 0 13 -4 13 -12v-532c0 -158 -77.667 -237 -233 -237c-50.667 0 -101 8 -151 24c-7.33301 2.66699 -11 7 -11 13v21c0 6 3.33301 7.66699 10 5c50.667 -16.667 102 -25 154 -25z
M265.001 25c103.333 0 162.334 78.335 177.001 235.002v196c-34.667 33.333 -81.334 50 -140.001 50c-35.333 0 -66.333 -7.66699 -93 -23s-47.167 -36 -61.5 -62s-25 -53.833 -32 -83.5s-10.5 -60.834 -10.5 -93.501c0 -62.667 12.833 -114.834 38.5 -156.501
s66.167 -62.5 121.5 -62.5zM260.002 671.002c0 12.667 3.99805 23.167 11.998 31.5s17.667 12.5 29 12.5c10.667 0 19.834 -3.66699 27.501 -11s11.5 -17.333 11.5 -30c0 -12 -4.16699 -22 -12.5 -30s-18.166 -12 -29.499 -12s-20.5 3.5 -27.5 10.5s-10.5 16.5 -10.5 28.5z
" />
    <glyph glyph-name="Gcommaaccent" unicode="&#x122;" horiz-adv-x="722" 
d="M428 312v19.999c0 6 3.33301 9 10 9h185c10 0 15 -4.33301 15 -13v-279c0 -8.66699 -3.66699 -15 -11 -19c-18.667 -10 -47.834 -19.667 -87.501 -29s-82.5 -14 -128.5 -14c-103.333 0 -186.166 30.5 -248.499 91.5s-93.5 151.833 -93.5 272.5
c0 115.333 29.5 207.5 88.5 276.5s143.833 103.5 254.5 103.5c48 0 92.5 -5.83301 133.5 -17.5s68.833 -23.167 83.5 -34.5c6 -4.66699 9 -11 9 -19v-11c0 -12 -6.66699 -14.333 -20 -7c-61.333 34 -128.666 51 -201.999 51c-102.667 0 -179.5 -31.667 -230.5 -95
s-76.5 -145.666 -76.5 -246.999c0 -104.667 26.5 -185.167 79.5 -241.5s127.167 -84.5 222.5 -84.5c63.333 0 125.666 11.667 186.999 35v243h-160c-6.66699 0 -10 3 -10 9zM333 -136.001c0 12.667 4 23.1689 12 31.502s17.667 12.5 29 12.5s20.666 -3.83301 27.999 -11.5
s11 -18.834 11 -33.501c0 -44 -26.667 -88.333 -80 -133c-7.33301 -6 -12.666 -6.66699 -15.999 -2l-5 6c-4 5.33301 -2.66699 10.666 4 15.999c29.333 22 47.333 47 54 75c-24.667 1.33301 -37 14.333 -37 39z" />
    <glyph glyph-name="gcommaaccent" unicode="&#x123;" horiz-adv-x="574" 
d="M251 -211c63.333 0 111.001 15.667 143.001 47s48 81.333 48 150v129c-11.333 -38.667 -33.5 -69.667 -66.5 -93s-71.833 -35 -116.5 -35c-61.333 0 -109 22.5 -143 67.5s-51 108.167 -51 189.5c0 77.333 15.833 142.833 47.5 196.5s78.167 86.5 139.5 98.5
c18 3.33301 35 5 51 5c55.333 0 101.666 -15 138.999 -45v21c0 8 4.33301 12 13 12h14c8.66699 0 13 -4 13 -12v-532c0 -158 -77.667 -237 -233 -237c-50.667 0 -101 8 -151 24c-7.33301 2.66699 -11 7 -11 13v21c0 6 3.33301 7.66699 10 5c50.667 -16.667 102 -25 154 -25z
M265.001 25c103.333 0 162.334 78.335 177.001 235.002v196c-34.667 33.333 -81.334 50 -140.001 50c-35.333 0 -66.333 -7.66699 -93 -23s-47.167 -36 -61.5 -62s-25 -53.833 -32 -83.5s-10.5 -60.834 -10.5 -93.501c0 -62.667 12.833 -114.834 38.5 -156.501
s66.167 -62.5 121.5 -62.5zM338.002 669.002c0 -12 -3.33301 -21.666 -10 -28.999s-15 -11 -25 -11s-18.5 3.66699 -25.5 11s-10.5 17.333 -10.5 30c0 40.667 25.667 83 77 127c6.66699 5.33301 11.667 6 15 2l4 -6c2.66699 -4 1 -8.66699 -5 -14
c-30 -26.667 -47.333 -51.334 -52 -74.001c21.333 -1.33301 32 -13.333 32 -36z" />
    <glyph glyph-name="Hcircumflex" unicode="&#x124;" horiz-adv-x="679" 
d="M153 378h373v332c0 8 4.33301 12 13 12h14c8.66699 0 13 -4 13 -12v-698c0 -8 -4.33301 -12 -13 -12h-14c-8.66699 0 -13 4 -13 12v328h-373v-328c0 -8 -4.33301 -12 -13 -12h-14c-8.66699 0 -13 4 -13 12v698c0 8 4.33301 12 13 12h14c8.66699 0 13 -4 13 -12v-332z
M427 802l-83.998 83l-84 -83c-8.66699 -8.66699 -16.334 -13 -23.001 -13h-21c-9.33301 0 -10.333 4.66699 -3 14c1.33301 2 2.66602 3.66699 3.99902 5l97 100c8.66699 9.33301 18.334 14 29.001 14c10 0 20 -5 30 -15l98 -99c8.66699 -10.667 9 -17 1 -19h-21
c-6.66699 0 -14.334 4.33301 -23.001 13z" />
    <glyph glyph-name="hcircumflex" unicode="&#x125;" horiz-adv-x="556" 
d="M92 751c0 8 4.33203 12 12.999 12h14c8.66699 0 13 -4 13 -12v-316c14.667 36.667 37 64 67 82s63.667 27 101 27c50.667 0 91.334 -16.167 122.001 -48.5s46 -77.833 46 -136.5v-347c0 -8 -4.33301 -12 -13 -12h-14c-8.66699 0 -13 4 -13 12v337
c0 104.667 -44.333 157 -133 157c-50 0 -89.333 -18.5 -118 -55.5s-43.667 -89.167 -45 -156.5v-282c0 -8 -4.33301 -12 -13 -12h-14c-8.66699 0 -13 4 -13 12v739zM404.999 636l-83.998 83l-84 -83c-8.66699 -8.66699 -16.334 -13 -23.001 -13h-21
c-9.33301 0 -10.333 4.66699 -3 14c1.33301 2 2.66602 3.66699 3.99902 5l97 100c8.66699 9.33301 18.334 14 29.001 14c10 0 20 -5 30 -15l98 -99c8.66699 -10.667 9 -17 1 -19h-21c-6.66699 0 -14.334 4.33301 -23.001 13z" />
    <glyph glyph-name="Hbar" unicode="&#x126;" horiz-adv-x="685" 
d="M117 528h-76c-6.66699 0 -10 5.33301 -10 16c0 12.667 3 19 9 19h77v147c0 8 4.33301 12 13 12h14c8.66699 0 13 -4 13 -12v-147h373v147c0 8 4.33301 12 13 12h14c8.66699 0 13 -4 13 -12v-147h74c6 0 9 -4.66699 9 -14c0 -14 -3.33301 -21 -10 -21h-73v-516
c0 -8 -4.33301 -12 -13 -12h-14c-8.66699 0 -13 4 -13 12v328h-373v-328c0 -8 -4.33301 -12 -13 -12h-14c-8.66699 0 -13 4 -13 12v516zM157 378h373v150h-373v-150z" />
    <glyph glyph-name="hbar" unicode="&#x127;" horiz-adv-x="557" 
d="M240 607h-107.001v-172c14.667 36.667 37 64 67 82s63.667 27 101 27c50.667 0 91.334 -16.167 122.001 -48.5s46 -77.833 46 -136.5v-347c0 -8 -4.33301 -12 -13 -12h-14c-8.66699 0 -13 4 -13 12v337c0 104.667 -44.333 157 -133 157c-50 0 -89.333 -18.5 -118 -55.5
s-43.667 -89.167 -45 -156.5v-282c0 -8 -4.33301 -12 -13 -12h-14c-8.66699 0 -13 4 -13 12v595h-68c-6.66699 0 -10 5.33301 -10 16c0 12.667 3 19 9 19h69v109c0 8 4.33301 12 13 12h14c8.66699 0 13 -4 13 -12v-109h108c6 0 9 -4.66699 9 -14c0 -14 -3.33301 -21 -10 -21
z" />
    <glyph glyph-name="Itilde" unicode="&#x128;" horiz-adv-x="266" 
d="M113 710c0 8 4.33301 12 13 12h14c8.66699 0 13 -4 13 -12v-698c0 -8 -4.33301 -12 -13 -12h-14c-8.66699 0 -13 4 -13 12v698zM179 834c9.33301 0 17.3291 3.32812 23.9961 9.99512s10 16.334 10 29.001c0 4 2.33301 6 7 6h19c4 0 6 -2.33301 6 -7
c0 -22.667 -6 -40.167 -18 -52.5s-28 -18.5 -48 -18.5c-31.333 0 -51 9.66699 -59 29c-0.666992 0.666992 -1.5 2.33398 -2.5 5.00098s-1.83301 4.33398 -2.5 5.00098s-1.66699 2 -3 4s-2.66602 3.33301 -3.99902 4s-3.16602 1.33398 -5.49902 2.00098
s-5.16602 1 -8.49902 1c-9.33301 0 -17.166 -3.5 -23.499 -10.5s-9.5 -16.5 -9.5 -28.5c0 -4.66699 -2.33301 -7 -7 -7h-18c-2.66699 0 -4.5 0.333008 -5.5 1s-1.5 3 -1.5 7c0 22 6.16699 39.167 18.5 51.5s27.833 18.5 46.5 18.5c12.667 0 23 -2 31 -6
s13.333 -7.66699 16 -11s6 -8.66602 10 -15.999c4.66699 -10.667 14 -16 28 -16z" />
    <glyph glyph-name="itilde" unicode="&#x129;" horiz-adv-x="226" 
d="M133 520v-508c0 -8 -4.33301 -12 -13 -12h-14c-8.66699 0 -13 4 -13 12v508c0 8 4.33301 12 13 12h14c8.66699 0 13 -4 13 -12zM156 666c9.33301 0 17.3291 3.32812 23.9961 9.99512s10 16.334 10 29.001c0 4 2.33301 6 7 6h19c4 0 6 -2.33301 6 -7
c0 -22.667 -6 -40.167 -18 -52.5s-28 -18.5 -48 -18.5c-31.333 0 -51 9.66699 -59 29c-0.666992 0.666992 -1.5 2.33398 -2.5 5.00098s-1.83301 4.33398 -2.5 5.00098s-1.66699 2 -3 4s-2.66602 3.33301 -3.99902 4s-3.16602 1.33398 -5.49902 2.00098
s-5.16602 1 -8.49902 1c-9.33301 0 -17.166 -3.5 -23.499 -10.5s-9.5 -16.5 -9.5 -28.5c0 -4.66699 -2.33301 -7 -7 -7h-18c-2.66699 0 -4.5 0.333008 -5.5 1s-1.5 3 -1.5 7c0 22 6.16699 39.167 18.5 51.5s27.833 18.5 46.5 18.5c12.667 0 23 -2 31 -6
s13.333 -7.66699 16 -11s6 -8.66602 10 -15.999c4.66699 -10.667 14 -16 28 -16z" />
    <glyph glyph-name="Imacron" unicode="&#x12a;" horiz-adv-x="266" 
d="M113 710c0 8 4.33301 12 13 12h14c8.66699 0 13 -4 13 -12v-698c0 -8 -4.33301 -12 -13 -12h-14c-8.66699 0 -13 4 -13 12v698zM247 805h-215c-6.66699 0 -10 5.33301 -10 16c0 12.667 3 19 9 19h217c6 0 9 -4.66699 9 -14c0 -14 -3.33301 -21 -10 -21z" />
    <glyph glyph-name="imacron" unicode="&#x12b;" horiz-adv-x="226" 
d="M133 520v-508c0 -8 -4.33301 -12 -13 -12h-14c-8.66699 0 -13 4 -13 12v508c0 8 4.33301 12 13 12h14c8.66699 0 13 -4 13 -12zM225 637h-215c-6.66699 0 -10 5.33301 -10 16c0 12.667 3 19 9 19h217c6 0 9 -4.66699 9 -14c0 -14 -3.33301 -21 -10 -21z" />
    <glyph glyph-name="Ibreve" unicode="&#x12c;" horiz-adv-x="266" 
d="M113 710c0 8 4.33301 12 13 12h14c8.66699 0 13 -4 13 -12v-698c0 -8 -4.33301 -12 -13 -12h-14c-8.66699 0 -13 4 -13 12v698zM135 822c50.667 0 76 19.333 76 58c0 6 3 9 9 9h23c5.33301 0 8 -3.33301 8 -10c0 -29.333 -11 -52.5 -33 -69.5s-49.667 -25.5 -83 -25.5
c-36 0 -64 8.5 -84 25.5s-30 40.5 -30 70.5c0 6 2.66699 9 8 9h24c5.33301 0 8 -2.66699 8 -8c0 -39.333 24.667 -59 74 -59z" />
    <glyph glyph-name="ibreve" unicode="&#x12d;" horiz-adv-x="226" 
d="M133 520v-508c0 -8 -4.33301 -12 -13 -12h-14c-8.66699 0 -13 4 -13 12v508c0 8 4.33301 12 13 12h14c8.66699 0 13 -4 13 -12zM112 654c50.667 0 76 19.333 76 58c0 6 3 9 9 9h23c5.33301 0 8 -3.33301 8 -10c0 -29.333 -11 -52.5 -33 -69.5s-49.667 -25.5 -83 -25.5
c-36 0 -64 8.5 -84 25.5s-30 40.5 -30 70.5c0 6 2.66699 9 8 9h24c5.33301 0 8 -2.66699 8 -8c0 -39.333 24.667 -59 74 -59z" />
    <glyph glyph-name="Iogonek" unicode="&#x12e;" horiz-adv-x="266" 
d="M153 12c0 -8 -3.33203 -11.998 -9.99902 -11.998c-44 -25.333 -66 -57 -66 -95c0 -12 2.66699 -21.333 8 -28s11.333 -10.834 18 -12.501s15.667 -2.5 27 -2.5c19.333 0 36.333 3.66699 51 11c13.333 6.66699 21.333 6.33398 24 -0.999023l3 -11
c2 -8.66699 -1 -15.334 -9 -20.001c-19.333 -11.333 -42.333 -17 -69 -17c-28.667 0 -51.334 6.66699 -68.001 20s-25 33.333 -25 60c0 43.333 25.333 79.666 76 108.999v697c0 8 4.33301 12 13 12h14c8.66699 0 13 -4 13 -12v-698z" />
    <glyph glyph-name="iogonek" unicode="&#x12f;" horiz-adv-x="226" 
d="M133 12c0 -8 -3.66602 -11.999 -10.999 -11.999c-46 -26.667 -69 -60.667 -69 -102c0 -12 2.66699 -21.333 8 -28s11.333 -10.834 18 -12.501s15.667 -2.5 27 -2.5c19.333 0 36.333 3.66699 51 11c13.333 6.66699 21.333 6.33398 24 -0.999023l3 -11
c2 -8.66699 -1 -15.334 -9 -20.001c-19.333 -11.333 -42.333 -17 -69 -17c-28.667 0 -51.334 6.66699 -68.001 20s-25 33.333 -25 60c0 45.333 26.667 82.333 80 111v513c0 8 4.33301 12 13 12h14c8.66699 0 13 -4 13 -12v-509zM69.001 713.001
c0 24 10.665 36.001 31.998 36.001c8.66699 0 15.834 -3.16699 21.501 -9.5s8.5 -14.166 8.5 -23.499c0 -10.667 -3.16699 -18.834 -9.5 -24.501s-14.166 -8.5 -23.499 -8.5c-8 0 -14.833 2.66699 -20.5 8s-8.5 12.666 -8.5 21.999z" />
    <glyph glyph-name="Idotaccent" unicode="&#x130;" horiz-adv-x="266" 
d="M113 710c0 8 4.33301 12 13 12h14c8.66699 0 13 -4 13 -12v-698c0 -8 -4.33301 -12 -13 -12h-14c-8.66699 0 -13 4 -13 12v698zM96 842c0 10.667 3.33301 19.5 10 26.5s14.667 10.5 24 10.5c8.66699 0 16.167 -3.16699 22.5 -9.5s9.5 -14.5 9.5 -24.5
s-3.33301 -18.333 -10 -25s-15 -10 -25 -10c-9.33301 0 -16.833 2.83301 -22.5 8.5s-8.5 13.5 -8.5 23.5z" />
    <glyph glyph-name="dotlessi" unicode="&#x131;" horiz-adv-x="224" 
d="M132 520v-508c0 -8 -4.33301 -12 -13 -12h-14c-8.66699 0 -13 4 -13 12v508c0 8 4.33301 12 13 12h14c8.66699 0 13 -4 13 -12z" />
    <glyph glyph-name="IJ" unicode="&#x132;" horiz-adv-x="751" 
d="M327 20v17c0 8 3.33301 11 10 9c47.333 -11.333 90 -17 128 -17c92.667 0 139 55.333 139 166v515c0 8 4.33301 12 13 12h14c8.66699 0 13 -4 13 -12v-519c0 -133.333 -59 -200 -177 -200c-51.333 0 -95 5 -131 15c-6 1.33301 -9 6 -9 14zM112 710c0 8 4.33301 12 13 12
h14c8.66699 0 13 -4 13 -12v-698c0 -8 -4.33301 -12 -13 -12h-14c-8.66699 0 -13 4 -13 12v698z" />
    <glyph glyph-name="ij" unicode="&#x133;" horiz-adv-x="488" 
d="M225 -226l0.00195312 17c0 7.33301 4 10 12 8c23.333 -6.66699 42.666 -10 57.999 -10c40.667 0 61 31.333 61 94v641c0 8 4.33301 12 13 12h14c8.66699 0 13 -4 13 -12v-645c0 -85.333 -33.667 -128 -101 -128c-24.667 0 -45.334 3.33301 -62.001 10
c-5.33301 2 -8 6.33301 -8 13zM131.002 12c0 -8 -4.33301 -12 -13 -12h-14c-8.66699 0 -13 4 -13 12v509c0 8 4.33301 12 13 12h14c8.66699 0 13 -4 13 -12v-509zM341.002 715c0 24 10.665 36.001 31.998 36.001c8.66699 0 15.834 -3.16699 21.501 -9.5
s8.5 -14.166 8.5 -23.499c0 -10.667 -3.16699 -18.834 -9.5 -24.501s-14.166 -8.5 -23.499 -8.5c-8 0 -14.833 2.66699 -20.5 8s-8.5 12.666 -8.5 21.999zM67 713.001c0 24 10.665 36.001 31.998 36.001c8.66699 0 15.834 -3.16699 21.501 -9.5s8.5 -14.166 8.5 -23.499
c0 -10.667 -3.16699 -18.834 -9.5 -24.501s-14.166 -8.5 -23.499 -8.5c-8 0 -14.833 2.66699 -20.5 8s-8.5 12.666 -8.5 21.999z" />
    <glyph glyph-name="Jcircumflex" unicode="&#x134;" horiz-adv-x="456" 
d="M32 20v17c0 8 3.33301 11 10 9c47.333 -11.333 90 -17 128 -17c92.667 0 139 55.333 139 166v515c0 8 4.33301 12 13 12h14c8.66699 0 13 -4 13 -12v-519c0 -133.333 -59 -200 -177 -200c-50.667 0 -94 5 -130 15c-6.66699 1.33301 -10 6 -10 14zM414 802l-83.998 83
l-84 -83c-8.66699 -8.66699 -16.334 -13 -23.001 -13h-21c-9.33301 0 -10.333 4.66699 -3 14c1.33301 2 2.66602 3.66699 3.99902 5l97 100c8.66699 9.33301 18.334 14 29.001 14c10 0 20 -5 30 -15l98 -99c8.66699 -10.667 9 -17 1 -19h-21
c-6.66699 0 -14.334 4.33301 -23.001 13z" />
    <glyph glyph-name="jcircumflex" unicode="&#x135;" horiz-adv-x="226" 
d="M-38 -226l0.00195312 17c0 7.33301 4 10 12 8c23.333 -6.66699 42.666 -10 57.999 -10c40.667 0 61 31.333 61 94v641c0 8 4.33301 12 13 12h14c8.66699 0 13 -4 13 -12v-645c0 -85.333 -33.667 -128 -101 -128c-24.667 0 -45.334 3.33301 -62.001 10
c-5.33301 2 -8 6.33301 -8 13zM195.002 642l-83.998 83l-84 -83c-8.66699 -8.66699 -16.334 -13 -23.001 -13h-21c-9.33301 0 -10.333 4.66699 -3 14c1.33301 2 2.66602 3.66699 3.99902 5l97 100c8.66699 9.33301 18.334 14 29.001 14c10 0 20 -5 30 -15l98 -99
c8.66699 -10.667 9 -17 1 -19h-21c-6.66699 0 -14.334 4.33301 -23.001 13z" />
    <glyph glyph-name="Kcommaaccent" unicode="&#x136;" horiz-adv-x="626" 
d="M267 382l-14 0.00195312l-101 -115v-255c0 -8 -4.33301 -12 -13 -12h-14c-8.66699 0 -13 4 -13 12v698c0 8 4.33301 12 13 12h14c8.66699 0 13 -4 13 -12v-387l341 388c6.66699 7.33301 13.334 11 20.001 11h23c3.33301 0 5.83301 -1.16699 7.5 -3.5
s0.833984 -5.5 -2.49902 -9.5l-257 -292c20 0 38.5 -4 55.5 -12s32.167 -19.833 45.5 -35.5s25.166 -31.334 35.499 -47.001s20.333 -35.834 30 -60.501s17.334 -45.167 23.001 -61.5s12.5 -37.5 20.5 -63.5s13.667 -44 17 -54c10.667 -34 26.667 -51 48 -51
c8 0 20.667 2.66699 38 8c10.667 4.66699 16 2 16 -8v-8c0 -6 -0.833008 -10 -2.5 -12s-6.5 -4.66699 -14.5 -8c-12.667 -4.66699 -24 -7 -34 -7c-12.667 0 -23.5 1.33301 -32.5 4s-19 10.167 -30 22.5s-20.5 30.166 -28.5 53.499c-4.66699 12.667 -10.834 32 -18.501 58
l-20 67.5c-5.66699 19 -14 40.5 -25 64.5s-22.333 43.833 -34 59.5s-26.834 28.834 -45.501 39.501s-39 16 -61 16zM283 -135.998c0 12.667 4 23.1689 12 31.502s17.667 12.5 29 12.5s20.666 -3.83301 27.999 -11.5s11 -18.834 11 -33.501c0 -44 -26.667 -88.333 -80 -133
c-7.33301 -6 -12.666 -6.66699 -15.999 -2l-5 6c-4 5.33301 -2.66699 10.666 4 15.999c29.333 22 47.333 47 54 75c-24.667 1.33301 -37 14.333 -37 39z" />
    <glyph glyph-name="kcommaaccent" unicode="&#x137;" horiz-adv-x="487" 
d="M443 509l-265.002 -238.999l260 -257c4 -4 5.16699 -7.16699 3.5 -9.5s-5.16699 -3.5 -10.5 -3.5h-17c-11.333 0 -19.666 2.66699 -24.999 8l-257 254v-250c0 -2.66699 -0.333008 -4.66699 -1 -6c0 -1.33301 -0.333008 -2.33301 -1 -3c-2 -2 -5.66699 -3 -11 -3h-14
c-4.66699 0 -7.66699 0.333008 -9 1c-1.33301 0 -2 0.666992 -2 2c-1.33301 1.33301 -2 3 -2 5v746c0 2 0.333008 3.33301 1 4c0 0.666992 1 2 3 4h2c0.666992 0.666992 1.33398 1 2.00098 1h19c2.66699 0 4.66699 -0.333008 6 -1h2l2 -1
c0.666992 -0.666992 1.66699 -3 3 -7v-477l266 240c6.66699 6.66699 14.667 10 24 10h21c2.66699 0 4.66699 -0.833008 6 -2.5s1.5 -3.83398 0.5 -6.50098s-3.16699 -5.66699 -6.5 -9zM220.998 -135.999c0 12.667 4 23.1689 12 31.502s17.667 12.5 29 12.5
s20.666 -3.83301 27.999 -11.5s11 -18.834 11 -33.501c0 -44 -26.667 -88.333 -80 -133c-7.33301 -6 -12.666 -6.66699 -15.999 -2l-5 6c-4 5.33301 -2.66699 10.666 4 15.999c29.333 22 47.333 47 54 75c-24.667 1.33301 -37 14.333 -37 39z" />
    <glyph glyph-name="Lacute" unicode="&#x139;" horiz-adv-x="541" 
d="M117 710c0 8 4.33301 12 13 12h14c8.66699 0 13 -4 13 -12v-672h345c8 0 12 -4.33301 12 -13v-12c0 -8.66699 -4 -13 -12 -13h-375c-6.66699 0 -10 4 -10 12v698zM99 801l-5.00195 9.99805c-3.33301 6.66699 -2.66602 11.334 2.00098 14.001l150 80
c8 4.66699 14 3.33398 18 -3.99902l9 -15c4.66699 -8.66699 2.66699 -15 -6 -19l-152 -69c-7.33301 -3.33301 -12.666 -2.33301 -15.999 3z" />
    <glyph glyph-name="lacute" unicode="&#x13a;" horiz-adv-x="224" 
d="M137 751v-739c0 -8 -4.33301 -12 -13 -12h-14c-8.66699 0 -13 4 -13 12v739c0 8 4.33301 12 13 12h14c8.66699 0 13 -4 13 -12zM56 793l-5.00195 9.99805c-3.33301 6.66699 -2.66602 11.334 2.00098 14.001l150 80c8 4.66699 14 3.33398 18 -3.99902l9 -15
c4.66699 -8.66699 2.66699 -15 -6 -19l-152 -69c-7.33301 -3.33301 -12.666 -2.33301 -15.999 3z" />
    <glyph glyph-name="Lcommaaccent" unicode="&#x13b;" horiz-adv-x="541" 
d="M113 710c0 8 4.33301 12 13 12h14c8.66699 0 13 -4 13 -12v-672h345c8 0 12 -4.33301 12 -13v-12c0 -8.66699 -4 -13 -12 -13h-375c-6.66699 0 -10 4 -10 12v698zM267 -136c0 12.667 4 23.1689 12 31.502s17.667 12.5 29 12.5s20.666 -3.83301 27.999 -11.5
s11 -18.834 11 -33.501c0 -44 -26.667 -88.333 -80 -133c-7.33301 -6 -12.666 -6.66699 -15.999 -2l-5 6c-4 5.33301 -2.66699 10.666 4 15.999c29.333 22 47.333 47 54 75c-24.667 1.33301 -37 14.333 -37 39z" />
    <glyph glyph-name="lcommaaccent" unicode="&#x13c;" horiz-adv-x="224" 
d="M139 751v-739c0 -8 -4.33301 -12 -13 -12h-14c-8.66699 0 -13 4 -13 12v739c0 8 4.33301 12 13 12h14c8.66699 0 13 -4 13 -12zM91 -116c0 12.667 4.00098 23.1689 12.001 31.502s17.667 12.5 29 12.5s20.666 -3.83301 27.999 -11.5s11 -18.834 11 -33.501
c0 -44 -26.667 -88.333 -80 -133c-7.33301 -6 -12.666 -6.66699 -15.999 -2l-5 6c-4.66699 5.33301 -3.33398 10.666 3.99902 15.999c29.333 22 47.333 47 54 75c-24.667 1.33301 -37 14.333 -37 39z" />
    <glyph glyph-name="Lcaron" unicode="&#x13d;" horiz-adv-x="544" 
d="M113 710c0 8 4.33301 12 13 12h14c8.66699 0 13 -4 13 -12v-672h345c8 0 12 -4.33301 12 -13v-12c0 -8.66699 -4 -13 -12 -13h-375c-6.66699 0 -10 4 -10 12v698zM405 547l-6 164c-0.666992 4 0.5 6.83301 3.5 8.5s9.16699 2.5 18.5 2.5s15.333 -0.833008 18 -2.5
s4 -4.5 4 -8.5l-6 -164c0 -8.66699 -5.33301 -13 -16 -13s-16 4.33301 -16 13z" />
    <glyph glyph-name="lcaron" unicode="&#x13e;" horiz-adv-x="225" 
d="M132 751v-739c0 -8 -4.33301 -12 -13 -12h-14c-8.66699 0 -13 4 -13 12v739c0 8 4.33301 12 13 12h14c8.66699 0 13 -4 13 -12zM193 718c0 12 3.33301 21.666 10 28.999s15 11 25 11s18.5 -3.66699 25.5 -11s10.5 -17.333 10.5 -30c0 -40.667 -25.667 -83 -77 -127
c-6.66699 -5.33301 -11.667 -6 -15 -2l-4 6c-2.66699 4 -1 8.66699 5 14c30 26.667 47.333 51.334 52 74.001c-21.333 1.33301 -32 13.333 -32 36z" />
    <glyph glyph-name="Ldot" unicode="&#x13f;" horiz-adv-x="546" 
d="M112 710c0 8 4.33301 12 13 12h14c8.66699 0 13 -4 13 -12v-672h345c8 0 12 -4.33301 12 -13v-12c0 -8.66699 -4 -13 -12 -13h-375c-6.66699 0 -10 4 -10 12v698zM296 341c0 10.667 3.33301 19.5 10 26.5s14.667 10.5 24 10.5c8.66699 0 16.167 -3.16699 22.5 -9.5
s9.5 -14.5 9.5 -24.5s-3.33301 -18.333 -10 -25s-15 -10 -25 -10c-9.33301 0 -16.833 2.83301 -22.5 8.5s-8.5 13.5 -8.5 23.5z" />
    <glyph glyph-name="ldot" unicode="&#x140;" horiz-adv-x="288" 
d="M132 751v-739c0 -8 -4.33301 -12 -13 -12h-14c-8.66699 0 -13 4 -13 12v739c0 8 4.33301 12 13 12h14c8.66699 0 13 -4 13 -12zM216 279c0 10.667 3.33301 19.5 10 26.5s14.667 10.5 24 10.5c8.66699 0 16.167 -3.16699 22.5 -9.5s9.5 -14.5 9.5 -24.5
s-3.33301 -18.333 -10 -25s-15 -10 -25 -10c-9.33301 0 -16.833 2.83301 -22.5 8.5s-8.5 13.5 -8.5 23.5z" />
    <glyph glyph-name="Lslash" unicode="&#x141;" horiz-adv-x="561" 
d="M133 280l-97 -46.001c-8 -3.33301 -12 -1.33301 -12 6v16c0 8 4.33301 14.333 13 19l96 46v389c0 8 4.33301 12 13 12h14c8.66699 0 13 -4 13 -12v-370l162 78c7.33301 4 11 1.66699 11 -7v-15c0 -9.33301 -3.66699 -15.666 -11 -18.999l-162 -78v-261h345
c8 0 12 -4.33301 12 -13v-12c0 -8.66699 -4 -13 -12 -13h-375c-6.66699 0 -10 4 -10 12v268z" />
    <glyph glyph-name="lslash" unicode="&#x142;" horiz-adv-x="370" 
d="M141 370l-89 -44c-8 -3.33301 -12 -1.33301 -12 6v16c0 8 4.33301 14.333 13 19l88 43v341c0 8 4.33301 12 13 12h14c8.66699 0 13 -4 13 -12v-321l140 70c7.33301 4 11 1.66699 11 -7v-15c0 -9.33301 -3.66699 -15.666 -11 -18.999l-140 -69v-316
c0 -26.667 10.667 -40 32 -40c8.66699 0 21 2 37 6c11.333 3.33301 17 0.666016 17 -8.00098v-14c0 -7.33301 -4 -12.333 -12 -15c-16.667 -4.66699 -32 -7 -46 -7c-45.333 0 -68 25 -68 75v299z" />
    <glyph glyph-name="Nacute" unicode="&#x143;" horiz-adv-x="708" 
d="M578 0h-11c-8 0 -15.333 5 -22 15l-362 586c-19.333 32 -31 55.333 -35 70c3.33301 -25.333 5 -49.333 5 -72v-587c0 -8 -4.33301 -12 -13 -12h-14c-8.66699 0 -13 4 -13 12v698c0 5.33301 1 8.66602 3 9.99902s6.66699 2 14 2h11c8 0 15.333 -5 22 -15l373 -608
c16 -26.667 25.667 -45 29 -55c-6.66699 28 -10 58 -10 90v576c0 8 4.33301 12 13 12h14c8.66699 0 13 -4 13 -12v-698c0 -5.33301 -1 -8.66602 -3 -9.99902s-6.66699 -2 -14 -2zM315 801l-5.00195 9.99805c-3.33301 6.66699 -2.66602 11.334 2.00098 14.001l150 80
c8 4.66699 14 3.33398 18 -3.99902l9 -15c4.66699 -8.66699 2.66699 -15 -6 -19l-152 -69c-7.33301 -3.33301 -12.666 -2.33301 -15.999 3z" />
    <glyph glyph-name="nacute" unicode="&#x144;" horiz-adv-x="556" 
d="M295 506c-51.333 0 -91.334 -19.5 -120.001 -58.5s-43 -93.5 -43 -163.5v-272c0 -8 -4.33301 -12 -13 -12h-14c-8.66699 0 -13 4 -13 12v508c0 8 4.33301 12 13 12h14c8.66699 0 13 -4 13 -12v-85c14.667 36.667 37 64 67 82s63.667 27 101 27
c50.667 0 91.334 -16.167 122.001 -48.5s46 -77.833 46 -136.5v-347c0 -8 -4.33301 -12 -13 -12h-14c-8.66699 0 -13 4 -13 12v337c0 104.667 -44.333 157 -133 157zM243.999 633l-5.00195 9.99805c-3.33301 6.66699 -2.66602 11.334 2.00098 14.001l150 80
c8 4.66699 14 3.33398 18 -3.99902l9 -15c4.66699 -8.66699 2.66699 -15 -6 -19l-152 -69c-7.33301 -3.33301 -12.666 -2.33301 -15.999 3z" />
    <glyph glyph-name="Ncommaaccent" unicode="&#x145;" horiz-adv-x="708" 
d="M578 0h-11c-8 0 -15.333 5 -22 15l-362 586c-19.333 32 -31 55.333 -35 70c3.33301 -25.333 5 -49.333 5 -72v-587c0 -8 -4.33301 -12 -13 -12h-14c-8.66699 0 -13 4 -13 12v698c0 5.33301 1 8.66602 3 9.99902s6.66699 2 14 2h11c8 0 15.333 -5 22 -15l373 -608
c16 -26.667 25.667 -45 29 -55c-6.66699 28 -10 58 -10 90v576c0 8 4.33301 12 13 12h14c8.66699 0 13 -4 13 -12v-698c0 -5.33301 -1 -8.66602 -3 -9.99902s-6.66699 -2 -14 -2zM325 -136c0 12.667 4 23.1689 12 31.502s17.667 12.5 29 12.5s20.666 -3.83301 27.999 -11.5
s11 -18.834 11 -33.501c0 -44 -26.667 -88.333 -80 -133c-7.33301 -6 -12.666 -6.66699 -15.999 -2l-5 6c-4 5.33301 -2.66699 10.666 4 15.999c29.333 22 47.333 47 54 75c-24.667 1.33301 -37 14.333 -37 39z" />
    <glyph glyph-name="ncommaaccent" unicode="&#x146;" horiz-adv-x="556" 
d="M295 506c-51.333 0 -91.334 -19.5 -120.001 -58.5s-43 -93.5 -43 -163.5v-272c0 -8 -4.33301 -12 -13 -12h-14c-8.66699 0 -13 4 -13 12v508c0 8 4.33301 12 13 12h14c8.66699 0 13 -4 13 -12v-85c14.667 36.667 37 64 67 82s63.667 27 101 27
c50.667 0 91.334 -16.167 122.001 -48.5s46 -77.833 46 -136.5v-347c0 -8 -4.33301 -12 -13 -12h-14c-8.66699 0 -13 4 -13 12v337c0 104.667 -44.333 157 -133 157zM240.999 -136c0 12.667 4 23.1689 12 31.502s17.667 12.5 29 12.5s20.666 -3.83301 27.999 -11.5
s11 -18.834 11 -33.501c0 -44 -26.667 -88.333 -80 -133c-7.33301 -6 -12.666 -6.66699 -15.999 -2l-5 6c-4 5.33301 -2.66699 10.666 4 15.999c29.333 22 47.333 47 54 75c-24.667 1.33301 -37 14.333 -37 39z" />
    <glyph glyph-name="Ncaron" unicode="&#x147;" horiz-adv-x="708" 
d="M578 0h-11c-8 0 -15.333 5 -22 15l-362 586c-19.333 32 -31 55.333 -35 70c3.33301 -25.333 5 -49.333 5 -72v-587c0 -8 -4.33301 -12 -13 -12h-14c-8.66699 0 -13 4 -13 12v698c0 5.33301 1 8.66602 3 9.99902s6.66699 2 14 2h11c8 0 15.333 -5 22 -15l373 -608
c16 -26.667 25.667 -45 29 -55c-6.66699 28 -10 58 -10 90v576c0 8 4.33301 12 13 12h14c8.66699 0 13 -4 13 -12v-698c0 -5.33301 -1 -8.66602 -3 -9.99902s-6.66699 -2 -14 -2zM269 916l84.998 -83l83 83c8.66699 8.66699 16.334 13 23.001 13h21
c4.66699 0 7.16699 -1.83301 7.5 -5.5s-1.5 -7.16699 -5.5 -10.5l-101 -103c-8.66699 -9.33301 -18 -14 -28 -14c-10.667 0 -20.667 4.66699 -30 14l-101 103c-4 3.33301 -5.83301 6.83301 -5.5 10.5s2.83301 5.5 7.5 5.5h21c6.66699 0 14.334 -4.33301 23.001 -13z" />
    <glyph glyph-name="ncaron" unicode="&#x148;" horiz-adv-x="556" 
d="M295 506c-51.333 0 -91.334 -19.5 -120.001 -58.5s-43 -93.5 -43 -163.5v-272c0 -8 -4.33301 -12 -13 -12h-14c-8.66699 0 -13 4 -13 12v508c0 8 4.33301 12 13 12h14c8.66699 0 13 -4 13 -12v-85c14.667 36.667 37 64 67 82s63.667 27 101 27
c50.667 0 91.334 -16.167 122.001 -48.5s46 -77.833 46 -136.5v-347c0 -8 -4.33301 -12 -13 -12h-14c-8.66699 0 -13 4 -13 12v337c0 104.667 -44.333 157 -133 157zM197.999 748l84.998 -83l83 83c8.66699 8.66699 16.334 13 23.001 13h21
c4.66699 0 7.16699 -1.83301 7.5 -5.5s-1.5 -7.16699 -5.5 -10.5l-101 -103c-8.66699 -9.33301 -18 -14 -28 -14c-10.667 0 -20.667 4.66699 -30 14l-101 103c-4 3.33301 -5.83301 6.83301 -5.5 10.5s2.83301 5.5 7.5 5.5h21c6.66699 0 14.334 -4.33301 23.001 -13z" />
    <glyph glyph-name="napostrophe" unicode="&#x149;" horiz-adv-x="556" 
d="M297 506c-51.333 0 -91.334 -19.5 -120.001 -58.5s-43 -93.5 -43 -163.5v-272c0 -8 -4.33301 -12 -13 -12h-14c-8.66699 0 -13 4 -13 12v508c0 8 4.33301 12 13 12h14c8.66699 0 13 -4 13 -12v-85c14.667 36.667 37 64 67 82s63.667 27 101 27
c50.667 0 91.334 -16.167 122.001 -48.5s46 -77.833 46 -136.5v-347c0 -8 -4.33301 -12 -13 -12h-14c-8.66699 0 -13 4 -13 12v337c0 104.667 -44.333 157 -133 157zM118.999 724c0 12.667 4 23.1689 12 31.502s17.667 12.5 29 12.5s20.666 -3.83301 27.999 -11.5
s11 -18.834 11 -33.501c0 -44 -26.667 -88.333 -80 -133c-7.33301 -6 -12.666 -6.66699 -15.999 -2l-5 6c-4 5.33301 -2.66699 10.666 4 15.999c29.333 22 47.333 47 54 75c-24.667 1.33301 -37 14.333 -37 39z" />
    <glyph glyph-name="Eng" unicode="&#x14a;" horiz-adv-x="709" 
d="M136 722c10 -0.666992 18.667 -5.66699 26 -15l394 -638v641c0 8 4.33301 12 13 12h14c8.66699 0 13 -4 13 -12v-317h1v-400c0 -133.333 -59 -200 -177 -200c-51.333 0 -95 5 -131 15c-6 1.33301 -9 6 -9 14v17c0 8 3.33301 11 10 9c47.333 -11.333 90 -17 128 -17
c91.333 0 137.666 54.333 138.999 163c-5.33301 2 -9.66602 5.66699 -12.999 11l-392 636v-629c0 -8 -4.33301 -12 -13 -12h-14c-8.66699 0 -13 4 -13 12v698c0 8 4.33301 12 13 12h11z" />
    <glyph glyph-name="eng" unicode="&#x14b;" horiz-adv-x="555" 
d="M294 506c-51.333 0 -91.334 -19.499 -120.001 -58.499s-43 -93.5 -43 -163.5v-272c0 -8 -4.33301 -12 -13 -12h-14c-8.66699 0 -13 4 -13 12v503c0 8 4.33301 12 13 12h14c8.66699 0 13 -4 13 -12v-80c14.667 36.667 37 64 67 82s63.667 27 101 27
c50.667 0 91.334 -16.167 122.001 -48.5s46 -77.833 46 -136.5v-440c0 -112 -43.667 -168 -131 -168c-15.333 0 -30.166 1.66699 -44.499 5s-25.833 6.66602 -34.5 9.99902s-14 5 -16 5c-3.33301 0 -5 4.66699 -5 14v17c0 4.66699 4 5.66699 12 3
c25.333 -13.333 54.666 -20 87.999 -20c60.667 0 91 42.667 91 128v436c0 104.667 -44.333 157 -133 157z" />
    <glyph glyph-name="Omacron" unicode="&#x14c;" horiz-adv-x="802" 
d="M69 356c0 37.333 3.16602 72.999 9.49902 106.999s17.333 67.667 33 101s35.667 62.333 60 87s56 44.5 95 59.5s83.5 22.5 133.5 22.5c59.333 0 111.333 -10.333 156 -31s79.334 -48.834 104.001 -84.501s43 -74.667 55 -117s18 -87.833 18 -136.5
c0 -36.667 -3 -72 -9 -106s-17 -67.833 -33 -101.5s-36 -62.667 -60 -87s-55.667 -44.166 -95 -59.499s-84 -23 -134 -23c-60 0 -112.167 10.333 -156.5 31s-79 48.834 -104 84.501s-43.333 74.667 -55 117s-17.5 87.833 -17.5 136.5zM398.999 697.999
c-43.333 0 -82.333 -6.83594 -117 -20.5029s-62.5 -31.5 -83.5 -53.5s-38.5 -48 -52.5 -78s-23.667 -60 -29 -90s-8 -61.333 -8 -94c0 -41.333 4.83301 -80.833 14.5 -118.5s25 -73.667 46 -108s51.667 -61.833 92 -82.5s87.833 -31 142.5 -31
c45.333 0 85.5 7.33301 120.5 22s62.833 33.167 83.5 55.5s37.667 49 51 80s22.333 60.833 27 89.5s7 58.334 7 89.001c0 32 -2.66699 62.833 -8 92.5s-15 59.834 -29 90.501s-31.667 57.334 -53 80.001s-49.5 41.167 -84.5 55.5s-74.833 21.5 -119.5 21.5zM511.999 804.996
h-215c-6.66699 0 -10 5.33301 -10 16c0 12.667 3 19 9 19h217c6 0 9 -4.66699 9 -14c0 -14 -3.33301 -21 -10 -21z" />
    <glyph glyph-name="omacron" unicode="&#x14d;" horiz-adv-x="568" 
d="M66 266c0 85.333 17.5 153.002 52.5 203.002s90.167 75 165.5 75c74.667 0 129.667 -25 165 -75s53 -117.667 53 -203c0 -84.667 -17.667 -152.334 -53 -203.001s-90.333 -76 -165 -76c-75.333 0 -130.5 25.167 -165.5 75.5s-52.5 118.166 -52.5 203.499zM284 506.002
c-118.667 0 -178 -80 -178 -240c0 -160.667 59.333 -241 178 -241s178 80.333 178 241c0 160 -59.333 240 -178 240zM397 637.002h-215c-6.66699 0 -10 5.33301 -10 16c0 12.667 3 19 9 19h217c6 0 9 -4.66699 9 -14c0 -14 -3.33301 -21 -10 -21z" />
    <glyph glyph-name="Obreve" unicode="&#x14e;" horiz-adv-x="802" 
d="M69 356c0 37.333 3.16602 72.999 9.49902 106.999s17.333 67.667 33 101s35.667 62.333 60 87s56 44.5 95 59.5s83.5 22.5 133.5 22.5c59.333 0 111.333 -10.333 156 -31s79.334 -48.834 104.001 -84.501s43 -74.667 55 -117s18 -87.833 18 -136.5
c0 -36.667 -3 -72 -9 -106s-17 -67.833 -33 -101.5s-36 -62.667 -60 -87s-55.667 -44.166 -95 -59.499s-84 -23 -134 -23c-60 0 -112.167 10.333 -156.5 31s-79 48.834 -104 84.501s-43.333 74.667 -55 117s-17.5 87.833 -17.5 136.5zM398.999 697.999
c-43.333 0 -82.333 -6.83594 -117 -20.5029s-62.5 -31.5 -83.5 -53.5s-38.5 -48 -52.5 -78s-23.667 -60 -29 -90s-8 -61.333 -8 -94c0 -41.333 4.83301 -80.833 14.5 -118.5s25 -73.667 46 -108s51.667 -61.833 92 -82.5s87.833 -31 142.5 -31
c45.333 0 85.5 7.33301 120.5 22s62.833 33.167 83.5 55.5s37.667 49 51 80s22.333 60.833 27 89.5s7 58.334 7 89.001c0 32 -2.66699 62.833 -8 92.5s-15 59.834 -29 90.501s-31.667 57.334 -53 80.001s-49.5 41.167 -84.5 55.5s-74.833 21.5 -119.5 21.5zM398.999 821.996
c50.667 0 76 19.333 76 58c0 6 3 9 9 9h23c5.33301 0 8 -3.33301 8 -10c0 -29.333 -11 -52.5 -33 -69.5s-49.667 -25.5 -83 -25.5c-36 0 -64 8.5 -84 25.5s-30 40.5 -30 70.5c0 6 2.66699 9 8 9h24c5.33301 0 8 -2.66699 8 -8c0 -39.333 24.667 -59 74 -59z" />
    <glyph glyph-name="obreve" unicode="&#x14f;" horiz-adv-x="568" 
d="M66 266c0 85.333 17.5 153.002 52.5 203.002s90.167 75 165.5 75c74.667 0 129.667 -25 165 -75s53 -117.667 53 -203c0 -84.667 -17.667 -152.334 -53 -203.001s-90.333 -76 -165 -76c-75.333 0 -130.5 25.167 -165.5 75.5s-52.5 118.166 -52.5 203.499zM284 506.002
c-118.667 0 -178 -80 -178 -240c0 -160.667 59.333 -241 178 -241s178 80.333 178 241c0 160 -59.333 240 -178 240zM284 654.002c50.667 0 76 19.333 76 58c0 6 3 9 9 9h23c5.33301 0 8 -3.33301 8 -10c0 -29.333 -11 -52.5 -33 -69.5s-49.667 -25.5 -83 -25.5
c-36 0 -64 8.5 -84 25.5s-30 40.5 -30 70.5c0 6 2.66699 9 8 9h24c5.33301 0 8 -2.66699 8 -8c0 -39.333 24.667 -59 74 -59z" />
    <glyph glyph-name="Ohungarumlaut" unicode="&#x150;" horiz-adv-x="802" 
d="M69 356c0 37.333 3.16602 72.999 9.49902 106.999s17.333 67.667 33 101s35.667 62.333 60 87s56 44.5 95 59.5s83.5 22.5 133.5 22.5c59.333 0 111.333 -10.333 156 -31s79.334 -48.834 104.001 -84.501s43 -74.667 55 -117s18 -87.833 18 -136.5
c0 -36.667 -3 -72 -9 -106s-17 -67.833 -33 -101.5s-36 -62.667 -60 -87s-55.667 -44.166 -95 -59.499s-84 -23 -134 -23c-60 0 -112.167 10.333 -156.5 31s-79 48.834 -104 84.501s-43.333 74.667 -55 117s-17.5 87.833 -17.5 136.5zM398.999 697.999
c-43.333 0 -82.333 -6.83594 -117 -20.5029s-62.5 -31.5 -83.5 -53.5s-38.5 -48 -52.5 -78s-23.667 -60 -29 -90s-8 -61.333 -8 -94c0 -41.333 4.83301 -80.833 14.5 -118.5s25 -73.667 46 -108s51.667 -61.833 92 -82.5s87.833 -31 142.5 -31
c45.333 0 85.5 7.33301 120.5 22s62.833 33.167 83.5 55.5s37.667 49 51 80s22.333 60.833 27 89.5s7 58.334 7 89.001c0 32 -2.66699 62.833 -8 92.5s-15 59.834 -29 90.501s-31.667 57.334 -53 80.001s-49.5 41.167 -84.5 55.5s-74.833 21.5 -119.5 21.5zM319.999 806.996
l-4 5.99902c-4 4 -1 8.66699 9 14l122 67c12.667 7.33301 21.667 8.33301 27 3l10 -14c4 -5.33301 5.66699 -9.16602 5 -11.499s-5 -4.83301 -13 -7.5l-132 -57c-8.66699 -4 -14.167 -6 -16.5 -6s-4.83301 2 -7.5 6zM449.999 806.995l-3.99902 6.00098c-2 4 1 8.33301 9 13
l121 68c14 7.33301 23.333 8.33301 28 3l10 -14c2.66699 -4 4.16699 -6.83301 4.5 -8.5s-0.333984 -3.33398 -2.00098 -5.00098s-5.16699 -3.5 -10.5 -5.5l-132 -57c-9.33301 -4 -15 -6 -17 -6s-4.33301 2 -7 6z" />
    <glyph glyph-name="ohungarumlaut" unicode="&#x151;" horiz-adv-x="568" 
d="M66 266c0 85.333 17.5 153.002 52.5 203.002s90.167 75 165.5 75c74.667 0 129.667 -25 165 -75s53 -117.667 53 -203c0 -84.667 -17.667 -152.334 -53 -203.001s-90.333 -76 -165 -76c-75.333 0 -130.5 25.167 -165.5 75.5s-52.5 118.166 -52.5 203.499zM284 506.002
c-118.667 0 -178 -80 -178 -240c0 -160.667 59.333 -241 178 -241s178 80.333 178 241c0 160 -59.333 240 -178 240zM205 639.002l-4 5.99902c-4 4 -1 8.66699 9 14l122 67c12.667 7.33301 21.667 8.33301 27 3l10 -14c4 -5.33301 5.66699 -9.16602 5 -11.499
s-5 -4.83301 -13 -7.5l-132 -57c-8.66699 -4 -14.167 -6 -16.5 -6s-4.83301 2 -7.5 6zM335 639.001l-3.99902 6.00098c-2 4 1 8.33301 9 13l121 68c14 7.33301 23.333 8.33301 28 3l10 -14c2.66699 -4 4.16699 -6.83301 4.5 -8.5s-0.333984 -3.33398 -2.00098 -5.00098
s-5.16699 -3.5 -10.5 -5.5l-132 -57c-8.66699 -4 -14.167 -6 -16.5 -6s-4.83301 2 -7.5 6z" />
    <glyph glyph-name="OE" unicode="&#x152;" horiz-adv-x="1132" 
d="M69 356c0 37.333 3.16699 72.999 9.5 106.999s17.333 67.667 33 101s35.667 62.333 60 87s56 44.5 95 59.5s83.5 22.5 133.5 22.5c141.333 0 239 -57 293 -171v148c0 8 4.33301 12 13 12h337c8 0 12 -4.33301 12 -13v-12c0 -8.66699 -4 -13 -12 -13h-310v-291h265
c8 0 12 -4.33301 12 -13v-12c0 -8.66699 -4 -13 -12 -13h-265v-317h335c8 0 12 -4.33301 12 -13v-12c0 -8.66699 -4 -13 -12 -13h-362c-8.66699 0 -13 4 -13 12v148c-52.667 -115.333 -149.667 -173 -291 -173c-60 0 -112.167 10.333 -156.5 31s-79 48.834 -104 84.501
s-43.333 74.667 -55 117s-17.5 87.833 -17.5 136.5zM399 697.999c-43.333 0 -82.334 -6.83594 -117.001 -20.5029s-62.5 -31.5 -83.5 -53.5s-38.5 -48 -52.5 -78s-23.667 -60 -29 -90s-8 -61.333 -8 -94c0 -41.333 4.83301 -80.833 14.5 -118.5s25 -73.667 46 -108
s51.667 -61.833 92 -82.5s87.833 -31 142.5 -31c45.333 0 85.5 7.33301 120.5 22s62.833 33.167 83.5 55.5s37.667 49 51 80s22.333 60.833 27 89.5s7 58.334 7 89.001v11c-0.666992 31.333 -4 61.5 -10 90.5s-16 58.333 -30 88s-31.833 55.334 -53.5 77.001
s-49.667 39.334 -84 53.001s-73.166 20.5 -116.499 20.5z" />
    <glyph glyph-name="oe" unicode="&#x153;" horiz-adv-x="989" 
d="M66 266c0 85.333 17.5 153.001 52.5 203.001s90.167 75 165.5 75c116 0 185.667 -61 209 -183c14 58 40 103 78 135s87.333 48 148 48c68.667 0 121.667 -16.5 159 -49.5s56 -78.833 56 -137.5c0 -52.667 -18.333 -93.667 -55 -123s-92.334 -44 -167.001 -44
c-72 0 -134.667 11 -188 33c10 -134 78 -201 204 -201c32.667 0 63 4 91 12c16.667 4.66699 38.334 12.667 65.001 24c6.66699 2.66699 10 0.666992 10 -6v-15c0 -4.66699 -0.833008 -8 -2.5 -10s-6.16699 -4.66699 -13.5 -8c-46.667 -21.333 -95.667 -32 -147 -32
c-132 0 -211.667 59.333 -239 178c-11.333 -55.333 -34.333 -98.833 -69 -130.5s-81 -47.5 -139 -47.5c-75.333 0 -130.5 25.167 -165.5 75.5s-52.5 118.166 -52.5 203.499zM284 506.001c-118.667 0 -178 -80 -178 -240c0 -160.667 59.333 -241 178 -241s178 80.333 178 241
c0 160 -59.333 240 -178 240zM719 509.001c-64.667 0 -113.501 -21.832 -146.501 -65.499s-49.5 -104.834 -49.5 -183.501v-2c56.667 -22 116.334 -33 179.001 -33c128 0 192 45.667 192 137c0 46 -15.667 82 -47 108s-74 39 -128 39z" />
    <glyph glyph-name="Racute" unicode="&#x154;" horiz-adv-x="592" 
d="M247 292l-95.002 0.000976562v-280c0 -8 -4.33301 -12 -13 -12h-14c-8.66699 0 -13 4 -13 12v698c0 8 4.33301 12 13 12h115c158.667 0 238 -70.667 238 -212c0 -114.667 -48.333 -184.334 -145 -209.001c22.667 -14.667 42.5 -38 59.5 -70s39.833 -84.333 68.5 -157
c8 -20 15.5 -33 22.5 -39s17.167 -9 30.5 -9c14.667 0 29.334 4.66699 44.001 14c10.667 6 16 4.33301 16 -5v-11c0 -8 -5.66699 -15.333 -17 -22c-14 -8.66699 -29 -13 -45 -13c-19.333 0 -36.166 5 -50.499 15s-27.833 31.667 -40.5 65l-13.5 36.5
c-7 19 -12.667 33.333 -17 43l-18.5 40.5c-8 17.333 -15.833 30.833 -23.5 40.5s-16.667 20 -27 31s-21.833 19 -34.5 24s-26 7.5 -40 7.5zM151.998 327.001h102c60.667 0 106.167 14.5 136.5 43.5s45.5 75.5 45.5 139.5c0 118 -63 177 -189 177h-95v-360zM221.998 801.001
l-5.00195 9.99805c-3.33301 6.66699 -2.66602 11.334 2.00098 14.001l150 80c8 4.66699 14 3.33398 18 -3.99902l9 -15c4.66699 -8.66699 2.66699 -15 -6 -19l-152 -69c-7.33301 -3.33301 -12.666 -2.33301 -15.999 3z" />
    <glyph glyph-name="racute" unicode="&#x155;" horiz-adv-x="393" 
d="M92 520c0 8 4.33203 12.002 12.999 12.002h14c8.66699 0 13 -4 13 -12v-128c4 16 9.33301 31.5 16 46.5s16.334 31.167 29.001 48.5s29.667 31.166 51 41.499s45.666 15.5 72.999 15.5c22.667 0 40.334 -2.33301 53.001 -7c8 -2.66699 12 -7.33398 12 -14.001v-21
c0 -6.66699 -3.66699 -8.66699 -11 -6c-18 6.66699 -36 10 -54 10c-37.333 0 -69.5 -14.667 -96.5 -44s-45.833 -61.833 -56.5 -97.5s-16 -70.5 -16 -104.5v-248c0 -8 -4.33301 -12 -13 -12h-14c-8.66699 0 -13 4 -13 12v508zM192.999 633.002l-5.00195 9.99805
c-3.33301 6.66699 -2.66602 11.334 2.00098 14.001l150 80c8 4.66699 14 3.33398 18 -3.99902l9 -15c4.66699 -8.66699 2.66699 -15 -6 -19l-152 -69c-7.33301 -3.33301 -12.666 -2.33301 -15.999 3z" />
    <glyph glyph-name="Rcommaaccent" unicode="&#x156;" horiz-adv-x="592" 
d="M247 292l-95.002 0.000976562v-280c0 -8 -4.33301 -12 -13 -12h-14c-8.66699 0 -13 4 -13 12v698c0 8 4.33301 12 13 12h115c158.667 0 238 -70.667 238 -212c0 -114.667 -48.333 -184.334 -145 -209.001c22.667 -14.667 42.5 -38 59.5 -70s39.833 -84.333 68.5 -157
c8 -20 15.5 -33 22.5 -39s17.167 -9 30.5 -9c14.667 0 29.334 4.66699 44.001 14c10.667 6 16 4.33301 16 -5v-11c0 -8 -5.66699 -15.333 -17 -22c-14 -8.66699 -29 -13 -45 -13c-19.333 0 -36.166 5 -50.499 15s-27.833 31.667 -40.5 65l-13.5 36.5
c-7 19 -12.667 33.333 -17 43l-18.5 40.5c-8 17.333 -15.833 30.833 -23.5 40.5s-16.667 20 -27 31s-21.833 19 -34.5 24s-26 7.5 -40 7.5zM151.998 327.001h102c60.667 0 106.167 14.5 136.5 43.5s45.5 75.5 45.5 139.5c0 118 -63 177 -189 177h-95v-360zM249.998 -135.999
c0 12.667 4.00098 23.1689 12.001 31.502s17.667 12.5 29 12.5s20.666 -3.83301 27.999 -11.5s11 -18.834 11 -33.501c0 -44 -26.667 -88.333 -80 -133c-7.33301 -6 -12.666 -6.66699 -15.999 -2l-5 6c-4.66699 5.33301 -3.33398 10.666 3.99902 15.999
c29.333 22 47.333 47 54 75c-24.667 1.33301 -37 14.333 -37 39z" />
    <glyph glyph-name="rcommaaccent" unicode="&#x157;" horiz-adv-x="393" 
d="M99 520c0 8 4.33203 12.002 12.999 12.002h14c8.66699 0 13 -4 13 -12v-128c4 16 9.33301 31.5 16 46.5s16.334 31.167 29.001 48.5s29.667 31.166 51 41.499s45.666 15.5 72.999 15.5c22.667 0 40.334 -2.33301 53.001 -7c8 -2.66699 12 -7.33398 12 -14.001v-21
c0 -6.66699 -3.66699 -8.66699 -11 -6c-18 6.66699 -36 10 -54 10c-37.333 0 -69.5 -14.667 -96.5 -44s-45.833 -61.833 -56.5 -97.5s-16 -70.5 -16 -104.5v-248c0 -8 -4.33301 -12 -13 -12h-14c-8.66699 0 -13 4 -13 12v508zM94.999 -135.998
c0 12.667 4.00098 23.1689 12.001 31.502s17.667 12.5 29 12.5s20.666 -3.83301 27.999 -11.5s11 -18.834 11 -33.501c0 -44 -26.667 -88.333 -80 -133c-7.33301 -6 -12.666 -6.66699 -15.999 -2l-5 6c-4.66699 5.33301 -3.33398 10.666 3.99902 15.999
c29.333 22 47.333 47 54 75c-24.667 1.33301 -37 14.333 -37 39z" />
    <glyph glyph-name="Rcaron" unicode="&#x158;" horiz-adv-x="592" 
d="M247 292l-95.002 0.000976562v-280c0 -8 -4.33301 -12 -13 -12h-14c-8.66699 0 -13 4 -13 12v698c0 8 4.33301 12 13 12h115c158.667 0 238 -70.667 238 -212c0 -114.667 -48.333 -184.334 -145 -209.001c22.667 -14.667 42.5 -38 59.5 -70s39.833 -84.333 68.5 -157
c8 -20 15.5 -33 22.5 -39s17.167 -9 30.5 -9c14.667 0 29.334 4.66699 44.001 14c10.667 6 16 4.33301 16 -5v-11c0 -8 -5.66699 -15.333 -17 -22c-14 -8.66699 -29 -13 -45 -13c-19.333 0 -36.166 5 -50.499 15s-27.833 31.667 -40.5 65l-13.5 36.5
c-7 19 -12.667 33.333 -17 43l-18.5 40.5c-8 17.333 -15.833 30.833 -23.5 40.5s-16.667 20 -27 31s-21.833 19 -34.5 24s-26 7.5 -40 7.5zM151.998 327.001h102c60.667 0 106.167 14.5 136.5 43.5s45.5 75.5 45.5 139.5c0 118 -63 177 -189 177h-95v-360zM176.998 916.001
l84.998 -83l83 83c8.66699 8.66699 16.334 13 23.001 13h21c4.66699 0 7.16699 -1.83301 7.5 -5.5s-1.5 -7.16699 -5.5 -10.5l-101 -103c-8.66699 -9.33301 -18 -14 -28 -14c-10.667 0 -20.667 4.66699 -30 14l-101 103c-4 3.33301 -5.83301 6.83301 -5.5 10.5
s2.83301 5.5 7.5 5.5h21c6.66699 0 14.334 -4.33301 23.001 -13z" />
    <glyph glyph-name="rcaron" unicode="&#x159;" horiz-adv-x="393" 
d="M92 520c0 8 4.33203 12.002 12.999 12.002h14c8.66699 0 13 -4 13 -12v-128c4 16 9.33301 31.5 16 46.5s16.334 31.167 29.001 48.5s29.667 31.166 51 41.499s45.666 15.5 72.999 15.5c22.667 0 40.334 -2.33301 53.001 -7c8 -2.66699 12 -7.33398 12 -14.001v-21
c0 -6.66699 -3.66699 -8.66699 -11 -6c-18 6.66699 -36 10 -54 10c-37.333 0 -69.5 -14.667 -96.5 -44s-45.833 -61.833 -56.5 -97.5s-16 -70.5 -16 -104.5v-248c0 -8 -4.33301 -12 -13 -12h-14c-8.66699 0 -13 4 -13 12v508zM146.999 748.002l84.998 -83l83 83
c8.66699 8.66699 16.334 13 23.001 13h21c4.66699 0 7.16699 -1.83301 7.5 -5.5s-1.5 -7.16699 -5.5 -10.5l-101 -103c-8.66699 -9.33301 -18 -14 -28 -14c-10.667 0 -20.667 4.66699 -30 14l-101 103c-4 3.33301 -5.83301 6.83301 -5.5 10.5s2.83301 5.5 7.5 5.5h21
c6.66699 0 14.334 -4.33301 23.001 -13z" />
    <glyph glyph-name="Sacute" unicode="&#x15a;" 
d="M465 687l0.00390625 -14.0029c0 -10 -6 -12.667 -18 -8c-46.667 19.333 -101.667 29 -165 29c-54 0 -95.167 -9.5 -123.5 -28.5s-42.5 -51.5 -42.5 -97.5c0 -29.333 6.83301 -53.666 20.5 -72.999s31.5 -34 53.5 -44s46.167 -18.833 72.5 -26.5
s52.666 -16.5 78.999 -26.5s50.5 -22.5 72.5 -37.5s39.833 -37.167 53.5 -66.5s20.5 -64.666 20.5 -105.999c0 -131.333 -74.667 -197 -224 -197c-80 0 -144.333 13 -193 39c-6.66699 3.33301 -10 9 -10 17v16c0 8.66699 4.33301 11.334 13 8.00098
c58.667 -28 122 -42 190 -42c57.333 0 102.333 11.5 135 34.5s49 63.5 49 121.5c0 37.333 -6.83301 68.833 -20.5 94.5s-31.334 45.167 -53.001 58.5s-45.667 24.5 -72 33.5l-79.5 26c-26.667 8.33301 -50.834 18.5 -72.501 30.5s-39.334 29.333 -53.001 52
s-20.5 51 -20.5 85c0 111.333 68.333 167 205 167c72 0 130 -10 174 -30c6 -2.66699 9 -7.66699 9 -15zM246.004 800.997l-5.00195 9.99805c-3.33301 6.66699 -2.66602 11.334 2.00098 14.001l150 80c8 4.66699 14 3.33398 18 -3.99902l9 -15
c4.66699 -8.66699 2.66699 -15 -6 -19l-152 -69c-7.33301 -3.33301 -12.666 -2.33301 -15.999 3z" />
    <glyph glyph-name="sacute" unicode="&#x15b;" horiz-adv-x="482" 
d="M403 512l0.000976562 -19c0 -6.66699 -4 -9 -12 -7c-42 14 -87.333 21 -136 21c-92.667 0 -139 -32 -139 -96c0 -22 5.66699 -40.333 17 -55s26 -25.667 44 -33s37.833 -13.5 59.5 -18.5s43.5 -10.833 65.5 -17.5s42 -15 60 -25s32.667 -25 44 -45s17 -44.667 17 -74
c0 -100 -63 -150 -189 -150c-68 0 -125.333 8.33301 -172 25c-5.33301 2 -8 6.33301 -8 13v20c0 6 3.66699 8 11 6c65.333 -17.333 122.333 -26 171 -26c98 0 147 36.333 147 109c0 28 -7.5 51 -22.5 69s-34 30.5 -57 37.5l-74 22c-26.333 7.66699 -51 15.5 -74 23.5
s-42 22 -57 42s-22.5 45.667 -22.5 77c0 88.667 60.667 133 182 133c55.333 0 100.666 -6.33301 135.999 -19c6 -2 9 -6.33301 9 -13zM217.001 633l-5.00195 9.99805c-3.33301 6.66699 -2.66602 11.334 2.00098 14.001l150 80c8 4.66699 14 3.33398 18 -3.99902l9 -15
c4.66699 -8.66699 2.66699 -15 -6 -19l-152 -69c-7.33301 -3.33301 -12.666 -2.33301 -15.999 3z" />
    <glyph glyph-name="Scircumflex" unicode="&#x15c;" 
d="M465 687l0.00390625 -14.0029c0 -10 -6 -12.667 -18 -8c-46.667 19.333 -101.667 29 -165 29c-54 0 -95.167 -9.5 -123.5 -28.5s-42.5 -51.5 -42.5 -97.5c0 -29.333 6.83301 -53.666 20.5 -72.999s31.5 -34 53.5 -44s46.167 -18.833 72.5 -26.5
s52.666 -16.5 78.999 -26.5s50.5 -22.5 72.5 -37.5s39.833 -37.167 53.5 -66.5s20.5 -64.666 20.5 -105.999c0 -131.333 -74.667 -197 -224 -197c-80 0 -144.333 13 -193 39c-6.66699 3.33301 -10 9 -10 17v16c0 8.66699 4.33301 11.334 13 8.00098
c58.667 -28 122 -42 190 -42c57.333 0 102.333 11.5 135 34.5s49 63.5 49 121.5c0 37.333 -6.83301 68.833 -20.5 94.5s-31.334 45.167 -53.001 58.5s-45.667 24.5 -72 33.5l-79.5 26c-26.667 8.33301 -50.834 18.5 -72.501 30.5s-39.334 29.333 -53.001 52
s-20.5 51 -20.5 85c0 111.333 68.333 167 205 167c72 0 130 -10 174 -30c6 -2.66699 9 -7.66699 9 -15zM369.004 801.997l-83.998 83l-84 -83c-8.66699 -8.66699 -16.334 -13 -23.001 -13h-21c-9.33301 0 -10.333 4.66699 -3 14c1.33301 2 2.66602 3.66699 3.99902 5l97 100
c8.66699 9.33301 18.334 14 29.001 14c10 0 20 -5 30 -15l98 -99c8.66699 -10.667 9 -17 1 -19h-21c-6.66699 0 -14.334 4.33301 -23.001 13z" />
    </font>
</defs>
</svg>
