<?xml version="1.0" standalone="no"?>
<!DOCTYPE svg PUBLIC "-//W3C//DTD SVG 1.1//EN" "http://www.w3.org/Graphics/SVG/1.1/DTD/svg11.dtd" >
<svg>
<metadata>
Created by FontForge 20090914 at Fri Dec 12 22:13:50 2014
 By www-data
Copyright (c) 2014 by Jeremy Dooley. All rights reserved.
</metadata>
<defs>
<font id="CabritoSans-ConDemIt" horiz-adv-x="535" >
  <font-face 
    font-family="CabritoSans-ConDemIt"
    font-weight="400"
    font-style="italic"
    font-stretch="condensed"
    units-per-em="1000"
    panose-1="2 0 5 3 4 0 0 2 0 4"
    ascent="755"
    descent="-245"
    x-height="531.999"
    cap-height="722"
    bbox="-176.749 -307 1266.91 953.91"
    underline-thickness="50"
    underline-position="-50"
    unicode-range="U+0020-U+FB04"
  />
<missing-glyph horiz-adv-x="251" 
 />
    <glyph glyph-name=".notdef" horiz-adv-x="251" 
 />
    <glyph glyph-name="space" unicode=" " horiz-adv-x="221" 
 />
    <glyph glyph-name="exclam" unicode="!" horiz-adv-x="240" 
d="M297 674c-4 -20 -23.332 -76.667 -57.999 -170s-63.334 -193.666 -86.001 -300.999c-2 -10 -10.333 -15 -25 -15c-8.66699 0 -13.834 1.16699 -15.501 3.5s-1.83398 6.16602 -0.500977 11.499c17.333 80.667 29 152.5 35 215.5s9.83301 115 11.5 156
s5.16699 74.167 10.5 99.5c10.667 50 37 75 79 75c22.667 0 37.834 -6 45.501 -18s8.83398 -31 3.50098 -57zM37.001 53c4 20 14.002 36.833 30.002 50.5s32.667 20.5 50 20.5c16 0 28.667 -6 38 -18s12 -27.667 8 -47c-4.66699 -20.667 -14.834 -37.334 -30.501 -50.001
s-32.5 -19 -50.5 -19c-16.667 0 -29.334 5.83301 -38.001 17.5s-11 26.834 -7 45.501z" />
    <glyph glyph-name="quotedbl" unicode="&#x22;" horiz-adv-x="383" 
d="M310 519l30.999 193c0.666992 8 4.83398 13.5 12.501 16.5s22.167 4.5 43.5 4.5s35.333 -1.5 42 -4.5s9 -8.5 7 -16.5l-52 -193c-2 -7.33301 -6.16699 -12.166 -12.5 -14.499s-17.5 -3.5 -33.5 -3.5s-26.667 1.16699 -32 3.5s-7.33301 7.16602 -6 14.499zM141.999 519
l29.999 193c0.666992 8 4.83398 13.5 12.501 16.5s22.167 4.5 43.5 4.5s35.333 -1.5 42 -4.5s9 -8.5 7 -16.5l-52 -193c-2 -7.33301 -6 -12.166 -12 -14.499s-17.333 -3.5 -34 -3.5c-16 0 -26.5 1.16699 -31.5 3.5s-6.83301 7.16602 -5.5 14.499z" />
    <glyph glyph-name="numbersign" unicode="#" horiz-adv-x="778" 
d="M335 45l92.0049 156.998h-166l-109 -187c-6.66699 -11.333 -13.334 -18.5 -20.001 -21.5s-19 -4.5 -37 -4.5c-15.333 0 -26.5 2.33301 -33.5 7s-9.5 11.667 -7.5 21c2 8.66699 5.66699 18 11 28l92 157h-86c-19.333 0 -26.333 13.333 -21 40
c2.66699 13.333 8.33398 22 17.001 26s22 6 40 6h93l111 188h-103c-20 0 -27.333 13.667 -22 41c2.66699 12.667 8.33398 21 17.001 25s22 6 40 6h110l95 161c8.66699 14 17.167 23.333 25.5 28s23.833 7 46.5 7c15.333 0 25.166 -2.83301 29.499 -8.5
s4.16602 -14.5 -0.500977 -26.5c-3.33301 -9.33301 -8 -19.666 -14 -30.999l-77 -130h165l95 161c8.66699 14 17.167 23.333 25.5 28s23.833 7 46.5 7c15.333 0 25.166 -2.83301 29.499 -8.5s4.16602 -14.5 -0.500977 -26.5c-3.33301 -9.33301 -8 -19.666 -14 -30.999
l-77 -130h83c17.333 0 22.666 -13.667 15.999 -41c-2 -10.667 -5.5 -18.5 -10.5 -23.5s-13.167 -7.5 -24.5 -7.5h-107l-111 -188h101c16 0 21.333 -13.667 16 -41c-4.66699 -20.667 -16.667 -31 -36 -31h-124l-109 -187c-6.66699 -11.333 -13.334 -18.5 -20.001 -21.5
s-19 -4.5 -37 -4.5c-15.333 0 -26.5 2.33301 -33.5 7s-9.5 11.667 -7.5 21c2 8.66699 5.66699 18 11 28zM415.005 461.998l-111 -188h166l111 188h-166z" />
    <glyph glyph-name="dollar" unicode="$" horiz-adv-x="501" 
d="M557 678l-12.002 -55.9951c-2.66699 -10.667 -8.66699 -13.667 -18 -9c-44.667 20.667 -93 31 -145 31c-84 0 -132.667 -31 -146 -93c-5.33301 -26.667 -1.83301 -48.5 10.5 -65.5s29.5 -29.5 51.5 -37.5s45.667 -17.667 71 -29s48.333 -24.666 69 -39.999
s35.5 -39 44.5 -71s8.16699 -72.667 -2.5 -122c-22.667 -108.667 -90.334 -172.334 -203.001 -191.001l-19 -91c-3.33301 -14.667 -12 -22.334 -26 -23.001h-57c-13.333 0 -18 7.33301 -14 22l18 86c-73.333 3.33301 -127 16.666 -161 39.999c-8 4 -11 11.333 -9 22l12 57
c2.66699 12 9.33398 15.667 20.001 11c2 -0.666992 8.33301 -3.33398 19 -8.00098s18.334 -7.83398 23.001 -9.50098s12.667 -4.33398 24 -8.00098s21.333 -6.33398 30 -8.00098s19.334 -3.16699 32.001 -4.5s25.667 -2 39 -2c48 0 86.167 9 114.5 27
s47.166 48.333 56.499 91c6 29.333 5.33301 54.333 -2 75s-19.166 36 -35.499 46s-35 19.833 -56 29.5s-41.833 18.334 -62.5 26.001s-38.834 19.5 -54.501 35.5s-26.667 35.167 -33 57.5s-5.83301 53.166 1.5 92.499c22 102 90.333 158.667 205 170l16 74
c3.33301 14.667 12 22.334 26 23.001h56c12.667 0 17.334 -7.33301 14.001 -22l-15 -74c48 -4.66699 85 -14.667 111 -30c6.66699 -4 9 -11.333 7 -22z" />
    <glyph glyph-name="percent" unicode="%" horiz-adv-x="858" 
d="M233 27l404 671.998c10 15.333 20.333 23 31 23h53c8 0 13.5 -1.16699 16.5 -3.5s3.83301 -5.66602 2.5 -9.99902s-4.66602 -10.833 -9.99902 -19.5l-399 -665c-7.33301 -11.333 -12.833 -18.166 -16.5 -20.499s-10.5 -3.5 -20.5 -3.5h-53
c-16.667 0 -19.334 9 -8.00098 27zM125 528.998c13.333 61.333 37.999 111.333 73.999 150s83.333 58 142 58s98.167 -19.5 118.5 -58.5s23.833 -88.833 10.5 -149.5c-13.333 -61.333 -38.166 -111.5 -74.499 -150.5s-83.833 -58.5 -142.5 -58.5s-98 19.5 -118 58.5
s-23.333 89.167 -10 150.5zM327.999 674.998c-26 0 -48.835 -13.501 -68.502 -40.501s-34.167 -62.5 -43.5 -106.5c-10 -42.667 -10.833 -77.667 -2.5 -105s25.833 -41 52.5 -41c54.667 0 92.334 48.667 113.001 146c10 42.667 10.833 77.834 2.5 105.501
s-26.166 41.5 -53.499 41.5zM509.997 199.997c13.333 61.333 38.166 111.333 74.499 150s83.833 58 142.5 58s98.167 -19.5 118.5 -58.5s23.833 -88.833 10.5 -149.5c-13.333 -61.333 -38.166 -111.5 -74.499 -150.5s-83.833 -58.5 -142.5 -58.5s-98.167 19.667 -118.5 59
s-23.833 89.333 -10.5 150zM713.997 345.997c-26 0 -48.833 -13.501 -68.5 -40.501s-34.167 -62.5 -43.5 -106.5c-10 -42.667 -10.833 -77.667 -2.5 -105s25.833 -41 52.5 -41c54 0 91.333 48.667 112 146c10 42.667 10.833 77.834 2.5 105.501s-25.833 41.5 -52.5 41.5z
" />
    <glyph glyph-name="ampersand" unicode="&#x26;" horiz-adv-x="606" 
d="M254 0c-73.333 0 -127.666 16.333 -162.999 49s-45.666 83 -30.999 151c12 55.333 34.5 98.5 67.5 129.5s70.833 48.5 113.5 52.5c-28.667 4.66699 -51.334 19.834 -68.001 45.501s-19.667 64.5 -9 116.5c12.667 58.667 42 104.667 88 138s105.667 50 179 50
c66.667 0 118.667 -9 156 -27c10 -4 13.667 -12.333 11 -25l-11 -53c-2.66699 -12.667 -9.66699 -16 -21 -10c-51.333 18 -99 27 -143 27c-91.333 0 -144.666 -36.667 -159.999 -110c-14.667 -72 15.666 -108 90.999 -108h287c12 0 19.667 -1.33301 23 -4
s3.66602 -9.33398 0.999023 -20.001l-10 -46c-2.66699 -15.333 -11.667 -23 -27 -23h-75l-65 -309c-4 -16 -13.667 -24 -29 -24h-205zM333 333c-38 0 -72 -10.5 -102 -31.5s-50 -54.167 -60 -99.5c-16 -78.667 22.667 -118 116 -118h111l53 249h-118z" />
    <glyph glyph-name="quotesingle" unicode="'" horiz-adv-x="213" 
d="M142 519l29.999 193c0.666992 8 4.83398 13.5 12.501 16.5s22.167 4.5 43.5 4.5s35.333 -1.5 42 -4.5s9 -8.5 7 -16.5l-52 -193c-2 -7.33301 -6 -12.166 -12 -14.499s-17.333 -3.5 -34 -3.5c-16 0 -26.5 1.16699 -31.5 3.5s-6.83301 7.16602 -5.5 14.499z" />
    <glyph glyph-name="parenleft" unicode="(" horiz-adv-x="304" 
d="M222 -104c-60 46.667 -100.501 105.669 -121.501 177.002s-22.5 149.666 -4.5 234.999s52.833 163.666 104.5 234.999s117.5 130.333 197.5 177c4 2.66699 7.16699 4.16699 9.5 4.5s4.16602 -0.166992 5.49902 -1.5s2.66602 -4 3.99902 -8
c4.66699 -10 3.33398 -18.333 -3.99902 -25c-115.333 -106 -188.666 -233.333 -219.999 -382c-31.333 -149.333 -12 -276.666 58 -381.999c4 -6.66699 1.66699 -15 -7 -25c-4.66699 -5.33301 -8.16699 -8.33301 -10.5 -9s-6.16602 0.666016 -11.499 3.99902z" />
    <glyph glyph-name="parenright" unicode=")" horiz-adv-x="304" 
d="M-2 -105c-4.66699 -2 -8.16895 -3.16602 -10.502 -3.49902s-4.16602 0.166992 -5.49902 1.5s-3 4 -5 8c-3.33301 10.667 -1.33301 19 6 25c115.333 108 188.333 235.333 219 382c31.333 147.333 12 274.666 -58 381.999c-4 6 -2.33301 14.333 5 25
c8 8.66699 16 10.667 24 6c59.333 -48 99.5 -107.667 120.5 -179s22.5 -149.333 4.5 -234c-18 -85.333 -52.667 -163.5 -104 -234.5s-116.666 -130.5 -195.999 -178.5z" />
    <glyph glyph-name="asterisk" unicode="*" horiz-adv-x="374" 
d="M294 545l-0.998047 -1.00391c11.333 -8 28.5 -15.667 51.5 -23s39.833 -15.666 50.5 -24.999c8 -6.66699 12.333 -15 13 -25s-2.66602 -20 -9.99902 -30c-8 -9.33301 -17 -14.666 -27 -15.999s-18.667 1.33398 -26 8.00098c-10.667 8.66699 -21.334 24.167 -32.001 46.5
s-21.334 38.166 -32.001 47.499c-2 -15.333 -1.83301 -37 0.5 -65s1.5 -49 -2.5 -63c-2.66699 -12 -8 -22.167 -16 -30.5s-17.667 -12.5 -29 -12.5c-10.667 0 -18.334 4 -23.001 12s-5.66699 18 -3 30c3.33301 16.667 12.166 38.334 26.499 65.001s23.5 47.667 27.5 63
c-12 -8.66699 -28.167 -23.167 -48.5 -43.5s-37.833 -34.833 -52.5 -43.5c-10.667 -6 -20.834 -8.33301 -30.501 -7s-16.5 7 -20.5 17c-7.33301 20 1.66699 37.667 27 53c14 8 34.167 15.167 60.5 21.5s46.833 13.5 61.5 21.5c-11.333 9.33301 -28.666 17.5 -51.999 24.5
s-40 14.833 -50 23.5c-18.667 16 -20 34 -4 54c8 9.33301 17.333 14.5 28 15.5s20 -1.83301 28 -8.5c10 -9.33301 20.333 -24.166 31 -44.499s20.667 -35.5 30 -45.5c2.66699 16.667 2.66699 38.834 0 66.501s-2.33398 49.167 0.999023 64.5c2.66699 12 8 22 16 30
s17.333 12 28 12c11.333 0 19.333 -4.16699 24 -12.5s5.66699 -18.5 3 -30.5c-3.33301 -16.667 -12 -38.5 -26 -65.5s-23.333 -48.833 -28 -65.5c15.333 9.33301 33.5 24.666 54.5 45.999s38.833 36.333 53.5 45c10.667 6 20.834 8.33301 30.501 7s15.834 -7 18.501 -17
c8 -19.333 -1 -37 -27 -53c-14 -8 -34.167 -15.667 -60.5 -23s-47.5 -15 -63.5 -23z" />
    <glyph glyph-name="plus" unicode="+" horiz-adv-x="433" 
d="M330 505l-28.001 -132.001h125c20 0 26.667 -13 20 -39c-2 -11.333 -6 -19.666 -12 -24.999s-15.333 -8 -28 -8h-121l-30 -145c-5.33301 -22 -20.666 -33 -45.999 -33c-13.333 0 -21.5 4.5 -24.5 13.5s-2.16699 21.833 2.5 38.5l26 126h-120c-20 0 -27 13.333 -21 40
c2.66699 14 8.16699 22.833 16.5 26.5s21.833 5.5 40.5 5.5h100l29 136c4 21.333 19.333 32 46 32c11.333 0 19 -2.5 23 -7.5s4.66699 -14.5 2 -28.5z" />
    <glyph glyph-name="comma" unicode="," horiz-adv-x="231" 
d="M35 55c4.66699 22 14.333 39.6641 29 52.9971s32 20 52 20c18 0 31.167 -6.83301 39.5 -20.5s9.83301 -32.5 4.5 -56.5c-11.333 -55.333 -57 -115.666 -137 -180.999c-8.66699 -7.33301 -15.667 -7.66602 -21 -0.999023l-7 10c-4.66699 6 -2.66699 13 6 21
c36 32 59.667 62 71 90c-14.667 1.33301 -25.5 7.83301 -32.5 19.5s-8.5 26.834 -4.5 45.501z" />
    <glyph glyph-name="hyphen" unicode="-" horiz-adv-x="395" 
d="M120 367h243.999c6.66699 0 10.5 -1.5 11.5 -4.5s0.833008 -7.16699 -0.5 -12.5l-12 -54c-1.33301 -7.33301 -3.16602 -12.166 -5.49902 -14.499s-6.83301 -3.5 -13.5 -3.5h-243c-6.66699 0 -11 1.16699 -13 3.5s-2.33301 7.16602 -1 14.499l12 54
c2.66699 11.333 9.66699 17 21 17z" />
    <glyph glyph-name="period" unicode="." horiz-adv-x="224" 
d="M32 57c4.66699 20.667 14.6689 37.667 30.002 51s31.666 20 48.999 20c16.667 0 29.5 -6 38.5 -18s11.5 -27.667 7.5 -47c-4.66699 -20.667 -14.667 -37.334 -30 -50.001s-32 -19 -50 -19c-16.667 0 -29.334 5.83301 -38.001 17.5s-11 26.834 -7 45.501z" />
    <glyph glyph-name="slash" unicode="/" horiz-adv-x="430" 
d="M-7 4l435.001 737.998c7.33301 12.667 14.666 18 21.999 16l70 -14c8 -2.66699 8.33301 -10.334 1 -23.001l-437 -740c-6 -11.333 -13 -15.666 -21 -12.999l-68 15c-2.66699 0.666992 -4.5 1.33398 -5.5 2.00098s-1.66699 1.83398 -2 3.50098s0 3.66699 1 6
s2.5 5.5 4.5 9.5z" />
    <glyph glyph-name="zero" unicode="0" horiz-adv-x="599" 
d="M275 -10c-58 0 -104.331 16.834 -138.998 50.501s-55.334 78.667 -62.001 135s-3 121.166 11 194.499c23.333 108.667 65 196.5 125 263.5s132.333 100.5 217 100.5c87.333 0 146.666 -34.333 177.999 -103s35 -158.667 11 -270c-23.333 -110 -65 -199.333 -125 -268
s-132 -103 -216 -103zM511.002 367.001c19.333 86 20.667 153.834 4 203.501s-51 74.5 -103 74.5c-53.333 0 -98.833 -24.5 -136.5 -73.5s-65.834 -117.5 -84.501 -205.5c-19.333 -90.667 -20.333 -161.334 -3 -212.001s51.333 -76 102 -76s95.334 25.167 134.001 75.5
s67.667 121.5 87 213.5z" />
    <glyph glyph-name="one" unicode="1" horiz-adv-x="269" 
d="M202 612l-87.999 -25c-6 -1.33301 -10.333 -1 -13 1s-3.33398 5.66699 -2.00098 11l12 57c1.33301 10 8 16.667 20 20l140 45c12 4 24.333 6 37 6c13.333 0 18.333 -7.66699 15 -23l-145 -682c-2 -8.66699 -4.66699 -14.5 -8 -17.5s-9 -4.5 -17 -4.5h-60
c-8 0 -13.333 1.5 -16 4.5s-3 8.83301 -1 17.5z" />
    <glyph glyph-name="two" unicode="2" horiz-adv-x="495" 
d="M430 533c15.333 73.333 -17.9971 110.001 -99.9971 110.001c-51.333 0 -110 -10.333 -176 -31c-6.66699 -1.33301 -10.834 -0.833008 -12.501 1.5s-1.83398 6.83301 -0.500977 13.5l10 49c2.66699 13.333 9.33398 21.666 20.001 24.999
c55.333 20.667 115.666 31 180.999 31c31.333 0 59.166 -3 83.499 -9s46.333 -16.167 66 -30.5s32.334 -33.5 38.001 -57.5s5.5 -54 -0.5 -90c-10 -46.667 -29.5 -90.334 -58.5 -131.001s-76.833 -90.667 -143.5 -150l-204 -180h299c12.667 0 17.667 -6.33301 15 -19
l-10 -47c-2 -12 -11 -18 -27 -18h-405c-7.33301 0 -12 1.16699 -14 3.5s-2 7.5 0 15.5l5 30c3.33301 16.667 16.666 35.334 39.999 56.001l235 215c55.333 52.667 93.833 93 115.5 121s36.167 58.667 43.5 92z" />
    <glyph glyph-name="three" unicode="3" horiz-adv-x="516" 
d="M191 76c108.667 0 172.334 43.9971 191.001 131.997c18 84.667 -19.333 127 -112 127h-49c-5.33301 0 -8.66602 0.833008 -9.99902 2.5s-1.33301 5.83398 0 12.501l13 60c0.666992 6 2 9.66699 4 11s5.66699 2 11 2h48c90 0 143.333 38.667 160 116
c8.66699 38.667 3.16699 65.667 -16.5 81s-50.834 23 -93.501 23c-40.667 0 -99 -9.33301 -175 -28c-2 -1.33301 -4.66699 -1.5 -8 -0.5s-4 4.83301 -2 11.5l11 56c2 7.33301 6 13 12 17c10 6.66699 34.167 13.834 72.5 21.501s76.833 11.5 115.5 11.5c74 0 126 -15 156 -45
s38.333 -76.333 25 -139c-6.66699 -30 -16 -56 -28 -78s-25.833 -38.833 -41.5 -50.5s-29.834 -20.167 -42.501 -25.5s-25.667 -9.33301 -39 -12c37.333 -3.33301 66.5 -18.666 87.5 -45.999s25.167 -71 12.5 -131c-30.667 -145.333 -133 -218 -307 -218
c-34.667 0 -69.667 2.83301 -105 8.5s-58.666 11.167 -69.999 16.5c-6 3.33301 -8 9.33301 -6 18l12 57c2 9.33301 6 14 12 14c1.33301 0 9.66602 -2.33301 24.999 -7c37.333 -12 83 -18 137 -18z" />
    <glyph glyph-name="four" unicode="4" horiz-adv-x="514" 
d="M19 197l420 509c9.33301 10.667 19 16 29 16h74c5.33301 0 9 -1.16699 11 -3.5s2.16699 -6 0.5 -11s-5.83398 -11.167 -12.501 -18.5l-402 -485h197l33 154c2 10 7.33301 15 16 15h76c8 0 11 -4.66699 9 -14l-33 -155h51c8 0 13 -1 15 -3s2.66699 -6 2 -12l-11 -50
c-2 -11.333 -9.66699 -17 -23 -17h-52l-22 -105c-2 -11.333 -7.33301 -17 -16 -17h-75c-8.66699 0 -12 5.66699 -10 17l22 105h-296c-8.66699 0 -14 1 -16 3s-2.33301 7 -1 15l9 42c0.666992 5.33301 2.33398 10.333 5.00098 15z" />
    <glyph glyph-name="five" unicode="5" horiz-adv-x="496" 
d="M524 635l-241.999 -0.00292969l-69 -194c23.333 3.33301 56 5 98 5c146.667 0 204.667 -71.667 174 -215c-35.333 -162.667 -137.666 -244 -306.999 -244c-32.667 0 -65.834 2.33301 -99.501 7s-56.834 9.33398 -69.501 14.001c-5.33301 2 -8.5 4.66699 -9.5 8
s-0.5 8 1.5 14l10 53c1.33301 10 5.33301 15 12 15c4 0 12 -2.33301 24 -7c37.333 -10.667 84 -16 140 -16c52.667 0 94.667 12 126 36s52.666 63.667 63.999 119c11.333 51.333 7.33301 87.833 -12 109.5s-53.333 32.5 -102 32.5c-6.66699 0 -48 -2 -124 -6
c-2 0 -5 -0.166992 -9 -0.5s-7 -0.5 -9 -0.5c-9.33301 0 -15.166 1.83301 -17.499 5.5s-1.83301 11.834 1.5 24.501l107 310c4 11.333 12 17 24 17h304c6.66699 0 11.167 -1.16699 13.5 -3.5s2.83301 -7.16602 1.5 -14.499l-11 -51c-2 -12 -8.66699 -18 -20 -18z" />
    <glyph glyph-name="six" unicode="6" horiz-adv-x="530" 
d="M238 -11c-61.333 0 -107.164 14.167 -137.497 42.5s-46.333 67.5 -48 117.5s4.16602 109 17.499 177c58 271.333 184.333 407 379 407c43.333 0 81 -6.33301 113 -19c8.66699 -4 12 -11 10 -21l-12 -55c-2 -11.333 -9.33301 -15 -22 -11
c-36.667 11.333 -67.667 17 -93 17c-70.667 0 -126.834 -24 -168.501 -72s-75.834 -124.333 -102.501 -229c40.667 85.333 103.334 128 188.001 128c64 0 110.833 -20 140.5 -60s36.167 -99.667 19.5 -179c-17.333 -82 -50.833 -143 -100.5 -183s-110.834 -60 -183.501 -60z
M256.002 78c37.333 0 70.499 12.668 99.499 38.001s48.833 62.666 59.5 111.999c10 48 7.16699 85.667 -8.5 113s-42.834 41 -81.501 41c-39.333 0 -73.333 -14 -102 -42s-48 -66 -58 -114c-9.33301 -44.667 -6.16602 -80.5 9.50098 -107.5s42.834 -40.5 81.501 -40.5z" />
    <glyph glyph-name="seven" unicode="7" horiz-adv-x="458" 
d="M167 722h398c6.66699 0 10.834 -1 12.501 -3s1.83398 -6.66699 0.500977 -14l-4 -21c-4 -20 -17.667 -47.667 -41 -83l-366 -583c-6.66699 -12 -15.334 -18 -26.001 -18h-82c-14.667 0 -18.334 6 -11.001 18l393 611h-299c-12 0 -16.667 5.66699 -14 17l11 53
c2 9.33301 4.83301 15.5 8.5 18.5s10.167 4.5 19.5 4.5z" />
    <glyph glyph-name="eight" unicode="8" horiz-adv-x="558" 
d="M404 648l14 84c65.333 0 113.166 -15.833 143.499 -47.5s39.166 -77.167 26.499 -136.5c-15.333 -70.667 -51.666 -120 -108.999 -148c31.333 -13.333 55.333 -36 72 -68s19.334 -74.667 8.00098 -128c-16 -74.667 -50.167 -129.5 -102.5 -164.5
s-115.166 -52.5 -188.499 -52.5c-76 0 -133.5 17.5 -172.5 52.5s-50.5 89.833 -34.5 164.5c11.333 53.333 32.166 95.833 62.499 127.5s63.833 54.5 100.5 68.5c-45.333 28.667 -60.333 78 -45 148c12.667 60 40 105.667 82 137s94.333 47 157 47l-27 -70
c-2 -6 -11.5 -14.167 -28.5 -24.5s-34.167 -23.5 -51.5 -39.5s-28.333 -34.667 -33 -56c-8 -35.333 -4.33301 -62 11 -80s38.666 -27 69.999 -27c30 0 56.833 9 80.5 27s39.167 44.667 46.5 80c7.33301 34.667 3.33301 61 -12 79s-38.666 27 -69.999 27zM283 76
c42.667 0 79.3311 10.833 109.998 32.5s50.667 55.5 60 101.5c8.66699 40 4.83398 73.333 -11.499 100s-47.166 41 -92.499 43h-15c-46 -2 -82.833 -16.333 -110.5 -43s-45.834 -60 -54.501 -100c-9.33301 -46 -3.16602 -79.833 18.501 -101.5s53.5 -32.5 95.5 -32.5z" />
    <glyph glyph-name="nine" unicode="9" 
d="M382 733c160 0 216.331 -112.333 168.998 -337c-29.333 -140 -75.5 -242.833 -138.5 -308.5s-144.5 -98.5 -244.5 -98.5c-52.667 0 -96.334 6.66699 -131.001 20c-6 2 -8 6.33301 -6 13l13 61c2 9.33301 8.66699 13 20 11c44.667 -10.667 79.667 -16 105 -16
c73.333 0 130.833 22.667 172.5 68s75.5 120 101.5 224c-41.333 -79.333 -104.666 -119 -189.999 -119c-61.333 0 -106.333 20.833 -135 62.5s-35 100.167 -19 175.5c16.667 77.333 49.834 137.333 99.501 180s110.834 64 183.501 64zM364.998 650
c-38.667 0 -72.168 -13.999 -100.501 -41.999s-47.5 -66 -57.5 -114c-10.667 -49.333 -7.83398 -88.333 8.49902 -117s43.5 -43 81.5 -43s71.5 14.167 100.5 42.5s48.833 66.166 59.5 113.499c10.667 50.667 7.83398 90 -8.49902 118s-44.166 42 -83.499 42z" />
    <glyph glyph-name="colon" unicode=":" horiz-adv-x="244" 
d="M38 53c4 20 14.002 36.833 30.002 50.5s32.667 20.5 50 20.5c16 0 28.667 -6 38 -18s12 -27.667 8 -47c-4.66699 -20.667 -14.834 -37.334 -30.501 -50.001s-32.5 -19 -50.5 -19c-16.667 0 -29.334 5.83301 -38.001 17.5s-11 26.834 -7 45.501zM122.002 447
c4 20.667 14.001 37.667 30.001 51s32.667 20 50 20c16.667 0 29.5 -6 38.5 -18s11.5 -27.667 7.5 -47c-4.66699 -20.667 -14.834 -37.334 -30.501 -50.001s-32.5 -19 -50.5 -19c-16.667 0 -29.5 5.83301 -38.5 17.5s-11.167 26.834 -6.5 45.501z" />
    <glyph glyph-name="semicolon" unicode=";" horiz-adv-x="255" 
d="M48 54c4.66699 20 14.8311 36.835 30.498 50.502s32.167 20.5 49.5 20.5c16.667 0 29.834 -6 39.501 -18s12.167 -28 7.5 -48c-14.667 -68.667 -68.667 -139.334 -162 -212.001c-4.66699 -4 -8 -4.66699 -10 -2l-16 19c-4 3.33301 -2.33301 7.66602 5 12.999
c46 36.667 78.667 74.334 98 113.001c-15.333 1.33301 -27.166 7.66602 -35.499 18.999s-10.5 26.333 -6.5 45zM131.997 447.002c4 20.667 13.834 37.666 29.501 50.999s32.167 20 49.5 20c16.667 0 29.667 -5.83301 39 -17.5s11.666 -27.5 6.99902 -47.5
s-14.667 -36.5 -30 -49.5s-32 -19.5 -50 -19.5c-16.667 0 -29.5 5.83301 -38.5 17.5s-11.167 26.834 -6.5 45.501z" />
    <glyph glyph-name="less" unicode="&#x3c;" horiz-adv-x="523" 
d="M172 279l269.998 -147.999c14 -8 22.167 -15 24.5 -21s1.5 -20 -2.5 -42c-5.33301 -23.333 -13.666 -35 -24.999 -35c-6.66699 0 -16.667 3 -30 9l-332 175c-13.333 6.66699 -21.666 13.167 -24.999 19.5s-3.33301 17.166 0 32.499l2 10h118zM504.998 427.001
l-333.001 -148.003h-118l2 10c2.66699 14.667 7.16699 25.334 13.5 32.001s17.5 13.334 33.5 20.001l407 175c15.333 6 26.333 9 33 9c11.333 0 15 -11.667 11 -35c-4.66699 -22 -9.66699 -36.167 -15 -42.5s-16.666 -13.166 -33.999 -20.499z" />
    <glyph glyph-name="equal" unicode="=" horiz-adv-x="474" 
d="M444 360l-319.998 -0.000976562c-18 0 -24.333 13 -19 39c3.33301 14.667 8.66602 23.834 15.999 27.501s19.666 5.5 36.999 5.5h304c17.333 0 23.333 -13.333 18 -40c-4.66699 -21.333 -16.667 -32 -36 -32zM410.002 197.999h-320c-18 0 -24.333 13 -19 39
c2.66699 14 8 23 16 27s20.333 6 37 6h304c18.667 0 24.334 -13.333 17.001 -40c-4.66699 -21.333 -16.334 -32 -35.001 -32z" />
    <glyph glyph-name="greater" unicode="&#x3e;" horiz-adv-x="524" 
d="M411 279l-333.002 -148c-18 -8 -29.5 -15.167 -34.5 -21.5s-9.83301 -20.166 -14.5 -41.499c-5.33301 -23.333 -1.66602 -35 11.001 -35c6.66699 0 17.334 3 32.001 9l409 175c16 6.66699 26.833 13.167 32.5 19.5s10.167 17.166 13.5 32.499l2 10h-118zM410.998 279
l-270.002 148c-14.667 7.33301 -23.167 14.166 -25.5 20.499s-1.16602 20.5 3.50098 42.5c4 23.333 12.333 35 25 35c6.66699 0 16.334 -3 29.001 -9l334 -175c13.333 -7.33301 21.333 -14.166 24 -20.499s2.66699 -16.833 0 -31.5l-2 -10h-118z" />
    <glyph glyph-name="question" unicode="?" horiz-adv-x="470" 
d="M127 55c4.66699 19.333 14.833 35.501 30.5 48.501s32.167 19.5 49.5 19.5s30.666 -6.16699 39.999 -18.5s11.666 -28.5 6.99902 -48.5c-4 -20.667 -13.667 -36.834 -29 -48.501s-32.333 -17.5 -51 -17.5c-17.333 0 -30.666 5.83301 -39.999 17.5
s-11.666 27.5 -6.99902 47.5zM419.999 532.001c7.33301 34 2.66602 60.833 -14.001 80.5s-44.667 29.5 -84 29.5c-54 0 -112.333 -13.333 -175 -40c-7.33301 -3.33301 -12.333 -3.83301 -15 -1.5s-3 8.16602 -1 17.499l9 44c3.33301 15.333 10 25 20 29
c62 26.667 126.333 40 193 40c71.333 0 121.5 -16.5 150.5 -49.5s36.833 -80.167 23.5 -141.5c-6.66699 -32 -19.167 -61.667 -37.5 -89s-38.666 -50.333 -60.999 -69l-66 -53.5c-21.667 -17 -40.834 -34.667 -57.501 -53s-27 -37.166 -31 -56.499l-5 -25
c-3.33301 -12.667 -12.333 -19 -27 -19h-49c-16.667 0 -23 10.333 -19 31l6 25c4.66699 22.667 15.334 44.667 32.001 66s35.5 40.5 56.5 57.5l62.5 51.5c20.667 17.333 39.5 36.833 56.5 58.5s27.833 44.167 32.5 67.5z" />
    <glyph glyph-name="at" unicode="@" horiz-adv-x="767" 
d="M821 401c-16 -74 -47.5 -137.164 -94.5 -189.497s-94.833 -78.5 -143.5 -78.5c-51.333 0 -75 24 -71 72c-41.333 -48 -89.666 -72 -144.999 -72c-36.667 0 -65.167 14.333 -85.5 43s-24.833 69.667 -13.5 123c14.667 68 48.167 127.833 100.5 179.5
s112.5 77.5 180.5 77.5c56.667 0 93 -14.833 109 -44.5s17 -67.834 3 -114.501c-10.667 -36 -29 -81.333 -55 -136c-16.667 -44.667 -13 -67 11 -67c23.333 0 48.5 21.167 75.5 63.5s46.167 89.166 57.5 140.499c17.333 82.667 6.33301 147.5 -33 194.5s-94 70.5 -164 70.5
c-88 0 -164.833 -31.667 -230.5 -95s-108.167 -141 -127.5 -233c-20 -92.667 -9.66699 -166.5 31 -221.5s102 -82.5 184 -82.5c74 0 142.333 14.667 205 44c16.667 8 25.667 9.66699 27 5c0.666992 -2 0.666992 -5 0 -9l-7 -25c-2 -10.667 -7 -18.334 -15 -23.001
c-20.667 -13.333 -53.167 -25 -97.5 -35s-88.166 -15 -131.499 -15c-106.667 0 -186.667 33.667 -240 101s-68.333 155.666 -45 264.999c22.667 110 76.5 201.833 161.5 275.5s183.833 110.5 296.5 110.5c93.333 0 164.666 -29.167 213.999 -87.5
s63.666 -137.166 42.999 -236.499zM393 192.003c36.667 0 74.165 20.668 112.498 62.001s63.5 90.666 75.5 147.999c14 62.667 -1 94 -45 94c-41.333 0 -80.666 -21.333 -117.999 -64s-61.666 -89.667 -72.999 -141c-6.66699 -32 -5.66699 -56.5 3 -73.5
s23.667 -25.5 45 -25.5z" />
    <glyph glyph-name="A" unicode="A" horiz-adv-x="601" 
d="M462 17l-13.0029 173h-260l-90 -173c-6.66699 -11.333 -16.334 -17 -29.001 -17h-61c-14.667 -0 -17.667 8.33301 -9 25l358 678c6.66699 12.667 15.334 19 26.001 19h92c6.66699 0 11.5 -1.16699 14.5 -3.5s4.83301 -7.5 5.5 -15.5l70 -678
c0.666992 -10 -0.666016 -16.667 -3.99902 -20s-8.66602 -5 -15.999 -5h-62c-13.333 0 -20.666 5.66699 -21.999 17zM414.997 629l-183 -356h211z" />
    <glyph glyph-name="B" unicode="B" horiz-adv-x="576" 
d="M574 537c-19.333 -88.667 -62.666 -138.667 -129.999 -150v-1c90 -16 123.333 -79 100 -189c-8.66699 -41.333 -22.5 -75.5 -41.5 -102.5s-43.167 -47.167 -72.5 -60.5s-58.833 -22.333 -88.5 -27s-64.834 -7 -105.501 -7h-169c-8 0 -13.333 1.5 -16 4.5
s-3 8.83301 -1 17.5l144 678c2 8.66699 4.83301 14.5 8.5 17.5s9.5 4.5 17.5 4.5h164c78 0 132.667 -14 164 -42s40 -75.667 26 -143zM220 344l-58 -269h102c28.667 0 52.834 2.5 72.501 7.5s39.167 17.667 58.5 38s32.666 48.5 39.999 84.5c20 92.667 -19 139 -117 139h-98
zM284 647l-48 -224h100c38 0 67.833 9.33301 89.5 28s36.834 48 45.501 88c8.66699 42 5.16699 70.5 -10.5 85.5s-42.834 22.5 -81.501 22.5h-95z" />
    <glyph glyph-name="C" unicode="C" horiz-adv-x="588" 
d="M229 353c-39.333 -183.333 14.001 -274.998 160.001 -274.998c54 0 109.333 11.333 166 34c8 4 14 5.5 18 4.5s5 -5.5 3 -13.5l-11 -53c-2 -11.333 -8.33301 -19.666 -19 -24.999c-45.333 -24 -106.333 -36 -183 -36c-108.667 0 -182.167 33.167 -220.5 99.5
s-44.833 159.166 -19.5 278.499c23.333 112.667 68.166 201.667 134.499 267s151.833 98 256.5 98c35.333 0 69.333 -3.5 102 -10.5s55.334 -15.833 68.001 -26.5c6.66699 -4.66699 8.66699 -13.334 6 -26.001l-11 -51c-2.66699 -12.667 -9.33398 -16 -20.001 -10
c-1.33301 0.666992 -7 3 -17 7s-18.5 7.16699 -25.5 9.5s-16.5 5.16602 -28.5 8.49902s-24.5 5.83301 -37.5 7.5s-26.167 2.5 -39.5 2.5c-77.333 0 -139 -26.333 -185 -79s-78.333 -123 -97 -211z" />
    <glyph glyph-name="D" unicode="D" horiz-adv-x="652" 
d="M67 0c-8 0 -13.333 1.50098 -16 4.50098s-3 8.83301 -1 17.5l144 678c2 8.66699 4.83301 14.5 8.5 17.5s9.5 4.5 17.5 4.5h141c124 0 209.5 -31.167 256.5 -93.5s57.167 -156.833 30.5 -283.5c-24.667 -116.667 -73 -203.334 -145 -260.001s-169.333 -85 -292 -85h-144z
M282 638.001l-118 -554h63c89.333 0 159 21.5 209 64.5s85.333 113.5 106 211.5c21.333 99.333 15.5 170.5 -17.5 213.5s-94.167 64.5 -183.5 64.5h-59z" />
    <glyph glyph-name="E" unicode="E" horiz-adv-x="517" 
d="M67 0c-8 0 -13.3311 1.5 -15.998 4.5s-3 8.83301 -1 17.5l144 678c2 8.66699 4.83301 14.5 8.5 17.5s9.5 4.5 17.5 4.5h349c8.66699 0 14 -1.5 16 -4.5s2 -8.83301 0 -17.5l-8 -39c-2 -9.33301 -4.66699 -15.5 -8 -18.5s-9.33301 -4.5 -18 -4.5h-269l-48 -226h223
c8.66699 0 14.167 -1.5 16.5 -4.5s2.5 -9.16699 0.5 -18.5l-8 -38c-2 -9.33301 -4.83301 -15.5 -8.5 -18.5s-9.83398 -4.5 -18.501 -4.5h-223l-52 -244h281c8.66699 0 14.167 -1.5 16.5 -4.5s2.5 -9.16699 0.5 -18.5l-8 -39c-1.33301 -8.66699 -3.83301 -14.5 -7.5 -17.5
s-9.83398 -4.5 -18.501 -4.5h-361z" />
    <glyph glyph-name="F" unicode="F" horiz-adv-x="493" 
d="M229 388h188.001c8.66699 0 14.167 -1.5 16.5 -4.5s2.5 -8.83301 0.5 -17.5l-8 -39c-2 -8.66699 -4.83301 -14.5 -8.5 -17.5s-9.83398 -4.5 -18.501 -4.5h-188l-60 -283c-2 -9.33301 -4.5 -15.333 -7.5 -18s-8.83301 -4 -17.5 -4h-59c-8 0 -13.333 1.5 -16 4.5
s-3 8.83301 -1 17.5l144 678c2 8.66699 4.83301 14.5 8.5 17.5s9.5 4.5 17.5 4.5h343c8.66699 0 14 -1.5 16 -4.5s2 -8.83301 0 -17.5l-8 -39c-2 -9.33301 -4.66699 -15.5 -8 -18.5s-9.33301 -4.5 -18 -4.5h-263z" />
    <glyph glyph-name="G" unicode="G" horiz-adv-x="657" 
d="M448 299l10.999 52.002c2.66699 12 8.66699 18 18 18h190c10 0 14 -4.66699 12 -14l-62 -292c-2.66699 -11.333 -6 -19.166 -10 -23.499s-11.667 -8.5 -23 -12.5c-60.667 -26 -130.667 -39 -210 -39c-100.667 0 -174.167 32.333 -220.5 97s-56.5 159.667 -30.5 285
c24 114 70.5 202.667 139.5 266s155.833 95 260.5 95c50 0 92.667 -6 128 -18s60 -25 74 -39c5.33301 -6.66699 7 -14.334 5 -23.001l-12 -56c-1.33301 -6.66699 -4.33301 -10.834 -9 -12.501s-9.66699 -0.166992 -15 4.5c-46.667 37.333 -104.667 56 -174 56
c-80 0 -143.833 -26.333 -191.5 -79s-80.834 -122 -99.501 -208c-18.667 -88.667 -14.167 -157.334 13.5 -206.001s79.834 -73 156.501 -73c38.667 0 81.667 7.66699 129 23l38 181h-108c-9.33301 0 -12.666 6 -9.99902 18z" />
    <glyph glyph-name="H" unicode="H" horiz-adv-x="651" 
d="M50 22l144 678c2 8.66699 4.83301 14.5 8.5 17.5s9.5 4.5 17.5 4.5h59c8.66699 0 14 -1.5 16 -4.5s2 -8.83301 0 -17.5l-62 -291h291l62 291c2 8.66699 4.66699 14.5 8 17.5s9.33301 4.5 18 4.5h59c8.66699 0 14 -1.5 16 -4.5s2 -8.83301 0 -17.5l-144 -678
c-2 -9.33301 -4.5 -15.333 -7.5 -18s-8.83301 -4 -17.5 -4h-59c-8.66699 0 -14.167 1.5 -16.5 4.5s-2.5 8.83301 -0.5 17.5l65 303h-291l-65 -303c-2 -9.33301 -4.5 -15.333 -7.5 -18s-8.83301 -4 -17.5 -4h-59c-8 0 -13.333 1.5 -16 4.5s-3 8.83301 -1 17.5z" />
    <glyph glyph-name="I" unicode="I" horiz-adv-x="259" 
d="M50 22l144 678c2 8.66699 4.83301 14.5 8.5 17.5s9.5 4.5 17.5 4.5h59c8.66699 0 14 -1.5 16 -4.5s2 -8.83301 0 -17.5l-144 -678c-2 -9.33301 -4.5 -15.333 -7.5 -18s-8.83301 -4 -17.5 -4h-59c-8 0 -13.333 1.5 -16 4.5s-3 8.83301 -1 17.5z" />
    <glyph glyph-name="J" unicode="J" horiz-adv-x="452" 
d="M-4 32l8.99805 45c1.33301 8.66699 3.83301 14 7.5 16s9.16699 2 16.5 0c36.667 -10.667 73.334 -16 110.001 -16c42 0 75.5 13.333 100.5 40s43.167 66.667 54.5 120l98 463c2 8.66699 4.83301 14.5 8.5 17.5s9.5 4.5 17.5 4.5h59c8.66699 0 14 -1.5 16 -4.5
s2 -8.83301 0 -17.5l-98 -464c-17.333 -80 -45.833 -140.833 -85.5 -182.5s-94.167 -62.5 -163.5 -62.5c-28.667 0 -57.167 2 -85.5 6s-47.166 8 -56.499 12c-7.33301 3.33301 -10 11 -8 23z" />
    <glyph glyph-name="K" unicode="K" horiz-adv-x="608" 
d="M49 22l144.005 677.995c2 8.66699 4.83301 14.5 8.5 17.5s9.5 4.5 17.5 4.5h60c8 0 13.167 -1.5 15.5 -4.5s2.5 -8.83301 0.5 -17.5l-69 -325l328 330c11.333 11.333 23.333 17 36 17h77c6.66699 0 10.334 -2.16699 11.001 -6.5s-2.33301 -9.83301 -9 -16.5l-272 -265
c19.333 -3.33301 35.666 -11.5 48.999 -24.5s23.666 -27 30.999 -42s13.5 -38.167 18.5 -69.5s8.33301 -58.166 10 -80.499s3.5 -56.166 5.5 -101.499c2.66699 -25.333 12 -38 28 -38c8 0 17.333 2 28 6c5.33301 2.66699 9 3 11 1s2.33301 -6.66699 1 -14l-9 -41
c-2.66699 -11.333 -9.33398 -19.666 -20.001 -24.999c-18 -6.66699 -36.667 -10 -56 -10c-14.667 0 -26.834 1.33301 -36.501 4s-19.334 10.334 -29.001 23.001s-15.834 30.667 -18.501 54c-1.33301 12.667 -2.83301 33.834 -4.5 63.501s-3.66699 55.167 -6 76.5
s-5.83301 43.833 -10.5 67.5s-12.167 42.667 -22.5 57s-23.5 22.833 -39.5 25.5l-130 -127l-46 -217c-2 -8.66699 -4.66699 -14.5 -8 -17.5s-9 -4.5 -17 -4.5h-60c-8 0 -13.333 1.5 -16 4.5s-3 8.83301 -1 17.5z" />
    <glyph glyph-name="L" unicode="L" horiz-adv-x="502" 
d="M67 0c-8 0 -13.334 1.5 -16.001 4.5s-3 8.83301 -1 17.5l144 678c2 8.66699 4.83301 14.5 8.5 17.5s9.5 4.5 17.5 4.5h59c8.66699 0 14 -1.5 16 -4.5s2 -8.83301 0 -17.5l-131 -616h280c8.66699 0 14 -1.5 16 -4.5s2 -9.16699 0 -18.5l-8 -39
c-1.33301 -8.66699 -3.66602 -14.5 -6.99902 -17.5s-9.33301 -4.5 -18 -4.5h-360z" />
    <glyph glyph-name="M" unicode="M" horiz-adv-x="848" 
d="M330 701l76.9971 -617.001l343 617c4.66699 8.66699 8.83398 14.334 12.501 17.001s8.83398 4 15.501 4h91c12.667 0 18 -7 16 -21l-145 -679c-2 -8.66699 -4.66699 -14.5 -8 -17.5s-9 -4.5 -17 -4.5h-49c-8.66699 0 -14.334 1.5 -17.001 4.5s-3 8.83301 -1 17.5l91 426
c11.333 57.333 28 117 50 179c-16 -36 -40.667 -83.667 -74 -143l-258 -470c-4.66699 -9.33301 -12 -14 -22 -14h-87c-11.333 0 -17.666 4.66699 -18.999 14l-59 470c-4 34.667 -7.66699 82.334 -11 143.001c-3.33301 -52 -12 -111.667 -26 -179l-91 -426
c-2 -8.66699 -4.66699 -14.5 -8 -17.5s-9 -4.5 -17 -4.5h-50c-8 0 -13.333 1.5 -16 4.5s-3 8.83301 -1 17.5l145 679c2 14 10 21 24 21h91c6.66699 0 11.334 -1.33301 14.001 -4s4.66699 -8.33398 6 -17.001z" />
    <glyph glyph-name="N" unicode="N" horiz-adv-x="656" 
d="M528 0h-60.999c-10.667 0 -18.334 5 -23.001 15l-170 495c-10 28.667 -16 54 -18 76c-3.33301 -40 -7.33301 -69 -12 -87l-100 -477c-2 -8.66699 -4.66699 -14.5 -8 -17.5s-9 -4.5 -17 -4.5h-53c-8 0 -13.167 1.5 -15.5 4.5s-2.5 8.83301 -0.5 17.5l145 683
c3.33301 11.333 10 17 20 17h61c12.667 0 20.334 -5 23.001 -15l168 -501c11.333 -30.667 17.666 -57 18.999 -79c3.33301 44 7.33301 76.333 12 97l100 476c2 8.66699 4.66699 14.5 8 17.5s9.33301 4.5 18 4.5h52c8 0 13.167 -1.5 15.5 -4.5s2.5 -8.83301 0.5 -17.5
l-145 -683c-2 -11.333 -8.33301 -17 -19 -17z" />
    <glyph glyph-name="O" unicode="O" horiz-adv-x="735" 
d="M90 373c9.33301 44.667 23.334 86.833 42.001 126.5s43 77.667 73 114s68.5 65.333 115.5 87s99.167 32.5 156.5 32.5c49.333 0 92.166 -7.16699 128.499 -21.5s64.833 -33.5 85.5 -57.5s36 -52.833 46 -86.5s14.833 -68.667 14.5 -105s-4.83301 -74.833 -13.5 -115.5
c-9.33301 -44 -23.333 -86 -42 -126s-43 -78.167 -73 -114.5s-68.667 -65.333 -116 -87s-100 -32.5 -158 -32.5c-61.333 0 -112.5 11 -153.5 33s-70 51 -87 87s-27.5 77.167 -31.5 123.5s0.333008 93.833 13 142.5zM473.001 645.999
c-40 0 -76.501 -8.49805 -109.501 -25.498s-60.333 -40 -82 -69s-39.5 -59.333 -53.5 -91s-24.667 -64.834 -32 -99.501c-5.33301 -26.667 -8.83301 -52.5 -10.5 -77.5s-0.166992 -50.5 4.5 -76.5s12.834 -48.5 24.501 -67.5s29.334 -34.667 53.001 -47
s52.5 -18.5 86.5 -18.5c40.667 0 77.667 8.83301 111 26.5s60.833 41.167 82.5 70.5s39.167 59.333 52.5 90s23.666 63 30.999 97c5.33301 26.667 8.83301 52.334 10.5 77.001s0.166992 50.167 -4.5 76.5s-12.667 49.166 -24 68.499s-29 35.166 -53 47.499
s-53 18.5 -87 18.5z" />
    <glyph glyph-name="P" unicode="P" horiz-adv-x="558" 
d="M298 261h-96l-51 -239c-2 -9.33301 -4.5 -15.333 -7.5 -18s-8.83301 -4 -17.5 -4h-59c-8 0 -13.333 1.5 -16 4.5s-3 8.83301 -1 17.5l144 678c2 8.66699 4.83301 14.5 8.5 17.5s9.5 4.5 17.5 4.5h154c89.333 0 153 -18.167 191 -54.5s48 -96.5 30 -180.5
c-32 -150.667 -131 -226 -297 -226zM220 344h87c99.333 0 160 50 182 150c10.667 52 5.66699 89 -15 111s-57.667 33 -111 33h-81z" />
    <glyph glyph-name="Q" unicode="Q" horiz-adv-x="735" 
d="M85 373c9.33301 44.667 23.332 86.8389 41.999 126.506s43 77.667 73 114s68.5 65.333 115.5 87s99.167 32.5 156.5 32.5c49.333 0 92.166 -7.16699 128.499 -21.5s64.833 -33.5 85.5 -57.5s36 -52.833 46 -86.5s14.833 -68.667 14.5 -105s-4.83301 -74.833 -13.5 -115.5
c-15.333 -73.333 -43.833 -140.833 -85.5 -202.5s-96.834 -105.834 -165.501 -132.501c13.333 -8.66699 29 -24.667 47 -48c28 -30.667 51 -46 69 -46c14.667 0 30 3 46 9c5.33301 2 9 2.16699 11 0.5s2.33301 -5.83398 1 -12.501l-9 -44
c-1.33301 -9.33301 -8.66602 -17 -21.999 -23c-19.333 -8.66699 -43.666 -13 -72.999 -13c-49.333 0 -90.666 25 -123.999 75c-18 23.333 -34.167 40.666 -48.5 51.999s-33.166 19.666 -56.499 24.999l-1 1c-45.333 2 -84.833 10.667 -118.5 26
s-59.834 35.166 -78.501 59.499s-32.5 52.833 -41.5 85.5s-13 66.667 -12 102s5.5 72.666 13.5 111.999zM467.999 646.005c-40 0 -76.501 -8.49805 -109.501 -25.498s-60.333 -40 -82 -69s-39.5 -59.333 -53.5 -91s-24.667 -64.834 -32 -99.501
c-5.33301 -26.667 -8.83301 -52.5 -10.5 -77.5s-0.166992 -50.5 4.5 -76.5s12.834 -48.5 24.501 -67.5s29.334 -34.667 53.001 -47s52.5 -18.5 86.5 -18.5c40.667 0 77.667 8.83301 111 26.5s60.833 41.167 82.5 70.5s39.167 59.333 52.5 90s23.666 63 30.999 97
c5.33301 26.667 8.83301 52.334 10.5 77.001s0.166992 50.167 -4.5 76.5s-12.667 49.166 -24 68.499s-29 35.166 -53 47.499s-53 18.5 -87 18.5z" />
    <glyph glyph-name="R" unicode="R" horiz-adv-x="596" 
d="M259 292l-50.002 -0.00195312l-58 -270c-2 -8.66699 -4.66699 -14.5 -8 -17.5s-9 -4.5 -17 -4.5h-60c-8 0 -13.333 1.5 -16 4.5s-3 8.83301 -1 17.5l144 678c2 8.66699 4.83301 14.5 8.5 17.5s9.5 4.5 17.5 4.5h143c90.667 0 155.167 -16.833 193.5 -50.5
s49.5 -88.167 33.5 -163.5c-22.667 -108.667 -83.667 -176.667 -183 -204c18 -12 32 -31.167 42 -57.5s21.333 -69.833 34 -130.5c3.33301 -14.667 7.83301 -24.167 13.5 -28.5s14.167 -6.5 25.5 -6.5c12.667 0 26 3.66699 40 11c6 2.66699 10 3.33398 12 2.00098
s2.33301 -5 1 -11l-11 -51c-2 -10 -9.66699 -18.333 -23 -25c-20 -8 -41.667 -12 -65 -12c-26.667 0 -47.5 5.83301 -62.5 17.5s-25.833 34.5 -32.5 68.5c-1.33301 6.66699 -3.66602 19.834 -6.99902 39.501s-6.33301 35.5 -9 47.5s-7 26.833 -13 44.5
s-12.667 31.5 -20 41.5s-17.166 18.833 -29.499 26.5s-26.5 11.5 -42.5 11.5zM222.998 360.998h75.999c52 0 92.833 11.667 122.5 35s49.834 59.333 60.501 108c10 47.333 4.16699 81.5 -17.5 102.5s-59.5 31.5 -113.5 31.5h-69z" />
    <glyph glyph-name="S" unicode="S" horiz-adv-x="517" 
d="M563 678l-12.0029 -55.9971c-2.66699 -10.667 -8.66699 -13.667 -18 -9c-44.667 20.667 -93 31 -145 31c-84 0 -132.667 -31 -146 -93c-5.33301 -26.667 -1.83301 -48.5 10.5 -65.5s29.5 -29.5 51.5 -37.5s45.667 -17.667 71 -29s48.333 -24.666 69 -39.999
s35.5 -39 44.5 -71s8.16699 -72.667 -2.5 -122c-28 -131.333 -121.667 -197 -281 -197c-78.667 0 -139 13.333 -181 40c-8 4 -11 11.333 -9 22l12 57c2.66699 12 9.33398 15.667 20.001 11c2 -0.666992 8.33301 -3.33398 19 -8.00098s18.334 -7.83398 23.001 -9.50098
s12.667 -4.33398 24 -8.00098s21.333 -6.33398 30 -8.00098s19.334 -3.16699 32.001 -4.5s25.667 -2 39 -2c48 0 86.167 9 114.5 27s47.166 48.333 56.499 91c6 29.333 5.33301 54.333 -2 75s-19.166 36 -35.499 46s-35 19.833 -56 29.5s-41.833 18.334 -62.5 26.001
s-38.834 19.5 -54.501 35.5s-26.667 35.167 -33 57.5s-5.83301 53.166 1.5 92.499c24.667 115.333 110.667 173 258 173c66.667 0 118.334 -10.667 155.001 -32c6.66699 -4 9 -11.333 7 -22z" />
    <glyph glyph-name="T" unicode="T" horiz-adv-x="525" 
d="M285 22c-2 -8.66699 -4.66699 -14.5 -8 -17.5s-9 -4.5 -17 -4.5h-60c-8 0 -13.333 1.5 -16 4.5s-3 8.83301 -1 17.5l131 616h-170c-8.66699 0 -14 1.5 -16 4.5s-2 9.16699 0 18.5l8 39c2 8.66699 4.66699 14.5 8 17.5s9.33301 4.5 18 4.5h442c8.66699 0 14 -1.5 16 -4.5
s2 -8.83301 0 -17.5l-8 -39c-2 -9.33301 -4.66699 -15.5 -8 -18.5s-9.33301 -4.5 -18 -4.5h-170z" />
    <glyph glyph-name="U" unicode="U" horiz-adv-x="658" 
d="M339 82c104 0 169.665 66 196.998 198l89 420c2 8.66699 4.83301 14.5 8.5 17.5s9.5 4.5 17.5 4.5h60c8 0 13 -1.5 15 -4.5s2 -8.83301 0 -17.5l-92 -432c-17.333 -88.667 -51.666 -156.667 -102.999 -204s-117 -71 -197 -71c-88.667 0 -151 23.667 -187 71
s-44.333 115.333 -25 204l92 432c2 8.66699 4.66699 14.5 8 17.5s9.33301 4.5 18 4.5h59c8 0 13.167 -1.5 15.5 -4.5s2.5 -8.83301 0.5 -17.5l-89 -420c-27.333 -132 10.334 -198 113.001 -198z" />
    <glyph glyph-name="V" unicode="V" horiz-adv-x="577" 
d="M240 705l21.001 -570l276 570c6.66699 11.333 16 17 28 17h66c12 0 13.667 -8.66699 5 -26l-332 -679c-5.33301 -11.333 -14.333 -17 -27 -17h-74c-7.33301 0 -12.5 1 -15.5 3s-4.83301 6.66699 -5.5 14l-44 679c-0.666992 17.333 5.33301 26 18 26h65
c6.66699 0 11.667 -1.16699 15 -3.5s4.66602 -6.83301 3.99902 -13.5z" />
    <glyph glyph-name="W" unicode="W" horiz-adv-x="877" 
d="M589 722c6 0 10.5 -1.16699 13.5 -3.5s4.16699 -6.83301 3.5 -13.5l-9 -620l263 620c5.33301 11.333 14 17 26 17h68c12.667 0 15.334 -8.33301 8.00098 -25l-298 -676c-4 -8.66699 -8.33301 -14.334 -13 -17.001s-11.334 -4 -20.001 -4h-92
c-9.33301 0 -15.833 1.33301 -19.5 4s-5.16699 8.33398 -4.5 17.001l7 542l-224 -542c-3.33301 -8.66699 -7.16602 -14.334 -11.499 -17.001s-11.166 -4 -20.499 -4h-92c-8.66699 0 -14.834 1.33301 -18.501 4s-5.83398 8.33398 -6.50098 17.001l-10 676
c0 16.667 6.33301 25 19 25h67c6.66699 0 11.5 -1.16699 14.5 -3.5s4.16699 -6.83301 3.5 -13.5l1 -620l252 620c5.33301 11.333 14 17 26 17h67z" />
    <glyph glyph-name="X" unicode="X" horiz-adv-x="567" 
d="M407 368l128 -341c8.66699 -18 3.33398 -27 -15.999 -27h-64c-8.66699 0 -15.167 1.16699 -19.5 3.5s-7.5 8.16602 -9.5 17.499l-87 277l-218 -277c-6.66699 -9.33301 -12.5 -15.166 -17.5 -17.499s-12.167 -3.5 -21.5 -3.5h-63c-18 0 -19.667 9 -5 27l274 341l-125 323
c-8.66699 20.667 -4.33398 31 12.999 31h66c14 0 23 -5.33301 27 -16l87 -266l214 266c8 10.667 18.667 16 32 16h66c18 0 18.333 -10.333 1 -31z" />
    <glyph glyph-name="Y" unicode="Y" horiz-adv-x="560" 
d="M262 284l-122 409c-6 19.333 -1 29 15 29h72c6.66699 0 11.167 -1.16699 13.5 -3.5s4.5 -6.83301 6.5 -13.5l84 -325l226 325c8 11.333 17 17 27 17h72c16.667 0 17.667 -9.66699 3 -29l-296 -410l-56 -261c-2 -8.66699 -4.66699 -14.5 -8 -17.5s-9 -4.5 -17 -4.5h-59
c-8.66699 0 -14.167 1.5 -16.5 4.5s-2.5 8.83301 -0.5 17.5z" />
    <glyph glyph-name="Z" unicode="Z" horiz-adv-x="483" 
d="M16 0c-10 0 -14.001 6 -12.001 18l10 44c2 10 8 21.667 18 35l397 541h-264c-8 0 -13 1.5 -15 4.5s-2 9.16699 0 18.5l8 39c2 8.66699 4.66699 14.5 8 17.5s9 4.5 17 4.5h367c6 0 9.5 -1.66699 10.5 -5s0.833008 -7.33301 -0.5 -12l-10 -48
c-2.66699 -11.333 -8.66699 -24.333 -18 -39l-396 -534h274c8 0 13 -1.66699 15 -5s2 -9.33301 0 -18l-8 -39c-1.33301 -8.66699 -3.66602 -14.5 -6.99902 -17.5s-9 -4.5 -17 -4.5h-377z" />
    <glyph glyph-name="bracketleft" unicode="[" horiz-adv-x="274" 
d="M216 747l127.998 -0.00195312c14.667 0 20.334 -6 17.001 -18l-6 -31c-2 -9.33301 -4.66699 -15.5 -8 -18.5s-8.66602 -4.5 -15.999 -4.5h-59l-162 -762h59c7.33301 0 12 -1.5 14 -4.5s2 -8.83301 0 -17.5l-6 -31c-3.33301 -12.667 -11.666 -19 -24.999 -19h-128
c-9.33301 0 -15.333 2.33301 -18 7s-2.66699 13.334 0 26.001l177 840c3.33301 12.667 7.16602 21.334 11.499 26.001s11.5 7 21.5 7z" />
    <glyph glyph-name="backslash" unicode="\" horiz-adv-x="405" 
d="M251 699l117.999 -672c2.66699 -10 2.5 -17 -0.5 -21s-8.5 -6 -16.5 -6h-53c-10 0 -16.5 1.16699 -19.5 3.5s-5.5 9.16602 -7.5 20.499l-118 665c-2.66699 12.667 -2.5 21.334 0.5 26.001s10.5 7 22.5 7h53c6.66699 0 11.334 -1.33301 14.001 -4s5 -9 7 -19z" />
    <glyph glyph-name="bracketright" unicode="]" horiz-adv-x="274" 
d="M183 747l128.002 0.00195312c10 0 16.333 -2.33301 19 -7s2.66699 -13.334 0 -26.001l-178 -840c-3.33301 -12.667 -7.33301 -21.334 -12 -26.001s-11.667 -7 -21 -7h-127c-14.667 0 -20.334 6.33301 -17.001 19l6 31c1.33301 8.66699 3.83301 14.5 7.5 17.5
s9.16699 4.5 16.5 4.5h58l162 762h-58c-8 0 -13 1.33301 -15 4s-2 9 0 19l6 31c3.33301 12 11.666 18 24.999 18z" />
    <glyph glyph-name="asciicircum" unicode="^" horiz-adv-x="490" 
d="M354 656l-164.999 -213.999c-10 -14 -18.5 -22.667 -25.5 -26s-20.5 -5 -40.5 -5c-16.667 0 -27 2.16699 -31 6.5s-1 14.166 9 29.499l215 279c8.66699 10.667 16.667 17.5 24 20.5s18.666 4.5 33.999 4.5zM354.001 656.001l72.998 -214
c4.66699 -14 9.83398 -22.667 15.501 -26s18.5 -5 38.5 -5c16 0 27.167 2.5 33.5 7.5s7.5 14.5 3.5 28.5l-96 279c-4 10.667 -9.16699 17.5 -15.5 20.5s-17.166 4.5 -32.499 4.5z" />
    <glyph glyph-name="underscore" unicode="_" horiz-adv-x="743" 
d="M626 -89h-609.001c-10.667 0 -13.667 13.667 -9 41c3.33301 14 8.33301 23 15 27s17 6 31 6h591c10.667 0 13.334 -13.667 8.00098 -41c-2.66699 -12 -6 -20.5 -10 -25.5s-9.66699 -7.5 -17 -7.5z" />
    <glyph glyph-name="grave" unicode="`" horiz-adv-x="245" 
d="M354 656l-9.00098 -19.001c-5.33301 -8 -14 -9.66699 -26 -5l-165 50c-9.33301 3.33301 -10 11.333 -2 24l27 47c6.66699 10.667 15.334 12.667 26.001 6l145 -78c6 -3.33301 9.16699 -6.66602 9.5 -9.99902s-1.5 -8.33301 -5.5 -15z" />
    <glyph glyph-name="a" unicode="a" horiz-adv-x="561" 
d="M558 532c8 0 13.166 -1.33203 15.499 -3.99902s2.5 -8 0.5 -16l-83 -392c-6 -27.333 0 -41 18 -41c6.66699 0 13.5 0.833008 20.5 2.5s10.833 2.5 11.5 2.5c4.66699 1.33301 7.66699 1.33301 9 0s1.33301 -4.33301 0 -9l-10 -50c-2 -10 -7.66699 -17 -17 -21
c-15.333 -6 -37.333 -9 -66 -9c-24.667 0 -42 6.83301 -52 20.5s-13.667 38.5 -11 74.5c-47.333 -68.667 -107 -103 -179 -103c-56.667 0 -96.834 22.667 -120.501 68s-25.5 115 -5.5 209c17.333 83.333 49.333 149.666 96 198.999s102.334 76 167.001 80
c21.333 0 34 -0.333008 38 -1c36.667 -2.66699 65 -16 85 -40l3 13c1.33301 6.66699 3.83301 11.167 7.5 13.5s9.83398 3.5 18.501 3.5h54zM259.999 77.001c74 0 128.666 60.999 163.999 182.999l33 156c-19.333 25.333 -50 38 -92 38c-44.667 0 -82.167 -19.667 -112.5 -59
s-51.833 -88.666 -64.5 -147.999c-12 -48.667 -12.167 -89.167 -0.5 -121.5s35.834 -48.5 72.501 -48.5z" />
    <glyph glyph-name="b" unicode="b" horiz-adv-x="534" 
d="M219 440c44 69.333 100.667 104.001 170 104.001c59.333 0 100.166 -23.833 122.499 -71.5s23.833 -118.834 4.5 -213.501c-39.333 -181.333 -135.333 -272 -288 -272c-43.333 0 -81.666 4.16699 -114.999 12.5s-55.333 16.5 -66 24.5c-8 5.33301 -11 13 -9 23l137 638
l12 56c2 8.66699 4.83301 14.5 8.5 17.5s9.5 4.5 17.5 4.5h54c8.66699 0 14 -1.5 16 -4.5s2 -8.83301 0 -17.5zM345 454.001c-35.333 0 -67.668 -16.168 -97.001 -48.501s-51.666 -79.166 -66.999 -140.499l-36 -170c26 -12 56.667 -18 92 -18c46 0 83.5 17.333 112.5 52
s49.833 82 62.5 142c26 122 3.66699 183 -67 183z" />
    <glyph glyph-name="c" unicode="c" horiz-adv-x="453" 
d="M196 269c-13.333 -63.333 -11.0029 -110.498 6.99707 -141.498s49 -46.5 93 -46.5c28.667 0 65.334 8 110.001 24c8 3.33301 13.833 4.16602 17.5 2.49902s4.5 -6.5 2.5 -14.5l-10 -50c-3.33301 -12.667 -9.66602 -21 -18.999 -25c-36.667 -17.333 -81 -26 -133 -26
c-78 0 -131.167 24.833 -159.5 74.5s-32.5 121.5 -12.5 215.5c18 84.667 51.333 149.5 100 194.5s111.667 67.5 189 67.5c48.667 0 88.667 -8.33301 120 -25c10.667 -5.33301 14.667 -13 12 -23l-12 -58c-3.33301 -10.667 -9.66602 -13.667 -18.999 -9
c-2 0.666992 -7.33301 3 -16 7s-16.167 7.16699 -22.5 9.5s-15.333 4.66602 -27 6.99902s-24.167 3.5 -37.5 3.5c-96 0 -157 -62.333 -183 -187z" />
    <glyph glyph-name="d" unicode="d" horiz-adv-x="561" 
d="M623 741l-131.001 -618.001c-6.66699 -29.333 -1 -44 17 -44c6 0 12.5 0.833008 19.5 2.5s11.167 2.5 12.5 2.5c4.66699 1.33301 7.66699 1.33301 9 0s1.33301 -4.33301 0 -9l-10 -50c-2 -10.667 -7.66699 -17.667 -17 -21c-16 -6 -38 -9 -66 -9
c-21.333 0 -39 5.16699 -53 15.5s-20.333 28.833 -19 55.5c-46 -52.667 -101 -79 -165 -79c-58.667 0 -100.167 22.5 -124.5 67.5s-26.5 113.167 -6.5 204.5c18.667 88.667 52.5 158.334 101.5 209.001s107.167 76 174.5 76c47.333 0 84 -14 110 -42l51 239
c2 8.66699 4.83301 14.5 8.5 17.5s9.83398 4.5 18.501 4.5h53c8.66699 0 14.167 -1.5 16.5 -4.5s2.5 -8.83301 0.5 -17.5zM259.999 76.999c74 0 128.666 60.999 163.999 182.999l33 156c-19.333 25.333 -50 38 -92 38c-44.667 0 -82.167 -19.667 -112.5 -59
s-51.833 -88.666 -64.5 -147.999c-12 -48.667 -12.167 -89.167 -0.5 -121.5s35.834 -48.5 72.501 -48.5z" />
    <glyph glyph-name="e" unicode="e" horiz-adv-x="507" 
d="M389 544c140 0 197.001 -61.332 171.001 -183.999c-12.667 -59.333 -39.667 -101.833 -81 -127.5s-90 -38.5 -146 -38.5c-48 0 -90.667 8 -128 24c-6.66699 -50 0 -85.667 20 -107s54.333 -32 103 -32c47.333 0 92 8 134 24c22.667 8.66699 35 13 37 13
c7.33301 0 10 -3.33301 8 -10l-12 -55c-2 -10.667 -10.333 -19.334 -25 -26.001c-46 -22 -97.667 -33 -155 -33c-170 0 -235.667 94.667 -197 284c17.333 82 49.666 147.167 96.999 195.5s105.333 72.5 174 72.5zM379.001 457.001c-36 0 -67.668 -13.833 -95.001 -41.5
s-48.666 -68.167 -63.999 -121.5c38 -14 77.667 -21 119 -21c72.667 0 116 31.333 130 94c12.667 60 -17.333 90 -90 90z" />
    <glyph glyph-name="f" unicode="f" horiz-adv-x="337" 
d="M-94 -226l12.002 53.999c2 11.333 8 15 18 11c15.333 -6 29 -9 41 -9c36.667 0 61.334 30.333 74.001 91l112 527h-59c-8.66699 0 -14 1.16699 -16 3.5s-2 7.5 0 15.5l9 44c2.66699 14 9.66699 21 21 21h63l11 52c14 67.333 37.5 117.333 70.5 150s77.5 49 133.5 49
c38.667 0 74.667 -7.33301 108 -22c8 -4 10.667 -11 8 -21l-10 -47c-2.66699 -12 -9.33398 -15.667 -20.001 -11c-29.333 13.333 -58.333 20 -87 20c-28 0 -50.667 -9.66699 -68 -29s-31 -51.666 -41 -96.999l-9 -44h104c7.33301 0 12.166 -1 14.499 -3
s2.83301 -6.33301 1.5 -13l-10 -50c-2.66699 -12 -10.334 -18 -23.001 -18h-105l-117 -548c-22 -102.667 -74.667 -154 -158 -154c-36 0 -59.333 4 -70 12c-6 4.66699 -8.66699 10 -8 16z" />
    <glyph glyph-name="g" unicode="g" horiz-adv-x="541" 
d="M-28 -102c14 68.667 59.998 114.001 137.998 136.001c-42.667 38 -52 110 -28 216c18.667 84 49.334 150.833 92.001 200.5s94.334 78.834 155.001 87.501c12 2 24 3 36 3c6.66699 0 16.667 -0.666992 30 -2c31.333 -2.66699 56 -15.334 74 -38.001l2 9
c2 8.66699 4.83301 14.5 8.5 17.5s9.5 4.5 17.5 4.5h54c8.66699 0 14.167 -1.5 16.5 -4.5s2.5 -8.83301 0.5 -17.5l-94 -442c-22.667 -107.333 -65.167 -187 -127.5 -239s-137.5 -78 -225.5 -78c-52.667 0 -93.5 11.167 -122.5 33.5s-37.833 60.166 -26.5 113.499z
M253.998 77.001c74 0 128.667 60.999 164 182.999l33 156c-20.667 25.333 -51.334 38 -92.001 38c-45.333 0 -83.166 -19.5 -113.499 -58.5s-51.833 -88.167 -64.5 -147.5c-12 -49.333 -12.167 -90.166 -0.5 -122.499s36.167 -48.5 73.5 -48.5zM143.998 -170
c60.667 0 109.833 19.667 147.5 59s66.834 104 87.501 194c-44.667 -64 -101.334 -96 -170.001 -96c-80.667 0 -127 -30 -139 -90c-5.33301 -24.667 -1.33301 -42 12 -52s34 -15 62 -15z" />
    <glyph glyph-name="h" unicode="h" horiz-adv-x="544" 
d="M187 741c2 9.33301 4.66504 15.333 7.99805 18s9.33301 4 18 4h54c8.66699 0 14 -1.33301 16 -4s2 -8.66699 0 -18l-62 -290c40 62 98 93 174 93c46 0 79.167 -15 99.5 -45s23.833 -76.667 10.5 -140l-50 -236c-6.66699 -29.333 -1 -44 17 -44
c6 0 12.5 0.833008 19.5 2.5s11.167 2.5 12.5 2.5c4 1.33301 6.66699 1.33301 8 0s1.33301 -4.33301 0 -9l-10 -50c-2 -10.667 -7.66699 -17.667 -17 -21c-14.667 -6 -36.667 -9 -66 -9c-59.333 0 -81.666 33.333 -66.999 100l52 244c16 78 -4 117 -60 117
c-38 0 -71.167 -17.667 -99.5 -53s-50.166 -85 -65.499 -149l-49 -232c-2 -9.33301 -4.5 -15.333 -7.5 -18s-8.83301 -4 -17.5 -4h-54c-8 0 -13.333 1.5 -16 4.5s-3 8.83301 -1 17.5z" />
    <glyph glyph-name="i" unicode="i" horiz-adv-x="243" 
d="M254 510l-82.001 -387c-6.66699 -29.333 -0.666992 -44 18 -44c6 0 12.5 0.833008 19.5 2.5s10.833 2.5 11.5 2.5c4.66699 1.33301 7.66699 1.33301 9 0s1.33301 -4.33301 0 -9l-10 -50c-2 -10.667 -7.66699 -17.667 -17 -21c-16 -6 -38 -9 -66 -9
c-59.333 0 -81.666 33.333 -66.999 100l88 415c2 8.66699 4.66699 14.5 8 17.5s9.33301 4.5 18 4.5h54c8 0 13.167 -1.5 15.5 -4.5s2.5 -8.83301 0.5 -17.5zM183.999 690c4.66699 20.667 14.332 37.333 28.999 50s31 19 49 19c16 0 28.167 -6 36.5 -18s10.5 -27.333 6.5 -46
c-4 -20 -13.667 -36 -29 -48s-32 -18 -50 -18c-15.333 0 -27.166 5.5 -35.499 16.5s-10.5 25.833 -6.5 44.5z" />
    <glyph glyph-name="j" unicode="j" horiz-adv-x="222" 
d="M-133 -226l11.998 53.999c2 10.667 8.33301 14.334 19 11.001c15.333 -6 29 -9 41 -9c35.333 0 59.333 30.333 72 91l125 589c2 8.66699 4.83301 14.5 8.5 17.5s9.83398 4.5 18.501 4.5h54c8 0 13.167 -1.5 15.5 -4.5s2.5 -8.83301 0.5 -17.5l-130 -610
c-22 -102.667 -74.333 -154 -157 -154c-34.667 0 -58.667 4 -72 12c-5.33301 4 -7.66602 9.33301 -6.99902 16zM162.998 689.999c4.66699 20.667 14.499 37.333 29.499 50s31.167 19 48.5 19c16 0 28.167 -6 36.5 -18s10.5 -27.333 6.5 -46c-4 -20 -13.667 -36 -29 -48
s-31.666 -18 -48.999 -18c-15.333 0 -27.333 5.5 -36 16.5s-11 25.833 -7 44.5z" />
    <glyph glyph-name="k" unicode="k" horiz-adv-x="488" 
d="M515 500l-247 -237.999l74 -125c22 -38 43.667 -57 65 -57c6.66699 0 15 1.66699 25 5c4.66699 2 7.83398 2.16699 9.50098 0.5s2.16699 -4.83398 1.5 -9.50098l-12 -56c-2.66699 -8.66699 -7 -14 -13 -16c-14 -6 -32 -9 -54 -9c-16.667 0 -32.334 4.66699 -47.001 14
s-31 29.333 -49 60l-94 160l-44 -207c-2 -9.33301 -4.5 -15.333 -7.5 -18s-8.83301 -4 -17.5 -4h-54c-8 0 -13.333 1.5 -16 4.5s-3 8.83301 -1 17.5l153 719c2 8.66699 4.83301 14.5 8.5 17.5s9.5 4.5 17.5 4.5h54c8.66699 0 14 -1.5 16 -4.5s2 -8.83301 0 -17.5l-95 -445
l228 220c10.667 10.667 22.667 16 36 16h64c19.333 0 19 -10.667 -1 -32z" />
    <glyph glyph-name="l" unicode="l" horiz-adv-x="248" 
d="M302 741l-131.001 -618c-6.66699 -29.333 -1 -44 17 -44c6 0 12.5 0.833008 19.5 2.5s11.167 2.5 12.5 2.5c4.66699 1.33301 7.66699 1.33301 9 0s1.33301 -4.33301 0 -9l-10 -50c-2 -10.667 -8 -17.667 -18 -21c-15.333 -6 -37.333 -9 -66 -9
c-59.333 0 -81.666 33.333 -66.999 100l137 646c2 8.66699 4.83301 14.5 8.5 17.5s9.5 4.5 17.5 4.5h55c8 0 13.167 -1.5 15.5 -4.5s2.5 -8.83301 0.5 -17.5z" />
    <glyph glyph-name="m" unicode="m" horiz-adv-x="817" 
d="M679 354c13.333 66.667 -4.99805 100 -54.998 100c-76 0 -127.667 -63 -155 -189l-52 -243c-2 -9.33301 -4.5 -15.333 -7.5 -18s-8.83301 -4 -17.5 -4h-54c-8 0 -13.333 1.5 -16 4.5s-3 8.83301 -1 17.5l71 332c13.333 66.667 -5 100 -55 100
c-76 0 -127.667 -63 -155 -189l-52 -243c-2 -9.33301 -4.5 -15.333 -7.5 -18s-8.83301 -4 -17.5 -4h-54c-8 0 -13.333 1.5 -16 4.5s-3 8.83301 -1 17.5l104 488c3.33301 14.667 12 22 26 22h54c8.66699 0 14 -1.5 16 -4.5s2 -8.83301 0 -17.5l-10 -47
c39.333 54 94.333 81 165 81c68 0 104.333 -33.333 109 -100c39.333 66.667 98.666 100 177.999 100c43.333 0 74.5 -14.333 93.5 -43s22.167 -72.667 9.5 -132l-52 -246c-6.66699 -29.333 -1 -44 17 -44c6.66699 0 13.5 0.833008 20.5 2.5s10.833 2.5 11.5 2.5
c4.66699 1.33301 7.66699 1.33301 9 0s1.33301 -4.33301 0 -9l-10 -50c-2 -10.667 -8 -17.667 -18 -21c-14.667 -6 -36.334 -9 -65.001 -9c-60 0 -82.667 33.333 -68 100z" />
    <glyph glyph-name="n" unicode="n" horiz-adv-x="544" 
d="M343 456c-38.667 0 -72.332 -18.5 -100.999 -55.5s-50.334 -89.167 -65.001 -156.5l-47 -222c-2 -8.66699 -4.66699 -14.5 -8 -17.5s-9 -4.5 -17 -4.5h-55c-8 0 -13.333 1.5 -16 4.5s-3 8.83301 -1 17.5l104 488c3.33301 14.667 12 22 26 22h55
c8 0 13.167 -1.5 15.5 -4.5s2.5 -8.83301 0.5 -17.5l-12 -54c40 58.667 96.333 88 169 88c47.333 0 81.5 -15 102.5 -45s24.833 -76.667 11.5 -140l-40 -185h-1l-10 -51c-6.66699 -29.333 -1 -44 17 -44c6.66699 0 13.667 1 21 3l11 2c4.66699 1.33301 7.66699 1.33301 9 0
s1.33301 -4.33301 0 -9l-10 -50c-2 -10.667 -7.66699 -17.667 -17 -21c-16 -6 -38 -9 -66 -9c-60 0 -82.667 33.333 -68 100l52 244c16 78 -4 117 -60 117z" />
    <glyph glyph-name="o" unicode="o" 
d="M68 281c16.667 78.667 47.833 142.166 93.5 190.499s105.167 72.5 178.5 72.5c56.667 0 101 -13.167 133 -39.5s50.667 -60.833 56 -103.5s3 -91 -7 -145c-17.333 -80 -49 -144.833 -95 -194.5s-105.667 -74.5 -179 -74.5c-56 0 -100 13.5 -132 40.5
s-50.5 62.333 -55.5 106s-2.5 92.834 7.5 147.501zM333.999 453.999c-83.333 0 -137.999 -62.667 -163.999 -188c-27.333 -126 0.666992 -189 84 -189s138.666 63 165.999 189c26 125.333 -2.66699 188 -86 188z" />
    <glyph glyph-name="p" unicode="p" horiz-adv-x="536" 
d="M15 -70l123 579.999c3.33301 14.667 12 22 26 22h55c8 0 13.167 -1.5 15.5 -4.5s2.5 -8.83301 0.5 -17.5l-13 -59c47.333 60.667 104 91 170 91c123.333 0 165.333 -94 126 -282c-19.333 -87.333 -52.5 -154.666 -99.5 -201.999s-103.167 -71 -168.5 -71
c-43.333 0 -83.333 10.333 -120 31l-52 -245c-2 -8.66699 -4.66699 -14.5 -8 -17.5s-9 -4.5 -17 -4.5h-55c-8 0 -13.167 1.5 -15.5 4.5s-2.5 8.83301 -0.5 17.5zM352 453.999c-76 0 -131.999 -61.667 -167.999 -185l-34 -160c21.333 -22.667 53.666 -34 96.999 -34
c85.333 0 142.333 66.333 171 199c26 120 4 180 -66 180z" />
    <glyph glyph-name="q" unicode="q" horiz-adv-x="533" 
d="M386 83c-44.667 -64 -100.332 -96.001 -166.999 -96.001c-58 0 -99.333 22.333 -124 67s-27 113 -7 205c19.333 88.667 53.166 158.334 101.499 209.001s105.5 76 171.5 76c50 0 88 -13.667 114 -41l3 12c1.33301 6.66699 3.83301 11.167 7.5 13.5
s9.83398 3.5 18.501 3.5h53c8.66699 0 14 -1.5 16 -4.5s2 -8.83301 0 -17.5l-157 -737c-2 -9.33301 -4.5 -15.333 -7.5 -18s-8.83301 -4 -17.5 -4h-53c-8.66699 0 -14.334 1.5 -17.001 4.5s-3 8.83301 -1 17.5zM260.002 76.999c74 0 128.667 60.999 164 182.999l33 156
c-19.333 25.333 -50.333 38 -93 38c-44.667 0 -82 -19.667 -112 -59s-51.333 -88.666 -64 -147.999c-12.667 -48.667 -13.167 -89.167 -1.5 -121.5s36.167 -48.5 73.5 -48.5z" />
    <glyph glyph-name="r" unicode="r" horiz-adv-x="377" 
d="M138 510c2 8.66699 4.83398 14.498 8.50098 17.498s9.5 4.5 17.5 4.5h55c8 0 13.167 -1.5 15.5 -4.5s2.5 -8.83301 0.5 -17.5l-23 -110c6.66699 15.333 14.5 30 23.5 44s20.833 29.167 35.5 45.5s32.167 29.5 52.5 39.5s42.166 15 65.499 15c16 0 30 -2.33301 42 -7
c8.66699 -3.33301 11.667 -10.666 9 -21.999l-12 -58c-2.66699 -10 -8.66699 -13.667 -18 -11c-12.667 5.33301 -25.667 8 -39 8c-48 0 -89.667 -24.667 -125 -74s-59.333 -101.666 -72 -156.999l-43 -201c-2 -8.66699 -4.66699 -14.5 -8 -17.5s-9 -4.5 -17 -4.5h-55
c-8 0 -13.333 1.5 -16 4.5s-3 8.83301 -1 17.5z" />
    <glyph glyph-name="s" unicode="s" horiz-adv-x="448" 
d="M466 504l-12.0029 -52.998c-2.66699 -12.667 -10.334 -17 -23.001 -13c-56 14 -96.667 21 -122 21c-66 0 -103.333 -22.333 -112 -67c-4 -20.667 -0.666992 -36.667 10 -48s25.334 -18.666 44.001 -21.999s38.5 -8 59.5 -14s40.167 -13.667 57.5 -23s30 -26 38 -50
s8 -55.333 0 -94c-20 -98.667 -95.667 -148 -227 -148c-69.333 0 -122.333 7.66699 -159 23c-8 3.33301 -11.333 8.66602 -10 15.999l13 60c1.33301 9.33301 6.33301 12.666 15 9.99902c62.667 -16.667 112 -25 148 -25c72 0 113.667 25 125 75
c4 18.667 2.33301 33.667 -5 45s-18.333 19.166 -33 23.499s-30.834 8.83301 -48.501 13.5l-52.5 14c-17.333 4.66699 -32.666 13.167 -45.999 25.5s-22.666 28.5 -27.999 48.5s-4.66602 47.333 2.00098 82c20.667 93.333 93.334 140 218.001 140
c49.333 0 94 -6.33301 134 -19c4 -1.33301 7 -2.5 9 -3.5s3.66699 -3 5 -6s1.33301 -6.83301 0 -11.5z" />
    <glyph glyph-name="t" unicode="t" horiz-adv-x="350" 
d="M132 532h56.0029l67 139c6 10.667 18 16 36 16c11.333 0 18 -1 20 -3s2.33301 -6.33301 1 -13l-29 -139h108c8 0 13 -1 15 -3s2.33301 -6 1 -12l-11 -52c-2 -12 -9.33301 -18 -22 -18h-109l-54 -253c-8.66699 -33.333 -11.334 -58.666 -8.00098 -75.999
s8.83301 -28.5 16.5 -33.5s20.167 -7.5 37.5 -7.5c23.333 0 42.666 3.33301 57.999 10c6 2.66699 10 3.16699 12 1.5s2.33301 -5.83398 1 -12.501l-10 -47c-2.66699 -10.667 -9.33398 -18 -20.001 -22c-20.667 -8.66699 -47.667 -13 -81 -13c-46 0 -79.333 12.167 -100 36.5
s-24 68.833 -10 133.5l61 283h-49c-8.66699 0 -14.167 1.16699 -16.5 3.5s-2.5 7.5 -0.5 15.5l9 45c2.66699 14 9.66699 21 21 21z" />
    <glyph glyph-name="u" unicode="u" horiz-adv-x="553" 
d="M474 123c-6.66699 -29.333 -0.999023 -44 17.001 -44c6.66699 0 13.5 0.833008 20.5 2.5s10.833 2.5 11.5 2.5c4.66699 1.33301 7.66699 1.33301 9 0s1.33301 -4.33301 0 -9l-10 -50c-2 -10.667 -7.66699 -17.667 -17 -21c-16 -6 -38 -9 -66 -9c-48 0 -72 22 -72 66
c-38 -45.333 -91.667 -68 -161 -68c-52.667 0 -90.334 14 -113.001 42s-27.334 74 -14.001 138l45 210h1l27 127c3.33301 14.667 12 22 26 22h55c8 0 13.167 -1.5 15.5 -4.5s2.5 -8.83301 0.5 -17.5l-71 -332c-14 -68.667 6.66699 -103 62 -103
c41.333 0 76.333 16.333 105 49s49.334 78.667 62.001 138l53 248c2 8.66699 4.66699 14.5 8 17.5s9.33301 4.5 18 4.5h54c8.66699 0 14 -1.5 16 -4.5s2 -8.83301 0 -17.5z" />
    <glyph glyph-name="v" unicode="v" horiz-adv-x="484" 
d="M224 98l209.999 411c5.33301 10.667 9.5 17.167 12.5 19.5s9.5 3.5 19.5 3.5h59c8 0 12.667 -1.66699 14 -5s0 -9.33301 -4 -18l-262 -495c-5.33301 -9.33301 -11.666 -14 -18.999 -14h-87c-9.33301 0 -14.333 4.66699 -15 14l-50 495c-2.66699 15.333 4 23 20 23h59
c9.33301 0 15 -1.16699 17 -3.5s3.66699 -8.83301 5 -19.5z" />
    <glyph glyph-name="w" unicode="w" horiz-adv-x="748" 
d="M205 513l-2.99902 -410.999l185 410c4 8.66699 7.5 14.167 10.5 16.5s7.83301 3.5 14.5 3.5h79c6.66699 0 10.834 -1.16699 12.501 -3.5s2.5 -7.83301 2.5 -16.5l11 -408l171 408c3.33301 8 6.33301 13.333 9 16s7 4 13 4h73c13.333 0 17 -6.33301 11 -19l-235 -499
c-4 -9.33301 -11 -14 -21 -14h-80c-8 0 -13 1 -15 3s-3 6 -3 12l-18 382l-179 -382c-2 -4.66699 -3.83301 -7.83398 -5.5 -9.50098s-3.83398 -3 -6.50098 -4s-6.66699 -1.5 -12 -1.5h-80c-10.667 0 -16 5 -16 15l-24 497c0 13.333 6.66699 20 20 20h74
c6 0 9.66699 -1.16699 11 -3.5s1.66602 -7.5 0.999023 -15.5z" />
    <glyph glyph-name="x" unicode="x" horiz-adv-x="468" 
d="M315 272l98.001 -248.001c6.66699 -16 2 -24 -14 -24h-65c-14.667 0 -23.667 7 -27 21l-58 186l-145 -186c-10 -14 -22 -21 -36 -21h-65c-7.33301 0 -11.5 2.33301 -12.5 7s1.5 10.334 7.5 17.001l201 248l-91 232c-3.33301 8.66699 -4 15.5 -2 20.5s6.66699 7.5 14 7.5
h67c12.667 0 20 -4.66699 22 -14l57 -179l142 179c6.66699 9.33301 16.667 14 30 14h69c4.66699 0 7.66699 -1.33301 9 -4s1.16602 -6.16699 -0.500977 -10.5s-4.5 -8.83301 -8.5 -13.5z" />
    <glyph glyph-name="y" unicode="y" horiz-adv-x="527" 
d="M149 -164c100.667 0 162.999 54.998 186.999 164.998l13 61c-40 -49.333 -95 -74 -165 -74c-52 0 -88.5 13.833 -109.5 41.5s-24.833 73.834 -11.5 138.501l73 342c3.33301 14.667 12.333 22 27 22h53c8.66699 0 14.167 -1.5 16.5 -4.5s2.5 -8.83301 0.5 -17.5l-70 -327
c-14 -68.667 7 -103 63 -103c40.667 0 74.834 14.667 102.501 44s47.5 71 59.5 125l56 261c2 8.66699 4.66699 14.5 8 17.5s9.33301 4.5 18 4.5h54c8.66699 0 14 -1.5 16 -4.5s2 -8.83301 0 -17.5l-110 -517c-34.667 -164.667 -129.667 -247 -285 -247
c-71.333 0 -124 8 -158 24c-10.667 4.66699 -14.667 13.334 -12 26.001l10 51c2.66699 14 10.667 18.667 24 14c46 -16.667 92.667 -25 140 -25z" />
    <glyph glyph-name="z" unicode="z" horiz-adv-x="446" 
d="M140 532h329.001c9.33301 0 12.666 -5.33301 9.99902 -16l-7 -34c-1.33301 -7.33301 -4.16602 -13.833 -8.49902 -19.5s-14.5 -17.5 -30.5 -35.5l-297 -343h246c9.33301 0 13 -5.66699 11 -17l-12 -53c-2 -9.33301 -8.33301 -14 -19 -14h-346
c-9.33301 0 -13 5.66699 -11 17l7 34c3.33301 14 10.666 27 21.999 39l307 358h-219c-11.333 0 -15.333 6 -12 18l11 52c2 9.33301 8.33301 14 19 14z" />
    <glyph glyph-name="braceleft" unicode="{" horiz-adv-x="322" 
d="M58 282l5.99902 27.001h103v-1c40.667 -11.333 53.667 -50.333 39 -117l-35 -166c-12 -54.667 5.66699 -82 53 -82c11.333 0 15.666 -5 12.999 -15l-6 -27c-2 -11.333 -8.66699 -17 -20 -17h-13c-56 0 -93.667 10.167 -113 30.5s-23 57.5 -11 111.5l32 149
c6.66699 23.333 7.33398 43.166 2.00098 59.499s-18.666 27.833 -39.999 34.5c-6 2 -9.33301 4.33301 -10 7c-0.666992 1.33301 -0.666992 3.33301 0 6zM63.999 309.001l5.99609 26.998c1.33301 6.66699 5.33301 10.667 12 12c0.666992 0.666992 1.16699 1 1.5 1h1.5
c24 6.66699 41.5 17.334 52.5 32.001s19.5 35.334 25.5 62.001l31 149c12 54 31.833 91.167 59.5 111.5s69.5 30.5 125.5 30.5h13c6.66699 0 10.834 -1.16699 12.501 -3.5s1.83398 -6.83301 0.500977 -13.5l-6 -27c-1.33301 -10 -7.66602 -15 -18.999 -15
c-47.333 0 -76.666 -27.333 -87.999 -82l-36 -166c-13.333 -66.667 -43 -105.667 -89 -117v-1h-103z" />
    <glyph glyph-name="bar" unicode="|" horiz-adv-x="224" 
d="M106 -116c-3.33301 -14.667 -12 -22.334 -26 -23.001h-57c-12.667 0 -17 7.33301 -13 22l15 77l161 759c3.33301 14.667 12 22.334 26 23.001h57c12.667 0 17.667 -7.33301 15 -22z" />
    <glyph glyph-name="braceright" unicode="}" horiz-adv-x="322" 
d="M314 282l6 27h-103v-1c-44.667 -11.333 -74.334 -50.333 -89.001 -117l-35 -166c-12 -54.667 -42 -82 -90 -82c-5.33301 0 -9.16602 -1 -11.499 -3s-4.16602 -6 -5.49902 -12l-6 -27c-2 -11.333 2.33301 -17 13 -17h12c56 0 97.667 10.167 125 30.5s47 57.5 59 111.5
l32 149c5.33301 26 13.666 46.5 24.999 61.5s29.333 25.833 54 32.5c8 2.66699 12.667 7 14 13zM326 336l-5.99902 -27.001h-103v1c-22.667 6.66699 -36.667 21.167 -42 43.5s-4.33301 46.833 3 73.5l36 166c11.333 54.667 -7 82 -55 82c-6 0 -9.83301 1 -11.5 3
s-1.83398 6 -0.500977 12l6 27c2.66699 11.333 9.33398 17 20.001 17h13c56 0 93.5 -10.167 112.5 -30.5s22.5 -57.5 10.5 -111.5l-31 -149c-6.66699 -23.333 -7.33398 -43.166 -2.00098 -59.499s19 -27.833 41 -34.5c7.33301 -2.66699 10.333 -7 9 -13z" />
    <glyph glyph-name="asciitilde" unicode="~" horiz-adv-x="505" 
d="M359 315c34 0 56.001 15.999 66.001 47.999c3.33301 8 9.33301 12 18 12h49c9.33301 0 12.666 -7 9.99902 -21c-8.66699 -41.333 -27.334 -73.666 -56.001 -96.999s-65 -35 -109 -35c-26 0 -44.5 4 -55.5 12s-19.5 19 -25.5 33c-3.33301 8 -6 13.833 -8 17.5
s-6.5 7.33398 -13.5 11.001s-15.833 5.5 -26.5 5.5c-31.333 0 -52.666 -16 -63.999 -48c-2 -6 -4 -9.66699 -6 -11s-6 -2 -12 -2h-47c-6 0 -9.66699 1.33301 -11 4s-1.33301 8.66699 0 18c8.66699 40.667 26.5 72.667 53.5 96s61.5 35 103.5 35c43.333 0 72.333 -16 87 -48
c4 -10.667 9 -18.334 15 -23.001s16.667 -7 32 -7z" />
    <glyph glyph-name="nonbreakingspace" unicode="&#xa0;" horiz-adv-x="221" 
 />
    <glyph glyph-name="exclamdown" unicode="&#xa1;" horiz-adv-x="239" 
d="M-1 -132c4 20 23.1641 76.835 57.4971 170.502s62.833 194.167 85.5 301.5c2 9.33301 10 14 24 14c8.66699 0 14.167 -1 16.5 -3s2.83301 -5.66699 1.5 -11c-17.333 -80 -29.166 -151.833 -35.499 -215.5s-10.166 -115.834 -11.499 -156.501s-5 -74 -11 -100
c-5.33301 -26.667 -14.166 -45.834 -26.499 -57.501s-29.833 -17.5 -52.5 -17.5s-37.667 6 -45 18s-8.33301 31 -3 57zM126.997 466.002c4 20 13.834 36.834 29.501 50.501s32.167 20.5 49.5 20.5c16.667 0 29.667 -6 39 -18s12 -28 8 -48
c-4.66699 -20 -14.834 -36.333 -30.501 -49s-32.5 -19 -50.5 -19c-16.667 0 -29.5 5.66699 -38.5 17s-11.167 26.666 -6.5 45.999z" />
    <glyph glyph-name="cent" unicode="&#xa2;" horiz-adv-x="482" 
d="M518 410c-11.333 14 -21.332 24.8369 -29.999 32.5039s-21.834 14.667 -39.501 21s-38.167 9.16602 -61.5 8.49902c-46.667 0 -85.167 -19 -115.5 -57s-52.5 -89 -66.5 -153c-28 -130.667 9.33301 -196 112 -196c37.333 0 68.333 4 93 12
c7.33301 2 19.166 5.83301 35.499 11.5s26.166 9.16699 29.499 10.5c4 0.666992 6.66699 0 8 -2s1.33301 -5 0 -9l-9 -42c-1.33301 -8 -3.5 -13.5 -6.5 -16.5s-8.83301 -6.83301 -17.5 -11.5c-30.667 -14.667 -68 -24.334 -112 -29.001l-9 -46
c-3.33301 -14.667 -11.666 -22.334 -24.999 -23.001h-58c-12 0 -16.667 7.33301 -14 22l10 47c-126.667 17.333 -172.334 108.666 -137.001 273.999c16 76.667 46 139.667 90 189s98.667 78.666 164 87.999l13 58c3.33301 14.667 11.666 22.334 24.999 23.001h57
c12.667 0 17.334 -7.33301 14.001 -22l-13 -60c41.333 -7.33301 71.333 -22.333 90 -45c6.66699 -7.33301 9 -17 7 -29l-11 -50c-1.33301 -6.66699 -4.66602 -10.5 -9.99902 -11.5s-9.66602 0.833008 -12.999 5.5z" />
    <glyph glyph-name="sterling" unicode="&#xa3;" horiz-adv-x="541" 
d="M31 0c-7.33301 0 -11.9971 1.16504 -13.9971 3.49805s-2.33301 6.83301 -1 13.5l11 50c2.66699 11.333 8.66699 17 18 17h2c30.667 7.33301 54 22 70 44s27.667 51.333 35 88c4.66699 22 6 42.667 4 62h-78c-10.667 0 -14.667 5 -12 15l9 43c2 9.33301 8 14 18 14h45
c-16 54.667 -19 104.667 -9 150c16 74 47 130.833 93 170.5s102.667 60.167 170 61.5c40 0 72.333 -5.5 97 -16.5s47.667 -26.167 69 -45.5c8 -5.33301 10.333 -15.666 7 -30.999l-10 -49c-2 -8.66699 -5.33301 -13 -10 -13s-8 1.66699 -10 5c-41.333 48 -94.333 72 -159 72
c-33.333 -1.33301 -62.333 -13.833 -87 -37.5s-42 -59.5 -52 -107.5c-3.33301 -14 -4.83301 -28.667 -4.5 -44s1.16602 -27.333 2.49902 -36s4 -22.667 8 -42s6.66699 -31.666 8 -36.999h137c9.33301 0 13 -4.66699 11 -14l-9 -43c-2.66699 -10 -8.33398 -15 -17.001 -15
h-116c0 -12.667 -1.66699 -26.667 -5 -42c-15.333 -72 -48.333 -122.667 -99 -152h319c8.66699 0 14.167 -1.5 16.5 -4.5s2.5 -9.16699 0.5 -18.5l-8 -39c-1.33301 -8.66699 -3.83301 -14.5 -7.5 -17.5s-9.83398 -4.5 -18.501 -4.5h-424z" />
    <glyph glyph-name="currency" unicode="&#xa4;" horiz-adv-x="564" 
d="M295 147c-54 0 -95.665 14.0039 -124.998 42.0039l-51 -45c-12 -10 -22 -10.333 -30 -1l-31 41c-7.33301 10 -5 20 7 30l62 55c-6 33.333 -5 70.666 3 111.999c11.333 52 31.333 96.333 60 133l-39 55c-6.66699 11.333 -4.33398 21.666 6.99902 30.999l49 41
c10.667 8.66699 19.667 8.33398 27 -0.999023l39 -56c35.333 18.667 75.666 28 120.999 28c38 0 69.667 -6.66699 95 -20l63 56c11.333 11.333 21 11.666 29 0.999023l33 -40c7.33301 -9.33301 5 -19.333 -7 -30l-58 -51c17.333 -40 20 -88.667 8 -146
c-11.333 -50.667 -30.333 -94.334 -57 -131.001l34 -47c8 -11.333 6 -22 -6 -32l-50 -41c-10.667 -8.66699 -19.667 -8.33398 -27 0.999023l-33 46c-36 -20.667 -77 -31 -123 -31zM483.002 389.004c9.33301 45.333 4.5 82.498 -14.5 111.498s-48.833 43.5 -89.5 43.5
c-42 0 -78.667 -14.667 -110 -44s-52 -66.666 -62 -111.999c-11.333 -53.333 -8 -95.5 10 -126.5s48.667 -46.5 92 -46.5c42.667 0 79.5 15.833 110.5 47.5s52.167 73.834 63.5 126.501z" />
    <glyph glyph-name="yen" unicode="&#xa5;" horiz-adv-x="559" 
d="M481 175h-148l-33 -153c-2 -8.66699 -4.66699 -14.5 -8 -17.5s-9 -4.5 -17 -4.5h-59c-8.66699 0 -14.167 1.5 -16.5 4.5s-2.5 8.83301 -0.5 17.5l33 153h-142c-10 0 -14 5 -12 15l9 43c2 9.33301 7.66699 14 17 14h143l6 26h-142c-10.667 0 -14.667 5 -12 15l9 44
c2 9.33301 7.66699 14 17 14h111l-103 347c-6 19.333 -1 29 15 29h72c6.66699 0 11.167 -1.16699 13.5 -3.5s4.5 -6.83301 6.5 -13.5l84 -325l226 325c8 11.333 17 17 27 17h72c16.667 0 17.667 -9.66699 3 -29l-251 -347h117c9.33301 0 13 -4.66699 11 -14l-9 -44
c-2.66699 -10 -8.66699 -15 -18 -15h-148l-6 -26h149c9.33301 0 13 -4.66699 11 -14l-9 -43c-2 -10 -8 -15 -18 -15z" />
    <glyph glyph-name="brokenbar" unicode="&#xa6;" horiz-adv-x="234" 
d="M188 719c3.33301 14.667 12.001 22.334 26.001 23.001h57c12.667 0 17.667 -7.33301 15 -22l-70 -326c-3.33301 -14.667 -12 -22.334 -26 -23.001h-57c-12.667 0 -17.334 7.33301 -14.001 22zM171.001 180l-66.999 -316c-3.33301 -14.667 -12 -22.334 -26 -23.001h-57
c-12.667 0 -17.667 7.33301 -15 22l68 316c3.33301 14.667 11.666 22.334 24.999 23.001h57c12.667 0 17.667 -7.33301 15 -22z" />
    <glyph glyph-name="section" unicode="&#xa7;" horiz-adv-x="441" 
d="M491 685l-6.00195 -29.999c-2.66699 -10 -8 -13 -16 -9c-45.333 18 -90.333 27 -135 27c-50 0 -79.667 -21.333 -89 -64c-4 -18.667 1.66699 -34.167 17 -46.5s34.833 -22.333 58.5 -30s47.334 -16.5 71.001 -26.5s42.167 -25.333 55.5 -46s16.666 -46.667 9.99902 -78
c-14 -62.667 -47 -108.334 -99 -137.001c31.333 -24.667 42.333 -58.667 33 -102c-11.333 -52.667 -37.5 -92 -78.5 -118s-90.5 -39 -148.5 -39s-107 14.667 -147 44c-5.33301 3.33301 -7.33301 9 -6 17l8 33c2 10.667 6.66699 14.667 14 12c54 -28 103.667 -42 149 -42
c62.667 0 99.667 26.333 111 79c4.66699 20 -0.5 36.333 -15.5 49s-34.333 22.834 -58 30.501s-47 16.167 -70 25.5s-41.167 24.166 -54.5 44.499s-16.666 46.5 -9.99902 78.5c14.667 65.333 51 109 109 131c-38 26 -52 62 -42 108c10 46.667 32.333 81.834 67 105.501
s78.334 35.5 131.001 35.5c54 0 98 -9.66699 132 -29c8.66699 -4.66699 11.667 -12.334 9 -23.001zM358.998 368.001c5.33301 25.333 -6.66797 46.001 -36.001 62.001c-20 6.66699 -38.333 10 -55 10c-49.333 0 -79.333 -23.333 -90 -70
c-2 -9.33301 -1.66699 -17.833 1 -25.5s5.83398 -13.834 9.50098 -18.501s11 -9.83398 22 -15.501s19.167 -9.5 24.5 -11.5l30 -11c2 -0.666992 3.33301 -1.16699 4 -1.5s1.66699 -0.666016 3 -0.999023s2.66602 -0.833008 3.99902 -1.5
c44.667 4.66699 72.334 32.667 83.001 84z" />
    <glyph glyph-name="dieresis" unicode="&#xa8;" horiz-adv-x="465" 
d="M135 667c4 18 13.1699 33.334 27.5029 46.001s29.166 19 44.499 19s27.166 -5.5 35.499 -16.5s10.5 -25.833 6.5 -44.5s-13 -33.834 -27 -45.501s-29 -17.5 -45 -17.5s-27.833 5.33301 -35.5 16s-9.83398 25 -6.50098 43zM297.003 667.001
c4 18 13.1699 33.334 27.5029 46.001s29.166 19 44.499 19s27.166 -5.5 35.499 -16.5s10.5 -25.833 6.5 -44.5s-13 -33.834 -27 -45.501s-29.333 -17.5 -46 -17.5c-15.333 0 -26.833 5.33301 -34.5 16s-9.83398 25 -6.50098 43z" />
    <glyph glyph-name="copyright" unicode="&#xa9;" horiz-adv-x="745" 
d="M369 -13c-109.333 0 -186 35.332 -230 105.999s-54.333 161.334 -31 272.001c23.333 110 72.333 199.5 147 268.5s166 103.5 274 103.5c108.667 0 185.167 -34.5 229.5 -103.5s54.833 -158.167 31.5 -267.5c-23.333 -112 -71.833 -203.167 -145.5 -273.5
s-165.5 -105.5 -275.5 -105.5zM720 369.999c20 94 11.5 169.167 -25.5 225.5s-96.167 84.5 -177.5 84.5c-82 0 -153.667 -28.333 -215 -85s-102 -132 -122 -226c-20.667 -97.333 -13 -175.833 23 -235.5s95.667 -89.5 179 -89.5c82.667 0 154.5 30 215.5 90
s101.833 138.667 122.5 236zM593 466.999c-24.667 20 -56.001 29.998 -94.001 29.998c-36.667 0 -67 -12.333 -91 -37s-40 -56 -48 -94c-7.33301 -36.667 -3.66602 -66 11.001 -88s42.334 -33 83.001 -33c34 0 71.667 9 113 27c4 1.33301 6.66699 1.33301 8 0
s1.33301 -4.33301 0 -9l-7 -33c-1.33301 -9.33301 -7 -16.666 -17 -21.999c-38.667 -18.667 -80.334 -28 -125.001 -28c-63.333 0 -106.5 16.333 -129.5 49s-28.5 76.667 -16.5 132c12.667 60.667 38.667 109.334 78 146.001s91 55 155 55c45.333 0 78.666 -10 99.999 -30
c6 -6 8 -13 6 -21l-7 -35c-0.666992 -4.66699 -3.16699 -8 -7.5 -10s-8.16602 -1.66699 -11.499 1z" />
    <glyph glyph-name="ordfeminine" unicode="&#xaa;" horiz-adv-x="404" 
d="M375 399c-31.333 0 -49.3311 13.666 -53.998 40.999c-28.667 -27.333 -64.334 -41 -107.001 -41c-35.333 0 -60.5 9.5 -75.5 28.5s-18.833 46.167 -11.5 81.5c16 78 91.333 117 226 117l3 15c4 18 1.83301 32.167 -6.5 42.5s-21.166 15.5 -38.499 15.5
c-44 0 -84 -8.66699 -120 -26c-2.66699 -2 -5.16699 -2.66699 -7.5 -2s-2.83301 4 -1.5 10l6 28c1.33301 6.66699 4.66602 11.334 9.99902 14.001c38.667 19.333 79.667 29 123 29c42 0 71.5 -9.16699 88.5 -27.5s20.167 -51.5 9.5 -99.5l-29 -138
c-4.66699 -20.667 0.333008 -31 15 -31c1.33301 0 8.66602 3 21.999 9c4 2 6.66699 2.16699 8 0.5s1.33301 -5.83398 0 -12.501l-6 -26c-1.33301 -7.33301 -6.66602 -13.666 -15.999 -18.999c-14.667 -6 -27.334 -9 -38.001 -9zM194.002 506.999
c-6.66699 -33.333 7 -50 41 -50c25.333 0 47 8.5 65 25.5s30.333 40.5 37 70.5l5 23c-88.667 0 -138 -23 -148 -69z" />
    <glyph glyph-name="guillemotleft" unicode="&#xab;" horiz-adv-x="710" 
d="M363 73c10 -8 13.668 -16.667 11.001 -26c-2 -13.333 -10 -20 -24 -20h-56c-11.333 0 -21 3.66699 -29 11l-192 178c-10 8.66699 -16 17 -18 25s-1.33301 20 2 36s7.66602 28 12.999 36s15 16.333 29 25l267 178c11.333 7.33301 23 11 35 11h56
c13.333 0 18.333 -6.66699 15 -20c-2 -10 -9.33301 -18.667 -22 -26l-311 -204zM633.001 73c10 -8 13.668 -16.667 11.001 -26c-2 -13.333 -10 -20 -24 -20h-56c-11.333 0 -21 3.66699 -29 11l-192 178c-10 8.66699 -16 17 -18 25s-1.33301 20 2 36s7.66602 28 12.999 36
s15 16.333 29 25l267 178c11.333 7.33301 23 11 35 11h56c13.333 0 18.333 -6.66699 15 -20c-2 -10 -9.33301 -18.667 -22 -26l-311 -204z" />
    <glyph glyph-name="logicalnot" unicode="&#xac;" horiz-adv-x="526" 
d="M133 439h379.001c8 0 14 -2.66699 18 -8s5.33301 -12 4 -20l-50 -236c-1.33301 -7.33301 -5.16602 -13.5 -11.499 -18.5s-12.833 -7.5 -19.5 -7.5h-49c-6.66699 0 -11.834 2.5 -15.501 7.5s-4.83398 11.167 -3.50098 18.5l35 166h-308c-19.333 0 -27 10 -23 30l9 40
c4 18.667 15.667 28 35 28z" />
    <glyph glyph-name="softhyphen" unicode="&#xad;" horiz-adv-x="395" 
d="M120 367h243.999c6.66699 0 10.5 -1.5 11.5 -4.5s0.833008 -7.16699 -0.5 -12.5l-12 -54c-1.33301 -7.33301 -3.16602 -12.166 -5.49902 -14.499s-6.83301 -3.5 -13.5 -3.5h-243c-6.66699 0 -11 1.16699 -13 3.5s-2.33301 7.16602 -1 14.499l12 54
c2.66699 11.333 9.66699 17 21 17z" />
    <glyph glyph-name="registered" unicode="&#xae;" horiz-adv-x="745" 
d="M369 -13c-109.333 0 -186 35.332 -230 105.999s-54.333 161.334 -31 272.001c23.333 110 72.333 199.5 147 268.5s166 103.5 274 103.5c108.667 0 185.167 -34.5 229.5 -103.5s54.833 -158.167 31.5 -267.5c-23.333 -112 -71.833 -203.167 -145.5 -273.5
s-165.5 -105.5 -275.5 -105.5zM720 369.999c20 94 11.5 169.167 -25.5 225.5s-96.167 84.5 -177.5 84.5c-82 0 -153.667 -28.333 -215 -85s-102 -132 -122 -226c-20.667 -97.333 -13 -175.833 23 -235.5s95.667 -89.5 179 -89.5c82.667 0 154.5 30 215.5 90
s101.833 138.667 122.5 236zM293 193.999l74.001 351c2 8 4.33301 13.333 7 16s7 4.66699 13 6h56c67.333 0 113.333 -7.66699 138 -23s32 -46.333 22 -93c-11.333 -57.333 -44.333 -94.333 -99 -111c18 -14.667 29.667 -48.334 35 -101.001c0.666992 -11.333 7 -17 19 -17
c4.66699 0 11 2 19 6c5.33301 2.66699 7 -0.666016 5 -9.99902l-6 -27c-4 -16.667 -19.667 -25 -47 -25c-31.333 0 -49.333 15 -54 45c-8.66699 78 -29.334 118.333 -62.001 121h-28l-29 -138c-2 -8.66699 -4.83301 -14.5 -8.5 -17.5s-9.5 -4.5 -17.5 -4.5h-20
c-8.66699 0 -14.167 1.5 -16.5 4.5s-2.5 8.83301 -0.5 17.5zM395.001 378.999l26.999 -0.000976562c34 0 59.5 5.5 76.5 16.5s28.167 29.5 33.5 55.5c5.33301 24.667 2.33301 42.334 -9 53.001s-31.666 16 -60.999 16h-37z" />
    <glyph glyph-name="macron" unicode="&#xaf;" horiz-adv-x="284" 
d="M371 637h-224.999c-15.333 0 -19.333 18 -12 54c3.33301 16.667 13 25 29 25h216c9.33301 0 14.666 -4.66699 15.999 -14s0 -21.333 -4 -36c-4 -19.333 -10.667 -29 -20 -29z" />
    <glyph glyph-name="degree" unicode="&#xb0;" horiz-adv-x="365" 
d="M251 431c-41.333 0 -71.667 14.999 -91 44.999s-24.333 68 -15 114c9.33301 45.333 30.166 82.833 62.499 112.5s69.5 44.5 111.5 44.5c42.667 0 73.834 -14.667 93.501 -44s24.5 -66.666 14.5 -111.999c-9.33301 -46.667 -30.5 -85 -63.5 -115s-70.5 -45 -112.5 -45z
M367.999 589.999c7.33301 32 5.66602 57.833 -5.00098 77.5s-28.667 29.5 -54 29.5s-47.666 -9.83301 -66.999 -29.5s-32.666 -45.5 -39.999 -77.5c-7.33301 -32.667 -5.33301 -59.167 6 -79.5s29.666 -30.5 54.999 -30.5c24.667 0 46.5 10.167 65.5 30.5
s32.167 46.833 39.5 79.5z" />
    <glyph glyph-name="plusminus" unicode="&#xb1;" horiz-adv-x="452" 
d="M335 505l-28.001 -132.001h125c20 0 26.667 -13 20 -39c-2 -11.333 -6 -19.666 -12 -24.999s-15.333 -8 -28 -8h-121l-30 -145c-5.33301 -22 -20.666 -33 -45.999 -33c-13.333 0 -21.5 4.5 -24.5 13.5s-2.16699 21.833 2.5 38.5l26 126h-120c-20 0 -27 13.333 -21 40
c2.66699 14 8.16699 22.833 16.5 26.5s21.833 5.5 40.5 5.5h100l29 136c4 21.333 19.333 32 46 32c11.333 0 19 -2.5 23 -7.5s4.66699 -14.5 2 -28.5zM355.999 -17.001h-338c-10 0 -14 5 -12 15l13 59c2 9.33301 7.66699 14 17 14h339c9.33301 0 13 -4.66699 11 -14l-13 -59
c-2 -10 -7.66699 -15 -17 -15z" />
    <glyph glyph-name="twosuperior" unicode="&#xb2;" horiz-adv-x="298" 
d="M316 710c9.33301 39.333 -5.66504 59 -44.998 59c-33.333 0 -68.333 -7.66699 -105 -23c-8.66699 -2.66699 -12.334 1 -11.001 11l6 26c1.33301 6.66699 5 11.667 11 15c36 16 75 24 117 24c40.667 0 69.5 -10.167 86.5 -30.5s22.167 -46.166 15.5 -77.499
c-8.66699 -38.667 -40 -82.334 -94 -131.001l-125 -114h154c10.667 0 14.667 -4.33301 12 -13l-4 -23c-2.66699 -8.66699 -8.33398 -13 -17.001 -13h-226c-8 0 -10.667 4.33301 -8 13l4 20c2.66699 11.333 11 23 25 35l149 135c30.667 27.333 49 56.333 55 87z" />
    <glyph glyph-name="threesuperior" unicode="&#xb3;" horiz-adv-x="296" 
d="M187 471c49.333 0 78.335 21 87.002 63c5.33301 22.667 2.66602 39.334 -8.00098 50.001s-25 16 -43 16h-17c-4.66699 0 -7.33398 0.5 -8.00098 1.5s-0.666992 3.83301 0 8.5l8 38c1.33301 6 5.33301 9 12 9h17c34.667 0 55.667 19 63 57c8 36.667 -4.33301 55 -37 55
c-22 0 -54 -7 -96 -21c-1.33301 -1.33301 -2.83301 -1.5 -4.5 -0.5s-2.16699 3.5 -1.5 7.5l6 30c1.33301 6 4.33301 10.667 9 14c33.333 16 67.333 24 102 24c36 0 62.167 -9.33301 78.5 -28s20.833 -44.334 13.5 -77.001c-6 -28 -16.5 -49.167 -31.5 -63.5
s-30.167 -22.5 -45.5 -24.5c23.333 -2.66699 40.833 -12.167 52.5 -28.5s14.167 -39.833 7.5 -70.5c-8 -38.667 -26.833 -68 -56.5 -88s-65.834 -30 -108.501 -30c-48 0 -82 5.66699 -102 17c-3.33301 2.66699 -4.66602 6.66699 -3.99902 12l8 37c2 6 4.33301 9 7 9
c4 0 8.66699 -1.33301 14 -4c24 -8.66699 50 -13 78 -13z" />
    <glyph glyph-name="acute" unicode="&#xb4;" horiz-adv-x="250" 
d="M150 641l-4 21c-2 11.333 1.33301 19.333 10 24l169 83c13.333 6 21.333 3.66699 24 -7l8 -41c2 -14 -3 -23 -15 -27l-174 -60c-10.667 -3.33301 -16.667 -1 -18 7z" />
    <glyph glyph-name="mu" unicode="&#xb5;" horiz-adv-x="551" 
d="M447 123c-6.66699 -29.333 -1 -44 17 -44c6 0 12.5 0.833008 19.5 2.5s11.167 2.5 12.5 2.5c4.66699 1.33301 7.66699 1.33301 9 0s1.33301 -4.33301 0 -9l-10 -50c-2 -10 -7.66699 -17 -17 -21c-16 -6 -38 -9 -66 -9c-47.333 0 -71.666 21 -72.999 63
c-42 -46.667 -100.333 -70 -175 -70c-21.333 0 -39 2.33301 -53 7l-43 -204c-1.33301 -8 -5 -12 -11 -12h-78c-6 0 -8 3.33301 -6 10l76 362l74 352c3.33301 15.333 12 23 26 23h55c8 0 13 -1.66699 15 -5s2 -9.33301 0 -18l-70 -330c-14 -68.667 7 -103 63 -103
c41.333 0 76.166 16.333 104.499 49s48.833 79 61.5 139l52 245c3.33301 15.333 12.333 23 27 23h53c8.66699 0 14.167 -1.66699 16.5 -5s2.5 -9.33301 0.5 -18z" />
    <glyph glyph-name="paragraph" unicode="&#xb6;" horiz-adv-x="468" 
d="M145 -84l94 441.997c-44.667 0.666992 -78.5 16.834 -101.5 48.501s-28.833 73.834 -17.5 126.501c11.333 54.667 35.5 99.667 72.5 135s78.167 53.333 123.5 54h203c14.667 0 20.334 -8 17.001 -24l-166 -782c-1.33301 -4.66699 -2.5 -8.16699 -3.5 -10.5
s-3 -4.16602 -6 -5.49902s-7.16699 -2 -12.5 -2h-40c-7.33301 0 -12 1.16699 -14 3.5s-2.33301 6.83301 -1 13.5l157 735h-72l-156 -734c-1.33301 -5.33301 -2.33301 -8.83301 -3 -10.5s-2.33398 -3.33398 -5.00098 -5.00098s-6.66699 -2.5 -12 -2.5h-44
c-8 0 -12.667 1.33301 -14 4s-1 7.33398 1 14.001z" />
    <glyph glyph-name="periodcentered" unicode="&#xb7;" horiz-adv-x="237" 
d="M81 270c4.66699 20 14.834 36.833 30.501 50.5s31.834 20.5 48.501 20.5s29.667 -6 39 -18s11.666 -27.667 6.99902 -47c-4.66699 -20.667 -14.667 -37.334 -30 -50.001s-32 -19 -50 -19c-16.667 0 -29.334 5.83301 -38.001 17.5s-11 26.834 -7 45.501z" />
    <glyph glyph-name="cedilla" unicode="&#xb8;" horiz-adv-x="262" 
d="M10 -72l48.999 80.999l50 -1l-26 -44c30 2.66699 52.5 -2.16602 67.5 -14.499s19.167 -33.5 12.5 -63.5c-12.667 -60.667 -59.667 -91 -141 -91c-22.667 0 -42.667 1.33301 -60 4c-4 0 -5 4.33301 -3 13l5 26c0.666992 5.33301 1.66699 8.5 3 9.5s3.33301 1.5 6 1.5
c18.667 -2.66699 36.334 -4 53.001 -4c40 0 62.667 13.333 68 40c5.33301 23.333 -6 35 -34 35c-6 0 -14.167 -0.666992 -24.5 -2s-16.833 -2 -19.5 -2c-10 0 -12 4 -6 12z" />
    <glyph glyph-name="onesuperior" unicode="&#xb9;" horiz-adv-x="176" 
d="M187 736c1.33301 6 1.5 9.50195 0.5 10.502s-4.5 0.833008 -10.5 -0.5l-37 -11c-4 -0.666992 -6.83301 -0.333984 -8.5 0.999023s-2.16699 3.66602 -1.5 6.99902l8 35c0.666992 5.33301 5.33398 9.33301 14.001 12l87 26c8.66699 2.66699 17 4 25 4
c7.33301 0 9.66602 -5.33301 6.99902 -16l-77 -362c-1.33301 -8.66699 -3.83301 -14.5 -7.5 -17.5s-9.5 -4.5 -17.5 -4.5h-27c-8.66699 0 -14.167 1.5 -16.5 4.5s-2.83301 8.83301 -1.5 17.5z" />
    <glyph glyph-name="ordmasculine" unicode="&#xba;" horiz-adv-x="370" 
d="M139 539c10.667 52.667 31.4971 96.334 62.4971 131.001s70.5 52 118.5 52c46.667 0 77.834 -17.333 93.501 -52s18.167 -78.334 7.5 -131.001c-11.333 -52.667 -32.166 -96.334 -62.499 -131.001s-69.166 -52 -116.499 -52c-48 0 -80 17.333 -96 52
s-18.333 78.334 -7 131.001zM306.997 659c-25.333 0 -46.666 -10.833 -63.999 -32.5s-30 -51.167 -38 -88.5c-8 -36 -7.83301 -64.833 0.5 -86.5s25.166 -32.5 50.499 -32.5c48 0 80.667 39.667 98 119c16.667 80.667 1 121 -47 121z" />
    <glyph glyph-name="guillemotright" unicode="&#xbb;" horiz-adv-x="710" 
d="M41 73l309.997 203.998l-223 204c-10 8.66699 -14 17.334 -12 26.001c3.33301 13.333 12 20 26 20h56c10.667 0 20 -3.66699 28 -11l192 -178c10.667 -8.66699 16.834 -17 18.501 -25s0.833984 -20 -2.49902 -36c-2.66699 -16 -6.83398 -27.833 -12.501 -35.5
s-15.5 -16.167 -29.5 -25.5l-267 -178c-11.333 -7.33301 -22.666 -11 -33.999 -11h-56c-13.333 0 -19 6.66699 -17 20c2.66699 8.66699 10.334 17.334 23.001 26.001zM310.997 72.998l309.997 203.998l-223 204c-10 8.66699 -14 17.334 -12 26.001
c3.33301 13.333 12 20 26 20h56c10.667 0 20 -3.66699 28 -11l192 -178c10.667 -8.66699 16.834 -17 18.501 -25s0.833984 -20 -2.49902 -36c-2.66699 -16 -6.83398 -27.833 -12.501 -35.5s-15.5 -16.167 -29.5 -25.5l-267 -178c-11.333 -7.33301 -22.666 -11 -33.999 -11
h-56c-13.333 0 -19 6.66699 -17 20c2.66699 8.66699 10.334 17.334 23.001 26.001z" />
    <glyph glyph-name="onequarter" unicode="&#xbc;" horiz-adv-x="591" 
d="M36 65l553 666.999c10 12.667 19.667 18 29 16c8.66699 0 16.834 -3.16699 24.501 -9.5s10.5 -14.166 8.5 -23.499c0.666992 -8 -4.33301 -18.667 -15 -32l-552 -665c-10.667 -14 -21.667 -19.333 -33 -16c-8.66699 1.33301 -16 5 -22 11s-8 14.333 -6 25
c-0.666992 5.33301 3.66602 14.333 12.999 27zM279 131.999l223.998 257.001c6 6.66699 12 10 18 10h53c12.667 0 12.667 -6.33301 0 -19l-215 -245h76l14 64c1.33301 5.33301 4 8 8 8h57c4.66699 0 6.33398 -2.66699 5.00098 -8l-14 -64h32
c3.33301 0 5.83301 -0.166992 7.5 -0.5s2.83398 -1.33301 3.50098 -3s0.666992 -3.83398 0 -6.50098l-6 -28c-1.33301 -7.33301 -6.33301 -11 -15 -11h-32l-16 -76c-1.33301 -5.33301 -4.33301 -8 -9 -8h-56c-4.66699 0 -6.33398 2.66699 -5.00098 8l16 76h-145
c-6 0 -9.5 0.666992 -10.5 2s-1.16699 4.66602 -0.5 9.99902l5 23c0.666992 4.66699 2.33398 8.33398 5.00098 11.001zM221.998 736c1.33301 6 1.5 9.50195 0.5 10.502s-4.5 0.833008 -10.5 -0.5l-37 -11c-4 -0.666992 -6.83301 -0.333984 -8.5 0.999023
s-2.16699 3.66602 -1.5 6.99902l8 35c0.666992 5.33301 5.33398 9.33301 14.001 12l87 26c8.66699 2.66699 17 4 25 4c7.33301 0 9.66602 -5.33301 6.99902 -16l-77 -362c-1.33301 -8.66699 -3.83301 -14.5 -7.5 -17.5s-9.5 -4.5 -17.5 -4.5h-27
c-8.66699 0 -14.167 1.5 -16.5 4.5s-2.83301 8.83301 -1.5 17.5z" />
    <glyph glyph-name="onehalf" unicode="&#xbd;" horiz-adv-x="645" 
d="M222 736c1.33301 6 1.5 9.50195 0.5 10.502s-4.5 0.833008 -10.5 -0.5l-37 -11c-4 -0.666992 -6.83301 -0.333984 -8.5 0.999023s-2.16699 3.66602 -1.5 6.99902l8 35c0.666992 5.33301 5.33398 9.33301 14.001 12l87 26c8.66699 2.66699 17 4 25 4
c7.33301 0 9.66602 -5.33301 6.99902 -16l-77 -362c-1.33301 -8.66699 -3.83301 -14.5 -7.5 -17.5s-9.5 -4.5 -17.5 -4.5h-27c-8.66699 0 -14.167 1.5 -16.5 4.5s-2.83301 8.83301 -1.5 17.5zM563 290.002c8 39.333 -6.99805 58.999 -44.998 58.999
c-33.333 0 -68.333 -7.66699 -105 -23c-4.66699 -1.33301 -7.83398 -1.16602 -9.50098 0.500977s-2.16699 5.16699 -1.5 10.5l6 26c1.33301 7.33301 5 12.333 11 15c34.667 16 73.667 24 117 24c40.667 0 69.5 -10.167 86.5 -30.5s22.167 -46.166 15.5 -77.499
c-8.66699 -38.667 -40 -82.334 -94 -131.001l-125 -114h154c10 0 14 -4.33301 12 -13l-5 -23c-2 -8.66699 -7.33301 -13 -16 -13h-226c-7.33301 0 -10.333 4.33301 -9 13l5 20c1.33301 10 9.66602 21.667 24.999 35l149 135c30.667 27.333 49 56.333 55 87zM36.002 65.001
l553 666.999c10 12.667 19.667 18 29 16c8.66699 0 16.834 -3.16699 24.501 -9.5s10.5 -14.166 8.5 -23.499c0.666992 -8 -4.33301 -18.667 -15 -32l-552 -665c-10.667 -14 -21.667 -19.333 -33 -16c-8.66699 1.33301 -16 5 -22 11s-8 14.333 -6 25
c-0.666992 5.33301 3.66602 14.333 12.999 27z" />
    <glyph glyph-name="threequarters" unicode="&#xbe;" horiz-adv-x="662" 
d="M94 65l553 666.999c10 12.667 19.667 18 29 16c8.66699 0 16.834 -3.16699 24.501 -9.5s10.5 -14.166 8.5 -23.499c0.666992 -8 -4.33301 -18.667 -15 -32l-552 -665c-10.667 -14 -21.667 -19.333 -33 -16c-8.66699 1.33301 -16 5 -22 11s-8 14.333 -6 25
c-0.666992 5.33301 3.66602 14.333 12.999 27zM512 132.999l13 64.002c1.33301 5.33301 4.33301 8 9 8h57c4 0 5.33301 -2.66699 4 -8l-13 -64h32c3.33301 0 5.83301 -0.166992 7.5 -0.5s2.83398 -1.33301 3.50098 -3s0.666992 -3.83398 0 -6.50098l-6 -28
c-2 -7.33301 -7.33301 -11 -16 -11h-32l-16 -76c-1.33301 -5.33301 -4 -8 -8 -8h-56c-5.33301 0 -7.33301 2.66699 -6 8l16 76h-145c-5.33301 0 -8.5 0.666992 -9.5 2s-1.16699 4.66602 -0.5 9.99902l5 23c1.33301 6 2.66602 9.66699 3.99902 11l225 257
c4.66699 6.66699 10.667 10 18 10h53c12.667 0 12.667 -6.33301 0 -19l-215 -245h76zM198 471.001c48.667 0 77.6689 21 87.002 63c5.33301 22.667 2.66602 39.334 -8.00098 50.001s-25 16 -43 16h-17c-4.66699 0 -7.33398 0.5 -8.00098 1.5s-0.666992 3.83301 0 8.5l8 38
c1.33301 6 5.33301 9 12 9h17c34.667 0 55.667 19 63 57c8 36.667 -4.33301 55 -37 55c-22 0 -54 -7 -96 -21c-1.33301 -1.33301 -2.83301 -1.5 -4.5 -0.5s-2.16699 3.5 -1.5 7.5l6 30c1.33301 6 4.33301 10.667 9 14c33.333 16 67.333 24 102 24
c36 0 62.167 -9.33301 78.5 -28s20.833 -44.334 13.5 -77.001c-6 -28 -16.5 -49.167 -31.5 -63.5s-30.167 -22.5 -45.5 -24.5c23.333 -2.66699 40.833 -12.167 52.5 -28.5s14.167 -39.833 7.5 -70.5c-8 -38.667 -26.833 -68 -56.5 -88s-65.834 -30 -108.501 -30
c-48 0 -82 5.66699 -102 17c-3.33301 2.66699 -4.66602 6.66699 -3.99902 12l8 37c2 6 4.33301 9 7 9c4 0 8.66699 -1.33301 14 -4c24 -8.66699 50 -13 78 -13z" />
    <glyph glyph-name="questiondown" unicode="&#xbf;" horiz-adv-x="463" 
d="M275 470c4.66699 20 14.833 36.333 30.5 49s32.5 19 50.5 19c17.333 0 30.833 -6 40.5 -18s12.167 -28 7.5 -48c-4 -20.667 -13.667 -37 -29 -49s-32.333 -18 -51 -18c-17.333 0 -30.833 5.83301 -40.5 17.5s-12.5 27.5 -8.5 47.5zM110.999 -14
c-7.33301 -33.333 -2.83105 -59.9961 13.502 -79.9961s44.166 -30 83.499 -30c54.667 0 113 13.667 175 41c7.33301 3.33301 12.333 3.66602 15 0.999023s3 -8.66699 1 -18l-9 -44c-3.33301 -14.667 -10 -24.334 -20 -29.001c-64 -26.667 -128.667 -40 -194 -40
c-70.667 0 -120.334 16.5 -149.001 49.5s-36.667 80.5 -24 142.5c6.66699 31.333 19.167 60.666 37.5 87.999s38.666 50.333 60.999 69l66 53.5c21.667 17 40.834 34.833 57.501 53.5s27 37.667 31 57l6 25c2.66699 12.667 11.667 19 27 19h49c16 0 21.667 -10.667 17 -32
l-5 -25c-6 -27.333 -21 -54.333 -45 -81s-48.833 -49.334 -74.5 -68.001s-50.5 -41.667 -74.5 -69s-39 -55 -45 -83z" />
    <glyph glyph-name="Agrave" unicode="&#xc0;" horiz-adv-x="601" 
d="M462 17l-13.0029 173h-260l-90 -173c-6.66699 -11.333 -16.334 -17 -29.001 -17h-61c-14.667 -0 -17.667 8.33301 -9 25l358 678c6.66699 12.667 15.334 19 26.001 19h92c6.66699 0 11.5 -1.16699 14.5 -3.5s4.83301 -7.5 5.5 -15.5l70 -678
c0.666992 -10 -0.666016 -16.667 -3.99902 -20s-8.66602 -5 -15.999 -5h-62c-13.333 0 -20.666 5.66699 -21.999 17zM414.997 629l-183 -356h211zM502.997 821l-9.00098 -19.001c-5.33301 -8 -14 -9.66699 -26 -5l-164 50c-10 3.33301 -11 11.333 -3 24l27 47
c6.66699 10.667 15.334 12.667 26.001 6l145 -78c6 -3.33301 9.16699 -6.66602 9.5 -9.99902s-1.5 -8.33301 -5.5 -15z" />
    <glyph glyph-name="Aacute" unicode="&#xc1;" horiz-adv-x="601" 
d="M462 17l-13.0029 173h-260l-90 -173c-6.66699 -11.333 -16.334 -17 -29.001 -17h-61c-14.667 -0 -17.667 8.33301 -9 25l358 678c6.66699 12.667 15.334 19 26.001 19h92c6.66699 0 11.5 -1.16699 14.5 -3.5s4.83301 -7.5 5.5 -15.5l70 -678
c0.666992 -10 -0.666016 -16.667 -3.99902 -20s-8.66602 -5 -15.999 -5h-62c-13.333 0 -20.666 5.66699 -21.999 17zM414.997 629l-183 -356h211zM404.997 803l-2.99902 21.001c-2.66699 11.333 0.666016 19.333 9.99902 24l168 83c14.667 6 23 3.66699 25 -7l7 -41
c1.33301 -8 1.16602 -13.833 -0.500977 -17.5s-6.5 -6.83398 -14.5 -9.50098l-173 -60c-11.333 -4 -17.666 -1.66699 -18.999 7z" />
    <glyph glyph-name="Acircumflex" unicode="&#xc2;" horiz-adv-x="601" 
d="M462 17l-13.0029 173h-260l-90 -173c-6.66699 -11.333 -16.334 -17 -29.001 -17h-61c-14.667 -0 -17.667 8.33301 -9 25l358 678c6.66699 12.667 15.334 19 26.001 19h92c6.66699 0 11.5 -1.16699 14.5 -3.5s4.83301 -7.5 5.5 -15.5l70 -678
c0.666992 -10 -0.666016 -16.667 -3.99902 -20s-8.66602 -5 -15.999 -5h-62c-13.333 0 -20.666 5.66699 -21.999 17zM414.997 629l-183 -356h211zM499.997 802l-41.001 59.001l-67 -59c-10.667 -8 -22.667 -12 -36 -12h-32c-6 0 -10.167 1 -12.5 3
s-2.66602 4.66699 -0.999023 8s5.16699 7 10.5 11l112 97c10 9.33301 22.667 14 38 14c10 0 16.833 -0.833008 20.5 -2.5s8.16699 -5.83398 13.5 -12.501l70 -96c4.66699 -6.66699 5.66699 -12 3 -16s-8 -6 -16 -6h-35c-11.333 0 -20.333 4 -27 12z" />
    <glyph glyph-name="Atilde" unicode="&#xc3;" horiz-adv-x="601" 
d="M462 17l-13.0029 173h-260l-90 -173c-6.66699 -11.333 -16.334 -17 -29.001 -17h-61c-14.667 -0 -17.667 8.33301 -9 25l358 678c6.66699 12.667 15.334 19 26.001 19h92c6.66699 0 11.5 -1.16699 14.5 -3.5s4.83301 -7.5 5.5 -15.5l70 -678
c0.666992 -10 -0.666016 -16.667 -3.99902 -20s-8.66602 -5 -15.999 -5h-62c-13.333 0 -20.666 5.66699 -21.999 17zM414.997 629l-183 -356h211zM503.997 861c17.333 0 28 8.99902 32 26.999c3.33301 6 8 9 14 9h34c7.33301 0 10 -3.66699 8 -11
c-6.66699 -28.667 -18.5 -51 -35.5 -67s-37.833 -24 -62.5 -24c-26.667 0 -43.667 8 -51 24c-6.66699 10.667 -15 16 -25 16c-15.333 0 -26.666 -9 -33.999 -27c-2.66699 -6 -7.33398 -9 -14.001 -9h-32c-6 0 -8.33301 4 -7 12c6 28.667 17.333 50.834 34 66.501
s37 23.5 61 23.5c25.333 0 42 -8.66699 50 -26c6 -9.33301 15.333 -14 28 -14z" />
    <glyph glyph-name="Adieresis" unicode="&#xc4;" horiz-adv-x="601" 
d="M462 17l-13.0029 173h-260l-90 -173c-6.66699 -11.333 -16.334 -17 -29.001 -17h-61c-14.667 -0 -17.667 8.33301 -9 25l358 678c6.66699 12.667 15.334 19 26.001 19h92c6.66699 0 11.5 -1.16699 14.5 -3.5s4.83301 -7.5 5.5 -15.5l70 -678
c0.666992 -10 -0.666016 -16.667 -3.99902 -20s-8.66602 -5 -15.999 -5h-62c-13.333 0 -20.666 5.66699 -21.999 17zM414.997 629l-183 -356h211zM320.997 853c4 18 13.1689 33.334 27.502 46.001s29.166 19 44.499 19s27.166 -5.5 35.499 -16.5s10.5 -25.833 6.5 -44.5
s-13.167 -33.834 -27.5 -45.501s-29.5 -17.5 -45.5 -17.5s-27.833 5.33301 -35.5 16s-9.5 25 -5.5 43zM482.999 853.001c4 18 13.1689 33.334 27.502 46.001s29.166 19 44.499 19s27.166 -5.5 35.499 -16.5s10.5 -25.833 6.5 -44.5s-13.167 -33.834 -27.5 -45.501
s-29.833 -17.5 -46.5 -17.5c-15.333 0 -26.833 5.33301 -34.5 16s-9.5 25 -5.5 43z" />
    <glyph glyph-name="Aring" unicode="&#xc5;" horiz-adv-x="601" 
d="M462 17l-13.0029 173h-260l-90 -173c-6.66699 -11.333 -16.334 -17 -29.001 -17h-61c-14.667 -0 -17.667 8.33301 -9 25l358 678c6.66699 12.667 15.334 19 26.001 19h92c6.66699 0 11.5 -1.16699 14.5 -3.5s4.83301 -7.5 5.5 -15.5l70 -678
c0.666992 -10 -0.666016 -16.667 -3.99902 -20s-8.66602 -5 -15.999 -5h-62c-13.333 0 -20.666 5.66699 -21.999 17zM414.997 629l-183 -356h211zM441.997 785c-32.667 0 -57.501 7.66699 -74.501 23s-22.833 35.333 -17.5 60c5.33301 25.333 19.666 45.5 42.999 60.5
s51.666 22.5 84.999 22.5c32.667 0 57.334 -7.5 74.001 -22.5s22.334 -35.167 17.001 -60.5c-5.33301 -24.667 -19.666 -44.667 -42.999 -60s-51.333 -23 -84 -23zM451.996 829c11.333 0 21.333 3.5 30 10.5s14.334 16.5 17.001 28.5s1.16699 21.667 -4.5 29
s-14.167 11 -25.5 11s-21.666 -3.66699 -30.999 -11s-15.333 -17 -18 -29s-0.833984 -21.5 5.49902 -28.5s15.166 -10.5 26.499 -10.5z" />
    <glyph glyph-name="AE" unicode="&#xc6;" horiz-adv-x="822" 
d="M545 412h223.998c8.66699 0 14 -1.66699 16 -5s2 -9.33301 0 -18l-8 -38c-2 -9.33301 -4.66699 -15.5 -8 -18.5s-9.33301 -4.5 -18 -4.5h-224l-52 -244h282c8.66699 0 14 -1.5 16 -4.5s2 -9.16699 0 -18.5l-8 -39c-1.33301 -8.66699 -3.66602 -14.5 -6.99902 -17.5
s-9.33301 -4.5 -18 -4.5h-362c-8.66699 0 -14.334 1.5 -17.001 4.5s-3 8.83301 -1 17.5l46 214h-198l-120 -217c-6.66699 -12.667 -15.667 -19 -27 -19h-63c-15.333 0 -19.666 6 -12.999 18l375 671c8.66699 16 15.334 25.5 20.001 28.5s14 4.5 28 4.5h473
c8.66699 0 14 -1.5 16 -4.5s2 -8.83301 0 -17.5l-8 -39c-2 -9.33301 -4.66699 -15.5 -8 -18.5s-9.33301 -4.5 -18 -4.5h-270zM420.998 308l72 340h-42c-10 0 -18.667 -6.33301 -26 -19l-178 -321h174z" />
    <glyph glyph-name="Ccedilla" unicode="&#xc7;" horiz-adv-x="588" 
d="M228 353c-39.333 -183.333 14.002 -274.999 160.002 -274.999c54 0 109.333 11.333 166 34c8 4 14 5.5 18 4.5s5 -5.5 3 -13.5l-11 -53c-2 -11.333 -8.33301 -19.666 -19 -24.999c-37.333 -20.667 -91 -32.334 -161 -35.001l-15 -27
c30 2.66699 52.5 -2.16602 67.5 -14.499s19.167 -33.5 12.5 -63.5c-12.667 -60.667 -59.667 -91 -141 -91c-22 0 -42.333 1.33301 -61 4c-4.66699 0 -6 4.33301 -4 13l6 26c0.666992 5.33301 1.66699 8.5 3 9.5s3.66602 1.5 6.99902 1.5c18.667 -2.66699 36 -4 52 -4
c40 0 63 13.333 69 40c4.66699 23.333 -6.66602 35 -33.999 35c-6 0 -14.333 -0.666992 -25 -2s-17.334 -2 -20.001 -2c-9.33301 0 -11 4 -5 12l38 63c-98 6 -164 41.833 -198 107.5s-38.667 155.5 -14 269.5c23.333 112.667 68.166 201.667 134.499 267
s151.833 98 256.5 98c35.333 0 69.333 -3.5 102 -10.5s55.334 -15.833 68.001 -26.5c6.66699 -4.66699 8.66699 -13.334 6 -26.001l-11 -51c-2.66699 -12.667 -9.33398 -16 -20.001 -10c-1.33301 0.666992 -7 3 -17 7s-18.5 7.16699 -25.5 9.5s-16.5 5.16602 -28.5 8.49902
s-24.5 5.83301 -37.5 7.5s-26.167 2.5 -39.5 2.5c-77.333 0 -139 -26.333 -185 -79s-78.333 -123 -97 -211z" />
    <glyph glyph-name="Egrave" unicode="&#xc8;" horiz-adv-x="517" 
d="M67 0c-8 0 -13.3311 1.5 -15.998 4.5s-3 8.83301 -1 17.5l144 678c2 8.66699 4.83301 14.5 8.5 17.5s9.5 4.5 17.5 4.5h349c8.66699 0 14 -1.5 16 -4.5s2 -8.83301 0 -17.5l-8 -39c-2 -9.33301 -4.66699 -15.5 -8 -18.5s-9.33301 -4.5 -18 -4.5h-269l-48 -226h223
c8.66699 0 14.167 -1.5 16.5 -4.5s2.5 -9.16699 0.5 -18.5l-8 -38c-2 -9.33301 -4.83301 -15.5 -8.5 -18.5s-9.83398 -4.5 -18.501 -4.5h-223l-52 -244h281c8.66699 0 14.167 -1.5 16.5 -4.5s2.5 -9.16699 0.5 -18.5l-8 -39c-1.33301 -8.66699 -3.83301 -14.5 -7.5 -17.5
s-9.83398 -4.5 -18.501 -4.5h-361zM475.002 821l-9.00098 -19.001c-5.33301 -8 -14 -9.66699 -26 -5l-164 50c-10 3.33301 -11 11.333 -3 24l27 47c6.66699 10.667 15.334 12.667 26.001 6l145 -78c6 -3.33301 9.16699 -6.66602 9.5 -9.99902s-1.5 -8.33301 -5.5 -15z" />
    <glyph glyph-name="Eacute" unicode="&#xc9;" horiz-adv-x="517" 
d="M67 0c-8 0 -13.3311 1.5 -15.998 4.5s-3 8.83301 -1 17.5l144 678c2 8.66699 4.83301 14.5 8.5 17.5s9.5 4.5 17.5 4.5h349c8.66699 0 14 -1.5 16 -4.5s2 -8.83301 0 -17.5l-8 -39c-2 -9.33301 -4.66699 -15.5 -8 -18.5s-9.33301 -4.5 -18 -4.5h-269l-48 -226h223
c8.66699 0 14.167 -1.5 16.5 -4.5s2.5 -9.16699 0.5 -18.5l-8 -38c-2 -9.33301 -4.83301 -15.5 -8.5 -18.5s-9.83398 -4.5 -18.501 -4.5h-223l-52 -244h281c8.66699 0 14.167 -1.5 16.5 -4.5s2.5 -9.16699 0.5 -18.5l-8 -39c-1.33301 -8.66699 -3.83301 -14.5 -7.5 -17.5
s-9.83398 -4.5 -18.501 -4.5h-361zM377.002 803l-2.99902 21.001c-2.66699 11.333 0.666016 19.333 9.99902 24l168 83c14.667 6 23 3.66699 25 -7l7 -41c1.33301 -8 1.16602 -13.833 -0.500977 -17.5s-6.5 -6.83398 -14.5 -9.50098l-173 -60
c-11.333 -4 -17.666 -1.66699 -18.999 7z" />
    <glyph glyph-name="Ecircumflex" unicode="&#xca;" horiz-adv-x="517" 
d="M67 0c-8 0 -13.3311 1.5 -15.998 4.5s-3 8.83301 -1 17.5l144 678c2 8.66699 4.83301 14.5 8.5 17.5s9.5 4.5 17.5 4.5h349c8.66699 0 14 -1.5 16 -4.5s2 -8.83301 0 -17.5l-8 -39c-2 -9.33301 -4.66699 -15.5 -8 -18.5s-9.33301 -4.5 -18 -4.5h-269l-48 -226h223
c8.66699 0 14.167 -1.5 16.5 -4.5s2.5 -9.16699 0.5 -18.5l-8 -38c-2 -9.33301 -4.83301 -15.5 -8.5 -18.5s-9.83398 -4.5 -18.501 -4.5h-223l-52 -244h281c8.66699 0 14.167 -1.5 16.5 -4.5s2.5 -9.16699 0.5 -18.5l-8 -39c-1.33301 -8.66699 -3.83301 -14.5 -7.5 -17.5
s-9.83398 -4.5 -18.501 -4.5h-361zM472.002 802l-41.001 59.001l-67 -59c-10.667 -8 -22.667 -12 -36 -12h-32c-6 0 -10.167 1 -12.5 3s-2.66602 4.66699 -0.999023 8s5.16699 7 10.5 11l112 97c10 9.33301 22.667 14 38 14c10 0 16.833 -0.833008 20.5 -2.5
s8.16699 -5.83398 13.5 -12.501l70 -96c4.66699 -6.66699 5.66699 -12 3 -16s-8 -6 -16 -6h-35c-11.333 0 -20.333 4 -27 12z" />
    <glyph glyph-name="Edieresis" unicode="&#xcb;" horiz-adv-x="517" 
d="M67 0c-8 0 -13.3311 1.5 -15.998 4.5s-3 8.83301 -1 17.5l144 678c2 8.66699 4.83301 14.5 8.5 17.5s9.5 4.5 17.5 4.5h349c8.66699 0 14 -1.5 16 -4.5s2 -8.83301 0 -17.5l-8 -39c-2 -9.33301 -4.66699 -15.5 -8 -18.5s-9.33301 -4.5 -18 -4.5h-269l-48 -226h223
c8.66699 0 14.167 -1.5 16.5 -4.5s2.5 -9.16699 0.5 -18.5l-8 -38c-2 -9.33301 -4.83301 -15.5 -8.5 -18.5s-9.83398 -4.5 -18.501 -4.5h-223l-52 -244h281c8.66699 0 14.167 -1.5 16.5 -4.5s2.5 -9.16699 0.5 -18.5l-8 -39c-1.33301 -8.66699 -3.83301 -14.5 -7.5 -17.5
s-9.83398 -4.5 -18.501 -4.5h-361zM293.002 853c4 18 13.1689 33.334 27.502 46.001s29.166 19 44.499 19s27.166 -5.5 35.499 -16.5s10.5 -25.833 6.5 -44.5s-13.167 -33.834 -27.5 -45.501s-29.5 -17.5 -45.5 -17.5s-27.833 5.33301 -35.5 16s-9.5 25 -5.5 43z
M455.004 853.001c4 18 13.1689 33.334 27.502 46.001s29.166 19 44.499 19s27.166 -5.5 35.499 -16.5s10.5 -25.833 6.5 -44.5s-13.167 -33.834 -27.5 -45.501s-29.833 -17.5 -46.5 -17.5c-15.333 0 -26.833 5.33301 -34.5 16s-9.5 25 -5.5 43z" />
    <glyph glyph-name="Igrave" unicode="&#xcc;" horiz-adv-x="259" 
d="M50 22l144 678c2 8.66699 4.83301 14.5 8.5 17.5s9.5 4.5 17.5 4.5h59c8.66699 0 14 -1.5 16 -4.5s2 -8.83301 0 -17.5l-144 -678c-2 -9.33301 -4.5 -15.333 -7.5 -18s-8.83301 -4 -17.5 -4h-59c-8 0 -13.333 1.5 -16 4.5s-3 8.83301 -1 17.5zM348 816l-9.00098 -19.001
c-5.33301 -8 -14 -9.66699 -26 -5l-165 50c-9.33301 3.33301 -10 11.333 -2 24l27 47c6.66699 10.667 15.334 12.667 26.001 6l145 -78c6 -3.33301 9.16699 -6.66602 9.5 -9.99902s-1.5 -8.33301 -5.5 -15z" />
    <glyph glyph-name="Iacute" unicode="&#xcd;" horiz-adv-x="259" 
d="M50 22l144 678c2 8.66699 4.83301 14.5 8.5 17.5s9.5 4.5 17.5 4.5h59c8.66699 0 14 -1.5 16 -4.5s2 -8.83301 0 -17.5l-144 -678c-2 -9.33301 -4.5 -15.333 -7.5 -18s-8.83301 -4 -17.5 -4h-59c-8 0 -13.333 1.5 -16 4.5s-3 8.83301 -1 17.5zM224 803l-2.99805 21.001
c-2.66699 11.333 0.666016 19.333 9.99902 24l168 83c14.667 6 23 3.66699 25 -7l7 -41c1.33301 -8 1.16602 -13.833 -0.500977 -17.5s-6.5 -6.83398 -14.5 -9.50098l-173 -60c-10.667 -4 -17 -1.66699 -19 7z" />
    <glyph glyph-name="Icircumflex" unicode="&#xce;" horiz-adv-x="259" 
d="M49 22l144 678c2 8.66699 4.83301 14.5 8.5 17.5s9.5 4.5 17.5 4.5h60c8 0 13.167 -1.5 15.5 -4.5s2.5 -8.83301 0.5 -17.5l-144 -678c-2 -8.66699 -4.66699 -14.5 -8 -17.5s-9 -4.5 -17 -4.5h-60c-8 0 -13.333 1.5 -16 4.5s-3 8.83301 -1 17.5zM321 802l-41.001 59.001
l-67 -59c-10.667 -8 -22.667 -12 -36 -12h-32c-6 0 -10.167 1 -12.5 3s-2.66602 4.66699 -0.999023 8s5.16699 7 10.5 11l112 97c10 9.33301 22.667 14 38 14c10 0 16.833 -0.833008 20.5 -2.5s8.16699 -5.83398 13.5 -12.501l70 -96c4.66699 -6.66699 5.66699 -12 3 -16
s-8 -6 -16 -6h-35c-11.333 0 -20.333 4 -27 12z" />
    <glyph glyph-name="Idieresis" unicode="&#xcf;" horiz-adv-x="259" 
d="M50 22l144 678c2 8.66699 4.83301 14.5 8.5 17.5s9.5 4.5 17.5 4.5h59c8.66699 0 14 -1.5 16 -4.5s2 -8.83301 0 -17.5l-144 -678c-2 -9.33301 -4.5 -15.333 -7.5 -18s-8.83301 -4 -17.5 -4h-59c-8 0 -13.333 1.5 -16 4.5s-3 8.83301 -1 17.5zM141 853
c4 18 13.1689 33.334 27.502 46.001s29.166 19 44.499 19s27.166 -5.5 35.499 -16.5s10.5 -25.833 6.5 -44.5s-13.167 -33.834 -27.5 -45.501s-29.5 -17.5 -45.5 -17.5s-27.833 5.33301 -35.5 16s-9.5 25 -5.5 43zM303.002 853.001c4 18 13.1689 33.334 27.502 46.001
s29.166 19 44.499 19s27.166 -5.5 35.499 -16.5s10.5 -25.833 6.5 -44.5s-13.167 -33.834 -27.5 -45.501s-29.833 -17.5 -46.5 -17.5c-15.333 0 -26.833 5.33301 -34.5 16s-9.5 25 -5.5 43z" />
    <glyph glyph-name="Eth" unicode="&#xd0;" horiz-adv-x="665" 
d="M81 0c-8 0 -13.333 1.5 -16 4.5s-3 8.83301 -1 17.5l63 297h-69c-10 0 -14 5 -12 15l13 59c2 9.33301 7.66699 14 17 14h70l62 293c2 8.66699 4.83301 14.5 8.5 17.5s9.5 4.5 17.5 4.5h141c124 0 209.333 -30 256 -90s57.334 -150.667 32.001 -272
c-26 -122 -74.833 -212.5 -146.5 -271.5s-168.834 -88.5 -291.501 -88.5h-144zM178 84h63c89.333 0 159 21.5 209 64.5s85.333 113.5 106 211.5c21.333 99.333 15.5 170.5 -17.5 213.5s-94.167 64.5 -183.5 64.5h-59l-49 -231h168c9.33301 0 13 -4.66699 11 -14l-13 -59
c-2 -10 -7.66699 -15 -17 -15h-168z" />
    <glyph glyph-name="Ntilde" unicode="&#xd1;" horiz-adv-x="656" 
d="M528 0h-60.999c-10.667 0 -18.334 5 -23.001 15l-170 495c-10 28.667 -16 54 -18 76c-3.33301 -40 -7.33301 -69 -12 -87l-100 -477c-2 -8.66699 -4.66699 -14.5 -8 -17.5s-9 -4.5 -17 -4.5h-53c-8 0 -13.167 1.5 -15.5 4.5s-2.5 8.83301 -0.5 17.5l145 683
c3.33301 11.333 10 17 20 17h61c12.667 0 20.334 -5 23.001 -15l168 -501c11.333 -30.667 17.666 -57 18.999 -79c3.33301 44 7.33301 76.333 12 97l100 476c2 8.66699 4.66699 14.5 8 17.5s9.33301 4.5 18 4.5h52c8 0 13.167 -1.5 15.5 -4.5s2.5 -8.83301 0.5 -17.5
l-145 -683c-2 -11.333 -8.33301 -17 -19 -17zM522.001 861c17.333 0 28 8.99902 32 26.999c3.33301 6 8 9 14 9h34c7.33301 0 10 -3.66699 8 -11c-6.66699 -28.667 -18.5 -51 -35.5 -67s-37.833 -24 -62.5 -24c-26.667 0 -43.667 8 -51 24c-6.66699 10.667 -15 16 -25 16
c-15.333 0 -26.666 -9 -33.999 -27c-2.66699 -6 -7.33398 -9 -14.001 -9h-32c-6 0 -8.33301 4 -7 12c6 28.667 17.333 50.834 34 66.501s37 23.5 61 23.5c25.333 0 42 -8.66699 50 -26c6 -9.33301 15.333 -14 28 -14z" />
    <glyph glyph-name="Ograve" unicode="&#xd2;" horiz-adv-x="735" 
d="M90 373c9.33301 44.667 23.334 86.833 42.001 126.5s43 77.667 73 114s68.5 65.333 115.5 87s99.167 32.5 156.5 32.5c49.333 0 92.166 -7.16699 128.499 -21.5s64.833 -33.5 85.5 -57.5s36 -52.833 46 -86.5s14.833 -68.667 14.5 -105s-4.83301 -74.833 -13.5 -115.5
c-9.33301 -44 -23.333 -86 -42 -126s-43 -78.167 -73 -114.5s-68.667 -65.333 -116 -87s-100 -32.5 -158 -32.5c-61.333 0 -112.5 11 -153.5 33s-70 51 -87 87s-27.5 77.167 -31.5 123.5s0.333008 93.833 13 142.5zM473.001 645.999
c-40 0 -76.501 -8.49805 -109.501 -25.498s-60.333 -40 -82 -69s-39.5 -59.333 -53.5 -91s-24.667 -64.834 -32 -99.501c-5.33301 -26.667 -8.83301 -52.5 -10.5 -77.5s-0.166992 -50.5 4.5 -76.5s12.834 -48.5 24.501 -67.5s29.334 -34.667 53.001 -47
s52.5 -18.5 86.5 -18.5c40.667 0 77.667 8.83301 111 26.5s60.833 41.167 82.5 70.5s39.167 59.333 52.5 90s23.666 63 30.999 97c5.33301 26.667 8.83301 52.334 10.5 77.001s0.166992 50.167 -4.5 76.5s-12.667 49.166 -24 68.499s-29 35.166 -53 47.499
s-53 18.5 -87 18.5zM563 821.001l-9.00098 -19.001c-5.33301 -8 -14 -9.66699 -26 -5l-164 50c-10 3.33301 -11 11.333 -3 24l27 47c6.66699 10.667 15.334 12.667 26.001 6l145 -78c6 -3.33301 9.16699 -6.66602 9.5 -9.99902s-1.5 -8.33301 -5.5 -15z" />
    <glyph glyph-name="Oacute" unicode="&#xd3;" horiz-adv-x="735" 
d="M90 373c9.33301 44.667 23.334 86.833 42.001 126.5s43 77.667 73 114s68.5 65.333 115.5 87s99.167 32.5 156.5 32.5c49.333 0 92.166 -7.16699 128.499 -21.5s64.833 -33.5 85.5 -57.5s36 -52.833 46 -86.5s14.833 -68.667 14.5 -105s-4.83301 -74.833 -13.5 -115.5
c-9.33301 -44 -23.333 -86 -42 -126s-43 -78.167 -73 -114.5s-68.667 -65.333 -116 -87s-100 -32.5 -158 -32.5c-61.333 0 -112.5 11 -153.5 33s-70 51 -87 87s-27.5 77.167 -31.5 123.5s0.333008 93.833 13 142.5zM473.001 645.999
c-40 0 -76.501 -8.49805 -109.501 -25.498s-60.333 -40 -82 -69s-39.5 -59.333 -53.5 -91s-24.667 -64.834 -32 -99.501c-5.33301 -26.667 -8.83301 -52.5 -10.5 -77.5s-0.166992 -50.5 4.5 -76.5s12.834 -48.5 24.501 -67.5s29.334 -34.667 53.001 -47
s52.5 -18.5 86.5 -18.5c40.667 0 77.667 8.83301 111 26.5s60.833 41.167 82.5 70.5s39.167 59.333 52.5 90s23.666 63 30.999 97c5.33301 26.667 8.83301 52.334 10.5 77.001s0.166992 50.167 -4.5 76.5s-12.667 49.166 -24 68.499s-29 35.166 -53 47.499
s-53 18.5 -87 18.5zM464 803.001l-2.99902 21.001c-2.66699 11.333 0.666016 19.333 9.99902 24l168 83c14.667 6 23 3.66699 25 -7l7 -41c1.33301 -8 1.16602 -13.833 -0.500977 -17.5s-6.5 -6.83398 -14.5 -9.50098l-173 -60c-11.333 -4 -17.666 -1.66699 -18.999 7z" />
    <glyph glyph-name="Ocircumflex" unicode="&#xd4;" horiz-adv-x="735" 
d="M90 373c9.33301 44.667 23.334 86.833 42.001 126.5s43 77.667 73 114s68.5 65.333 115.5 87s99.167 32.5 156.5 32.5c49.333 0 92.166 -7.16699 128.499 -21.5s64.833 -33.5 85.5 -57.5s36 -52.833 46 -86.5s14.833 -68.667 14.5 -105s-4.83301 -74.833 -13.5 -115.5
c-9.33301 -44 -23.333 -86 -42 -126s-43 -78.167 -73 -114.5s-68.667 -65.333 -116 -87s-100 -32.5 -158 -32.5c-61.333 0 -112.5 11 -153.5 33s-70 51 -87 87s-27.5 77.167 -31.5 123.5s0.333008 93.833 13 142.5zM473.001 645.999
c-40 0 -76.501 -8.49805 -109.501 -25.498s-60.333 -40 -82 -69s-39.5 -59.333 -53.5 -91s-24.667 -64.834 -32 -99.501c-5.33301 -26.667 -8.83301 -52.5 -10.5 -77.5s-0.166992 -50.5 4.5 -76.5s12.834 -48.5 24.501 -67.5s29.334 -34.667 53.001 -47
s52.5 -18.5 86.5 -18.5c40.667 0 77.667 8.83301 111 26.5s60.833 41.167 82.5 70.5s39.167 59.333 52.5 90s23.666 63 30.999 97c5.33301 26.667 8.83301 52.334 10.5 77.001s0.166992 50.167 -4.5 76.5s-12.667 49.166 -24 68.499s-29 35.166 -53 47.499
s-53 18.5 -87 18.5zM560 802.001l-41.001 59.001l-67 -59c-10.667 -8 -22.667 -12 -36 -12h-32c-6 0 -10.167 1 -12.5 3s-2.66602 4.66699 -0.999023 8s5.16699 7 10.5 11l112 97c10 9.33301 22.667 14 38 14c10 0 16.833 -0.833008 20.5 -2.5
s8.16699 -5.83398 13.5 -12.501l70 -96c4.66699 -6.66699 5.66699 -12 3 -16s-8 -6 -16 -6h-35c-11.333 0 -20.333 4 -27 12z" />
    <glyph glyph-name="Otilde" unicode="&#xd5;" horiz-adv-x="735" 
d="M90 373c9.33301 44.667 23.334 86.833 42.001 126.5s43 77.667 73 114s68.5 65.333 115.5 87s99.167 32.5 156.5 32.5c49.333 0 92.166 -7.16699 128.499 -21.5s64.833 -33.5 85.5 -57.5s36 -52.833 46 -86.5s14.833 -68.667 14.5 -105s-4.83301 -74.833 -13.5 -115.5
c-9.33301 -44 -23.333 -86 -42 -126s-43 -78.167 -73 -114.5s-68.667 -65.333 -116 -87s-100 -32.5 -158 -32.5c-61.333 0 -112.5 11 -153.5 33s-70 51 -87 87s-27.5 77.167 -31.5 123.5s0.333008 93.833 13 142.5zM473.001 645.999
c-40 0 -76.501 -8.49805 -109.501 -25.498s-60.333 -40 -82 -69s-39.5 -59.333 -53.5 -91s-24.667 -64.834 -32 -99.501c-5.33301 -26.667 -8.83301 -52.5 -10.5 -77.5s-0.166992 -50.5 4.5 -76.5s12.834 -48.5 24.501 -67.5s29.334 -34.667 53.001 -47
s52.5 -18.5 86.5 -18.5c40.667 0 77.667 8.83301 111 26.5s60.833 41.167 82.5 70.5s39.167 59.333 52.5 90s23.666 63 30.999 97c5.33301 26.667 8.83301 52.334 10.5 77.001s0.166992 50.167 -4.5 76.5s-12.667 49.166 -24 68.499s-29 35.166 -53 47.499
s-53 18.5 -87 18.5zM562 861.001c17.333 0 27.999 8.99902 31.999 26.999c2.66699 6 7.33398 9 14.001 9h34c7.33301 0 10 -3.66699 8 -11c-6.66699 -28.667 -18.5 -51 -35.5 -67s-37.833 -24 -62.5 -24c-26.667 0 -43.667 8 -51 24c-6.66699 10.667 -15 16 -25 16
c-15.333 0 -26.666 -9 -33.999 -27c-2.66699 -6 -7.33398 -9 -14.001 -9h-32c-6 0 -8.33301 4 -7 12c6 28.667 17.333 50.834 34 66.501s37 23.5 61 23.5c25.333 0 42 -8.66699 50 -26c6 -9.33301 15.333 -14 28 -14z" />
    <glyph glyph-name="Odieresis" unicode="&#xd6;" horiz-adv-x="735" 
d="M90 373c9.33301 44.667 23.334 86.833 42.001 126.5s43 77.667 73 114s68.5 65.333 115.5 87s99.167 32.5 156.5 32.5c49.333 0 92.166 -7.16699 128.499 -21.5s64.833 -33.5 85.5 -57.5s36 -52.833 46 -86.5s14.833 -68.667 14.5 -105s-4.83301 -74.833 -13.5 -115.5
c-9.33301 -44 -23.333 -86 -42 -126s-43 -78.167 -73 -114.5s-68.667 -65.333 -116 -87s-100 -32.5 -158 -32.5c-61.333 0 -112.5 11 -153.5 33s-70 51 -87 87s-27.5 77.167 -31.5 123.5s0.333008 93.833 13 142.5zM473.001 645.999
c-40 0 -76.501 -8.49805 -109.501 -25.498s-60.333 -40 -82 -69s-39.5 -59.333 -53.5 -91s-24.667 -64.834 -32 -99.501c-5.33301 -26.667 -8.83301 -52.5 -10.5 -77.5s-0.166992 -50.5 4.5 -76.5s12.834 -48.5 24.501 -67.5s29.334 -34.667 53.001 -47
s52.5 -18.5 86.5 -18.5c40.667 0 77.667 8.83301 111 26.5s60.833 41.167 82.5 70.5s39.167 59.333 52.5 90s23.666 63 30.999 97c5.33301 26.667 8.83301 52.334 10.5 77.001s0.166992 50.167 -4.5 76.5s-12.667 49.166 -24 68.499s-29 35.166 -53 47.499
s-53 18.5 -87 18.5zM380 853.001c4 18 13.1689 33.334 27.502 46.001s29.166 19 44.499 19s27.166 -5.5 35.499 -16.5s10.5 -25.833 6.5 -44.5s-13.167 -33.834 -27.5 -45.501s-29.5 -17.5 -45.5 -17.5s-27.833 5.33301 -35.5 16s-9.5 25 -5.5 43zM542.002 853.002
c4 18 13.1689 33.334 27.502 46.001s29.166 19 44.499 19s27.166 -5.5 35.499 -16.5s10.5 -25.833 6.5 -44.5s-13.167 -33.834 -27.5 -45.501s-29.833 -17.5 -46.5 -17.5c-15.333 0 -26.833 5.33301 -34.5 16s-9.5 25 -5.5 43z" />
    <glyph glyph-name="multiply" unicode="&#xd7;" horiz-adv-x="488" 
d="M255 214l-170.001 -151.001c-15.333 -13.333 -27.333 -20 -36 -20c-7.33301 0 -14.333 5 -21 15c-6 7.33301 -8.33301 16 -7 26c2.66699 11.333 9.33398 21.333 20.001 30l172 157l-106 157c-6.66699 10 -8.66699 20 -6 30c1.33301 8.66699 7 17.334 17 26.001
c12 10 21.333 15 28 15c8.66699 0 17.667 -6.66699 27 -20l105 -149l1 -2l170 151c15.333 13.333 27.666 20 36.999 20c8 0 15 -5 21 -15c6 -9.33301 8.33301 -18.333 7 -27c-2.66699 -10 -9.33398 -19.667 -20.001 -29l-172 -157l106 -157c6 -9.33301 8.33301 -19 7 -29
c-2 -8 -8 -17 -18 -27c-11.333 -10 -20.666 -15 -27.999 -15c-9.33301 0 -18.666 6.66699 -27.999 20l-104 149z" />
    <glyph glyph-name="Oslash" unicode="&#xd8;" horiz-adv-x="735" 
d="M145 -1l21.001 34.998c-31.333 22 -55 51.333 -71 88s-24 76 -24 118s4.33301 86.333 13 133c9.33301 44.667 23.333 86.834 42 126.501s43 77.667 73 114s68.5 65.333 115.5 87s99.167 32.5 156.5 32.5c36.667 0 70 -4 100 -12l9 16c7.33301 12.667 14.666 18 21.999 16
l70 -14c8 -2.66699 8.33301 -10.334 1 -23.001l-21 -34c45.333 -32.667 74.166 -80.334 86.499 -143.001s10.166 -126.667 -6.50098 -192c-9.33301 -44 -23.333 -86 -42 -126s-43 -78.167 -73 -114.5s-68.667 -65.333 -116 -87s-100 -32.5 -158 -32.5
c-33.333 0 -64.666 3.66699 -93.999 11l-13 -22c-6 -11.333 -13 -15.666 -21 -12.999l-68 15c-2.66699 0.666992 -4.66699 1.33398 -6 2.00098s-2 1.83398 -2 3.50098s0.333008 3.66699 1 6s2.33398 5.5 5.00098 9.5zM467.001 645.998c-40 0 -76.5 -8.49902 -109.5 -25.499
s-60.333 -40 -82 -69s-39.5 -59.333 -53.5 -91s-24.667 -64.834 -32 -99.501c-22.667 -107.333 -13 -186 29 -236l303 514c-18.667 4.66699 -37 7 -55 7zM625.001 357.999c21.333 104 12.668 181.333 -25.999 232l-302 -511c18 -3.33301 35 -5 51 -5
c40.667 0 77.667 8.83301 111 26.5s60.833 41.167 82.5 70.5s39.167 59.333 52.5 90s23.666 63 30.999 97z" />
    <glyph glyph-name="Ugrave" unicode="&#xd9;" horiz-adv-x="658" 
d="M339 82c104 0 169.665 66 196.998 198l89 420c2 8.66699 4.83301 14.5 8.5 17.5s9.5 4.5 17.5 4.5h60c8 0 13 -1.5 15 -4.5s2 -8.83301 0 -17.5l-92 -432c-17.333 -88.667 -51.666 -156.667 -102.999 -204s-117 -71 -197 -71c-88.667 0 -151 23.667 -187 71
s-44.333 115.333 -25 204l92 432c2 8.66699 4.66699 14.5 8 17.5s9.33301 4.5 18 4.5h59c8 0 13.167 -1.5 15.5 -4.5s2.5 -8.83301 0.5 -17.5l-89 -420c-27.333 -132 10.334 -198 113.001 -198zM553.998 821l-9.00098 -19.001c-5.33301 -8 -14 -9.66699 -26 -5l-164 50
c-10 3.33301 -11 11.333 -3 24l27 47c6.66699 10.667 15.334 12.667 26.001 6l145 -78c6 -3.33301 9.16699 -6.66602 9.5 -9.99902s-1.5 -8.33301 -5.5 -15z" />
    <glyph glyph-name="Uacute" unicode="&#xda;" horiz-adv-x="658" 
d="M339 82c104 0 169.665 66 196.998 198l89 420c2 8.66699 4.83301 14.5 8.5 17.5s9.5 4.5 17.5 4.5h60c8 0 13 -1.5 15 -4.5s2 -8.83301 0 -17.5l-92 -432c-17.333 -88.667 -51.666 -156.667 -102.999 -204s-117 -71 -197 -71c-88.667 0 -151 23.667 -187 71
s-44.333 115.333 -25 204l92 432c2 8.66699 4.66699 14.5 8 17.5s9.33301 4.5 18 4.5h59c8 0 13.167 -1.5 15.5 -4.5s2.5 -8.83301 0.5 -17.5l-89 -420c-27.333 -132 10.334 -198 113.001 -198zM456.998 803l-2.99902 21.001c-2.66699 11.333 0.666016 19.333 9.99902 24
l168 83c14.667 6 23 3.66699 25 -7l7 -41c1.33301 -8 1.16602 -13.833 -0.500977 -17.5s-6.5 -6.83398 -14.5 -9.50098l-173 -60c-11.333 -4 -17.666 -1.66699 -18.999 7z" />
    <glyph glyph-name="Ucircumflex" unicode="&#xdb;" horiz-adv-x="658" 
d="M339 82c104 0 169.665 66 196.998 198l89 420c2 8.66699 4.83301 14.5 8.5 17.5s9.5 4.5 17.5 4.5h60c8 0 13 -1.5 15 -4.5s2 -8.83301 0 -17.5l-92 -432c-17.333 -88.667 -51.666 -156.667 -102.999 -204s-117 -71 -197 -71c-88.667 0 -151 23.667 -187 71
s-44.333 115.333 -25 204l92 432c2 8.66699 4.66699 14.5 8 17.5s9.33301 4.5 18 4.5h59c8 0 13.167 -1.5 15.5 -4.5s2.5 -8.83301 0.5 -17.5l-89 -420c-27.333 -132 10.334 -198 113.001 -198zM551.998 802l-41.001 59.001l-67 -59c-10.667 -8 -22.667 -12 -36 -12h-32
c-6 0 -10.167 1 -12.5 3s-2.66602 4.66699 -0.999023 8s5.16699 7 10.5 11l112 97c10 9.33301 22.667 14 38 14c10 0 16.833 -0.833008 20.5 -2.5s8.16699 -5.83398 13.5 -12.501l70 -96c4.66699 -6.66699 5.66699 -12 3 -16s-8 -6 -16 -6h-35c-11.333 0 -20.333 4 -27 12z
" />
    <glyph glyph-name="Udieresis" unicode="&#xdc;" horiz-adv-x="658" 
d="M339 82c104 0 169.665 66 196.998 198l89 420c2 8.66699 4.83301 14.5 8.5 17.5s9.5 4.5 17.5 4.5h60c8 0 13 -1.5 15 -4.5s2 -8.83301 0 -17.5l-92 -432c-17.333 -88.667 -51.666 -156.667 -102.999 -204s-117 -71 -197 -71c-88.667 0 -151 23.667 -187 71
s-44.333 115.333 -25 204l92 432c2 8.66699 4.66699 14.5 8 17.5s9.33301 4.5 18 4.5h59c8 0 13.167 -1.5 15.5 -4.5s2.5 -8.83301 0.5 -17.5l-89 -420c-27.333 -132 10.334 -198 113.001 -198zM371.998 853c4 18 13.1689 33.334 27.502 46.001s29.166 19 44.499 19
s27.166 -5.5 35.499 -16.5s10.5 -25.833 6.5 -44.5s-13.167 -33.834 -27.5 -45.501s-29.5 -17.5 -45.5 -17.5s-27.833 5.33301 -35.5 16s-9.5 25 -5.5 43zM534 853.001c4 18 13.1689 33.334 27.502 46.001s29.166 19 44.499 19s27.166 -5.5 35.499 -16.5
s10.5 -25.833 6.5 -44.5s-13.167 -33.834 -27.5 -45.501s-29.833 -17.5 -46.5 -17.5c-15.333 0 -26.833 5.33301 -34.5 16s-9.5 25 -5.5 43z" />
    <glyph glyph-name="Yacute" unicode="&#xdd;" horiz-adv-x="560" 
d="M262 284l-122 409c-6 19.333 -1 29 15 29h72c6.66699 0 11.167 -1.16699 13.5 -3.5s4.5 -6.83301 6.5 -13.5l84 -325l226 325c8 11.333 17 17 27 17h72c16.667 0 17.667 -9.66699 3 -29l-296 -410l-56 -261c-2 -8.66699 -4.66699 -14.5 -8 -17.5s-9 -4.5 -17 -4.5h-59
c-8.66699 0 -14.167 1.5 -16.5 4.5s-2.5 8.83301 -0.5 17.5zM381 803l-2.99902 21.001c-2.66699 11.333 0.666016 19.333 9.99902 24l168 83c14.667 6 23 3.66699 25 -7l7 -41c1.33301 -8 1.16602 -13.833 -0.500977 -17.5s-6.5 -6.83398 -14.5 -9.50098l-173 -60
c-11.333 -4 -17.666 -1.66699 -18.999 7z" />
    <glyph glyph-name="Thorn" unicode="&#xde;" horiz-adv-x="569" 
d="M258 537c21.333 2.66699 44.668 4 70.001 4c91.333 0 157.5 -20.5 198.5 -61.5s53.167 -100.833 36.5 -179.5c-16.667 -78 -56.334 -137.667 -119.001 -179s-131 -62 -205 -62c-28.667 0 -55.667 3 -81 9l-43 -204c-3.33301 -14.667 -12 -22.334 -26 -23.001h-57
c-12.667 0 -17.667 7.33301 -15 22l182 856c3.33301 14.667 12 22.334 26 23.001h57c12.667 0 17.667 -7.33301 15 -22zM239.002 450l-63 -297c21.333 -11.333 48 -17 80 -17c50 0 93 14.167 129 42.5s59.667 68.833 71 121.5c10.667 50.667 3.16699 89.667 -22.5 117
s-62.167 41 -109.5 41c-34 0 -62.333 -2.66699 -85 -8z" />
    <glyph glyph-name="germandbls" unicode="&#xdf;" horiz-adv-x="578" 
d="M297 74c36.667 0 68.3311 10.332 94.998 30.999s44.667 51.667 54 93c10 46 4.83301 80.833 -15.5 104.5s-51.833 35.5 -94.5 35.5h-39c-6.66699 0 -10.5 1 -11.5 3s-0.833008 6.66699 0.5 14l10 46c2 12 8.33301 18 19 18h37c30 0 57 9.83301 81 29.5s40 48.167 48 85.5
c8 38 3.33301 67.333 -14 88s-44.333 31 -81 31c-37.333 0 -69.166 -11.167 -95.499 -33.5s-44.166 -54.833 -53.499 -97.5l-153 -721c-2 -12 -9.66699 -18 -23 -18h-61c-10 0 -14 5.66699 -12 17l152 722c14 64.667 42.167 115.834 84.5 153.501s101.5 56.5 177.5 56.5
c73.333 0 124.833 -17.333 154.5 -52s38.167 -82.334 25.5 -143.001c-9.33301 -42.667 -25.333 -78.5 -48 -107.5s-46.667 -46.5 -72 -52.5c32 -9.33301 57 -28.666 75 -57.999s21.333 -71.333 10 -126c-14 -65.333 -43.333 -114.666 -88 -147.999s-99.667 -50 -165 -50
c-56.667 0 -98 7.33301 -124 22c-5.33301 3.33301 -7 8.66602 -5 15.999l9 45c2 10.667 6.33301 16 13 16l38 -10c24.667 -6.66699 48.667 -10 72 -10z" />
    <glyph glyph-name="agrave" unicode="&#xe0;" horiz-adv-x="561" 
d="M558 532c8 0 13.166 -1.33203 15.499 -3.99902s2.5 -8 0.5 -16l-83 -392c-6 -27.333 0 -41 18 -41c6.66699 0 13.5 0.833008 20.5 2.5s10.833 2.5 11.5 2.5c4.66699 1.33301 7.66699 1.33301 9 0s1.33301 -4.33301 0 -9l-10 -50c-2 -10 -7.66699 -17 -17 -21
c-15.333 -6 -37.333 -9 -66 -9c-24.667 0 -42 6.83301 -52 20.5s-13.667 38.5 -11 74.5c-47.333 -68.667 -107 -103 -179 -103c-56.667 0 -96.834 22.667 -120.501 68s-25.5 115 -5.5 209c17.333 83.333 49.333 149.666 96 198.999s102.334 76 167.001 80
c21.333 0 34 -0.333008 38 -1c36.667 -2.66699 65 -16 85 -40l3 13c1.33301 6.66699 3.83301 11.167 7.5 13.5s9.83398 3.5 18.501 3.5h54zM259.999 77.001c74 0 128.666 60.999 163.999 182.999l33 156c-19.333 25.333 -50 38 -92 38c-44.667 0 -82.167 -19.667 -112.5 -59
s-51.833 -88.666 -64.5 -147.999c-12 -48.667 -12.167 -89.167 -0.5 -121.5s35.834 -48.5 72.501 -48.5zM455.998 638l-9.00098 -19.001c-5.33301 -8 -14 -9.66699 -26 -5l-164 50c-10 2.66699 -11 10.667 -3 24l27 47c6.66699 10.667 15.334 12.667 26.001 6l145 -78
c6 -3.33301 9.16699 -6.66602 9.5 -9.99902s-1.5 -8.33301 -5.5 -15z" />
    <glyph glyph-name="aacute" unicode="&#xe1;" horiz-adv-x="561" 
d="M558 532c8 0 13.166 -1.33203 15.499 -3.99902s2.5 -8 0.5 -16l-83 -392c-6 -27.333 0 -41 18 -41c6.66699 0 13.5 0.833008 20.5 2.5s10.833 2.5 11.5 2.5c4.66699 1.33301 7.66699 1.33301 9 0s1.33301 -4.33301 0 -9l-10 -50c-2 -10 -7.66699 -17 -17 -21
c-15.333 -6 -37.333 -9 -66 -9c-24.667 0 -42 6.83301 -52 20.5s-13.667 38.5 -11 74.5c-47.333 -68.667 -107 -103 -179 -103c-56.667 0 -96.834 22.667 -120.501 68s-25.5 115 -5.5 209c17.333 83.333 49.333 149.666 96 198.999s102.334 76 167.001 80
c21.333 0 34 -0.333008 38 -1c36.667 -2.66699 65 -16 85 -40l3 13c1.33301 6.66699 3.83301 11.167 7.5 13.5s9.83398 3.5 18.501 3.5h54zM259.999 77.001c74 0 128.666 60.999 163.999 182.999l33 156c-19.333 25.333 -50 38 -92 38c-44.667 0 -82.167 -19.667 -112.5 -59
s-51.833 -88.666 -64.5 -147.999c-12 -48.667 -12.167 -89.167 -0.5 -121.5s35.834 -48.5 72.501 -48.5zM357.998 620l-2.99902 21.001c-2.66699 10.667 0.666016 18.667 9.99902 24l168 83c14.667 6 23 3.66699 25 -7l7 -41c1.33301 -8 1.16602 -13.833 -0.500977 -17.5
s-6.16699 -6.83398 -13.5 -9.50098l-174 -60c-11.333 -3.33301 -17.666 -1 -18.999 7z" />
    <glyph glyph-name="acircumflex" unicode="&#xe2;" horiz-adv-x="561" 
d="M558 532c8 0 13.166 -1.33203 15.499 -3.99902s2.5 -8 0.5 -16l-83 -392c-6 -27.333 0 -41 18 -41c6.66699 0 13.5 0.833008 20.5 2.5s10.833 2.5 11.5 2.5c4.66699 1.33301 7.66699 1.33301 9 0s1.33301 -4.33301 0 -9l-10 -50c-2 -10 -7.66699 -17 -17 -21
c-15.333 -6 -37.333 -9 -66 -9c-24.667 0 -42 6.83301 -52 20.5s-13.667 38.5 -11 74.5c-47.333 -68.667 -107 -103 -179 -103c-56.667 0 -96.834 22.667 -120.501 68s-25.5 115 -5.5 209c17.333 83.333 49.333 149.666 96 198.999s102.334 76 167.001 80
c21.333 0 34 -0.333008 38 -1c36.667 -2.66699 65 -16 85 -40l3 13c1.33301 6.66699 3.83301 11.167 7.5 13.5s9.83398 3.5 18.501 3.5h54zM259.999 77.001c74 0 128.666 60.999 163.999 182.999l33 156c-19.333 25.333 -50 38 -92 38c-44.667 0 -82.167 -19.667 -112.5 -59
s-51.833 -88.666 -64.5 -147.999c-12 -48.667 -12.167 -89.167 -0.5 -121.5s35.834 -48.5 72.501 -48.5zM452.998 619l-41 59.001l-67 -59c-10.667 -8 -22.334 -12 -35.001 -12h-32c-9.33301 0 -14.333 2 -15 6s3 9.33301 11 16l112 97c10 9.33301 22.667 14 38 14
c10 0 16.833 -0.833008 20.5 -2.5s8.16699 -5.83398 13.5 -12.501l70 -96c4.66699 -6.66699 5.83398 -12 3.50098 -16s-7.5 -6 -15.5 -6h-35c-12 0 -21.333 4 -28 12z" />
    <glyph glyph-name="atilde" unicode="&#xe3;" horiz-adv-x="561" 
d="M558 532c8 0 13.166 -1.33203 15.499 -3.99902s2.5 -8 0.5 -16l-83 -392c-6 -27.333 0 -41 18 -41c6.66699 0 13.5 0.833008 20.5 2.5s10.833 2.5 11.5 2.5c4.66699 1.33301 7.66699 1.33301 9 0s1.33301 -4.33301 0 -9l-10 -50c-2 -10 -7.66699 -17 -17 -21
c-15.333 -6 -37.333 -9 -66 -9c-24.667 0 -42 6.83301 -52 20.5s-13.667 38.5 -11 74.5c-47.333 -68.667 -107 -103 -179 -103c-56.667 0 -96.834 22.667 -120.501 68s-25.5 115 -5.5 209c17.333 83.333 49.333 149.666 96 198.999s102.334 76 167.001 80
c21.333 0 34 -0.333008 38 -1c36.667 -2.66699 65 -16 85 -40l3 13c1.33301 6.66699 3.83301 11.167 7.5 13.5s9.83398 3.5 18.501 3.5h54zM259.999 77.001c74 0 128.666 60.999 163.999 182.999l33 156c-19.333 25.333 -50 38 -92 38c-44.667 0 -82.167 -19.667 -112.5 -59
s-51.833 -88.666 -64.5 -147.999c-12 -48.667 -12.167 -89.167 -0.5 -121.5s35.834 -48.5 72.501 -48.5zM455.998 678c17.333 0 27.998 8.99902 31.998 26.999c2.66699 6 7.33398 9 14.001 9h34c7.33301 0 10 -3.66699 8 -11c-6 -28.667 -17.5 -51 -34.5 -67
s-37.833 -24 -62.5 -24c-27.333 0 -44.666 8 -51.999 24c-6.66699 10.667 -15 16 -25 16c-15.333 0 -26.666 -9 -33.999 -27c-2.66699 -6 -7.33398 -9 -14.001 -9h-32c-6 0 -8.33301 4 -7 12c6 28.667 17.333 50.834 34 66.501s37 23.5 61 23.5
c24.667 0 41.667 -8.66699 51 -26c4.66699 -9.33301 13.667 -14 27 -14z" />
    <glyph glyph-name="adieresis" unicode="&#xe4;" horiz-adv-x="561" 
d="M558 532c8 0 13.166 -1.33203 15.499 -3.99902s2.5 -8 0.5 -16l-83 -392c-6 -27.333 0 -41 18 -41c6.66699 0 13.5 0.833008 20.5 2.5s10.833 2.5 11.5 2.5c4.66699 1.33301 7.66699 1.33301 9 0s1.33301 -4.33301 0 -9l-10 -50c-2 -10 -7.66699 -17 -17 -21
c-15.333 -6 -37.333 -9 -66 -9c-24.667 0 -42 6.83301 -52 20.5s-13.667 38.5 -11 74.5c-47.333 -68.667 -107 -103 -179 -103c-56.667 0 -96.834 22.667 -120.501 68s-25.5 115 -5.5 209c17.333 83.333 49.333 149.666 96 198.999s102.334 76 167.001 80
c21.333 0 34 -0.333008 38 -1c36.667 -2.66699 65 -16 85 -40l3 13c1.33301 6.66699 3.83301 11.167 7.5 13.5s9.83398 3.5 18.501 3.5h54zM259.999 77.001c74 0 128.666 60.999 163.999 182.999l33 156c-19.333 25.333 -50 38 -92 38c-44.667 0 -82.167 -19.667 -112.5 -59
s-51.833 -88.666 -64.5 -147.999c-12 -48.667 -12.167 -89.167 -0.5 -121.5s35.834 -48.5 72.501 -48.5zM273.998 670c4 18 13.1689 33.334 27.502 46.001s29.166 19 44.499 19s27.166 -5.5 35.499 -16.5s10.5 -25.833 6.5 -44.5s-13.167 -33.834 -27.5 -45.501
s-29.5 -17.5 -45.5 -17.5s-27.833 5.33301 -35.5 16s-9.5 25 -5.5 43zM436 670.001c4 18 13.1689 33.334 27.502 46.001s29.166 19 44.499 19s27.166 -5.5 35.499 -16.5s10.5 -25.833 6.5 -44.5s-13.167 -33.834 -27.5 -45.501s-29.833 -17.5 -46.5 -17.5
c-15.333 0 -26.833 5.33301 -34.5 16s-9.5 25 -5.5 43z" />
    <glyph glyph-name="aring" unicode="&#xe5;" horiz-adv-x="561" 
d="M558 532c8 0 13.166 -1.33203 15.499 -3.99902s2.5 -8 0.5 -16l-83 -392c-6 -27.333 0 -41 18 -41c6.66699 0 13.5 0.833008 20.5 2.5s10.833 2.5 11.5 2.5c4.66699 1.33301 7.66699 1.33301 9 0s1.33301 -4.33301 0 -9l-10 -50c-2 -10 -7.66699 -17 -17 -21
c-15.333 -6 -37.333 -9 -66 -9c-24.667 0 -42 6.83301 -52 20.5s-13.667 38.5 -11 74.5c-47.333 -68.667 -107 -103 -179 -103c-56.667 0 -96.834 22.667 -120.501 68s-25.5 115 -5.5 209c17.333 83.333 49.333 149.666 96 198.999s102.334 76 167.001 80
c21.333 0 34 -0.333008 38 -1c36.667 -2.66699 65 -16 85 -40l3 13c1.33301 6.66699 3.83301 11.167 7.5 13.5s9.83398 3.5 18.501 3.5h54zM259.999 77.001c74 0 128.666 60.999 163.999 182.999l33 156c-19.333 25.333 -50 38 -92 38c-44.667 0 -82.167 -19.667 -112.5 -59
s-51.833 -88.666 -64.5 -147.999c-12 -48.667 -12.167 -89.167 -0.5 -121.5s35.834 -48.5 72.501 -48.5zM394.998 602c-32.667 0 -57.501 7.66699 -74.501 23s-22.833 35.333 -17.5 60c5.33301 25.333 19.666 45.5 42.999 60.5s51.666 22.5 84.999 22.5
c32.667 0 57.334 -7.5 74.001 -22.5s22.334 -35.167 17.001 -60.5c-5.33301 -24.667 -19.666 -44.667 -42.999 -60s-51.333 -23 -84 -23zM404.997 646c11.333 0 21.333 3.5 30 10.5s14.334 16.5 17.001 28.5s1.16699 21.667 -4.5 29s-14.167 11 -25.5 11
s-21.666 -3.66699 -30.999 -11s-15.333 -17 -18 -29s-0.833984 -21.5 5.49902 -28.5s15.166 -10.5 26.499 -10.5z" />
    <glyph glyph-name="ae" unicode="&#xe6;" horiz-adv-x="813" 
d="M667 544c65.333 0 112.167 -16.5039 140.5 -49.5039s36.166 -78.833 23.499 -137.5c-10.667 -52.667 -36.5 -93.667 -77.5 -123s-96.833 -44 -167.5 -44c-47.333 0 -88 6.33301 -122 19c-8.66699 -95.333 31 -143 119 -143c37.333 0 68.333 4 93 12
c7.33301 2 19.166 5.83301 35.499 11.5s26.166 9.16699 29.499 10.5c4 0.666992 6.5 -0.166016 7.5 -2.49902s0.833008 -5.16602 -0.5 -8.49902l-9 -42c-1.33301 -8 -3.16602 -13.5 -5.49902 -16.5s-7.83301 -6.83301 -16.5 -11.5c-46 -21.333 -99 -32 -159 -32
c-108 0 -172 39.333 -192 118c-46.667 -74 -114 -111 -202 -111c-50.667 0 -86.334 13 -107.001 39s-26 63.333 -16 112c13.333 62.667 44.5 106.5 93.5 131.5s117.833 37.5 206.5 37.5h39l7 32c9.33301 43.333 5.83301 72.5 -10.5 87.5s-45.166 22.5 -86.499 22.5
c-48 0 -91.667 -6 -131 -18c-6.66699 -1.33301 -11.167 -1 -13.5 1s-3.16602 6 -2.49902 12l11 48c1.33301 8.66699 3.83301 14.834 7.5 18.501s10.5 6.83398 20.5 9.50098c40.667 11.333 88.334 17 143.001 17c84.667 0 136.667 -23.333 156 -70c52 46.667 114 70 186 70z
M652.001 471.996c-44 0 -80.834 -17.333 -110.501 -52s-51.5 -81.667 -65.5 -141c35.333 -12.667 74 -19 116 -19c82.667 0 131.334 34 146.001 102c7.33301 34 3.33301 60.833 -12 80.5s-40 29.5 -74 29.5zM139 145.996c-10 -44.667 11.001 -67 63.001 -67
c38.667 0 72.167 11.333 100.5 34s46.833 54.667 55.5 96l5 25h-39c-61.333 0 -105.833 -6.66699 -133.5 -20s-44.834 -36 -51.501 -68z" />
    <glyph glyph-name="ccedilla" unicode="&#xe7;" horiz-adv-x="453" 
d="M237 -69l36.9961 62.001c-141.333 6.66699 -192.666 103 -153.999 289c18 84.667 51.333 149.5 100 194.5s111.667 67.5 189 67.5c48.667 0 88.667 -8.33301 120 -25c10.667 -5.33301 14.667 -13 12 -23l-12 -58c-3.33301 -10.667 -9.66602 -13.667 -18.999 -9
c-2 0.666992 -7.33301 3 -16 7s-16.167 7.16699 -22.5 9.5s-15.333 4.66602 -27 6.99902s-24.167 3.5 -37.5 3.5c-96 0 -157 -62.333 -183 -187c-13.333 -63.333 -11 -110.5 7 -141.5s49 -46.5 93 -46.5c28.667 0 65.334 8 110.001 24
c8 3.33301 13.833 4.16602 17.5 2.49902s4.5 -6.5 2.5 -14.5l-10 -50c-3.33301 -12.667 -9.66602 -21 -18.999 -25c-23.333 -12.667 -56.666 -20.667 -99.999 -24l-16 -27c30.667 2.66699 53.5 -2.16602 68.5 -14.499s19.167 -33.5 12.5 -63.5
c-12.667 -60.667 -59.667 -91 -141 -91c-21.333 0 -42 1.33301 -62 4c-4 0 -5 4.33301 -3 13l6 26c0.666992 5.33301 1.66699 8.5 3 9.5s3.66602 1.5 6.99902 1.5c18.667 -2.66699 36 -4 52 -4c40 0 63 13.333 69 40c4.66699 23.333 -6.66602 35 -33.999 35
c-6 0 -14.333 -0.666992 -25 -2s-17.334 -2 -20.001 -2c-9.33301 0 -11 4 -5 12z" />
    <glyph glyph-name="egrave" unicode="&#xe8;" horiz-adv-x="510" 
d="M389 544c140 0 197.001 -61.332 171.001 -183.999c-12.667 -59.333 -39.667 -101.833 -81 -127.5s-90 -38.5 -146 -38.5c-48 0 -90.667 8 -128 24c-6.66699 -50 0 -85.667 20 -107s54.333 -32 103 -32c47.333 0 92 8 134 24c22.667 8.66699 35 13 37 13
c7.33301 0 10 -3.33301 8 -10l-12 -55c-2 -10.667 -10.333 -19.334 -25 -26.001c-46 -22 -97.667 -33 -155 -33c-170 0 -235.667 94.667 -197 284c17.333 82 49.666 147.167 96.999 195.5s105.333 72.5 174 72.5zM379.001 457.001c-36 0 -67.668 -13.833 -95.001 -41.5
s-48.666 -68.167 -63.999 -121.5c38 -14 77.667 -21 119 -21c72.667 0 116 31.333 130 94c12.667 60 -17.333 90 -90 90zM507 631.001l-9 -19.001c-5.33301 -8 -14 -9.66699 -26 -5l-165 50c-10 3.33301 -11 11.333 -3 24l27 47c7.33301 10 16.333 12 27 6l145 -78
c8 -5.33301 9.33301 -13.666 4 -24.999z" />
    <glyph glyph-name="eacute" unicode="&#xe9;" horiz-adv-x="510" 
d="M389 544c140 0 197.001 -61.332 171.001 -183.999c-12.667 -59.333 -39.667 -101.833 -81 -127.5s-90 -38.5 -146 -38.5c-48 0 -90.667 8 -128 24c-6.66699 -50 0 -85.667 20 -107s54.333 -32 103 -32c47.333 0 92 8 134 24c22.667 8.66699 35 13 37 13
c7.33301 0 10 -3.33301 8 -10l-12 -55c-2 -10.667 -10.333 -19.334 -25 -26.001c-46 -22 -97.667 -33 -155 -33c-170 0 -235.667 94.667 -197 284c17.333 82 49.666 147.167 96.999 195.5s105.333 72.5 174 72.5zM379.001 457.001c-36 0 -67.668 -13.833 -95.001 -41.5
s-48.666 -68.167 -63.999 -121.5c38 -14 77.667 -21 119 -21c72.667 0 116 31.333 130 94c12.667 60 -17.333 90 -90 90zM374 618.001l-4 20.999c-2 11.333 1.33301 19.333 10 24l169 83c14 6.66699 22.333 4.33398 25 -6.99902l7 -41c2 -14 -3 -23 -15 -27l-174 -60
c-10 -4 -16 -1.66699 -18 7z" />
    <glyph glyph-name="ecircumflex" unicode="&#xea;" horiz-adv-x="510" 
d="M389 544c140 0 197.001 -61.332 171.001 -183.999c-12.667 -59.333 -39.667 -101.833 -81 -127.5s-90 -38.5 -146 -38.5c-48 0 -90.667 8 -128 24c-6.66699 -50 0 -85.667 20 -107s54.333 -32 103 -32c47.333 0 92 8 134 24c22.667 8.66699 35 13 37 13
c7.33301 0 10 -3.33301 8 -10l-12 -55c-2 -10.667 -10.333 -19.334 -25 -26.001c-46 -22 -97.667 -33 -155 -33c-170 0 -235.667 94.667 -197 284c17.333 82 49.666 147.167 96.999 195.5s105.333 72.5 174 72.5zM379.001 457.001c-36 0 -67.668 -13.833 -95.001 -41.5
s-48.666 -68.167 -63.999 -121.5c38 -14 77.667 -21 119 -21c72.667 0 116 31.333 130 94c12.667 60 -17.333 90 -90 90zM469 617.001l-42.002 59l-66 -59c-10.667 -8 -22.667 -12 -36 -12h-32c-6 0 -10.167 1 -12.5 3s-2.66602 4.66699 -0.999023 8s5.16699 7 10.5 11
l111 97c10.667 9.33301 23.334 14 38.001 14c16 0 27.333 -5 34 -15l71 -96c4.66699 -6.66699 5.66699 -12 3 -16s-8 -6 -16 -6h-35c-12 0 -21 4 -27 12z" />
    <glyph glyph-name="edieresis" unicode="&#xeb;" horiz-adv-x="510" 
d="M389 544c140 0 197.001 -61.332 171.001 -183.999c-12.667 -59.333 -39.667 -101.833 -81 -127.5s-90 -38.5 -146 -38.5c-48 0 -90.667 8 -128 24c-6.66699 -50 0 -85.667 20 -107s54.333 -32 103 -32c47.333 0 92 8 134 24c22.667 8.66699 35 13 37 13
c7.33301 0 10 -3.33301 8 -10l-12 -55c-2 -10.667 -10.333 -19.334 -25 -26.001c-46 -22 -97.667 -33 -155 -33c-170 0 -235.667 94.667 -197 284c17.333 82 49.666 147.167 96.999 195.5s105.333 72.5 174 72.5zM379.001 457.001c-36 0 -67.668 -13.833 -95.001 -41.5
s-48.666 -68.167 -63.999 -121.5c38 -14 77.667 -21 119 -21c72.667 0 116 31.333 130 94c12.667 60 -17.333 90 -90 90zM289 668.001c4 18 13.1699 33.334 27.5029 46.001s29.166 19 44.499 19s27.166 -5.5 35.499 -16.5s10.5 -25.833 6.5 -44.5s-13 -33.834 -27 -45.501
s-29 -17.5 -45 -17.5s-27.833 5.33301 -35.5 16s-9.83398 25 -6.50098 43zM451.003 668.002c4 18 13.1699 33.334 27.5029 46.001s29.166 19 44.499 19s27.166 -5.5 35.499 -16.5s10.5 -25.833 6.5 -44.5s-13 -33.834 -27 -45.501s-29.333 -17.5 -46 -17.5
c-15.333 0 -26.833 5.33301 -34.5 16s-9.83398 25 -6.50098 43z" />
    <glyph glyph-name="igrave" unicode="&#xec;" horiz-adv-x="222" 
d="M131 22c-2 -8.66699 -4.66699 -14.5 -8 -17.5s-9 -4.5 -17 -4.5h-55c-8 0 -13.333 1.5 -16 4.5s-3 8.83301 -1 17.5l104 488c3.33301 14.667 12 22 26 22h55c8 0 13.167 -1.5 15.5 -4.5s2.5 -8.83301 0.5 -17.5zM268 638l-9.00098 -19.001
c-5.33301 -8 -14 -9.66699 -26 -5l-164 50c-10 2.66699 -11 10.667 -3 24l27 47c6.66699 10.667 15.334 12.667 26.001 6l145 -78c6 -3.33301 9.16699 -6.66602 9.5 -9.99902s-1.5 -8.33301 -5.5 -15z" />
    <glyph glyph-name="iacute" unicode="&#xed;" horiz-adv-x="223" 
d="M131 22c-2 -8.66699 -4.66699 -14.5 -8 -17.5s-9 -4.5 -17 -4.5h-55c-8 0 -13.333 1.5 -16 4.5s-3 8.83301 -1 17.5l104 488c3.33301 14.667 12 22 26 22h55c8 0 13.167 -1.5 15.5 -4.5s2.5 -8.83301 0.5 -17.5zM168 620l-2.99805 21.001
c-2.66699 10.667 0.666016 18.667 9.99902 24l168 83c14.667 6 23 3.66699 25 -7l7 -41c1.33301 -8 1.16602 -13.833 -0.500977 -17.5s-6.16699 -6.83398 -13.5 -9.50098l-174 -60c-10.667 -3.33301 -17 -1 -19 7z" />
    <glyph glyph-name="icircumflex" unicode="&#xee;" horiz-adv-x="223" 
d="M234 510l-104 -488c-2 -9.33301 -4.5 -15.333 -7.5 -18s-8.83301 -4 -17.5 -4h-54c-8 0 -13.333 1.5 -16 4.5s-3 8.83301 -1 17.5l104 488c3.33301 14.667 12 22 26 22h54c8.66699 0 14 -1.5 16 -4.5s2 -8.83301 0 -17.5zM264 619l-41 59.001l-67 -59
c-10.667 -8 -22.334 -12 -35.001 -12h-32c-9.33301 0 -14.333 2 -15 6s3 9.33301 11 16l112 97c10 9.33301 22.667 14 38 14c10 0 16.833 -0.833008 20.5 -2.5s8.16699 -5.83398 13.5 -12.501l70 -96c4.66699 -6.66699 5.83398 -12 3.50098 -16s-7.5 -6 -15.5 -6h-35
c-12 0 -21.333 4 -28 12z" />
    <glyph glyph-name="idieresis" unicode="&#xef;" horiz-adv-x="223" 
d="M131 22c-2 -8.66699 -4.66699 -14.5 -8 -17.5s-9 -4.5 -17 -4.5h-55c-8 0 -13.333 1.5 -16 4.5s-3 8.83301 -1 17.5l104 488c3.33301 14.667 12 22 26 22h55c8 0 13.167 -1.5 15.5 -4.5s2.5 -8.83301 0.5 -17.5zM85 670c4 18 13.1689 33.334 27.502 46.001
s29.166 19 44.499 19s27.166 -5.5 35.499 -16.5s10.5 -25.833 6.5 -44.5s-13.167 -33.834 -27.5 -45.501s-29.5 -17.5 -45.5 -17.5s-27.833 5.33301 -35.5 16s-9.5 25 -5.5 43zM247.002 670.001c4 18 13.1689 33.334 27.502 46.001s29.166 19 44.499 19
s27.166 -5.5 35.499 -16.5s10.5 -25.833 6.5 -44.5s-13.167 -33.834 -27.5 -45.501s-29.833 -17.5 -46.5 -17.5c-15.333 0 -26.833 5.33301 -34.5 16s-9.5 25 -5.5 43z" />
    <glyph glyph-name="eth" unicode="&#xf0;" horiz-adv-x="543" 
d="M607 612l-90.9971 -35.002c37.333 -86.667 45.333 -180.667 24 -282c-7.33301 -36 -18.333 -70.5 -33 -103.5s-34 -65.5 -58 -97.5s-54.833 -57.5 -92.5 -76.5s-79.834 -28.5 -126.501 -28.5c-48.667 0 -87.834 11.5 -117.501 34.5s-48.667 51.5 -57 85.5
s-8.16602 70.667 0.500977 110c14 64 45 118.667 93 164s104 68 168 68c36.667 0 67 -10.167 91 -30.5s40.333 -46.166 49 -77.499c8.66699 74 -3.33301 140 -36 198l-109 -42c-22 -8 -35 0.666992 -39 26c-2 13.333 0.5 23.333 7.5 30s20.5 13.667 40.5 21l61 23
l-31.5 38.5c-15.667 19 -27.834 34.5 -36.501 46.5c-4 6 -5.66699 10.667 -5 14c1.33301 4.66699 3.66602 8.33398 6.99902 11.001l43 34c9.33301 5.33301 15 8 17 8c4 0 8.33301 -1.66699 13 -5c36.667 -32 67.667 -68 93 -108l118 46c21.333 8 33.333 -1 36 -27
c4 -21.333 -5.66699 -36.333 -29 -45zM248.003 69.998c40 0 73.832 14.499 101.499 43.499s46.167 65.5 55.5 109.5c9.33301 41.333 5.33301 75.833 -12 103.5s-43.666 41.5 -78.999 41.5c-36.667 0 -69.5 -14.667 -98.5 -44s-47.833 -65 -56.5 -107
c-8.66699 -39.333 -5.5 -73.666 9.5 -102.999s41.5 -44 79.5 -44z" />
    <glyph glyph-name="ntilde" unicode="&#xf1;" horiz-adv-x="544" 
d="M343 456c-38.667 0 -72.332 -18.5 -100.999 -55.5s-50.334 -89.167 -65.001 -156.5l-47 -222c-2 -8.66699 -4.66699 -14.5 -8 -17.5s-9 -4.5 -17 -4.5h-55c-8 0 -13.333 1.5 -16 4.5s-3 8.83301 -1 17.5l102 481c3.33301 15.333 12 23 26 23h55
c8 0 13.167 -1.66699 15.5 -5s2.5 -9.33301 0.5 -18l-11 -52c40 62 97.667 93 173 93c46 0 79.167 -15 99.5 -45s23.833 -76.667 10.5 -140l-50 -236c-6.66699 -29.333 -1 -44 17 -44c6.66699 0 13.667 1 21 3l11 2c4.66699 1.33301 7.66699 1.33301 9 0
s1.33301 -4.33301 0 -9l-10 -50c-2 -10.667 -7.66699 -17.667 -17 -21c-16 -6 -38 -9 -66 -9c-60 0 -82.667 33.333 -68 100l52 244c16 78 -4 117 -60 117zM439.002 678c17.333 0 27.998 8.99902 31.998 26.999c2.66699 6 7.33398 9 14.001 9h34
c7.33301 0 10 -3.66699 8 -11c-6 -28.667 -17.5 -51 -34.5 -67s-37.833 -24 -62.5 -24c-27.333 0 -44.666 8 -51.999 24c-6.66699 10.667 -15 16 -25 16c-15.333 0 -26.666 -9 -33.999 -27c-2.66699 -6 -7.33398 -9 -14.001 -9h-32c-6 0 -8.33301 4 -7 12
c6 28.667 17.333 50.834 34 66.501s37 23.5 61 23.5c24.667 0 41.667 -8.66699 51 -26c4.66699 -9.33301 13.667 -14 27 -14z" />
    <glyph glyph-name="ograve" unicode="&#xf2;" 
d="M68 281c16.667 78.667 47.833 142.166 93.5 190.499s105.167 72.5 178.5 72.5c56.667 0 101 -13.167 133 -39.5s50.667 -60.833 56 -103.5s3 -91 -7 -145c-17.333 -80 -49 -144.833 -95 -194.5s-105.667 -74.5 -179 -74.5c-56 0 -100 13.5 -132 40.5
s-50.5 62.333 -55.5 106s-2.5 92.834 7.5 147.501zM333.999 453.999c-83.333 0 -137.999 -62.667 -163.999 -188c-27.333 -126 0.666992 -189 84 -189s138.666 63 165.999 189c26 125.333 -2.66699 188 -86 188zM426 635.999l-8.99902 -19c-5.33301 -8 -14 -9.66699 -26 -5
l-165 50c-8.66699 2.66699 -9.66699 10.667 -3 24l27 47c7.33301 10 16.333 12 27 6l145 -78c5.33301 -3.33301 8.16602 -6.83301 8.49902 -10.5s-1.16699 -8.5 -4.5 -14.5z" />
    <glyph glyph-name="oacute" unicode="&#xf3;" 
d="M68 281c16.667 78.667 47.833 142.166 93.5 190.499s105.167 72.5 178.5 72.5c56.667 0 101 -13.167 133 -39.5s50.667 -60.833 56 -103.5s3 -91 -7 -145c-17.333 -80 -49 -144.833 -95 -194.5s-105.667 -74.5 -179 -74.5c-56 0 -100 13.5 -132 40.5
s-50.5 62.333 -55.5 106s-2.5 92.834 7.5 147.501zM333.999 453.999c-83.333 0 -137.999 -62.667 -163.999 -188c-27.333 -126 0.666992 -189 84 -189s138.666 63 165.999 189c26 125.333 -2.66699 188 -86 188zM328 618.999l-2.99902 21
c-2.66699 11.333 0.666016 19.333 9.99902 24l168 83c14.667 6 23 3.66699 25 -7l7 -41c2.66699 -14 -2.33301 -23 -15 -27l-173 -60c-10.667 -4 -17 -1.66699 -19 7z" />
    <glyph glyph-name="ocircumflex" unicode="&#xf4;" 
d="M68 281c16.667 78.667 47.833 142.166 93.5 190.499s105.167 72.5 178.5 72.5c56.667 0 101 -13.167 133 -39.5s50.667 -60.833 56 -103.5s3 -91 -7 -145c-17.333 -80 -49 -144.833 -95 -194.5s-105.667 -74.5 -179 -74.5c-56 0 -100 13.5 -132 40.5
s-50.5 62.333 -55.5 106s-2.5 92.834 7.5 147.501zM333.999 453.999c-83.333 0 -137.999 -62.667 -163.999 -188c-27.333 -126 0.666992 -189 84 -189s138.666 63 165.999 189c26 125.333 -2.66699 188 -86 188zM422 616.999l-42.002 59l-66 -59
c-10.667 -8 -22.667 -12 -36 -12h-32c-6 0 -10.167 1 -12.5 3s-2.66602 4.66699 -0.999023 8s5.16699 7 10.5 11l111 97c10.667 9.33301 23.334 14 38.001 14c16 0 27.333 -5 34 -15l71 -96c4.66699 -6.66699 5.66699 -12 3 -16s-8 -6 -16 -6h-35c-12 0 -21 4 -27 12z" />
    <glyph glyph-name="otilde" unicode="&#xf5;" 
d="M68 281c16.667 78.667 47.833 142.166 93.5 190.499s105.167 72.5 178.5 72.5c56.667 0 101 -13.167 133 -39.5s50.667 -60.833 56 -103.5s3 -91 -7 -145c-17.333 -80 -49 -144.833 -95 -194.5s-105.667 -74.5 -179 -74.5c-56 0 -100 13.5 -132 40.5
s-50.5 62.333 -55.5 106s-2.5 92.834 7.5 147.501zM333.999 453.999c-83.333 0 -137.999 -62.667 -163.999 -188c-27.333 -126 0.666992 -189 84 -189s138.666 63 165.999 189c26 125.333 -2.66699 188 -86 188zM425 676.999c18 0 29 8.99902 33 26.999c2 6 6.66699 9 14 9
h34c6 0 8.66699 -3.66699 8 -11c-6.66699 -28.667 -18.5 -51 -35.5 -67s-37.833 -24 -62.5 -24c-26 0 -43.333 8 -52 24c-5.33301 10.667 -13.333 16 -24 16c-15.333 0 -26.666 -9 -33.999 -27c-2.66699 -6 -7.33398 -9 -14.001 -9h-32c-6 0 -8.33301 4 -7 12
c6 28.667 17.333 50.834 34 66.501s37 23.5 61 23.5c25.333 0 42 -8.66699 50 -26c6 -9.33301 15 -14 27 -14z" />
    <glyph glyph-name="odieresis" unicode="&#xf6;" 
d="M68 281c16.667 78.667 47.833 142.166 93.5 190.499s105.167 72.5 178.5 72.5c56.667 0 101 -13.167 133 -39.5s50.667 -60.833 56 -103.5s3 -91 -7 -145c-17.333 -80 -49 -144.833 -95 -194.5s-105.667 -74.5 -179 -74.5c-56 0 -100 13.5 -132 40.5
s-50.5 62.333 -55.5 106s-2.5 92.834 7.5 147.501zM333.999 453.999c-83.333 0 -137.999 -62.667 -163.999 -188c-27.333 -126 0.666992 -189 84 -189s138.666 63 165.999 189c26 125.333 -2.66699 188 -86 188zM243 668.999c4 18 13.1689 33.334 27.502 46.001
s29.166 19 44.499 19s27.166 -5.5 35.499 -16.5s10.5 -25.833 6.5 -44.5c-4.66699 -18.667 -14 -33.834 -28 -45.501s-29 -17.5 -45 -17.5s-27.833 5.33301 -35.5 16s-9.5 25 -5.5 43zM405.002 669c4 18 13.1689 33.334 27.502 46.001s29.166 19 44.499 19
s27.166 -5.5 35.499 -16.5s10.5 -25.833 6.5 -44.5c-4.66699 -18.667 -14 -33.834 -28 -45.501s-29.333 -17.5 -46 -17.5c-15.333 0 -26.833 5.33301 -34.5 16s-9.5 25 -5.5 43z" />
    <glyph glyph-name="divide" unicode="&#xf7;" horiz-adv-x="500" 
d="M478 299h-393c-10 0 -14 5 -12 15l13 59c2 9.33301 7.66699 14 17 14h394c9.33301 0 13 -4.66699 11 -14l-13 -59c-2 -10 -7.66699 -15 -17 -15zM267 530c4.66699 20.667 14.833 37.832 30.5 51.499s31.834 20.5 48.501 20.5s29.667 -6 39 -18s11.666 -28 6.99902 -48
c-4 -20 -13.667 -36.5 -29 -49.5s-32 -19.5 -50 -19.5c-16.667 0 -29.5 5.83301 -38.5 17.5s-11.5 26.834 -7.5 45.501zM179.999 119.998c4.66699 20.667 14.833 37.832 30.5 51.499s31.834 20.5 48.501 20.5s29.667 -6 39 -18s11.666 -28 6.99902 -48
c-4 -20 -13.667 -36.5 -29 -49.5s-32 -19.5 -50 -19.5c-16.667 0 -29.5 5.83301 -38.5 17.5s-11.5 26.834 -7.5 45.501z" />
    <glyph glyph-name="oslash" unicode="&#xf8;" 
d="M95 -42l41.999 71.999c-54 48.667 -68.667 132.334 -44 251.001c16.667 78.667 47.834 142.167 93.501 190.5s105.167 72.5 178.5 72.5c26 0 49 -3 69 -9l41 68c5.33301 11.333 11.666 16 18.999 14l61 -12c6.66699 -1.33301 7 -8 1 -20l-52 -87
c52 -47.333 66.333 -128 43 -242c-17.333 -80 -49 -144.833 -95 -194.5s-105.667 -74.5 -179 -74.5c-24 0 -46 2.66699 -66 8l-33 -58c-6 -9.33301 -12.333 -13 -19 -11l-59 13c-4.66699 1.33301 -7.16699 3 -7.5 5s1.83398 6.66699 6.50098 14zM358.999 453.999
c-83.333 0 -138 -62.667 -164 -188c-12.667 -60.667 -12.667 -106.667 0 -138l190 323c-8 2 -16.667 3 -26 3zM444.999 265.999c12.667 58.667 13.001 103 1.00098 133l-189 -321c4.66699 -0.666992 12 -1 22 -1c83.333 0 138.666 63 165.999 189z" />
    <glyph glyph-name="ugrave" unicode="&#xf9;" horiz-adv-x="553" 
d="M474 123c-6.66699 -29.333 -1 -44.001 17 -44.001c6.66699 0 13.5 0.833008 20.5 2.5s10.833 2.5 11.5 2.5c4.66699 1.33301 7.66699 1.33301 9 0s1.33301 -4.33301 0 -9l-10 -50c-2 -10.667 -7.66699 -17.667 -17 -21c-16 -6 -38 -9 -66 -9
c-21.333 0 -38.833 5 -52.5 15s-20.167 27.667 -19.5 53c-41.333 -46.667 -99.333 -70 -174 -70c-49.333 0 -83.833 13.833 -103.5 41.5s-22.834 73.834 -9.50098 138.501l72 337c3.33301 14.667 12 22 26 22h55c8 0 13.167 -1.5 15.5 -4.5s2.5 -8.83301 0.5 -17.5l-71 -332
c-14 -68.667 6.66699 -103 62 -103c41.333 0 76.333 16.333 105 49s49.334 78.667 62.001 138l53 248c3.33301 14.667 12 22 26 22h54c8.66699 0 14 -1.5 16 -4.5s2 -8.83301 0 -17.5zM430 637.999l-9.00098 -19.001c-5.33301 -8 -14 -9.66699 -26 -5l-164 50
c-10 2.66699 -11 10.667 -3 24l27 47c6.66699 10.667 15.334 12.667 26.001 6l145 -78c6 -3.33301 9.16699 -6.66602 9.5 -9.99902s-1.5 -8.33301 -5.5 -15z" />
    <glyph glyph-name="uacute" unicode="&#xfa;" horiz-adv-x="553" 
d="M474 123c-6.66699 -29.333 -1 -44.001 17 -44.001c6.66699 0 13.5 0.833008 20.5 2.5s10.833 2.5 11.5 2.5c4.66699 1.33301 7.66699 1.33301 9 0s1.33301 -4.33301 0 -9l-10 -50c-2 -10.667 -7.66699 -17.667 -17 -21c-16 -6 -38 -9 -66 -9
c-21.333 0 -38.833 5 -52.5 15s-20.167 27.667 -19.5 53c-41.333 -46.667 -99.333 -70 -174 -70c-49.333 0 -83.833 13.833 -103.5 41.5s-22.834 73.834 -9.50098 138.501l72 337c3.33301 14.667 12 22 26 22h55c8 0 13.167 -1.5 15.5 -4.5s2.5 -8.83301 0.5 -17.5l-71 -332
c-14 -68.667 6.66699 -103 62 -103c41.333 0 76.333 16.333 105 49s49.334 78.667 62.001 138l53 248c3.33301 14.667 12 22 26 22h54c8.66699 0 14 -1.5 16 -4.5s2 -8.83301 0 -17.5zM332 619.999l-2.99902 21.001c-2.66699 10.667 0.666016 18.667 9.99902 24l168 83
c14.667 6 23 3.66699 25 -7l7 -41c1.33301 -8 1.16602 -13.833 -0.500977 -17.5s-6.16699 -6.83398 -13.5 -9.50098l-174 -60c-11.333 -3.33301 -17.666 -1 -18.999 7z" />
    <glyph glyph-name="ucircumflex" unicode="&#xfb;" horiz-adv-x="553" 
d="M474 123c-6.66699 -29.333 -1 -44.001 17 -44.001c6.66699 0 13.5 0.833008 20.5 2.5s10.833 2.5 11.5 2.5c4.66699 1.33301 7.66699 1.33301 9 0s1.33301 -4.33301 0 -9l-10 -50c-2 -10.667 -7.66699 -17.667 -17 -21c-16 -6 -38 -9 -66 -9
c-21.333 0 -38.833 5 -52.5 15s-20.167 27.667 -19.5 53c-41.333 -46.667 -99.333 -70 -174 -70c-49.333 0 -83.833 13.833 -103.5 41.5s-22.834 73.834 -9.50098 138.501l72 337c3.33301 14.667 12 22 26 22h55c8 0 13.167 -1.5 15.5 -4.5s2.5 -8.83301 0.5 -17.5l-71 -332
c-14 -68.667 6.66699 -103 62 -103c41.333 0 76.333 16.333 105 49s49.334 78.667 62.001 138l53 248c3.33301 14.667 12 22 26 22h54c8.66699 0 14 -1.5 16 -4.5s2 -8.83301 0 -17.5zM427 618.999l-41 59.001l-67 -59c-10.667 -8 -22.334 -12 -35.001 -12h-32
c-9.33301 0 -14.333 2 -15 6s3 9.33301 11 16l112 97c10 9.33301 22.667 14 38 14c10 0 16.833 -0.833008 20.5 -2.5s8.16699 -5.83398 13.5 -12.501l70 -96c4.66699 -6.66699 5.83398 -12 3.50098 -16s-7.5 -6 -15.5 -6h-35c-12 0 -21.333 4 -28 12z" />
    <glyph glyph-name="udieresis" unicode="&#xfc;" horiz-adv-x="553" 
d="M474 123c-6.66699 -29.333 -1 -44.001 17 -44.001c6.66699 0 13.5 0.833008 20.5 2.5s10.833 2.5 11.5 2.5c4.66699 1.33301 7.66699 1.33301 9 0s1.33301 -4.33301 0 -9l-10 -50c-2 -10.667 -7.66699 -17.667 -17 -21c-16 -6 -38 -9 -66 -9
c-21.333 0 -38.833 5 -52.5 15s-20.167 27.667 -19.5 53c-41.333 -46.667 -99.333 -70 -174 -70c-49.333 0 -83.833 13.833 -103.5 41.5s-22.834 73.834 -9.50098 138.501l72 337c3.33301 14.667 12 22 26 22h55c8 0 13.167 -1.5 15.5 -4.5s2.5 -8.83301 0.5 -17.5l-71 -332
c-14 -68.667 6.66699 -103 62 -103c41.333 0 76.333 16.333 105 49s49.334 78.667 62.001 138l53 248c3.33301 14.667 12 22 26 22h54c8.66699 0 14 -1.5 16 -4.5s2 -8.83301 0 -17.5zM247 669.999c4 18 13.1689 33.334 27.502 46.001s29.166 19 44.499 19
s27.166 -5.5 35.499 -16.5s10.5 -25.833 6.5 -44.5s-13.167 -33.834 -27.5 -45.501s-29.5 -17.5 -45.5 -17.5s-27.833 5.33301 -35.5 16s-9.5 25 -5.5 43zM409.002 670c4 18 13.1689 33.334 27.502 46.001s29.166 19 44.499 19s27.166 -5.5 35.499 -16.5
s10.5 -25.833 6.5 -44.5s-13.167 -33.834 -27.5 -45.501s-29.833 -17.5 -46.5 -17.5c-15.333 0 -26.833 5.33301 -34.5 16s-9.5 25 -5.5 43z" />
    <glyph glyph-name="yacute" unicode="&#xfd;" horiz-adv-x="527" 
d="M149 -164c100.667 0 163.002 55.001 187.002 165.001l14 65c-40 -52 -96.667 -78 -170 -78c-52 0 -88 13.667 -108 41s-23 73.666 -9 138.999l73 342c3.33301 14.667 12.333 22 27 22h53c8.66699 0 14.167 -1.5 16.5 -4.5s2.5 -8.83301 0.5 -17.5l-70 -327
c-14 -68.667 7 -103 63 -103c41.333 0 76.166 15.5 104.499 46.5s48.166 74.833 59.499 131.5l54 252c2 8.66699 4.66699 14.5 8 17.5s9.33301 4.5 18 4.5h54c8.66699 0 14 -1.5 16 -4.5s2 -8.83301 0 -17.5l-110 -517c-34.667 -164.667 -134.667 -247 -300 -247
c-63.333 0 -111 8 -143 24c-10.667 5.33301 -14.667 14 -12 26l10 51c2.66699 14 10.667 18.667 24 14c46 -16.667 92.667 -25 140 -25zM316.002 620.001l-2.99902 21.001c-2.66699 10.667 0.666016 18.667 9.99902 24l168 83c14.667 6 23 3.66699 25 -7l7 -41
c1.33301 -8 1.16602 -13.833 -0.500977 -17.5s-6.16699 -6.83398 -13.5 -9.50098l-174 -60c-11.333 -3.33301 -17.666 -1 -18.999 7z" />
    <glyph glyph-name="thorn" unicode="&#xfe;" horiz-adv-x="536" 
d="M281 720l-59.001 -275c48 64.667 106.333 97 175 97c118.667 0 159.334 -89.333 122.001 -268c-20 -92 -53.667 -162.833 -101 -212.5s-104.333 -74.5 -171 -74.5c-42 0 -80.667 10.333 -116 31l-32 -154c-3.33301 -14.667 -12 -22.334 -26 -23.001h-57
c-12 0 -16.667 7.33301 -14 22l15 72l166 784c3.33301 14.667 12 22.334 26 23.001h57c12.667 0 17.667 -7.33301 15 -22zM352.999 454c-76 0 -131.999 -61.667 -167.999 -185l-34 -160c21.333 -22.667 53.666 -34 96.999 -34c85.333 0 142.333 66.333 171 199
c26 120 4 180 -66 180z" />
    <glyph glyph-name="ydieresis" unicode="&#xff;" horiz-adv-x="527" 
d="M149 -164c100.667 0 163.002 55.001 187.002 165.001l14 65c-40 -52 -96.667 -78 -170 -78c-52 0 -88 13.667 -108 41s-23 73.666 -9 138.999l73 342c3.33301 14.667 12.333 22 27 22h53c8.66699 0 14.167 -1.5 16.5 -4.5s2.5 -8.83301 0.5 -17.5l-70 -327
c-14 -68.667 7 -103 63 -103c41.333 0 76.166 15.5 104.499 46.5s48.166 74.833 59.499 131.5l54 252c2 8.66699 4.66699 14.5 8 17.5s9.33301 4.5 18 4.5h54c8.66699 0 14 -1.5 16 -4.5s2 -8.83301 0 -17.5l-110 -517c-34.667 -164.667 -134.667 -247 -300 -247
c-63.333 0 -111 8 -143 24c-10.667 5.33301 -14.667 14 -12 26l10 51c2.66699 14 10.667 18.667 24 14c46 -16.667 92.667 -25 140 -25zM231.002 670.001c4 18 13.1689 33.334 27.502 46.001s29.166 19 44.499 19s27.166 -5.5 35.499 -16.5s10.5 -25.833 6.5 -44.5
s-13.167 -33.834 -27.5 -45.501s-29.5 -17.5 -45.5 -17.5s-27.833 5.33301 -35.5 16s-9.5 25 -5.5 43zM393.004 670.002c4 18 13.1689 33.334 27.502 46.001s29.166 19 44.499 19s27.166 -5.5 35.499 -16.5s10.5 -25.833 6.5 -44.5s-13.167 -33.834 -27.5 -45.501
s-29.833 -17.5 -46.5 -17.5c-15.333 0 -26.833 5.33301 -34.5 16s-9.5 25 -5.5 43z" />
    <glyph glyph-name="Amacron" unicode="&#x100;" horiz-adv-x="601" 
d="M462 17l-13.0029 173h-260l-90 -173c-6.66699 -11.333 -16.334 -17 -29.001 -17h-61c-14.667 -0 -17.667 8.33301 -9 25l358 678c6.66699 12.667 15.334 19 26.001 19h92c6.66699 0 11.5 -1.16699 14.5 -3.5s4.83301 -7.5 5.5 -15.5l70 -678
c0.666992 -10 -0.666016 -16.667 -3.99902 -20s-8.66602 -5 -15.999 -5h-62c-13.333 0 -20.666 5.66699 -21.999 17zM414.997 629l-183 -356h211zM563.997 798h-224.999c-15.333 0 -19 18 -11 54c2.66699 16.667 12 25 28 25h216c9.33301 0 14.666 -4.66699 15.999 -14
s0 -21.333 -4 -36c-4 -19.333 -10.667 -29 -20 -29z" />
    <glyph glyph-name="amacron" unicode="&#x101;" horiz-adv-x="561" 
d="M558 532c8 0 13.166 -1.33203 15.499 -3.99902s2.5 -8 0.5 -16l-83 -392c-6 -27.333 0 -41 18 -41c6.66699 0 13.5 0.833008 20.5 2.5s10.833 2.5 11.5 2.5c4.66699 1.33301 7.66699 1.33301 9 0s1.33301 -4.33301 0 -9l-10 -50c-2 -10 -7.66699 -17 -17 -21
c-15.333 -6 -37.333 -9 -66 -9c-24.667 0 -42 6.83301 -52 20.5s-13.667 38.5 -11 74.5c-47.333 -68.667 -107 -103 -179 -103c-56.667 0 -96.834 22.667 -120.501 68s-25.5 115 -5.5 209c17.333 83.333 49.333 149.666 96 198.999s102.334 76 167.001 80
c21.333 0 34 -0.333008 38 -1c36.667 -2.66699 65 -16 85 -40l3 13c1.33301 6.66699 3.83301 11.167 7.5 13.5s9.83398 3.5 18.501 3.5h54zM259.999 77.001c74 0 128.666 60.999 163.999 182.999l33 156c-19.333 25.333 -50 38 -92 38c-44.667 0 -82.167 -19.667 -112.5 -59
s-51.833 -88.666 -64.5 -147.999c-12 -48.667 -12.167 -89.167 -0.5 -121.5s35.834 -48.5 72.501 -48.5zM516.998 616l-224.998 0.000976562c-8.66699 0 -13.667 4.16699 -15 12.5s0 22.166 4 41.499c3.33301 16.667 12.666 25 27.999 25h216
c15.333 0 19.666 -16.667 12.999 -50c-4 -19.333 -11 -29 -21 -29z" />
    <glyph glyph-name="Abreve" unicode="&#x102;" horiz-adv-x="601" 
d="M462 17l-13.0029 173h-260l-90 -173c-6.66699 -11.333 -16.334 -17 -29.001 -17h-61c-14.667 -0 -17.667 8.33301 -9 25l358 678c6.66699 12.667 15.334 19 26.001 19h92c6.66699 0 11.5 -1.16699 14.5 -3.5s4.83301 -7.5 5.5 -15.5l70 -678
c0.666992 -10 -0.666016 -16.667 -3.99902 -20s-8.66602 -5 -15.999 -5h-62c-13.333 0 -20.666 5.66699 -21.999 17zM414.997 629l-183 -356h211zM456.997 853c33.333 0 52.999 13.667 58.999 41c1.33301 7.33301 6.33301 11 15 11h41c8 0 11 -4.66699 9 -14
c-7.33301 -33.333 -23.166 -59.333 -47.499 -78s-54.833 -28 -91.5 -28s-62.667 9.33301 -78 28s-19.333 44.667 -12 78c2 9.33301 6.66699 14 14 14h41c8 0 11.667 -3.66699 11 -11c-6 -27.333 7 -41 39 -41z" />
    <glyph glyph-name="abreve" unicode="&#x103;" horiz-adv-x="561" 
d="M558 532c8 0 13.166 -1.33203 15.499 -3.99902s2.5 -8 0.5 -16l-83 -392c-6 -27.333 0 -41 18 -41c6.66699 0 13.5 0.833008 20.5 2.5s10.833 2.5 11.5 2.5c4.66699 1.33301 7.66699 1.33301 9 0s1.33301 -4.33301 0 -9l-10 -50c-2 -10 -7.66699 -17 -17 -21
c-15.333 -6 -37.333 -9 -66 -9c-24.667 0 -42 6.83301 -52 20.5s-13.667 38.5 -11 74.5c-47.333 -68.667 -107 -103 -179 -103c-56.667 0 -96.834 22.667 -120.501 68s-25.5 115 -5.5 209c17.333 83.333 49.333 149.666 96 198.999s102.334 76 167.001 80
c21.333 0 34 -0.333008 38 -1c36.667 -2.66699 65 -16 85 -40l3 13c1.33301 6.66699 3.83301 11.167 7.5 13.5s9.83398 3.5 18.501 3.5h54zM259.999 77.001c74 0 128.666 60.999 163.999 182.999l33 156c-19.333 25.333 -50 38 -92 38c-44.667 0 -82.167 -19.667 -112.5 -59
s-51.833 -88.666 -64.5 -147.999c-12 -48.667 -12.167 -89.167 -0.5 -121.5s35.834 -48.5 72.501 -48.5zM408.998 670c33.333 0 52.999 13.667 58.999 41c1.33301 7.33301 6.33301 11 15 11h41c8 0 11 -4.66699 9 -14c-7.33301 -33.333 -23.166 -59.333 -47.499 -78
s-54.833 -28 -91.5 -28s-62.667 9.33301 -78 28s-19.333 44.667 -12 78c2 9.33301 6.66699 14 14 14h41c8 0 11.667 -3.66699 11 -11c-6 -27.333 7 -41 39 -41z" />
    <glyph glyph-name="Aogonek" unicode="&#x104;" horiz-adv-x="601" 
d="M462 17l-13.0029 173.001h-260l-90 -173c-6.66699 -11.333 -16.334 -17 -29.001 -17h-61c-14.667 0 -17.667 8.33301 -9 25l358 678c6.66699 12.667 15.334 19 26.001 19h92c6.66699 0 11.5 -1.16699 14.5 -3.5s4.83301 -7.5 5.5 -15.5l70 -678
c0.666992 -10 -0.666016 -16.667 -3.99902 -20s-8.66602 -5 -15.999 -5h-9c-38 -24.667 -60.333 -53.667 -67 -87c-5.33301 -25.333 4.66699 -38 30 -38c14.667 0 27.667 2.66699 39 8c14.667 5.33301 22 4 22 -4l-6 -31c-0.666992 -10.667 -5.66699 -18.334 -15 -23.001
c-22 -10 -46 -15 -72 -15c-29.333 0 -51.5 6.83301 -66.5 20.5s-19.5 34.167 -13.5 61.5c9.33301 42.667 41.333 78.667 96 108c-13.333 0 -20.666 5.66699 -21.999 17zM414.997 629.001l-183 -356h211z" />
    <glyph glyph-name="aogonek" unicode="&#x105;" horiz-adv-x="561" 
d="M558 532c8 0 13.165 -1.33008 15.498 -3.99707s2.5 -8 0.5 -16l-83 -392c-6 -27.333 0 -41 18 -41c6.66699 0 13.5 0.833008 20.5 2.5s10.833 2.5 11.5 2.5c4.66699 1.33301 7.66699 1.33301 9 0s1.33301 -4.33301 0 -9l-10 -50c-2 -10 -7.66699 -17 -17 -21
c-12.667 -4.66699 -27.667 -7.33398 -45 -8.00098c-36 -24.667 -57.333 -53.334 -64 -86.001c-3.33301 -15.333 -2.16602 -25.5 3.50098 -30.5s14.5 -7.5 26.5 -7.5c15.333 0 28.333 2.66699 39 8c6.66699 3.33301 12.167 4.83301 16.5 4.5
s6.16602 -3.16602 5.49902 -8.49902l-5 -31c-2 -10.667 -7 -18.334 -15 -23.001c-22 -10 -46.333 -15 -73 -15c-29.333 0 -51.5 6.83301 -66.5 20.5s-19.5 34.167 -13.5 61.5c8.66699 42.667 41.334 79 98.001 109c-28.667 8 -40.667 38.667 -36 92
c-47.333 -68.667 -107 -103 -179 -103c-56.667 0 -96.834 22.667 -120.501 68s-25.5 115 -5.5 209c17.333 83.333 49.333 149.666 96 198.999s102.334 76 167.001 80c21.333 0 34 -0.333008 38 -1c36.667 -2.66699 65 -16 85 -40l3 13
c1.33301 6.66699 3.83301 11.167 7.5 13.5s9.83398 3.5 18.501 3.5h54zM259.998 77.0029c74 0 128.666 60.999 163.999 182.999l33 156c-19.333 25.333 -50 38 -92 38c-44.667 0 -82.167 -19.667 -112.5 -59s-51.833 -88.666 -64.5 -147.999
c-12 -48.667 -12.167 -89.167 -0.5 -121.5s35.834 -48.5 72.501 -48.5z" />
    <glyph glyph-name="Cacute" unicode="&#x106;" horiz-adv-x="587" 
d="M447 778l-4 20.999c-2 11.333 1.33301 19.333 10 24l169 83c14 6.66699 22.333 4.33398 25 -6.99902l7 -41c2 -14 -3 -23 -15 -27l-174 -60c-10 -4 -16 -1.66699 -18 7zM229 352.999c-39.333 -183.333 14.001 -274.998 160.001 -274.998c54 0 109.333 11.333 166 34
c8 4 14 5.5 18 4.5s5 -5.5 3 -13.5l-11 -53c-2 -11.333 -8.33301 -19.666 -19 -24.999c-45.333 -24 -106.333 -36 -183 -36c-108.667 0 -182.167 33.167 -220.5 99.5s-44.833 159.166 -19.5 278.499c23.333 112.667 68.166 201.667 134.499 267s151.833 98 256.5 98
c35.333 0 69.333 -3.5 102 -10.5s55.334 -15.833 68.001 -26.5c6.66699 -4.66699 8.66699 -13.334 6 -26.001l-11 -51c-2.66699 -12.667 -9.33398 -16 -20.001 -10c-1.33301 0.666992 -7 3 -17 7s-18.5 7.16699 -25.5 9.5s-16.5 5.16602 -28.5 8.49902
s-24.5 5.83301 -37.5 7.5s-26.167 2.5 -39.5 2.5c-77.333 0 -139 -26.333 -185 -79s-78.333 -123 -97 -211z" />
    <glyph glyph-name="cacute" unicode="&#x107;" horiz-adv-x="453" 
d="M196 269c-13.333 -63.333 -11.0029 -110.498 6.99707 -141.498s49 -46.5 93 -46.5c28.667 0 65.334 8 110.001 24c8 3.33301 13.833 4.16602 17.5 2.49902s4.5 -6.5 2.5 -14.5l-10 -50c-3.33301 -12.667 -9.66602 -21 -18.999 -25c-36.667 -17.333 -81 -26 -133 -26
c-78 0 -131.167 24.833 -159.5 74.5s-32.5 121.5 -12.5 215.5c18 84.667 51.333 149.5 100 194.5s111.667 67.5 189 67.5c48.667 0 88.667 -8.33301 120 -25c10.667 -5.33301 14.667 -13 12 -23l-12 -58c-3.33301 -10.667 -9.66602 -13.667 -18.999 -9
c-2 0.666992 -7.33301 3 -16 7s-16.167 7.16699 -22.5 9.5s-15.333 4.66602 -27 6.99902s-24.167 3.5 -37.5 3.5c-96 0 -157 -62.333 -183 -187zM348.997 620.002l-2.99805 21.001c-2.66699 10.667 0.666016 18.667 9.99902 24l168 83c14.667 6 23 3.66699 25 -7l7 -41
c1.33301 -8 1.16602 -13.833 -0.500977 -17.5s-6.16699 -6.83398 -13.5 -9.50098l-174 -60c-10.667 -3.33301 -17 -1 -19 7z" />
    <glyph glyph-name="Ccircumflex" unicode="&#x108;" horiz-adv-x="587" 
d="M593 772l-42.002 59l-66 -59c-11.333 -8 -23.333 -12 -36 -12h-32c-6 0 -10.167 1 -12.5 3s-2.66602 4.66699 -0.999023 8s5.16699 7 10.5 11l111 97c10.667 9.33301 23.334 14 38.001 14c16 0 27.333 -5 34 -15l71 -96c4.66699 -6.66699 5.66699 -12 3 -16s-8 -6 -16 -6
h-35c-12 0 -21 4 -27 12zM228.998 353c-39.333 -183.333 14.001 -274.998 160.001 -274.998c54 0 109.333 11.333 166 34c8 4 14 5.5 18 4.5s5 -5.5 3 -13.5l-11 -53c-2 -11.333 -8.33301 -19.666 -19 -24.999c-45.333 -24 -106.333 -36 -183 -36
c-108.667 0 -182.167 33.167 -220.5 99.5s-44.833 159.166 -19.5 278.499c23.333 112.667 68.166 201.667 134.499 267s151.833 98 256.5 98c35.333 0 69.333 -3.5 102 -10.5s55.334 -15.833 68.001 -26.5c6.66699 -4.66699 8.66699 -13.334 6 -26.001l-11 -51
c-2.66699 -12.667 -9.33398 -16 -20.001 -10c-1.33301 0.666992 -7 3 -17 7s-18.5 7.16699 -25.5 9.5s-16.5 5.16602 -28.5 8.49902s-24.5 5.83301 -37.5 7.5s-26.167 2.5 -39.5 2.5c-77.333 0 -139 -26.333 -185 -79s-78.333 -123 -97 -211z" />
    <glyph glyph-name="ccircumflex" unicode="&#x109;" horiz-adv-x="453" 
d="M196 269c-13.333 -63.333 -11.0029 -110.498 6.99707 -141.498s49 -46.5 93 -46.5c28.667 0 65.334 8 110.001 24c8 3.33301 13.833 4.16602 17.5 2.49902s4.5 -6.5 2.5 -14.5l-10 -50c-3.33301 -12.667 -9.66602 -21 -18.999 -25c-36.667 -17.333 -81 -26 -133 -26
c-78 0 -131.167 24.833 -159.5 74.5s-32.5 121.5 -12.5 215.5c18 84.667 51.333 149.5 100 194.5s111.667 67.5 189 67.5c48.667 0 88.667 -8.33301 120 -25c10.667 -5.33301 14.667 -13 12 -23l-12 -58c-3.33301 -10.667 -9.66602 -13.667 -18.999 -9
c-2 0.666992 -7.33301 3 -16 7s-16.167 7.16699 -22.5 9.5s-15.333 4.66602 -27 6.99902s-24.167 3.5 -37.5 3.5c-96 0 -157 -62.333 -183 -187zM443.997 619.002l-41 59.001l-67 -59c-10.667 -8 -22.334 -12 -35.001 -12h-32c-9.33301 0 -14.333 2 -15 6s3 9.33301 11 16
l112 97c10 9.33301 22.667 14 38 14c10 0 16.833 -0.833008 20.5 -2.5s8.16699 -5.83398 13.5 -12.501l70 -96c4.66699 -6.66699 5.83398 -12 3.50098 -16s-7.5 -6 -15.5 -6h-35c-12 0 -21.333 4 -28 12z" />
    <glyph glyph-name="Cdotaccent" unicode="&#x10a;" horiz-adv-x="587" 
d="M486 829c4.66699 20.667 14.835 37.667 30.502 51s32.167 20 49.5 20c16.667 0 29.5 -6 38.5 -18s11.5 -27.667 7.5 -47c-4.66699 -20.667 -14.834 -37.334 -30.501 -50.001s-32.5 -19 -50.5 -19c-16.667 0 -29.334 5.83301 -38.001 17.5s-11 26.834 -7 45.501z
M229.001 353c-39.333 -183.333 14.001 -274.998 160.001 -274.998c54 0 109.333 11.333 166 34c8 4 14 5.5 18 4.5s5 -5.5 3 -13.5l-11 -53c-2 -11.333 -8.33301 -19.666 -19 -24.999c-45.333 -24 -106.333 -36 -183 -36c-108.667 0 -182.167 33.167 -220.5 99.5
s-44.833 159.166 -19.5 278.499c23.333 112.667 68.166 201.667 134.499 267s151.833 98 256.5 98c35.333 0 69.333 -3.5 102 -10.5s55.334 -15.833 68.001 -26.5c6.66699 -4.66699 8.66699 -13.334 6 -26.001l-11 -51c-2.66699 -12.667 -9.33398 -16 -20.001 -10
c-1.33301 0.666992 -7 3 -17 7s-18.5 7.16699 -25.5 9.5s-16.5 5.16602 -28.5 8.49902s-24.5 5.83301 -37.5 7.5s-26.167 2.5 -39.5 2.5c-77.333 0 -139 -26.333 -185 -79s-78.333 -123 -97 -211z" />
    <glyph glyph-name="cdotaccent" unicode="&#x10b;" horiz-adv-x="453" 
d="M196 269c-13.333 -63.333 -11.0029 -110.498 6.99707 -141.498s49 -46.5 93 -46.5c28.667 0 65.334 8 110.001 24c8 3.33301 13.833 4.16602 17.5 2.49902s4.5 -6.5 2.5 -14.5l-10 -50c-3.33301 -12.667 -9.66602 -21 -18.999 -25c-36.667 -17.333 -81 -26 -133 -26
c-78 0 -131.167 24.833 -159.5 74.5s-32.5 121.5 -12.5 215.5c18 84.667 51.333 149.5 100 194.5s111.667 67.5 189 67.5c48.667 0 88.667 -8.33301 120 -25c10.667 -5.33301 14.667 -13 12 -23l-12 -58c-3.33301 -10.667 -9.66602 -13.667 -18.999 -9
c-2 0.666992 -7.33301 3 -16 7s-16.167 7.16699 -22.5 9.5s-15.333 4.66602 -27 6.99902s-24.167 3.5 -37.5 3.5c-96 0 -157 -62.333 -183 -187zM340.997 675.002c4.66699 20.667 15.167 38.167 31.5 52.5s33.5 21.5 51.5 21.5c17.333 0 30.666 -6.16699 39.999 -18.5
s12 -29.166 8 -50.499c-4.66699 -20.667 -15 -37.834 -31 -51.501s-33.333 -20.5 -52 -20.5c-18 0 -31.667 6.16699 -41 18.5s-11.666 28.5 -6.99902 48.5z" />
    <glyph glyph-name="Ccaron" unicode="&#x10c;" horiz-adv-x="587" 
d="M511 881l37 -57.999l62 58c9.33301 8.66699 20.333 13 33 13h55c6 0 7.66699 -3 5 -9c-0.666992 -2.66699 -3 -5.33398 -7 -8.00098l-122 -102c-10.667 -9.33301 -23.667 -14 -39 -14c-10 0 -16.667 0.833008 -20 2.5s-8 5.5 -14 11.5l-78 102
c-2.66699 4 -3.16699 7.83301 -1.5 11.5s4.5 5.5 8.5 5.5h55c8 0 13.333 -0.666992 16 -2s6 -5 10 -11zM229 353.001c-39.333 -183.333 14.001 -274.998 160.001 -274.998c54 0 109.333 11.333 166 34c8 4 14 5.5 18 4.5s5 -5.5 3 -13.5l-11 -53
c-2 -11.333 -8.33301 -19.666 -19 -24.999c-45.333 -24 -106.333 -36 -183 -36c-108.667 0 -182.167 33.167 -220.5 99.5s-44.833 159.166 -19.5 278.499c23.333 112.667 68.166 201.667 134.499 267s151.833 98 256.5 98c35.333 0 69.333 -3.5 102 -10.5
s55.334 -15.833 68.001 -26.5c6.66699 -4.66699 8.66699 -13.334 6 -26.001l-11 -51c-2.66699 -12.667 -9.33398 -16 -20.001 -10c-1.33301 0.666992 -7 3 -17 7s-18.5 7.16699 -25.5 9.5s-16.5 5.16602 -28.5 8.49902s-24.5 5.83301 -37.5 7.5s-26.167 2.5 -39.5 2.5
c-77.333 0 -139 -26.333 -185 -79s-78.333 -123 -97 -211z" />
    <glyph glyph-name="ccaron" unicode="&#x10d;" horiz-adv-x="453" 
d="M196 269c-13.333 -63.333 -11.0029 -110.498 6.99707 -141.498s49 -46.5 93 -46.5c28.667 0 65.334 8 110.001 24c8 3.33301 13.833 4.16602 17.5 2.49902s4.5 -6.5 2.5 -14.5l-10 -50c-3.33301 -12.667 -9.66602 -21 -18.999 -25c-36.667 -17.333 -81 -26 -133 -26
c-78 0 -131.167 24.833 -159.5 74.5s-32.5 121.5 -12.5 215.5c18 84.667 51.333 149.5 100 194.5s111.667 67.5 189 67.5c48.667 0 88.667 -8.33301 120 -25c10.667 -5.33301 14.667 -13 12 -23l-12 -58c-3.33301 -10.667 -9.66602 -13.667 -18.999 -9
c-2 0.666992 -7.33301 3 -16 7s-16.167 7.16699 -22.5 9.5s-15.333 4.66602 -27 6.99902s-24.167 3.5 -37.5 3.5c-96 0 -157 -62.333 -183 -187zM363.997 728.002l38 -57.999l61 58c10 8.66699 21 13 33 13h55c6 0 7.66699 -3 5 -9
c-0.666992 -2.66699 -3 -5.33398 -7 -8.00098l-121 -102c-12 -9.33301 -25 -14 -39 -14c-10 0 -16.833 0.833008 -20.5 2.5s-8.16699 5.5 -13.5 11.5l-79 102c-2.66699 4 -3.16699 7.83301 -1.5 11.5s4.5 5.5 8.5 5.5h55c8 0 13.5 -0.666992 16.5 -2s6.16699 -5 9.5 -11z
" />
    <glyph glyph-name="Dcaron" unicode="&#x10e;" horiz-adv-x="651" 
d="M67 0c-8 0 -13.333 1.5 -16 4.5s-3 8.83301 -1 17.5l144 678c2 8.66699 4.83301 14.5 8.5 17.5s9.5 4.5 17.5 4.5h141c124 0 209.333 -30 256 -90s57.334 -150.667 32.001 -272c-26 -122 -74.833 -212.5 -146.5 -271.5s-168.834 -88.5 -291.501 -88.5h-144zM164 84h63
c89.333 0 159 21.5 209 64.5s85.333 113.5 106 211.5c21.333 99.333 15.5 170.5 -17.5 213.5s-94.167 64.5 -183.5 64.5h-59zM408 875l37.999 -57.998l61 58c10 8.66699 21 13 33 13h55c2.66699 0 4.5 -0.833008 5.5 -2.5s1 -3.83398 0 -6.50098
s-3.16699 -5.33398 -6.5 -8.00098l-122 -102c-11.333 -9.33301 -24.333 -14 -39 -14c-10 0 -16.833 0.833008 -20.5 2.5s-8.16699 5.5 -13.5 11.5l-78 102c-3.33301 4 -4.16602 7.83301 -2.49902 11.5s4.5 5.5 8.5 5.5h55c8 0 13.5 -0.666992 16.5 -2s6.16699 -5 9.5 -11z
" />
    <glyph glyph-name="dcaron" unicode="&#x10f;" horiz-adv-x="605" 
d="M486 112c-2 -12 -2.66797 -21.999 -2.00098 -29.999l-6 -62c0 -13.333 -6 -20 -18 -20h-61c-6 0 -10 1.16699 -12 3.5s-3.33301 7.16602 -4 14.499l2 53c-48 -56 -105.667 -84 -173 -84c-56 0 -95.833 21.167 -119.5 63.5s-26.5 106.833 -8.5 193.5
c20 94 54.5 167.5 103.5 220.5s107.167 79.5 174.5 79.5c47.333 0 84 -14 110 -42l51 239c2 8.66699 4.83301 14.5 8.5 17.5s9.83398 4.5 18.501 4.5h54c8 0 13.167 -1.5 15.5 -4.5s2.5 -8.83301 0.5 -17.5zM256.999 77.001c74 0 128.666 60.999 163.999 182.999l33 156
c-19.333 25.333 -50 38 -92 38c-44.667 0 -82.167 -19.667 -112.5 -59s-51.833 -88.666 -64.5 -147.999c-12 -48.667 -12.167 -89.167 -0.5 -121.5s35.834 -48.5 72.501 -48.5zM651.998 552l30 193c1.33301 7.33301 5.83301 12.5 13.5 15.5s22.167 4.5 43.5 4.5
s35.333 -1.5 42 -4.5s9 -8.16699 7 -15.5l-53 -193c-2.66699 -12.667 -17.667 -19 -45 -19c-16 0 -26.5 1.33301 -31.5 4s-7.16699 7.66699 -6.5 15z" />
    <glyph glyph-name="Dcroat" unicode="&#x110;" horiz-adv-x="662" 
d="M86 0c-8.66699 0 -14.334 1.5 -17.001 4.5s-3 8.83301 -1 17.5l69 325h-55c-16 0 -19.667 17.667 -11 53c2.66699 16.667 12 25 28 25h55l58 275c2 8.66699 4.83301 14.5 8.5 17.5s9.83398 4.5 18.501 4.5h140c124 0 209.333 -30 256 -90s57.334 -150.667 32.001 -272
c-26 -122 -74.833 -212.5 -146.5 -271.5s-168.834 -88.5 -291.501 -88.5h-143zM256 425h102.001c9.33301 0 14.666 -4.66699 15.999 -14s0 -21.333 -4 -36c-4 -18.667 -10.667 -28 -20 -28h-111l-56 -263h62c89.333 0 159.166 21.5 209.499 64.5s85.833 113.5 106.5 211.5
c21.333 99.333 15.333 170.5 -18 213.5s-94.666 64.5 -183.999 64.5h-58z" />
    <glyph glyph-name="dcroat" unicode="&#x111;" horiz-adv-x="537" 
d="M423 705l92.002 0.000976562l7 30c4 18.667 11.667 28 23 28h63c6 0.666992 9.83301 -1.33301 11.5 -6s1.5 -12 -0.5 -22l-7 -30h55c6.66699 0 10.667 -1.33301 12 -4s1.33301 -7 0 -13l-12 -54c-1.33301 -7.33301 -3.33301 -12.166 -6 -14.499
s-7.33398 -3.5 -14.001 -3.5h-54l-107 -504c-2 -12 -2.66699 -22 -2 -30l-6 -62c0 -13.333 -6 -20 -18 -20h-61c-6 0 -10 1.16699 -12 3.5s-3.33301 7.16602 -4 14.499l2 53c-48 -56 -105.667 -84 -173 -84c-56 0 -95.833 21.167 -119.5 63.5s-26.5 106.833 -8.5 193.5
c20 94 54.5 167.5 103.5 220.5s107.167 79.5 174.5 79.5c47.333 0 84 -14 110 -42l24 114h-92c-6.66699 0 -10.834 1.16699 -12.501 3.5s-1.83398 7.16602 -0.500977 14.499l12 54c1.33301 6.66699 3.33301 11.167 6 13.5s7.33398 3.5 14.001 3.5zM257.002 77.001
c74 0 128.666 60.999 163.999 182.999l33 156c-19.333 25.333 -50 38 -92 38c-44.667 0 -82.167 -19.667 -112.5 -59s-51.833 -88.666 -64.5 -147.999c-12 -48.667 -12.167 -89.167 -0.5 -121.5s35.834 -48.5 72.501 -48.5z" />
    <glyph glyph-name="Emacron" unicode="&#x112;" horiz-adv-x="517" 
d="M67 0c-8 0 -13.3311 1.5 -15.998 4.5s-3 8.83301 -1 17.5l144 678c2 8.66699 4.83301 14.5 8.5 17.5s9.5 4.5 17.5 4.5h349c8.66699 0 14 -1.5 16 -4.5s2 -8.83301 0 -17.5l-8 -39c-2 -9.33301 -4.66699 -15.5 -8 -18.5s-9.33301 -4.5 -18 -4.5h-269l-48 -226h223
c8.66699 0 14.167 -1.5 16.5 -4.5s2.5 -9.16699 0.5 -18.5l-8 -38c-2 -9.33301 -4.83301 -15.5 -8.5 -18.5s-9.83398 -4.5 -18.501 -4.5h-223l-52 -244h281c8.66699 0 14.167 -1.5 16.5 -4.5s2.5 -9.16699 0.5 -18.5l-8 -39c-1.33301 -8.66699 -3.83301 -14.5 -7.5 -17.5
s-9.83398 -4.5 -18.501 -4.5h-361zM536.002 798h-224.999c-15.333 0 -19 18 -11 54c2.66699 16.667 12 25 28 25h216c9.33301 0 14.666 -4.66699 15.999 -14s0 -21.333 -4 -36c-4 -19.333 -10.667 -29 -20 -29z" />
    <glyph glyph-name="emacron" unicode="&#x113;" horiz-adv-x="510" 
d="M389 544c140 0 197.001 -61.332 171.001 -183.999c-12.667 -59.333 -39.667 -101.833 -81 -127.5s-90 -38.5 -146 -38.5c-48 0 -90.667 8 -128 24c-6.66699 -50 0 -85.667 20 -107s54.333 -32 103 -32c47.333 0 92 8 134 24c22.667 8.66699 35 13 37 13
c7.33301 0 10 -3.33301 8 -10l-12 -55c-2 -10.667 -10.333 -19.334 -25 -26.001c-46 -22 -97.667 -33 -155 -33c-170 0 -235.667 94.667 -197 284c17.333 82 49.666 147.167 96.999 195.5s105.333 72.5 174 72.5zM379.001 457.001c-36 0 -67.668 -13.833 -95.001 -41.5
s-48.666 -68.167 -63.999 -121.5c38 -14 77.667 -21 119 -21c72.667 0 116 31.333 130 94c12.667 60 -17.333 90 -90 90zM533 614.001h-224.999c-15.333 0 -19.333 18 -12 54c3.33301 16.667 13 25 29 25h216c9.33301 0 14.666 -4.66699 15.999 -14s0 -21.333 -4 -36
c-4 -19.333 -10.667 -29 -20 -29z" />
    <glyph glyph-name="Ebreve" unicode="&#x114;" horiz-adv-x="517" 
d="M67 0c-8 0 -13.3311 1.5 -15.998 4.5s-3 8.83301 -1 17.5l144 678c2 8.66699 4.83301 14.5 8.5 17.5s9.5 4.5 17.5 4.5h349c8.66699 0 14 -1.5 16 -4.5s2 -8.83301 0 -17.5l-8 -39c-2 -9.33301 -4.66699 -15.5 -8 -18.5s-9.33301 -4.5 -18 -4.5h-269l-48 -226h223
c8.66699 0 14.167 -1.5 16.5 -4.5s2.5 -9.16699 0.5 -18.5l-8 -38c-2 -9.33301 -4.83301 -15.5 -8.5 -18.5s-9.83398 -4.5 -18.501 -4.5h-223l-52 -244h281c8.66699 0 14.167 -1.5 16.5 -4.5s2.5 -9.16699 0.5 -18.5l-8 -39c-1.33301 -8.66699 -3.83301 -14.5 -7.5 -17.5
s-9.83398 -4.5 -18.501 -4.5h-361zM428.002 853c33.333 0 52.999 13.667 58.999 41c1.33301 7.33301 6.33301 11 15 11h41c8 0 11 -4.66699 9 -14c-7.33301 -33.333 -23.166 -59.333 -47.499 -78s-54.833 -28 -91.5 -28s-62.667 9.33301 -78 28s-19.333 44.667 -12 78
c2 9.33301 6.66699 14 14 14h41c8 0 11.667 -3.66699 11 -11c-6 -27.333 7 -41 39 -41z" />
    <glyph glyph-name="ebreve" unicode="&#x115;" horiz-adv-x="510" 
d="M389 544c140 0 197.001 -61.332 171.001 -183.999c-12.667 -59.333 -39.667 -101.833 -81 -127.5s-90 -38.5 -146 -38.5c-48 0 -90.667 8 -128 24c-6.66699 -50 0 -85.667 20 -107s54.333 -32 103 -32c47.333 0 92 8 134 24c22.667 8.66699 35 13 37 13
c7.33301 0 10 -3.33301 8 -10l-12 -55c-2 -10.667 -10.333 -19.334 -25 -26.001c-46 -22 -97.667 -33 -155 -33c-170 0 -235.667 94.667 -197 284c17.333 82 49.666 147.167 96.999 195.5s105.333 72.5 174 72.5zM379.001 457.001c-36 0 -67.668 -13.833 -95.001 -41.5
s-48.666 -68.167 -63.999 -121.5c38 -14 77.667 -21 119 -21c72.667 0 116 31.333 130 94c12.667 60 -17.333 90 -90 90zM424 668.001c34 0 53.666 13.667 58.999 41c2 7.33301 7.33301 11 16 11h41c8 0 11 -4.66699 9 -14c-7.33301 -33.333 -23.166 -59.333 -47.499 -78
s-54.833 -28 -91.5 -28s-62.667 9.33301 -78 28s-19.333 44.667 -12 78c1.33301 9.33301 6 14 14 14h41c8.66699 0 12 -3.66699 10 -11c-5.33301 -27.333 7.66699 -41 39 -41z" />
    <glyph glyph-name="Edotaccent" unicode="&#x116;" horiz-adv-x="517" 
d="M67 0c-8 0 -13.3311 1.5 -15.998 4.5s-3 8.83301 -1 17.5l144 678c2 8.66699 4.83301 14.5 8.5 17.5s9.5 4.5 17.5 4.5h349c8.66699 0 14 -1.5 16 -4.5s2 -8.83301 0 -17.5l-8 -39c-2 -9.33301 -4.66699 -15.5 -8 -18.5s-9.33301 -4.5 -18 -4.5h-269l-48 -226h223
c8.66699 0 14.167 -1.5 16.5 -4.5s2.5 -9.16699 0.5 -18.5l-8 -38c-2 -9.33301 -4.83301 -15.5 -8.5 -18.5s-9.83398 -4.5 -18.501 -4.5h-223l-52 -244h281c8.66699 0 14.167 -1.5 16.5 -4.5s2.5 -9.16699 0.5 -18.5l-8 -39c-1.33301 -8.66699 -3.83301 -14.5 -7.5 -17.5
s-9.83398 -4.5 -18.501 -4.5h-361zM368.002 858c4.66699 20.667 15.167 38.167 31.5 52.5s33.5 21.5 51.5 21.5c17.333 0 30.666 -6.16699 39.999 -18.5s12 -29.166 8 -50.499c-4.66699 -20.667 -15 -37.834 -31 -51.501s-33.333 -20.5 -52 -20.5
c-18 0 -31.667 6.16699 -41 18.5s-11.666 28.5 -6.99902 48.5z" />
    <glyph glyph-name="edotaccent" unicode="&#x117;" horiz-adv-x="510" 
d="M389 544c140 0 197.001 -61.332 171.001 -183.999c-12.667 -59.333 -39.667 -101.833 -81 -127.5s-90 -38.5 -146 -38.5c-48 0 -90.667 8 -128 24c-6.66699 -50 0 -85.667 20 -107s54.333 -32 103 -32c47.333 0 92 8 134 24c22.667 8.66699 35 13 37 13
c7.33301 0 10 -3.33301 8 -10l-12 -55c-2 -10.667 -10.333 -19.334 -25 -26.001c-46 -22 -97.667 -33 -155 -33c-170 0 -235.667 94.667 -197 284c17.333 82 49.666 147.167 96.999 195.5s105.333 72.5 174 72.5zM379.001 457.001c-36 0 -67.668 -13.833 -95.001 -41.5
s-48.666 -68.167 -63.999 -121.5c38 -14 77.667 -21 119 -21c72.667 0 116 31.333 130 94c12.667 60 -17.333 90 -90 90zM365 673.001c4.66699 21.333 15 39 31 53s33 21 51 21c17.333 0 30.833 -6.16699 40.5 -18.5s12.5 -29.166 8.5 -50.499
c-4.66699 -20.667 -15.167 -37.834 -31.5 -51.501s-33.833 -20.5 -52.5 -20.5c-18 0 -31.5 6.16699 -40.5 18.5s-11.167 28.5 -6.5 48.5z" />
    <glyph glyph-name="Eogonek" unicode="&#x118;" horiz-adv-x="517" 
d="M66 0c-8 0 -13.335 1.50098 -16.002 4.50098s-3 8.83301 -1 17.5l144 678c2 8.66699 4.83301 14.5 8.5 17.5s9.5 4.5 17.5 4.5h349c8.66699 0 14.167 -1.5 16.5 -4.5s2.5 -8.83301 0.5 -17.5l-8 -39c-2 -9.33301 -4.83301 -15.5 -8.5 -18.5s-9.83398 -4.5 -18.501 -4.5
h-268l-48 -226h223c8.66699 0 14 -1.5 16 -4.5s2 -9.16699 0 -18.5l-8 -38c-2 -9.33301 -4.66699 -15.5 -8 -18.5s-9.33301 -4.5 -18 -4.5h-223l-52 -244h280c8.66699 0 14.167 -1.5 16.5 -4.5s2.5 -9.16699 0.5 -18.5l-8 -39c-2.66699 -14 -9 -21.333 -19 -22
c-42.667 -25.333 -68 -56.333 -76 -93c-3.33301 -15.333 -2.16602 -25.5 3.50098 -30.5s14.5 -7.5 26.5 -7.5c14.667 0 27.334 2.66699 38.001 8c15.333 6 23 4.66699 23 -4l-6 -31c-0.666992 -10.667 -5.66699 -18.334 -15 -23.001c-22 -10 -46 -15 -72 -15
c-29.333 0 -51.666 6.83301 -66.999 20.5s-20 34.167 -14 61.5c9.33301 44.667 45.333 82.667 108 114h-317z" />
    <glyph glyph-name="eogonek" unicode="&#x119;" horiz-adv-x="510" 
d="M384 544c140 0 196.999 -61.333 170.999 -184c-12.667 -59.333 -39.667 -101.833 -81 -127.5s-90 -38.5 -146 -38.5c-48 0 -90.667 8 -128 24c-6.66699 -50 0 -85.667 20 -107s54.333 -32 103 -32c47.333 0 92 8 134 24c22.667 8.66699 35 13 37 13
c7.33301 0 10 -3.33301 8 -10l-12 -55c-2 -10.667 -10.333 -19.334 -25 -26.001c-44.667 -21.333 -95 -32.333 -151 -33c-28 -22 -45 -47.333 -51 -76c-3.33301 -15.333 -2.16602 -25.5 3.50098 -30.5s14.5 -7.5 26.5 -7.5c14.667 0 27.334 2.66699 38.001 8
c6.66699 3.33301 12.167 4.83301 16.5 4.5s6.16602 -3.16602 5.49902 -8.49902l-5 -31c-2 -10.667 -7 -18.334 -15 -23.001c-22 -10 -46 -15 -72 -15c-29.333 0 -51.666 6.83301 -66.999 20.5s-20 34.167 -14 61.5c8.66699 38.667 35.667 72 81 100
c-134 16.667 -183.333 110.334 -148 281.001c17.333 82 49.666 147.167 96.999 195.5s105.333 72.5 174 72.5zM373.999 457c-36 0 -67.668 -13.833 -95.001 -41.5s-48.666 -68.167 -63.999 -121.5c38 -14 77.667 -21 119 -21c72.667 0 116 31.333 130 94
c12.667 60 -17.333 90 -90 90z" />
    <glyph glyph-name="Ecaron" unicode="&#x11a;" horiz-adv-x="517" 
d="M67 0c-8 0 -13.3311 1.5 -15.998 4.5s-3 8.83301 -1 17.5l144 678c2 8.66699 4.83301 14.5 8.5 17.5s9.5 4.5 17.5 4.5h349c8.66699 0 14 -1.5 16 -4.5s2 -8.83301 0 -17.5l-8 -39c-2 -9.33301 -4.66699 -15.5 -8 -18.5s-9.33301 -4.5 -18 -4.5h-269l-48 -226h223
c8.66699 0 14.167 -1.5 16.5 -4.5s2.5 -9.16699 0.5 -18.5l-8 -38c-2 -9.33301 -4.83301 -15.5 -8.5 -18.5s-9.83398 -4.5 -18.501 -4.5h-223l-52 -244h281c8.66699 0 14.167 -1.5 16.5 -4.5s2.5 -9.16699 0.5 -18.5l-8 -39c-1.33301 -8.66699 -3.83301 -14.5 -7.5 -17.5
s-9.83398 -4.5 -18.501 -4.5h-361zM391.002 911l38 -57.999l61 58c9.33301 8.66699 20.333 13 33 13h55c6 0 7.66699 -3 5 -9c-0.666992 -2.66699 -3 -5.33398 -7 -8.00098l-121 -102c-12 -9.33301 -25 -14 -39 -14c-10 0 -16.833 0.833008 -20.5 2.5
s-8.16699 5.5 -13.5 11.5l-79 102c-2.66699 4 -3.16699 7.83301 -1.5 11.5s4.5 5.5 8.5 5.5h55c8 0 13.333 -0.666992 16 -2s6 -5 10 -11z" />
    <glyph glyph-name="ecaron" unicode="&#x11b;" horiz-adv-x="510" 
d="M389 544c140 0 197.001 -61.332 171.001 -183.999c-12.667 -59.333 -39.667 -101.833 -81 -127.5s-90 -38.5 -146 -38.5c-48 0 -90.667 8 -128 24c-6.66699 -50 0 -85.667 20 -107s54.333 -32 103 -32c47.333 0 92 8 134 24c22.667 8.66699 35 13 37 13
c7.33301 0 10 -3.33301 8 -10l-12 -55c-2 -10.667 -10.333 -19.334 -25 -26.001c-46 -22 -97.667 -33 -155 -33c-170 0 -235.667 94.667 -197 284c17.333 82 49.666 147.167 96.999 195.5s105.333 72.5 174 72.5zM379.001 457.001c-36 0 -67.668 -13.833 -95.001 -41.5
s-48.666 -68.167 -63.999 -121.5c38 -14 77.667 -21 119 -21c72.667 0 116 31.333 130 94c12.667 60 -17.333 90 -90 90zM389 726.001l37 -57.999l62 58c9.33301 8.66699 20.333 13 33 13h55c6 0 7.66699 -3 5 -9c-0.666992 -2.66699 -3 -5.33398 -7 -8.00098l-122 -102
c-10.667 -9.33301 -23.667 -14 -39 -14c-10 0 -16.667 0.833008 -20 2.5s-8 5.5 -14 11.5l-78 102c-2.66699 4 -3.16699 7.83301 -1.5 11.5s4.5 5.5 8.5 5.5h55c8 0 13.333 -0.666992 16 -2s6 -5 10 -11z" />
    <glyph glyph-name="Gcircumflex" unicode="&#x11c;" horiz-adv-x="657" 
d="M448 299l10.999 52.002c2.66699 12 8.66699 18 18 18h190c10 0 14 -4.66699 12 -14l-62 -292c-2.66699 -11.333 -6 -19.166 -10 -23.499s-11.667 -8.5 -23 -12.5c-60.667 -26 -130.667 -39 -210 -39c-100.667 0 -174.167 32.333 -220.5 97s-56.5 159.667 -30.5 285
c24 114 70.5 202.667 139.5 266s155.833 95 260.5 95c50 0 92.667 -6 128 -18s60 -25 74 -39c5.33301 -6.66699 7 -14.334 5 -23.001l-12 -56c-1.33301 -6.66699 -4.33301 -10.834 -9 -12.501s-9.66699 -0.166992 -15 4.5c-46.667 37.333 -104.667 56 -174 56
c-80 0 -143.833 -26.333 -191.5 -79s-80.834 -122 -99.501 -208c-18.667 -88.667 -14.167 -157.334 13.5 -206.001s79.834 -73 156.501 -73c38.667 0 81.667 7.66699 129 23l38 181h-108c-9.33301 0 -12.666 6 -9.99902 18zM596.999 802.002l-41.001 59.001l-67 -59
c-10.667 -8 -22.667 -12 -36 -12h-32c-6 0 -10.167 1 -12.5 3s-2.66602 4.66699 -0.999023 8s5.16699 7 10.5 11l112 97c10 9.33301 22.667 14 38 14c10 0 16.833 -0.833008 20.5 -2.5s8.16699 -5.83398 13.5 -12.501l70 -96c4.66699 -6.66699 5.66699 -12 3 -16
s-8 -6 -16 -6h-35c-11.333 0 -20.333 4 -27 12z" />
    <glyph glyph-name="gcircumflex" unicode="&#x11d;" 
d="M156 -164c100.667 0 163 55 187 165l16 78c-44.667 -61.333 -101.334 -92 -170.001 -92c-56 0 -95.833 21.167 -119.5 63.5s-26.5 106.833 -8.5 193.5c18.667 88.667 50.667 158.834 96 210.501s99 80.5 161 86.5c18.667 2 33.667 2.33301 45 1
c36.667 -2.66699 65.334 -16 86.001 -40l3 13c1.33301 6.66699 3.83301 11.167 7.5 13.5s9.5 3.5 17.5 3.5h54c8.66699 0 14.167 -1.5 16.5 -4.5s2.5 -8.83301 0.5 -17.5l-110 -517c-34.667 -164.667 -134.667 -247 -300 -247c-64.667 0 -114 8 -148 24
c-8 3.33301 -11 10.666 -9 21.999l12 55c2.66699 12.667 10 16.667 22 12c42.667 -15.333 89.667 -23 141 -23zM234 77c74 0 128.667 61 164 183l33 156c-19.333 25.333 -50 38 -92 38c-45.333 0 -83 -19.5 -113 -58.5s-51.333 -88.5 -64 -148.5
c-12.667 -48.667 -13.167 -89.167 -1.5 -121.5s36.167 -48.5 73.5 -48.5zM417 619l-41 59.001l-67 -59c-10.667 -8 -22.334 -12 -35.001 -12h-32c-9.33301 0 -14.333 2 -15 6s3 9.33301 11 16l112 97c10 9.33301 22.667 14 38 14c10 0 16.833 -0.833008 20.5 -2.5
s8.16699 -5.83398 13.5 -12.501l70 -96c4.66699 -6.66699 5.83398 -12 3.50098 -16s-7.5 -6 -15.5 -6h-35c-12 0 -21.333 4 -28 12z" />
    <glyph glyph-name="Gbreve" unicode="&#x11e;" horiz-adv-x="657" 
d="M448 299l10.999 52.002c2.66699 12 8.66699 18 18 18h190c10 0 14 -4.66699 12 -14l-62 -292c-2.66699 -11.333 -6 -19.166 -10 -23.499s-11.667 -8.5 -23 -12.5c-60.667 -26 -130.667 -39 -210 -39c-100.667 0 -174.167 32.333 -220.5 97s-56.5 159.667 -30.5 285
c24 114 70.5 202.667 139.5 266s155.833 95 260.5 95c50 0 92.667 -6 128 -18s60 -25 74 -39c5.33301 -6.66699 7 -14.334 5 -23.001l-12 -56c-1.33301 -6.66699 -4.33301 -10.834 -9 -12.501s-9.66699 -0.166992 -15 4.5c-46.667 37.333 -104.667 56 -174 56
c-80 0 -143.833 -26.333 -191.5 -79s-80.834 -122 -99.501 -208c-18.667 -88.667 -14.167 -157.334 13.5 -206.001s79.834 -73 156.501 -73c38.667 0 81.667 7.66699 129 23l38 181h-108c-9.33301 0 -12.666 6 -9.99902 18zM552.999 853.002
c33.333 0 52.999 13.667 58.999 41c1.33301 7.33301 6.33301 11 15 11h41c8 0 11 -4.66699 9 -14c-7.33301 -33.333 -23.166 -59.333 -47.499 -78s-54.833 -28 -91.5 -28s-62.667 9.33301 -78 28s-19.333 44.667 -12 78c2 9.33301 6.66699 14 14 14h41
c8 0 11.667 -3.66699 11 -11c-6 -27.333 7 -41 39 -41z" />
    <glyph glyph-name="gbreve" unicode="&#x11f;" 
d="M156 -164c100.667 0 163 55 187 165l16 78c-44.667 -61.333 -101.334 -92 -170.001 -92c-56 0 -95.833 21.167 -119.5 63.5s-26.5 106.833 -8.5 193.5c18.667 88.667 50.667 158.834 96 210.501s99 80.5 161 86.5c18.667 2 33.667 2.33301 45 1
c36.667 -2.66699 65.334 -16 86.001 -40l3 13c1.33301 6.66699 3.83301 11.167 7.5 13.5s9.5 3.5 17.5 3.5h54c8.66699 0 14.167 -1.5 16.5 -4.5s2.5 -8.83301 0.5 -17.5l-110 -517c-34.667 -164.667 -134.667 -247 -300 -247c-64.667 0 -114 8 -148 24
c-8 3.33301 -11 10.666 -9 21.999l12 55c2.66699 12.667 10 16.667 22 12c42.667 -15.333 89.667 -23 141 -23zM234 77c74 0 128.667 61 164 183l33 156c-19.333 25.333 -50 38 -92 38c-45.333 0 -83 -19.5 -113 -58.5s-51.333 -88.5 -64 -148.5
c-12.667 -48.667 -13.167 -89.167 -1.5 -121.5s36.167 -48.5 73.5 -48.5zM373 670c33.333 0 52.999 13.667 58.999 41c1.33301 7.33301 6.33301 11 15 11h41c8 0 11 -4.66699 9 -14c-7.33301 -33.333 -23.166 -59.333 -47.499 -78s-54.833 -28 -91.5 -28
s-62.667 9.33301 -78 28s-19.333 44.667 -12 78c2 9.33301 6.66699 14 14 14h41c8 0 11.667 -3.66699 11 -11c-6 -27.333 7 -41 39 -41z" />
    <glyph glyph-name="Gdotaccent" unicode="&#x120;" horiz-adv-x="657" 
d="M480 856c4.66699 20 15 36.832 31 50.499s32.333 20.5 49 20.5s29.5 -6 38.5 -18s11.5 -28 7.5 -48c-4.66699 -20 -14.667 -36.333 -30 -49s-32 -19 -50 -19c-16.667 0 -29.5 5.83301 -38.5 17.5s-11.5 26.834 -7.5 45.501zM448 298.999l10.999 52.002
c2.66699 12 8.66699 18 18 18h190c10 0 14 -4.66699 12 -14l-62 -292c-2.66699 -11.333 -6 -19.166 -10 -23.499s-11.667 -8.5 -23 -12.5c-60.667 -26 -130.667 -39 -210 -39c-100.667 0 -174.167 32.333 -220.5 97s-56.5 159.667 -30.5 285c24 114 70.5 202.667 139.5 266
s155.833 95 260.5 95c50 0 92.667 -6 128 -18s60 -25 74 -39c5.33301 -6.66699 7 -14.334 5 -23.001l-12 -56c-1.33301 -6.66699 -4.33301 -10.834 -9 -12.501s-9.66699 -0.166992 -15 4.5c-46.667 37.333 -104.667 56 -174 56c-80 0 -143.833 -26.333 -191.5 -79
s-80.834 -122 -99.501 -208c-18.667 -88.667 -14.167 -157.334 13.5 -206.001s79.834 -73 156.501 -73c38.667 0 81.667 7.66699 129 23l38 181h-108c-9.33301 0 -12.666 6 -9.99902 18z" />
    <glyph glyph-name="gdotaccent" unicode="&#x121;" 
d="M156 -164c100.667 0 163 55 187 165l16 78c-44.667 -61.333 -101.334 -92 -170.001 -92c-56 0 -95.833 21.167 -119.5 63.5s-26.5 106.833 -8.5 193.5c18.667 88.667 50.667 158.834 96 210.501s99 80.5 161 86.5c18.667 2 33.667 2.33301 45 1
c36.667 -2.66699 65.334 -16 86.001 -40l3 13c1.33301 6.66699 3.83301 11.167 7.5 13.5s9.5 3.5 17.5 3.5h54c8.66699 0 14.167 -1.5 16.5 -4.5s2.5 -8.83301 0.5 -17.5l-110 -517c-34.667 -164.667 -134.667 -247 -300 -247c-64.667 0 -114 8 -148 24
c-8 3.33301 -11 10.666 -9 21.999l12 55c2.66699 12.667 10 16.667 22 12c42.667 -15.333 89.667 -23 141 -23zM234 77c74 0 128.667 61 164 183l33 156c-19.333 25.333 -50 38 -92 38c-45.333 0 -83 -19.5 -113 -58.5s-51.333 -88.5 -64 -148.5
c-12.667 -48.667 -13.167 -89.167 -1.5 -121.5s36.167 -48.5 73.5 -48.5zM313 675c4.66699 20.667 15.167 38.167 31.5 52.5s33.5 21.5 51.5 21.5c17.333 0 30.666 -6.16699 39.999 -18.5s12 -29.166 8 -50.499c-4.66699 -20.667 -15 -37.834 -31 -51.501
s-33.333 -20.5 -52 -20.5c-18 0 -31.667 6.16699 -41 18.5s-11.666 28.5 -6.99902 48.5z" />
    <glyph glyph-name="Gcommaaccent" unicode="&#x122;" horiz-adv-x="657" 
d="M448 299l10.999 52.002c2.66699 12 8.66699 18 18 18h190c10 0 14 -4.66699 12 -14l-62 -292c-2.66699 -11.333 -6 -19.166 -10 -23.499s-11.667 -8.5 -23 -12.5c-60.667 -26 -130.667 -39 -210 -39c-100.667 0 -174.167 32.333 -220.5 97s-56.5 159.667 -30.5 285
c24 114 70.5 202.667 139.5 266s155.833 95 260.5 95c50 0 92.667 -6 128 -18s60 -25 74 -39c5.33301 -6.66699 7 -14.334 5 -23.001l-12 -56c-1.33301 -6.66699 -4.33301 -10.834 -9 -12.501s-9.66699 -0.166992 -15 4.5c-46.667 37.333 -104.667 56 -174 56
c-80 0 -143.833 -26.333 -191.5 -79s-80.834 -122 -99.501 -208c-18.667 -88.667 -14.167 -157.334 13.5 -206.001s79.834 -73 156.501 -73c38.667 0 81.667 7.66699 129 23l38 181h-108c-9.33301 0 -12.666 6 -9.99902 18zM258.999 -133.998
c4 18 12.832 33.001 26.499 45.001s27.834 18 42.501 18s25.834 -5.83301 33.501 -17.5s9.16699 -27.834 4.5 -48.501c-10.667 -52 -50.334 -104.667 -119.001 -158c-8 -6 -13.333 -7 -16 -3l-9 11c-3.33301 6 -1.33301 12 6 18c29.333 24 50.333 50.333 63 79
c-12.667 1.33301 -22 7 -28 17s-7.33301 23 -4 39z" />
    <glyph glyph-name="gcommaaccent" unicode="&#x123;" 
d="M156 -164c100.667 0 163 55 187 165l16 78c-44.667 -61.333 -101.334 -92 -170.001 -92c-56 0 -95.833 21.167 -119.5 63.5s-26.5 106.833 -8.5 193.5c18.667 88.667 50.667 158.834 96 210.501s99 80.5 161 86.5c18.667 2 33.667 2.33301 45 1
c36.667 -2.66699 65.334 -16 86.001 -40l3 13c1.33301 6.66699 3.83301 11.167 7.5 13.5s9.5 3.5 17.5 3.5h54c8.66699 0 14.167 -1.5 16.5 -4.5s2.5 -8.83301 0.5 -17.5l-110 -517c-34.667 -164.667 -134.667 -247 -300 -247c-64.667 0 -114 8 -148 24
c-8 3.33301 -11 10.666 -9 21.999l12 55c2.66699 12.667 10 16.667 22 12c42.667 -15.333 89.667 -23 141 -23zM234 77c74 0 128.667 61 164 183l33 156c-19.333 25.333 -50 38 -92 38c-45.333 0 -83 -19.5 -113 -58.5s-51.333 -88.5 -64 -148.5
c-12.667 -48.667 -13.167 -89.167 -1.5 -121.5s36.167 -48.5 73.5 -48.5zM442 679c-4.66699 -22 -14.333 -39.6641 -29 -52.9971s-32 -20 -52 -20c-18 0 -31.167 6.83301 -39.5 20.5s-9.83301 32.5 -4.5 56.5c11.333 55.333 57 115.666 137 180.999
c8.66699 7.33301 15.667 7.66602 21 0.999023l7 -10c4.66699 -6 2.66699 -13 -6 -21c-36 -32 -59.667 -62 -71 -90c14.667 -1.33301 25.5 -7.83301 32.5 -19.5s8.5 -26.834 4.5 -45.501z" />
    <glyph glyph-name="Hcircumflex" unicode="&#x124;" horiz-adv-x="651" 
d="M50 22l144 678c2 8.66699 4.83301 14.5 8.5 17.5s9.5 4.5 17.5 4.5h59c8.66699 0 14 -1.5 16 -4.5s2 -8.83301 0 -17.5l-62 -291h291l62 291c2 8.66699 4.83301 14.5 8.5 17.5s9.5 4.5 17.5 4.5h59c8.66699 0 14 -1.5 16 -4.5s2 -8.83301 0 -17.5l-144 -678
c-2 -9.33301 -4.5 -15.333 -7.5 -18s-8.83301 -4 -17.5 -4h-59c-8 0 -13.333 1.5 -16 4.5s-3 8.83301 -1 17.5l65 303h-291l-65 -303c-2 -9.33301 -4.5 -15.333 -7.5 -18s-8.83301 -4 -17.5 -4h-59c-8 0 -13.333 1.5 -16 4.5s-3 8.83301 -1 17.5zM516 802l-41.001 59.001
l-67 -59c-10.667 -8 -22.667 -12 -36 -12h-32c-6 0 -10.167 1 -12.5 3s-2.66602 4.66699 -0.999023 8s5.16699 7 10.5 11l112 97c10 9.33301 22.667 14 38 14c10 0 16.833 -0.833008 20.5 -2.5s8.16699 -5.83398 13.5 -12.501l70 -96c4.66699 -6.66699 5.66699 -12 3 -16
s-8 -6 -16 -6h-35c-11.333 0 -20.333 4 -27 12z" />
    <glyph glyph-name="hcircumflex" unicode="&#x125;" horiz-adv-x="522" 
d="M187 741c2 9.33301 4.66797 15.333 8.00098 18s9.33301 4 18 4h55c8 0 13.167 -1.33301 15.5 -4s2.5 -8.66699 0.5 -18l-62 -290c40 62 97.667 93 173 93c46 0 79.167 -15 99.5 -45s23.833 -76.667 10.5 -140l-72 -337c-2 -9.33301 -4.5 -15.333 -7.5 -18
s-8.83301 -4 -17.5 -4h-54c-8.66699 0 -14.334 1.5 -17.001 4.5s-3 8.83301 -1 17.5l68 317c16 78 -4 117 -60 117c-38 0 -71 -17.5 -99 -52.5s-49.667 -84.833 -65 -149.5l-49 -232c-2 -8.66699 -4.66699 -14.5 -8 -17.5s-9 -4.5 -17 -4.5h-55c-8 0 -13.333 1.5 -16 4.5
s-3 8.83301 -1 17.5zM472.001 618l-42.002 59.001l-66 -59c-10.667 -8 -22.667 -12 -36 -12h-32c-6 0 -10.167 1 -12.5 3s-2.66602 4.66699 -0.999023 8s5.16699 7 10.5 11l112 97c10 9.33301 22.667 14 38 14c10 0 16.833 -0.833008 20.5 -2.5
s7.83398 -5.83398 12.501 -12.501l71 -96c4.66699 -6.66699 5.66699 -12 3 -16s-8 -6 -16 -6h-35c-11.333 0 -20.333 4 -27 12z" />
    <glyph glyph-name="Hbar" unicode="&#x126;" horiz-adv-x="667" 
d="M513 325l-289.998 0.000976562l-65 -303c-2 -9.33301 -4.5 -15.333 -7.5 -18s-8.83301 -4 -17.5 -4h-59c-8.66699 0 -14.167 1.5 -16.5 4.5s-2.5 8.83301 -0.5 17.5l106 498h-50c-8.66699 0 -13.834 4.16699 -15.501 12.5s-0.166992 22.166 4.5 41.499
c2.66699 16.667 12 25 28 25h50l21 101c2 8.66699 4.66699 14.5 8 17.5s9.33301 4.5 18 4.5h59c8.66699 0 14 -1.5 16 -4.5s2 -8.83301 0 -17.5l-21 -102l289 -1l22 103c2 8.66699 4.83301 14.5 8.5 17.5s9.5 4.5 17.5 4.5h59c8.66699 0 14.167 -1.5 16.5 -4.5
s2.5 -8.83301 0.5 -17.5l-22 -103h52c15.333 0 19.666 -16.667 12.999 -50c-4 -18.667 -10.667 -28 -20 -28h-61l-106 -497c-2 -8.66699 -4.66699 -14.5 -8 -17.5s-9.33301 -4.5 -18 -4.5h-59c-8 0 -13.333 1.5 -16 4.5s-3 8.83301 -1 17.5zM264.002 520.001l-24 -111h290
l24 110z" />
    <glyph glyph-name="hbar" unicode="&#x127;" horiz-adv-x="522" 
d="M334 585h-82.998l-29 -134c40 62 97.667 93 173 93c46 0 79.167 -15 99.5 -45s23.833 -76.667 10.5 -140l-72 -337c-2 -9.33301 -4.5 -15.333 -7.5 -18s-8.83301 -4 -17.5 -4h-54c-8.66699 0 -14.334 1.5 -17.001 4.5s-3 8.83301 -1 17.5l68 317c16 78 -4 117 -60 117
c-38 0 -71 -17.5 -99 -52.5s-49.667 -84.833 -65 -149.5l-49 -232c-2 -8.66699 -4.66699 -14.5 -8 -17.5s-9 -4.5 -17 -4.5h-55c-8 0 -13.333 1.5 -16 4.5s-3 8.83301 -1 17.5l120 563h-45c-15.333 0 -19.333 18 -12 54c3.33301 16.667 13 25 29 25h45l16 77
c2 9.33301 4.66699 15.333 8 18s9.33301 4 18 4h55c8 0 13.167 -1.33301 15.5 -4s2.5 -8.66699 0.5 -18l-16 -77h74c9.33301 0 14.666 -4.66699 15.999 -14s0 -21.333 -4 -36c-4 -19.333 -10.667 -29 -20 -29z" />
    <glyph glyph-name="Itilde" unicode="&#x128;" horiz-adv-x="259" 
d="M50 22l144 678c2 8.66699 4.83301 14.5 8.5 17.5s9.5 4.5 17.5 4.5h59c8.66699 0 14 -1.5 16 -4.5s2 -8.83301 0 -17.5l-144 -678c-2 -9.33301 -4.5 -15.333 -7.5 -18s-8.83301 -4 -17.5 -4h-59c-8 0 -13.333 1.5 -16 4.5s-3 8.83301 -1 17.5zM324 861
c17.333 0 28 8.99902 32 26.999c3.33301 6 8 9 14 9h34c7.33301 0 10 -3.66699 8 -11c-6.66699 -28.667 -18.5 -51 -35.5 -67s-37.833 -24 -62.5 -24c-26.667 0 -43.667 8 -51 24c-6.66699 10.667 -15 16 -25 16c-15.333 0 -26.666 -9 -33.999 -27
c-2.66699 -6 -7.33398 -9 -14.001 -9h-32c-6 0 -8.33301 4 -7 12c6 28.667 17.333 50.834 34 66.501s37 23.5 61 23.5c25.333 0 42 -8.66699 50 -26c6 -9.33301 15.333 -14 28 -14z" />
    <glyph glyph-name="itilde" unicode="&#x129;" horiz-adv-x="223" 
d="M131 22c-2 -8.66699 -4.66699 -14.5 -8 -17.5s-9 -4.5 -17 -4.5h-55c-8 0 -13.333 1.5 -16 4.5s-3 8.83301 -1 17.5l104 488c3.33301 14.667 12 22 26 22h55c8 0 13.167 -1.5 15.5 -4.5s2.5 -8.83301 0.5 -17.5zM268 678c17.333 0 27.999 8.99902 31.999 26.999
c3.33301 6 8 9 14 9h34c7.33301 0 10 -3.66699 8 -11c-6 -28.667 -17.5 -51 -34.5 -67s-37.833 -24 -62.5 -24c-27.333 0 -44.666 8 -51.999 24c-6.66699 10.667 -15 16 -25 16c-15.333 0 -26.666 -9 -33.999 -27c-2.66699 -6 -7.33398 -9 -14.001 -9h-32
c-6 0 -8.33301 4 -7 12c6 28.667 17.333 50.834 34 66.501s37 23.5 61 23.5c24.667 0 41.667 -8.66699 51 -26c4.66699 -9.33301 13.667 -14 27 -14z" />
    <glyph glyph-name="Imacron" unicode="&#x12a;" horiz-adv-x="259" 
d="M50 22l144 678c2 8.66699 4.83301 14.5 8.5 17.5s9.5 4.5 17.5 4.5h59c8.66699 0 14 -1.5 16 -4.5s2 -8.83301 0 -17.5l-144 -678c-2 -9.33301 -4.5 -15.333 -7.5 -18s-8.83301 -4 -17.5 -4h-59c-8 0 -13.333 1.5 -16 4.5s-3 8.83301 -1 17.5zM383 798h-224.999
c-15.333 0 -19 18 -11 54c2.66699 16.667 12 25 28 25h216c9.33301 0 14.666 -4.66699 15.999 -14s0 -21.333 -4 -36c-4 -19.333 -10.667 -29 -20 -29z" />
    <glyph glyph-name="imacron" unicode="&#x12b;" horiz-adv-x="223" 
d="M131 22c-2 -8.66699 -4.66699 -14.5 -8 -17.5s-9 -4.5 -17 -4.5h-55c-8 0 -13.333 1.5 -16 4.5s-3 8.83301 -1 17.5l104 488c3.33301 14.667 12 22 26 22h55c8 0 13.167 -1.5 15.5 -4.5s2.5 -8.83301 0.5 -17.5zM329 616l-224.998 0.000976562
c-8.66699 0 -13.667 4.16699 -15 12.5s0 22.166 4 41.499c3.33301 16.667 12.666 25 27.999 25h216c15.333 0 19.666 -16.667 12.999 -50c-4 -19.333 -11 -29 -21 -29z" />
    <glyph glyph-name="Ibreve" unicode="&#x12c;" horiz-adv-x="260" 
d="M50 22l144 678c2 8.66699 4.83301 14.5 8.5 17.5s9.5 4.5 17.5 4.5h59c8.66699 0 14 -1.5 16 -4.5s2 -8.83301 0 -17.5l-144 -678c-2 -9.33301 -4.5 -15.333 -7.5 -18s-8.83301 -4 -17.5 -4h-59c-8 0 -13.333 1.5 -16 4.5s-3 8.83301 -1 17.5zM276 853
c33.333 0 52.999 13.667 58.999 41c1.33301 7.33301 6.33301 11 15 11h41c8 0 11 -4.66699 9 -14c-7.33301 -33.333 -23.166 -59.333 -47.499 -78s-54.833 -28 -91.5 -28s-62.667 9.33301 -78 28s-19.333 44.667 -12 78c2 9.33301 6.66699 14 14 14h41
c8 0 11.667 -3.66699 11 -11c-6 -27.333 7 -41 39 -41z" />
    <glyph glyph-name="ibreve" unicode="&#x12d;" horiz-adv-x="223" 
d="M131 22c-2 -8.66699 -4.66699 -14.5 -8 -17.5s-9 -4.5 -17 -4.5h-55c-8 0 -13.333 1.5 -16 4.5s-3 8.83301 -1 17.5l104 488c3.33301 14.667 12 22 26 22h55c8 0 13.167 -1.5 15.5 -4.5s2.5 -8.83301 0.5 -17.5zM221 670c33.333 0 52.999 13.667 58.999 41
c1.33301 7.33301 6.33301 11 15 11h41c8 0 11 -4.66699 9 -14c-7.33301 -33.333 -23.166 -59.333 -47.499 -78s-54.833 -28 -91.5 -28s-62.667 9.33301 -78 28s-19.333 44.667 -12 78c2 9.33301 6.66699 14 14 14h41c8 0 11.667 -3.66699 11 -11c-6 -27.333 7 -41 39 -41z
" />
    <glyph glyph-name="Iogonek" unicode="&#x12e;" horiz-adv-x="260" 
d="M157 22c-2 -8.66699 -4.66992 -14.501 -8.00293 -17.501s-9 -4.5 -17 -4.5h-12c-35.333 -25.333 -56.666 -54 -63.999 -86c-3.33301 -15.333 -2.16602 -25.5 3.50098 -30.5s14.5 -7.5 26.5 -7.5c14.667 0 28 2.33301 40 7c14.667 6 22 4.66699 22 -4l-6 -30
c-1.33301 -11.333 -6.33301 -19 -15 -23c-21.333 -10 -45.666 -15 -72.999 -15c-28.667 0 -50.334 6.83301 -65.001 20.5s-19.334 33.834 -14.001 60.501c8 42 39 78 93 108c-11.333 0.666992 -15.666 8 -12.999 22l144 678c2 8.66699 4.83301 14.5 8.5 17.5
s9.83398 4.5 18.501 4.5h59c8 0 13.167 -1.5 15.5 -4.5s2.5 -8.83301 0.5 -17.5z" />
    <glyph glyph-name="iogonek" unicode="&#x12f;" horiz-adv-x="224" 
d="M145 511c2 9.33301 4.66602 15.333 7.99902 18s9.33301 4 18 4h54c8.66699 0 14.167 -1.33301 16.5 -4s2.5 -8.66699 0.5 -18l-104 -489c-2 -8.66699 -4.66699 -14.5 -8 -17.5s-9.33301 -4.5 -18 -4.5h-3c-37.333 -24.667 -60 -54.667 -68 -90
c-3.33301 -15.333 -2.16602 -25.5 3.50098 -30.5s14.5 -7.5 26.5 -7.5c15.333 0 28.333 2.66699 39 8c6.66699 3.33301 12.167 4.83301 16.5 4.5s6.16602 -3.16602 5.49902 -8.49902l-5 -31c-2 -10.667 -7 -18.334 -15 -23.001c-23.333 -10 -48 -15 -74 -15
c-28 0 -49.333 6.83301 -64 20.5s-19 34.167 -13 61.5c8.66699 44 39.334 81 92.001 111c-10.667 0.666992 -14.667 8 -12 22zM164.999 690c4.66699 20.667 14.167 37.333 28.5 50s30.5 19 48.5 19c16 0 28.167 -6 36.5 -18s10.5 -27.333 6.5 -46
c-4 -20 -13.5 -36 -28.5 -48s-31.5 -18 -49.5 -18c-16 0 -28 5.5 -36 16.5s-10 25.833 -6 44.5z" />
    <glyph glyph-name="Idotaccent" unicode="&#x130;" horiz-adv-x="259" 
d="M194 700c2 8.66699 4.83301 14.5 8.5 17.5s9.83398 4.5 18.501 4.5h58c8.66699 0 14.167 -1.5 16.5 -4.5s2.5 -8.83301 0.5 -17.5l-144 -678c-2 -8.66699 -4.66699 -14.5 -8 -17.5s-9.33301 -4.5 -18 -4.5h-58c-8.66699 0 -14.334 1.5 -17.001 4.5s-3 8.83301 -1 17.5z
M212 859c4.66699 20.667 14.833 37.666 30.5 50.999s32.167 20 49.5 20c16.667 0 29.5 -6 38.5 -18s11.5 -27.667 7.5 -47c-4 -20 -13.833 -36.5 -29.5 -49.5s-32.5 -19.5 -50.5 -19.5c-16.667 0 -29.5 5.83301 -38.5 17.5s-11.5 26.834 -7.5 45.501z" />
    <glyph glyph-name="dotlessi" unicode="&#x131;" horiz-adv-x="222" 
d="M131 22c-2 -8.66699 -4.66699 -14.5 -8 -17.5s-9 -4.5 -17 -4.5h-55c-8 0 -13.333 1.5 -16 4.5s-3 8.83301 -1 17.5l104 488c3.33301 14.667 12 22 26 22h55c8 0 13.167 -1.5 15.5 -4.5s2.5 -8.83301 0.5 -17.5z" />
    <glyph glyph-name="IJ" unicode="&#x132;" horiz-adv-x="763" 
d="M306 32l10 45c1.33301 8.66699 3.66602 14 6.99902 16s8.66602 2 15.999 0c36.667 -10.667 73.667 -16 111 -16c80.667 0 132.334 53.333 155.001 160l98 463c2 8.66699 4.66699 14.5 8 17.5s9.33301 4.5 18 4.5h59c8 0 13.167 -1.5 15.5 -4.5s2.5 -8.83301 0.5 -17.5
l-98 -464c-17.333 -79.333 -46.666 -140 -87.999 -182s-98 -63 -170 -63c-26 0 -52.5 2 -79.5 6s-44.833 8 -53.5 12c-8 3.33301 -11 11 -9 23zM49 22l144 678c2 8.66699 4.83301 14.5 8.5 17.5s9.5 4.5 17.5 4.5h60c8 0 13.167 -1.5 15.5 -4.5s2.5 -8.83301 0.5 -17.5
l-144 -678c-2 -8.66699 -4.66699 -14.5 -8 -17.5s-9 -4.5 -17 -4.5h-60c-8 0 -13.333 1.5 -16 4.5s-3 8.83301 -1 17.5z" />
    <glyph glyph-name="ij" unicode="&#x133;" horiz-adv-x="499" 
d="M142 -226l11.998 54c2 11.333 8.66699 15 20 11c13.333 -6 27 -9 41 -9c36.667 0 61.334 30.333 74.001 91l125 591c2 9.33301 4.83301 15.5 8.5 18.5s9.83398 4.5 18.501 4.5h54c8.66699 0 14 -1.5 16 -4.5s2 -9.16699 0 -18.5l-130 -612
c-22 -102.667 -78 -154 -168 -154c-28.667 0 -49.667 4 -63 12c-6 4.66699 -8.66699 10 -8 16zM129.998 22c-2 -8.66699 -4.66699 -14.5 -8 -17.5s-9.33301 -4.5 -18 -4.5h-53c-8.66699 0 -14.334 1.5 -17.001 4.5s-3 8.83301 -1 17.5l104 489
c2 9.33301 4.83301 15.333 8.5 18s9.83398 4 18.501 4h53c8.66699 0 14.167 -1.33301 16.5 -4s2.5 -8.66699 0.5 -18zM436.998 691c4.66699 20.667 14.332 37.333 28.999 50s31 19 49 19c15.333 0 27.5 -6 36.5 -18s11.167 -27.333 6.5 -46c-4 -20 -13.667 -36 -29 -48
s-31.666 -18 -48.999 -18c-16 0 -28.167 5.5 -36.5 16.5s-10.5 25.833 -6.5 44.5zM156.996 689.999c4.66699 20.667 14.332 37.333 28.999 50s30.667 19 48 19c16 0 28.167 -6 36.5 -18s10.5 -27.333 6.5 -46c-4 -20 -13.5 -36 -28.5 -48s-31.5 -18 -49.5 -18
c-15.333 0 -27.166 5.5 -35.499 16.5s-10.5 25.833 -6.5 44.5z" />
    <glyph glyph-name="Jcircumflex" unicode="&#x134;" horiz-adv-x="452" 
d="M-4 32l9 45c1.33301 8.66699 3.83301 14 7.5 16s9.16699 2 16.5 0c36.667 -10.667 73.334 -16 110.001 -16c42 0 75.5 13.333 100.5 40s43.167 66.667 54.5 120l98 463c2 8.66699 4.83301 14.5 8.5 17.5s9.5 4.5 17.5 4.5h59c8.66699 0 14 -1.5 16 -4.5
s2 -8.83301 0 -17.5l-98 -464c-17.333 -79.333 -46.666 -140 -87.999 -182s-98 -63 -170 -63c-26.667 0 -53.334 2 -80.001 6s-44.334 8 -53.001 12c-7.33301 3.33301 -10 11 -8 23zM519 802l-41.001 59.001l-67 -59c-10.667 -8 -22.667 -12 -36 -12h-32
c-6 0 -10.167 1 -12.5 3s-2.66602 4.66699 -0.999023 8s5.16699 7 10.5 11l112 97c10 9.33301 22.667 14 38 14c10 0 16.833 -0.833008 20.5 -2.5s8.16699 -5.83398 13.5 -12.501l70 -96c4.66699 -6.66699 5.66699 -12 3 -16s-8 -6 -16 -6h-35c-11.333 0 -20.333 4 -27 12z
" />
    <glyph glyph-name="jcircumflex" unicode="&#x135;" horiz-adv-x="223" 
d="M-133 -226l12.001 54c2 11.333 8.66699 15 20 11c13.333 -6 26.666 -9 39.999 -9c36 0 60.333 30.333 73 91l125 591c2 9.33301 4.83301 15.5 8.5 18.5s9.5 4.5 17.5 4.5h54c8.66699 0 14 -1.5 16 -4.5s2 -9.16699 0 -18.5l-130 -612
c-22 -102.667 -77.333 -154 -166 -154c-28 0 -48.667 4 -62 12c-6 4.66699 -8.66699 10 -8 16zM264.001 621l-41.001 59l-67 -59c-10.667 -8 -22.334 -12 -35.001 -12h-32c-6 0 -10.167 1 -12.5 3s-2.66602 4.66699 -0.999023 8s5.16699 7 10.5 11l111 97
c10.667 9.33301 23.334 14 38.001 14c16 0 27.333 -5 34 -15l71 -96c4.66699 -6.66699 5.66699 -12 3 -16s-8 -6 -16 -6h-35c-12 0 -21.333 4 -28 12z" />
    <glyph glyph-name="Kcommaaccent" unicode="&#x136;" horiz-adv-x="608" 
d="M49 22l144.005 677.995c2 8.66699 4.83301 14.5 8.5 17.5s9.5 4.5 17.5 4.5h60c8 0 13.167 -1.5 15.5 -4.5s2.5 -8.83301 0.5 -17.5l-69 -325l328 330c11.333 11.333 23.333 17 36 17h77c6.66699 0 10.334 -2.16699 11.001 -6.5s-2.33301 -9.83301 -9 -16.5l-272 -265
c19.333 -3.33301 35.666 -11.5 48.999 -24.5s23.666 -27 30.999 -42s13.5 -38.167 18.5 -69.5s8.33301 -58.166 10 -80.499s3.5 -56.166 5.5 -101.499c2.66699 -25.333 12 -38 28 -38c8 0 17.333 2 28 6c5.33301 2.66699 9 3 11 1s2.33301 -6.66699 1 -14l-9 -41
c-2.66699 -11.333 -9.33398 -19.666 -20.001 -24.999c-18 -6.66699 -36.667 -10 -56 -10c-14.667 0 -26.834 1.33301 -36.501 4s-19.334 10.334 -29.001 23.001s-15.834 30.667 -18.501 54c-1.33301 12.667 -2.83301 33.834 -4.5 63.501s-3.66699 55.167 -6 76.5
s-5.83301 43.833 -10.5 67.5s-12.167 42.667 -22.5 57s-23.5 22.833 -39.5 25.5l-130 -127l-46 -217c-2 -8.66699 -4.66699 -14.5 -8 -17.5s-9 -4.5 -17 -4.5h-60c-8 0 -13.333 1.5 -16 4.5s-3 8.83301 -1 17.5zM176.005 -134.005c4 18 12.832 33.001 26.499 45.001
s27.834 18 42.501 18s25.834 -5.83301 33.501 -17.5s9.16699 -27.834 4.5 -48.501c-10.667 -52 -50.334 -104.667 -119.001 -158c-8 -6 -13.333 -7 -16 -3l-9 11c-3.33301 6 -1.33301 12 6 18c29.333 24 50.333 50.333 63 79c-12.667 1.33301 -22 7 -28 17
s-7.33301 23 -4 39z" />
    <glyph glyph-name="kcommaaccent" unicode="&#x137;" horiz-adv-x="513" 
d="M554 494l-269.998 -227.001l171 -239c5.33301 -8.66699 7 -15.5 5 -20.5s-7 -7.5 -15 -7.5h-73c-8.66699 0 -17 5 -25 15l-169 234l-48 -227c-0.666992 -5.33301 -2.33398 -10 -5.00098 -14c-0.666992 -2.66699 -2.66699 -4.66699 -6 -6c-2 -1.33301 -6.66699 -2 -14 -2
h-61c-1.33301 0 -2.66602 0.166992 -3.99902 0.5s-2.33301 0.5 -3 0.5c-0.666992 0.666992 -1.33398 1 -2.00098 1l-2 3c0 0.666992 -0.333008 1.33398 -1 2.00098c-1.33301 2 -1.33301 5 0 9l155 730c0.666992 4.66699 2.66699 8.66699 6 12h1
c1.33301 2 5.33301 3.66699 12 5h67c4.66699 -1.33301 8 -3 10 -5c0.666992 -2 1 -6 1 -12l-99 -466l270 229c13.333 11.333 26 17 38 17h63c14 0 18 -5.33301 12 -16c-2.66699 -4.66699 -7.33398 -10 -14.001 -16zM144.002 -134.001c4 18 12.832 33.001 26.499 45.001
s27.834 18 42.501 18s25.834 -5.83301 33.501 -17.5s9.16699 -27.834 4.5 -48.501c-10.667 -52 -50.334 -104.667 -119.001 -158c-8 -6 -13.333 -7 -16 -3l-9 11c-3.33301 6 -1.33301 12 6 18c29.333 24 50.333 50.333 63 79c-12.667 1.33301 -22 7 -28 17
s-7.33301 23 -4 39z" />
    <glyph glyph-name="Lacute" unicode="&#x139;" horiz-adv-x="503" 
d="M164 84h280.001c8.66699 0 14.167 -1.5 16.5 -4.5s2.5 -9.16699 0.5 -18.5l-8 -39c-1.33301 -8.66699 -3.83301 -14.5 -7.5 -17.5s-9.83398 -4.5 -18.501 -4.5h-360c-8 0 -13.333 1.5 -16 4.5s-3 8.83301 -1 17.5l144 678c2 8.66699 4.83301 14.5 8.5 17.5
s9.5 4.5 17.5 4.5h59c8.66699 0 14 -1.5 16 -4.5s2 -8.83301 0 -17.5zM222.001 803l-2.99805 21.001c-2.66699 11.333 0.666016 19.333 9.99902 24l168 83c14.667 6 23 3.66699 25 -7l7 -41c1.33301 -8 1.16602 -13.833 -0.500977 -17.5s-6.5 -6.83398 -14.5 -9.50098
l-173 -60c-10.667 -4 -17 -1.66699 -19 7z" />
    <glyph glyph-name="lacute" unicode="&#x13a;" horiz-adv-x="222" 
d="M131 22c-2 -8.66699 -4.66699 -14.5 -8 -17.5s-9 -4.5 -17 -4.5h-55c-8 0 -13.333 1.5 -16 4.5s-3 8.83301 -1 17.5l153 719c2 8.66699 4.83301 14.5 8.5 17.5s9.5 4.5 17.5 4.5h55c8 0 13.167 -1.5 15.5 -4.5s2.5 -8.83301 0.5 -17.5zM172 792l-4 20.999
c-2 11.333 1.33301 19.333 10 24l169 83c14 6.66699 22.333 4.33398 25 -6.99902l7 -41c2 -14 -3 -23 -15 -27l-174 -60c-10 -4 -16 -1.66699 -18 7z" />
    <glyph glyph-name="Lcommaaccent" unicode="&#x13b;" horiz-adv-x="502" 
d="M164 84h280.001c8.66699 0 14.167 -1.5 16.5 -4.5s2.5 -9.16699 0.5 -18.5l-8 -39c-1.33301 -8.66699 -3.83301 -14.5 -7.5 -17.5s-9.83398 -4.5 -18.501 -4.5h-360c-8 0 -13.333 1.5 -16 4.5s-3 8.83301 -1 17.5l144 678c2 8.66699 4.83301 14.5 8.5 17.5
s9.5 4.5 17.5 4.5h59c8.66699 0 14 -1.5 16 -4.5s2 -8.83301 0 -17.5zM169.001 -134c4 18 12.832 33.001 26.499 45.001s27.834 18 42.501 18s25.834 -5.83301 33.501 -17.5s9.16699 -27.834 4.5 -48.501c-10.667 -52 -50.334 -104.667 -119.001 -158
c-8 -6 -13.333 -7 -16 -3l-9 11c-3.33301 6 -1.33301 12 6 18c29.333 24 50.333 50.333 63 79c-12.667 1.33301 -22 7 -28 17s-7.33301 23 -4 39z" />
    <glyph glyph-name="lcommaaccent" unicode="&#x13c;" horiz-adv-x="222" 
d="M134 22c-2 -8.66699 -4.66699 -14.5 -8 -17.5s-9 -4.5 -17 -4.5h-55c-8 0 -13.333 1.5 -16 4.5s-3 8.83301 -1 17.5l153 719c2 8.66699 4.83301 14.5 8.5 17.5s9.5 4.5 17.5 4.5h55c8 0 13.167 -1.5 15.5 -4.5s2.5 -8.83301 0.5 -17.5zM15 -124
c4 18 13 33.0029 27 45.0029s28.333 18 43 18s25.667 -5.83301 33 -17.5s9 -27.834 5 -48.501c-11.333 -52.667 -51.333 -105.334 -120 -158.001c-8 -6 -13.333 -7 -16 -3l-8 11c-4 5.33301 -2.33301 11.333 5 18c30.667 25.333 51.667 51.666 63 78.999
c-12.667 1.33301 -22 7 -28 17s-7.33301 23 -4 39z" />
    <glyph glyph-name="Lcaron" unicode="&#x13d;" horiz-adv-x="507" 
d="M164 84h280.001c8.66699 0 14.167 -1.5 16.5 -4.5s2.5 -9.16699 0.5 -18.5l-8 -39c-1.33301 -8.66699 -3.83301 -14.5 -7.5 -17.5s-9.83398 -4.5 -18.501 -4.5h-360c-8 0 -13.333 1.5 -16 4.5s-3 8.83301 -1 17.5l144 678c2 8.66699 4.83301 14.5 8.5 17.5
s9.5 4.5 17.5 4.5h59c8.66699 0 14 -1.5 16 -4.5s2 -8.83301 0 -17.5zM435.001 508l30.999 193c1.33301 8 6 13.5 14 16.5s22.333 4.5 43 4.5c21.333 0 35.333 -1.5 42 -4.5s8.66699 -8.5 6 -16.5l-52 -193c-1.33301 -7.33301 -5 -12.166 -11 -14.499s-17.333 -3.5 -34 -3.5
c-16 0 -26.667 1.16699 -32 3.5s-7.66602 7.16602 -6.99902 14.499z" />
    <glyph glyph-name="lcaron" unicode="&#x13e;" horiz-adv-x="277" 
d="M131 22c-2 -8.66699 -4.66699 -14.5 -8 -17.5s-9 -4.5 -17 -4.5h-55c-8 0 -13.333 1.5 -16 4.5s-3 8.83301 -1 17.5l153 719c2 8.66699 4.83301 14.5 8.5 17.5s9.5 4.5 17.5 4.5h55c8 0 13.167 -1.5 15.5 -4.5s2.5 -8.83301 0.5 -17.5zM311 689
c4.66699 22 14.166 39.6641 28.499 52.9971s31.5 20 51.5 20c18 0 31.333 -6.83301 40 -20.5s10.334 -32.5 5.00098 -56.5c-11.333 -55.333 -57 -115.666 -137 -180.999c-8.66699 -7.33301 -16 -7.66602 -22 -0.999023l-6 10c-4.66699 6 -2.66699 13 6 21
c36 32 59.667 62 71 90c-14.667 1.33301 -25.5 7.83301 -32.5 19.5s-8.5 26.834 -4.5 45.501z" />
    <glyph glyph-name="Ldot" unicode="&#x13f;" horiz-adv-x="514" 
d="M164 84h280.001c8.66699 0 14.167 -1.5 16.5 -4.5s2.5 -9.16699 0.5 -18.5l-8 -39c-1.33301 -8.66699 -3.83301 -14.5 -7.5 -17.5s-9.83398 -4.5 -18.501 -4.5h-360c-8 0 -13.333 1.5 -16 4.5s-3 8.83301 -1 17.5l144 678c2 8.66699 4.83301 14.5 8.5 17.5
s9.5 4.5 17.5 4.5h59c8.66699 0 14 -1.5 16 -4.5s2 -8.83301 0 -17.5zM333.001 378c4.66699 20 14.8359 36.833 30.5029 50.5s31.834 20.5 48.501 20.5c17.333 0 30.666 -6 39.999 -18s11.666 -28 6.99902 -48s-14.834 -36.5 -30.501 -49.5s-32.5 -19.5 -50.5 -19.5
c-16.667 0 -29.334 5.83301 -38.001 17.5s-11 27.167 -7 46.5z" />
    <glyph glyph-name="ldot" unicode="&#x140;" horiz-adv-x="337" 
d="M284 741l-153 -719c-2 -8.66699 -4.66699 -14.5 -8 -17.5s-9 -4.5 -17 -4.5h-55c-8 0 -13.333 1.5 -16 4.5s-3 8.83301 -1 17.5l153 719c2 8.66699 4.83301 14.5 8.5 17.5s9.5 4.5 17.5 4.5h55c8 0 13.167 -1.5 15.5 -4.5s2.5 -8.83301 0.5 -17.5zM242 290
c4.66699 20.667 14.834 37.832 30.501 51.499s32.167 20.5 49.5 20.5c16.667 0 29.667 -6 39 -18s11.666 -28 6.99902 -48c-4 -20 -13.833 -36.5 -29.5 -49.5s-32.167 -19.5 -49.5 -19.5c-16.667 0 -29.667 5.83301 -39 17.5s-12 26.834 -8 45.501z" />
    <glyph glyph-name="Lslash" unicode="&#x141;" horiz-adv-x="516" 
d="M114 262l-74.001 -35.001c-5.33301 -2.66699 -9 -3.16699 -11 -1.5s-2.33301 5.83398 -1 12.501l10 45c2.66699 13.333 9.33398 22.333 20.001 27l74 35l75 355c2 8.66699 4.83301 14.5 8.5 17.5s9.5 4.5 17.5 4.5h59c8.66699 0 14.167 -1.5 16.5 -4.5
s2.5 -8.83301 0.5 -17.5l-64 -301l131 63c7.33301 3.33301 12.333 4.5 15 3.5s3.33398 -4.83301 2.00098 -11.5l-10 -46c-2.66699 -13.333 -9.66699 -22.333 -21 -27l-134 -65l-50 -232h280c8.66699 0 14.167 -1.5 16.5 -4.5s2.5 -9.16699 0.5 -18.5l-8 -39
c-1.33301 -8.66699 -3.83301 -14.5 -7.5 -17.5s-9.83398 -4.5 -18.501 -4.5h-361c-8 0 -13.333 1.5 -16 4.5s-3 8.83301 -1 17.5z" />
    <glyph glyph-name="lslash" unicode="&#x142;" horiz-adv-x="355" 
d="M150 317l-89.002 -43c-5.33301 -2.66699 -9.16602 -3.16699 -11.499 -1.5s-2.83301 5.5 -1.5 11.5l10 46c2.66699 12 9.66699 21 21 27l88 42l73 342c2 8.66699 4.66699 14.5 8 17.5s9.33301 4.5 18 4.5h54c8 0 13.167 -1.5 15.5 -4.5s2.5 -8.83301 0.5 -17.5l-62 -291
l109 53c7.33301 3.33301 12.333 4.5 15 3.5s3.66699 -4.83301 3 -11.5l-10 -45c-2.66699 -13.333 -9.66699 -22.333 -21 -27l-113 -55l-52 -245c-6.66699 -29.333 -0.666992 -44 18 -44c6 0 12.5 0.833008 19.5 2.5s10.833 2.5 11.5 2.5
c4.66699 1.33301 7.66699 1.33301 9 0s1.33301 -4.33301 0 -9l-10 -50c-2 -10.667 -7.66699 -17.667 -17 -21c-16 -6 -38 -9 -66 -9c-59.333 0 -81.666 33.333 -66.999 100z" />
    <glyph glyph-name="Nacute" unicode="&#x143;" horiz-adv-x="656" 
d="M528 0h-60.999c-10.667 0 -18.334 5 -23.001 15l-170 495c-10 28.667 -16 54 -18 76c-3.33301 -40 -7.33301 -69 -12 -87l-100 -477c-2 -8.66699 -4.66699 -14.5 -8 -17.5s-9 -4.5 -17 -4.5h-53c-8 0 -13.167 1.5 -15.5 4.5s-2.5 8.83301 -0.5 17.5l145 683
c3.33301 11.333 10 17 20 17h61c12.667 0 20.334 -5 23.001 -15l168 -501c11.333 -30.667 17.666 -57 18.999 -79c3.33301 44 7.33301 76.333 12 97l100 476c2 8.66699 4.66699 14.5 8 17.5s9.33301 4.5 18 4.5h52c8 0 13.167 -1.5 15.5 -4.5s2.5 -8.83301 0.5 -17.5
l-145 -683c-2 -11.333 -8.33301 -17 -19 -17zM424.001 803l-2.99805 21.001c-2.66699 11.333 0.666016 19.333 9.99902 24l168 83c14.667 6 23 3.66699 25 -7l7 -41c1.33301 -8 1.16602 -13.833 -0.500977 -17.5s-6.5 -6.83398 -14.5 -9.50098l-173 -60
c-10.667 -4 -17 -1.66699 -19 7z" />
    </font>
</defs>
</svg>
