<?xml version="1.0" standalone="no"?>
<!DOCTYPE svg PUBLIC "-//W3C//DTD SVG 1.1//EN" "http://www.w3.org/Graphics/SVG/1.1/DTD/svg11.dtd" >
<svg>
<metadata>
Created by FontForge 20090914 at Mon Dec  8 21:54:21 2014
 By www-data
Copyright (c) 2014 by Jeremy Dooley. All rights reserved.
</metadata>
<defs>
<font id="CabritoSans-NorLig" horiz-adv-x="551" >
  <font-face 
    font-family="CabritoSans-NorLig"
    font-weight="400"
    font-stretch="normal"
    units-per-em="1000"
    panose-1="2 0 5 3 4 0 0 2 0 4"
    ascent="756"
    descent="-244"
    x-height="532"
    cap-height="722"
    bbox="-162 -307 1240 955"
    underline-thickness="50"
    underline-position="-50"
    unicode-range="U+0020-U+FB04"
  />
<missing-glyph horiz-adv-x="280" 
 />
    <glyph glyph-name=".notdef" horiz-adv-x="280" 
 />
    <glyph glyph-name="space" unicode=" " horiz-adv-x="275" 
 />
    <glyph glyph-name="exclam" unicode="!" horiz-adv-x="240" 
d="M149 708c0 -19.333 -1.5 -79.166 -4.5 -179.499s-4.5 -221.5 -4.5 -363.5c0 -7.33301 -7 -11 -21 -11c-13.333 0 -20 3.66699 -20 11c0 142 -1.66699 263.167 -5 363.5s-5 160.166 -5 179.499c0 27.333 10 41 30 41s30 -13.667 30 -41zM77 27
c0 12.667 3.66895 23 11.002 31s16.666 12 27.999 12c10.667 0 19.5 -3.66699 26.5 -11s10.5 -17 10.5 -29c0 -11.333 -4 -20.833 -12 -28.5s-17.333 -11.5 -28 -11.5s-19.334 3.33301 -26.001 10s-10 15.667 -10 27z" />
    <glyph glyph-name="quotedbl" unicode="&#x22;" horiz-adv-x="387" 
d="M261 552l-6.99902 168c-0.666992 5.33301 0.666016 8.83301 3.99902 10.5s11 2.5 23 2.5s19.667 -0.833008 23 -2.5s5 -5.16699 5 -10.5l-7 -168c0 -9.33301 -7 -14 -21 -14c-13.333 0 -20 4.66699 -20 14zM88.001 552l-6.99805 168
c-0.666992 5.33301 0.666016 8.83301 3.99902 10.5s11 2.5 23 2.5s19.667 -0.833008 23 -2.5s4.66602 -5.16699 3.99902 -10.5l-7 -168c0 -9.33301 -6.66699 -14 -20 -14c-8 0 -13.333 1 -16 3s-4 5.66699 -4 11z" />
    <glyph glyph-name="numbersign" unicode="#" horiz-adv-x="808" 
d="M390 37l75 179h-246l-88 -209c-5.33301 -12 -14 -18 -26 -18c-14 0 -21 6 -21 18c0 11.333 2 21.333 6 30l75 179h-110c-16.667 0 -25 7.66699 -25 23c0 12 9 18 27 18h125l98 236h-135c-16.667 0 -25 7.66699 -25 23c0 12 9 18 27 18h150l68 161
c4 10 7.16699 16.833 9.5 20.5s6 7 11 10s11.833 4.5 20.5 4.5c15.333 0 20 -10.333 14 -31l-13 -35l-55 -130h245l68 161c4 10 7.16699 16.833 9.5 20.5s6 7 11 10s11.833 4.5 20.5 4.5c15.333 0 20 -10.333 14 -31l-13 -35l-55 -130h111c10 0 15 -7.66699 15 -23
c0 -12 -6.33301 -18 -19 -18h-124l-99 -236h137c10 0 15 -7.33301 15 -22c0 -12.667 -6.33301 -19 -19 -19h-150l-88 -209c-5.33301 -12 -14 -18 -26 -18c-14 0 -21 6 -21 18c0 11.333 2 21.333 6 30zM335 493l-99 -236h246l98 236h-245z" />
    <glyph glyph-name="dollar" unicode="$" horiz-adv-x="504" 
d="M448 686v-20.9961c0 -10 -5.66699 -12.667 -17 -8c-52 19.333 -107.333 29 -166 29c-52.667 0 -92.834 -9.16699 -120.501 -27.5s-41.5 -49.5 -41.5 -93.5c0 -28 6.83301 -51.333 20.5 -70s31.334 -32.834 53.001 -42.501s45.5 -18.334 71.5 -26.001
s52.167 -16.667 78.5 -27s50.333 -23 72 -38s39.334 -37 53.001 -66s20.5 -64.167 20.5 -105.5c0 -120.667 -62.667 -186.334 -188 -197.001v-102c0 -11.333 -5.33301 -17.333 -16 -18h-18c-10 0 -15 5.66699 -15 17v101c-32 0.666992 -62.833 3.83398 -92.5 9.50098
s-51.167 11 -64.5 16s-23.666 9.5 -30.999 13.5c-7.33301 3.33301 -11 9.33301 -11 18v22c0 10 4.66699 13 14 9c61.333 -28 125 -42 191 -42c56.667 0 101 11.167 133 33.5s48 61.166 48 116.499c0 36 -6.83301 66.333 -20.5 91s-31.334 43.5 -53.001 56.5
s-45.5 23.833 -71.5 32.5l-78.5 26c-26.333 8.66699 -50.333 19 -72 31s-39.334 29.5 -53.001 52.5s-20.5 51.5 -20.5 85.5c0 107.333 63 163.666 189 168.999v83c0 12 5.66699 18.333 17 19h18c10 0 15 -6 15 -18v-84c52 -2.66699 101 -12.334 147 -29.001
c6 -3.33301 9 -8.66602 9 -15.999z" />
    <glyph glyph-name="percent" unicode="%" horiz-adv-x="848" 
d="M244 22l294.001 682c4.66699 12 11 18 19 18h27c10 0 11.333 -8 4 -24l-296 -682c-3.33301 -7.33301 -5.83301 -11.833 -7.5 -13.5s-5.83398 -2.5 -12.501 -2.5h-20c-11.333 -0 -14 7.33301 -8 22zM32.001 529c0 61.333 13.167 111.333 39.5 150s67.5 58 123.5 58
c55.333 0 96.333 -19.333 123 -58s40 -88.667 40 -150s-13.333 -111.5 -40 -150.5s-67.667 -58.5 -123 -58.5c-56 0 -97.167 19.5 -123.5 58.5s-39.5 89.167 -39.5 150.5zM195.001 698c-36.667 0 -64.832 -16.167 -84.499 -48.5s-29.5 -72.833 -29.5 -121.5
c0 -50 9.16699 -90.667 27.5 -122s47.166 -47 86.499 -47c76.667 0 115 56.333 115 169c0 49.333 -9.5 90 -28.5 122s-47.833 48 -86.5 48zM490.003 200c0 61.333 13.167 111.333 39.5 150s67.5 58 123.5 58c55.333 0 96.5 -19.5 123.5 -58.5s40.5 -88.833 40.5 -149.5
s-13.5 -110.667 -40.5 -150s-68.167 -59 -123.5 -59c-56 0 -97.167 19.5 -123.5 58.5s-39.5 89.167 -39.5 150.5zM653.003 369c-36.667 0 -64.832 -16.167 -84.499 -48.5s-29.5 -72.833 -29.5 -121.5c0 -50 9.16699 -90.667 27.5 -122s47.166 -47 86.499 -47
c76.667 0 115 56.333 115 169c0 49.333 -9.5 90 -28.5 122s-47.833 48 -86.5 48z" />
    <glyph glyph-name="ampersand" unicode="&#x26;" horiz-adv-x="628" 
d="M282 0c-75.333 0 -135.169 16.5 -179.502 49.5s-66.5 81.833 -66.5 146.5c0 54.667 15.333 98.5 46 131.5s69.334 51.167 116.001 54.5c-17.333 4 -32.666 9 -45.999 15s-27 15 -41 27s-25 28.5 -33 49.5s-12 46.167 -12 75.5c0 56.667 18.5 101.334 55.5 134.001
s90.5 49 160.5 49c72 0 132 -8.66699 180 -26c8 -2.66699 12 -9 12 -19v-21c0 -9.33301 -4.66699 -12 -14 -8c-52 18.667 -110.333 28 -175 28c-56 0 -98.167 -12.333 -126.5 -37s-42.5 -59.334 -42.5 -104.001c0 -94 58 -141 174 -141h307
c7.33301 0 12.333 -0.833008 15 -2.5s4 -5.5 4 -11.5v-19c0 -9.33301 -5.33301 -14 -16 -14h-111v-342c0 -10 -5 -15 -15 -15h-192zM283.997 45l154 -0.000976562v312h-149c-59.333 0 -107.833 -13 -145.5 -39s-56.5 -67 -56.5 -123c0 -49.333 17 -86.666 51 -111.999
s82.667 -38 146 -38z" />
    <glyph glyph-name="quotesingle" unicode="'" horiz-adv-x="214" 
d="M88 552l-6.99805 168c-0.666992 5.33301 0.666016 8.83301 3.99902 10.5s11 2.5 23 2.5s19.667 -0.833008 23 -2.5s4.66602 -5.16699 3.99902 -10.5l-7 -168c0 -9.33301 -6.66699 -14 -20 -14c-8 0 -13.333 1 -16 3s-4 5.66699 -4 11z" />
    <glyph glyph-name="parenleft" unicode="(" horiz-adv-x="319" 
d="M247 -104c-60 46.667 -105.833 105.667 -137.5 177s-47.5 149.666 -47.5 234.999s15.833 163.666 47.5 234.999s77.5 130.333 137.5 177c8.66699 6.66699 16 5.33398 22 -3.99902c6 -10.667 6 -18.667 0 -24c-104.667 -99.333 -157 -227.333 -157 -384
s52.333 -284.667 157 -384c6 -5.33301 6 -13.333 0 -24c-6 -9.33301 -13.333 -10.666 -22 -3.99902z" />
    <glyph glyph-name="parenright" unicode=")" horiz-adv-x="319" 
d="M82 -105c-10 -5.33301 -17.667 -3.66797 -23 4.99902c-6 10.667 -5.66699 18.667 1 24c104 100.667 156 228.667 156 384s-52 283.333 -156 384c-6.66699 5.33301 -7 13.333 -1 24c5.33301 8.66699 13 10.334 23 5.00098c59.333 -48 104.833 -107.667 136.5 -179
s47.5 -149.333 47.5 -234s-15.833 -162.667 -47.5 -234s-77.167 -131 -136.5 -179z" />
    <glyph glyph-name="asterisk" unicode="*" horiz-adv-x="412" 
d="M236 545l-1.00098 -1c14 -8 34.333 -18 61 -30s48 -23.333 64 -34c8 -5.33301 13.667 -11.666 17 -18.999s3 -14 -1 -20c-8.66699 -12.667 -22 -13 -40 -1c-14.667 9.33301 -33 23.833 -55 43.5s-40.667 34.5 -56 44.5c0.666992 -15.333 3.16699 -37.5 7.5 -66.5
s6.5 -52.833 6.5 -71.5c0 -9.33301 -2.16699 -17.333 -6.5 -24s-10.5 -10 -18.5 -10c-6.66699 0 -12 3.16699 -16 9.5s-6 14.166 -6 23.499c0 18 2 41.333 6 70s6.33301 51 7 67c-12 -8 -29.5 -21 -52.5 -39s-42.5 -31.667 -58.5 -41
c-7.33301 -5.33301 -15 -7.83301 -23 -7.5s-14 3.83301 -18 10.5c-3.33301 6 -3.33301 12.333 0 19s9 12.334 17 17.001c15.333 9.33301 36.5 19.5 63.5 30.5s48.167 20.833 63.5 29.5c-15.333 10 -36.5 20.833 -63.5 32.5s-47.833 22.5 -62.5 32.5
c-19.333 12 -24.666 24.333 -15.999 37s22.334 12.667 41.001 0c16 -10 35 -24.167 57 -42.5s39.333 -31.833 52 -40.5c-0.666992 16.667 -3 39.5 -7 68.5s-6 52.833 -6 71.5c0 9.33301 2 17.166 6 23.499s9.33301 9.5 16 9.5c15.333 0 23 -11.333 23 -34
c0 -19.333 -1.83301 -43.833 -5.5 -73.5s-5.83398 -52.167 -6.50098 -67.5c16 10 35.667 24.167 59 42.5s42.333 31.833 57 40.5c20 10.667 33.333 9.66699 40 -3c6.66699 -11.333 0.666992 -23.333 -18 -36c-16 -9.33301 -37.333 -19.833 -64 -31.5
s-47.667 -21.5 -63 -29.5z" />
    <glyph glyph-name="plus" unicode="+" horiz-adv-x="482" 
d="M260 513l0.000976562 -155h166c16 0 24 -6 24 -18c0 -8.66699 -1.83301 -14.667 -5.5 -18s-11.167 -5 -22.5 -5h-162v-169c0 -16.667 -7.33301 -25 -22 -25c-16 0 -24 9 -24 27v167h-158c-16 0 -24 7 -24 21c0 6 1.16699 10.5 3.5 13.5s5.16602 4.83301 8.49902 5.5
s8.33301 1 15 1h155v159c0 8 2.33301 14 7 18s10 6 16 6c8.66699 0 14.667 -1.83301 18 -5.5s5 -11.167 5 -22.5z" />
    <glyph glyph-name="comma" unicode="," horiz-adv-x="244" 
d="M86 31c0 13.333 3.83203 24.166 11.499 32.499s17.5 12.5 29.5 12.5c11.333 0 20.833 -4.16699 28.5 -12.5s11.5 -19.833 11.5 -34.5c0 -43.333 -27 -88.333 -81 -135c-7.33301 -6 -13 -6.66699 -17 -2l-5 6c-2.66699 4.66699 -1 9.66699 5 15
c30.667 28.667 48.334 54.334 53.001 77.001c-24 1.33301 -36 15 -36 41z" />
    <glyph glyph-name="hyphen" unicode="-" horiz-adv-x="442" 
d="M96 339h251.001c5.33301 0 8.66602 -1 9.99902 -3s2 -5.66699 2 -11v-19c0 -5.33301 -0.833008 -9 -2.5 -11s-5.16699 -3 -10.5 -3h-250c-5.33301 0 -9 1 -11 3s-3 5.66699 -3 11v19c0 9.33301 4.66699 14 14 14z" />
    <glyph glyph-name="period" unicode="." horiz-adv-x="234" 
d="M78 34c0 12.667 3.83301 22.999 11.5 30.999s17.167 12 28.5 12c10 0 18.5 -3.66699 25.5 -11s10.5 -16.666 10.5 -27.999c0 -12 -3.83301 -21.833 -11.5 -29.5s-17.167 -11.5 -28.5 -11.5c-10 0 -18.5 3.33301 -25.5 10s-10.5 15.667 -10.5 27z" />
    <glyph glyph-name="slash" unicode="/" horiz-adv-x="421" 
d="M39 -6l308.001 736.001c3.33301 8 6 13 8 15s5.33301 2.66699 10 2l30 -6c6.66699 -2 7.66699 -9.33301 3 -22l-311 -740c-3.33301 -7.33301 -5.83301 -11.833 -7.5 -13.5s-4.5 -1.83398 -8.5 -0.500977l-30 8c-6.66699 2 -7.33398 9 -2.00098 21z" />
    <glyph glyph-name="zero" unicode="0" horiz-adv-x="635" 
d="M318 -10c-89.333 0 -158.499 35 -207.499 105s-73.5 160 -73.5 270s24.5 199 73.5 267s118.5 102 208.5 102c89.333 0 158 -33.833 206 -101.5s72 -156.5 72 -266.5c0 -111.333 -24.333 -201.833 -73 -271.5s-117.334 -104.5 -206.001 -104.5zM546.001 365
c0 96.667 -18.8311 174.668 -56.498 234.001s-94.5 89 -170.5 89c-76.667 0 -134.334 -29.833 -173.001 -89.5s-58 -137.834 -58 -234.501c0 -100 20.5 -179.667 61.5 -239s97.167 -89 168.5 -89s127.166 29.5 167.499 88.5s60.5 139.167 60.5 240.5z" />
    <glyph glyph-name="one" unicode="1" horiz-adv-x="223" 
d="M103 673l-84 -34c-10 -4 -15 -1.33301 -15 8v19c0 7.33301 4 13.333 12 18l91 38c8 3.33301 16.667 5 26 5c14 0 21 -6.33301 21 -19v-694c0 -6 -1 -9.83301 -3 -11.5s-6 -2.5 -12 -2.5h-21c-6 -0 -10 0.833008 -12 2.5s-3 5.5 -3 11.5v659z" />
    <glyph glyph-name="two" unicode="2" horiz-adv-x="505" 
d="M412 556c0 86 -52.668 128.999 -158.001 128.999c-65.333 0 -133.666 -12.667 -204.999 -38c-10 -3.33301 -15 0 -15 10v18c0 9.33301 3.66699 15.333 11 18c54.667 25.333 124.667 38 210 38c68.667 0 120.5 -15.333 155.5 -46s52.5 -72.667 52.5 -126
c0 -46.667 -13.167 -90.167 -39.5 -130.5s-77.5 -100.5 -153.5 -180.5l-195 -203h386c4.66699 0 7.83398 -1 9.50098 -3s2.5 -5.66699 2.5 -11v-19c0 -8 -4.66699 -12 -14 -12h-422c-8.66699 0 -14.334 0.833008 -17.001 2.5s-4 5.5 -4 11.5v15c0 12 8.33301 27 25 45
l190 203c74.667 80 123.5 136.833 146.5 170.5s34.5 69.834 34.5 108.501z" />
    <glyph glyph-name="three" unicode="3" horiz-adv-x="537" 
d="M231 33c144.667 0 217.002 54.001 217.002 162.001c0 56.667 -18.167 97.834 -54.5 123.501s-83.5 38.5 -141.5 38.5h-49c-4 0 -6.5 0.666992 -7.5 2s-1.5 4.33301 -1.5 9v24c0 4.66699 0.5 7.66699 1.5 9s3.5 2 7.5 2h48c114.667 0 172 49.667 172 149
c0 48.667 -13.833 83.167 -41.5 103.5s-68.5 30.5 -122.5 30.5c-58 0 -121.667 -12.333 -191 -37c-7.33301 -2.66699 -11 -0.333984 -11 6.99902v26c0 5.33301 2 9.33301 6 12c10.667 6.66699 36 14.667 76 24s81.333 14 124 14c140 0 210 -59.667 210 -179
c0 -94 -43.333 -151 -130 -171c40 -2.66699 76.167 -18.834 108.5 -48.501s48.5 -75.834 48.5 -138.501c0 -68.667 -22.667 -120.5 -68 -155.5s-111.333 -52.5 -198 -52.5c-38.667 0 -78 3.16699 -118 9.5s-66 12.5 -78 18.5c-4 2.66699 -6 7.33398 -6 14.001v23
c0 6.66699 2.66699 10 8 10c1.33301 0 11.666 -2.66699 30.999 -8c47.333 -14 100.666 -21 159.999 -21z" />
    <glyph glyph-name="four" unicode="4" horiz-adv-x="511" 
d="M370 13v132h-350c-5.33301 0 -8.66602 0.666992 -9.99902 2s-2 4.33301 -2 9v19c0 4 0.666992 6.66699 2 8l360 528c5.33301 7.33301 13.666 11 24.999 11h20c16 0 17.667 -9 5 -27l-348 -508h298v171c0 10 5 15 15 15h21c9.33301 0 14 -4.66699 14 -14v-172h65
c8 0 12 -3.33301 12 -10v-21c0 -7.33301 -3.66699 -11 -11 -11h-66v-132c0 -8.66699 -3 -13 -9 -13h-31c-6.66699 -0 -10 4.33301 -10 13z" />
    <glyph glyph-name="five" unicode="5" horiz-adv-x="509" 
d="M432 679l-280 -0.000976562l-38 -238c22 2.66699 68.333 4 139 4c32.667 0 61.667 -3.16699 87 -9.5s49.166 -17 71.499 -32s39.5 -37 51.5 -66s18 -64.5 18 -106.5c0 -162.667 -85.667 -244 -257 -244c-74.667 0 -134 7 -178 21c-10 3.33301 -15 10 -15 20v16
c0 6 0.5 9.66699 1.5 11s3.16699 2 6.5 2c2.66699 0 12.667 -2.66699 30 -8c42 -12 93.333 -18 154 -18c138 0 207 66.667 207 200c0 62.667 -15.5 107 -46.5 133s-76.833 39 -137.5 39c-10.667 0 -33 -0.833008 -67 -2.5s-58.667 -2.5 -74 -2.5
c-0.666992 0 -4 -0.166992 -10 -0.5s-11.333 -0.5 -16 -0.5c-15.333 0 -21.666 8 -18.999 24l45 284c2 11.333 9.33301 17 22 17h301c6.66699 0 11 -0.666992 13 -2s3 -4.66602 3 -9.99902v-18c0 -8.66699 -4 -13 -12 -13z" />
    <glyph glyph-name="six" unicode="6" horiz-adv-x="556" 
d="M286 -11c-47.333 0 -87.498 8.16699 -120.498 24.5s-58.5 40.333 -76.5 72s-30.667 66.667 -38 105s-11 82.833 -11 133.5c0 138 25.667 240.667 77 308s124.666 101 219.999 101c39.333 0 82 -7.66699 128 -23c8.66699 -4 13 -10.333 13 -19v-19
c0 -11.333 -5.66699 -14.333 -17 -9c-40 16 -79.667 24 -119 24c-86 0 -149.333 -30.167 -190 -90.5s-61.667 -150.5 -63 -270.5c10.667 36 28.5 65.333 53.5 88s50.5 37.834 76.5 45.501s54 11.5 84 11.5c67.333 0 122.166 -20.333 164.499 -61
s63.5 -100.334 63.5 -179.001c0 -80 -22.333 -140.333 -67 -181s-104 -61 -178 -61zM290.002 35c55.333 0 100.834 16.499 136.501 49.499s53.5 81.5 53.5 145.5c0 60.667 -16.167 108.334 -48.5 143.001s-76.833 52 -133.5 52c-58.667 0 -105.334 -18.167 -140.001 -54.5
s-52 -84.5 -52 -144.5c0 -56 15.833 -101.833 47.5 -137.5s77.167 -53.5 136.5 -53.5z" />
    <glyph glyph-name="seven" unicode="7" horiz-adv-x="460" 
d="M27 722h421.001c5.33301 0 8.83301 -0.833008 10.5 -2.5s2.5 -4.83398 2.5 -9.50098v-12c0 -9.33301 -4.33301 -23.666 -13 -42.999l-305 -641c-4 -9.33301 -9.66699 -14 -17 -14h-33c-8 0 -9.66699 4.66699 -5 14l315 661h-377
c-4.66699 0 -7.83398 0.833008 -9.50098 2.5s-2.5 5.16699 -2.5 10.5v22c0 8 4.33301 12 13 12z" />
    <glyph glyph-name="eight" unicode="8" horiz-adv-x="582" 
d="M291 732c65.333 0 116.333 -15.001 153 -45.001s55 -73.667 55 -131c0 -78.667 -36.333 -129.667 -109 -153c17.333 -4 34.333 -10.167 51 -18.5s33.5 -20 50.5 -35s30.667 -35.333 41 -61s15.5 -55.167 15.5 -88.5c0 -75.333 -23.333 -129.666 -70 -162.999
s-109 -50 -187 -50c-37.333 0 -70.833 3.66699 -100.5 11s-56.5 19 -80.5 35s-42.667 38.167 -56 66.5s-20 61.833 -20 100.5c0 33.333 5.16699 62.833 15.5 88.5s24 46 41 61s33.833 26.667 50.5 35s33.667 14.5 51 18.5c-72.667 23.333 -109 74.333 -109 153
c0 57.333 18.333 101 55 131s87.667 45 153 45zM85 200.999c0 -112 68.667 -168.001 206 -168.001s206 56 206 168c0 50.667 -16 92.334 -48 125.001s-81 50 -147 52h-11c-69.333 0 -121 -16.5 -155 -49.5s-51 -75.5 -51 -127.5zM291 686.998
c-48.667 0 -87.167 -10.832 -115.5 -32.499s-42.5 -54.834 -42.5 -99.501c0 -45.333 14.167 -79 42.5 -101s66.833 -33 115.5 -33c46 0 83.833 11 113.5 33s44.5 55.667 44.5 101c0 44 -14.167 77 -42.5 99s-66.833 33 -115.5 33z" />
    <glyph glyph-name="nine" unicode="9" horiz-adv-x="566" 
d="M275 733c40 0 75.166 -6.16895 105.499 -18.502s54.5 -28.5 72.5 -48.5s32.667 -44.833 44 -74.5s19 -59.834 23 -90.501s6 -64.667 6 -102c0 -142.667 -25.167 -246.667 -75.5 -312s-128.5 -98 -234.5 -98c-51.333 0 -104 7.66699 -158 23c-6 2 -9 6 -9 12v25
c0 8.66699 5 11.334 15 8.00098c55.333 -14.667 105 -22 149 -22c91.333 0 157.833 28.333 199.5 85s62.834 145.667 63.501 267c-12 -33.333 -30.167 -60.666 -54.5 -81.999s-49 -35.666 -74 -42.999s-51.5 -11 -79.5 -11c-67.333 0 -122.833 21.5 -166.5 64.5
s-65.5 101.5 -65.5 175.5c0 71.333 21 129.5 63 174.5s100.667 67.5 176 67.5zM274.999 689.998c-60 0 -106.332 -18.167 -138.999 -54.5s-49 -83.833 -49 -142.5c0 -60.667 17.5 -109 52.5 -145s80.167 -54 135.5 -54s100.666 17.667 135.999 53s53 82 53 140
c0 62.667 -16.5 112.167 -49.5 148.5s-79.5 54.5 -139.5 54.5z" />
    <glyph glyph-name="colon" unicode=":" horiz-adv-x="254" 
d="M82 27c0 12 3.83301 22.167 11.5 30.5s16.834 12.5 27.501 12.5s19.5 -3.66699 26.5 -11s10.5 -17 10.5 -29s-3.83301 -21.667 -11.5 -29s-17.167 -11 -28.5 -11c-10.667 0 -19.334 3.33301 -26.001 10s-10 15.667 -10 27zM82 471c0 12 3.83301 22.166 11.5 30.499
s16.834 12.5 27.501 12.5c10 0 18.667 -3.66699 26 -11s11 -16.666 11 -27.999c0 -12 -3.83301 -21.833 -11.5 -29.5s-17.167 -11.5 -28.5 -11.5c-10.667 0 -19.334 3.33301 -26.001 10s-10 15.667 -10 27z" />
    <glyph glyph-name="semicolon" unicode=";" horiz-adv-x="274" 
d="M109 28c0 12.667 4 23 12 31s17.333 12 28 12s19.667 -3.66699 27 -11s11 -17 11 -29v-4c-2 -54 -31.667 -108 -89 -162c-4.66699 -4.66699 -8.66699 -5.66699 -12 -3l-11 9c-3.33301 4 -1.33301 8.66699 6 14c32.667 28.667 54 63.667 64 105c-24 1.33301 -36 14 -36 38
zM107 471c0 12.667 3.83301 22.999 11.5 30.999s17.167 12 28.5 12c10 0 18.667 -3.66699 26 -11s11 -16.666 11 -27.999c0 -12 -4 -21.833 -12 -29.5s-17.667 -11.5 -29 -11.5c-10 0 -18.5 3.33301 -25.5 10s-10.5 15.667 -10.5 27z" />
    <glyph glyph-name="less" unicode="&#x3c;" horiz-adv-x="578" 
d="M75 279l440 -197.001c7.33301 -3.33301 11.833 -6.66602 13.5 -9.99902s2.5 -11 2.5 -23s-2.33301 -18.667 -7 -20s-16 2 -34 10l-434 194c-18 7.33301 -27 19.333 -27 36v10h46zM515 475.999l-440 -197.001h-46v10c0 16.667 9 28.667 27 36l434 194
c18 8 29.333 11.333 34 10s7 -8 7 -20s-0.833008 -19.667 -2.5 -23s-6.16699 -6.66602 -13.5 -9.99902z" />
    <glyph glyph-name="equal" unicode="=" horiz-adv-x="526" 
d="M454 360l-385.001 -0.000976562c-10 0 -15 6.66699 -15 20c0 8.66699 1.33301 14.334 4 17.001s7.33398 4 14.001 4h386c9.33301 0 14 -6.66699 14 -20c0 -14 -6 -21 -18 -21zM453.999 228.999l-385.001 -0.000976562c-10 0 -15 6.66699 -15 20
c0 8.66699 1.33301 14.334 4 17.001s7.33398 4 14.001 4h386c9.33301 0 14 -6.66699 14 -20c0 -14 -6 -21 -18 -21z" />
    <glyph glyph-name="greater" unicode="&#x3e;" horiz-adv-x="578" 
d="M503 279l-440 -197.001c-8 -3.33301 -12.833 -6.66602 -14.5 -9.99902s-2.5 -11 -2.5 -23s2.5 -18.667 7.5 -20s16.5 2 34.5 10l434 194c18 7.33301 27 19.333 27 36v10h-46zM503 278.999l-440 197.001c-8 3.33301 -12.833 6.66602 -14.5 9.99902s-2.5 11 -2.5 23
s2.5 18.667 7.5 20s16.5 -2 34.5 -10l434 -194c18 -7.33301 27 -19.333 27 -36v-10h-46z" />
    <glyph glyph-name="question" unicode="?" horiz-adv-x="468" 
d="M162 29c0 11.333 4 20.667 12 28s17.667 11 29 11s20.833 -3.5 28.5 -10.5s11.5 -16.5 11.5 -28.5s-4 -21.333 -12 -28s-17.667 -10 -29 -10c-12 0 -21.667 3.33301 -29 10s-11 16 -11 28zM386 548.001c0 91.333 -55.998 136.998 -167.998 136.998
c-58.667 0 -116.334 -13 -173.001 -39c-9.33301 -3.33301 -14 0.333984 -14 11.001v19c0 8.66699 3.66699 14.667 11 18c54 24.667 115 37 183 37c71.333 0 124.5 -16.167 159.5 -48.5s52.5 -76.166 52.5 -131.499c0 -34 -7.16699 -66.167 -21.5 -96.5
s-31.833 -56.333 -52.5 -78l-62 -62.5c-20.667 -20 -38.167 -41.333 -52.5 -64s-21.5 -45.667 -21.5 -69v-21c0 -9.33301 -5.66699 -14 -17 -14h-11c-8.66699 0 -14.5 2.16699 -17.5 6.5s-4.5 11.5 -4.5 21.5v13c0 26 7.16699 51.167 21.5 75.5s31.833 46.5 52.5 66.5
l61.5 61.5c20.333 21 37.666 45 51.999 72s21.5 55.5 21.5 85.5z" />
    <glyph glyph-name="at" unicode="@" horiz-adv-x="804" 
d="M772 398c0 -72.667 -16.835 -134.997 -50.502 -186.997s-74.167 -78 -121.5 -78c-24.667 0 -44.667 7.33301 -60 22s-23.333 34.334 -24 59.001c-18 -24.667 -41.5 -44.334 -70.5 -59.001s-58.5 -22 -88.5 -22c-40.667 0 -75.334 14.167 -104.001 42.5
s-43 69.5 -43 123.5c0 68 21.833 127.833 65.5 179.5s100.5 77.5 170.5 77.5c51.333 0 88.333 -13.667 111 -41s34.334 -62.333 35.001 -105c0 -36 -10 -82.333 -30 -139c-2.66699 -12.667 -4 -25 -4 -37c0 -41.333 15.667 -62 47 -62c32.667 0 61.834 23 87.501 69
s38.5 98.667 38.5 158c0 89.333 -30.333 159.5 -91 210.5s-133.667 76.5 -219 76.5c-67.333 0 -126.666 -16.5 -177.999 -49.5s-90 -75.833 -116 -128.5s-39 -110.334 -39 -173.001c0 -97.333 31 -175.5 93 -234.5s140.667 -88.5 236 -88.5c80 0 149.333 14.333 208 43
c6.66699 3.33301 11.667 5.66602 15 6.99902s6.33301 2.16602 9 2.49902s4.33398 -0.5 5.00098 -2.5s1 -5 1 -9v-9c0 -10.667 -5 -18.667 -15 -24c-18.667 -10.667 -49.834 -21.167 -93.501 -31.5s-87.5 -15.5 -131.5 -15.5c-110 0 -200 33.667 -270 101
s-105 155.666 -105 264.999c0 110 35.167 201.833 105.5 275.5s162.833 110.5 277.5 110.5c100 0 183.167 -29.167 249.5 -87.5s99.5 -138.166 99.5 -239.499zM358.998 172.003c47.333 0 90.001 21.832 128.001 65.499s57 97.834 57 162.501c0 78 -33 117 -99 117
c-55.333 0 -100.5 -23 -135.5 -69s-52.5 -97.333 -52.5 -154c0 -39.333 9.16699 -69.5 27.5 -90.5s43.166 -31.5 74.499 -31.5z" />
    <glyph glyph-name="A" unicode="A" horiz-adv-x="617" 
d="M531 13l-66.999 203h-301l-67 -203c-2 -5.33301 -4.16699 -8.83301 -6.5 -10.5s-6.83301 -2.5 -13.5 -2.5h-19c-11.333 0 -15.333 5 -12 15l234 697c2.66699 6.66699 6.66699 10 12 10h45c6 0 10.333 -3.33301 13 -10l233 -697c2 -6 2.16699 -10 0.5 -12
s-5.83398 -3 -12.501 -3h-18c-10.667 -0 -17.667 4.33301 -21 13zM313.001 672l-135 -411h271z" />
    <glyph glyph-name="B" unicode="B" horiz-adv-x="617" 
d="M507 550c0 -48.667 -9.83203 -86.333 -29.499 -113s-42.834 -43 -69.501 -49v-1c43.333 -8 78.5 -27.833 105.5 -59.5s40.5 -76.167 40.5 -133.5c0 -129.333 -79.333 -194 -238 -194h-192c-6 -0 -10 0.833008 -12 2.5s-3 5.5 -3 11.5v694c0 6 1 9.83301 3 11.5
s6 2.5 12 2.5h173c70 0 122.5 -13.333 157.5 -40s52.5 -70.667 52.5 -132zM160.001 363.001v-318.999h156c18.667 0 35.5 0.833008 50.5 2.5s31.5 5.5 49.5 11.5s32.833 14.333 44.5 25s21.5 25.5 29.5 44.5s12 41.5 12 67.5c0 55.333 -16.5 97.166 -49.5 125.499
s-78.5 42.5 -136.5 42.5h-156zM160.001 678.002v-271h159c91.333 0 137 46.667 137 140c0 51.333 -13.167 86 -39.5 104s-65.833 27 -118.5 27h-138z" />
    <glyph glyph-name="C" unicode="C" horiz-adv-x="640" 
d="M120 350c0 -210 88.667 -314.997 266 -314.997c58 0 118.667 12 182 36c11.333 4.66699 17 2 17 -8v-21c0 -6.66699 -4 -12.334 -12 -17.001c-16.667 -8 -42.167 -16 -76.5 -24s-71.833 -12 -112.5 -12c-108.667 0 -188.5 31.5 -239.5 94.5s-76.5 150.833 -76.5 263.5
c0 117.333 26.667 210.666 80 279.999s133.333 104 240 104c34.667 0 69.667 -3.16699 105 -9.5s62 -15.166 80 -26.499c7.33301 -4 11 -11 11 -21v-16c0 -10.667 -5.33301 -13.667 -16 -9c-54 24 -113 36 -177 36c-50 0 -93.167 -8.83301 -129.5 -26.5
s-64.5 -42.334 -84.5 -74.001s-34.5 -66.834 -43.5 -105.501s-13.5 -81.667 -13.5 -129z" />
    <glyph glyph-name="D" unicode="D" horiz-adv-x="701" 
d="M124 0c-6 0 -10 0.832031 -12 2.49902s-3 5.5 -3 11.5v694c0 6 1 9.83301 3 11.5s6 2.5 12 2.5h124c130.667 0 227.5 -30 290.5 -90s94.5 -150.667 94.5 -272s-31.333 -211.666 -94 -270.999s-159 -89 -289 -89h-126zM248 676.999l-87.999 0.000976562v-632h89
c115.333 0 199.666 25.167 252.999 75.5s80 130.166 80 239.499c0 110 -26.833 190.333 -80.5 241s-138.167 76 -253.5 76z" />
    <glyph glyph-name="E" unicode="E" horiz-adv-x="554" 
d="M124 0c-6 0 -10 0.833008 -12 2.5s-3 5.5 -3 11.5v694c0 6 1 9.83301 3 11.5s6 2.5 12 2.5h344c5.33301 0 9 -1 11 -3s3 -6 3 -12v-16c0 -5.33301 -1 -9 -3 -11s-5.66699 -3 -11 -3h-308v-281h262c6 0 9.83301 -1 11.5 -3s2.5 -5.66699 2.5 -11v-17
c0 -5.33301 -0.833008 -9 -2.5 -11s-5.5 -3 -11.5 -3h-262v-306h332c5.33301 0 8.83301 -1 10.5 -3s2.5 -5.66699 2.5 -11v-16c0 -6 -0.833008 -10 -2.5 -12s-5.16699 -3 -10.5 -3h-368z" />
    <glyph glyph-name="F" unicode="F" horiz-adv-x="529" 
d="M109 14v694c0 6 1 9.83301 3 11.5s6 2.5 12 2.5h352c5.33301 0 8.83301 -1 10.5 -3s2.5 -6 2.5 -12v-16c0 -5.33301 -0.833008 -9 -2.5 -11s-5.16699 -3 -10.5 -3h-316v-299h214c5.33301 0 9 -1 11 -3s3 -6 3 -12v-16c0 -5.33301 -1 -9 -3 -11s-5.66699 -3 -11 -3h-214
v-319c0 -6 -1 -9.83301 -3 -11.5s-6 -2.5 -12 -2.5h-21c-6 -0 -10 0.833008 -12 2.5s-3 5.5 -3 11.5z" />
    <glyph glyph-name="G" unicode="G" horiz-adv-x="723" 
d="M427 310v25.001c0 7.33301 3.66699 11 11 11h189c10 0 15 -4.66699 15 -14v-281c0 -10 -4.33301 -17 -13 -21c-18.667 -9.33301 -48 -18.833 -88 -28.5s-83 -14.5 -129 -14.5c-104.667 0 -188.5 30.5 -251.5 91.5s-94.5 152.167 -94.5 273.5c0 116 30 208.167 90 276.5
s145.667 102.5 257 102.5c48.667 0 93.334 -5.83301 134.001 -17.5s68.667 -23.5 84 -35.5c6 -4.66699 9 -11 9 -19v-19c0 -12 -6.66699 -14.333 -20 -7c-60 34.667 -127.667 52 -203 52c-100.667 0 -175.834 -30.833 -225.501 -92.5s-74.5 -141.834 -74.5 -240.501
c0 -102 26 -180.667 78 -236s124.667 -83 218 -83c60 0 120 11 180 33v233h-155c-7.33301 0 -11 3.66699 -11 11z" />
    <glyph glyph-name="H" unicode="H" horiz-adv-x="685" 
d="M525 338h-366v-324c0 -6 -1 -9.83301 -3 -11.5s-6 -2.5 -12 -2.5h-21c-5.33301 -0 -9 0.833008 -11 2.5s-3 5.5 -3 11.5v694c0 6 1 9.83301 3 11.5s5.66699 2.5 11 2.5h21c6 0 10 -0.833008 12 -2.5s3 -5.5 3 -11.5v-325h366v325c0 6 1 9.83301 3 11.5
s5.66699 2.5 11 2.5h22c5.33301 0 9 -0.833008 11 -2.5s3 -5.5 3 -11.5v-694c0 -6 -1 -9.83301 -3 -11.5s-5.66699 -2.5 -11 -2.5h-22c-5.33301 -0 -9 0.833008 -11 2.5s-3 5.5 -3 11.5v324z" />
    <glyph glyph-name="I" unicode="I" horiz-adv-x="269" 
d="M160 14c0 -6 -1 -9.83301 -3 -11.5s-6 -2.5 -12 -2.5h-21c-6 -0 -10 0.833008 -12 2.5s-3 5.5 -3 11.5v694c0 6 1 9.83301 3 11.5s6 2.5 12 2.5h21c6 0 10 -0.833008 12 -2.5s3 -5.5 3 -11.5v-694z" />
    <glyph glyph-name="J" unicode="J" horiz-adv-x="463" 
d="M31 22l-0.000976562 21c0 6 0.833008 9.66699 2.5 11s4.83398 1.33301 9.50098 0c40.667 -11.333 83 -17 127 -17c92.667 0 139 55 139 165v506c0 6 1 9.83301 3 11.5s5.66699 2.5 11 2.5h22c5.33301 0 9 -0.833008 11 -2.5s3 -5.5 3 -11.5v-510
c0 -138 -61.333 -207 -184 -207c-52.667 0 -97 5 -133 15c-7.33301 2 -11 7.33301 -11 16z" />
    <glyph glyph-name="K" unicode="K" horiz-adv-x="633" 
d="M272 380l-9.99902 0.000976562l-103 -117v-249c0 -6 -1 -9.83301 -3 -11.5s-6 -2.5 -12 -2.5h-21c-6 0 -10 0.833008 -12 2.5s-3 5.5 -3 11.5v694c0 6 1 9.83301 3 11.5s6 2.5 12 2.5h21c6 0 10 -0.833008 12 -2.5s3 -5.5 3 -11.5v-377l333 379
c7.33301 8 14.666 12 21.999 12h32c4.66699 0 7.66699 -1.33301 9 -4s0.333008 -6.33398 -3 -11.001l-255 -288c16.667 -0.666992 32.667 -4.33398 48 -11.001s28.666 -14.667 39.999 -24s22.5 -22.333 33.5 -39s20 -31.667 27 -45s14.667 -31 23 -53
s14.666 -39.833 18.999 -53.5l17.5 -55.5l16 -50c10.667 -32.667 26.334 -49 47.001 -49c8 0 20 2.66699 36 8c6.66699 2.66699 11 3.5 13 2.5s3 -4.83301 3 -11.5v-13c0 -6 -0.833008 -10.167 -2.5 -12.5s-6.5 -5.16602 -14.5 -8.49902c-12.667 -4.66699 -25 -7 -37 -7
c-13.333 0 -24.666 1.33301 -33.999 4s-19.666 10.167 -30.999 22.5s-21 30.166 -29 53.499c-4.66699 12.667 -10.834 31.834 -18.501 57.501l-20 67c-5.66699 19 -14 40.5 -25 64.5s-22.167 43.667 -33.5 59s-26 28.333 -44 39s-37.667 16 -59 16z" />
    <glyph glyph-name="L" unicode="L" horiz-adv-x="543" 
d="M123 0c-5.33301 0 -9 0.833008 -11 2.5s-3 5.5 -3 11.5v694c0 6 1 9.83301 3 11.5s6 2.5 12 2.5h21c6 0 10 -0.833008 12 -2.5s3 -5.5 3 -11.5v-663h340c5.33301 0 9 -1 11 -3s3 -5.66699 3 -11v-16c0 -6 -1 -10 -3 -12s-5.66699 -3 -11 -3h-377z" />
    <glyph glyph-name="M" unicode="M" horiz-adv-x="886" 
d="M187 712l255.999 -670l256 670c2.66699 6.66699 7 10 13 10h52c8 0 12 -4 12 -12v-696c0 -6 -1 -9.83301 -3 -11.5s-5.66699 -2.5 -11 -2.5h-19c-6 -0 -10 0.833008 -12 2.5s-3 5.5 -3 11.5v533c0 58 1.66699 103 5 135c-12.667 -40.667 -24 -74.667 -34 -102l-216 -566
c-2.66699 -6 -5 -9.83301 -7 -11.5s-7 -2.5 -15 -2.5h-36c-8 -0 -13.167 0.833008 -15.5 2.5s-4.5 5.5 -6.5 11.5l-217 566c-10 27.333 -21.333 61.333 -34 102c3.33301 -25.333 5 -70.333 5 -135v-533c0 -6 -1 -9.83301 -3 -11.5s-5.66699 -2.5 -11 -2.5h-19
c-6 -0 -10 0.833008 -12 2.5s-3 5.5 -3 11.5v696c0 8 4 12 12 12h52c6.66699 0 11.334 -3.33301 14.001 -10z" />
    <glyph glyph-name="N" unicode="N" horiz-adv-x="711" 
d="M584 0h-19.002c-7.33301 0 -15 5 -23 15l-353 570c-20 33.333 -32 57 -36 71c4 -29.333 6 -54 6 -74v-568c0 -6 -1 -9.83301 -3 -11.5s-6 -2.5 -12 -2.5h-20c-6 -0 -10 0.833008 -12 2.5s-3 5.5 -3 11.5v695c0 6 1.16699 9.66699 3.5 11s7.16602 2 14.499 2h19
c8.66699 0 16.334 -5 23.001 -15l363 -590c16.667 -29.333 26.334 -48.333 29.001 -57c-6 26 -9 55.667 -9 89v559c0 6 1 9.83301 3 11.5s6 2.5 12 2.5h20c6 0 10 -0.833008 12 -2.5s3 -5.5 3 -11.5v-695c0 -6 -1.16699 -9.66699 -3.5 -11s-7.16602 -2 -14.499 -2z" />
    <glyph glyph-name="O" unicode="O" horiz-adv-x="804" 
d="M66 356c0 37.333 3.16895 72.999 9.50195 106.999s17.5 67.667 33.5 101s36.167 62.333 60.5 87s56.333 44.5 96 59.5s84.834 22.5 135.501 22.5c60 0 112.5 -10.333 157.5 -31s80.167 -48.834 105.5 -84.501s44 -74.667 56 -117s18 -87.833 18 -136.5
c0 -36.667 -3.16699 -72 -9.5 -106s-17.333 -67.833 -33 -101.5s-35.834 -62.667 -60.501 -87s-56.834 -44.166 -96.501 -59.499s-84.834 -23 -135.501 -23c-60.667 0 -113.5 10.333 -158.5 31s-80 48.834 -105 84.501s-43.5 74.667 -55.5 117s-18 87.833 -18 136.5z
M400.002 689.999c-42.667 0 -80.667 -6.66797 -114 -20.001s-60.333 -30.833 -81 -52.5s-37.834 -47.167 -51.501 -76.5s-23.167 -58.666 -28.5 -87.999s-8 -59.666 -8 -90.999s2.66699 -61.833 8 -91.5s14.833 -59.334 28.5 -89.001s31 -55.5 52 -77.5
s48.667 -39.833 83 -53.5s73.166 -20.5 116.499 -20.5c44 0 83 7.16699 117 21.5s61.167 32.5 81.5 54.5s37 48 50 78s21.833 59 26.5 87s7 57 7 87c0 30.667 -2.66699 60.667 -8 90s-14.666 59 -27.999 89s-30.5 56 -51.5 78s-48.667 40 -83 54s-73.166 21 -116.499 21z
" />
    <glyph glyph-name="P" unicode="P" horiz-adv-x="578" 
d="M264 268h-103.999v-254c0 -6 -1 -9.83301 -3 -11.5s-6 -2.5 -12 -2.5h-21c-6 -0 -10 0.833008 -12 2.5s-3 5.5 -3 11.5v694c0 6 1 9.83301 3 11.5s6 2.5 12 2.5h123c92 0 160.833 -17.5 206.5 -52.5s68.5 -91.833 68.5 -170.5c0 -76 -22.833 -133.5 -68.5 -172.5
s-108.834 -58.5 -189.501 -58.5zM160.001 313h101c140 0 210 62 210 186c0 64.667 -17.333 110.5 -52 137.5s-89.667 40.5 -165 40.5h-94v-364z" />
    <glyph glyph-name="Q" unicode="Q" horiz-adv-x="804" 
d="M66 356c0 37.333 3.16797 72.9971 9.50098 106.997s17.5 67.667 33.5 101s36.167 62.333 60.5 87s56.333 44.5 96 59.5s84.834 22.5 135.501 22.5c60 0 112.5 -10.333 157.5 -31s80.167 -48.834 105.5 -84.501s44 -74.667 56 -117s18 -87.833 18 -136.5
c0 -51.333 -5.83301 -99.333 -17.5 -144s-33.834 -87.167 -66.501 -127.5s-74.334 -69.166 -125.001 -86.499c22.667 -9.33301 47 -24 73 -44c58 -42 99.667 -63 125 -63c20 0 39.667 4 59 12c11.333 4.66699 17 2.33398 17 -6.99902v-19
c0 -7.33301 -5.66699 -13.333 -17 -18c-17.333 -7.33301 -38.333 -11 -63 -11c-44.667 0 -94.667 22.333 -150 67c-33.333 26 -61.5 42.833 -84.5 50.5s-53.5 12.167 -91.5 13.5c-59.333 0.666992 -111.166 11.5 -155.499 32.5s-78.833 49.333 -103.5 85
s-42.834 74.334 -54.501 116.001s-17.5 86.834 -17.5 135.501zM400.001 689.997c-42.667 0 -80.667 -6.66797 -114 -20.001s-60.333 -30.833 -81 -52.5s-37.834 -47.167 -51.501 -76.5s-23.167 -58.666 -28.5 -87.999s-8 -59.666 -8 -90.999s2.66699 -61.833 8 -91.5
s14.833 -59.334 28.5 -89.001s31 -55.5 52 -77.5s48.667 -39.833 83 -53.5s73.166 -20.5 116.499 -20.5c44 0 83 7.16699 117 21.5s61.167 32.5 81.5 54.5s37 48 50 78s21.833 59 26.5 87s7 57 7 87c0 30.667 -2.66699 60.667 -8 90s-14.666 59 -27.999 89
s-30.5 56 -51.5 78s-48.667 40 -83 54s-73.166 21 -116.499 21z" />
    <glyph glyph-name="R" unicode="R" horiz-adv-x="629" 
d="M256 292l-97.001 0.00195312v-278c0 -6 -1 -9.83301 -3 -11.5s-6 -2.5 -12 -2.5h-21c-6 0 -10 0.833008 -12 2.5s-3 5.5 -3 11.5v694c0 6 1 9.83301 3 11.5s6 2.5 12 2.5h128c174 0 261 -70.667 261 -212c0 -59.333 -14.167 -106.333 -42.5 -141
s-67.5 -57.667 -117.5 -69c25.333 -12.667 47.166 -33.834 65.499 -63.501s43.166 -79.5 74.499 -149.5c8 -18.667 16.167 -31 24.5 -37s19.5 -9 33.5 -9c16.667 0 33.334 4.66699 50.001 14c10 5.33301 15 3.33301 15 -6v-19c0 -9.33301 -6.33301 -17 -19 -23
c-16.667 -7.33301 -33.667 -11 -51 -11c-21.333 0 -40 5.16699 -56 15.5s-31.333 32.166 -46 65.499c-2 4.66699 -6.66699 16.167 -14 34.5s-13.166 32.166 -17.499 41.499s-10.833 22.333 -19.5 39s-17.167 29.834 -25.5 39.501s-18.166 19.667 -29.499 30
s-23.833 18 -37.5 23s-28.167 7.5 -43.5 7.5zM158.999 335.002h106.999c65.333 0 113.833 13.667 145.5 41s47.5 71.666 47.5 132.999c0 58.667 -16.667 101.334 -50 128.001s-83.666 40 -150.999 40h-99v-342z" />
    <glyph glyph-name="S" unicode="S" horiz-adv-x="554" 
d="M470 686l0.000976562 -20.998c0 -10 -5.66699 -12.667 -17 -8c-52 19.333 -107.333 29 -166 29c-52.667 0 -92.834 -9.16699 -120.501 -27.5s-41.5 -49.5 -41.5 -93.5c0 -28 6.83301 -51.333 20.5 -70s31.334 -32.834 53.001 -42.501s45.5 -18.334 71.5 -26.001
s52.167 -16.667 78.5 -27s50.333 -23 72 -38s39.334 -37 53.001 -66s20.5 -64.167 20.5 -105.5c0 -132.667 -76.667 -199 -230 -199c-81.333 0 -146.333 13 -195 39c-7.33301 3.33301 -11 9.33301 -11 18v22c0 10 4.66699 13 14 9c61.333 -28 125 -42 191 -42
c56.667 0 101 11.167 133 33.5s48 61.166 48 116.499c0 36 -6.83301 66.333 -20.5 91s-31.334 43.5 -53.001 56.5s-45.5 23.833 -71.5 32.5l-78.5 26c-26.333 8.66699 -50.333 19 -72 31s-39.334 29.5 -53.001 52.5s-20.5 51.5 -20.5 85.5c0 113.333 70.333 170 211 170
c68.667 0 127 -10 175 -30c6 -3.33301 9 -8.66602 9 -15.999z" />
    <glyph glyph-name="T" unicode="T" 
d="M43 677c-6 0 -9.83301 1 -11.5 3s-2.5 5.66699 -2.5 11v16c0 6 0.833008 10 2.5 12s5.5 3 11.5 3h466c5.33301 0 8.83301 -1 10.5 -3s2.5 -6 2.5 -12v-16c0 -5.33301 -0.833008 -9 -2.5 -11s-5.16699 -3 -10.5 -3h-208v-663c0 -6 -1 -9.83301 -3 -11.5s-6 -2.5 -12 -2.5
h-21c-5.33301 -0 -9 0.833008 -11 2.5s-3 5.5 -3 11.5v663h-208z" />
    <glyph glyph-name="U" unicode="U" horiz-adv-x="701" 
d="M351 40c67.333 0 117.166 19.332 149.499 57.999s48.5 98 48.5 178v432c0 6 1 9.83301 3 11.5s6 2.5 12 2.5h21c6 0 10 -0.833008 12 -2.5s3 -5.5 3 -11.5v-436c0 -90 -19.667 -159 -59 -207s-102.666 -72 -189.999 -72c-88 0 -151.5 23.833 -190.5 71.5
s-58.5 116.834 -58.5 207.501v436c0 6 1 9.83301 3 11.5s5.66699 2.5 11 2.5h21c6 0 10 -0.833008 12 -2.5s3 -5.5 3 -11.5v-432c0 -80 16.167 -139.333 48.5 -178s82.5 -58 150.5 -58z" />
    <glyph glyph-name="V" unicode="V" horiz-adv-x="601" 
d="M101 709l202.001 -651l203 651c2.66699 8.66699 8.66699 13 18 13h24c9.33301 0 12 -6 8 -18l-218 -693c-2.66699 -7.33301 -9 -11 -19 -11h-32c-10.667 0 -16.667 3.66699 -18 11l-219 693c-3.33301 12 -0.333008 18 9 18h23c9.33301 0 15.666 -4.33301 18.999 -13z" />
    <glyph glyph-name="W" unicode="W" horiz-adv-x="895" 
d="M464 722c8 0 13.3271 -4.33301 15.9941 -13l160 -664l163 664c1.33301 8.66699 7 13 17 13h24c10.667 0 14.334 -5 11.001 -15l-176 -694c-2 -8.66699 -8 -13 -18 -13h-38c-6 0 -10.167 0.666992 -12.5 2s-4.16602 5 -5.49902 11l-153 632l-154 -632
c-1.33301 -6 -3.16602 -9.66699 -5.49902 -11s-6.5 -2 -12.5 -2h-38c-10 -0 -16 4.33301 -18 13l-176 694c-3.33301 10 0.333984 15 11.001 15h25c8.66699 0 14.334 -4.33301 17.001 -13l162 -664l160 664c2.66699 8.66699 8.33398 13 17.001 13h24z" />
    <glyph glyph-name="X" unicode="X" horiz-adv-x="591" 
d="M334 365l226.001 -346c7.33301 -12.667 5 -19 -7 -19h-27c-8.66699 -0 -15.334 3.33301 -20.001 10l-199 312l-201 -312c-4.66699 -6.66699 -12 -10 -22 -10h-27c-11.333 -0 -13.333 6.33301 -6 19l226 347l-223 337c-7.33301 12.667 -5.33301 19 6 19h25
c10 0 17.667 -4 23 -12l197 -301l199 301c5.33301 8 12.333 12 21 12h26c12.667 0 14.667 -6.33301 6 -19z" />
    <glyph glyph-name="Y" unicode="Y" horiz-adv-x="580" 
d="M276 292l-227 412c-7.33301 12 -5.33301 18 6 18h27c6 0 10 -0.833008 12 -2.5s4.33301 -5.16699 7 -10.5l199 -364l201 364c4 8.66699 10 13 18 13h28c10.667 0 12.667 -6 6 -18l-227 -412v-278c0 -6 -1 -9.83301 -3 -11.5s-6 -2.5 -12 -2.5h-20
c-6 -0 -10 0.833008 -12 2.5s-3 5.5 -3 11.5v278z" />
    <glyph glyph-name="Z" unicode="Z" horiz-adv-x="508" 
d="M60 0c-9.33301 0 -14 5.33301 -14 16v15c0 8.66699 2 16 6 22l347 624h-330c-8.66699 0 -13 4.66699 -13 14v16c0 10 4.33301 15 13 15h375c6 0 9.83301 -1 11.5 -3s2.5 -5.33301 2.5 -10v-15c0 -12.667 -3.33301 -25 -10 -37l-344 -612h339
c5.33301 0 8.83301 -1 10.5 -3s2.5 -5.66699 2.5 -11v-16c0 -6 -0.833008 -10 -2.5 -12s-5.16699 -3 -10.5 -3h-383z" />
    <glyph glyph-name="bracketleft" unicode="[" horiz-adv-x="273" 
d="M116 747l89 -0.00195312c12.667 0 19 -4.33301 19 -13v-10c0 -8 -1.16699 -13 -3.5 -15s-6.83301 -3 -13.5 -3h-70v-824h70c11.333 0 17 -5.66699 17 -17v-10c0 -9.33301 -6.33301 -14 -19 -14h-89c-10.667 0 -18.167 2.33301 -22.5 7s-6.5 13.334 -6.5 26.001v840
c0 12.667 2.16699 21.334 6.5 26.001s11.833 7 22.5 7z" />
    <glyph glyph-name="backslash" unicode="\" horiz-adv-x="401" 
d="M101 704l294.002 -682c5.33301 -14.667 2.66602 -22 -8.00098 -22h-20c-6.66699 0 -11 0.666992 -13 2s-4.66699 6 -8 14l-295 682c-7.33301 16 -6 24 4 24h27c4.66699 0 8.16699 -1 10.5 -3s5.16602 -7 8.49902 -15z" />
    <glyph glyph-name="bracketright" unicode="]" horiz-adv-x="273" 
d="M77 747l80 0.00195312c10.667 0 18.167 -2.33301 22.5 -7s6.5 -13.334 6.5 -26.001v-840c0 -12.667 -2.16699 -21.334 -6.5 -26.001s-11.833 -7 -22.5 -7h-80c-18.667 0 -28 4.66699 -28 14v10c0 6.66699 1.83301 11.167 5.5 13.5s10.5 3.5 20.5 3.5h61v824h-61
c-10.667 0 -17.667 1 -21 3s-5 7 -5 15v10c0 8.66699 9.33301 13 28 13z" />
    <glyph glyph-name="asciicircum" unicode="^" horiz-adv-x="532" 
d="M270 694l-175 -259.001c-0.666992 -0.666992 -1.66699 -2 -3 -4c-7.33301 -11.333 -14.333 -17.666 -21 -18.999c-3.33301 -0.666992 -7.33301 -1 -12 -1c-10 0 -16.667 2.33301 -20 7s-2 12 4 22l194 294c5.33301 11.333 16.333 17 33 17v-57zM270 693.999
l175.001 -258.999c1.33301 -1.33301 2.83301 -3.33301 4.5 -6l3.5 -5.5c0.666992 -1 1.66699 -2.33301 3 -4s2.5 -2.83398 3.5 -3.50098s2.33301 -1.33398 4 -2.00098s3.16699 -1.16699 4.5 -1.5s3.16602 -0.666016 5.49902 -0.999023s4.83301 -0.5 7.5 -0.5
c22.667 0 27.667 9.66699 15 29l-193 294c-5.33301 11.333 -16.333 17 -33 17v-57z" />
    <glyph glyph-name="underscore" unicode="_" horiz-adv-x="858" 
d="M770 -64h-687c-9.33301 0 -14 7.66699 -14 23c0 14.667 8.33301 22 25 22h680c8.66699 0 13 -7.33301 13 -22c0 -8.66699 -1.16699 -14.667 -3.5 -18s-6.83301 -5 -13.5 -5z" />
    <glyph glyph-name="grave" unicode="`" horiz-adv-x="273" 
d="M241 643l-2 -7.99902c-2.66699 -6 -11 -6.33301 -25 -1l-159 55c-9.33301 4 -12 10.667 -8 20l9 19c4 7.33301 11 8.66602 21 3.99902l157 -71c8.66699 -4 11 -10 7 -18z" />
    <glyph glyph-name="a" unicode="a" horiz-adv-x="549" 
d="M443 360l-0.000976562 -278c0 -27.333 10.667 -41 32 -41c10 0 22.333 2 37 6c5.33301 2 9.33301 2.5 12 1.5s4 -4.16699 4 -9.5v-20c0 -8 -4 -13.333 -12 -16c-16.667 -4.66699 -33.334 -7 -50.001 -7c-48 0 -72 26.333 -72 79v7c-39.333 -58.667 -100.333 -88 -183 -88
c-52 0 -91.5 12 -118.5 36s-40.5 58.667 -40.5 104c0 59.333 23.167 102.333 69.5 129s117.833 40 214.5 40h58v56c0 54 -12.167 90.667 -36.5 110s-61.166 29 -110.499 29s-97.666 -7.33301 -144.999 -22c-10 -3.33301 -15 -0.333008 -15 9v21c0 4.66699 0.833008 8 2.5 10
s6.16699 4.33301 13.5 7c40 14 88.667 21 146 21c27.333 0 50.833 -2 70.5 -6s39.667 -12 60 -24s36 -30.833 47 -56.5s16.5 -58.167 16.5 -97.5zM101.999 134c0 -62.667 37.332 -94 111.999 -94c52.667 0 95.834 15.167 129.501 45.5s50.5 72.833 50.5 127.5v45h-58
c-82 0 -141.5 -9.83301 -178.5 -29.5s-55.5 -51.167 -55.5 -94.5z" />
    <glyph glyph-name="b" unicode="b" horiz-adv-x="576" 
d="M88 35v713.999c0 6 1 9.83301 3 11.5s5.66699 2.5 11 2.5h21c6 0 10 -0.833008 12 -2.5s3 -5.5 3 -11.5v-336c32 87.333 90.667 131 176 131c64 0 113.167 -22.667 147.5 -68s51.5 -112.666 51.5 -201.999c0 -191.333 -78.667 -287 -236 -287c-71.333 0 -130 9 -176 27
c-8.66699 3.33301 -13 10.333 -13 21zM307 497.999c-99.333 0 -156 -76 -170 -228v-217c43.333 -13.333 88.333 -20 135 -20c125.333 0 188 80 188 240c0 150 -51 225 -153 225z" />
    <glyph glyph-name="c" unicode="c" horiz-adv-x="508" 
d="M115 268c0 -153.333 61.668 -230 185.001 -230c35.333 0 80 9.33301 134 28c11.333 5.33301 17 3 17 -7v-19c0 -10 -3.33301 -16.667 -10 -20c-37.333 -18.667 -84.666 -28 -141.999 -28c-80.667 0 -140.334 24.333 -179.001 73s-58 116 -58 202
c0 87.333 19.667 155.333 59 204s99.666 73 180.999 73c56 0 101.333 -9.66699 136 -29c8.66699 -5.33301 13 -11.333 13 -18v-25c0 -8 -4.33301 -10.333 -13 -7l-12.5 6c-7 3.33301 -13.833 6.33301 -20.5 9s-15 5.5 -25 8.5s-21.333 5.33301 -34 7s-26 2.5 -40 2.5
c-127.333 0 -191 -76.667 -191 -230z" />
    <glyph glyph-name="d" unicode="d" horiz-adv-x="579" 
d="M488 128c0 -8.66699 0.332031 -15.001 0.999023 -19.001l6 -94c0.666992 -10 -2.66602 -15 -9.99902 -15h-26c-8 0 -12.333 5.33301 -13 16l-8 93c-12.667 -38 -35 -67.833 -67 -89.5s-69.667 -32.5 -113 -32.5c-62 0 -110.167 22.333 -144.5 67s-51.5 108 -51.5 190
c0 88.667 20.167 160.834 60.5 216.501s99.5 83.5 177.5 83.5c55.333 0 101.333 -14.667 138 -44v249c0 6 1 9.83301 3 11.5s6 2.5 12 2.5h20c6 0 10 -0.833008 12 -2.5s3 -5.5 3 -11.5v-621zM266.999 32.999c100.667 0 157.667 75.667 171 227v190
c-33.333 32 -78.333 48 -135 48c-34 0 -63.833 -7.33301 -89.5 -22s-45.5 -34.5 -59.5 -59.5s-24.333 -51.833 -31 -80.5s-10 -59 -10 -91c0 -61.333 12.333 -112 37 -152s63.667 -60 117 -60z" />
    <glyph glyph-name="e" unicode="e" 
d="M289 544c64 0 112.668 -14.667 146.001 -44s50 -71 50 -125s-17.167 -95.5 -51.5 -124.5s-85.5 -43.5 -153.5 -43.5c-62.667 0 -119 10.667 -169 32c2.66699 -72.667 20.167 -124.334 52.5 -155.001s80.166 -46 143.499 -46c49.333 0 94.666 8.33301 135.999 25
c24.667 10 37.334 15 38.001 15c4.66699 0 7 -2.33301 7 -7v-28c0 -6.66699 -6.66699 -13 -20 -19c-48 -21.333 -102 -32 -162 -32c-162.667 0 -244 89 -244 267c0 88.667 19.5 158.334 58.5 209.001s95.167 76 168.5 76zM289.001 498
c-54.667 0 -97.168 -18.5 -127.501 -55.5s-47.166 -90.167 -50.499 -159.5c52 -20.667 108 -31 168 -31c105.333 0 158 41.667 158 125c0 80.667 -49.333 121 -148 121z" />
    <glyph glyph-name="f" unicode="f" horiz-adv-x="351" 
d="M123 487l-76.001 0.000976562c-5.33301 0 -8.66602 0.666992 -9.99902 2s-2 4.33301 -2 9v21c0 8.66699 4 13 12 13h76v83c0 55.333 10.333 95.5 31 120.5s52.667 37.5 96 37.5c27.333 0 49.666 -4.33301 66.999 -13c7.33301 -3.33301 11 -9 11 -17v-20
c0 -8.66699 -4.33301 -11.334 -13 -8.00098c-17.333 8 -37.666 12 -60.999 12c-27.333 0 -47.833 -8.16699 -61.5 -24.5s-20.5 -43.833 -20.5 -82.5v-88h139c8.66699 0 13 -3.33301 13 -10v-24c0 -7.33301 -4 -11 -12 -11h-140v-473c0 -6 -1 -9.83301 -3 -11.5
s-5.66699 -2.5 -11 -2.5h-21c-5.33301 -0 -9 0.833008 -11 2.5s-3 5.5 -3 11.5v473z" />
    <glyph glyph-name="g" unicode="g" horiz-adv-x="577" 
d="M251 -203c61.333 0 107.831 15.168 139.498 45.501s47.5 78.833 47.5 145.5v121c-12 -37.333 -34.167 -67 -66.5 -89s-70.166 -33 -113.499 -33c-62 0 -110.167 22.333 -144.5 67s-51.5 108 -51.5 190c0 79.333 16.333 145.5 49 198.5s80 85.167 142 96.5
c18.667 3.33301 35.667 5 51 5c54.667 -0.666992 99.334 -15.334 134.001 -44.001v19c0 8.66699 5 13 15 13h21c5.33301 0 9 -0.833008 11 -2.5s3 -5.5 3 -11.5v-529c0 -159.333 -79.667 -239 -239 -239c-54 0 -105 8 -153 24c-8 2 -12 7 -12 15v26
c0 7.33301 3.66699 9.33301 11 6c51.333 -16 103.333 -24 156 -24zM266.998 33.001c100.667 0 157.666 75.667 170.999 227v190c-33.333 32 -78.333 48 -135 48c-34 0 -63.667 -7.33301 -89 -22s-45.166 -34.5 -59.499 -59.5s-24.833 -51.833 -31.5 -80.5s-10 -59 -10 -91
c0 -61.333 12.333 -112 37 -152s63.667 -60 117 -60z" />
    <glyph glyph-name="h" unicode="h" horiz-adv-x="559" 
d="M89 749c0 6 1.00098 9.83398 3.00098 11.501s5.66699 2.5 11 2.5h21c5.33301 0 9 -0.833008 11 -2.5s3 -5.5 3 -11.5v-312c14.667 36 37.167 62.833 67.5 80.5s64.166 26.5 101.499 26.5c50.667 0 91.167 -16 121.5 -48s45.5 -77.667 45.5 -137v-345
c0 -6 -1 -9.83301 -3 -11.5s-5.66699 -2.5 -11 -2.5h-21c-5.33301 0 -9 0.833008 -11 2.5s-3 5.5 -3 11.5v333c0 100.667 -42.667 151 -128 151c-48.667 0 -87 -18.333 -115 -55s-42.667 -88.334 -44 -155.001v-274c0 -6 -1 -9.83301 -3 -11.5s-5.66699 -2.5 -11 -2.5h-21
c-5.33301 -0 -9 0.833008 -11 2.5s-3 5.5 -3 11.5v735z" />
    <glyph glyph-name="i" unicode="i" horiz-adv-x="227" 
d="M89 518c0 6 1 9.83301 3 11.5s5.66699 2.5 11 2.5h21c6 0 10 -0.833008 12 -2.5s3 -5.5 3 -11.5v-504c0 -6 -1 -9.83301 -3 -11.5s-6 -2.5 -12 -2.5h-21c-5.33301 -0 -9 0.833008 -11 2.5s-3 5.5 -3 11.5v504zM78 709c0 12.667 3.33105 22.834 9.99805 30.501
s15.667 11.5 27 11.5c9.33301 0 17.5 -3.66699 24.5 -11s10.5 -16.333 10.5 -27c0 -12.667 -3.66699 -22.334 -11 -29.001s-16.666 -10 -27.999 -10c-9.33301 0 -17.166 3.16699 -23.499 9.5s-9.5 14.833 -9.5 25.5z" />
    <glyph glyph-name="j" unicode="j" horiz-adv-x="227" 
d="M138 -118c0 -88 -36 -132 -108 -132c-30 0 -51 3.66699 -63 11c-6 2.66699 -9 7 -9 13v23c0 8 4.33301 10.667 13 8c21.333 -6 40.333 -9 57 -9c40.667 0 61 31 61 93v629c0 6 1 9.83301 3 11.5s5.66699 2.5 11 2.5h21c5.33301 0 9 -0.833008 11 -2.5s3 -5.5 3 -11.5
v-636zM78 709c0 12.667 3.33105 22.834 9.99805 30.501s15.667 11.5 27 11.5c10 0 18.333 -3.66699 25 -11s10 -16.333 10 -27c0 -12.667 -3.66699 -22.334 -11 -29.001s-16.666 -10 -27.999 -10c-9.33301 0 -17.166 3.16699 -23.499 9.5s-9.5 14.833 -9.5 25.5z" />
    <glyph glyph-name="k" unicode="k" horiz-adv-x="488" 
d="M441 512l-247 -233l254 -264c4 -4.66699 5.16699 -8.33398 3.5 -11.001s-5.16699 -4 -10.5 -4h-27c-10.667 0 -19 3 -25 9l-251 260v-259v-1c-0.666992 -0.666992 -1 -1.33398 -1 -2.00098s-0.333008 -1.66699 -1 -3v-1l-1 -1h-1l-1 -1c-0.666992 0 -1 -0.166992 -1 -0.5
s-0.333008 -0.5 -1 -0.5h-36l-1 1l-1 1h-2c-1.33301 2.66699 -2 5.33398 -2 8.00098v743c0 4.66699 2 7.66699 6 9c1.33301 0.666992 4 1 8 1h25c4.66699 -0.666992 7.66699 -2.66699 9 -6v-1c0.666992 -1.33301 1 -3.66602 1 -6.99902v-462l249 234
c7.33301 7.33301 16 11 26 11h27c5.33301 0 8.33301 -2 9 -6s-2 -8.66699 -8 -14z" />
    <glyph glyph-name="l" unicode="l" horiz-adv-x="227" 
d="M138 749v-735c0 -6 -1 -9.83301 -3 -11.5s-5.66699 -2.5 -11 -2.5h-21c-5.33301 -0 -9 0.833008 -11 2.5s-3 5.5 -3 11.5v735c0 6 1 9.83301 3 11.5s5.66699 2.5 11 2.5h21c5.33301 0 9 -0.833008 11 -2.5s3 -5.5 3 -11.5z" />
    <glyph glyph-name="m" unicode="m" horiz-adv-x="861" 
d="M727 358c0 92 -39.333 138 -118 138c-99.333 0 -150 -58 -152 -174v-308c0 -6 -1 -9.83301 -3 -11.5s-5.66699 -2.5 -11 -2.5h-21c-5.33301 -0 -9 0.833008 -11 2.5s-3 5.5 -3 11.5v350c-2 88 -41.333 132 -118 132c-101.333 0 -152 -60.667 -152 -182v-300
c0 -6 -1 -9.83301 -3 -11.5s-5.66699 -2.5 -11 -2.5h-21c-5.33301 -0 -9 0.833008 -11 2.5s-3 5.5 -3 11.5v504c0 9.33301 4.66699 14 14 14h21c9.33301 0 14 -4.66699 14 -14v-68c30 62.667 83 94 159 94c36 0 67 -8.66699 93 -26s44.333 -42.333 55 -75
c32 67.333 89 101 171 101c48.667 0 87.5 -15.167 116.5 -45.5s43.5 -73.5 43.5 -129.5v-355c0 -6 -1 -9.83301 -3 -11.5s-5.66699 -2.5 -11 -2.5h-21c-5.33301 -0 -9 0.833008 -11 2.5s-3 5.5 -3 11.5v344z" />
    <glyph glyph-name="n" unicode="n" horiz-adv-x="559" 
d="M297 498c-50 0 -88.999 -19.333 -116.999 -58s-42 -92.667 -42 -162v-264c0 -6 -1 -9.83301 -3 -11.5s-5.66699 -2.5 -11 -2.5h-21c-5.33301 -0 -9 0.833008 -11 2.5s-3 5.5 -3 11.5v504c0 9.33301 4.66699 14 14 14h21c9.33301 0 14 -4.66699 14 -14v-81
c14.667 36 37.167 62.833 67.5 80.5s64.166 26.5 101.499 26.5c50.667 0 91.167 -16 121.5 -48s45.5 -77.667 45.5 -137v-345c0 -6 -1 -9.83301 -3 -11.5s-5.66699 -2.5 -11 -2.5h-21c-5.33301 -0 -9 0.833008 -11 2.5s-3 5.5 -3 11.5v333c0 100.667 -42.667 151 -128 151z
" />
    <glyph glyph-name="o" unicode="o" horiz-adv-x="572" 
d="M63 266c0 84.667 18 152.167 54 202.5s92.333 75.5 169 75.5c76 0 132.167 -25.167 168.5 -75.5s54.5 -117.833 54.5 -202.5s-18.167 -152.334 -54.5 -203.001s-92.5 -76 -168.5 -76c-76.667 0 -133 25.333 -169 76s-54 118.334 -54 203.001zM286 498
c-115.333 0 -173 -77.333 -173 -232c0 -155.333 57.667 -233 173 -233c114.667 0 172 77.667 172 233c0 154.667 -57.333 232 -172 232z" />
    <glyph glyph-name="p" unicode="p" horiz-adv-x="578" 
d="M103 -249c-5.33301 0 -8.99902 0.833008 -10.999 2.5s-3 5.5 -3 11.5v753c0 9.33301 4.66699 14 14 14h21c9.33301 0 14 -4.66699 14 -14v-110c13.333 46 36.166 80.167 68.499 102.5s70.833 33.5 115.5 33.5c128 0 192 -90.333 192 -271c0 -190.667 -75 -286 -225 -286
c-50.667 0 -101 14 -151 42v-264c0 -6 -1 -9.83301 -3 -11.5s-5.66699 -2.5 -11 -2.5h-21zM315.001 498c-102.667 0 -161.333 -75.667 -176 -227v-191c38 -31.333 87.667 -47 149 -47c117.333 0 176 80.333 176 241c0 149.333 -49.667 224 -149 224z" />
    <glyph glyph-name="q" unicode="q" horiz-adv-x="577" 
d="M438 117c-11.333 -40 -33 -71.668 -65 -95.001s-70.333 -35 -115 -35c-62 0 -110.167 22.333 -144.5 67s-51.5 108 -51.5 190c0 88.667 20.167 160.834 60.5 216.501s99.5 83.5 177.5 83.5c55.333 0 101.333 -14.667 138 -44v19c0 8.66699 5 13 15 13h20
c6 0 10 -0.833008 12 -2.5s3 -5.5 3 -11.5v-753c0 -6 -1 -9.83301 -3 -11.5s-6 -2.5 -12 -2.5h-20c-6 0 -10 0.833008 -12 2.5s-3 5.5 -3 11.5v352zM267 32.999c100.667 0 157.667 75.667 171 227v190c-33.333 32 -78.333 48 -135 48c-34 0 -63.833 -7.33301 -89.5 -22
s-45.5 -34.5 -59.5 -59.5s-24.333 -51.833 -31 -80.5s-10 -59 -10 -91c0 -61.333 12.333 -112 37 -152s63.667 -60 117 -60z" />
    <glyph glyph-name="r" unicode="r" horiz-adv-x="397" 
d="M89 518c0 6 1 9.83203 3 11.499s5.66699 2.5 11 2.5h21c5.33301 0 9 -0.833008 11 -2.5s3 -5.5 3 -11.5v-125c4 16 9.33301 31.5 16 46.5s16.334 31 29.001 48s29.667 30.667 51 41s45.666 15.5 72.999 15.5c22 0 39.333 -2.33301 52 -7c8 -2.66699 12 -7.66699 12 -15
v-27c0 -7.33301 -3.66699 -9.66602 -11 -6.99902c-18 6.66699 -35.667 10 -53 10c-37.333 0 -69.5 -14.5 -96.5 -43.5s-45.667 -61.167 -56 -96.5s-15.833 -70 -16.5 -104v-240c0 -6 -1 -9.83301 -3 -11.5s-5.66699 -2.5 -11 -2.5h-21c-5.33301 -0 -9 0.833008 -11 2.5
s-3 5.5 -3 11.5v504z" />
    <glyph glyph-name="s" unicode="s" horiz-adv-x="485" 
d="M408 511l-0.000976562 -25c0 -8 -4.66699 -10.667 -14 -8c-37.333 14 -83 21 -137 21c-89.333 0 -134 -30.333 -134 -91c0 -21.333 5.66699 -39 17 -53s25.833 -24.333 43.5 -31s37.5 -12.5 59.5 -17.5s43.833 -10.667 65.5 -17s41.334 -14.5 59.001 -24.5
s32.167 -25.167 43.5 -45.5s17 -45.166 17 -74.499c0 -101.333 -64.667 -152 -194 -152c-70 0 -127.667 8.33301 -173 25c-6 2 -9 6.33301 -9 13v27c0 6 4 8 12 6c65.333 -17.333 122.333 -26 171 -26c95.333 0 143 34.667 143 104c0 32 -10.5 56.667 -31.5 74
s-46.333 29.5 -76 36.5s-59.5 14.5 -89.5 22.5s-55.5 22.667 -76.5 44s-31.5 50.666 -31.5 87.999c0 91.333 62 137 186 137c54 0 100 -6.33301 138 -19c7.33301 -2 11 -6.66699 11 -14z" />
    <glyph glyph-name="t" unicode="t" horiz-adv-x="356" 
d="M45 532l70.999 0.000976562l6 139c0.666992 10.667 8.33398 16 23.001 16c9.33301 0 15.166 -1 17.499 -3s3.5 -6.33301 3.5 -13v-139h134c8.66699 0 13 -3.33301 13 -10v-23c0 -7.33301 -4 -11 -12 -11h-135v-324c0 -51.333 6.83301 -85 20.5 -101s34.167 -24 61.5 -24
c28 0 51 4.33301 69 13c10.667 5.33301 16 3 16 -7v-22c0 -6.66699 -4.66699 -12 -14 -16c-22 -8.66699 -47.667 -13 -77 -13c-40 0 -71 11.167 -93 33.5s-33 63.5 -33 123.5v337h-71c-5.33301 0 -8.66602 0.666992 -9.99902 2s-2 4.66602 -2 9.99902v19
c0 8.66699 4 13 12 13z" />
    <glyph glyph-name="u" unicode="u" horiz-adv-x="561" 
d="M135 170c0 -89.333 39.332 -133.999 117.999 -133.999c54.667 0 96.5 17 125.5 51s43.5 81.333 43.5 142v289c0 9.33301 4.66699 14 14 14h21c9.33301 0 14 -4.66699 14 -14v-389c0 -9.33301 0.333008 -16.333 1 -21l6 -93c0.666992 -10 -2.66602 -15 -9.99902 -15h-26
c-6.66699 0 -11 5.33301 -13 16l-5 66c-18.667 -32.667 -42 -55.834 -70 -69.501s-63 -20.5 -105 -20.5c-56.667 0 -98.167 14.167 -124.5 42.5s-39.5 75.5 -39.5 141.5v342c0 9.33301 4.66699 14 14 14h21c10 0 15 -4.66699 15 -14v-348z" />
    <glyph glyph-name="v" unicode="v" horiz-adv-x="507" 
d="M257 47l157.998 473c2 8 7.33301 12 16 12h25c8 0 11 -4.66699 9 -14l-171 -504c-3.33301 -9.33301 -10 -14 -20 -14h-35c-9.33301 0 -15.666 4.66699 -18.999 14l-172 504c-2 9.33301 1 14 9 14h25c8.66699 0 14.334 -4 17.001 -12z" />
    <glyph glyph-name="w" unicode="w" horiz-adv-x="809" 
d="M101 521l137.998 -476l138 470c2 8 3.83301 12.833 5.5 14.5s5.5 2.5 11.5 2.5h27c6 0 9.83301 -0.833008 11.5 -2.5s3.83398 -6.5 6.50098 -14.5l137 -472l138 477c2 8 6.33301 12 13 12h28c10 0 13.667 -4.33301 11 -13l-153 -505
c-3.33301 -9.33301 -10.333 -14 -21 -14h-29c-8 0 -13.333 1 -16 3s-4.66699 6 -6 12l-134 450l-134 -450c-1.33301 -6 -3.16602 -10 -5.49902 -12s-7.5 -3 -15.5 -3h-29c-11.333 0 -18.333 5 -21 15l-154 504c-2 8.66699 1.66699 13 11 13h29c6.66699 0 11 -3.66699 13 -11
z" />
    <glyph glyph-name="x" unicode="x" horiz-adv-x="488" 
d="M279 269l171.004 -253c7.33301 -10.667 5.33301 -16 -6 -16h-29c-8.66699 -0 -15.334 3.33301 -20.001 10l-145 221l-146 -221c-4 -6.66699 -10.667 -10 -20 -10h-27c-4.66699 0 -7.83398 1.66699 -9.50098 5s-0.833984 7 2.49902 11l171 253l-167 246
c-8.66699 11.333 -6.66699 17 6 17h28c8 0 14 -3.33301 18 -10l144 -213l143 213c4 6.66699 10.333 10 19 10h30c11.333 0 12.666 -5.66699 3.99902 -17z" />
    <glyph glyph-name="y" unicode="y" horiz-adv-x="533" 
d="M56 -228l-0.00195312 24c0 6.66699 5.66699 8.66699 17 6c14.667 -4 27.334 -6 38.001 -6c28 0 50.5 7.83301 67.5 23.5s33.167 45.5 48.5 89.5l24 69l-205 540c-3.33301 9.33301 0 14 10 14h26c8 0 13.667 -4.66699 17 -14l177 -469l166 469c2 6 4.33301 9.83301 7 11.5
s7.33398 2.5 14.001 2.5h20c12 0 15.333 -6.66699 10 -20l-223 -619c-20.667 -56.667 -43 -94.667 -67 -114s-52.333 -29 -85 -29c-20 0 -37.333 2 -52 6c-6.66699 2 -10 7.33301 -10 16z" />
    <glyph glyph-name="z" unicode="z" horiz-adv-x="482" 
d="M73 532l338 -0.000976562c9.33301 0 14 -4 14 -12v-16c0 -7.33301 -7 -21 -21 -41l-299 -418h313c9.33301 0 14 -4.66699 14 -14v-19c0 -8 -7 -12 -21 -12h-352c-8 0 -12 4.33301 -12 13v15c0 10.667 1.66699 18.334 5 23.001l309 436h-288c-8 0 -12 5 -12 15v17
c0 8.66699 4 13 12 13z" />
    <glyph glyph-name="braceleft" unicode="{" horiz-adv-x="339" 
d="M52 295l-0.000976562 14h56v-1c47.333 -11.333 71 -50.333 71 -117v-166c0 -68 31.333 -102 94 -102c6.66699 0 11.167 -0.666992 13.5 -2s3.5 -4.66602 3.5 -9.99902v-14c0 -5.33301 -1.16699 -8.83301 -3.5 -10.5s-7.16602 -2.5 -14.499 -2.5h-7
c-90 0 -135 47.333 -135 142v164c0 26 -4.5 46.167 -13.5 60.5s-26.167 24.833 -51.5 31.5c-8 5.33301 -12.333 9.66602 -13 12.999zM51.999 309l0.000976562 13.999c0 6.66699 3.33301 10.667 10 12c1.33301 0.666992 2.33301 1 3 1c25.333 6.66699 42.5 17.167 51.5 31.5
s13.5 34.5 13.5 60.5v164c0 94.667 45 142 135 142h7c7.33301 0 12.166 -0.833008 14.499 -2.5s3.5 -5.16699 3.5 -10.5v-14c0 -5.33301 -1.16699 -8.66602 -3.5 -9.99902s-6.83301 -2 -13.5 -2c-62.667 0 -94 -34 -94 -102v-166c0 -66.667 -23.667 -105.667 -71 -117v-1
h-56z" />
    <glyph glyph-name="bar" unicode="|" horiz-adv-x="224" 
d="M137 -103c0 -12 -5.33301 -18.333 -16 -19h-19c-10 0 -15 6 -15 18v827c0 12 5.33301 18.333 16 19h19c10 0 15 -6 15 -18v-827z" />
    <glyph glyph-name="braceright" unicode="}" horiz-adv-x="339" 
d="M287 295l0.000976562 14h-56v-1c-47.333 -11.333 -71 -50.333 -71 -117v-166c0 -68 -31.333 -102 -94 -102c-6.66699 0 -11.167 -0.666992 -13.5 -2s-3.5 -4.66602 -3.5 -9.99902v-14c0 -5.33301 1.16699 -8.83301 3.5 -10.5s7.16602 -2.5 14.499 -2.5h7
c90 0 135 47.333 135 142v164c0 26 4.5 46.167 13.5 60.5s26.167 24.833 51.5 31.5c8 5.33301 12.333 9.66602 13 12.999zM287.001 323l0.000976562 -14h-56v1c-47.333 11.333 -71 50.333 -71 117v166c0 68 -31.333 102 -94 102c-6.66699 0 -11.167 0.666992 -13.5 2
s-3.5 4.66602 -3.5 9.99902v14c0 5.33301 1.16699 8.83301 3.5 10.5s7.16602 2.5 14.499 2.5h7c90 0 135 -47.333 135 -142v-164c0 -26 4.5 -46.167 13.5 -60.5s26.167 -24.833 51.5 -31.5c8 -5.33301 12.333 -9.66602 13 -12.999z" />
    <glyph glyph-name="asciitilde" unicode="~" horiz-adv-x="453" 
d="M301 280c38.667 0 58.332 19 58.999 57c0 4.66699 2.66699 7 8 7h24c5.33301 0 8 -3 8 -9c0 -65.333 -34.333 -98 -103 -98c-42.667 0 -72 16 -88 48c-4.66699 10 -8.16699 17 -10.5 21s-7.5 8.16699 -15.5 12.5s-18 6.5 -30 6.5c-38 0 -57.667 -19 -59 -57
c0 -5.33301 -2.66699 -8 -8 -8h-23c-5.33301 0 -8 3.33301 -8 10c0 30.667 8.83301 54.5 26.5 71.5s42.834 25.5 75.501 25.5c25.333 0 44 -4.66699 56 -14s22 -22 30 -38c4 -8.66699 7.5 -15 10.5 -19s8.5 -7.66699 16.5 -11s18.333 -5 31 -5z" />
    <glyph glyph-name="nonbreakingspace" unicode="&#xa0;" horiz-adv-x="275" 
 />
    <glyph glyph-name="exclamdown" unicode="&#xa1;" horiz-adv-x="238" 
d="M88 -158c0 18.667 1.66699 78.334 5 179.001s5 221.667 5 363c0 7.33301 6.66699 11 20 11c14 0 21 -3.66699 21 -11c0 -141.333 1.5 -262.333 4.5 -363s4.5 -160.334 4.5 -179.001c0 -27.333 -10 -41 -30 -41s-30 13.667 -30 41zM76 489
c0 12.667 3.66895 22.833 11.002 30.5s16.666 11.5 27.999 11.5c10 0 18.667 -3.5 26 -10.5s11 -16.5 11 -28.5c0 -11.333 -4 -20.833 -12 -28.5s-17.333 -11.5 -28 -11.5s-19.334 3.33301 -26.001 10s-10 15.667 -10 27z" />
    <glyph glyph-name="cent" unicode="&#xa2;" horiz-adv-x="495" 
d="M428 454c-40.667 32.667 -91.333 49.0029 -152 49.0029c-62.667 0 -110 -21.333 -142 -64s-48 -102.334 -48 -179.001c0 -154 66.667 -231 200 -231c34 0 65 4 93 12c16.667 4.66699 38.334 12.667 65.001 24c6.66699 2 10 -0.333008 10 -7v-19
c0 -5.33301 -1 -9.33301 -3 -12s-6.33301 -5.33398 -13 -8.00098c-40.667 -18.667 -84 -29 -130 -31v-48c0 -12 -5.33301 -18.333 -16 -19h-19c-10 0 -15 6 -15 18v49c-148 10.667 -222 101.667 -222 273c0 84 19 151 57 201s93 77 165 81v60c0 12 5.33301 18.333 16 19h19
c10 0 15 -6 15 -18v-61c55.333 -4 97.666 -17.667 126.999 -41c6.66699 -6 10 -13 10 -21v-22c0 -4.66699 -2 -7.33398 -6 -8.00098s-7.66699 0.333008 -11 3z" />
    <glyph glyph-name="sterling" unicode="&#xa3;" horiz-adv-x="573" 
d="M290 732c72 -0.666992 134.334 -24.668 187.001 -72.001c6 -4.66699 9 -11.667 9 -21v-25c0 -5.33301 -1.83301 -8 -5.5 -8s-6.83398 1.33301 -9.50098 4c-56.667 52.667 -117 79.334 -181 80.001c-52 0 -93.167 -15.667 -123.5 -47s-45.5 -78.666 -45.5 -141.999
c0 -11.333 0.833008 -22.833 2.5 -34.5s3.5 -21.5 5.5 -29.5s5.5 -17.833 10.5 -29.5s8.66699 -20 11 -25s6.66602 -13.833 12.999 -26.5s10.5 -20.667 12.5 -24h186c5.33301 0 8 -2.66699 8 -8v-24c0 -6 -3 -9 -9 -9h-166c10 -26.667 15 -53 15 -79
c0 -36.667 -7.66699 -69.334 -23 -98.001s-35.333 -51.667 -60 -69h400c5.33301 0 9 -1 11 -3s3 -5.66699 3 -11v-16c0 -6 -1 -10 -3 -12s-5.66699 -3 -11 -3h-463c-8 -0 -13.167 0.833008 -15.5 2.5s-3.5 5.16699 -3.5 10.5v21c0 7.33301 5.33301 11 16 11h8
c14.667 10.667 25.834 19.167 33.501 25.5s17 16 28 29s19 28.5 24 46.5s7.5 38.667 7.5 62c0 28 -6 55.667 -18 83h-95c-6 0 -9 3 -9 9v24c0 5.33301 2.66699 8 8 8h75c-12 21.333 -20.833 37.833 -26.5 49.5s-11.667 28.667 -18 51s-9.5 44.833 -9.5 67.5
c0 75.333 19.5 132.833 58.5 172.5s93.167 59.5 162.5 59.5z" />
    <glyph glyph-name="currency" unicode="&#xa4;" horiz-adv-x="584" 
d="M311 172c-67.333 0 -121.667 20.002 -163 60.002l-47 -48c-8.66699 -7.33301 -17 -8 -25 -2l-13 14c-7.33301 7.33301 -6.66602 15 2.00098 23l53 52c-20.667 35.333 -31 77.666 -31 126.999c0 59.333 15 108 45 146l-53 54
c-8.66699 9.33301 -9.33398 17.666 -2.00098 24.999l13 13c7.33301 6 15.333 5.33301 24 -2l54 -56c38.667 28 86.334 42 143.001 42c51.333 0 94.333 -11 129 -33l54 54c8 8.66699 16 9.33398 24 2.00098l14 -13c6 -7.33301 5 -15 -3 -23l-51 -52
c36 -38.667 54 -90.667 54 -156c0 -57.333 -14.333 -106 -43 -146l47 -46c8 -8 8.66699 -16 2 -24l-13 -13c-6.66699 -6.66699 -14.334 -6.33398 -23.001 0.999023l-46 47c-38 -30.667 -86.333 -46 -145 -46zM485.999 403.002c0 50.667 -16 92.833 -48 126.5
s-74.333 50.5 -127 50.5c-53.333 0 -96.333 -17 -129 -51s-49 -76.333 -49 -127c0 -58 15.833 -104 47.5 -138s75.167 -51 130.5 -51c54.667 0 97.5 17.167 128.5 51.5s46.5 80.5 46.5 138.5z" />
    <glyph glyph-name="yen" unicode="&#xa5;" horiz-adv-x="543" 
d="M448 195h-140v-181c0 -6 -1 -9.83301 -3 -11.5s-6 -2.5 -12 -2.5h-20c-6 -0 -10 0.833008 -12 2.5s-3 5.5 -3 11.5v181h-138c-6 0 -9 2.66699 -9 8v25c0 5.33301 2.66699 8 8 8h139v30h-138c-6 0 -9 2.66699 -9 8v24c0 6 2.66699 9 8 9h130l-218 397
c-7.33301 12 -5.33301 18 6 18h27c6 0 10 -0.833008 12 -2.5s4.33301 -5.16699 7 -10.5l199 -364l201 364c4 8.66699 10 13 18 13h28c10.667 0 12.667 -6 6 -18l-219 -397h132c6 0 9 -3 9 -9v-24c0 -5.33301 -3 -8 -9 -8h-140v-30h140c6 0 9 -2.66699 9 -8v-25
c0 -5.33301 -3 -8 -9 -8z" />
    <glyph glyph-name="brokenbar" unicode="&#xa6;" horiz-adv-x="236" 
d="M92 723c0 12 5.33301 18.333 16 19h19c10 0 15 -6 15 -18v-334c0 -12 -5.33301 -18.333 -16 -19h-19c-10 0 -15 6 -15 18v334zM142 -140c0 -12 -5.33301 -18.333 -16 -19h-19c-10 0 -15 6 -15 18v324c0 12 5.33301 18.333 16 19h19c10 0 15 -6 15 -18v-324z" />
    <glyph glyph-name="section" unicode="&#xa7;" horiz-adv-x="455" 
d="M389 693l0.00195312 -20.001c0 -6 -4.33301 -7.33301 -13 -4c-46 18.667 -92.667 28 -140 28c-79.333 0 -119 -30 -119 -90c0 -23.333 10.333 -41.833 31 -55.5s46 -23.667 76 -30s59.833 -13.5 89.5 -21.5s54.834 -21.833 75.501 -41.5s31 -46.167 31 -79.5
c0 -66.667 -25.333 -114.667 -76 -144c40.667 -21.333 61 -54.333 61 -99c0 -50 -17.833 -87.5 -53.5 -112.5s-81.5 -37.5 -137.5 -37.5c-66 0 -122.333 15 -169 45c-5.33301 3.33301 -8 7.33301 -8 12v20c0 6 1 9.66699 3 11s4 1 6 -1c67.333 -31.333 123.333 -47 168 -47
c41.333 0 75.166 9 101.499 27s39.5 44.667 39.5 80c0 24.667 -10.333 43.834 -31 57.501s-45.834 23.5 -75.501 29.5s-59.334 12.667 -89.001 20s-54.834 20.833 -75.501 40.5s-31 46.5 -31 80.5c0 71.333 33.333 116 100 134c-56 22 -84 58.333 -84 109
c0 44 14.833 77.167 44.5 99.5s70.834 33.5 123.501 33.5c52 0 99.667 -9.66699 143 -29c6 -2 9 -7 9 -15zM371.002 375.999c0 29.333 -15.6641 51.668 -46.9971 67.001c-34.667 14.667 -69 22 -103 22c-79.333 0 -119 -33.667 -119 -101
c0 -12.667 2.66699 -23.834 8 -33.501s11.166 -17.334 17.499 -23.001s16.666 -11.334 30.999 -17.001s25.666 -9.5 33.999 -11.5s22.333 -5.16699 42 -9.5s33.167 -7.5 40.5 -9.5h1c12.667 0 25.667 2.83301 39 8.5s26 17.834 38 36.501s18 42.334 18 71.001z" />
    <glyph glyph-name="dieresis" unicode="&#xa8;" horiz-adv-x="526" 
d="M51 648c0 12.667 3.99902 23.168 11.999 31.501s17.667 12.5 29 12.5s20.833 -3.83301 28.5 -11.5s11.5 -17.834 11.5 -30.501c0 -12 -4.16699 -22 -12.5 -30s-18.166 -12 -29.499 -12c-12 0 -21.5 3.66699 -28.5 11s-10.5 17 -10.5 29zM199.999 648.001
c0 12 4.16504 22.334 12.498 31.001s18.166 13 29.499 13c10.667 0 19.834 -3.83301 27.501 -11.5s11.5 -17.834 11.5 -30.501c0 -12 -4.16699 -22 -12.5 -30s-18.166 -12 -29.499 -12s-20.666 3.66699 -27.999 11s-11 17 -11 29z" />
    <glyph glyph-name="copyright" unicode="&#xa9;" horiz-adv-x="809" 
d="M405 -13c-118.667 0 -209.999 35.3311 -273.999 105.998s-96 161.334 -96 272.001c0 108.667 33.167 197.834 99.5 267.501s156.833 104.5 271.5 104.5c114 0 203.833 -34.667 269.5 -104s98.5 -158.333 98.5 -267c0 -112 -31.833 -203.167 -95.5 -273.5
s-154.834 -105.5 -273.501 -105.5zM728.001 369.998c0 98 -29.333 177.167 -88 237.5s-136.667 90.5 -234 90.5s-175.833 -30.333 -235.5 -91s-89.5 -140 -89.5 -238c0 -103.333 29.167 -186.333 87.5 -249s137.5 -94 237.5 -94c99.333 0 177.833 31.333 235.5 94
s86.5 146 86.5 250zM543.001 483.998c-12.667 9.33301 -30.1709 17.999 -52.5039 25.999s-44.166 12 -65.499 12c-50.667 0 -90 -15 -118 -45s-42 -67 -42 -111c0 -44.667 13.333 -80.167 40 -106.5s68 -39.5 124 -39.5c41.333 0 85 10.333 131 31
c7.33301 3.33301 11 0.666016 11 -8.00098v-12c0 -10 -5 -17.333 -15 -22c-37.333 -19.333 -81.666 -29 -132.999 -29c-65.333 0 -115.833 16.833 -151.5 50.5s-53.5 77.167 -53.5 130.5c0 58.667 18.333 106.834 55 144.501s87.334 56.5 152.001 56.5
c50.667 0 91.334 -12 122.001 -36c7.33301 -5.33301 11 -11.666 11 -18.999v-20c0 -9.33301 -5 -10.333 -15 -3z" />
    <glyph glyph-name="ordfeminine" unicode="&#xaa;" horiz-adv-x="464" 
d="M357 399c-30 0 -48.667 17.334 -56 52.001c-22 -34.667 -59.667 -52 -113 -52c-39.333 0 -69.666 9.5 -90.999 28.5s-32 46.167 -32 81.5c0 78 78 117 234 117v15c0 22.667 -6.83301 40.5 -20.5 53.5s-31.5 19.5 -53.5 19.5c-48.667 0 -90.667 -10.667 -126 -32
c-6 -4 -9 -2 -9 6v21c0 6.66699 2.33301 10.667 7 12c50.667 20.667 93 31 127 31c40 0 69.833 -9.16699 89.5 -27.5s29.5 -51.5 29.5 -99.5v-159c0 -6.66699 2 -12.334 6 -17.001s9.33301 -7 16 -7c3.33301 0 11.666 3.33301 24.999 10c4.66699 2 7.66699 2.16699 9 0.5
s2 -5.83398 2 -12.501v-13c0 -7.33301 -4.33301 -13.666 -13 -18.999c-10.667 -6 -21 -9 -31 -9zM110 510.001c0 -45.333 25.667 -68.001 77 -68.001c34.667 0 62 9.83301 82 29.5s30 46.834 30 81.501v36c-126 0 -189 -26.333 -189 -79z" />
    <glyph glyph-name="guillemotleft" unicode="&#xab;" horiz-adv-x="759" 
d="M380 62c11.333 -8.66699 17 -16.332 17 -22.999c0 -8 -5.66699 -12 -17 -12h-18c-6.66699 0 -13.334 2.66699 -20.001 8l-266 198c-12.667 10 -21.167 17.833 -25.5 23.5s-6.5 12.5 -6.5 20.5s2.16699 14.833 6.5 20.5s12.833 13.5 25.5 23.5l266 198
c6.66699 5.33301 13.334 8 20.001 8h18c11.333 0 17 -4 17 -12c0 -6.66699 -5.66699 -14.334 -17 -23.001l-288 -215zM680 62.002c11.333 -8.66699 17 -16.332 17 -22.999c0 -8 -5.66699 -12 -17 -12h-18c-6.66699 0 -13.334 2.66699 -20.001 8l-266 198
c-12.667 10 -21.167 17.833 -25.5 23.5s-6.5 12.5 -6.5 20.5s2.16699 14.833 6.5 20.5s12.833 13.5 25.5 23.5l266 198c6.66699 5.33301 13.334 8 20.001 8h18c11.333 0 17 -4 17 -12c0 -6.66699 -5.66699 -14.334 -17 -23.001l-288 -215z" />
    <glyph glyph-name="logicalnot" unicode="&#xac;" horiz-adv-x="532" 
d="M75 439h381.998c13.333 0 20 -6 20 -18v-221c0 -8.66699 -4.66699 -13 -14 -13h-22c-3.33301 0 -6.5 1.33301 -9.5 4s-4.5 5.66699 -4.5 9v194h-352c-5.33301 0 -9.16602 0.166992 -11.499 0.5s-4.66602 2 -6.99902 5s-3.5 7.5 -3.5 13.5v8c0 12 7.33301 18 22 18z" />
    <glyph glyph-name="softhyphen" unicode="&#xad;" horiz-adv-x="442" 
d="M96 339h251.001c5.33301 0 8.66602 -1 9.99902 -3s2 -5.66699 2 -11v-19c0 -5.33301 -0.833008 -9 -2.5 -11s-5.16699 -3 -10.5 -3h-250c-5.33301 0 -9 1 -11 3s-3 5.66699 -3 11v19c0 9.33301 4.66699 14 14 14z" />
    <glyph glyph-name="registered" unicode="&#xae;" horiz-adv-x="809" 
d="M405 -13c-118.667 0 -209.999 35.3311 -273.999 105.998s-96 161.334 -96 272.001c0 108.667 33.167 197.834 99.5 267.501s156.833 104.5 271.5 104.5c114 0 203.833 -34.667 269.5 -104s98.5 -158.333 98.5 -267c0 -112 -31.833 -203.167 -95.5 -273.5
s-154.834 -105.5 -273.501 -105.5zM728.001 369.998c0 98 -29.333 177.167 -88 237.5s-136.667 90.5 -234 90.5s-175.833 -30.333 -235.5 -91s-89.5 -140 -89.5 -238c0 -103.333 29.167 -186.333 87.5 -249s137.5 -94 237.5 -94c99.333 0 177.833 31.333 235.5 94
s86.5 146 86.5 250zM297.001 185.998l0.000976562 366.999c0 9.33301 4.33301 14 13 14h64c61.333 0 105.333 -8.16699 132 -24.5s40 -46.833 40 -91.5c0 -58.667 -27.333 -96 -82 -112c30 -18 53 -54.333 69 -109c3.33301 -14 12 -21 26 -21c8 0 16.333 2 25 6
c2 1.33301 3.83301 1.33301 5.5 0s2.5 -4.66602 2.5 -9.99902v-15c0 -16 -12.667 -24 -38 -24c-34.667 0 -55 15.667 -61 47c-8.66699 29.333 -22.334 56 -41.001 80s-40.667 37 -66 39h-45v-146c0 -6 -1 -9.83301 -3 -11.5s-5.66699 -2.5 -11 -2.5h-16
c-5.33301 0 -9 0.833008 -11 2.5s-3 5.5 -3 11.5zM341.002 367.997h40c79.333 0 119 27.667 119 83c0 28.667 -9.33301 49 -28 61s-48.667 18 -90 18h-41v-162z" />
    <glyph glyph-name="macron" unicode="&#xaf;" horiz-adv-x="315" 
d="M251 645h-220c-8 0 -12 7.33301 -12 22c0 13.333 4 20 12 20h220c7.33301 0 11 -6.33301 11 -19c0 -15.333 -3.66699 -23 -11 -23z" />
    <glyph glyph-name="degree" unicode="&#xb0;" horiz-adv-x="441" 
d="M220 431c-46.667 0 -84.332 14.999 -112.999 44.999s-43 68 -43 114c0 45.333 14.5 82.833 43.5 112.5s66.833 44.5 113.5 44.5c47.333 0 85.166 -14.667 113.499 -44s42.5 -66.666 42.5 -111.999c0 -46.667 -14.5 -85 -43.5 -115s-66.833 -45 -113.5 -45z
M334.002 589.999c0 36.667 -10 65.834 -30 87.501s-47.667 32.5 -83 32.5s-63 -10.833 -83 -32.5s-30 -50.834 -30 -87.501c0 -37.333 10 -67 30 -89s47.667 -33 83 -33c34 0 61.333 11.5 82 34.5s31 52.167 31 87.5z" />
    <glyph glyph-name="plusminus" unicode="&#xb1;" horiz-adv-x="503" 
d="M275 513l0.000976562 -155h166c16 0 24 -6 24 -18c0 -8.66699 -1.83301 -14.667 -5.5 -18s-11.167 -5 -22.5 -5h-162v-169c0 -16.667 -7.33301 -25 -22 -25c-16 0 -24 9 -24 27v167h-158c-16 0 -24 7 -24 21c0 6 1.16699 10.5 3.5 13.5s5.16602 4.83301 8.49902 5.5
s8.33301 1 15 1h155v159c0 8 2.33301 14 7 18s10 6 16 6c8.66699 0 14.667 -1.83301 18 -5.5s5 -11.167 5 -22.5zM427.001 -4h-371c-6 0 -9 2.66699 -9 8v30c0 5.33301 2.66699 8 8 8h373c5.33301 0 8 -2.66699 8 -8v-30c0 -5.33301 -3 -8 -9 -8z" />
    <glyph glyph-name="twosuperior" unicode="&#xb2;" horiz-adv-x="312" 
d="M235 713c0 21.333 -6.83301 39 -20.5 53s-34.5 21 -62.5 21c-43.333 0 -81.666 -9.66699 -114.999 -29c-2 -1.33301 -4.33301 -1.66602 -7 -0.999023s-4 2.66699 -4 6v18c0 6 2 10 6 12c30.667 19.333 71.667 29 123 29c40.667 0 72.167 -10 94.5 -30
s33.5 -45.667 33.5 -77c0 -39.333 -21 -79.333 -63 -120l-139 -141h193c8.66699 0 13 -3.33301 13 -10v-14c0 -4.66699 -1 -7.5 -3 -8.5s-6.33301 -1.5 -13 -1.5h-234c-4.66699 0 -7.83398 0.666992 -9.50098 2s-2.5 4.66602 -2.5 9.99902v11c0 8 6.66699 18.667 20 32
l146 148c29.333 29.333 44 59.333 44 90z" />
    <glyph glyph-name="threesuperior" unicode="&#xb3;" horiz-adv-x="320" 
d="M138 452c34 0 60.165 6.66602 78.498 19.999s27.5 32.666 27.5 57.999c0 28 -9.16699 48.333 -27.5 61s-41.5 19 -69.5 19h-14c-4.66699 0 -7.66699 0.5 -9 1.5s-2 3.83301 -2 8.5v20c0 5.33301 3.66699 8 11 8h14c54 0 81 23 81 69c0 46.667 -26 70 -78 70
c-29.333 0 -64.666 -9.66699 -105.999 -29c-5.33301 -2 -8 -0.666992 -8 4v22c0 6 2 10 6 12c32 18 69.333 27 112 27c38.667 0 68.334 -9.16699 89.001 -27.5s31 -43.166 31 -74.499c0 -51.333 -23 -81.666 -69 -90.999c26 -2 47.333 -11.667 64 -29s25 -41.333 25 -72
c0 -38 -13.5 -66.833 -40.5 -86.5s-63.167 -29.5 -108.5 -29.5c-47.333 0 -86 6 -116 18c-3.33301 2 -5 5.33301 -5 10v22c0 4.66699 1.66699 7 5 7s9 -1.33301 17 -4c29.333 -9.33301 60 -14 92 -14z" />
    <glyph glyph-name="acute" unicode="&#xb4;" horiz-adv-x="279" 
d="M37 642l-6.00098 12c-4 6.66699 -3 11.667 3 15l152 81c9.33301 4.66699 16 3 20 -5l10 -19c4.66699 -9.33301 2.33398 -16 -6.99902 -20l-155 -68c-8 -3.33301 -13.667 -2 -17 4z" />
    <glyph glyph-name="mu" unicode="&#xb5;" horiz-adv-x="559" 
d="M445 82c0 -27.333 10.666 -41 31.999 -41c10 0 22.333 2 37 6c5.33301 2 9.33301 2.5 12 1.5s4 -4.16699 4 -9.5v-20c0 -8 -4.33301 -13.333 -13 -16c-16 -4.66699 -32.333 -7 -49 -7c-48 0 -72.333 25.333 -73 76c-40 -53.333 -97.667 -80 -173 -80
c-51.333 0 -89.333 11 -114 33v-230c0 -5.33301 -2.33301 -8 -7 -8h-35c-4.66699 0 -7 2.66699 -7 8v718c0 9.33301 4.66699 14 14 14h21c9.33301 0 14 -4.66699 14 -14v-356c3.33301 -81.333 43 -122 119 -122c54.667 0 96.334 17 125.001 51s43 81.667 43 143v284
c0 9.33301 5 14 15 14h20c10 0 15 -4.66699 15 -14v-431z" />
    <glyph glyph-name="paragraph" unicode="&#xb6;" horiz-adv-x="454" 
d="M200 -84l-0.00390625 442c-49.333 1.33301 -90.166 17.833 -122.499 49.5s-48.5 73.5 -48.5 125.5c0 54.667 15.833 99.5 47.5 134.5s72.834 53.167 123.501 54.5h169c11.333 0 17 -5.66699 17 -17v-789c0 -8.66699 -5.66699 -13 -17 -13h-12
c-6.66699 0 -11.167 0.833008 -13.5 2.5s-3.5 5.16699 -3.5 10.5v765h-93v-764c0 -9.33301 -5 -14 -15 -14h-16c-5.33301 0 -9.16602 0.5 -11.499 1.5s-3.66602 2.33301 -3.99902 4s-0.5 4.16699 -0.5 7.5z" />
    <glyph glyph-name="periodcentered" unicode="&#xb7;" horiz-adv-x="252" 
d="M81 244c0 12.667 3.83301 23 11.5 31s17.167 12 28.5 12c10 0 18.667 -3.66699 26 -11s11 -17 11 -29s-4 -21.667 -12 -29s-17.667 -11 -29 -11c-10 0 -18.5 3.33301 -25.5 10s-10.5 15.667 -10.5 27z" />
    <glyph glyph-name="cedilla" unicode="&#xb8;" horiz-adv-x="290" 
d="M65 -64l36.001 73.002h42l-23 -47c30 4.66699 55 0.666992 75 -12s30 -34 30 -64c0 -58 -39 -87 -117 -87c-34 0 -56.333 1.33301 -67 4c-4.66699 1.33301 -7 5.33301 -7 12v15c0 5.33301 0.5 8.66602 1.5 9.99902s3.5 1.66602 7.5 0.999023c22 -2.66699 43.333 -4 64 -4
c50.667 0 76 16.333 76 49c0 28 -17.333 42 -52 42c-7.33301 0 -17.833 -0.666992 -31.5 -2s-21.834 -2 -24.501 -2c-10.667 0 -14 4 -10 12z" />
    <glyph glyph-name="onesuperior" unicode="&#xb9;" horiz-adv-x="157" 
d="M66 434v328c0 6 -0.666992 9.33301 -2 10s-5.33301 0 -12 -2l-35 -13c-6 -2.66699 -9 -0.666992 -9 6v19c0 5.33301 3.66699 9.33301 11 12l63 23c7.33301 2 13.333 3 18 3c8 0 12 -5.33301 12 -16v-370c0 -6 -1 -9.83301 -3 -11.5s-5.66699 -2.5 -11 -2.5h-17
c-6 0 -10 0.833008 -12 2.5s-3 5.5 -3 11.5z" />
    <glyph glyph-name="ordmasculine" unicode="&#xba;" horiz-adv-x="428" 
d="M67 535c0 52.667 12.167 96.334 36.5 131.001s61.5 52 111.5 52c49.333 0 86 -17.333 110 -52s36 -78.334 36 -131.001c0 -53.333 -12 -97.166 -36 -131.499s-60.667 -51.5 -110 -51.5c-50 0 -87.167 17.167 -111.5 51.5s-36.5 78.166 -36.5 131.499zM215 678
c-68.667 0 -103 -48 -103 -144c0 -42.667 8.33301 -77.167 25 -103.5s42.667 -39.5 78 -39.5c34.667 0 60.167 13.167 76.5 39.5s24.5 60.833 24.5 103.5c0 96 -33.667 144 -101 144z" />
    <glyph glyph-name="guillemotright" unicode="&#xbb;" horiz-adv-x="758" 
d="M79 62l288 214.998l-288 215c-11.333 8.66699 -17 16.334 -17 23.001c0 8 5.66699 12 17 12h18c6.66699 0 13.334 -2.66699 20.001 -8l266 -198c12.667 -10 21.167 -17.833 25.5 -23.5s6.5 -12.5 6.5 -20.5s-2.16699 -14.833 -6.5 -20.5s-12.833 -13.5 -25.5 -23.5
l-266 -198c-6.66699 -5.33301 -13.334 -8 -20.001 -8h-18c-11.333 0 -17 4 -17 12c0 6.66699 5.66699 14.334 17 23.001zM379 61.998l288 214.998l-288 215c-11.333 8.66699 -17 16.334 -17 23.001c0 8 5.66699 12 17 12h18c6.66699 0 13.334 -2.66699 20.001 -8l266 -198
c12.667 -10 21.167 -17.833 25.5 -23.5s6.5 -12.5 6.5 -20.5s-2.16699 -14.833 -6.5 -20.5s-12.833 -13.5 -25.5 -23.5l-266 -198c-6.66699 -5.33301 -13.334 -8 -20.001 -8h-18c-11.333 0 -17 4 -17 12c0 6.66699 5.66699 14.334 17 23.001z" />
    <glyph glyph-name="onequarter" unicode="&#xbc;" horiz-adv-x="626" 
d="M47 42l481.999 695.003c4.66699 7.33301 8.5 11.666 11.5 12.999s6.5 1 10.5 -1c9.33301 -2 16.333 -7.33301 21 -16c4.66699 -4.66699 2.33398 -13.334 -6.99902 -26.001l-481 -695c-8.66699 -12 -18 -15 -28 -9c-9.33301 5.33301 -14.333 10 -15 14
c-4 5.33301 -2 13.666 6 24.999zM311.999 116.003l194 275c4 5.33301 9.33301 8 16 8h29c10.667 0 12 -5.66699 4 -17l-188 -264h120v81c0 5.33301 3 8 9 8h30c5.33301 0 8 -2.66699 8 -8v-81h48c6.66699 0 10 -2.33301 10 -7v-18c0 -5.33301 -3 -8 -9 -8h-49v-75
c0 -5.33301 -3 -8 -9 -8h-30c-5.33301 0 -8 2.66699 -8 8v75h-167c-6.66699 0 -10 3 -10 9v14c0 4 0.666992 6.66699 2 8zM123.999 434.003v328c0 6 -0.666992 9.33301 -2 10s-5.33301 0 -12 -2l-35 -13c-6 -2.66699 -9 -0.666992 -9 6v19c0 5.33301 3.66699 9.33301 11 12
l63 23c7.33301 2 13.333 3 18 3c8 0 12 -5.33301 12 -16v-370c0 -6 -1 -9.83301 -3 -11.5s-5.66699 -2.5 -11 -2.5h-17c-6 0 -10 0.833008 -12 2.5s-3 5.5 -3 11.5z" />
    <glyph glyph-name="onehalf" unicode="&#xbd;" horiz-adv-x="692" 
d="M124 434v328c0 6 -0.666992 9.33301 -2 10s-5.33301 0 -12 -2l-35 -13c-6 -2.66699 -9 -0.666992 -9 6v19c0 5.33301 3.66699 9.33301 11 12l63 23c7.33301 2 13.333 3 18 3c8 0 12 -5.33301 12 -16v-370c0 -6 -1 -9.83301 -3 -11.5s-5.66699 -2.5 -11 -2.5h-17
c-6 0 -10 0.833008 -12 2.5s-3 5.5 -3 11.5zM608 293c0 21.333 -6.83301 39 -20.5 53s-34.5 21 -62.5 21c-43.333 0 -81.666 -9.66699 -114.999 -29c-2 -1.33301 -4.33301 -1.66602 -7 -0.999023s-4 2.66699 -4 6v18c0 6 2 10 6 12c30.667 19.333 71.667 29 123 29
c40.667 0 72.167 -10 94.5 -30s33.5 -45.667 33.5 -77c0 -39.333 -21 -79.333 -63 -120l-139 -141h193c8.66699 0 13 -3.33301 13 -10v-14c0 -4.66699 -1 -7.5 -3 -8.5s-6.33301 -1.5 -13 -1.5h-234c-4.66699 0 -7.83398 0.666992 -9.50098 2s-2.5 4.66602 -2.5 9.99902v11
c0 8 6.66699 18.667 20 32l146 148c29.333 29.333 44 59.333 44 90zM47 42l481.999 695.003c4.66699 7.33301 8.5 11.666 11.5 12.999s6.5 1 10.5 -1c9.33301 -2 16.333 -7.33301 21 -16c4.66699 -4.66699 2.33398 -13.334 -6.99902 -26.001l-481 -695
c-8.66699 -12 -18 -15 -28 -9c-9.33301 5.33301 -14.333 10 -15 14c-4 5.33301 -2 13.666 6 24.999z" />
    <glyph glyph-name="threequarters" unicode="&#xbe;" horiz-adv-x="717" 
d="M119 42l481.999 695.003c4.66699 7.33301 8.5 11.666 11.5 12.999s6.5 1 10.5 -1c9.33301 -2 16.333 -7.33301 21 -16c4.66699 -4.66699 2.33398 -13.334 -6.99902 -26.001l-481 -695c-8.66699 -12 -18 -15 -28 -9c-9.33301 5.33301 -14.333 10 -15 14
c-4 5.33301 -2 13.666 6 24.999zM404.999 114.003l194 275c4 5.33301 9.33301 8 16 8h29c10.667 0 12 -5.66699 4 -17l-188 -264h120v81c0 5.33301 3 8 9 8h30c5.33301 0 8 -2.66699 8 -8v-81h48c6.66699 0 10 -2.33301 10 -7v-18c0 -5.33301 -3 -8 -9 -8h-49v-75
c0 -5.33301 -3 -8 -9 -8h-30c-5.33301 0 -8 2.66699 -8 8v75h-167c-6.66699 0 -10 3 -10 9v14c0 4 0.666992 6.66699 2 8zM149.999 452.003c34 0 60.165 6.66602 78.498 19.999s27.5 32.666 27.5 57.999c0 28 -9.16699 48.333 -27.5 61s-41.5 19 -69.5 19h-14
c-4.66699 0 -7.66699 0.5 -9 1.5s-2 3.83301 -2 8.5v20c0 5.33301 3.66699 8 11 8h14c54 0 81 23 81 69c0 46.667 -26 70 -78 70c-29.333 0 -64.666 -9.66699 -105.999 -29c-5.33301 -2 -8 -0.666992 -8 4v22c0 6 2 10 6 12c32 18 69.333 27 112 27
c38.667 0 68.334 -9.16699 89.001 -27.5s31 -43.166 31 -74.499c0 -51.333 -23 -81.666 -69 -90.999c26 -2 47.333 -11.667 64 -29s25 -41.333 25 -72c0 -38 -13.5 -66.833 -40.5 -86.5s-63.167 -29.5 -108.5 -29.5c-47.333 0 -86 6 -116 18c-3.33301 2 -5 5.33301 -5 10v22
c0 4.66699 1.66699 7 5 7s9 -1.33301 17 -4c29.333 -9.33301 60 -14 92 -14z" />
    <glyph glyph-name="questiondown" unicode="&#xbf;" horiz-adv-x="461" 
d="M215 494c0 12 4 21.501 12 28.501s17.667 10.5 29 10.5s20.833 -3.33301 28.5 -10s11.5 -16 11.5 -28c0 -12.667 -4 -22.334 -12 -29.001s-17.667 -10 -29 -10c-12 0 -21.667 3.33301 -29 10s-11 16 -11 28zM79 -47.999c0 -91.333 55.999 -137 167.999 -137
c60 0 117.667 12.667 173 38c9.33301 4.66699 14 1.33398 14 -9.99902v-20c0 -8.66699 -3.66699 -14.667 -11 -18c-56.667 -24 -118 -36 -184 -36c-71.333 0 -124.333 16.167 -159 48.5s-52 76.166 -52 131.499c0 34 7.16699 66 21.5 96s31.833 55.833 52.5 77.5l62 62.5
c20.667 20 38.167 41.333 52.5 64s21.5 45.667 21.5 69v21c0 10 5.66699 15 17 15h11c14.667 0 22 -9.66699 22 -29v-12c0 -26 -7.16699 -51.167 -21.5 -75.5s-31.666 -46.5 -51.999 -66.5l-61.5 -61.5c-20.667 -21 -38.167 -45 -52.5 -72s-21.5 -55.5 -21.5 -85.5z" />
    <glyph glyph-name="Agrave" unicode="&#xc0;" horiz-adv-x="617" 
d="M531 13l-66.999 203h-301l-67 -203c-2 -5.33301 -4.16699 -8.83301 -6.5 -10.5s-6.83301 -2.5 -13.5 -2.5h-19c-11.333 0 -15.333 5 -12 15l234 697c2.66699 6.66699 6.66699 10 12 10h45c6 0 10.333 -3.33301 13 -10l233 -697c2 -6 2.16699 -10 0.5 -12
s-5.83398 -3 -12.501 -3h-18c-10.667 -0 -17.667 4.33301 -21 13zM313.001 672l-135 -411h271zM363.001 808l-2 -7.99902c-2.66699 -6 -11 -6.33301 -25 -1l-159 55c-9.33301 4 -12 10.667 -8 20l9 19c4 7.33301 11 8.66602 21 3.99902l157 -71c8.66699 -4 11 -10 7 -18z
" />
    <glyph glyph-name="Aacute" unicode="&#xc1;" horiz-adv-x="617" 
d="M531 13l-66.999 203h-301l-67 -203c-2 -5.33301 -4.16699 -8.83301 -6.5 -10.5s-6.83301 -2.5 -13.5 -2.5h-19c-11.333 0 -15.333 5 -12 15l234 697c2.66699 6.66699 6.66699 10 12 10h45c6 0 10.333 -3.33301 13 -10l233 -697c2 -6 2.16699 -10 0.5 -12
s-5.83398 -3 -12.501 -3h-18c-10.667 -0 -17.667 4.33301 -21 13zM313.001 672l-135 -411h271zM275.001 801l-6.00098 12c-4 7.33301 -3 12.333 3 15l152 81c9.33301 4.66699 16 3 20 -5l10 -19c4.66699 -9.33301 2.33398 -16 -6.99902 -20l-155 -68
c-8 -3.33301 -13.667 -2 -17 4z" />
    <glyph glyph-name="Acircumflex" unicode="&#xc2;" horiz-adv-x="617" 
d="M531 13l-66.999 203h-301l-67 -203c-2 -5.33301 -4.16699 -8.83301 -6.5 -10.5s-6.83301 -2.5 -13.5 -2.5h-19c-11.333 0 -15.333 5 -12 15l234 697c2.66699 6.66699 6.66699 10 12 10h45c6 0 10.333 -3.33301 13 -10l233 -697c2 -6 2.16699 -10 0.5 -12
s-5.83398 -3 -12.501 -3h-18c-10.667 -0 -17.667 4.33301 -21 13zM313.001 672l-135 -411h271zM395.001 802l-80.002 79l-81 -79c-8.66699 -8.66699 -17 -13 -25 -13h-23c-4 0 -6.66699 0.833008 -8 2.5s-1.16602 4 0.500977 7s4.16699 6.16699 7.5 9.5l98 100
c8.66699 9.33301 18.667 14 30 14c10.667 0 21 -5 31 -15l99 -99c5.33301 -5.33301 7.83301 -9.83301 7.5 -13.5s-3.16602 -5.5 -8.49902 -5.5h-23c-8 0 -16.333 4.33301 -25 13z" />
    <glyph glyph-name="Atilde" unicode="&#xc3;" horiz-adv-x="617" 
d="M531 13l-66.999 203h-301l-67 -203c-2 -5.33301 -4.16699 -8.83301 -6.5 -10.5s-6.83301 -2.5 -13.5 -2.5h-19c-11.333 0 -15.333 5 -12 15l234 697c2.66699 6.66699 6.66699 10 12 10h45c6 0 10.333 -3.33301 13 -10l233 -697c2 -6 2.16699 -10 0.5 -12
s-5.83398 -3 -12.501 -3h-18c-10.667 -0 -17.667 4.33301 -21 13zM313.001 672l-135 -411h271zM359.001 838c9.33301 0 17.165 3.16602 23.498 9.49902s9.5 15.5 9.5 27.5c0 4.66699 2.66699 7 8 7h21c4.66699 0 7 -2.66699 7 -8c0 -24 -6.16699 -42.333 -18.5 -55
s-29.166 -19 -50.499 -19c-30 0 -49.667 9.33301 -59 28c0 0.666992 -0.666992 2.16699 -2 4.5s-2.33301 3.83301 -3 4.5s-1.83398 2 -3.50098 4s-3.16699 3.33301 -4.5 4s-3.16602 1.33398 -5.49902 2.00098s-5.16602 1 -8.49902 1c-20.667 0 -31.667 -12.333 -33 -37
c0 -4.66699 -2.66699 -7 -8 -7h-20c-3.33301 0 -5.5 0.333008 -6.5 1s-1.5 3 -1.5 7c0 22.667 6.5 40.667 19.5 54s29.167 20 48.5 20c26.667 0 46 -10.667 58 -32c6 -10.667 15.667 -16 29 -16z" />
    <glyph glyph-name="Adieresis" unicode="&#xc4;" horiz-adv-x="617" 
d="M531 13l-66.999 203h-301l-67 -203c-2 -5.33301 -4.16699 -8.83301 -6.5 -10.5s-6.83301 -2.5 -13.5 -2.5h-19c-11.333 0 -15.333 5 -12 15l234 697c2.66699 6.66699 6.66699 10 12 10h45c6 0 10.333 -3.33301 13 -10l233 -697c2 -6 2.16699 -10 0.5 -12
s-5.83398 -3 -12.501 -3h-18c-10.667 -0 -17.667 4.33301 -21 13zM313.001 672l-135 -411h271zM200.001 838c0 12.667 3.99902 23.168 11.999 31.501s17.667 12.5 29 12.5s20.833 -3.83301 28.5 -11.5s11.5 -17.834 11.5 -30.501c0 -12 -4.16699 -22 -12.5 -30
s-18.166 -12 -29.499 -12c-12 0 -21.5 3.66699 -28.5 11s-10.5 17 -10.5 29zM349 838.001c0 12 4.16504 22.334 12.498 31.001s18.166 13 29.499 13c10.667 0 19.834 -3.83301 27.501 -11.5s11.5 -17.834 11.5 -30.501c0 -12 -4.16699 -22 -12.5 -30
s-18.166 -12 -29.499 -12s-20.666 3.66699 -27.999 11s-11 17 -11 29z" />
    <glyph glyph-name="Aring" unicode="&#xc5;" horiz-adv-x="617" 
d="M531 13l-66.999 203h-301l-67 -203c-2 -5.33301 -4.16699 -8.83301 -6.5 -10.5s-6.83301 -2.5 -13.5 -2.5h-19c-11.333 0 -15.333 5 -12 15l234 697c2.66699 6.66699 6.66699 10 12 10h45c6 0 10.333 -3.33301 13 -10l233 -697c2 -6 2.16699 -10 0.5 -12
s-5.83398 -3 -12.501 -3h-18c-10.667 -0 -17.667 4.33301 -21 13zM313.001 672l-135 -411h271zM313.001 791c-30 0 -54.333 7.5 -73 22.5s-28 34.833 -28 59.5s9.16699 44.5 27.5 59.5s42.833 22.5 73.5 22.5c30 0 54.333 -7.5 73 -22.5s28 -34.833 28 -59.5
s-9.33301 -44.5 -28 -59.5s-43 -22.5 -73 -22.5zM313.001 822c16 0 29.667 4.66699 41 14s17 21.666 17 36.999s-5.5 27.666 -16.5 36.999s-24.833 14 -41.5 14s-30.667 -4.66699 -42 -14s-17 -21.666 -17 -36.999s5.83301 -27.666 17.5 -36.999s25.5 -14 41.5 -14z" />
    <glyph glyph-name="AE" unicode="&#xc6;" horiz-adv-x="851" 
d="M410 249h-237l-96 -233c-4 -10.667 -10.333 -16 -19 -16h-23c-12.667 0 -17 4.66699 -13 14l274 661c10 23.333 18 37 24 41s20 6 42 6h409c5.33301 0 9 -1 11 -3s3 -6 3 -12v-16c0 -5.33301 -1 -9 -3 -11s-5.66699 -3 -11 -3h-311v-281h265c6 0 9.83301 -1 11.5 -3
s2.5 -5.66699 2.5 -11v-17c0 -5.33301 -0.833008 -9 -2.5 -11s-5.5 -3 -11.5 -3h-265v-306h334c6 0 9.83301 -1 11.5 -3s2.5 -5.66699 2.5 -11v-16c0 -6 -0.833008 -10 -2.5 -12s-5.5 -3 -11.5 -3h-370c-5.33301 -0 -9 0.833008 -11 2.5s-3 5.5 -3 11.5v235zM344 662
l-154 -372h220v391h-41c-10.667 0 -19 -6.33301 -25 -19z" />
    <glyph glyph-name="Ccedilla" unicode="&#xc7;" horiz-adv-x="639" 
d="M120 350c0 -210 88.668 -314.995 266.001 -314.995c58 0 118.667 12 182 36c11.333 4.66699 17 2 17 -8v-21c0 -6.66699 -4 -12.334 -12 -17.001c-41.333 -20.667 -96.666 -32.334 -165.999 -35.001l-15 -31c30 4.66699 55 0.666992 75 -12s30 -34 30 -64
c0 -58 -39 -87 -117 -87c-34 0 -56.333 1.33301 -67 4c-4.66699 1.33301 -7 5.33301 -7 12v15c0 6 0.5 9.5 1.5 10.5s3.5 1.16699 7.5 0.5c22 -2.66699 43.333 -4 64 -4c50.667 0 76 16.333 76 49c0 28 -17.333 42 -52 42c-7.33301 0 -17.833 -0.666992 -31.5 -2
s-21.834 -2 -24.501 -2c-10.667 0 -14 4 -10 12l28 57c-102.667 4 -177.834 37.167 -225.501 99.5s-71.5 148.166 -71.5 257.499c0 117.333 26.667 210.666 80 279.999s133.333 104 240 104c34.667 0 69.667 -3.16699 105 -9.5s62 -15.166 80 -26.499
c7.33301 -4 11 -11 11 -21v-16c0 -10.667 -5.33301 -13.667 -16 -9c-54 24 -113 36 -177 36c-50 0 -93.167 -8.83301 -129.5 -26.5s-64.5 -42.334 -84.5 -74.001s-34.5 -66.834 -43.5 -105.501s-13.5 -81.667 -13.5 -129z" />
    <glyph glyph-name="Egrave" unicode="&#xc8;" horiz-adv-x="554" 
d="M124 0c-6 0 -10 0.833008 -12 2.5s-3 5.5 -3 11.5v694c0 6 1 9.83301 3 11.5s6 2.5 12 2.5h344c5.33301 0 9 -1 11 -3s3 -6 3 -12v-16c0 -5.33301 -1 -9 -3 -11s-5.66699 -3 -11 -3h-308v-281h262c6 0 9.83301 -1 11.5 -3s2.5 -5.66699 2.5 -11v-17
c0 -5.33301 -0.833008 -9 -2.5 -11s-5.5 -3 -11.5 -3h-262v-306h332c5.33301 0 8.83301 -1 10.5 -3s2.5 -5.66699 2.5 -11v-16c0 -6 -0.833008 -10 -2.5 -12s-5.16699 -3 -10.5 -3h-368zM349 808l-2 -7.99902c-2.66699 -6 -11 -6.33301 -25 -1l-159 55
c-9.33301 4 -12 10.667 -8 20l9 19c4 7.33301 11 8.66602 21 3.99902l157 -71c8.66699 -4 11 -10 7 -18z" />
    <glyph glyph-name="Eacute" unicode="&#xc9;" horiz-adv-x="554" 
d="M124 0c-6 0 -10 0.833008 -12 2.5s-3 5.5 -3 11.5v694c0 6 1 9.83301 3 11.5s6 2.5 12 2.5h344c5.33301 0 9 -1 11 -3s3 -6 3 -12v-16c0 -5.33301 -1 -9 -3 -11s-5.66699 -3 -11 -3h-308v-281h262c6 0 9.83301 -1 11.5 -3s2.5 -5.66699 2.5 -11v-17
c0 -5.33301 -0.833008 -9 -2.5 -11s-5.5 -3 -11.5 -3h-262v-306h332c5.33301 0 8.83301 -1 10.5 -3s2.5 -5.66699 2.5 -11v-16c0 -6 -0.833008 -10 -2.5 -12s-5.16699 -3 -10.5 -3h-368zM261 801l-6.00098 12c-4 7.33301 -3 12.333 3 15l152 81c9.33301 4.66699 16 3 20 -5
l10 -19c4.66699 -9.33301 2.33398 -16 -6.99902 -20l-155 -68c-8 -3.33301 -13.667 -2 -17 4z" />
    <glyph glyph-name="Ecircumflex" unicode="&#xca;" horiz-adv-x="554" 
d="M124 0c-6 0 -10 0.833008 -12 2.5s-3 5.5 -3 11.5v694c0 6 1 9.83301 3 11.5s6 2.5 12 2.5h344c5.33301 0 9 -1 11 -3s3 -6 3 -12v-16c0 -5.33301 -1 -9 -3 -11s-5.66699 -3 -11 -3h-308v-281h262c6 0 9.83301 -1 11.5 -3s2.5 -5.66699 2.5 -11v-17
c0 -5.33301 -0.833008 -9 -2.5 -11s-5.5 -3 -11.5 -3h-262v-306h332c5.33301 0 8.83301 -1 10.5 -3s2.5 -5.66699 2.5 -11v-16c0 -6 -0.833008 -10 -2.5 -12s-5.16699 -3 -10.5 -3h-368zM381 802l-80.002 79l-81 -79c-8.66699 -8.66699 -17 -13 -25 -13h-23
c-4 0 -6.66699 0.833008 -8 2.5s-1.16602 4 0.500977 7s4.16699 6.16699 7.5 9.5l98 100c8.66699 9.33301 18.667 14 30 14c10.667 0 21 -5 31 -15l99 -99c5.33301 -5.33301 7.83301 -9.83301 7.5 -13.5s-3.16602 -5.5 -8.49902 -5.5h-23c-8 0 -16.333 4.33301 -25 13z" />
    <glyph glyph-name="Edieresis" unicode="&#xcb;" horiz-adv-x="554" 
d="M124 0c-6 0 -10 0.833008 -12 2.5s-3 5.5 -3 11.5v694c0 6 1 9.83301 3 11.5s6 2.5 12 2.5h344c5.33301 0 9 -1 11 -3s3 -6 3 -12v-16c0 -5.33301 -1 -9 -3 -11s-5.66699 -3 -11 -3h-308v-281h262c6 0 9.83301 -1 11.5 -3s2.5 -5.66699 2.5 -11v-17
c0 -5.33301 -0.833008 -9 -2.5 -11s-5.5 -3 -11.5 -3h-262v-306h332c5.33301 0 8.83301 -1 10.5 -3s2.5 -5.66699 2.5 -11v-16c0 -6 -0.833008 -10 -2.5 -12s-5.16699 -3 -10.5 -3h-368zM186 838c0 12.667 3.99805 23.168 11.998 31.501s17.667 12.5 29 12.5
s20.833 -3.83301 28.5 -11.5s11.5 -17.834 11.5 -30.501c0 -12 -4.16699 -22 -12.5 -30s-18.166 -12 -29.499 -12s-20.666 3.66699 -27.999 11s-11 17 -11 29zM334.998 838.001c0 12 4.16504 22.334 12.498 31.001s18.166 13 29.499 13
c10.667 0 19.834 -3.83301 27.501 -11.5s11.5 -17.834 11.5 -30.501c0 -12 -4.16699 -22 -12.5 -30s-18.166 -12 -29.499 -12s-20.666 3.66699 -27.999 11s-11 17 -11 29z" />
    <glyph glyph-name="Igrave" unicode="&#xcc;" horiz-adv-x="269" 
d="M166 14c0 -6 -1 -9.83301 -3 -11.5s-6 -2.5 -12 -2.5h-21c-6 -0 -10 0.833008 -12 2.5s-3 5.5 -3 11.5v694c0 6 1 9.83301 3 11.5s6 2.5 12 2.5h21c6 0 10 -0.833008 12 -2.5s3 -5.5 3 -11.5v-694zM195 807l-2 -7.99902c-2.66699 -6 -11 -6.33301 -25 -1l-159 55
c-9.33301 4 -12 10.667 -8 20l9 19c4 7.33301 11 8.66602 21 3.99902l157 -71c8.66699 -4 11 -10 7 -18z" />
    <glyph glyph-name="Iacute" unicode="&#xcd;" horiz-adv-x="269" 
d="M166 14c0 -6 -1 -9.83301 -3 -11.5s-6 -2.5 -12 -2.5h-21c-6 -0 -10 0.833008 -12 2.5s-3 5.5 -3 11.5v694c0 6 1 9.83301 3 11.5s6 2.5 12 2.5h21c6 0 10 -0.833008 12 -2.5s3 -5.5 3 -11.5v-694zM103 801l-6.00098 12c-4 7.33301 -3 12.333 3 15l152 81
c9.33301 4.66699 16 3 20 -5l10 -19c4.66699 -9.33301 2.33398 -16 -6.99902 -20l-155 -68c-8 -3.33301 -13.667 -2 -17 4z" />
    <glyph glyph-name="Icircumflex" unicode="&#xce;" horiz-adv-x="269" 
d="M162 14c0 -6 -1 -9.83301 -3 -11.5s-6 -2.5 -12 -2.5h-21c-6 -0 -10 0.833008 -12 2.5s-3 5.5 -3 11.5v694c0 6 1 9.83301 3 11.5s6 2.5 12 2.5h21c6 0 10 -0.833008 12 -2.5s3 -5.5 3 -11.5v-694zM220 802l-80.002 79l-81 -79c-8.66699 -8.66699 -17 -13 -25 -13h-23
c-4 0 -6.66699 0.833008 -8 2.5s-1.16602 4 0.500977 7s4.16699 6.16699 7.5 9.5l98 100c8.66699 9.33301 18.667 14 30 14c10.667 0 21 -5 31 -15l99 -99c5.33301 -5.33301 7.83301 -9.83301 7.5 -13.5s-3.16602 -5.5 -8.49902 -5.5h-23c-8 0 -16.333 4.33301 -25 13z" />
    <glyph glyph-name="Idieresis" unicode="&#xcf;" horiz-adv-x="269" 
d="M160 14c0 -6 -1 -9.83301 -3 -11.5s-6 -2.5 -12 -2.5h-21c-6 -0 -10 0.833008 -12 2.5s-3 5.5 -3 11.5v694c0 6 1 9.83301 3 11.5s6 2.5 12 2.5h21c6 0 10 -0.833008 12 -2.5s3 -5.5 3 -11.5v-694zM22 838c0 12.667 3.99805 23.168 11.998 31.501s17.667 12.5 29 12.5
s20.833 -3.83301 28.5 -11.5s11.5 -17.834 11.5 -30.501c0 -12 -4.16699 -22 -12.5 -30s-18.166 -12 -29.499 -12s-20.666 3.66699 -27.999 11s-11 17 -11 29zM170.998 838.001c0 12 4.16504 22.334 12.498 31.001s18.166 13 29.499 13
c10.667 0 19.834 -3.83301 27.501 -11.5s11.5 -17.834 11.5 -30.501c0 -12 -4.16699 -22 -12.5 -30s-18.166 -12 -29.499 -12s-20.666 3.66699 -27.999 11s-11 17 -11 29z" />
    <glyph glyph-name="Eth" unicode="&#xd0;" horiz-adv-x="716" 
d="M139 0c-6 0 -10 0.832031 -12 2.49902s-3 5.5 -3 11.5v319h-102c-6 0 -9 2.66699 -9 8v30c0 5.33301 2.66699 8 8 8h103v329c0 6 1 9.83301 3 11.5s6 2.5 12 2.5h124c130.667 0 227.5 -30 290.5 -90s94.5 -150.667 94.5 -272s-31.333 -211.666 -94 -270.999
s-159 -89 -289 -89h-126zM393 332.999l-217.999 0.000976562v-288h89c115.333 0 199.666 25.167 252.999 75.5s80 130.166 80 239.499c0 110 -26.833 190.333 -80.5 241s-138.167 76 -253.5 76h-88v-298h219c5.33301 0 8 -2.66699 8 -8v-30c0 -5.33301 -3 -8 -9 -8z" />
    <glyph glyph-name="Ntilde" unicode="&#xd1;" horiz-adv-x="711" 
d="M584 0h-19.002c-7.33301 0 -15 5 -23 15l-353 570c-20 33.333 -32 57 -36 71c4 -29.333 6 -54 6 -74v-568c0 -6 -1 -9.83301 -3 -11.5s-6 -2.5 -12 -2.5h-20c-6 -0 -10 0.833008 -12 2.5s-3 5.5 -3 11.5v695c0 6 1.16699 9.66699 3.5 11s7.16602 2 14.499 2h19
c8.66699 0 16.334 -5 23.001 -15l363 -590c16.667 -29.333 26.334 -48.333 29.001 -57c-6 26 -9 55.667 -9 89v559c0 6 1 9.83301 3 11.5s6 2.5 12 2.5h20c6 0 10 -0.833008 12 -2.5s3 -5.5 3 -11.5v-695c0 -6 -1.16699 -9.66699 -3.5 -11s-7.16602 -2 -14.499 -2z
M400.998 838c9.33301 0 17.165 3.16602 23.498 9.49902s9.5 15.5 9.5 27.5c0 4.66699 2.66699 7 8 7h21c4.66699 0 7 -2.66699 7 -8c0 -24 -6.16699 -42.333 -18.5 -55s-29.166 -19 -50.499 -19c-30 0 -49.667 9.33301 -59 28c0 0.666992 -0.666992 2.16699 -2 4.5
s-2.33301 3.83301 -3 4.5s-1.83398 2 -3.50098 4s-3.16699 3.33301 -4.5 4s-3.16602 1.33398 -5.49902 2.00098s-5.16602 1 -8.49902 1c-20.667 0 -31.667 -12.333 -33 -37c0 -4.66699 -2.66699 -7 -8 -7h-20c-3.33301 0 -5.5 0.333008 -6.5 1s-1.5 3 -1.5 7
c0 22.667 6.5 40.667 19.5 54s29.167 20 48.5 20c26.667 0 46 -10.667 58 -32c6 -10.667 15.667 -16 29 -16z" />
    <glyph glyph-name="Ograve" unicode="&#xd2;" horiz-adv-x="804" 
d="M66 356c0 37.333 3.16895 72.999 9.50195 106.999s17.5 67.667 33.5 101s36.167 62.333 60.5 87s56.333 44.5 96 59.5s84.834 22.5 135.501 22.5c60 0 112.5 -10.333 157.5 -31s80.167 -48.834 105.5 -84.501s44 -74.667 56 -117s18 -87.833 18 -136.5
c0 -36.667 -3.16699 -72 -9.5 -106s-17.333 -67.833 -33 -101.5s-35.834 -62.667 -60.501 -87s-56.834 -44.166 -96.501 -59.499s-84.834 -23 -135.501 -23c-60.667 0 -113.5 10.333 -158.5 31s-80 48.834 -105 84.501s-43.5 74.667 -55.5 117s-18 87.833 -18 136.5z
M400.002 689.999c-42.667 0 -80.667 -6.66797 -114 -20.001s-60.333 -30.833 -81 -52.5s-37.834 -47.167 -51.501 -76.5s-23.167 -58.666 -28.5 -87.999s-8 -59.666 -8 -90.999s2.66699 -61.833 8 -91.5s14.833 -59.334 28.5 -89.001s31 -55.5 52 -77.5
s48.667 -39.833 83 -53.5s73.166 -20.5 116.499 -20.5c44 0 83 7.16699 117 21.5s61.167 32.5 81.5 54.5s37 48 50 78s21.833 59 26.5 87s7 57 7 87c0 30.667 -2.66699 60.667 -8 90s-14.666 59 -27.999 89s-30.5 56 -51.5 78s-48.667 40 -83 54s-73.166 21 -116.499 21z
M449.002 807.998l-2 -7.99902c-2.66699 -6 -11 -6.33301 -25 -1l-159 55c-9.33301 4 -12 10.667 -8 20l9 19c4 7.33301 11 8.66602 21 3.99902l157 -71c8.66699 -4 11 -10 7 -18z" />
    <glyph glyph-name="Oacute" unicode="&#xd3;" horiz-adv-x="804" 
d="M66 356c0 37.333 3.16895 72.999 9.50195 106.999s17.5 67.667 33.5 101s36.167 62.333 60.5 87s56.333 44.5 96 59.5s84.834 22.5 135.501 22.5c60 0 112.5 -10.333 157.5 -31s80.167 -48.834 105.5 -84.501s44 -74.667 56 -117s18 -87.833 18 -136.5
c0 -36.667 -3.16699 -72 -9.5 -106s-17.333 -67.833 -33 -101.5s-35.834 -62.667 -60.501 -87s-56.834 -44.166 -96.501 -59.499s-84.834 -23 -135.501 -23c-60.667 0 -113.5 10.333 -158.5 31s-80 48.834 -105 84.501s-43.5 74.667 -55.5 117s-18 87.833 -18 136.5z
M400.002 689.999c-42.667 0 -80.667 -6.66797 -114 -20.001s-60.333 -30.833 -81 -52.5s-37.834 -47.167 -51.501 -76.5s-23.167 -58.666 -28.5 -87.999s-8 -59.666 -8 -90.999s2.66699 -61.833 8 -91.5s14.833 -59.334 28.5 -89.001s31 -55.5 52 -77.5
s48.667 -39.833 83 -53.5s73.166 -20.5 116.499 -20.5c44 0 83 7.16699 117 21.5s61.167 32.5 81.5 54.5s37 48 50 78s21.833 59 26.5 87s7 57 7 87c0 30.667 -2.66699 60.667 -8 90s-14.666 59 -27.999 89s-30.5 56 -51.5 78s-48.667 40 -83 54s-73.166 21 -116.499 21z
M361.002 800.998l-6.00098 12c-4 7.33301 -3 12.333 3 15l152 81c9.33301 4.66699 16 3 20 -5l10 -19c4.66699 -9.33301 2.33398 -16 -6.99902 -20l-155 -68c-8 -3.33301 -13.667 -2 -17 4z" />
    <glyph glyph-name="Ocircumflex" unicode="&#xd4;" horiz-adv-x="804" 
d="M66 356c0 37.333 3.16895 72.999 9.50195 106.999s17.5 67.667 33.5 101s36.167 62.333 60.5 87s56.333 44.5 96 59.5s84.834 22.5 135.501 22.5c60 0 112.5 -10.333 157.5 -31s80.167 -48.834 105.5 -84.501s44 -74.667 56 -117s18 -87.833 18 -136.5
c0 -36.667 -3.16699 -72 -9.5 -106s-17.333 -67.833 -33 -101.5s-35.834 -62.667 -60.501 -87s-56.834 -44.166 -96.501 -59.499s-84.834 -23 -135.501 -23c-60.667 0 -113.5 10.333 -158.5 31s-80 48.834 -105 84.501s-43.5 74.667 -55.5 117s-18 87.833 -18 136.5z
M400.002 689.999c-42.667 0 -80.667 -6.66797 -114 -20.001s-60.333 -30.833 -81 -52.5s-37.834 -47.167 -51.501 -76.5s-23.167 -58.666 -28.5 -87.999s-8 -59.666 -8 -90.999s2.66699 -61.833 8 -91.5s14.833 -59.334 28.5 -89.001s31 -55.5 52 -77.5
s48.667 -39.833 83 -53.5s73.166 -20.5 116.499 -20.5c44 0 83 7.16699 117 21.5s61.167 32.5 81.5 54.5s37 48 50 78s21.833 59 26.5 87s7 57 7 87c0 30.667 -2.66699 60.667 -8 90s-14.666 59 -27.999 89s-30.5 56 -51.5 78s-48.667 40 -83 54s-73.166 21 -116.499 21z
M481.002 801.998l-80.002 79l-81 -79c-8.66699 -8.66699 -17 -13 -25 -13h-23c-4 0 -6.66699 0.833008 -8 2.5s-1.16602 4 0.500977 7s4.16699 6.16699 7.5 9.5l98 100c8.66699 9.33301 18.667 14 30 14c10.667 0 21 -5 31 -15l99 -99
c5.33301 -5.33301 7.83301 -9.83301 7.5 -13.5s-3.16602 -5.5 -8.49902 -5.5h-23c-8 0 -16.333 4.33301 -25 13z" />
    <glyph glyph-name="Otilde" unicode="&#xd5;" horiz-adv-x="804" 
d="M66 356c0 37.333 3.16895 72.999 9.50195 106.999s17.5 67.667 33.5 101s36.167 62.333 60.5 87s56.333 44.5 96 59.5s84.834 22.5 135.501 22.5c60 0 112.5 -10.333 157.5 -31s80.167 -48.834 105.5 -84.501s44 -74.667 56 -117s18 -87.833 18 -136.5
c0 -36.667 -3.16699 -72 -9.5 -106s-17.333 -67.833 -33 -101.5s-35.834 -62.667 -60.501 -87s-56.834 -44.166 -96.501 -59.499s-84.834 -23 -135.501 -23c-60.667 0 -113.5 10.333 -158.5 31s-80 48.834 -105 84.501s-43.5 74.667 -55.5 117s-18 87.833 -18 136.5z
M400.002 689.999c-42.667 0 -80.667 -6.66797 -114 -20.001s-60.333 -30.833 -81 -52.5s-37.834 -47.167 -51.501 -76.5s-23.167 -58.666 -28.5 -87.999s-8 -59.666 -8 -90.999s2.66699 -61.833 8 -91.5s14.833 -59.334 28.5 -89.001s31 -55.5 52 -77.5
s48.667 -39.833 83 -53.5s73.166 -20.5 116.499 -20.5c44 0 83 7.16699 117 21.5s61.167 32.5 81.5 54.5s37 48 50 78s21.833 59 26.5 87s7 57 7 87c0 30.667 -2.66699 60.667 -8 90s-14.666 59 -27.999 89s-30.5 56 -51.5 78s-48.667 40 -83 54s-73.166 21 -116.499 21z
M445.002 837.998c9.33301 0 17.165 3.16602 23.498 9.49902s9.5 15.5 9.5 27.5c0 4.66699 2.66699 7 8 7h21c4.66699 0 7 -2.66699 7 -8c0 -24 -6.16699 -42.333 -18.5 -55s-29.166 -19 -50.499 -19c-30 0 -49.667 9.33301 -59 28c0 0.666992 -0.666992 2.16699 -2 4.5
s-2.33301 3.83301 -3 4.5s-1.83398 2 -3.50098 4s-3.16699 3.33301 -4.5 4s-3.16602 1.33398 -5.49902 2.00098s-5.16602 1 -8.49902 1c-20.667 0 -31.667 -12.333 -33 -37c0 -4.66699 -2.66699 -7 -8 -7h-20c-3.33301 0 -5.5 0.333008 -6.5 1s-1.5 3 -1.5 7
c0 22.667 6.5 40.667 19.5 54s29.167 20 48.5 20c26.667 0 46 -10.667 58 -32c6 -10.667 15.667 -16 29 -16z" />
    <glyph glyph-name="Odieresis" unicode="&#xd6;" horiz-adv-x="804" 
d="M66 356c0 37.333 3.16895 72.999 9.50195 106.999s17.5 67.667 33.5 101s36.167 62.333 60.5 87s56.333 44.5 96 59.5s84.834 22.5 135.501 22.5c60 0 112.5 -10.333 157.5 -31s80.167 -48.834 105.5 -84.501s44 -74.667 56 -117s18 -87.833 18 -136.5
c0 -36.667 -3.16699 -72 -9.5 -106s-17.333 -67.833 -33 -101.5s-35.834 -62.667 -60.501 -87s-56.834 -44.166 -96.501 -59.499s-84.834 -23 -135.501 -23c-60.667 0 -113.5 10.333 -158.5 31s-80 48.834 -105 84.501s-43.5 74.667 -55.5 117s-18 87.833 -18 136.5z
M400.002 689.999c-42.667 0 -80.667 -6.66797 -114 -20.001s-60.333 -30.833 -81 -52.5s-37.834 -47.167 -51.501 -76.5s-23.167 -58.666 -28.5 -87.999s-8 -59.666 -8 -90.999s2.66699 -61.833 8 -91.5s14.833 -59.334 28.5 -89.001s31 -55.5 52 -77.5
s48.667 -39.833 83 -53.5s73.166 -20.5 116.499 -20.5c44 0 83 7.16699 117 21.5s61.167 32.5 81.5 54.5s37 48 50 78s21.833 59 26.5 87s7 57 7 87c0 30.667 -2.66699 60.667 -8 90s-14.666 59 -27.999 89s-30.5 56 -51.5 78s-48.667 40 -83 54s-73.166 21 -116.499 21z
M286.002 837.998c0 12.667 3.99805 23.168 11.998 31.501s17.667 12.5 29 12.5s20.833 -3.83301 28.5 -11.5s11.5 -17.834 11.5 -30.501c0 -12 -4.16699 -22 -12.5 -30s-18.166 -12 -29.499 -12s-20.666 3.66699 -27.999 11s-11 17 -11 29zM435 837.999
c0 12 4.16504 22.334 12.498 31.001s18.166 13 29.499 13c10.667 0 19.834 -3.83301 27.501 -11.5s11.5 -17.834 11.5 -30.501c0 -12 -4.16699 -22 -12.5 -30s-18.166 -12 -29.499 -12s-20.666 3.66699 -27.999 11s-11 17 -11 29z" />
    <glyph glyph-name="multiply" unicode="&#xd7;" horiz-adv-x="507" 
d="M262 238v1l-161 -163c-9.33301 -9.33301 -16 -14.833 -20 -16.5s-10.667 0.833008 -20 7.5c-8 8.66699 -5 20 9 34l168 170l-168 170c-14 14 -17 25.333 -9 34c9.33301 6.66699 16 9.16699 20 7.5s10.667 -7.16699 20 -16.5l161 -163v1l4 -4l4 4v-1l160 163
c9.33301 9.33301 16.333 14.833 21 16.5s11.334 -0.833008 20.001 -7.5c8 -8.66699 5 -20 -9 -34l-168 -170l168 -170c14 -14 17 -25.333 9 -34c-8.66699 -6.66699 -15.334 -9.16699 -20.001 -7.5s-11.667 7.16699 -21 16.5l-160 163v-1l-4 4z" />
    <glyph glyph-name="Oslash" unicode="&#xd8;" horiz-adv-x="804" 
d="M222 -7l12.0029 30.001c-58 30 -100.5 74.667 -127.5 134s-40.5 125.666 -40.5 198.999c0 37.333 3.16699 73 9.5 107s17.5 67.667 33.5 101s36.167 62.333 60.5 87s56.333 44.5 96 59.5s84.834 22.5 135.501 22.5c42.667 0 83.667 -6 123 -18l6 14c3.33301 8 6 13 8 15
s5.33301 2.66699 10 2l30 -6c6.66699 -2 7.66699 -9.33301 3 -22l-10 -23c57.333 -30 99.5 -74.5 126.5 -133.5s40.5 -124.833 40.5 -197.5c0 -36.667 -3.16699 -72 -9.5 -106s-17.333 -67.833 -33 -101.5s-35.834 -62.667 -60.501 -87s-56.834 -44.166 -96.501 -59.499
s-84.834 -23 -135.501 -23c-42 0 -82.667 5.66699 -122 17l-11 -26c-3.33301 -7.33301 -5.83301 -11.833 -7.5 -13.5s-4.5 -1.83398 -8.5 -0.500977l-30 8c-6.66699 2 -7.33398 9 -2.00098 21zM400.003 690.001c-42.667 0 -80.666 -6.66992 -113.999 -20.0029
s-60.333 -30.833 -81 -52.5s-37.834 -47.167 -51.501 -76.5s-23.167 -58.666 -28.5 -87.999s-8 -59.666 -8 -90.999c0 -61.333 10.667 -118.666 32 -171.999s56 -94.333 104 -123l253 606c-34 11.333 -69.333 17 -106 17zM687.004 357.998
c0 59.333 -10.5 115.668 -31.5 169.001s-55.167 94.666 -102.5 123.999l-255 -605c33.333 -10.667 69 -16 107 -16c44 0 83 7.16699 117 21.5s61.167 32.5 81.5 54.5s37 48 50 78s21.833 59 26.5 87s7 57 7 87z" />
    <glyph glyph-name="Ugrave" unicode="&#xd9;" horiz-adv-x="701" 
d="M351 40c67.333 0 117.166 19.332 149.499 57.999s48.5 98 48.5 178v432c0 6 1 9.83301 3 11.5s6 2.5 12 2.5h21c6 0 10 -0.833008 12 -2.5s3 -5.5 3 -11.5v-436c0 -90 -19.667 -159 -59 -207s-102.666 -72 -189.999 -72c-88 0 -151.5 23.833 -190.5 71.5
s-58.5 116.834 -58.5 207.501v436c0 6 1 9.83301 3 11.5s5.66699 2.5 11 2.5h21c6 0 10 -0.833008 12 -2.5s3 -5.5 3 -11.5v-432c0 -80 16.167 -139.333 48.5 -178s82.5 -58 150.5 -58zM400 807.999l-2 -7.99902c-2.66699 -6 -11 -6.33301 -25 -1l-159 55
c-9.33301 4 -12 10.667 -8 20l9 19c4 7.33301 11 8.66602 21 3.99902l157 -71c8.66699 -4 11 -10 7 -18z" />
    <glyph glyph-name="Uacute" unicode="&#xda;" horiz-adv-x="701" 
d="M351 40c67.333 0 117.166 19.332 149.499 57.999s48.5 98 48.5 178v432c0 6 1 9.83301 3 11.5s6 2.5 12 2.5h21c6 0 10 -0.833008 12 -2.5s3 -5.5 3 -11.5v-436c0 -90 -19.667 -159 -59 -207s-102.666 -72 -189.999 -72c-88 0 -151.5 23.833 -190.5 71.5
s-58.5 116.834 -58.5 207.501v436c0 6 1 9.83301 3 11.5s5.66699 2.5 11 2.5h21c6 0 10 -0.833008 12 -2.5s3 -5.5 3 -11.5v-432c0 -80 16.167 -139.333 48.5 -178s82.5 -58 150.5 -58zM312 800.999l-6.00098 12c-4 7.33301 -3 12.333 3 15l152 81
c9.33301 4.66699 16 3 20 -5l10 -19c4.66699 -9.33301 2.33398 -16 -6.99902 -20l-155 -68c-8 -3.33301 -13.667 -2 -17 4z" />
    <glyph glyph-name="Ucircumflex" unicode="&#xdb;" horiz-adv-x="701" 
d="M351 40c67.333 0 117.166 19.332 149.499 57.999s48.5 98 48.5 178v432c0 6 1 9.83301 3 11.5s6 2.5 12 2.5h21c6 0 10 -0.833008 12 -2.5s3 -5.5 3 -11.5v-436c0 -90 -19.667 -159 -59 -207s-102.666 -72 -189.999 -72c-88 0 -151.5 23.833 -190.5 71.5
s-58.5 116.834 -58.5 207.501v436c0 6 1 9.83301 3 11.5s5.66699 2.5 11 2.5h21c6 0 10 -0.833008 12 -2.5s3 -5.5 3 -11.5v-432c0 -80 16.167 -139.333 48.5 -178s82.5 -58 150.5 -58zM432 801.999l-80.002 79l-81 -79c-8.66699 -8.66699 -17 -13 -25 -13h-23
c-4 0 -6.66699 0.833008 -8 2.5s-1.16602 4 0.500977 7s4.16699 6.16699 7.5 9.5l98 100c8.66699 9.33301 18.667 14 30 14c10.667 0 21 -5 31 -15l99 -99c5.33301 -5.33301 7.83301 -9.83301 7.5 -13.5s-3.16602 -5.5 -8.49902 -5.5h-23c-8 0 -16.333 4.33301 -25 13z" />
    <glyph glyph-name="Udieresis" unicode="&#xdc;" horiz-adv-x="701" 
d="M351 40c67.333 0 117.166 19.332 149.499 57.999s48.5 98 48.5 178v432c0 6 1 9.83301 3 11.5s6 2.5 12 2.5h21c6 0 10 -0.833008 12 -2.5s3 -5.5 3 -11.5v-436c0 -90 -19.667 -159 -59 -207s-102.666 -72 -189.999 -72c-88 0 -151.5 23.833 -190.5 71.5
s-58.5 116.834 -58.5 207.501v436c0 6 1 9.83301 3 11.5s5.66699 2.5 11 2.5h21c6 0 10 -0.833008 12 -2.5s3 -5.5 3 -11.5v-432c0 -80 16.167 -139.333 48.5 -178s82.5 -58 150.5 -58zM237 837.999c0 12.667 3.99902 23.168 11.999 31.501s17.667 12.5 29 12.5
s20.833 -3.83301 28.5 -11.5s11.5 -17.834 11.5 -30.501c0 -12 -4.16699 -22 -12.5 -30s-18.166 -12 -29.499 -12c-12 0 -21.5 3.66699 -28.5 11s-10.5 17 -10.5 29zM385.999 838c0 12 4.16504 22.334 12.498 31.001s18.166 13 29.499 13
c10.667 0 19.834 -3.83301 27.501 -11.5s11.5 -17.834 11.5 -30.501c0 -12 -4.16699 -22 -12.5 -30s-18.166 -12 -29.499 -12s-20.666 3.66699 -27.999 11s-11 17 -11 29z" />
    <glyph glyph-name="Yacute" unicode="&#xdd;" horiz-adv-x="580" 
d="M276 292l-227 412c-7.33301 12 -5.33301 18 6 18h27c6 0 10 -0.833008 12 -2.5s4.33301 -5.16699 7 -10.5l199 -364l201 364c4 8.66699 10 13 18 13h28c10.667 0 12.667 -6 6 -18l-227 -412v-278c0 -6 -1 -9.83301 -3 -11.5s-6 -2.5 -12 -2.5h-20
c-6 -0 -10 0.833008 -12 2.5s-3 5.5 -3 11.5v278zM261 801l-6.00098 12c-4 7.33301 -3 12.333 3 15l152 81c9.33301 4.66699 16 3 20 -5l10 -19c4.66699 -9.33301 2.33398 -16 -6.99902 -20l-155 -68c-8 -3.33301 -13.667 -2 -17 4z" />
    <glyph glyph-name="Thorn" unicode="&#xde;" horiz-adv-x="597" 
d="M159 -140c0 -12 -5.33398 -18.333 -16.001 -19h-18c-10.667 0 -16 6 -16 18v864c0 12 5.66699 18.333 17 19h18c10 0 15 -6 15 -18v-198c38 4.66699 75.333 7 112 7c79.333 0 144 -21 194 -63s75 -98.667 75 -170c0 -50.667 -13.167 -94.5 -39.5 -131.5
s-58.666 -63.833 -96.999 -80.5s-79.5 -25 -123.5 -25c-40.667 0 -81 5 -121 15v-218zM158.999 482v-358c38 -12.667 77.333 -19 118 -19c58 0 107.833 16.5 149.5 49.5s62.5 81.5 62.5 145.5c0 60.667 -20.5 107.5 -61.5 140.5s-91.5 49.5 -151.5 49.5
c-52.667 0 -91.667 -2.66699 -117 -8z" />
    <glyph glyph-name="germandbls" unicode="&#xdf;" horiz-adv-x="598" 
d="M319 37c49.333 0 89.5 13.8369 120.5 41.5039s46.5 67.167 46.5 118.5c0 56 -17.667 98.167 -53 126.5s-76 42.5 -122 42.5h-72c-5.33301 0 -8 3.66699 -8 11v21c0 7.33301 3.33301 11 10 11h69c12 0 24.833 2.16699 38.5 6.5s28 11.166 43 20.499
s27.5 23.666 37.5 42.999s15 42 15 68c0 44 -13.667 78.333 -41 103s-63.666 37 -108.999 37c-47.333 0 -85.166 -13.333 -113.499 -40s-42.5 -61.334 -42.5 -104.001v-759c0 -6 -3.33301 -9 -10 -9h-31c-5.33301 0 -8 3 -8 9v758c0 55.333 17.333 100.833 52 136.5
s85 53.5 151 53.5c62.667 0 112 -16.333 148 -49s54 -77 54 -133c0 -44 -10.5 -80.333 -31.5 -109s-46.5 -45.667 -76.5 -51c15.333 -3.33301 30.666 -8.5 45.999 -15.5s31.666 -17.333 48.999 -31s31.333 -33.334 42 -59.001s16 -55.5 16 -89.5
c0 -65.333 -19.5 -115 -58.5 -149s-92.5 -51 -160.5 -51c-50.667 0 -96.667 7.66699 -138 23c-6.66699 2.66699 -10 8 -10 16v15c0 6 0.666992 9.66699 2 11s4 2 8 2c0.666992 0 8 -2 22 -6s31.833 -8.16699 53.5 -12.5s42.167 -6.5 61.5 -6.5z" />
    <glyph glyph-name="agrave" unicode="&#xe0;" horiz-adv-x="549" 
d="M443 360l-0.000976562 -278c0 -27.333 10.667 -41 32 -41c10 0 22.333 2 37 6c5.33301 2 9.33301 2.5 12 1.5s4 -4.16699 4 -9.5v-20c0 -8 -4 -13.333 -12 -16c-16.667 -4.66699 -33.334 -7 -50.001 -7c-48 0 -72 26.333 -72 79v7c-39.333 -58.667 -100.333 -88 -183 -88
c-52 0 -91.5 12 -118.5 36s-40.5 58.667 -40.5 104c0 59.333 23.167 102.333 69.5 129s117.833 40 214.5 40h58v56c0 54 -12.167 90.667 -36.5 110s-61.166 29 -110.499 29s-97.666 -7.33301 -144.999 -22c-10 -3.33301 -15 -0.333008 -15 9v21c0 4.66699 0.833008 8 2.5 10
s6.16699 4.33301 13.5 7c40 14 88.667 21 146 21c27.333 0 50.833 -2 70.5 -6s39.667 -12 60 -24s36 -30.833 47 -56.5s16.5 -58.167 16.5 -97.5zM101.999 134c0 -62.667 37.332 -94 111.999 -94c52.667 0 95.834 15.167 129.501 45.5s50.5 72.833 50.5 127.5v45h-58
c-82 0 -141.5 -9.83301 -178.5 -29.5s-55.5 -51.167 -55.5 -94.5zM319.998 638l-2 -7.99902c-2.66699 -6 -11 -6.33301 -25 -1l-159 55c-9.33301 4 -12 10.667 -8 20l9 19c4 7.33301 11 8.66602 21 3.99902l157 -71c8.66699 -4 11 -10 7 -18z" />
    <glyph glyph-name="aacute" unicode="&#xe1;" horiz-adv-x="549" 
d="M443 360l-0.000976562 -278c0 -27.333 10.667 -41 32 -41c10 0 22.333 2 37 6c5.33301 2 9.33301 2.5 12 1.5s4 -4.16699 4 -9.5v-20c0 -8 -4 -13.333 -12 -16c-16.667 -4.66699 -33.334 -7 -50.001 -7c-48 0 -72 26.333 -72 79v7c-39.333 -58.667 -100.333 -88 -183 -88
c-52 0 -91.5 12 -118.5 36s-40.5 58.667 -40.5 104c0 59.333 23.167 102.333 69.5 129s117.833 40 214.5 40h58v56c0 54 -12.167 90.667 -36.5 110s-61.166 29 -110.499 29s-97.666 -7.33301 -144.999 -22c-10 -3.33301 -15 -0.333008 -15 9v21c0 4.66699 0.833008 8 2.5 10
s6.16699 4.33301 13.5 7c40 14 88.667 21 146 21c27.333 0 50.833 -2 70.5 -6s39.667 -12 60 -24s36 -30.833 47 -56.5s16.5 -58.167 16.5 -97.5zM101.999 134c0 -62.667 37.332 -94 111.999 -94c52.667 0 95.834 15.167 129.501 45.5s50.5 72.833 50.5 127.5v45h-58
c-82 0 -141.5 -9.83301 -178.5 -29.5s-55.5 -51.167 -55.5 -94.5zM218.998 636l-6.00098 12c-4 6.66699 -3 11.667 3 15l152 81c9.33301 4.66699 16 3 20 -5l10 -19c4.66699 -9.33301 2.33398 -16 -6.99902 -20l-155 -68c-8 -3.33301 -13.667 -2 -17 4z" />
    <glyph glyph-name="acircumflex" unicode="&#xe2;" horiz-adv-x="549" 
d="M443 360l-0.000976562 -278c0 -27.333 10.667 -41 32 -41c10 0 22.333 2 37 6c5.33301 2 9.33301 2.5 12 1.5s4 -4.16699 4 -9.5v-20c0 -8 -4 -13.333 -12 -16c-16.667 -4.66699 -33.334 -7 -50.001 -7c-48 0 -72 26.333 -72 79v7c-39.333 -58.667 -100.333 -88 -183 -88
c-52 0 -91.5 12 -118.5 36s-40.5 58.667 -40.5 104c0 59.333 23.167 102.333 69.5 129s117.833 40 214.5 40h58v56c0 54 -12.167 90.667 -36.5 110s-61.166 29 -110.499 29s-97.666 -7.33301 -144.999 -22c-10 -3.33301 -15 -0.333008 -15 9v21c0 4.66699 0.833008 8 2.5 10
s6.16699 4.33301 13.5 7c40 14 88.667 21 146 21c27.333 0 50.833 -2 70.5 -6s39.667 -12 60 -24s36 -30.833 47 -56.5s16.5 -58.167 16.5 -97.5zM101.999 134c0 -62.667 37.332 -94 111.999 -94c52.667 0 95.834 15.167 129.501 45.5s50.5 72.833 50.5 127.5v45h-58
c-82 0 -141.5 -9.83301 -178.5 -29.5s-55.5 -51.167 -55.5 -94.5zM338.998 632l-80.002 79l-81 -79c-8.66699 -8.66699 -17 -13 -25 -13h-23c-4 0 -6.66699 0.833008 -8 2.5s-1.16602 4 0.500977 7s4.16699 6.16699 7.5 9.5l98 100c8.66699 9.33301 18.667 14 30 14
c10.667 0 21 -5 31 -15l99 -99c5.33301 -5.33301 7.83301 -9.83301 7.5 -13.5s-3.16602 -5.5 -8.49902 -5.5h-23c-8 0 -16.333 4.33301 -25 13z" />
    <glyph glyph-name="atilde" unicode="&#xe3;" horiz-adv-x="549" 
d="M443 360l-0.000976562 -278c0 -27.333 10.667 -41 32 -41c10 0 22.333 2 37 6c5.33301 2 9.33301 2.5 12 1.5s4 -4.16699 4 -9.5v-20c0 -8 -4 -13.333 -12 -16c-16.667 -4.66699 -33.334 -7 -50.001 -7c-48 0 -72 26.333 -72 79v7c-39.333 -58.667 -100.333 -88 -183 -88
c-52 0 -91.5 12 -118.5 36s-40.5 58.667 -40.5 104c0 59.333 23.167 102.333 69.5 129s117.833 40 214.5 40h58v56c0 54 -12.167 90.667 -36.5 110s-61.166 29 -110.499 29s-97.666 -7.33301 -144.999 -22c-10 -3.33301 -15 -0.333008 -15 9v21c0 4.66699 0.833008 8 2.5 10
s6.16699 4.33301 13.5 7c40 14 88.667 21 146 21c27.333 0 50.833 -2 70.5 -6s39.667 -12 60 -24s36 -30.833 47 -56.5s16.5 -58.167 16.5 -97.5zM101.999 134c0 -62.667 37.332 -94 111.999 -94c52.667 0 95.834 15.167 129.501 45.5s50.5 72.833 50.5 127.5v45h-58
c-82 0 -141.5 -9.83301 -178.5 -29.5s-55.5 -51.167 -55.5 -94.5zM303.998 668c9.33301 0 17.165 3.16602 23.498 9.49902s9.5 15.5 9.5 27.5c0 4.66699 2.66699 7 8 7h21c4.66699 0 7 -2.66699 7 -8c0 -24 -6.16699 -42.333 -18.5 -55s-29.166 -19 -50.499 -19
c-30 0 -49.667 9.33301 -59 28c0 0.666992 -0.666992 2.16699 -2 4.5s-2.33301 3.83301 -3 4.5s-1.83398 2 -3.50098 4s-3.16699 3.33301 -4.5 4s-3.16602 1.33398 -5.49902 2.00098s-5.16602 1 -8.49902 1c-20.667 0 -31.667 -12.333 -33 -37c0 -4.66699 -2.66699 -7 -8 -7
h-20c-3.33301 0 -5.5 0.333008 -6.5 1s-1.5 3 -1.5 7c0 22.667 6.5 40.667 19.5 54s29.167 20 48.5 20c26.667 0 46 -10.667 58 -32c6 -10.667 15.667 -16 29 -16z" />
    <glyph glyph-name="adieresis" unicode="&#xe4;" horiz-adv-x="549" 
d="M443 360l-0.000976562 -278c0 -27.333 10.667 -41 32 -41c10 0 22.333 2 37 6c5.33301 2 9.33301 2.5 12 1.5s4 -4.16699 4 -9.5v-20c0 -8 -4 -13.333 -12 -16c-16.667 -4.66699 -33.334 -7 -50.001 -7c-48 0 -72 26.333 -72 79v7c-39.333 -58.667 -100.333 -88 -183 -88
c-52 0 -91.5 12 -118.5 36s-40.5 58.667 -40.5 104c0 59.333 23.167 102.333 69.5 129s117.833 40 214.5 40h58v56c0 54 -12.167 90.667 -36.5 110s-61.166 29 -110.499 29s-97.666 -7.33301 -144.999 -22c-10 -3.33301 -15 -0.333008 -15 9v21c0 4.66699 0.833008 8 2.5 10
s6.16699 4.33301 13.5 7c40 14 88.667 21 146 21c27.333 0 50.833 -2 70.5 -6s39.667 -12 60 -24s36 -30.833 47 -56.5s16.5 -58.167 16.5 -97.5zM101.999 134c0 -62.667 37.332 -94 111.999 -94c52.667 0 95.834 15.167 129.501 45.5s50.5 72.833 50.5 127.5v45h-58
c-82 0 -141.5 -9.83301 -178.5 -29.5s-55.5 -51.167 -55.5 -94.5zM144.998 668c0 12.667 3.99902 23.168 11.999 31.501s17.667 12.5 29 12.5s20.833 -3.83301 28.5 -11.5s11.5 -17.834 11.5 -30.501c0 -12 -4.16699 -22 -12.5 -30s-18.166 -12 -29.499 -12
c-12 0 -21.5 3.66699 -28.5 11s-10.5 17 -10.5 29zM293.997 668.001c0 12 4.16504 22.334 12.498 31.001s18.166 13 29.499 13c10.667 0 19.834 -3.83301 27.501 -11.5s11.5 -17.834 11.5 -30.501c0 -12 -4.16699 -22 -12.5 -30s-18.166 -12 -29.499 -12
s-20.666 3.66699 -27.999 11s-11 17 -11 29z" />
    <glyph glyph-name="aring" unicode="&#xe5;" horiz-adv-x="549" 
d="M443 360l-0.000976562 -278c0 -27.333 10.667 -41 32 -41c10 0 22.333 2 37 6c5.33301 2 9.33301 2.5 12 1.5s4 -4.16699 4 -9.5v-20c0 -8 -4 -13.333 -12 -16c-16.667 -4.66699 -33.334 -7 -50.001 -7c-48 0 -72 26.333 -72 79v7c-39.333 -58.667 -100.333 -88 -183 -88
c-52 0 -91.5 12 -118.5 36s-40.5 58.667 -40.5 104c0 59.333 23.167 102.333 69.5 129s117.833 40 214.5 40h58v56c0 54 -12.167 90.667 -36.5 110s-61.166 29 -110.499 29s-97.666 -7.33301 -144.999 -22c-10 -3.33301 -15 -0.333008 -15 9v21c0 4.66699 0.833008 8 2.5 10
s6.16699 4.33301 13.5 7c40 14 88.667 21 146 21c27.333 0 50.833 -2 70.5 -6s39.667 -12 60 -24s36 -30.833 47 -56.5s16.5 -58.167 16.5 -97.5zM101.999 134c0 -62.667 37.332 -94 111.999 -94c52.667 0 95.834 15.167 129.501 45.5s50.5 72.833 50.5 127.5v45h-58
c-82 0 -141.5 -9.83301 -178.5 -29.5s-55.5 -51.167 -55.5 -94.5zM257.998 621c-30 0 -54.333 7.5 -73 22.5s-28 34.833 -28 59.5s9.16699 44.5 27.5 59.5s42.833 22.5 73.5 22.5c30 0 54.333 -7.5 73 -22.5s28 -34.833 28 -59.5s-9.33301 -44.5 -28 -59.5
s-43 -22.5 -73 -22.5zM257.998 652c16 0 29.667 4.66699 41 14s17 21.666 17 36.999s-5.5 27.666 -16.5 36.999s-24.833 14 -41.5 14s-30.667 -4.66699 -42 -14s-17 -21.666 -17 -36.999s5.83301 -27.666 17.5 -36.999s25.5 -14 41.5 -14z" />
    <glyph glyph-name="ae" unicode="&#xe6;" horiz-adv-x="905" 
d="M635 544c69.333 0 122.831 -16.5 160.498 -49.5s56.5 -78.833 56.5 -137.5c0 -52.667 -18.5 -93.667 -55.5 -123s-93.167 -44 -168.5 -44c-66.667 0 -127 10.333 -181 31c11.333 -128 77.666 -192 198.999 -192c33.333 0 64 4 92 12c21.333 6.66699 43 14.667 65 24
c7.33301 2 11 -0.333008 11 -7v-19c0 -5.33301 -1 -9.33301 -3 -12s-6.66699 -5.33398 -14 -8.00098c-46.667 -21.333 -96.667 -32 -150 -32c-118.667 0 -195.667 46.667 -231 140c-34 -88.667 -102.333 -133 -205 -133c-52 0 -91.5 12 -118.5 36s-40.5 58.667 -40.5 104
c0 59.333 23.167 102.333 69.5 129s117.833 40 214.5 40h57v56c0 54 -12 90.667 -36 110s-60.667 29 -110 29s-97.666 -7.33301 -144.999 -22c-10 -3.33301 -15 -0.333008 -15 9v21c0 4.66699 0.833008 8 2.5 10s6.16699 4.33301 13.5 7c38.667 14 87.334 21 146.001 21
c22 0 41.333 -1.33301 58 -4s34 -7.66699 52 -15s33.333 -18.666 46 -33.999s22.334 -34.333 29.001 -57c40.667 73.333 107.667 110 201 110zM634.998 503c-62 0 -109 -21.333 -141 -64s-48 -102 -48 -178c54.667 -20 112 -30 172 -30c123.333 0 185 43.667 185 131
c0 44 -15 78.5 -45 103.5s-71 37.5 -123 37.5zM101.998 134c0 -62.667 37.333 -94 112 -94c52.667 0 95.667 15.167 129 45.5s50 72.833 50 127.5v45h-57c-82 0 -141.5 -9.83301 -178.5 -29.5s-55.5 -51.167 -55.5 -94.5z" />
    <glyph glyph-name="ccedilla" unicode="&#xe7;" horiz-adv-x="508" 
d="M253 -64l28.002 57.0029c-74.667 3.33301 -129.834 29.166 -165.501 77.499s-53.5 113.833 -53.5 196.5c0 87.333 19.667 155.333 59 204s99.666 73 180.999 73c56 0 101.333 -9.66699 136 -29c8.66699 -5.33301 13 -11.333 13 -18v-25c0 -8 -4.33301 -10.333 -13 -7
l-12.5 6c-7 3.33301 -13.833 6.33301 -20.5 9s-15 5.5 -25 8.5s-21.333 5.33301 -34 7s-26 2.5 -40 2.5c-127.333 0 -191 -76.667 -191 -230s61.667 -230 185 -230c35.333 0 80 9.33301 134 28c11.333 5.33301 17 3 17 -7v-19c0 -10 -3.33301 -16.667 -10 -20
c-31.333 -15.333 -70.666 -24.333 -117.999 -27l-15 -31c30 4.66699 55 0.666992 75 -12s30 -34 30 -64c0 -58 -39 -87 -117 -87c-34 0 -56.333 1.33301 -67 4c-4.66699 1.33301 -7 5.33301 -7 12v15c0 5.33301 0.5 8.66602 1.5 9.99902s3.5 1.66602 7.5 0.999023
c22 -2.66699 43.333 -4 64 -4c50.667 0 76 16.333 76 49c0 28 -17.333 42 -52 42c-7.33301 0 -17.833 -0.666992 -31.5 -2s-21.834 -2 -24.501 -2c-10.667 0 -14 4 -10 12z" />
    <glyph glyph-name="egrave" unicode="&#xe8;" 
d="M289 544c64 0 112.668 -14.667 146.001 -44s50 -71 50 -125s-17.167 -95.5 -51.5 -124.5s-85.5 -43.5 -153.5 -43.5c-62.667 0 -119 10.667 -169 32c2.66699 -72.667 20.167 -124.334 52.5 -155.001s80.166 -46 143.499 -46c49.333 0 94.666 8.33301 135.999 25
c24.667 10 37.334 15 38.001 15c4.66699 0 7 -2.33301 7 -7v-28c0 -6.66699 -6.66699 -13 -20 -19c-48 -21.333 -102 -32 -162 -32c-162.667 0 -244 89 -244 267c0 88.667 19.5 158.334 58.5 209.001s95.167 76 168.5 76zM289.001 498
c-54.667 0 -97.168 -18.5 -127.501 -55.5s-47.166 -90.167 -50.499 -159.5c52 -20.667 108 -31 168 -31c105.333 0 158 41.667 158 125c0 80.667 -49.333 121 -148 121zM344 636l-2 -7.99902c-2.66699 -6 -11 -6.33301 -25 -1l-159 55c-9.33301 4 -12 10.667 -8 20l9 19
c4 7.33301 11 8.66602 21 3.99902l157 -71c8.66699 -4 11 -10 7 -18z" />
    <glyph glyph-name="eacute" unicode="&#xe9;" 
d="M289 544c64 0 112.668 -14.667 146.001 -44s50 -71 50 -125s-17.167 -95.5 -51.5 -124.5s-85.5 -43.5 -153.5 -43.5c-62.667 0 -119 10.667 -169 32c2.66699 -72.667 20.167 -124.334 52.5 -155.001s80.166 -46 143.499 -46c49.333 0 94.666 8.33301 135.999 25
c24.667 10 37.334 15 38.001 15c4.66699 0 7 -2.33301 7 -7v-28c0 -6.66699 -6.66699 -13 -20 -19c-48 -21.333 -102 -32 -162 -32c-162.667 0 -244 89 -244 267c0 88.667 19.5 158.334 58.5 209.001s95.167 76 168.5 76zM289.001 498
c-54.667 0 -97.168 -18.5 -127.501 -55.5s-47.166 -90.167 -50.499 -159.5c52 -20.667 108 -31 168 -31c105.333 0 158 41.667 158 125c0 80.667 -49.333 121 -148 121zM250 631l-6.00098 12c-4 7.33301 -3 12.333 3 15l152 81c9.33301 4.66699 16 3 20 -5l10 -19
c4.66699 -9.33301 2.33398 -16 -6.99902 -20l-155 -68c-8 -3.33301 -13.667 -2 -17 4z" />
    <glyph glyph-name="ecircumflex" unicode="&#xea;" 
d="M289 544c64 0 112.668 -14.667 146.001 -44s50 -71 50 -125s-17.167 -95.5 -51.5 -124.5s-85.5 -43.5 -153.5 -43.5c-62.667 0 -119 10.667 -169 32c2.66699 -72.667 20.167 -124.334 52.5 -155.001s80.166 -46 143.499 -46c49.333 0 94.666 8.33301 135.999 25
c24.667 10 37.334 15 38.001 15c4.66699 0 7 -2.33301 7 -7v-28c0 -6.66699 -6.66699 -13 -20 -19c-48 -21.333 -102 -32 -162 -32c-162.667 0 -244 89 -244 267c0 88.667 19.5 158.334 58.5 209.001s95.167 76 168.5 76zM289.001 498
c-54.667 0 -97.168 -18.5 -127.501 -55.5s-47.166 -90.167 -50.499 -159.5c52 -20.667 108 -31 168 -31c105.333 0 158 41.667 158 125c0 80.667 -49.333 121 -148 121zM370 632l-80.002 79l-81 -79c-8.66699 -8.66699 -17 -13 -25 -13h-23c-4 0 -6.66699 0.833008 -8 2.5
s-1.16602 4 0.500977 7s4.16699 6.16699 7.5 9.5l98 100c8.66699 9.33301 18.667 14 30 14c10.667 0 21 -5 31 -15l99 -99c5.33301 -5.33301 7.83301 -9.83301 7.5 -13.5s-3.16602 -5.5 -8.49902 -5.5h-23c-8 0 -16.333 4.33301 -25 13z" />
    <glyph glyph-name="edieresis" unicode="&#xeb;" 
d="M289 544c64 0 112.668 -14.667 146.001 -44s50 -71 50 -125s-17.167 -95.5 -51.5 -124.5s-85.5 -43.5 -153.5 -43.5c-62.667 0 -119 10.667 -169 32c2.66699 -72.667 20.167 -124.334 52.5 -155.001s80.166 -46 143.499 -46c49.333 0 94.666 8.33301 135.999 25
c24.667 10 37.334 15 38.001 15c4.66699 0 7 -2.33301 7 -7v-28c0 -6.66699 -6.66699 -13 -20 -19c-48 -21.333 -102 -32 -162 -32c-162.667 0 -244 89 -244 267c0 88.667 19.5 158.334 58.5 209.001s95.167 76 168.5 76zM289.001 498
c-54.667 0 -97.168 -18.5 -127.501 -55.5s-47.166 -90.167 -50.499 -159.5c52 -20.667 108 -31 168 -31c105.333 0 158 41.667 158 125c0 80.667 -49.333 121 -148 121zM175 667c0 12.667 3.99902 23.168 11.999 31.501s17.667 12.5 29 12.5s20.833 -3.83301 28.5 -11.5
s11.5 -17.834 11.5 -30.501c0 -12 -4.16699 -22 -12.5 -30s-18.166 -12 -29.499 -12c-12 0 -21.5 3.5 -28.5 10.5s-10.5 16.833 -10.5 29.5zM323.999 667.001c0 12 4.16504 22.334 12.498 31.001s18.166 13 29.499 13c10.667 0 19.834 -3.83301 27.501 -11.5
s11.5 -17.834 11.5 -30.501c0 -12 -4.16699 -22 -12.5 -30s-18.166 -12 -29.499 -12s-20.666 3.66699 -27.999 11s-11 17 -11 29z" />
    <glyph glyph-name="igrave" unicode="&#xec;" horiz-adv-x="228" 
d="M145 518v-504c0 -6 -1 -9.83301 -3 -11.5s-5.66699 -2.5 -11 -2.5h-21c-5.33301 -0 -9 0.833008 -11 2.5s-3 5.5 -3 11.5v504c0 9.33301 4.66699 14 14 14h21c9.33301 0 14 -4.66699 14 -14zM168 638l-2 -7.99902c-2.66699 -6 -11 -6.33301 -25 -1l-159 55
c-9.33301 4 -12 10.667 -8 20l9 19c4 7.33301 11 8.66602 21 3.99902l157 -71c8.66699 -4 11 -10 7 -18z" />
    <glyph glyph-name="iacute" unicode="&#xed;" horiz-adv-x="228" 
d="M144 518v-504c0 -6 -1 -9.83301 -3 -11.5s-5.66699 -2.5 -11 -2.5h-21c-5.33301 -0 -9 0.833008 -11 2.5s-3 5.5 -3 11.5v504c0 9.33301 4.66699 14 14 14h21c9.33301 0 14 -4.66699 14 -14zM79 631l-6.00098 12c-4 7.33301 -3 12.333 3 15l152 81
c9.33301 4.66699 16 3 20 -5l10 -19c4.66699 -9.33301 2.33398 -16 -6.99902 -20l-155 -68c-8 -3.33301 -13.667 -2 -17 4z" />
    <glyph glyph-name="icircumflex" unicode="&#xee;" horiz-adv-x="229" 
d="M141 518v-504c0 -6 -1 -9.83301 -3 -11.5s-5.66699 -2.5 -11 -2.5h-21c-5.33301 -0 -9 0.833008 -11 2.5s-3 5.5 -3 11.5v504c0 9.33301 4.66699 14 14 14h21c9.33301 0 14 -4.66699 14 -14zM196 632l-80.002 79l-81 -79c-8.66699 -8.66699 -17 -13 -25 -13h-23
c-4 0 -6.66699 0.833008 -8 2.5s-1.16602 4 0.500977 7s4.16699 6.16699 7.5 9.5l98 100c8.66699 9.33301 18.667 14 30 14c10.667 0 21 -5 31 -15l99 -99c5.33301 -5.33301 7.83301 -9.83301 7.5 -13.5s-3.16602 -5.5 -8.49902 -5.5h-23c-8 0 -16.333 4.33301 -25 13z" />
    <glyph glyph-name="idieresis" unicode="&#xef;" horiz-adv-x="229" 
d="M139 518v-504c0 -6 -1 -9.83301 -3 -11.5s-5.66699 -2.5 -11 -2.5h-21c-5.33301 -0 -9 0.833008 -11 2.5s-3 5.5 -3 11.5v504c0 9.33301 4.66699 14 14 14h21c9.33301 0 14 -4.66699 14 -14zM-1 668c0 12.667 3.99902 23.168 11.999 31.501s17.667 12.5 29 12.5
s20.833 -3.83301 28.5 -11.5s11.5 -17.834 11.5 -30.501c0 -12 -4.16699 -22 -12.5 -30s-18.166 -12 -29.499 -12c-12 0 -21.5 3.66699 -28.5 11s-10.5 17 -10.5 29zM147.999 668.001c0 12 4.16504 22.334 12.498 31.001s18.166 13 29.499 13
c10.667 0 19.834 -3.83301 27.501 -11.5s11.5 -17.834 11.5 -30.501c0 -12 -4.16699 -22 -12.5 -30s-18.166 -12 -29.499 -12s-20.666 3.66699 -27.999 11s-11 17 -11 29z" />
    <glyph glyph-name="eth" unicode="&#xf0;" horiz-adv-x="598" 
d="M539 634l-113 -44c73.333 -96 110 -193 110 -291c0 -24 -2 -48.667 -6 -74s-11.833 -52.5 -23.5 -81.5s-26.5 -54.667 -44.5 -77s-42.5 -40.833 -73.5 -55.5s-66.5 -22 -106.5 -22c-74 0 -131 22.833 -171 68.5s-60 99.167 -60 160.5c0 64.667 21.667 119.667 65 165
s100.333 68 171 68c93.333 0 159.666 -46.333 198.999 -139c-9.33301 102.667 -44.666 189.334 -105.999 260.001l-133 -52c-18 -7.33301 -29.333 -3.66602 -34 11.001c-3.33301 9.33301 -3.83301 16 -1.5 20s9.16602 8.33301 20.499 13l114 44c-22 21.333 -63 56 -123 104
c-6 6 -9 10.667 -9 14s1.66699 6.66602 5 9.99902l9 8c5.33301 4.66699 10 7 14 7c4.66699 0 10.334 -1.66699 17.001 -5c45.333 -29.333 90.333 -69 135 -119l133 52c14 6 23.667 1.66699 29 -13c3.33301 -8.66699 3.83301 -15.334 1.5 -20.001s-8.5 -8.66699 -18.5 -12z
M283 36c60.667 0 106.5 19.166 137.5 57.499s46.5 82.166 46.5 131.499c0 52 -17.167 95.5 -51.5 130.5s-77.5 52.5 -129.5 52.5c-52.667 0 -96.5 -18.167 -131.5 -54.5s-52.5 -81.166 -52.5 -134.499c0 -49.333 15.5 -92.166 46.5 -128.499s75.833 -54.5 134.5 -54.5z" />
    <glyph glyph-name="ntilde" unicode="&#xf1;" horiz-adv-x="559" 
d="M297 498c-50 0 -88.999 -19.333 -116.999 -58s-42 -92.667 -42 -162v-264c0 -6 -1 -9.83301 -3 -11.5s-5.66699 -2.5 -11 -2.5h-21c-5.33301 -0 -9 0.833008 -11 2.5s-3 5.5 -3 11.5v504c0 9.33301 4.66699 14 14 14h21c9.33301 0 14 -4.66699 14 -14v-81
c14.667 36 37.167 62.833 67.5 80.5s64.166 26.5 101.499 26.5c50.667 0 91.167 -16 121.5 -48s45.5 -77.667 45.5 -137v-345c0 -6 -1 -9.83301 -3 -11.5s-5.66699 -2.5 -11 -2.5h-21c-5.33301 -0 -9 0.833008 -11 2.5s-3 5.5 -3 11.5v333c0 100.667 -42.667 151 -128 151z
M330.001 668c9.33301 0 17.165 3.16602 23.498 9.49902s9.5 15.5 9.5 27.5c0 4.66699 2.66699 7 8 7h21c4.66699 0 7 -2.66699 7 -8c0 -24 -6.16699 -42.333 -18.5 -55s-29.166 -19 -50.499 -19c-30 0 -49.667 9.33301 -59 28c0 0.666992 -0.666992 2.16699 -2 4.5
s-2.33301 3.83301 -3 4.5s-1.83398 2 -3.50098 4s-3.16699 3.33301 -4.5 4s-3.16602 1.33398 -5.49902 2.00098s-5.16602 1 -8.49902 1c-20.667 0 -31.667 -12.333 -33 -37c0 -4.66699 -2.66699 -7 -8 -7h-20c-3.33301 0 -5.5 0.333008 -6.5 1s-1.5 3 -1.5 7
c0 22.667 6.5 40.667 19.5 54s29.167 20 48.5 20c26.667 0 46 -10.667 58 -32c6 -10.667 15.667 -16 29 -16z" />
    <glyph glyph-name="ograve" unicode="&#xf2;" horiz-adv-x="572" 
d="M63 266c0 84.667 18 152.167 54 202.5s92.333 75.5 169 75.5c76 0 132.167 -25.167 168.5 -75.5s54.5 -117.833 54.5 -202.5s-18.167 -152.334 -54.5 -203.001s-92.5 -76 -168.5 -76c-76.667 0 -133 25.333 -169 76s-54 118.334 -54 203.001zM286 498
c-115.333 0 -173 -77.333 -173 -232c0 -155.333 57.667 -233 173 -233c114.667 0 172 77.667 172 233c0 154.667 -57.333 232 -172 232zM334 637l-2 -7.99902c-2.66699 -6 -11 -6.33301 -25 -1l-159 55c-9.33301 4 -12 10.667 -8 20l9 19c4 7.33301 11 8.66602 21 3.99902
l157 -71c8.66699 -4 11 -10 7 -18z" />
    <glyph glyph-name="oacute" unicode="&#xf3;" horiz-adv-x="572" 
d="M63 266c0 84.667 18 152.167 54 202.5s92.333 75.5 169 75.5c76 0 132.167 -25.167 168.5 -75.5s54.5 -117.833 54.5 -202.5s-18.167 -152.334 -54.5 -203.001s-92.5 -76 -168.5 -76c-76.667 0 -133 25.333 -169 76s-54 118.334 -54 203.001zM286 498
c-115.333 0 -173 -77.333 -173 -232c0 -155.333 57.667 -233 173 -233c114.667 0 172 77.667 172 233c0 154.667 -57.333 232 -172 232zM246 631l-6.00098 12c-4 7.33301 -3 12.333 3 15l152 81c9.33301 4.66699 16 3 20 -5l10 -19
c4.66699 -9.33301 2.33398 -16 -6.99902 -20l-155 -68c-8 -3.33301 -13.667 -2 -17 4z" />
    <glyph glyph-name="ocircumflex" unicode="&#xf4;" horiz-adv-x="572" 
d="M63 266c0 84.667 18 152.167 54 202.5s92.333 75.5 169 75.5c76 0 132.167 -25.167 168.5 -75.5s54.5 -117.833 54.5 -202.5s-18.167 -152.334 -54.5 -203.001s-92.5 -76 -168.5 -76c-76.667 0 -133 25.333 -169 76s-54 118.334 -54 203.001zM286 498
c-115.333 0 -173 -77.333 -173 -232c0 -155.333 57.667 -233 173 -233c114.667 0 172 77.667 172 233c0 154.667 -57.333 232 -172 232zM366 632l-80.002 79l-81 -79c-8.66699 -8.66699 -17 -13 -25 -13h-23c-4 0 -6.66699 0.833008 -8 2.5s-1.16602 4 0.500977 7
s4.16699 6.16699 7.5 9.5l98 100c8.66699 9.33301 18.667 14 30 14c10.667 0 21 -5 31 -15l99 -99c5.33301 -5.33301 7.83301 -9.83301 7.5 -13.5s-3.16602 -5.5 -8.49902 -5.5h-23c-8 0 -16.333 4.33301 -25 13z" />
    <glyph glyph-name="otilde" unicode="&#xf5;" horiz-adv-x="572" 
d="M63 266c0 84.667 18 152.167 54 202.5s92.333 75.5 169 75.5c76 0 132.167 -25.167 168.5 -75.5s54.5 -117.833 54.5 -202.5s-18.167 -152.334 -54.5 -203.001s-92.5 -76 -168.5 -76c-76.667 0 -133 25.333 -169 76s-54 118.334 -54 203.001zM286 498
c-115.333 0 -173 -77.333 -173 -232c0 -155.333 57.667 -233 173 -233c114.667 0 172 77.667 172 233c0 154.667 -57.333 232 -172 232zM331 668c9.33301 0 17.165 3.16602 23.498 9.49902s9.5 15.5 9.5 27.5c0 4.66699 2.66699 7 8 7h21c4.66699 0 7 -2.66699 7 -8
c0 -24 -6.16699 -42.333 -18.5 -55s-29.166 -19 -50.499 -19c-30 0 -49.667 9.33301 -59 28c0 0.666992 -0.666992 2.16699 -2 4.5s-2.33301 3.83301 -3 4.5s-1.83398 2 -3.50098 4s-3.16699 3.33301 -4.5 4s-3.16602 1.33398 -5.49902 2.00098s-5.16602 1 -8.49902 1
c-20.667 0 -31.667 -12.333 -33 -37c0 -4.66699 -2.66699 -7 -8 -7h-20c-3.33301 0 -5.5 0.333008 -6.5 1s-1.5 3 -1.5 7c0 22.667 6.5 40.667 19.5 54s29.167 20 48.5 20c26.667 0 46 -10.667 58 -32c6 -10.667 15.667 -16 29 -16z" />
    <glyph glyph-name="odieresis" unicode="&#xf6;" horiz-adv-x="572" 
d="M63 266c0 84.667 18 152.167 54 202.5s92.333 75.5 169 75.5c76 0 132.167 -25.167 168.5 -75.5s54.5 -117.833 54.5 -202.5s-18.167 -152.334 -54.5 -203.001s-92.5 -76 -168.5 -76c-76.667 0 -133 25.333 -169 76s-54 118.334 -54 203.001zM286 498
c-115.333 0 -173 -77.333 -173 -232c0 -155.333 57.667 -233 173 -233c114.667 0 172 77.667 172 233c0 154.667 -57.333 232 -172 232zM172 668c0 12.667 3.99805 23.168 11.998 31.501s17.667 12.5 29 12.5s20.833 -3.83301 28.5 -11.5s11.5 -17.834 11.5 -30.501
c0 -12 -4.16699 -22 -12.5 -30s-18.166 -12 -29.499 -12s-20.666 3.66699 -27.999 11s-11 17 -11 29zM320.998 668.001c0 12 4.16504 22.334 12.498 31.001s18.166 13 29.499 13c10.667 0 19.834 -3.83301 27.501 -11.5s11.5 -17.834 11.5 -30.501
c0 -12 -4.16699 -22 -12.5 -30s-18.166 -12 -29.499 -12s-20.666 3.66699 -27.999 11s-11 17 -11 29z" />
    <glyph glyph-name="divide" unicode="&#xf7;" horiz-adv-x="539" 
d="M477 313h-415c-6 0 -9 2.66699 -9 8v30c0 5.33301 2.66699 8 8 8h417c5.33301 0 8 -2.66699 8 -8v-30c0 -5.33301 -3 -8 -9 -8zM235 527c0 12.667 3.66895 22.833 11.002 30.5s16.666 11.5 27.999 11.5c10.667 0 19.5 -3.5 26.5 -10.5s10.5 -16.5 10.5 -28.5
c0 -11.333 -4 -20.833 -12 -28.5s-17.333 -11.5 -28 -11.5s-19.334 3.33301 -26.001 10s-10 15.667 -10 27zM235.002 116.999c0 12.667 3.66895 22.833 11.002 30.5s16.666 11.5 27.999 11.5c10.667 0 19.5 -3.5 26.5 -10.5s10.5 -16.5 10.5 -28.5
c0 -11.333 -4 -20.833 -12 -28.5s-17.333 -11.5 -28 -11.5s-19.334 3.33301 -26.001 10s-10 15.667 -10 27z" />
    <glyph glyph-name="oslash" unicode="&#xf8;" horiz-adv-x="572" 
d="M120 -84l43.001 103.004c-66.667 43.333 -100 125.666 -100 246.999c0 84.667 18 152.167 54 202.5s92.333 75.5 169 75.5c32 0 62 -5.33301 90 -16l46 109c3.33301 8 6 13 8 15s5.33301 2.66699 10 2l29 -6c6.66699 -2 7.66699 -9.33301 3 -22l-52 -123
c59.333 -46 89 -125 89 -237c0 -84.667 -18.167 -152.334 -54.5 -203.001s-92.5 -76 -168.5 -76c-29.333 0 -55.333 4 -78 12l-41 -98c-2.66699 -6.66699 -4.83398 -10.834 -6.50098 -12.501s-4.5 -1.83398 -8.5 -0.500977l-30 8c-6 1.33301 -6.66699 8 -2 20z
M286.001 498.004c-115.333 0 -173 -77.333 -173 -232c0 -98.667 23 -166 69 -202l176 420c-20.667 9.33301 -44.667 14 -72 14zM458.001 266.004c0 88.667 -19.333 152 -58 190l-174 -415c18 -5.33301 38 -8 60 -8c114.667 0 172 77.667 172 233z" />
    <glyph glyph-name="ugrave" unicode="&#xf9;" horiz-adv-x="561" 
d="M135 170c0 -89.333 39.332 -133.999 117.999 -133.999c54.667 0 96.5 17 125.5 51s43.5 81.333 43.5 142v289c0 9.33301 4.66699 14 14 14h21c9.33301 0 14 -4.66699 14 -14v-389c0 -9.33301 0.333008 -16.333 1 -21l6 -93c0.666992 -10 -2.66602 -15 -9.99902 -15h-26
c-6.66699 0 -11 5.33301 -13 16l-5 66c-18.667 -32.667 -42 -55.834 -70 -69.501s-63 -20.5 -105 -20.5c-56.667 0 -98.167 14.167 -124.5 42.5s-39.5 75.5 -39.5 141.5v342c0 9.33301 4.66699 14 14 14h21c10 0 15 -4.66699 15 -14v-348zM326.999 638.001l-2 -7.99902
c-2.66699 -6 -11 -6.33301 -25 -1l-159 55c-9.33301 4 -12 10.667 -8 20l9 19c4 7.33301 11 8.66602 21 3.99902l157 -71c8.66699 -4 11 -10 7 -18z" />
    <glyph glyph-name="uacute" unicode="&#xfa;" horiz-adv-x="561" 
d="M135 170c0 -89.333 39.332 -133.999 117.999 -133.999c54.667 0 96.5 17 125.5 51s43.5 81.333 43.5 142v289c0 9.33301 4.66699 14 14 14h21c9.33301 0 14 -4.66699 14 -14v-389c0 -9.33301 0.333008 -16.333 1 -21l6 -93c0.666992 -10 -2.66602 -15 -9.99902 -15h-26
c-6.66699 0 -11 5.33301 -13 16l-5 66c-18.667 -32.667 -42 -55.834 -70 -69.501s-63 -20.5 -105 -20.5c-56.667 0 -98.167 14.167 -124.5 42.5s-39.5 75.5 -39.5 141.5v342c0 9.33301 4.66699 14 14 14h21c10 0 15 -4.66699 15 -14v-348zM238.999 631.001l-6.00098 12
c-4 7.33301 -3 12.333 3 15l152 81c9.33301 4.66699 16 3 20 -5l10 -19c4.66699 -9.33301 2.33398 -16 -6.99902 -20l-155 -68c-8 -3.33301 -13.667 -2 -17 4z" />
    <glyph glyph-name="ucircumflex" unicode="&#xfb;" horiz-adv-x="561" 
d="M135 170c0 -89.333 39.332 -133.999 117.999 -133.999c54.667 0 96.5 17 125.5 51s43.5 81.333 43.5 142v289c0 9.33301 4.66699 14 14 14h21c9.33301 0 14 -4.66699 14 -14v-389c0 -9.33301 0.333008 -16.333 1 -21l6 -93c0.666992 -10 -2.66602 -15 -9.99902 -15h-26
c-6.66699 0 -11 5.33301 -13 16l-5 66c-18.667 -32.667 -42 -55.834 -70 -69.501s-63 -20.5 -105 -20.5c-56.667 0 -98.167 14.167 -124.5 42.5s-39.5 75.5 -39.5 141.5v342c0 9.33301 4.66699 14 14 14h21c10 0 15 -4.66699 15 -14v-348zM358.999 632.001l-80.002 79
l-81 -79c-8.66699 -8.66699 -17 -13 -25 -13h-23c-4 0 -6.66699 0.833008 -8 2.5s-1.16602 4 0.500977 7s4.16699 6.16699 7.5 9.5l98 100c8.66699 9.33301 18.667 14 30 14c10.667 0 21 -5 31 -15l99 -99c5.33301 -5.33301 7.83301 -9.83301 7.5 -13.5
s-3.16602 -5.5 -8.49902 -5.5h-23c-8 0 -16.333 4.33301 -25 13z" />
    <glyph glyph-name="udieresis" unicode="&#xfc;" horiz-adv-x="561" 
d="M135 170c0 -89.333 39.332 -133.999 117.999 -133.999c54.667 0 96.5 17 125.5 51s43.5 81.333 43.5 142v289c0 9.33301 4.66699 14 14 14h21c9.33301 0 14 -4.66699 14 -14v-389c0 -9.33301 0.333008 -16.333 1 -21l6 -93c0.666992 -10 -2.66602 -15 -9.99902 -15h-26
c-6.66699 0 -11 5.33301 -13 16l-5 66c-18.667 -32.667 -42 -55.834 -70 -69.501s-63 -20.5 -105 -20.5c-56.667 0 -98.167 14.167 -124.5 42.5s-39.5 75.5 -39.5 141.5v342c0 9.33301 4.66699 14 14 14h21c10 0 15 -4.66699 15 -14v-348zM163.999 668.001
c0 12.667 3.99805 23.168 11.998 31.501s17.667 12.5 29 12.5s20.833 -3.83301 28.5 -11.5s11.5 -17.834 11.5 -30.501c0 -12 -4.16699 -22 -12.5 -30s-18.166 -12 -29.499 -12s-20.666 3.66699 -27.999 11s-11 17 -11 29zM312.997 668.002
c0 12 4.16504 22.334 12.498 31.001s18.166 13 29.499 13c10.667 0 19.834 -3.83301 27.501 -11.5s11.5 -17.834 11.5 -30.501c0 -12 -4.16699 -22 -12.5 -30s-18.166 -12 -29.499 -12s-20.666 3.66699 -27.999 11s-11 17 -11 29z" />
    <glyph glyph-name="yacute" unicode="&#xfd;" horiz-adv-x="533" 
d="M56 -228l-0.00195312 24c0 6.66699 5.66699 8.66699 17 6c14.667 -4 27.334 -6 38.001 -6c28 0 50.5 7.83301 67.5 23.5s33.167 45.5 48.5 89.5l24 69l-205 540c-3.33301 9.33301 0 14 10 14h26c8 0 13.667 -4.66699 17 -14l177 -469l166 469c2 6 4.33301 9.83301 7 11.5
s7.33398 2.5 14.001 2.5h20c12 0 15.333 -6.66699 10 -20l-223 -619c-20.667 -56.667 -43 -94.667 -67 -114s-52.333 -29 -85 -29c-20 0 -37.333 2 -52 6c-6.66699 2 -10 7.33301 -10 16zM233.998 631l-6.00098 12c-4 7.33301 -3 12.333 3 15l152 81
c9.33301 4.66699 16 3 20 -5l10 -19c4.66699 -9.33301 2.33398 -16 -6.99902 -20l-155 -68c-8 -3.33301 -13.667 -2 -17 4z" />
    <glyph glyph-name="thorn" unicode="&#xfe;" horiz-adv-x="579" 
d="M138 -140c0 -12 -5.33398 -18.333 -16.001 -19h-18c-10 0 -15 6 -15 18v864c0 12 5.33301 18.333 16 19h18c10 0 15 -6 15 -18v-320c12.667 47.333 35.334 82.5 68.001 105.5s71.667 34.5 117 34.5c128 0 192 -90.333 192 -271c0 -190.667 -75 -286 -225 -286
c-51.333 0 -102 14 -152 42v-169zM314.999 498c-102 0 -160.667 -75.667 -176 -227v-191c39.333 -31.333 89.333 -47 150 -47c116.667 0 175 80.333 175 241c0 149.333 -49.667 224 -149 224z" />
    <glyph glyph-name="ydieresis" unicode="&#xff;" horiz-adv-x="533" 
d="M56 -228l-0.00195312 24c0 6.66699 5.66699 8.66699 17 6c14.667 -4 27.334 -6 38.001 -6c28 0 50.5 7.83301 67.5 23.5s33.167 45.5 48.5 89.5l24 69l-205 540c-3.33301 9.33301 0 14 10 14h26c8 0 13.667 -4.66699 17 -14l177 -469l166 469c2 6 4.33301 9.83301 7 11.5
s7.33398 2.5 14.001 2.5h20c12 0 15.333 -6.66699 10 -20l-223 -619c-20.667 -56.667 -43 -94.667 -67 -114s-52.333 -29 -85 -29c-20 0 -37.333 2 -52 6c-6.66699 2 -10 7.33301 -10 16zM158.998 667c0 12.667 3.99805 23.168 11.998 31.501s17.667 12.5 29 12.5
s20.833 -3.83301 28.5 -11.5s11.5 -17.834 11.5 -30.501c0 -12 -4.16699 -22 -12.5 -30s-18.166 -12 -29.499 -12s-20.666 3.5 -27.999 10.5s-11 16.833 -11 29.5zM307.996 667.001c0 12 4.16504 22.334 12.498 31.001s18.166 13 29.499 13
c10.667 0 19.834 -3.83301 27.501 -11.5s11.5 -17.834 11.5 -30.501c0 -12 -4.16699 -22 -12.5 -30s-18.166 -12 -29.499 -12s-20.666 3.66699 -27.999 11s-11 17 -11 29z" />
    <glyph glyph-name="Amacron" unicode="&#x100;" horiz-adv-x="617" 
d="M531 13l-66.999 203h-301l-67 -203c-2 -5.33301 -4.16699 -8.83301 -6.5 -10.5s-6.83301 -2.5 -13.5 -2.5h-19c-11.333 0 -15.333 5 -12 15l234 697c2.66699 6.66699 6.66699 10 12 10h45c6 0 10.333 -3.33301 13 -10l233 -697c2 -6 2.16699 -10 0.5 -12
s-5.83398 -3 -12.501 -3h-18c-10.667 -0 -17.667 4.33301 -21 13zM313.001 672l-135 -411h271zM429.001 804h-220c-8 0 -12 7.33301 -12 22c0 13.333 4 20 12 20h220c7.33301 0 11 -6.33301 11 -19c0 -15.333 -3.66699 -23 -11 -23z" />
    <glyph glyph-name="amacron" unicode="&#x101;" horiz-adv-x="549" 
d="M443 360l-0.000976562 -278c0 -27.333 10.667 -41 32 -41c10 0 22.333 2 37 6c5.33301 2 9.33301 2.5 12 1.5s4 -4.16699 4 -9.5v-20c0 -8 -4 -13.333 -12 -16c-16.667 -4.66699 -33.334 -7 -50.001 -7c-48 0 -72 26.333 -72 79v7c-39.333 -58.667 -100.333 -88 -183 -88
c-52 0 -91.5 12 -118.5 36s-40.5 58.667 -40.5 104c0 59.333 23.167 102.333 69.5 129s117.833 40 214.5 40h58v56c0 54 -12.167 90.667 -36.5 110s-61.166 29 -110.499 29s-97.666 -7.33301 -144.999 -22c-10 -3.33301 -15 -0.333008 -15 9v21c0 4.66699 0.833008 8 2.5 10
s6.16699 4.33301 13.5 7c40 14 88.667 21 146 21c27.333 0 50.833 -2 70.5 -6s39.667 -12 60 -24s36 -30.833 47 -56.5s16.5 -58.167 16.5 -97.5zM101.999 134c0 -62.667 37.332 -94 111.999 -94c52.667 0 95.834 15.167 129.501 45.5s50.5 72.833 50.5 127.5v45h-58
c-82 0 -141.5 -9.83301 -178.5 -29.5s-55.5 -51.167 -55.5 -94.5zM373.998 633h-220c-8 0 -12 7.33301 -12 22c0 13.333 4 20 12 20h220c7.33301 0 11 -6.33301 11 -19c0 -15.333 -3.66699 -23 -11 -23z" />
    <glyph glyph-name="Abreve" unicode="&#x102;" horiz-adv-x="617" 
d="M531 13l-66.999 203h-301l-67 -203c-2 -5.33301 -4.16699 -8.83301 -6.5 -10.5s-6.83301 -2.5 -13.5 -2.5h-19c-11.333 0 -15.333 5 -12 15l234 697c2.66699 6.66699 6.66699 10 12 10h45c6 0 10.333 -3.33301 13 -10l233 -697c2 -6 2.16699 -10 0.5 -12
s-5.83398 -3 -12.501 -3h-18c-10.667 -0 -17.667 4.33301 -21 13zM313.001 672l-135 -411h271zM314.001 827c48.667 0 73 18.333 73 55c0 6 3.33301 9 10 9h26c6 0 9 -3.33301 9 -10c0 -30 -11 -53.667 -33 -71s-50.333 -26 -85 -26c-36.667 0 -65.167 8.66699 -85.5 26
s-30.5 41.333 -30.5 72c0 6 3 9 9 9h27c6 0 9 -2.66699 9 -8c0 -37.333 23.667 -56 71 -56z" />
    <glyph glyph-name="abreve" unicode="&#x103;" horiz-adv-x="549" 
d="M443 360l-0.000976562 -278c0 -27.333 10.667 -41 32 -41c10 0 22.333 2 37 6c5.33301 2 9.33301 2.5 12 1.5s4 -4.16699 4 -9.5v-20c0 -8 -4 -13.333 -12 -16c-16.667 -4.66699 -33.334 -7 -50.001 -7c-48 0 -72 26.333 -72 79v7c-39.333 -58.667 -100.333 -88 -183 -88
c-52 0 -91.5 12 -118.5 36s-40.5 58.667 -40.5 104c0 59.333 23.167 102.333 69.5 129s117.833 40 214.5 40h58v56c0 54 -12.167 90.667 -36.5 110s-61.166 29 -110.499 29s-97.666 -7.33301 -144.999 -22c-10 -3.33301 -15 -0.333008 -15 9v21c0 4.66699 0.833008 8 2.5 10
s6.16699 4.33301 13.5 7c40 14 88.667 21 146 21c27.333 0 50.833 -2 70.5 -6s39.667 -12 60 -24s36 -30.833 47 -56.5s16.5 -58.167 16.5 -97.5zM101.999 134c0 -62.667 37.332 -94 111.999 -94c52.667 0 95.834 15.167 129.501 45.5s50.5 72.833 50.5 127.5v45h-58
c-82 0 -141.5 -9.83301 -178.5 -29.5s-55.5 -51.167 -55.5 -94.5zM258.998 657c48.667 0 73 18.333 73 55c0 6 3.33301 9 10 9h26c6 0 9 -3.33301 9 -10c0 -30 -11 -53.667 -33 -71s-50.333 -26 -85 -26c-36.667 0 -65.167 8.66699 -85.5 26s-30.5 41.333 -30.5 72
c0 6 3 9 9 9h27c6 0 9 -2.66699 9 -8c0 -37.333 23.667 -56 71 -56z" />
    <glyph glyph-name="Aogonek" unicode="&#x104;" horiz-adv-x="618" 
d="M531 13l-67.001 202.998h-301l-67 -203c-2 -5.33301 -4.16699 -8.83301 -6.5 -10.5s-6.83301 -2.5 -13.5 -2.5h-19c-11.333 0 -15.333 5 -12 15l234 697c2.66699 6.66699 6.66699 10 12 10h45c6 0 10.333 -3.33301 13 -10l233 -697c2.66699 -9.33301 0 -14.333 -8 -15
c-48 -27.333 -72 -60.333 -72 -99c0 -15.333 5.5 -26.166 16.5 -32.499s22.5 -9.5 34.5 -9.5c18.667 0 35.334 3.66699 50.001 11c14 6 22 5.33301 24 -2l3 -14c2 -9.33301 -1 -16.333 -9 -21c-19.333 -10.667 -43 -16 -71 -16c-28.667 0 -51.667 6.66699 -69 20
s-26 33.333 -26 60c0 44.667 26.333 81.334 79 110.001zM312.999 671.998l-135 -411h271z" />
    <glyph glyph-name="aogonek" unicode="&#x105;" horiz-adv-x="549" 
d="M442 360l-0.00292969 -278.003c0 -27.333 10.667 -41 32 -41c10 0 22.333 2 37 6c5.33301 2 9.33301 2.5 12 1.5s4 -4.16699 4 -9.5v-20c0 -8 -4 -13.333 -12 -16c-13.333 -4 -25.333 -6.33301 -36 -7c-44.667 -26.667 -67 -58.667 -67 -96
c0 -17.333 4.5 -28.666 13.5 -33.999s21.833 -8 38.5 -8c18.667 0 35 3.33301 49 10c14 7.33301 22.333 7 25 -1l2 -14c2.66699 -8.66699 -0.333008 -15.667 -9 -21c-19.333 -11.333 -42.666 -17 -69.999 -17c-28.667 0 -51.667 6.83301 -69 20.5s-26 33.834 -26 60.501
c0 42.667 23 77.334 69 104.001c-28 10 -42 35 -42 75v7c-39.333 -58.667 -100.333 -88 -183 -88c-52 0 -91.5 12 -118.5 36s-40.5 58.667 -40.5 104c0 59.333 23.167 102.333 69.5 129s117.833 40 214.5 40h58v56c0 54 -12.167 90.667 -36.5 110s-61.166 29 -110.499 29
s-97.666 -7.33301 -144.999 -22c-10 -3.33301 -15 -0.333008 -15 9v21c0 4.66699 0.833008 8 2.5 10s6.16699 4.33301 13.5 7c40 14 88.667 21 146 21c27.333 0 50.833 -2 70.5 -6s39.667 -12 60 -24s36 -30.833 47 -56.5s16.5 -58.167 16.5 -97.5zM100.997 133.997
c0 -62.667 37.332 -94 111.999 -94c52.667 0 95.834 15.167 129.501 45.5s50.5 72.833 50.5 127.5v45h-58c-82 0 -141.5 -9.83301 -178.5 -29.5s-55.5 -51.167 -55.5 -94.5z" />
    <glyph glyph-name="Cacute" unicode="&#x106;" horiz-adv-x="639" 
d="M322 777l-6.00098 12c-4 7.33301 -3 12.333 3 15l152 81c9.33301 4.66699 16 3 20 -5l10 -19c4.66699 -9.33301 2.33398 -16 -6.99902 -20l-155 -68c-8 -3.33301 -13.667 -2 -17 4zM119.999 350c0 -210 88.667 -314.997 266 -314.997c58 0 118.667 12 182 36
c11.333 4.66699 17 2 17 -8v-21c0 -6.66699 -4 -12.334 -12 -17.001c-16.667 -8 -42.167 -16 -76.5 -24s-71.833 -12 -112.5 -12c-108.667 0 -188.5 31.5 -239.5 94.5s-76.5 150.833 -76.5 263.5c0 117.333 26.667 210.666 80 279.999s133.333 104 240 104
c34.667 0 69.667 -3.16699 105 -9.5s62 -15.166 80 -26.499c7.33301 -4 11 -11 11 -21v-16c0 -10.667 -5.33301 -13.667 -16 -9c-54 24 -113 36 -177 36c-50 0 -93.167 -8.83301 -129.5 -26.5s-64.5 -42.334 -84.5 -74.001s-34.5 -66.834 -43.5 -105.501
s-13.5 -81.667 -13.5 -129z" />
    <glyph glyph-name="cacute" unicode="&#x107;" horiz-adv-x="508" 
d="M115 268c0 -153.333 61.668 -230 185.001 -230c35.333 0 80 9.33301 134 28c11.333 5.33301 17 3 17 -7v-19c0 -10 -3.33301 -16.667 -10 -20c-37.333 -18.667 -84.666 -28 -141.999 -28c-80.667 0 -140.334 24.333 -179.001 73s-58 116 -58 202
c0 87.333 19.667 155.333 59 204s99.666 73 180.999 73c56 0 101.333 -9.66699 136 -29c8.66699 -5.33301 13 -11.333 13 -18v-25c0 -8 -4.33301 -10.333 -13 -7l-12.5 6c-7 3.33301 -13.833 6.33301 -20.5 9s-15 5.5 -25 8.5s-21.333 5.33301 -34 7s-26 2.5 -40 2.5
c-127.333 0 -191 -76.667 -191 -230zM262.001 631l-6.00098 12c-4 7.33301 -3 12.333 3 15l152 81c9.33301 4.66699 16 3 20 -5l10 -19c4.66699 -9.33301 2.33398 -16 -6.99902 -20l-155 -68c-8 -3.33301 -13.667 -2 -17 4z" />
    <glyph glyph-name="Ccircumflex" unicode="&#x108;" horiz-adv-x="639" 
d="M484 769l-80.002 79l-81 -79c-8.66699 -8.66699 -17 -13 -25 -13h-23c-4 0 -6.66699 0.833008 -8 2.5s-1.16602 4 0.500977 7s4.16699 6.16699 7.5 9.5l98 100c8.66699 9.33301 18.667 14 30 14c10.667 0 21 -5 31 -15l99 -99c5.33301 -4.66699 7.83301 -9 7.5 -13
s-3.16602 -6 -8.49902 -6h-23c-8 0 -16.333 4.33301 -25 13zM119.998 350c0 -210 88.667 -314.997 266 -314.997c58 0 118.667 12 182 36c11.333 4.66699 17 2 17 -8v-21c0 -6.66699 -4 -12.334 -12 -17.001c-16.667 -8 -42.167 -16 -76.5 -24s-71.833 -12 -112.5 -12
c-108.667 0 -188.5 31.5 -239.5 94.5s-76.5 150.833 -76.5 263.5c0 117.333 26.667 210.666 80 279.999s133.333 104 240 104c34.667 0 69.667 -3.16699 105 -9.5s62 -15.166 80 -26.499c7.33301 -4 11 -11 11 -21v-16c0 -10.667 -5.33301 -13.667 -16 -9
c-54 24 -113 36 -177 36c-50 0 -93.167 -8.83301 -129.5 -26.5s-64.5 -42.334 -84.5 -74.001s-34.5 -66.834 -43.5 -105.501s-13.5 -81.667 -13.5 -129z" />
    <glyph glyph-name="ccircumflex" unicode="&#x109;" horiz-adv-x="508" 
d="M115 268c0 -153.333 61.668 -230 185.001 -230c35.333 0 80 9.33301 134 28c11.333 5.33301 17 3 17 -7v-19c0 -10 -3.33301 -16.667 -10 -20c-37.333 -18.667 -84.666 -28 -141.999 -28c-80.667 0 -140.334 24.333 -179.001 73s-58 116 -58 202
c0 87.333 19.667 155.333 59 204s99.666 73 180.999 73c56 0 101.333 -9.66699 136 -29c8.66699 -5.33301 13 -11.333 13 -18v-25c0 -8 -4.33301 -10.333 -13 -7l-12.5 6c-7 3.33301 -13.833 6.33301 -20.5 9s-15 5.5 -25 8.5s-21.333 5.33301 -34 7s-26 2.5 -40 2.5
c-127.333 0 -191 -76.667 -191 -230zM382.001 632l-80.002 79l-81 -79c-8.66699 -8.66699 -17 -13 -25 -13h-23c-4 0 -6.66699 0.833008 -8 2.5s-1.16602 4 0.500977 7s4.16699 6.16699 7.5 9.5l98 100c8.66699 9.33301 18.667 14 30 14c10.667 0 21 -5 31 -15l99 -99
c5.33301 -5.33301 7.83301 -9.83301 7.5 -13.5s-3.16602 -5.5 -8.49902 -5.5h-23c-8 0 -16.333 4.33301 -25 13z" />
    <glyph glyph-name="Cdotaccent" unicode="&#x10a;" horiz-adv-x="639" 
d="M360 811c0 12.667 3.83301 22.999 11.5 30.999s16.834 12 27.501 12c10 0 18.667 -3.66699 26 -11s11 -16.666 11 -27.999c0 -12 -3.83301 -21.833 -11.5 -29.5s-17.167 -11.5 -28.5 -11.5c-10.667 0 -19.334 3.33301 -26.001 10s-10 15.667 -10 27zM120 349.999
c0 -210 88.667 -314.997 266 -314.997c58 0 118.667 12 182 36c11.333 4.66699 17 2 17 -8v-21c0 -6.66699 -4 -12.334 -12 -17.001c-16.667 -8 -42.167 -16 -76.5 -24s-71.833 -12 -112.5 -12c-108.667 0 -188.5 31.5 -239.5 94.5s-76.5 150.833 -76.5 263.5
c0 117.333 26.667 210.666 80 279.999s133.333 104 240 104c34.667 0 69.667 -3.16699 105 -9.5s62 -15.166 80 -26.499c7.33301 -4 11 -11 11 -21v-16c0 -10.667 -5.33301 -13.667 -16 -9c-54 24 -113 36 -177 36c-50 0 -93.167 -8.83301 -129.5 -26.5
s-64.5 -42.334 -84.5 -74.001s-34.5 -66.834 -43.5 -105.501s-13.5 -81.667 -13.5 -129z" />
    <glyph glyph-name="cdotaccent" unicode="&#x10b;" horiz-adv-x="508" 
d="M115 268c0 -153.333 61.668 -230 185.001 -230c35.333 0 80 9.33301 134 28c11.333 5.33301 17 3 17 -7v-19c0 -10 -3.33301 -16.667 -10 -20c-37.333 -18.667 -84.666 -28 -141.999 -28c-80.667 0 -140.334 24.333 -179.001 73s-58 116 -58 202
c0 87.333 19.667 155.333 59 204s99.666 73 180.999 73c56 0 101.333 -9.66699 136 -29c8.66699 -5.33301 13 -11.333 13 -18v-25c0 -8 -4.33301 -10.333 -13 -7l-12.5 6c-7 3.33301 -13.833 6.33301 -20.5 9s-15 5.5 -25 8.5s-21.333 5.33301 -34 7s-26 2.5 -40 2.5
c-127.333 0 -191 -76.667 -191 -230zM257.001 671c0 14 4.5 25.667 13.5 35s19.833 14 32.5 14c12 0 22.333 -4 31 -12s13 -19 13 -33c0 -13.333 -4.66699 -24.5 -14 -33.5s-20.333 -13.5 -33 -13.5s-23 4 -31 12s-12 18.333 -12 31z" />
    <glyph glyph-name="Ccaron" unicode="&#x10c;" horiz-adv-x="639" 
d="M323 882l81.001 -79l78 79c9.33301 8.66699 17.666 13 24.999 13h27c4.66699 0 7.16699 -1.83301 7.5 -5.5s-1.5 -7.16699 -5.5 -10.5l-103 -103c-8.66699 -9.33301 -18.667 -14 -30 -14s-21.333 4.66699 -30 14l-104 103c-3.33301 3.33301 -4.83301 6.83301 -4.5 10.5
s2.83301 5.5 7.5 5.5h26c8 0 16.333 -4.33301 25 -13zM120.001 350c0 -210 88.667 -314.997 266 -314.997c58 0 118.667 12 182 36c11.333 4.66699 17 2 17 -8v-21c0 -6.66699 -4 -12.334 -12 -17.001c-16.667 -8 -42.167 -16 -76.5 -24s-71.833 -12 -112.5 -12
c-108.667 0 -188.5 31.5 -239.5 94.5s-76.5 150.833 -76.5 263.5c0 117.333 26.667 210.666 80 279.999s133.333 104 240 104c34.667 0 69.667 -3.16699 105 -9.5s62 -15.166 80 -26.499c7.33301 -4 11 -11 11 -21v-16c0 -10.667 -5.33301 -13.667 -16 -9
c-54 24 -113 36 -177 36c-50 0 -93.167 -8.83301 -129.5 -26.5s-64.5 -42.334 -84.5 -74.001s-34.5 -66.834 -43.5 -105.501s-13.5 -81.667 -13.5 -129z" />
    <glyph glyph-name="ccaron" unicode="&#x10d;" horiz-adv-x="508" 
d="M115 268c0 -153.333 61.668 -230 185.001 -230c35.333 0 80 9.33301 134 28c11.333 5.33301 17 3 17 -7v-19c0 -10 -3.33301 -16.667 -10 -20c-37.333 -18.667 -84.666 -28 -141.999 -28c-80.667 0 -140.334 24.333 -179.001 73s-58 116 -58 202
c0 87.333 19.667 155.333 59 204s99.666 73 180.999 73c56 0 101.333 -9.66699 136 -29c8.66699 -5.33301 13 -11.333 13 -18v-25c0 -8 -4.33301 -10.333 -13 -7l-12.5 6c-7 3.33301 -13.833 6.33301 -20.5 9s-15 5.5 -25 8.5s-21.333 5.33301 -34 7s-26 2.5 -40 2.5
c-127.333 0 -191 -76.667 -191 -230zM221.001 745l81.001 -79l78 79c9.33301 8.66699 17.666 13 24.999 13h27c4.66699 0 7.16699 -1.83301 7.5 -5.5s-1.5 -7.16699 -5.5 -10.5l-103 -103c-8.66699 -9.33301 -18.667 -14 -30 -14s-21.333 4.66699 -30 14l-104 103
c-3.33301 3.33301 -4.83301 6.83301 -4.5 10.5s2.83301 5.5 7.5 5.5h26c8 0 16.333 -4.33301 25 -13z" />
    <glyph glyph-name="Dcaron" unicode="&#x10e;" horiz-adv-x="701" 
d="M124 0c-6 0 -10 0.832031 -12 2.49902s-3 5.5 -3 11.5v694c0 6 1 9.83301 3 11.5s6 2.5 12 2.5h124c130.667 0 227.5 -30 290.5 -90s94.5 -150.667 94.5 -272s-31.333 -211.666 -94 -270.999s-159 -89 -289 -89h-126zM248 676.999l-87.999 0.000976562v-632h89
c115.333 0 199.666 25.167 252.999 75.5s80 130.166 80 239.499c0 110 -26.833 190.333 -80.5 241s-138.167 76 -253.5 76zM252.001 873l81.001 -79l78 79c9.33301 8.66699 17.666 13 24.999 13h27c4.66699 0 7.16699 -1.83301 7.5 -5.5s-1.5 -7.16699 -5.5 -10.5l-103 -103
c-8.66699 -9.33301 -18.667 -14 -30 -14s-21.333 4.66699 -30 14l-104 103c-3.33301 3.33301 -4.83301 6.83301 -4.5 10.5s2.83301 5.5 7.5 5.5h26c8 0 16.333 -4.33301 25 -13z" />
    <glyph glyph-name="dcaron" unicode="&#x10f;" horiz-adv-x="590" 
d="M488 123c0 -6.66699 0.333008 -11.668 1 -15.001l5 -93c2 -10 -1.33301 -15 -10 -15h-25c-8 0 -12.333 5.33301 -13 16l-8 92c-12.667 -38 -35 -67.667 -67 -89s-69.667 -32 -113 -32c-62 0 -110.167 22.333 -144.5 67s-51.5 108 -51.5 190
c0 88.667 20.167 160.834 60.5 216.501s99.5 83.5 177.5 83.5c55.333 0 101.333 -14.667 138 -44v249c0 6 1 9.83301 3 11.5s6 2.5 12 2.5h20c6 0 10 -0.833008 12 -2.5s3 -5.5 3 -11.5v-626zM267 32.999c100.667 0 157.667 75.667 171 227v190
c-33.333 32 -78.333 48 -135 48c-34 0 -63.833 -7.33301 -89.5 -22s-45.5 -34.5 -59.5 -59.5s-24.333 -51.833 -31 -80.5s-10 -59 -10 -91c0 -61.333 12.333 -112 37 -152s63.667 -60 117 -60zM584 583.999l-6.99902 168c-0.666992 5.33301 0.833008 8.83301 4.5 10.5
s11.5 2.5 23.5 2.5c11.333 0 18.666 -0.833008 21.999 -2.5s5 -5.16699 5 -10.5l-7 -168c0 -9.33301 -6.66699 -14 -20 -14s-20.333 4.66699 -21 14z" />
    <glyph glyph-name="Dcroat" unicode="&#x110;" horiz-adv-x="706" 
d="M115 364l-75 -0.000976562c-8 0 -12 7.33301 -12 22c0 13.333 3.66699 20 11 20h76v302c0 6 1 9.83301 3 11.5s5.66699 2.5 11 2.5h124c130.667 0 227.5 -30 290.5 -90s94.5 -150.667 94.5 -272s-31.333 -211.666 -94 -270.999s-159 -89 -289 -89h-126
c-5.33301 -0 -9 0.833008 -11 2.5s-3 5.5 -3 11.5v350zM318 363.999l-152.999 0.000976562v-319h89c115.333 0 199.666 25.167 252.999 75.5s80 130.166 80 239.499c0 110 -26.833 190.333 -80.5 241s-138.167 76 -253.5 76h-88v-271h153c7.33301 0 11 -6.66699 11 -20
c0 -14.667 -3.66699 -22 -11 -22z" />
    <glyph glyph-name="dcroat" unicode="&#x111;" horiz-adv-x="579" 
d="M318 681l120.001 -0.00195312v54c0 18.667 4.66699 28 14 28h22c5.33301 0.666992 9 -1.16602 11 -5.49902s3 -11.833 3 -22.5v-54h81c5.33301 0 8.66602 -1 9.99902 -3s2 -5.66699 2 -11v-19c0 -5.33301 -0.833008 -9 -2.5 -11s-5.16699 -3 -10.5 -3h-80v-511
c0 -6.66699 0.333008 -11.667 1 -15l5 -93c2 -10 -1.33301 -15 -10 -15h-25c-8 0 -12.333 5.33301 -13 16l-8 92c-12.667 -38 -35 -67.667 -67 -89s-69.667 -32 -113 -32c-62 0 -110.167 22.333 -144.5 67s-51.5 108 -51.5 190c0 88.667 20.167 160.834 60.5 216.501
s99.5 83.5 177.5 83.5c55.333 0 101.333 -14.667 138 -44v134h-120c-5.33301 0 -9 1 -11 3s-3 5.66699 -3 11v19c0 9.33301 4.66699 14 14 14zM267.001 32.998c100.667 0 157.667 75.667 171 227v190c-33.333 32 -78.333 48 -135 48c-34 0 -63.833 -7.33301 -89.5 -22
s-45.5 -34.5 -59.5 -59.5s-24.333 -51.833 -31 -80.5s-10 -59 -10 -91c0 -61.333 12.333 -112 37 -152s63.667 -60 117 -60z" />
    <glyph glyph-name="Emacron" unicode="&#x112;" horiz-adv-x="554" 
d="M124 0c-6 0 -10 0.833008 -12 2.5s-3 5.5 -3 11.5v694c0 6 1 9.83301 3 11.5s6 2.5 12 2.5h344c5.33301 0 9 -1 11 -3s3 -6 3 -12v-16c0 -5.33301 -1 -9 -3 -11s-5.66699 -3 -11 -3h-308v-281h262c6 0 9.83301 -1 11.5 -3s2.5 -5.66699 2.5 -11v-17
c0 -5.33301 -0.833008 -9 -2.5 -11s-5.5 -3 -11.5 -3h-262v-306h332c5.33301 0 8.83301 -1 10.5 -3s2.5 -5.66699 2.5 -11v-16c0 -6 -0.833008 -10 -2.5 -12s-5.16699 -3 -10.5 -3h-368zM415 804h-220c-8 0 -12 7.33301 -12 22c0 13.333 4 20 12 20h220
c7.33301 0 11 -6.33301 11 -19c0 -15.333 -3.66699 -23 -11 -23z" />
    <glyph glyph-name="emacron" unicode="&#x113;" 
d="M289 544c64 0 112.668 -14.667 146.001 -44s50 -71 50 -125s-17.167 -95.5 -51.5 -124.5s-85.5 -43.5 -153.5 -43.5c-62.667 0 -119 10.667 -169 32c2.66699 -72.667 20.167 -124.334 52.5 -155.001s80.166 -46 143.499 -46c49.333 0 94.666 8.33301 135.999 25
c24.667 10 37.334 15 38.001 15c4.66699 0 7 -2.33301 7 -7v-28c0 -6.66699 -6.66699 -13 -20 -19c-48 -21.333 -102 -32 -162 -32c-162.667 0 -244 89 -244 267c0 88.667 19.5 158.334 58.5 209.001s95.167 76 168.5 76zM289.001 498
c-54.667 0 -97.168 -18.5 -127.501 -55.5s-47.166 -90.167 -50.499 -159.5c52 -20.667 108 -31 168 -31c105.333 0 158 41.667 158 125c0 80.667 -49.333 121 -148 121zM405 633h-220c-8 0 -12 7.33301 -12 22c0 13.333 4 20 12 20h220c7.33301 0 11 -6.33301 11 -19
c0 -15.333 -3.66699 -23 -11 -23z" />
    <glyph glyph-name="Ebreve" unicode="&#x114;" horiz-adv-x="554" 
d="M124 0c-6 0 -10 0.833008 -12 2.5s-3 5.5 -3 11.5v694c0 6 1 9.83301 3 11.5s6 2.5 12 2.5h344c5.33301 0 9 -1 11 -3s3 -6 3 -12v-16c0 -5.33301 -1 -9 -3 -11s-5.66699 -3 -11 -3h-308v-281h262c6 0 9.83301 -1 11.5 -3s2.5 -5.66699 2.5 -11v-17
c0 -5.33301 -0.833008 -9 -2.5 -11s-5.5 -3 -11.5 -3h-262v-306h332c5.33301 0 8.83301 -1 10.5 -3s2.5 -5.66699 2.5 -11v-16c0 -6 -0.833008 -10 -2.5 -12s-5.16699 -3 -10.5 -3h-368zM300 827c48.667 0 73 18.333 73 55c0 6 3.33301 9 10 9h26c6 0 9 -3.33301 9 -10
c0 -30 -11 -53.667 -33 -71s-50.333 -26 -85 -26c-36.667 0 -65.167 8.66699 -85.5 26s-30.5 41.333 -30.5 72c0 6 3 9 9 9h27c6 0 9 -2.66699 9 -8c0 -37.333 23.667 -56 71 -56z" />
    <glyph glyph-name="ebreve" unicode="&#x115;" 
d="M289 544c64 0 112.668 -14.667 146.001 -44s50 -71 50 -125s-17.167 -95.5 -51.5 -124.5s-85.5 -43.5 -153.5 -43.5c-62.667 0 -119 10.667 -169 32c2.66699 -72.667 20.167 -124.334 52.5 -155.001s80.166 -46 143.499 -46c49.333 0 94.666 8.33301 135.999 25
c24.667 10 37.334 15 38.001 15c4.66699 0 7 -2.33301 7 -7v-28c0 -6.66699 -6.66699 -13 -20 -19c-48 -21.333 -102 -32 -162 -32c-162.667 0 -244 89 -244 267c0 88.667 19.5 158.334 58.5 209.001s95.167 76 168.5 76zM289.001 498
c-54.667 0 -97.168 -18.5 -127.501 -55.5s-47.166 -90.167 -50.499 -159.5c52 -20.667 108 -31 168 -31c105.333 0 158 41.667 158 125c0 80.667 -49.333 121 -148 121zM289 656c48.667 0 73 18.333 73 55c0 6 3.33301 9 10 9h26c6 0 9 -3.33301 9 -10
c0 -30 -11 -53.667 -33 -71s-50.333 -26 -85 -26c-36.667 0 -65.167 8.66699 -85.5 26s-30.5 41.333 -30.5 72c0 6 3 9 9 9h27c6 0 9 -2.66699 9 -8c0 -37.333 23.667 -56 71 -56z" />
    <glyph glyph-name="Edotaccent" unicode="&#x116;" horiz-adv-x="554" 
d="M124 0c-6 0 -10 0.833008 -12 2.5s-3 5.5 -3 11.5v694c0 6 1 9.83301 3 11.5s6 2.5 12 2.5h344c5.33301 0 9 -1 11 -3s3 -6 3 -12v-16c0 -5.33301 -1 -9 -3 -11s-5.66699 -3 -11 -3h-308v-281h262c6 0 9.83301 -1 11.5 -3s2.5 -5.66699 2.5 -11v-17
c0 -5.33301 -0.833008 -9 -2.5 -11s-5.5 -3 -11.5 -3h-262v-306h332c5.33301 0 8.83301 -1 10.5 -3s2.5 -5.66699 2.5 -11v-16c0 -6 -0.833008 -10 -2.5 -12s-5.16699 -3 -10.5 -3h-368zM257 842c0 14 4.5 25.667 13.5 35s19.833 14 32.5 14c12 0 22.333 -4 31 -12
s13 -19 13 -33c0 -13.333 -4.66699 -24.5 -14 -33.5s-20.333 -13.5 -33 -13.5s-23 4 -31 12s-12 18.333 -12 31z" />
    <glyph glyph-name="edotaccent" unicode="&#x117;" 
d="M289 544c64 0 112.668 -14.667 146.001 -44s50 -71 50 -125s-17.167 -95.5 -51.5 -124.5s-85.5 -43.5 -153.5 -43.5c-62.667 0 -119 10.667 -169 32c2.66699 -72.667 20.167 -124.334 52.5 -155.001s80.166 -46 143.499 -46c49.333 0 94.666 8.33301 135.999 25
c24.667 10 37.334 15 38.001 15c4.66699 0 7 -2.33301 7 -7v-28c0 -6.66699 -6.66699 -13 -20 -19c-48 -21.333 -102 -32 -162 -32c-162.667 0 -244 89 -244 267c0 88.667 19.5 158.334 58.5 209.001s95.167 76 168.5 76zM289.001 498
c-54.667 0 -97.168 -18.5 -127.501 -55.5s-47.166 -90.167 -50.499 -159.5c52 -20.667 108 -31 168 -31c105.333 0 158 41.667 158 125c0 80.667 -49.333 121 -148 121zM246 671c0 14 4.5 25.667 13.5 35s19.833 14 32.5 14c12 0 22.333 -4 31 -12s13 -19 13 -33
c0 -13.333 -4.66699 -24.5 -14 -33.5s-20.333 -13.5 -33 -13.5s-23 4 -31 12s-12 18.333 -12 31z" />
    <glyph glyph-name="Eogonek" unicode="&#x118;" horiz-adv-x="553" 
d="M123 0c-6 0 -10.001 0.832031 -12.001 2.49902s-3 5.5 -3 11.5v694c0 6 1 9.83301 3 11.5s6 2.5 12 2.5h344c6 0 9.83301 -1 11.5 -3s2.5 -6 2.5 -12v-16c0 -5.33301 -0.833008 -9 -2.5 -11s-5.5 -3 -11.5 -3h-308v-281h262c6 0 9.83301 -1 11.5 -3s2.5 -5.66699 2.5 -11
v-17c0 -5.33301 -0.833008 -9 -2.5 -11s-5.5 -3 -11.5 -3h-262v-306h332c5.33301 0 8.83301 -1 10.5 -3s2.5 -5.66699 2.5 -11v-16c0 -4 -0.666992 -7.33301 -2 -10c-1.33301 -3.33301 -4.33301 -5 -9 -5c-56 -27.333 -84 -62.333 -84 -105
c0 -17.333 4.5 -28.666 13.5 -33.999s21.833 -8 38.5 -8c18.667 0 35 3.33301 49 10c14 7.33301 22.333 7 25 -1l2 -14c2.66699 -8.66699 -0.333008 -15.667 -9 -21c-19.333 -11.333 -42.666 -17 -69.999 -17c-28.667 0 -51.667 6.83301 -69 20.5s-26 33.834 -26 60.501
c0 43.333 25.333 79.666 76 108.999h-316z" />
    <glyph glyph-name="eogonek" unicode="&#x119;" 
d="M289 544c64 0 112.667 -14.668 146 -44.001s50 -71 50 -125s-17.167 -95.5 -51.5 -124.5s-85.5 -43.5 -153.5 -43.5c-62.667 0 -119 10.667 -169 32c2.66699 -72.667 20.167 -124.334 52.5 -155.001s80.166 -46 143.499 -46c49.333 0 94.666 8.33301 135.999 25
c24.667 10 37.334 15 38.001 15c4.66699 0 7 -2.33301 7 -7v-28c0 -6.66699 -6.66699 -13 -20 -19c-44.667 -20.667 -96.667 -31.334 -156 -32.001c-34 -24 -51 -52.667 -51 -86c0 -17.333 4.5 -28.666 13.5 -33.999s21.833 -8 38.5 -8c18.667 0 35 3.33301 49 10
c14 7.33301 22.333 7 25 -1l2 -14c2.66699 -8.66699 -0.333008 -15.667 -9 -21c-19.333 -11.333 -42.666 -17 -69.999 -17c-28.667 0 -51.667 6.83301 -69 20.5s-26 33.834 -26 60.501c0 36 17 66.667 51 92c-136 14 -204 102.333 -204 265
c0 88.667 19.5 158.334 58.5 209.001s95.167 76 168.5 76zM289 497.999c-54.667 0 -97.168 -18.5 -127.501 -55.5s-47.166 -90.167 -50.499 -159.5c52 -20.667 108 -31 168 -31c105.333 0 158 41.667 158 125c0 80.667 -49.333 121 -148 121z" />
    <glyph glyph-name="Ecaron" unicode="&#x11a;" horiz-adv-x="554" 
d="M124 0c-6 0 -10 0.833008 -12 2.5s-3 5.5 -3 11.5v694c0 6 1 9.83301 3 11.5s6 2.5 12 2.5h344c5.33301 0 9 -1 11 -3s3 -6 3 -12v-16c0 -5.33301 -1 -9 -3 -11s-5.66699 -3 -11 -3h-308v-281h262c6 0 9.83301 -1 11.5 -3s2.5 -5.66699 2.5 -11v-17
c0 -5.33301 -0.833008 -9 -2.5 -11s-5.5 -3 -11.5 -3h-262v-306h332c5.33301 0 8.83301 -1 10.5 -3s2.5 -5.66699 2.5 -11v-16c0 -6 -0.833008 -10 -2.5 -12s-5.16699 -3 -10.5 -3h-368zM220 915l81.001 -79l78 79c9.33301 8.66699 17.666 13 24.999 13h27
c4.66699 0 7.16699 -1.83301 7.5 -5.5s-1.5 -7.16699 -5.5 -10.5l-103 -103c-8.66699 -9.33301 -18.667 -14 -30 -14s-21.333 4.66699 -30 14l-104 103c-3.33301 3.33301 -4.83301 6.83301 -4.5 10.5s2.83301 5.5 7.5 5.5h26c8 0 16.333 -4.33301 25 -13z" />
    <glyph glyph-name="ecaron" unicode="&#x11b;" 
d="M289 544c64 0 112.668 -14.667 146.001 -44s50 -71 50 -125s-17.167 -95.5 -51.5 -124.5s-85.5 -43.5 -153.5 -43.5c-62.667 0 -119 10.667 -169 32c2.66699 -72.667 20.167 -124.334 52.5 -155.001s80.166 -46 143.499 -46c49.333 0 94.666 8.33301 135.999 25
c24.667 10 37.334 15 38.001 15c4.66699 0 7 -2.33301 7 -7v-28c0 -6.66699 -6.66699 -13 -20 -19c-48 -21.333 -102 -32 -162 -32c-162.667 0 -244 89 -244 267c0 88.667 19.5 158.334 58.5 209.001s95.167 76 168.5 76zM289.001 498
c-54.667 0 -97.168 -18.5 -127.501 -55.5s-47.166 -90.167 -50.499 -159.5c52 -20.667 108 -31 168 -31c105.333 0 158 41.667 158 125c0 80.667 -49.333 121 -148 121zM209 744l81.001 -79l78 79c9.33301 8.66699 17.666 13 24.999 13h27
c4.66699 0 7.16699 -1.83301 7.5 -5.5s-1.5 -7.16699 -5.5 -10.5l-103 -103c-8.66699 -9.33301 -18.667 -14 -30 -14s-21.333 4.66699 -30 14l-104 103c-3.33301 3.33301 -4.83301 6.83301 -4.5 10.5s2.83301 5.5 7.5 5.5h26c8 0 16.333 -4.33301 25 -13z" />
    <glyph glyph-name="Gcircumflex" unicode="&#x11c;" horiz-adv-x="723" 
d="M427 310v25.001c0 7.33301 3.66699 11 11 11h189c10 0 15 -4.66699 15 -14v-281c0 -10 -4.33301 -17 -13 -21c-18.667 -9.33301 -48 -18.833 -88 -28.5s-83 -14.5 -129 -14.5c-104.667 0 -188.5 30.5 -251.5 91.5s-94.5 152.167 -94.5 273.5c0 116 30 208.167 90 276.5
s145.667 102.5 257 102.5c48.667 0 93.334 -5.83301 134.001 -17.5s68.667 -23.5 84 -35.5c6 -4.66699 9 -11 9 -19v-19c0 -12 -6.66699 -14.333 -20 -7c-60 34.667 -127.667 52 -203 52c-100.667 0 -175.834 -30.833 -225.501 -92.5s-74.5 -141.834 -74.5 -240.501
c0 -102 26 -180.667 78 -236s124.667 -83 218 -83c60 0 120 11 180 33v233h-155c-7.33301 0 -11 3.66699 -11 11zM483 802.001l-80.002 79l-81 -79c-8.66699 -8.66699 -17 -13 -25 -13h-23c-4 0 -6.66699 0.833008 -8 2.5s-1.16602 4 0.500977 7s4.16699 6.16699 7.5 9.5
l98 100c8.66699 9.33301 18.667 14 30 14c10.667 0 21 -5 31 -15l99 -99c5.33301 -5.33301 7.83301 -9.83301 7.5 -13.5s-3.16602 -5.5 -8.49902 -5.5h-23c-8 0 -16.333 4.33301 -25 13z" />
    <glyph glyph-name="gcircumflex" unicode="&#x11d;" horiz-adv-x="577" 
d="M251 -203c61.333 0 107.831 15.168 139.498 45.501s47.5 78.833 47.5 145.5v121c-12 -37.333 -34.167 -67 -66.5 -89s-70.166 -33 -113.499 -33c-62 0 -110.167 22.333 -144.5 67s-51.5 108 -51.5 190c0 79.333 16.333 145.5 49 198.5s80 85.167 142 96.5
c18.667 3.33301 35.667 5 51 5c54.667 -0.666992 99.334 -15.334 134.001 -44.001v19c0 8.66699 5 13 15 13h21c5.33301 0 9 -0.833008 11 -2.5s3 -5.5 3 -11.5v-529c0 -159.333 -79.667 -239 -239 -239c-54 0 -105 8 -153 24c-8 2 -12 7 -12 15v26
c0 7.33301 3.66699 9.33301 11 6c51.333 -16 103.333 -24 156 -24zM266.998 33.001c100.667 0 157.666 75.667 170.999 227v190c-33.333 32 -78.333 48 -135 48c-34 0 -63.667 -7.33301 -89 -22s-45.166 -34.5 -59.499 -59.5s-24.833 -51.833 -31.5 -80.5s-10 -59 -10 -91
c0 -61.333 12.333 -112 37 -152s63.667 -60 117 -60zM378.997 632.001l-80.002 79l-81 -79c-8.66699 -8.66699 -17 -13 -25 -13h-23c-4 0 -6.66699 0.833008 -8 2.5s-1.16602 4 0.500977 7s4.16699 6.16699 7.5 9.5l98 100c8.66699 9.33301 18.667 14 30 14
c10.667 0 21 -5 31 -15l99 -99c5.33301 -5.33301 7.83301 -9.83301 7.5 -13.5s-3.16602 -5.5 -8.49902 -5.5h-23c-8 0 -16.333 4.33301 -25 13z" />
    <glyph glyph-name="Gbreve" unicode="&#x11e;" horiz-adv-x="723" 
d="M427 310v25.001c0 7.33301 3.66699 11 11 11h189c10 0 15 -4.66699 15 -14v-281c0 -10 -4.33301 -17 -13 -21c-18.667 -9.33301 -48 -18.833 -88 -28.5s-83 -14.5 -129 -14.5c-104.667 0 -188.5 30.5 -251.5 91.5s-94.5 152.167 -94.5 273.5c0 116 30 208.167 90 276.5
s145.667 102.5 257 102.5c48.667 0 93.334 -5.83301 134.001 -17.5s68.667 -23.5 84 -35.5c6 -4.66699 9 -11 9 -19v-19c0 -12 -6.66699 -14.333 -20 -7c-60 34.667 -127.667 52 -203 52c-100.667 0 -175.834 -30.833 -225.501 -92.5s-74.5 -141.834 -74.5 -240.501
c0 -102 26 -180.667 78 -236s124.667 -83 218 -83c60 0 120 11 180 33v233h-155c-7.33301 0 -11 3.66699 -11 11zM402 827.001c48.667 0 73 18.333 73 55c0 6 3.33301 9 10 9h26c6 0 9 -3.33301 9 -10c0 -30 -11 -53.667 -33 -71s-50.333 -26 -85 -26
c-36.667 0 -65.167 8.66699 -85.5 26s-30.5 41.333 -30.5 72c0 6 3 9 9 9h27c6 0 9 -2.66699 9 -8c0 -37.333 23.667 -56 71 -56z" />
    <glyph glyph-name="gbreve" unicode="&#x11f;" horiz-adv-x="577" 
d="M251 -203c61.333 0 107.831 15.168 139.498 45.501s47.5 78.833 47.5 145.5v121c-12 -37.333 -34.167 -67 -66.5 -89s-70.166 -33 -113.499 -33c-62 0 -110.167 22.333 -144.5 67s-51.5 108 -51.5 190c0 79.333 16.333 145.5 49 198.5s80 85.167 142 96.5
c18.667 3.33301 35.667 5 51 5c54.667 -0.666992 99.334 -15.334 134.001 -44.001v19c0 8.66699 5 13 15 13h21c5.33301 0 9 -0.833008 11 -2.5s3 -5.5 3 -11.5v-529c0 -159.333 -79.667 -239 -239 -239c-54 0 -105 8 -153 24c-8 2 -12 7 -12 15v26
c0 7.33301 3.66699 9.33301 11 6c51.333 -16 103.333 -24 156 -24zM266.998 33.001c100.667 0 157.666 75.667 170.999 227v190c-33.333 32 -78.333 48 -135 48c-34 0 -63.667 -7.33301 -89 -22s-45.166 -34.5 -59.499 -59.5s-24.833 -51.833 -31.5 -80.5s-10 -59 -10 -91
c0 -61.333 12.333 -112 37 -152s63.667 -60 117 -60zM297.997 657.001c48.667 0 73 18.333 73 55c0 6 3.33301 9 10 9h26c6 0 9 -3.33301 9 -10c0 -30 -11 -53.667 -33 -71s-50.333 -26 -85 -26c-36.667 0 -65.167 8.66699 -85.5 26s-30.5 41.333 -30.5 72c0 6 3 9 9 9h27
c6 0 9 -2.66699 9 -8c0 -37.333 23.667 -56 71 -56z" />
    <glyph glyph-name="Gdotaccent" unicode="&#x120;" horiz-adv-x="723" 
d="M358 844c0 12 3.83301 22.167 11.5 30.5s16.834 12.5 27.501 12.5c10 0 18.667 -3.5 26 -10.5s11 -16.5 11 -28.5s-3.83301 -21.833 -11.5 -29.5s-17.167 -11.5 -28.5 -11.5c-10.667 0 -19.334 3.33301 -26.001 10s-10 15.667 -10 27zM427 310v25.001
c0 7.33301 3.66699 11 11 11h189c10 0 15 -4.66699 15 -14v-281c0 -10 -4.33301 -17 -13 -21c-18.667 -9.33301 -48 -18.833 -88 -28.5s-83 -14.5 -129 -14.5c-104.667 0 -188.5 30.5 -251.5 91.5s-94.5 152.167 -94.5 273.5c0 116 30 208.167 90 276.5
s145.667 102.5 257 102.5c48.667 0 93.334 -5.83301 134.001 -17.5s68.667 -23.5 84 -35.5c6 -4.66699 9 -11 9 -19v-19c0 -12 -6.66699 -14.333 -20 -7c-60 34.667 -127.667 52 -203 52c-100.667 0 -175.834 -30.833 -225.501 -92.5s-74.5 -141.834 -74.5 -240.501
c0 -102 26 -180.667 78 -236s124.667 -83 218 -83c60 0 120 11 180 33v233h-155c-7.33301 0 -11 3.66699 -11 11z" />
    <glyph glyph-name="gdotaccent" unicode="&#x121;" horiz-adv-x="577" 
d="M251 -203c61.333 0 107.831 15.168 139.498 45.501s47.5 78.833 47.5 145.5v121c-12 -37.333 -34.167 -67 -66.5 -89s-70.166 -33 -113.499 -33c-62 0 -110.167 22.333 -144.5 67s-51.5 108 -51.5 190c0 79.333 16.333 145.5 49 198.5s80 85.167 142 96.5
c18.667 3.33301 35.667 5 51 5c54.667 -0.666992 99.334 -15.334 134.001 -44.001v19c0 8.66699 5 13 15 13h21c5.33301 0 9 -0.833008 11 -2.5s3 -5.5 3 -11.5v-529c0 -159.333 -79.667 -239 -239 -239c-54 0 -105 8 -153 24c-8 2 -12 7 -12 15v26
c0 7.33301 3.66699 9.33301 11 6c51.333 -16 103.333 -24 156 -24zM266.998 33.001c100.667 0 157.666 75.667 170.999 227v190c-33.333 32 -78.333 48 -135 48c-34 0 -63.667 -7.33301 -89 -22s-45.166 -34.5 -59.499 -59.5s-24.833 -51.833 -31.5 -80.5s-10 -59 -10 -91
c0 -61.333 12.333 -112 37 -152s63.667 -60 117 -60zM254.997 671.001c0 14 4.5 25.667 13.5 35s19.833 14 32.5 14c12 0 22.333 -4 31 -12s13 -19 13 -33c0 -13.333 -4.66699 -24.5 -14 -33.5s-20.333 -13.5 -33 -13.5s-23 4 -31 12s-12 18.333 -12 31z" />
    <glyph glyph-name="Gcommaaccent" unicode="&#x122;" horiz-adv-x="723" 
d="M427 310v25.001c0 7.33301 3.66699 11 11 11h189c10 0 15 -4.66699 15 -14v-281c0 -10 -4.33301 -17 -13 -21c-18.667 -9.33301 -48 -18.833 -88 -28.5s-83 -14.5 -129 -14.5c-104.667 0 -188.5 30.5 -251.5 91.5s-94.5 152.167 -94.5 273.5c0 116 30 208.167 90 276.5
s145.667 102.5 257 102.5c48.667 0 93.334 -5.83301 134.001 -17.5s68.667 -23.5 84 -35.5c6 -4.66699 9 -11 9 -19v-19c0 -12 -6.66699 -14.333 -20 -7c-60 34.667 -127.667 52 -203 52c-100.667 0 -175.834 -30.833 -225.501 -92.5s-74.5 -141.834 -74.5 -240.501
c0 -102 26 -180.667 78 -236s124.667 -83 218 -83c60 0 120 11 180 33v233h-155c-7.33301 0 -11 3.66699 -11 11zM331 -135.999c0 14 4.33301 25.335 13 34.002s19 13 31 13s22 -4.16699 30 -12.5s12 -20.166 12 -35.499c0 -44.667 -27.667 -90.334 -83 -137.001
c-6.66699 -6 -12 -6.66699 -16 -2l-6 7c-4 5.33301 -2.66699 10.666 4 15.999c28.667 21.333 46.667 46.666 54 75.999c-26 1.33301 -39 15 -39 41z" />
    <glyph glyph-name="gcommaaccent" unicode="&#x123;" horiz-adv-x="577" 
d="M251 -203c61.333 0 107.831 15.168 139.498 45.501s47.5 78.833 47.5 145.5v121c-12 -37.333 -34.167 -67 -66.5 -89s-70.166 -33 -113.499 -33c-62 0 -110.167 22.333 -144.5 67s-51.5 108 -51.5 190c0 79.333 16.333 145.5 49 198.5s80 85.167 142 96.5
c18.667 3.33301 35.667 5 51 5c54.667 -0.666992 99.334 -15.334 134.001 -44.001v19c0 8.66699 5 13 15 13h21c5.33301 0 9 -0.833008 11 -2.5s3 -5.5 3 -11.5v-529c0 -159.333 -79.667 -239 -239 -239c-54 0 -105 8 -153 24c-8 2 -12 7 -12 15v26
c0 7.33301 3.66699 9.33301 11 6c51.333 -16 103.333 -24 156 -24zM266.998 33.001c100.667 0 157.666 75.667 170.999 227v190c-33.333 32 -78.333 48 -135 48c-34 0 -63.667 -7.33301 -89 -22s-45.166 -34.5 -59.499 -59.5s-24.833 -51.833 -31.5 -80.5s-10 -59 -10 -91
c0 -61.333 12.333 -112 37 -152s63.667 -60 117 -60zM342.997 670.001c0 -13.333 -3.83203 -24.166 -11.499 -32.499s-17.5 -12.5 -29.5 -12.5c-11.333 0 -20.833 4.16699 -28.5 12.5s-11.5 19.833 -11.5 34.5c0 43.333 27 88.333 81 135c7.33301 6 13 6.66699 17 2l5 -6
c2.66699 -4.66699 1 -9.66699 -5 -15c-30.667 -28.667 -48.334 -54.334 -53.001 -77.001c24 -1.33301 36 -15 36 -41z" />
    <glyph glyph-name="Hcircumflex" unicode="&#x124;" horiz-adv-x="685" 
d="M526 338h-366v-324c0 -6 -1 -9.83301 -3 -11.5s-6 -2.5 -12 -2.5h-21c-6 -0 -10 0.833008 -12 2.5s-3 5.5 -3 11.5v694c0 6 1 9.83301 3 11.5s6 2.5 12 2.5h21c6 0 10 -0.833008 12 -2.5s3 -5.5 3 -11.5v-325h366v325c0 6 1 9.83301 3 11.5s5.66699 2.5 11 2.5h21
c6 0 10 -0.833008 12 -2.5s3 -5.5 3 -11.5v-694c0 -6 -1 -9.83301 -3 -11.5s-6 -2.5 -12 -2.5h-21c-5.33301 -0 -9 0.833008 -11 2.5s-3 5.5 -3 11.5v324zM426 802l-80.002 79l-81 -79c-8.66699 -8.66699 -17 -13 -25 -13h-23c-4 0 -6.66699 0.833008 -8 2.5
s-1.16602 4 0.500977 7s4.16699 6.16699 7.5 9.5l98 100c8.66699 9.33301 18.667 14 30 14c10.667 0 21 -5 31 -15l99 -99c5.33301 -5.33301 7.83301 -9.83301 7.5 -13.5s-3.16602 -5.5 -8.49902 -5.5h-23c-8 0 -16.333 4.33301 -25 13z" />
    <glyph glyph-name="hcircumflex" unicode="&#x125;" horiz-adv-x="559" 
d="M89 749c0 6 1.00098 9.83398 3.00098 11.501s5.66699 2.5 11 2.5h21c5.33301 0 9 -0.833008 11 -2.5s3 -5.5 3 -11.5v-312c14.667 36 37.167 62.833 67.5 80.5s64.166 26.5 101.499 26.5c50.667 0 91.167 -16 121.5 -48s45.5 -77.667 45.5 -137v-345
c0 -6 -1 -9.83301 -3 -11.5s-5.66699 -2.5 -11 -2.5h-21c-5.33301 0 -9 0.833008 -11 2.5s-3 5.5 -3 11.5v333c0 100.667 -42.667 151 -128 151c-48.667 0 -87 -18.333 -115 -55s-42.667 -88.334 -44 -155.001v-274c0 -6 -1 -9.83301 -3 -11.5s-5.66699 -2.5 -11 -2.5h-21
c-5.33301 -0 -9 0.833008 -11 2.5s-3 5.5 -3 11.5v735zM407.001 633.001l-80.002 79l-81 -79c-8.66699 -8.66699 -17 -13 -25 -13h-23c-4 0 -6.66699 0.833008 -8 2.5s-1.16602 4 0.500977 7s4.16699 6.16699 7.5 9.5l98 100c8.66699 9.33301 18.667 14 30 14
c10.667 0 21 -5 31 -15l99 -99c5.33301 -4.66699 7.83301 -9 7.5 -13s-3.16602 -6 -8.49902 -6h-23c-8 0 -16.333 4.33301 -25 13z" />
    <glyph glyph-name="Hbar" unicode="&#x126;" horiz-adv-x="693" 
d="M114 527h-73c-8 0 -12 7.33301 -12 22c0 13.333 3.66699 20 11 20h74v139c0 6 1 9.83301 3 11.5s5.66699 2.5 11 2.5h22c5.33301 0 9 -0.833008 11 -2.5s3 -5.5 3 -11.5v-139h366v139c0 6 1 9.83301 3 11.5s6 2.5 12 2.5h21c5.33301 0 9 -0.833008 11 -2.5
s3 -5.5 3 -11.5v-139h72c8 0 12 -6.66699 12 -20c0 -15.333 -3.66699 -23 -11 -23h-73v-512c0 -6 -1 -9.83301 -3 -11.5s-5.66699 -2.5 -11 -2.5h-21c-6 -0 -10 0.833008 -12 2.5s-3 5.5 -3 11.5v324h-366v-324c0 -6 -1 -9.83301 -3 -11.5s-5.66699 -2.5 -11 -2.5h-22
c-5.33301 -0 -9 0.833008 -11 2.5s-3 5.5 -3 11.5v513zM164 527v-144h366v143z" />
    <glyph glyph-name="hbar" unicode="&#x127;" horiz-adv-x="560" 
d="M244 603l-104.999 0.000976562v-166c14.667 36 37.167 62.833 67.5 80.5s64.166 26.5 101.499 26.5c50.667 0 91.167 -16 121.5 -48s45.5 -77.667 45.5 -137v-345c0 -6 -1 -9.83301 -3 -11.5s-5.66699 -2.5 -11 -2.5h-21c-5.33301 0 -9 0.833008 -11 2.5s-3 5.5 -3 11.5
v333c0 100.667 -42.667 151 -128 151c-48.667 0 -87 -18.333 -115 -55s-42.667 -88.334 -44 -155.001v-274c0 -6 -1 -9.83301 -3 -11.5s-5.66699 -2.5 -11 -2.5h-21c-5.33301 -0 -9 0.833008 -11 2.5s-3 5.5 -3 11.5v589h-66c-8 0 -12 7.33301 -12 22c0 13.333 4 20 12 20
h66v104c0 6 1 9.83301 3 11.5s5.66699 2.5 11 2.5h21c5.33301 0 9 -0.833008 11 -2.5s3 -5.5 3 -11.5v-104h105c7.33301 0 11 -6.33301 11 -19c0 -15.333 -3.66699 -23 -11 -23z" />
    <glyph glyph-name="Itilde" unicode="&#x128;" horiz-adv-x="269" 
d="M160 14c0 -6 -1 -9.83301 -3 -11.5s-6 -2.5 -12 -2.5h-21c-6 -0 -10 0.833008 -12 2.5s-3 5.5 -3 11.5v694c0 6 1 9.83301 3 11.5s6 2.5 12 2.5h21c6 0 10 -0.833008 12 -2.5s3 -5.5 3 -11.5v-694zM181 838c9.33301 0 17.165 3.16602 23.498 9.49902s9.5 15.5 9.5 27.5
c0 4.66699 2.66699 7 8 7h21c4.66699 0 7 -2.66699 7 -8c0 -24 -6.16699 -42.333 -18.5 -55s-29.166 -19 -50.499 -19c-30 0 -49.667 9.33301 -59 28c0 0.666992 -0.666992 2.16699 -2 4.5s-2.33301 3.83301 -3 4.5s-1.83398 2 -3.50098 4s-3.16699 3.33301 -4.5 4
s-3.16602 1.33398 -5.49902 2.00098s-5.16602 1 -8.49902 1c-20.667 0 -31.667 -12.333 -33 -37c0 -4.66699 -2.66699 -7 -8 -7h-20c-3.33301 0 -5.5 0.333008 -6.5 1s-1.5 3 -1.5 7c0 22.667 6.5 40.667 19.5 54s29.167 20 48.5 20c26.667 0 46 -10.667 58 -32
c6 -10.667 15.667 -16 29 -16z" />
    <glyph glyph-name="itilde" unicode="&#x129;" horiz-adv-x="229" 
d="M139 518v-504c0 -6 -1 -9.83301 -3 -11.5s-5.66699 -2.5 -11 -2.5h-21c-5.33301 -0 -9 0.833008 -11 2.5s-3 5.5 -3 11.5v504c0 9.33301 4.66699 14 14 14h21c9.33301 0 14 -4.66699 14 -14zM159 668c9.33301 0 17.165 3.16602 23.498 9.49902s9.5 15.5 9.5 27.5
c0 4.66699 2.66699 7 8 7h21c4.66699 0 7 -2.66699 7 -8c0 -24 -6.16699 -42.333 -18.5 -55s-29.166 -19 -50.499 -19c-30 0 -49.667 9.33301 -59 28c0 0.666992 -0.666992 2.16699 -2 4.5s-2.33301 3.83301 -3 4.5s-1.83398 2 -3.50098 4s-3.16699 3.33301 -4.5 4
s-3.16602 1.33398 -5.49902 2.00098s-5.16602 1 -8.49902 1c-20.667 0 -31.667 -12.333 -33 -37c0 -4.66699 -2.66699 -7 -8 -7h-20c-3.33301 0 -5.5 0.333008 -6.5 1s-1.5 3 -1.5 7c0 22.667 6.5 40.667 19.5 54s29.167 20 48.5 20c26.667 0 46 -10.667 58 -32
c6 -10.667 15.667 -16 29 -16z" />
    <glyph glyph-name="Imacron" unicode="&#x12a;" horiz-adv-x="270" 
d="M160 14c0 -6 -1 -9.83301 -3 -11.5s-6 -2.5 -12 -2.5h-21c-6 -0 -10 0.833008 -12 2.5s-3 5.5 -3 11.5v694c0 6 1 9.83301 3 11.5s6 2.5 12 2.5h21c6 0 10 -0.833008 12 -2.5s3 -5.5 3 -11.5v-694zM251 804h-220c-8 0 -12 7.33301 -12 22c0 13.333 4 20 12 20h220
c7.33301 0 11 -6.33301 11 -19c0 -15.333 -3.66699 -23 -11 -23z" />
    <glyph glyph-name="imacron" unicode="&#x12b;" horiz-adv-x="229" 
d="M139 518v-504c0 -6 -1 -9.83301 -3 -11.5s-5.66699 -2.5 -11 -2.5h-21c-5.33301 -0 -9 0.833008 -11 2.5s-3 5.5 -3 11.5v504c0 9.33301 4.66699 14 14 14h21c9.33301 0 14 -4.66699 14 -14zM229 633h-220c-8 0 -12 7.33301 -12 22c0 13.333 4 20 12 20h220
c7.33301 0 11 -6.33301 11 -19c0 -15.333 -3.66699 -23 -11 -23z" />
    <glyph glyph-name="Ibreve" unicode="&#x12c;" horiz-adv-x="270" 
d="M160 14c0 -6 -1 -9.83301 -3 -11.5s-6 -2.5 -12 -2.5h-21c-6 -0 -10 0.833008 -12 2.5s-3 5.5 -3 11.5v694c0 6 1 9.83301 3 11.5s6 2.5 12 2.5h21c6 0 10 -0.833008 12 -2.5s3 -5.5 3 -11.5v-694zM136 827c48.667 0 73 18.333 73 55c0 6 3.33301 9 10 9h26
c6 0 9 -3.33301 9 -10c0 -30 -11 -53.667 -33 -71s-50.333 -26 -85 -26c-36.667 0 -65.167 8.66699 -85.5 26s-30.5 41.333 -30.5 72c0 6 3 9 9 9h27c6 0 9 -2.66699 9 -8c0 -37.333 23.667 -56 71 -56z" />
    <glyph glyph-name="ibreve" unicode="&#x12d;" horiz-adv-x="229" 
d="M139 518v-504c0 -6 -1 -9.83301 -3 -11.5s-5.66699 -2.5 -11 -2.5h-21c-5.33301 -0 -9 0.833008 -11 2.5s-3 5.5 -3 11.5v504c0 9.33301 4.66699 14 14 14h21c9.33301 0 14 -4.66699 14 -14zM114 657c48.667 0 73 18.333 73 55c0 6 3.33301 9 10 9h26
c6 0 9 -3.33301 9 -10c0 -30 -11 -53.667 -33 -71s-50.333 -26 -85 -26c-36.667 0 -65.167 8.66699 -85.5 26s-30.5 41.333 -30.5 72c0 6 3 9 9 9h27c6 0 9 -2.66699 9 -8c0 -37.333 23.667 -56 71 -56z" />
    <glyph glyph-name="Iogonek" unicode="&#x12e;" horiz-adv-x="269" 
d="M109 708c0 6 0.999023 9.83203 2.99902 11.499s6 2.5 12 2.5h21c6 0 10 -0.833008 12 -2.5s3 -5.5 3 -11.5v-694c0 -6 -1 -9.83301 -3 -11.5s-5.66699 -2.5 -11 -2.5c-42.667 -26 -64 -57.333 -64 -94c0 -17.333 4.5 -28.666 13.5 -33.999s21.833 -8 38.5 -8
c18.667 0 35 3.66699 49 11c14 6.66699 22.333 6 25 -2l2 -14c3.33301 -8.66699 0.333008 -15.334 -9 -20.001c-19.333 -11.333 -42.666 -17 -69.999 -17c-28.667 0 -51.667 6.66699 -69 20s-26 33.333 -26 60c0 42.667 24.333 78.334 73 107.001v699z" />
    <glyph glyph-name="iogonek" unicode="&#x12f;" horiz-adv-x="229" 
d="M139 14c0 -6 -0.833984 -9.83691 -2.50098 -11.5039s-5.16699 -2.5 -10.5 -2.5c-44.667 -26.667 -67 -60 -67 -100c0 -17.333 4.5 -28.666 13.5 -33.999s21.833 -8 38.5 -8c18.667 0 35 3.33301 49 10s22.333 6.33398 25 -0.999023l2 -14
c2.66699 -8.66699 -0.333008 -15.667 -9 -21c-19.333 -11.333 -42.666 -17 -69.999 -17c-28.667 0 -51.667 6.83301 -69 20.5s-26 33.834 -26 60.501c0 44.667 25.667 81.334 77 110.001v513c0 6 1 9.83301 3 11.5s5.66699 2.5 11 2.5h21c5.33301 0 9 -0.833008 11 -2.5
s3 -5.5 3 -11.5v-505zM65.999 708.996c0 12.667 3.5 22.834 10.5 30.501s16.167 11.5 27.5 11.5c9.33301 0 17.333 -3.66699 24 -11s10 -16.333 10 -27c0 -12.667 -3.5 -22.334 -10.5 -29.001s-16.167 -10 -27.5 -10c-10 0 -18.167 3.16699 -24.5 9.5s-9.5 14.833 -9.5 25.5
z" />
    <glyph glyph-name="Idotaccent" unicode="&#x130;" horiz-adv-x="269" 
d="M109 708c0 6 1 9.83301 3 11.5s6 2.5 12 2.5h21c6 0 10 -0.833008 12 -2.5s3 -5.5 3 -11.5v-694c0 -6 -1 -9.83301 -3 -11.5s-6 -2.5 -12 -2.5h-21c-6 -0 -10 0.833008 -12 2.5s-3 5.5 -3 11.5v694zM92 845c0 12 3.83301 21.999 11.5 29.999s17.167 12 28.5 12
c10 0 18.667 -3.66699 26 -11s11 -16.666 11 -27.999c0 -12 -4 -21.667 -12 -29s-17.667 -11 -29 -11c-10 0 -18.5 3.33301 -25.5 10s-10.5 15.667 -10.5 27z" />
    <glyph glyph-name="dotlessi" unicode="&#x131;" horiz-adv-x="227" 
d="M138 518v-504c0 -6 -1 -9.83301 -3 -11.5s-5.66699 -2.5 -11 -2.5h-21c-5.33301 -0 -9 0.833008 -11 2.5s-3 5.5 -3 11.5v504c0 9.33301 4.66699 14 14 14h21c9.33301 0 14 -4.66699 14 -14z" />
    <glyph glyph-name="IJ" unicode="&#x132;" horiz-adv-x="765" 
d="M333 22l-0.00195312 21c0 6 0.833008 9.66699 2.5 11s4.83398 1.33301 9.50098 0c40.667 -11.333 83.334 -17 128.001 -17c92 0 138 55 138 165v506c0 6 1 9.83301 3 11.5s6 2.5 12 2.5h21c5.33301 0 9 -0.833008 11 -2.5s3 -5.5 3 -11.5v-510
c0 -138 -61.333 -207 -184 -207c-53.333 0 -98 5 -134 15c-6.66699 2 -10 7.33301 -10 16zM158.998 14c0 -6 -1 -9.83301 -3 -11.5s-6 -2.5 -12 -2.5h-21c-6 -0 -10 0.833008 -12 2.5s-3 5.5 -3 11.5v694c0 6 1 9.83301 3 11.5s6 2.5 12 2.5h21c6 0 10 -0.833008 12 -2.5
s3 -5.5 3 -11.5v-694z" />
    <glyph glyph-name="ij" unicode="&#x133;" horiz-adv-x="497" 
d="M228 -226v23c0 8 4.33301 10.667 13 8c22.667 -6 41.667 -9 57 -9c40.667 0 61 31 61 93v633c0 5.33301 1 9 3 11s6 3 12 3h20c10 0 15 -4.66699 15 -14v-640c0 -88 -36.333 -132 -109 -132c-30 0 -51 3.66699 -63 11c-6 2.66699 -9 7 -9 13zM88 519
c0 6 1 9.83301 3 11.5s5.66699 2.5 11 2.5h21c5.33301 0 9 -0.833008 11 -2.5s3 -5.5 3 -11.5v-505c0 -6 -1 -9.83301 -3 -11.5s-5.66699 -2.5 -11 -2.5h-21c-5.33301 -0 -9 0.833008 -11 2.5s-3 5.5 -3 11.5v505zM64 709c0 12.667 3.5 22.834 10.5 30.501
s16.167 11.5 27.5 11.5c9.33301 0 17.333 -3.66699 24 -11s10 -16.333 10 -27c0 -12.667 -3.5 -22.334 -10.5 -29.001s-16.167 -10 -27.5 -10c-9.33301 0 -17.333 3.16699 -24 9.5s-10 14.833 -10 25.5zM344 711c0 12.667 3.33105 22.667 9.99805 30s15.667 11 27 11
c10 0 18.333 -3.5 25 -10.5s10 -16.167 10 -27.5c0 -12 -3.66699 -21.333 -11 -28s-16.666 -10 -27.999 -10c-9.33301 0 -17.166 3.16699 -23.499 9.5s-9.5 14.833 -9.5 25.5z" />
    <glyph glyph-name="Jcircumflex" unicode="&#x134;" horiz-adv-x="463" 
d="M31 22l-0.000976562 21c0 6 0.833008 9.66699 2.5 11s4.83398 1.33301 9.50098 0c40.667 -11.333 83 -17 127 -17c92.667 0 139 55 139 165v506c0 6 1 9.83301 3 11.5s5.66699 2.5 11 2.5h22c5.33301 0 9 -0.833008 11 -2.5s3 -5.5 3 -11.5v-510
c0 -138 -61.333 -207 -184 -207c-52.667 0 -97 5 -133 15c-7.33301 2 -11 7.33301 -11 16zM415.999 802l-80.002 79l-81 -79c-8.66699 -8.66699 -17 -13 -25 -13h-23c-4 0 -6.66699 0.833008 -8 2.5s-1.16602 4 0.500977 7s4.16699 6.16699 7.5 9.5l98 100
c8.66699 9.33301 18.667 14 30 14c10.667 0 21 -5 31 -15l99 -99c5.33301 -5.33301 7.83301 -9.83301 7.5 -13.5s-3.16602 -5.5 -8.49902 -5.5h-23c-8 0 -16.333 4.33301 -25 13z" />
    <glyph glyph-name="jcircumflex" unicode="&#x135;" horiz-adv-x="229" 
d="M139 -118c0 -88 -36 -132 -108 -132c-30 0 -51 3.66699 -63 11c-6 2.66699 -9 7 -9 13v23c0 8 4.33301 10.667 13 8c21.333 -6 40.333 -9 57 -9c40.667 0 61 31 61 93v633c0 5.33301 1 9 3 11s5.66699 3 11 3h21c5.33301 0 9 -1 11 -3s3 -5.66699 3 -11v-640zM193 639
l-80.002 79l-81 -79c-8.66699 -8.66699 -17 -13 -25 -13h-23c-4 0 -6.66699 0.833008 -8 2.5s-1.16602 4 0.500977 7s4.16699 6.16699 7.5 9.5l98 100c8.66699 9.33301 18.667 14 30 14c10.667 0 21 -5 31 -15l99 -99c5.33301 -4.66699 7.83301 -9 7.5 -13
s-3.16602 -6 -8.49902 -6h-23c-8 0 -16.333 4.33301 -25 13z" />
    <glyph glyph-name="Kcommaaccent" unicode="&#x136;" horiz-adv-x="633" 
d="M272 380l-9.99902 0.000976562l-103 -117v-249c0 -6 -1 -9.83301 -3 -11.5s-6 -2.5 -12 -2.5h-21c-6 0 -10 0.833008 -12 2.5s-3 5.5 -3 11.5v694c0 6 1 9.83301 3 11.5s6 2.5 12 2.5h21c6 0 10 -0.833008 12 -2.5s3 -5.5 3 -11.5v-377l333 379
c7.33301 8 14.666 12 21.999 12h32c4.66699 0 7.66699 -1.33301 9 -4s0.333008 -6.33398 -3 -11.001l-255 -288c16.667 -0.666992 32.667 -4.33398 48 -11.001s28.666 -14.667 39.999 -24s22.5 -22.333 33.5 -39s20 -31.667 27 -45s14.667 -31 23 -53
s14.666 -39.833 18.999 -53.5l17.5 -55.5l16 -50c10.667 -32.667 26.334 -49 47.001 -49c8 0 20 2.66699 36 8c6.66699 2.66699 11 3.5 13 2.5s3 -4.83301 3 -11.5v-13c0 -6 -0.833008 -10.167 -2.5 -12.5s-6.5 -5.16602 -14.5 -8.49902c-12.667 -4.66699 -25 -7 -37 -7
c-13.333 0 -24.666 1.33301 -33.999 4s-19.666 10.167 -30.999 22.5s-21 30.166 -29 53.499c-4.66699 12.667 -10.834 31.834 -18.501 57.501l-20 67c-5.66699 19 -14 40.5 -25 64.5s-22.167 43.667 -33.5 59s-26 28.333 -44 39s-37.667 16 -59 16zM281.001 -135.999
c0 14 4.33301 25.335 13 34.002s19 13 31 13s22 -4.16699 30 -12.5s12 -20.166 12 -35.499c0 -44.667 -27.667 -90.334 -83 -137.001c-6.66699 -6 -12 -6.66699 -16 -2l-6 7c-4 5.33301 -2.66699 10.666 4 15.999c28.667 21.333 46.667 46.666 54 75.999
c-26 1.33301 -39 15 -39 41z" />
    <glyph glyph-name="kcommaaccent" unicode="&#x137;" horiz-adv-x="499" 
d="M456 507l-260.998 -238l257 -254c4.66699 -4.66699 6.16699 -8.33398 4.5 -11.001s-5.5 -4 -11.5 -4h-26c-8.66699 0 -17.334 3 -26.001 9l-255 251v-250c0 -0.666992 -0.166992 -1.5 -0.5 -2.5s-0.5 -1.83301 -0.5 -2.5c-0.666992 -0.666992 -1 -1.33398 -1 -2.00098
l-1 -1h-1l-1 -1c-0.666992 0 -1 -0.166992 -1 -0.5s-0.333008 -0.5 -1 -0.5h-36l-1 1l-1 1h-2c-1.33301 2.66699 -2 5.33398 -2 8.00098v743c0 4.66699 2 7.66699 6 9c1.33301 0.666992 4 1 8 1h25l1 -1h2h2l3 -4c0.666992 0 1 -0.333008 1 -1v-1l1 -1v-2v-476l264 239
c8 7.33301 16.667 11 26 11h28c3.33301 0 5.66602 -0.833008 6.99902 -2.5s1.5 -4.16699 0.5 -7.5s-3.5 -6.66602 -7.5 -9.99902zM223.002 -136c0 14 4.33301 25.335 13 34.002s19 13 31 13s22 -4.16699 30 -12.5s12 -20.166 12 -35.499
c0 -44.667 -27.667 -90.334 -83 -137.001c-6.66699 -6 -12 -6.66699 -16 -2l-6 7c-4 5.33301 -2.66699 10.666 4 15.999c28.667 21.333 46.667 46.666 54 75.999c-26 1.33301 -39 15 -39 41z" />
    <glyph glyph-name="Lacute" unicode="&#x139;" horiz-adv-x="544" 
d="M128 0c-5.33301 0 -8.83301 0.833008 -10.5 2.5s-2.5 5.5 -2.5 11.5v694c0 6 1 9.83301 3 11.5s5.66699 2.5 11 2.5h21c6 0 10 -0.833008 12 -2.5s3 -5.5 3 -11.5v-663h340c5.33301 0 9 -1 11 -3s3 -5.66699 3 -11v-16c0 -6 -1 -10 -3 -12s-5.66699 -3 -11 -3h-377z
M101 801l-6.00098 12c-4 7.33301 -3 12.333 3 15l152 81c9.33301 4.66699 16 3 20 -5l10 -19c4.66699 -9.33301 2.33398 -16 -6.99902 -20l-155 -68c-8 -3.33301 -13.667 -2 -17 4z" />
    <glyph glyph-name="lacute" unicode="&#x13a;" horiz-adv-x="227" 
d="M144 749v-735c0 -6 -1 -9.83301 -3 -11.5s-5.66699 -2.5 -11 -2.5h-21c-5.33301 -0 -9 0.833008 -11 2.5s-3 5.5 -3 11.5v735c0 6 1 9.83301 3 11.5s5.66699 2.5 11 2.5h21c5.33301 0 9 -0.833008 11 -2.5s3 -5.5 3 -11.5zM56 793l-6.00098 12c-4 7.33301 -3 12.333 3 15
l152 81c9.33301 4.66699 16 3 20 -5l10 -19c4.66699 -9.33301 2.33398 -16 -6.99902 -20l-155 -68c-8 -3.33301 -13.667 -2 -17 4z" />
    <glyph glyph-name="Lcommaaccent" unicode="&#x13b;" horiz-adv-x="544" 
d="M123 0c-5.33301 0 -9 0.833008 -11 2.5s-3 5.5 -3 11.5v694c0 6 1 9.83301 3 11.5s6 2.5 12 2.5h21c6 0 10 -0.833008 12 -2.5s3 -5.5 3 -11.5v-663h340c5.33301 0 9 -1 11 -3s3 -5.66699 3 -11v-16c0 -6 -1 -10 -3 -12s-5.66699 -3 -11 -3h-377zM266 -136
c0 14 4.33398 25.335 13.001 34.002s19 13 31 13s22 -4.16699 30 -12.5s12 -20.166 12 -35.499c0 -44.667 -27.667 -90.334 -83 -137.001c-6.66699 -6 -12 -6.66699 -16 -2l-6 7c-4.66699 5.33301 -3.33398 10.666 3.99902 15.999c28.667 21.333 46.667 46.666 54 75.999
c-26 1.33301 -39 15 -39 41z" />
    <glyph glyph-name="lcommaaccent" unicode="&#x13c;" horiz-adv-x="227" 
d="M145 749v-735c0 -6 -1 -9.83301 -3 -11.5s-5.66699 -2.5 -11 -2.5h-21c-5.33301 -0 -9 0.833008 -11 2.5s-3 5.5 -3 11.5v735c0 6 1 9.83301 3 11.5s5.66699 2.5 11 2.5h21c5.33301 0 9 -0.833008 11 -2.5s3 -5.5 3 -11.5zM91 -118c0 14 4.33398 25.335 13.001 34.002
s19 13 31 13s22 -4.16699 30 -12.5s12 -20.166 12 -35.499c0 -44.667 -27.667 -90.334 -83 -137.001c-6.66699 -6 -12 -6.66699 -16 -2l-6 7c-4.66699 5.33301 -3.33398 10.666 3.99902 15.999c28.667 21.333 46.667 46.666 54 75.999c-26 1.33301 -39 15 -39 41z" />
    <glyph glyph-name="Lcaron" unicode="&#x13d;" horiz-adv-x="547" 
d="M123 0c-5.33301 0 -9 0.833008 -11 2.5s-3 5.5 -3 11.5v694c0 6 1 9.83301 3 11.5s6 2.5 12 2.5h21c6 0 10 -0.833008 12 -2.5s3 -5.5 3 -11.5v-663h340c5.33301 0 9 -1 11 -3s3 -5.66699 3 -11v-16c0 -6 -1 -10 -3 -12s-5.66699 -3 -11 -3h-377zM405 541l-6.99805 168
c-0.666992 5.33301 0.666016 8.83301 3.99902 10.5s11 2.5 23 2.5s19.667 -0.833008 23 -2.5s4.66602 -5.16699 3.99902 -10.5l-7 -168c0 -9.33301 -6.66699 -14 -20 -14c-8 0 -13.333 1 -16 3s-4 5.66699 -4 11z" />
    <glyph glyph-name="lcaron" unicode="&#x13e;" horiz-adv-x="237" 
d="M138 749v-735c0 -6 -1 -9.83301 -3 -11.5s-5.66699 -2.5 -11 -2.5h-21c-5.33301 -0 -9 0.833008 -11 2.5s-3 5.5 -3 11.5v735c0 6 1 9.83301 3 11.5s5.66699 2.5 11 2.5h21c5.33301 0 9 -0.833008 11 -2.5s3 -5.5 3 -11.5zM197 714
c0 13.333 3.83203 24.166 11.499 32.499s17.5 12.5 29.5 12.5c11.333 0 20.833 -4.16699 28.5 -12.5s11.5 -19.833 11.5 -34.5c0 -43.333 -27 -88.333 -81 -135c-7.33301 -6 -13 -6.66699 -17 -2l-5 6c-2.66699 4.66699 -1 9.66699 5 15
c30.667 28.667 48.334 54.334 53.001 77.001c-24 1.33301 -36 15 -36 41z" />
    <glyph glyph-name="Ldot" unicode="&#x13f;" horiz-adv-x="550" 
d="M122 0c-5.33301 0 -8.83301 0.833008 -10.5 2.5s-2.5 5.5 -2.5 11.5v694c0 6 1 9.83301 3 11.5s5.66699 2.5 11 2.5h21c6 0 10 -0.833008 12 -2.5s3 -5.5 3 -11.5v-663h340c5.33301 0 9 -1 11 -3s3 -5.66699 3 -11v-16c0 -6 -1 -10 -3 -12s-5.66699 -3 -11 -3h-377z
M299 347c0 12 3.83398 22 11.501 30s17.167 12 28.5 12c10 0 18.5 -3.5 25.5 -10.5s10.5 -16.5 10.5 -28.5s-3.83301 -21.667 -11.5 -29s-17.167 -11 -28.5 -11c-10.667 0 -19.334 3.33301 -26.001 10s-10 15.667 -10 27z" />
    <glyph glyph-name="ldot" unicode="&#x140;" horiz-adv-x="300" 
d="M138 749v-735c0 -6 -1 -9.83301 -3 -11.5s-5.66699 -2.5 -11 -2.5h-21c-5.33301 -0 -9 0.833008 -11 2.5s-3 5.5 -3 11.5v735c0 6 1 9.83301 3 11.5s5.66699 2.5 11 2.5h21c5.33301 0 9 -0.833008 11 -2.5s3 -5.5 3 -11.5zM219 281c0 12 3.83301 21.999 11.5 29.999
s17.167 12 28.5 12c10 0 18.667 -3.66699 26 -11s11 -16.666 11 -27.999c0 -12 -4 -21.667 -12 -29s-17.667 -11 -29 -11c-10 0 -18.5 3.33301 -25.5 10s-10.5 15.667 -10.5 27z" />
    <glyph glyph-name="Lslash" unicode="&#x141;" horiz-adv-x="563" 
d="M129 278l-94 -45.001c-8.66699 -4 -13 -1.66699 -13 7v20c0 8.66699 4.66699 15.667 14 21l93 44v383c0 6 1 9.83301 3 11.5s5.66699 2.5 11 2.5h22c5.33301 0 9 -0.833008 11 -2.5s3 -5.5 3 -11.5v-359l158 76c8 4.66699 12 2.33398 12 -6.99902v-20
c0 -10 -4 -16.667 -12 -20l-158 -76v-257h340c6 0 9.83301 -1 11.5 -3s2.5 -5.66699 2.5 -11v-16c0 -6 -0.833008 -10 -2.5 -12s-5.5 -3 -11.5 -3h-377c-5.33301 -0 -8.83301 0.833008 -10.5 2.5s-2.5 5.5 -2.5 11.5v264z" />
    <glyph glyph-name="lslash" unicode="&#x142;" horiz-adv-x="373" 
d="M139 361l-88 -43c-8.66699 -4 -13 -2 -13 6v21c0 8.66699 4.33301 15.334 13 20.001l88 43v341c0 6 1 9.83301 3 11.5s6 2.5 12 2.5h20c6 0 10 -0.833008 12 -2.5s3 -5.5 3 -11.5v-316l136 68c8 4 12 1.33301 12 -8v-20c0 -10 -4 -16.667 -12 -20l-136 -67v-304
c0 -27.333 10.667 -41 32 -41c8.66699 0 21 2 37 6c10.667 3.33301 16 0.666016 16 -8.00098v-20c0 -8 -4.33301 -13.333 -13 -16c-16 -4.66699 -32.333 -7 -49 -7c-48.667 0 -73 26.333 -73 79v286z" />
    <glyph glyph-name="Nacute" unicode="&#x143;" horiz-adv-x="711" 
d="M584 0h-19.002c-7.33301 0 -15 5 -23 15l-353 570c-20 33.333 -32 57 -36 71c4 -29.333 6 -54 6 -74v-568c0 -6 -1 -9.83301 -3 -11.5s-6 -2.5 -12 -2.5h-20c-6 -0 -10 0.833008 -12 2.5s-3 5.5 -3 11.5v695c0 6 1.16699 9.66699 3.5 11s7.16602 2 14.499 2h19
c8.66699 0 16.334 -5 23.001 -15l363 -590c16.667 -29.333 26.334 -48.333 29.001 -57c-6 26 -9 55.667 -9 89v559c0 6 1 9.83301 3 11.5s6 2.5 12 2.5h20c6 0 10 -0.833008 12 -2.5s3 -5.5 3 -11.5v-695c0 -6 -1.16699 -9.66699 -3.5 -11s-7.16602 -2 -14.499 -2z
M315.998 801l-6.00098 12c-4 7.33301 -3 12.333 3 15l152 81c9.33301 4.66699 16 3 20 -5l10 -19c4.66699 -9.33301 2.33398 -16 -6.99902 -20l-155 -68c-8 -3.33301 -13.667 -2 -17 4z" />
    <glyph glyph-name="nacute" unicode="&#x144;" horiz-adv-x="559" 
d="M297 498c-50 0 -88.999 -19.333 -116.999 -58s-42 -92.667 -42 -162v-264c0 -6 -1 -9.83301 -3 -11.5s-5.66699 -2.5 -11 -2.5h-21c-5.33301 -0 -9 0.833008 -11 2.5s-3 5.5 -3 11.5v504c0 9.33301 4.66699 14 14 14h21c9.33301 0 14 -4.66699 14 -14v-81
c14.667 36 37.167 62.833 67.5 80.5s64.166 26.5 101.499 26.5c50.667 0 91.167 -16 121.5 -48s45.5 -77.667 45.5 -137v-345c0 -6 -1 -9.83301 -3 -11.5s-5.66699 -2.5 -11 -2.5h-21c-5.33301 -0 -9 0.833008 -11 2.5s-3 5.5 -3 11.5v333c0 100.667 -42.667 151 -128 151z
M245.001 631l-6.00098 12c-4 7.33301 -3 12.333 3 15l152 81c9.33301 4.66699 16 3 20 -5l10 -19c4.66699 -9.33301 2.33398 -16 -6.99902 -20l-155 -68c-8 -3.33301 -13.667 -2 -17 4z" />
    <glyph glyph-name="Ncommaaccent" unicode="&#x145;" horiz-adv-x="711" 
d="M584 0h-19.002c-7.33301 0 -15 5 -23 15l-353 570c-20 33.333 -32 57 -36 71c4 -29.333 6 -54 6 -74v-568c0 -6 -1 -9.83301 -3 -11.5s-6 -2.5 -12 -2.5h-20c-6 -0 -10 0.833008 -12 2.5s-3 5.5 -3 11.5v695c0 6 1.16699 9.66699 3.5 11s7.16602 2 14.499 2h19
c8.66699 0 16.334 -5 23.001 -15l363 -590c16.667 -29.333 26.334 -48.333 29.001 -57c-6 26 -9 55.667 -9 89v559c0 6 1 9.83301 3 11.5s6 2.5 12 2.5h20c6 0 10 -0.833008 12 -2.5s3 -5.5 3 -11.5v-695c0 -6 -1.16699 -9.66699 -3.5 -11s-7.16602 -2 -14.499 -2z
M322.998 -136c0 14 4.33301 25.335 13 34.002s19 13 31 13s22 -4.16699 30 -12.5s12 -20.166 12 -35.499c0 -44.667 -27.667 -90.334 -83 -137.001c-6.66699 -6 -12 -6.66699 -16 -2l-6 7c-4 5.33301 -2.66699 10.666 4 15.999c28.667 21.333 46.667 46.666 54 75.999
c-26 1.33301 -39 15 -39 41z" />
    <glyph glyph-name="ncommaaccent" unicode="&#x146;" horiz-adv-x="559" 
d="M297 498c-50 0 -88.999 -19.333 -116.999 -58s-42 -92.667 -42 -162v-264c0 -6 -1 -9.83301 -3 -11.5s-5.66699 -2.5 -11 -2.5h-21c-5.33301 -0 -9 0.833008 -11 2.5s-3 5.5 -3 11.5v504c0 9.33301 4.66699 14 14 14h21c9.33301 0 14 -4.66699 14 -14v-81
c14.667 36 37.167 62.833 67.5 80.5s64.166 26.5 101.499 26.5c50.667 0 91.167 -16 121.5 -48s45.5 -77.667 45.5 -137v-345c0 -6 -1 -9.83301 -3 -11.5s-5.66699 -2.5 -11 -2.5h-21c-5.33301 -0 -9 0.833008 -11 2.5s-3 5.5 -3 11.5v333c0 100.667 -42.667 151 -128 151z
M239.001 -136c0 14 4.33301 25.335 13 34.002s19 13 31 13s22 -4.16699 30 -12.5s12 -20.166 12 -35.499c0 -44.667 -27.667 -90.334 -83 -137.001c-6.66699 -6 -12 -6.66699 -16 -2l-6 7c-4 5.33301 -2.66699 10.666 4 15.999c28.667 21.333 46.667 46.666 54 75.999
c-26 1.33301 -39 15 -39 41z" />
    <glyph glyph-name="Ncaron" unicode="&#x147;" horiz-adv-x="711" 
d="M584 0h-19.002c-7.33301 0 -15 5 -23 15l-353 570c-20 33.333 -32 57 -36 71c4 -29.333 6 -54 6 -74v-568c0 -6 -1 -9.83301 -3 -11.5s-6 -2.5 -12 -2.5h-20c-6 -0 -10 0.833008 -12 2.5s-3 5.5 -3 11.5v695c0 6 1.16699 9.66699 3.5 11s7.16602 2 14.499 2h19
c8.66699 0 16.334 -5 23.001 -15l363 -590c16.667 -29.333 26.334 -48.333 29.001 -57c-6 26 -9 55.667 -9 89v559c0 6 1 9.83301 3 11.5s6 2.5 12 2.5h20c6 0 10 -0.833008 12 -2.5s3 -5.5 3 -11.5v-695c0 -6 -1.16699 -9.66699 -3.5 -11s-7.16602 -2 -14.499 -2z
M274.998 915l81.001 -79l78 79c9.33301 8.66699 17.666 13 24.999 13h27c4.66699 0 7.16699 -1.83301 7.5 -5.5s-1.5 -7.16699 -5.5 -10.5l-103 -103c-8.66699 -9.33301 -18.667 -14 -30 -14s-21.333 4.66699 -30 14l-104 103c-3.33301 3.33301 -4.83301 6.83301 -4.5 10.5
s2.83301 5.5 7.5 5.5h26c8 0 16.333 -4.33301 25 -13z" />
    <glyph glyph-name="ncaron" unicode="&#x148;" horiz-adv-x="559" 
d="M297 498c-50 0 -88.999 -19.333 -116.999 -58s-42 -92.667 -42 -162v-264c0 -6 -1 -9.83301 -3 -11.5s-5.66699 -2.5 -11 -2.5h-21c-5.33301 -0 -9 0.833008 -11 2.5s-3 5.5 -3 11.5v504c0 9.33301 4.66699 14 14 14h21c9.33301 0 14 -4.66699 14 -14v-81
c14.667 36 37.167 62.833 67.5 80.5s64.166 26.5 101.499 26.5c50.667 0 91.167 -16 121.5 -48s45.5 -77.667 45.5 -137v-345c0 -6 -1 -9.83301 -3 -11.5s-5.66699 -2.5 -11 -2.5h-21c-5.33301 -0 -9 0.833008 -11 2.5s-3 5.5 -3 11.5v333c0 100.667 -42.667 151 -128 151z
M204.001 745l81.001 -79l78 79c9.33301 8.66699 17.666 13 24.999 13h27c4.66699 0 7.16699 -1.83301 7.5 -5.5s-1.5 -7.16699 -5.5 -10.5l-103 -103c-8.66699 -9.33301 -18.667 -14 -30 -14s-21.333 4.66699 -30 14l-104 103c-3.33301 3.33301 -4.83301 6.83301 -4.5 10.5
s2.83301 5.5 7.5 5.5h26c8 0 16.333 -4.33301 25 -13z" />
    <glyph glyph-name="napostrophe" unicode="&#x149;" horiz-adv-x="559" 
d="M300 498c-50 0 -88.999 -19.333 -116.999 -58s-42 -92.667 -42 -162v-264c0 -6 -1 -9.83301 -3 -11.5s-5.66699 -2.5 -11 -2.5h-21c-5.33301 -0 -9 0.833008 -11 2.5s-3 5.5 -3 11.5v504c0 9.33301 4.66699 14 14 14h21c9.33301 0 14 -4.66699 14 -14v-81
c14.667 36 37.167 62.833 67.5 80.5s64.166 26.5 101.499 26.5c50.667 0 91.167 -16 121.5 -48s45.5 -77.667 45.5 -137v-345c0 -6 -1 -9.83301 -3 -11.5s-5.66699 -2.5 -11 -2.5h-21c-5.33301 -0 -9 0.833008 -11 2.5s-3 5.5 -3 11.5v333c0 100.667 -42.667 151 -128 151z
M115.001 728c0 14 4.33398 25.335 13.001 34.002s19 13 31 13s22 -4.16699 30 -12.5s12 -20.166 12 -35.499c0 -44.667 -27.667 -90.334 -83 -137.001c-6.66699 -6 -12 -6.66699 -16 -2l-6 7c-4.66699 5.33301 -3.33398 10.666 3.99902 15.999
c28.667 21.333 46.667 46.666 54 75.999c-26 1.33301 -39 15 -39 41z" />
    <glyph glyph-name="Eng" unicode="&#x14a;" horiz-adv-x="713" 
d="M556 708c0 6 1 9.83398 3 11.501s6 2.5 12 2.5h18c6 0 10 -0.833008 12 -2.5s3 -5.5 3 -11.5v-318h1v-393c0 -138 -61.667 -207 -185 -207c-52.667 0 -97 5 -133 15c-7.33301 1.33301 -11 6.66602 -11 15.999v21c0 8.66699 4 12 12 10c49.333 -11.333 92 -17 128 -17
c92.667 0 139.667 53.667 141 161c-3.33301 2 -6.33301 5 -9 9l-392 621v-612c0 -6 -1 -9.83301 -3 -11.5s-6 -2.5 -12 -2.5h-18c-6 -0 -10 0.833008 -12 2.5s-3 5.5 -3 11.5v694c0 6 1 9.83301 3 11.5s6 2.5 12 2.5h16c11.333 -1.33301 20.333 -6.33301 27 -15l390 -621
v622z" />
    <glyph glyph-name="eng" unicode="&#x14b;" horiz-adv-x="558" 
d="M296 498c-50 0 -89.001 -19.333 -117.001 -58s-42 -92.667 -42 -162v-264c0 -6 -1 -9.83301 -3 -11.5s-5.66699 -2.5 -11 -2.5h-21c-5.33301 -0 -9 0.833008 -11 2.5s-3 5.5 -3 11.5v499c0 9.33301 4.66699 14 14 14h21c9.33301 0 14 -4.66699 14 -14v-76
c14.667 36 37.167 62.833 67.5 80.5s64.166 26.5 101.499 26.5c50.667 0 91.167 -16 121.5 -48s45.5 -77.667 45.5 -137v-436c0 -114.667 -45.333 -172 -136 -172c-15.333 0 -30.166 1.5 -44.499 4.5s-26 6.33301 -35 10s-14.167 5.5 -15.5 5.5c-4 0 -6 4.66699 -6 14v22
c0 6 4.33301 7.33301 13 4c26.667 -12.667 55.334 -19 86.001 -19c59.333 0 89 41 89 123v432c0 100.667 -42.667 151 -128 151z" />
    <glyph glyph-name="Omacron" unicode="&#x14c;" horiz-adv-x="804" 
d="M66 356c0 37.333 3.16895 72.999 9.50195 106.999s17.5 67.667 33.5 101s36.167 62.333 60.5 87s56.333 44.5 96 59.5s84.834 22.5 135.501 22.5c60 0 112.5 -10.333 157.5 -31s80.167 -48.834 105.5 -84.501s44 -74.667 56 -117s18 -87.833 18 -136.5
c0 -36.667 -3.16699 -72 -9.5 -106s-17.333 -67.833 -33 -101.5s-35.834 -62.667 -60.501 -87s-56.834 -44.166 -96.501 -59.499s-84.834 -23 -135.501 -23c-60.667 0 -113.5 10.333 -158.5 31s-80 48.834 -105 84.501s-43.5 74.667 -55.5 117s-18 87.833 -18 136.5z
M400.002 689.999c-42.667 0 -80.667 -6.66797 -114 -20.001s-60.333 -30.833 -81 -52.5s-37.834 -47.167 -51.501 -76.5s-23.167 -58.666 -28.5 -87.999s-8 -59.666 -8 -90.999s2.66699 -61.833 8 -91.5s14.833 -59.334 28.5 -89.001s31 -55.5 52 -77.5
s48.667 -39.833 83 -53.5s73.166 -20.5 116.499 -20.5c44 0 83 7.16699 117 21.5s61.167 32.5 81.5 54.5s37 48 50 78s21.833 59 26.5 87s7 57 7 87c0 30.667 -2.66699 60.667 -8 90s-14.666 59 -27.999 89s-30.5 56 -51.5 78s-48.667 40 -83 54s-73.166 21 -116.499 21z
M515.002 803.998h-220c-8 0 -12 7.33301 -12 22c0 13.333 4 20 12 20h220c7.33301 0 11 -6.33301 11 -19c0 -15.333 -3.66699 -23 -11 -23z" />
    <glyph glyph-name="omacron" unicode="&#x14d;" horiz-adv-x="572" 
d="M63 266c0 84.667 18 152.167 54 202.5s92.333 75.5 169 75.5c76 0 132.167 -25.167 168.5 -75.5s54.5 -117.833 54.5 -202.5s-18.167 -152.334 -54.5 -203.001s-92.5 -76 -168.5 -76c-76.667 0 -133 25.333 -169 76s-54 118.334 -54 203.001zM286 498
c-115.333 0 -173 -77.333 -173 -232c0 -155.333 57.667 -233 173 -233c114.667 0 172 77.667 172 233c0 154.667 -57.333 232 -172 232zM401 633h-220c-8 0 -12 7.33301 -12 22c0 13.333 4 20 12 20h220c7.33301 0 11 -6.33301 11 -19c0 -15.333 -3.66699 -23 -11 -23z" />
    <glyph glyph-name="Obreve" unicode="&#x14e;" horiz-adv-x="804" 
d="M66 356c0 37.333 3.16895 72.999 9.50195 106.999s17.5 67.667 33.5 101s36.167 62.333 60.5 87s56.333 44.5 96 59.5s84.834 22.5 135.501 22.5c60 0 112.5 -10.333 157.5 -31s80.167 -48.834 105.5 -84.501s44 -74.667 56 -117s18 -87.833 18 -136.5
c0 -36.667 -3.16699 -72 -9.5 -106s-17.333 -67.833 -33 -101.5s-35.834 -62.667 -60.501 -87s-56.834 -44.166 -96.501 -59.499s-84.834 -23 -135.501 -23c-60.667 0 -113.5 10.333 -158.5 31s-80 48.834 -105 84.501s-43.5 74.667 -55.5 117s-18 87.833 -18 136.5z
M400.002 689.999c-42.667 0 -80.667 -6.66797 -114 -20.001s-60.333 -30.833 -81 -52.5s-37.834 -47.167 -51.501 -76.5s-23.167 -58.666 -28.5 -87.999s-8 -59.666 -8 -90.999s2.66699 -61.833 8 -91.5s14.833 -59.334 28.5 -89.001s31 -55.5 52 -77.5
s48.667 -39.833 83 -53.5s73.166 -20.5 116.499 -20.5c44 0 83 7.16699 117 21.5s61.167 32.5 81.5 54.5s37 48 50 78s21.833 59 26.5 87s7 57 7 87c0 30.667 -2.66699 60.667 -8 90s-14.666 59 -27.999 89s-30.5 56 -51.5 78s-48.667 40 -83 54s-73.166 21 -116.499 21z
M400.002 826.998c48.667 0 73 18.333 73 55c0 6 3.33301 9 10 9h26c6 0 9 -3.33301 9 -10c0 -30 -11 -53.667 -33 -71s-50.333 -26 -85 -26c-36.667 0 -65.167 8.66699 -85.5 26s-30.5 41.333 -30.5 72c0 6 3 9 9 9h27c6 0 9 -2.66699 9 -8c0 -37.333 23.667 -56 71 -56z
" />
    <glyph glyph-name="obreve" unicode="&#x14f;" horiz-adv-x="572" 
d="M63 266c0 84.667 18 152.167 54 202.5s92.333 75.5 169 75.5c76 0 132.167 -25.167 168.5 -75.5s54.5 -117.833 54.5 -202.5s-18.167 -152.334 -54.5 -203.001s-92.5 -76 -168.5 -76c-76.667 0 -133 25.333 -169 76s-54 118.334 -54 203.001zM286 498
c-115.333 0 -173 -77.333 -173 -232c0 -155.333 57.667 -233 173 -233c114.667 0 172 77.667 172 233c0 154.667 -57.333 232 -172 232zM286 656c48.667 0 73 18.333 73 55c0 6 3.33301 9 10 9h26c6 0 9 -3.33301 9 -10c0 -30 -11 -53.667 -33 -71s-50.333 -26 -85 -26
c-36.667 0 -65.167 8.66699 -85.5 26s-30.5 41.333 -30.5 72c0 6 3 9 9 9h27c6 0 9 -2.66699 9 -8c0 -37.333 23.667 -56 71 -56z" />
    <glyph glyph-name="Ohungarumlaut" unicode="&#x150;" horiz-adv-x="804" 
d="M66 356c0 37.333 3.16895 72.999 9.50195 106.999s17.5 67.667 33.5 101s36.167 62.333 60.5 87s56.333 44.5 96 59.5s84.834 22.5 135.501 22.5c60 0 112.5 -10.333 157.5 -31s80.167 -48.834 105.5 -84.501s44 -74.667 56 -117s18 -87.833 18 -136.5
c0 -36.667 -3.16699 -72 -9.5 -106s-17.333 -67.833 -33 -101.5s-35.834 -62.667 -60.501 -87s-56.834 -44.166 -96.501 -59.499s-84.834 -23 -135.501 -23c-60.667 0 -113.5 10.333 -158.5 31s-80 48.834 -105 84.501s-43.5 74.667 -55.5 117s-18 87.833 -18 136.5z
M400.002 689.999c-42.667 0 -80.667 -6.66797 -114 -20.001s-60.333 -30.833 -81 -52.5s-37.834 -47.167 -51.501 -76.5s-23.167 -58.666 -28.5 -87.999s-8 -59.666 -8 -90.999s2.66699 -61.833 8 -91.5s14.833 -59.334 28.5 -89.001s31 -55.5 52 -77.5
s48.667 -39.833 83 -53.5s73.166 -20.5 116.499 -20.5c44 0 83 7.16699 117 21.5s61.167 32.5 81.5 54.5s37 48 50 78s21.833 59 26.5 87s7 57 7 87c0 30.667 -2.66699 60.667 -8 90s-14.666 59 -27.999 89s-30.5 56 -51.5 78s-48.667 40 -83 54s-73.166 21 -116.499 21z
M319.002 805.998l-6.00195 7.00195c-3.33301 4.66699 -0.666016 9.66699 8.00098 15l120 74c12.667 8 21.667 9.33301 27 4l16 -17c4.66699 -4.66699 6.66699 -8.33398 6 -11.001s-5 -5.66699 -13 -9l-133 -63c-8.66699 -4 -14.167 -5.83301 -16.5 -5.5
s-5.16602 2.16602 -8.49902 5.49902zM453 806l-6.00098 7c-2.66699 4.66699 0 9.66699 8 15l120 74c13.333 8.66699 22.333 10 27 4l16 -17c4 -4.66699 5.66699 -8.16699 5 -10.5s-5 -5.5 -13 -9.5l-132 -63c-8.66699 -4 -14.167 -6 -16.5 -6s-5.16602 2 -8.49902 6z" />
    <glyph glyph-name="ohungarumlaut" unicode="&#x151;" horiz-adv-x="572" 
d="M63 266c0 84.667 18 152.167 54 202.5s92.333 75.5 169 75.5c76 0 132.167 -25.167 168.5 -75.5s54.5 -117.833 54.5 -202.5s-18.167 -152.334 -54.5 -203.001s-92.5 -76 -168.5 -76c-76.667 0 -133 25.333 -169 76s-54 118.334 -54 203.001zM286 498
c-115.333 0 -173 -77.333 -173 -232c0 -155.333 57.667 -233 173 -233c114.667 0 172 77.667 172 233c0 154.667 -57.333 232 -172 232zM205 635l-6.00195 7.00195c-3.33301 4.66699 -0.666016 9.66699 8.00098 15l120 74c12.667 8 21.667 9.33301 27 4l16 -17
c4.66699 -4.66699 6.66699 -8.33398 6 -11.001s-5 -5.66699 -13 -9l-133 -63c-8.66699 -4 -14.167 -5.83301 -16.5 -5.5s-5.16602 2.16602 -8.49902 5.49902zM338.998 635.002l-6 7c-2.66699 4.66699 0 9.66699 8 15l120 74c13.333 8.66699 22.333 10 27 4l16 -17
c4 -4.66699 5.66699 -8.16699 5 -10.5s-5 -5.5 -13 -9.5l-132 -63c-9.33301 -4 -15 -6 -17 -6s-4.66699 2 -8 6z" />
    <glyph glyph-name="OE" unicode="&#x152;" horiz-adv-x="1134" 
d="M66 356c0 37.333 3.16504 72.999 9.49805 106.999s17.5 67.667 33.5 101s36.167 62.333 60.5 87s56.333 44.5 96 59.5s84.834 22.5 135.501 22.5c134.667 0 230.334 -51 287.001 -153v128c0 6 1 9.83301 3 11.5s5.66699 2.5 11 2.5h344c6 0 9.83301 -1 11.5 -3
s2.5 -6 2.5 -12v-16c0 -5.33301 -0.833008 -9 -2.5 -11s-5.5 -3 -11.5 -3h-308v-281h263c5.33301 0 8.83301 -1 10.5 -3s2.5 -5.66699 2.5 -11v-17c0 -5.33301 -0.833008 -9 -2.5 -11s-5.16699 -3 -10.5 -3h-263v-306h332c5.33301 0 8.83301 -1 10.5 -3
s2.5 -5.66699 2.5 -11v-16c0 -6 -0.833008 -10 -2.5 -12s-5.16699 -3 -10.5 -3h-368c-5.33301 0 -9 0.833008 -11 2.5s-3 5.5 -3 11.5v127c-55.333 -102.667 -150.333 -154 -285 -154c-60.667 0 -113.5 10.333 -158.5 31s-80 48.834 -105 84.501s-43.5 74.667 -55.5 117
s-18 87.833 -18 136.5zM399.998 689.999c-42.667 0 -80.667 -6.66797 -114 -20.001s-60.333 -30.833 -81 -52.5s-37.834 -47.167 -51.501 -76.5s-23.167 -58.666 -28.5 -87.999s-8 -59.666 -8 -90.999s2.66699 -61.833 8 -91.5s14.833 -59.334 28.5 -89.001
s31 -55.5 52 -77.5s48.667 -39.833 83 -53.5s73.166 -20.5 116.499 -20.5c44 0 83 7.16699 117 21.5s61.167 32.5 81.5 54.5s37 48 50 78s21.833 59 26.5 87s7 57 7 87c0 30.667 -2.66699 60.667 -8 90s-14.666 59 -27.999 89s-30.5 56 -51.5 78s-48.667 40 -83 54
s-73.166 21 -116.499 21z" />
    <glyph glyph-name="oe" unicode="&#x153;" horiz-adv-x="987" 
d="M63 266c0 84.667 18.001 152.167 54.001 202.5s92.333 75.5 169 75.5c109.333 0 179 -53.667 209 -161c16 51.333 42.833 91 80.5 119s85.167 42 142.5 42c69.333 0 122.666 -16.5 159.999 -49.5s56 -78.833 56 -137.5c0 -52.667 -18.333 -93.667 -55 -123
s-92.667 -44 -168 -44c-67.333 0 -128 10.333 -182 31c11.333 -128 77.666 -192 198.999 -192c34.667 0 65.334 4 92.001 12c16.667 4.66699 38.667 12.667 66 24c6.66699 2 10 -0.333008 10 -7v-19c0 -5.33301 -1 -9.33301 -3 -12s-6.66699 -5.33398 -14 -8.00098
c-46.667 -21.333 -96.667 -32 -150 -32c-125.333 0 -204 52.333 -236 157c-30 -104.667 -99 -157 -207 -157c-76.667 0 -133 25.333 -169 76s-54 118.334 -54 203.001zM286.001 498c-115.333 0 -173 -77.333 -173 -232c0 -155.333 57.667 -233 173 -233
c114.667 0 172 77.667 172 233c0 154.667 -57.333 232 -172 232zM718.001 503c-62.667 0 -110 -21.167 -142 -63.5s-48 -101.5 -48 -177.5c54 -20.667 111.667 -31 173 -31c122.667 0 184 43.667 184 131c0 44 -15 78.5 -45 103.5s-70.667 37.5 -122 37.5z" />
    <glyph glyph-name="Racute" unicode="&#x154;" horiz-adv-x="597" 
d="M108 708c0 6 0.998047 9.83496 2.99805 11.502s6 2.5 12 2.5h120c162.667 0 244 -70.667 244 -212c0 -113.333 -48 -183 -144 -209c22 -14.667 41.5 -37.5 58.5 -68.5s39.5 -82.167 67.5 -153.5c8 -18.667 15.5 -31 22.5 -37s16.833 -9 29.5 -9
c14.667 0 29 4.33301 43 13c10.667 6 16 4.33301 16 -5v-16c0 -8.66699 -5.66699 -16.334 -17 -23.001c-15.333 -8.66699 -32 -13 -50 -13c-20 0 -37.167 5.16699 -51.5 15.5s-28.166 32.166 -41.499 65.499l-13.5 36c-7 18.667 -12.667 33 -17 43s-10.5 23.5 -18.5 40.5
s-15.833 30.5 -23.5 40.5s-16.667 20.333 -27 31s-21.666 18.5 -33.999 23.5s-25.5 7.5 -39.5 7.5h-88v-278c0 -6 -1 -9.83301 -3 -11.5s-6 -2.5 -12 -2.5h-21c-6 -0 -10 0.833008 -12 2.5s-3 5.5 -3 11.5v694zM158.998 332.002l98.001 -0.000976562
c59.333 0 103.666 14.167 132.999 42.5s44 73.5 44 135.5c0 58.667 -15.333 101.834 -46 129.501s-76.667 41.5 -138 41.5h-91v-349zM224.999 801.001l-6.00098 12c-4 7.33301 -3 12.333 3 15l152 81c9.33301 4.66699 16 3 20 -5l10 -19
c4.66699 -9.33301 2.33398 -16 -6.99902 -20l-155 -68c-8 -3.33301 -13.667 -2 -17 4z" />
    <glyph glyph-name="racute" unicode="&#x155;" horiz-adv-x="397" 
d="M89 518c0 6 1.00293 9.83203 3.00293 11.499s5.66699 2.5 11 2.5h21c5.33301 0 9 -0.833008 11 -2.5s3 -5.5 3 -11.5v-125c4 16 9.33301 31.5 16 46.5s16.334 31 29.001 48s29.667 30.667 51 41s45.666 15.5 72.999 15.5c22 0 39.333 -2.33301 52 -7
c8 -2.66699 12 -7.66699 12 -15v-27c0 -7.33301 -3.66699 -9.66602 -11 -6.99902c-18 6.66699 -35.667 10 -53 10c-28.667 0 -54.334 -8.33301 -77.001 -25s-40.334 -38 -53.001 -64s-22.334 -52.333 -29.001 -79s-10 -52 -10 -76v-240c0 -6 -1 -9.83301 -3 -11.5
s-5.66699 -2.5 -11 -2.5h-21c-5.33301 -0 -9 0.833008 -11 2.5s-3 5.5 -3 11.5v504zM194.003 630.999l-6.00098 12c-4 7.33301 -3 12.333 3 15l152 81c9.33301 4.66699 16 3 20 -5l10 -19c4.66699 -9.33301 2.33398 -16 -6.99902 -20l-155 -68c-8 -3.33301 -13.667 -2 -17 4
z" />
    </font>
</defs>
</svg>
